<svg xmlns="http://www.w3.org/2000/svg" width="146" height="62" viewBox="0 0 146 62">
  <g id="Group_52" data-name="Group 52" transform="translate(-252.848 -194.26)">
    <path id="Path_493" data-name="Path 493" d="M397.966,206.566a10.651,10.651,0,0,0-.582-1.141,16.4,16.4,0,0,0-2.326-2.869,39.288,39.288,0,0,0-4.055-3.8,22.569,22.569,0,0,0-5.765-3.428c-5.275-2.083-12.2-1.206-15.372,3.412a13.85,13.85,0,0,0-16.375-1.15c-.921-1.461-3.016-1.567-4.771-1.507l-27.395.949-2.486,1.57a14.529,14.529,0,0,0-16.569,2.657A13.474,13.474,0,0,0,286.3,199.63c-1.033-1.3-2.988-1.353-4.672-1.289l-13.961.534-2.677,22.191a13.194,13.194,0,0,0-9.438,11.111c-.014.132-.023.268-.031.406-.171,3.23,1.509,7.749,1.509,7.749l-2.077,2.956-2.106,3,1.392,1.321.063.061a38.678,38.678,0,0,0,8.674,6.566c3.85,1.97,8.551,2.783,12.566,1.156a42.481,42.481,0,0,0,4.542-2.069,3.377,3.377,0,0,1,.675.339c.152.086.307.163.464.239a18.406,18.406,0,0,0,5.167,1.554,15.775,15.775,0,0,0,4.916-.056,15.528,15.528,0,0,0,2.246-.554q.55-.18,1.084-.4c.182-.076.362-.155.54-.238.071-.033.449-.272.508-.247a15.594,15.594,0,0,0,13.167-.573,14.971,14.971,0,0,0,15.549-2.1,15.654,15.654,0,0,0,18.372-.506c6.109,4.408,15.771,2.978,20.273-3a5.879,5.879,0,0,1,1.623-1.729,5.052,5.052,0,0,1,2.319-.468q7.587-.312,15.174-.631l3.1-19.845a14.683,14.683,0,0,0,11.263-6.336,13.979,13.979,0,0,0,2.318-7.421,11.107,11.107,0,0,0-.878-4.782"/>
    <path id="Path_494" data-name="Path 494" d="M274.641,209.073l3.466-.118-3.153-2.473Z" fill="#0183c8"/>
    <path id="Path_495" data-name="Path 495" d="M283.4,210.668a10.329,10.329,0,0,1,.936-3.206l-1.59-1.247-7.794.266,3.153,2.473,2.885-.1,2.405,1.887c0-.026,0-.049.005-.074" fill="#00466b"/>
    <path id="Path_496" data-name="Path 496" d="M289.134,207.057h0l-.022.023.022-.023" fill="#0183c8"/>
    <path id="Path_497" data-name="Path 497" d="M288.5,207.817l.057-.083-.057.083" fill="#0183c8"/>
    <path id="Path_498" data-name="Path 498" d="M287.8,209.187c.035-.1.073-.2.113-.294-.04.1-.078.195-.113.294" fill="#0183c8"/>
    <path id="Path_499" data-name="Path 499" d="M287.6,209.9c-.007.032-.016.063-.023.1h0c.006-.033.014-.064.021-.1" fill="#0183c8"/>
    <path id="Path_500" data-name="Path 500" d="M287.673,209.6c.015-.056.032-.111.049-.167-.017.055-.033.11-.049.167" fill="#0183c8"/>
    <path id="Path_501" data-name="Path 501" d="M288.009,208.677c.031-.065.063-.129.094-.193-.032.064-.063.128-.094.193" fill="#0183c8"/>
    <path id="Path_502" data-name="Path 502" d="M288.233,208.24c.027-.048.054-.1.083-.143-.029.047-.056.1-.083.143" fill="#0183c8"/>
    <path id="Path_503" data-name="Path 503" d="M288.816,207.4c.022-.026.045-.05.067-.076-.022.026-.044.049-.067.076" fill="#0183c8"/>
    <path id="Path_504" data-name="Path 504" d="M284.339,207.463a10.062,10.062,0,0,1,1.879-2.694l-3.009-2.36-.46,3.806Z" fill="#0183c8"/>
    <path id="Path_505" data-name="Path 505" d="M273.407,219.275l7.15,5.608.8-6.649-7.15-5.608Z" fill="#0183c8"/>
    <path id="Path_506" data-name="Path 506" d="M269.374,219.413l7.15,5.608,4.033-.138-7.151-5.608Z" fill="#00466b"/>
    <path id="Path_507" data-name="Path 507" d="M283.4,210.743l-2.405-1.887-.43,3.553,3.448,2.7a8.2,8.2,0,0,1-.612-4.37" fill="#0183c8"/>
    <path id="Path_508" data-name="Path 508" d="M274.211,212.626l6.351-.217.43-3.552-2.884.1-3.466.118.313-2.591,7.795-.266.46-3.806-11.827.4-2.008,16.6,4.033-.138Z" fill="#fff"/>
    <path id="Path_509" data-name="Path 509" d="M289.111,207.08c-.079.079-.154.16-.228.244l-.067.074c-.091.108-.179.22-.261.335l-.057.083c-.063.091-.123.185-.182.28-.029.047-.055.095-.083.143-.046.079-.089.161-.13.243-.032.064-.063.129-.094.194s-.063.143-.093.216c-.039.1-.077.195-.112.294-.028.08-.056.16-.081.242-.017.055-.034.11-.049.167-.029.1-.053.205-.077.309l-.021.1,0,0c-.035.174-.065.35-.086.53a5.613,5.613,0,0,0,0,1.377h0c.011.092.023.182.039.27.012.061.021.121.035.18.026.116.058.229.093.339.012.036.021.074.033.109l.012.033a3.389,3.389,0,0,0,.14.334c.018.038.033.077.051.114.008.016.019.031.026.047a3.338,3.338,0,0,0,.2.333c.029.042.06.082.091.123.061.082.124.161.192.236.037.042.077.082.115.122.07.07.144.137.221.2a3.97,3.97,0,0,0,2.752.848,5.411,5.411,0,0,0,5.163-4.979,4.091,4.091,0,0,0-1.388-3.934c-.033-.025-.068-.049-.1-.073-.07-.049-.145-.1-.219-.14-.037-.02-.072-.042-.108-.062-.094-.05-.192-.1-.292-.139l-.058-.026a3.768,3.768,0,0,0-.376-.128c-.036-.01-.074-.018-.111-.027-.1-.025-.194-.047-.295-.065l-.143-.023c-.1-.014-.2-.025-.307-.034l-.136-.011c-.149-.008-.3-.011-.46-.005-.175.006-.348.02-.516.042-.057.007-.112.02-.169.029-.11.018-.221.035-.33.059-.066.014-.128.036-.194.052-.1.026-.192.049-.285.08-.067.021-.13.049-.2.073-.087.033-.176.064-.261.1-.046.02-.091.045-.138.067-.108.051-.218.1-.322.163-.078.044-.155.092-.231.14-.05.031-.1.061-.149.095-.118.081-.234.166-.344.256-.012.01-.023.021-.036.03-.1.082-.193.167-.284.255-.022.021-.043.042-.064.064l-.023.023" fill="#00466b"/>
    <path id="Path_510" data-name="Path 510" d="M306.483,210.308l0-.006c0,.073-.005.146-.007.218,0-.028,0-.056,0-.085s.007-.085.009-.127" fill="#0183c8"/>
    <path id="Path_511" data-name="Path 511" d="M306.474,210.628c0,.13,0,.257.014.383l0-.019c-.009-.12-.012-.241-.012-.364" fill="#0183c8"/>
    <path id="Path_512" data-name="Path 512" d="M306.553,211.527q-.029-.163-.049-.334.02.17.049.334" fill="#0183c8"/>
    <path id="Path_513" data-name="Path 513" d="M306.682,212.046c-.035-.11-.067-.223-.094-.34.027.117.059.229.094.34" fill="#0183c8"/>
    <path id="Path_514" data-name="Path 514" d="M307.234,213.139c.061.082.124.16.192.236-.068-.075-.131-.154-.192-.236" fill="#0183c8"/>
    <path id="Path_515" data-name="Path 515" d="M306.943,212.682a3.521,3.521,0,0,0,.2.334,3.521,3.521,0,0,1-.2-.334" fill="#0183c8"/>
    <path id="Path_516" data-name="Path 516" d="M306.726,212.188c0-.011-.007-.022-.011-.033a3.716,3.716,0,0,0,.2.481c-.019-.036-.033-.076-.051-.114-.05-.108-.1-.218-.14-.334" fill="#0183c8"/>
    <path id="Path_517" data-name="Path 517" d="M306.921,217.916c-.044-.015-.09-.028-.133-.044l.132.046v0" fill="#0183c8"/>
    <path id="Path_518" data-name="Path 518" d="M305.316,217.144q.238.156.494.293-.255-.137-.494-.293" fill="#0183c8"/>
    <path id="Path_519" data-name="Path 519" d="M305.93,217.506a6.929,6.929,0,0,0,.665.3,6.929,6.929,0,0,1-.665-.3" fill="#0183c8"/>
    <path id="Path_520" data-name="Path 520" d="M305.437,218.228a1.241,1.241,0,0,0-.08-.11,1.29,1.29,0,0,0-.086-.1l-.012-.013a1.443,1.443,0,0,1,.225.3c-.016-.028-.031-.055-.048-.081" fill="#0183c8"/>
    <path id="Path_521" data-name="Path 521" d="M305.622,218.647c-.012-.042-.021-.086-.036-.125a1.524,1.524,0,0,0-.074-.165c0-.01-.011-.018-.016-.027a1.54,1.54,0,0,1,.125.317" fill="#0183c8"/>
    <path id="Path_522" data-name="Path 522" d="M305.662,218.788c0-.02-.012-.038-.016-.058a2.094,2.094,0,0,1,.042.289,2.171,2.171,0,0,0-.026-.231" fill="#0183c8"/>
    <path id="Path_523" data-name="Path 523" d="M305.648,219.859c.014-.073.026-.148.034-.224a3.594,3.594,0,0,1-.078.4c.014-.058.033-.113.044-.174" fill="#0183c8"/>
    <path id="Path_524" data-name="Path 524" d="M305.682,219.635a3.079,3.079,0,0,0,.021-.476,3.079,3.079,0,0,1-.021.476" fill="#0183c8"/>
    <path id="Path_525" data-name="Path 525" d="M305.367,220.676l0-.005a.651.651,0,0,0,.032-.066c-.019.04-.045.073-.067.11l.033-.039" fill="#0183c8"/>
    <path id="Path_526" data-name="Path 526" d="M305.419,220.569c.012-.024.025-.048.036-.073.033-.076.063-.154.091-.235.007-.022.011-.048.018-.07a2.646,2.646,0,0,1-.144.379" fill="#0183c8"/>
    <path id="Path_527" data-name="Path 527" d="M304.521,221.567c.03-.02.061-.038.091-.058l.04-.03.038-.038c-.056.042-.111.089-.169.126" fill="#0183c8"/>
    <path id="Path_528" data-name="Path 528" d="M303.856,221.854c-.05.013-.1.033-.148.043.051-.011.1-.03.148-.043" fill="#0183c8"/>
    <path id="Path_529" data-name="Path 529" d="M304.154,221.756c.015-.006.03-.008.045-.014a2.311,2.311,0,0,0,.233-.119l.049-.031a2.346,2.346,0,0,1-.327.164" fill="#0183c8"/>
    <path id="Path_530" data-name="Path 530" d="M303.227,221.957a2.494,2.494,0,0,1-.4-.02,2.494,2.494,0,0,0,.4.02" fill="#0183c8"/>
    <path id="Path_531" data-name="Path 531" d="M302.327,221.8a1.826,1.826,0,0,1-.2-.1,1.826,1.826,0,0,0,.2.1" fill="#0183c8"/>
    <path id="Path_532" data-name="Path 532" d="M302.7,221.913a1.977,1.977,0,0,1-.246-.061,1.977,1.977,0,0,0,.246.061" fill="#0183c8"/>
    <path id="Path_533" data-name="Path 533" d="M302,221.622a1.751,1.751,0,0,1-.249-.2,1.882,1.882,0,0,1-.435-1.636,2.5,2.5,0,0,1,.834-1.668,2.569,2.569,0,0,1,1.615-.627,1.91,1.91,0,0,1,1.492.521c-.03-.029-.06-.058-.091-.084s-.045-.039-.068-.057l1.373,1.077c.028-.052.053-.106.078-.16.073-.15.144-.3.209-.456l.006-.014-1.879-1.474c.074.058.155.109.231.164a7.168,7.168,0,0,1-2.69-6.986,10.368,10.368,0,0,1,.739-2.777l-4.038-3.168a7.542,7.542,0,0,1,1.6,6,10.075,10.075,0,0,1-6.049,8.115l6.892,5.4c.19-.083.379-.168.563-.263l.111-.061c.17-.091.334-.189.5-.29.115-.07.228-.142.34-.216.063-.043.125-.089.187-.133l-1.356-1.063c.026.019.053.032.079.05" fill="#0183c8"/>
    <path id="Path_534" data-name="Path 534" d="M294.688,218.193a10.2,10.2,0,0,1-3.662.808,8.528,8.528,0,0,1-3.617-.618,6.885,6.885,0,0,1-.786-.328l.1,0a6.349,6.349,0,0,1-2.713-2.939l-3.447-2.7-6.351.217,7.15,5.607,5.04-.173,6.234,4.888a7.777,7.777,0,0,0,5.164,1.511c.3-.009.6-.034.892-.07.022,0,.045,0,.067-.008.28-.035.555-.083.827-.141l.1-.02c.262-.059.522-.127.776-.205.039-.013.078-.023.116-.036q.375-.119.735-.267l.117-.048c.051-.022.1-.048.149-.07Z" fill="#00466b"/>
    <path id="Path_535" data-name="Path 535" d="M319.567,210.5c0,.013-.006.025-.009.038h0c0-.013.005-.025.008-.038" fill="#00466b"/>
    <path id="Path_536" data-name="Path 536" d="M319.692,209.866l0,0c-.021.126-.038.253-.063.376.011-.053.025-.105.035-.159.013-.07.021-.142.033-.213" fill="#00466b"/>
    <path id="Path_537" data-name="Path 537" d="M306.483,210.308c0,.042-.008.086-.009.127s0,.057,0,.085,0,.072,0,.107c0,.123,0,.245.012.364l0,.02c0,.061.011.121.018.181.012.114.029.226.049.335.011.06.022.121.035.179.026.117.059.229.094.34.011.036.021.073.033.109,0,.011.007.023.011.033.041.116.09.226.14.334.018.038.033.077.051.114.008.016.017.03.026.046a3.521,3.521,0,0,0,.2.334c.029.043.061.083.092.124.06.082.124.161.191.236.038.042.076.082.115.121.07.07.144.138.221.2a3.972,3.972,0,0,0,2.752.848,5.409,5.409,0,0,0,5.162-4.978,4.088,4.088,0,0,0-1.387-3.935c-.033-.025-.068-.048-.1-.072-.072-.05-.146-.1-.221-.14-.036-.021-.07-.042-.108-.062-.094-.05-.191-.1-.293-.139l-.057-.026c-.121-.048-.247-.09-.376-.127-.036-.011-.075-.019-.112-.028-.1-.025-.194-.046-.295-.064-.047-.009-.1-.016-.143-.023-.1-.014-.2-.026-.3-.034-.046,0-.091-.008-.137-.011-.15-.008-.3-.011-.46-.006-.176.006-.348.02-.517.042-.055.007-.107.02-.161.028-.114.018-.227.036-.337.06-.065.015-.127.036-.191.052-.1.026-.193.05-.286.08-.067.022-.132.049-.2.074-.087.033-.175.063-.259.1-.047.02-.092.045-.139.068-.108.051-.217.1-.321.163-.079.045-.156.092-.231.141-.05.031-.1.061-.149.094q-.178.121-.345.257l-.034.03q-.147.123-.286.256c-.029.028-.057.057-.086.085q-.118.118-.228.244c-.022.025-.045.049-.067.075q-.137.161-.262.335c-.019.027-.036.055-.056.082-.063.092-.124.185-.182.281-.029.047-.056.095-.084.142-.045.079-.088.161-.13.244-.033.064-.064.128-.094.194s-.063.143-.092.215c-.04.1-.077.2-.113.294-.028.08-.056.161-.081.243-.017.055-.033.11-.049.167-.028.1-.053.2-.076.308-.012.052-.024.1-.035.156-.03.155-.057.311-.075.47s-.024.287-.031.428" fill="#00466b"/>
    <path id="Path_538" data-name="Path 538" d="M317.547,202.81l.012.009c.012.011.022.023.034.033.125.11.245.225.361.344l0,0c.029.03.055.062.083.092l.084.095c.058.066.116.132.172.2.01.013.023.025.033.039s.038.053.057.079c.052.067.1.132.153.2.012.017.022.035.035.051s.034.052.052.078.038.05.054.076.021.035.031.051c.073.112.141.226.206.344.015.028.033.055.048.083s.029.051.043.079c0,.006.007.011.01.018s.012.03.02.044c.077.151.148.307.214.466.018.042.034.083.051.125,0,.013.01.026.015.039s.016.033.022.05l.009.027c.062.165.118.333.168.506l.012.045c.009.027.014.056.02.084q.056.2.1.4c.005.025.012.048.018.072s.009.066.015.1.015.073.021.109c0,.021.009.042.012.064.017.1.03.206.043.31.006.048.013.1.019.144.011.095.018.191.026.287,0,.048.007.1.01.145,0,.064.009.129.011.195,0,.046,0,.093,0,.139,0,.142,0,.283,0,.428l0,.12c0,.056,0,.112-.007.168-.012.224-.029.449-.057.679-.018.148-.043.294-.067.439-.012.071-.019.144-.033.213-.009.054-.024.106-.035.159-.017.087-.037.173-.056.259,0,.012-.005.025-.009.038-.043.182-.09.363-.142.541-.023.08-.045.161-.07.241-.012.041-.022.084-.036.125-.031.095-.072.183-.106.277-.061.169-.123.338-.192.5-.018.041-.031.085-.049.126-.049.113-.107.219-.16.329s-.094.2-.145.3c-.016.029-.029.061-.044.091-.1.188-.209.371-.322.551-.011.019-.021.039-.033.058l0,.008q-.179.284-.375.553c-.023.032-.05.061-.073.093-.043.058-.089.114-.133.172-.063.08-.124.163-.19.243s-.131.147-.2.221c-.048.054-.094.108-.143.16-.028.031-.054.064-.083.094q-.222.235-.458.455l-.011.009c-.019.018-.042.035-.06.052-.143.131-.288.259-.439.381-.033.026-.069.051-.1.077-.076.06-.154.116-.231.173s-.164.129-.25.188c-.053.037-.111.068-.165.1-.111.074-.225.146-.34.216-.07.043-.135.091-.207.132-.1.055-.194.106-.292.158l-.112.061c-.183.095-.367.185-.557.269l1.079.846a2.241,2.241,0,0,1,.536-.679,2.561,2.561,0,0,1,1.614-.627,1.9,1.9,0,0,1,1.489.521c-.029-.03-.058-.057-.089-.083s-.046-.039-.069-.058l5.152,4.041c.044-.039.09-.073.132-.112l.061-.053c.177-.165.346-.339.512-.516l-3.952-3.1.445-3.681,4.567-4.95c-.069-.079-.135-.16-.207-.236l-.005-.005c-.115-.119-.235-.232-.36-.343-.1-.084-.192-.167-.292-.245l-7.15-5.609c.079.062.154.126.231.191l.016.013" fill="#0183c8"/>
    <path id="Path_539" data-name="Path 539" d="M318.734,217.774a1.21,1.21,0,0,0-.08-.11,1.265,1.265,0,0,0-.086-.1l-.012-.012a1.406,1.406,0,0,1,.224.3c-.015-.027-.03-.055-.047-.081" fill="#0183c8"/>
    <path id="Path_540" data-name="Path 540" d="M318.883,218.068a1.6,1.6,0,0,0-.074-.165l-.016-.028a1.561,1.561,0,0,1,.125.318,1.284,1.284,0,0,0-.036-.125" fill="#0183c8"/>
    <path id="Path_541" data-name="Path 541" d="M319,218.705a2.961,2.961,0,0,1-.021.475,2.961,2.961,0,0,0,.021-.475" fill="#0183c8"/>
    <path id="Path_542" data-name="Path 542" d="M318.984,218.565a2.18,2.18,0,0,0-.025-.232c0-.02-.012-.037-.017-.058a1.985,1.985,0,0,1,.042.289" fill="#0183c8"/>
    <path id="Path_543" data-name="Path 543" d="M318.9,219.579c.015-.058.033-.113.044-.173s.025-.148.035-.226a3.251,3.251,0,0,1-.079.4" fill="#0183c8"/>
    <path id="Path_544" data-name="Path 544" d="M318.5,220.488c.03-.042.059-.084.086-.126s.057-.095.084-.144c.012-.022.022-.045.032-.066a2.335,2.335,0,0,1-.225.367c.008-.011.016-.021.024-.031" fill="#0183c8"/>
    <path id="Path_545" data-name="Path 545" d="M318.206,220.814c.036-.033.072-.07.106-.105s.064-.07.1-.108c.019-.021.036-.045.053-.067a2.375,2.375,0,0,1-.3.325l.049-.045" fill="#0183c8"/>
    <path id="Path_546" data-name="Path 546" d="M318.144,220.87l.013-.011a.168.168,0,0,1-.014.011Z" fill="#0183c8"/>
    <path id="Path_547" data-name="Path 547" d="M318.716,220.115c.012-.025.025-.048.036-.073.033-.076.063-.154.091-.235.007-.022.011-.048.018-.07a2.644,2.644,0,0,1-.144.379" fill="#0183c8"/>
    <path id="Path_548" data-name="Path 548" d="M316.527,221.5a2.515,2.515,0,0,1-.4-.021,2.515,2.515,0,0,0,.4.021" fill="#00466b"/>
    <path id="Path_549" data-name="Path 549" d="M316,221.459a2.165,2.165,0,0,1-.249-.062,2.165,2.165,0,0,0,.249.062" fill="#00466b"/>
    <path id="Path_550" data-name="Path 550" d="M317.153,221.4c-.05.014-.1.033-.147.044.05-.011.1-.03.147-.044" fill="#00466b"/>
    <path id="Path_551" data-name="Path 551" d="M317.494,221.288a2.621,2.621,0,0,0,.235-.12l.048-.031a2.4,2.4,0,0,1-.327.165c.014-.007.03-.009.044-.014" fill="#00466b"/>
    <path id="Path_552" data-name="Path 552" d="M312.039,222.448a7.792,7.792,0,0,0,5.164,1.512c.3-.011.6-.036.893-.071l.067-.007c.163-.02.321-.054.482-.082l-3.416-2.679c.024.018.051.031.076.048a1.811,1.811,0,0,1-.25-.205,1.875,1.875,0,0,1-.435-1.635,2.842,2.842,0,0,1,.3-.99l-1.079-.845-.052.021,0-.005q-.385.168-.79.3l.006,0-.17.055-.115.035q-.382.117-.776.205l-.1.02c-.272.058-.547.105-.827.141l-.067.008c-.293.035-.591.06-.892.07s-.579.005-.858-.009c-.09,0-.175-.014-.263-.021-.19-.015-.377-.034-.56-.06-.1-.014-.192-.03-.287-.047-.172-.03-.34-.066-.505-.106-.089-.021-.179-.042-.266-.067-.134-.037-.264-.079-.392-.123l-.132-.045c-.064-.023-.13-.043-.193-.067a7.1,7.1,0,0,1-.665-.3c-.041-.022-.08-.047-.12-.07q-.255-.137-.494-.294c-.067-.044-.131-.092-.2-.138s-.158-.107-.232-.165l1.879,1.475Z" fill="#00466b"/>
    <path id="Path_553" data-name="Path 553" d="M317.817,221.113c.03-.019.061-.038.091-.058.053-.036.105-.076.157-.117l.077-.067h0a2.66,2.66,0,0,1-.325.244" fill="#00466b"/>
    <path id="Path_554" data-name="Path 554" d="M315.626,221.347a1.611,1.611,0,0,1-.205-.1,1.611,1.611,0,0,0,.205.1" fill="#00466b"/>
    <path id="Path_555" data-name="Path 555" d="M322.224,204.868l4.028,3.159,3.142-3.4Z" fill="#00466b"/>
    <path id="Path_556" data-name="Path 556" d="M340.225,208.8l1.193-1.293-4.03-3.16.2-1.647-2.629-2.061-.444,3.682Z" fill="#0183c8"/>
    <path id="Path_557" data-name="Path 557" d="M335.912,213.475l4.313-4.673-5.71-4.478-8.648,9.366,7.8-.266,2.059,1.615Z" fill="#00466b"/>
    <path id="Path_558" data-name="Path 558" d="M320.749,213.993l-.445,3.681,12.9-.441.46-3.809-7.8.266,8.648-9.367.445-3.682-12.275.42-.46,3.805,7.17-.245-3.142,3.4-.937,1.017Z" fill="#fff"/>
    <path id="Path_559" data-name="Path 559" d="M340.354,222.842l.2-1.692-5.091-3.993.256-2.117-2.06-1.615-.46,3.809Z" fill="#0183c8"/>
    <path id="Path_560" data-name="Path 560" d="M327.454,223.282l.387-.014a6.935,6.935,0,0,1,2.733-.677,5.283,5.283,0,0,1,2.435.5l7.345-.251-7.152-5.608-12.9.44,3.952,3.1Z" fill="#00466b"/>
    <path id="Path_561" data-name="Path 561" d="M344.561,204.105l-7.173.245,4.029,3.161Z" fill="#00466b"/>
    <path id="Path_562" data-name="Path 562" d="M355.361,207.285c.016-.056.033-.111.05-.166-.017.055-.033.11-.05.166" fill="#0183c8"/>
    <path id="Path_563" data-name="Path 563" d="M355.922,205.929c.027-.048.055-.1.083-.143-.028.047-.056.1-.083.143" fill="#0183c8"/>
    <path id="Path_564" data-name="Path 564" d="M355.491,206.877q.052-.15.114-.3c-.041.1-.079.194-.114.3" fill="#0183c8"/>
    <path id="Path_565" data-name="Path 565" d="M356.189,205.5c.018-.027.035-.054.054-.081-.019.026-.036.054-.054.081" fill="#0183c8"/>
    <path id="Path_566" data-name="Path 566" d="M351.861,205.516a10.1,10.1,0,0,1,1.7-2.7l-3.437-2.7-.445,3.68Z" fill="#0183c8"/>
    <path id="Path_567" data-name="Path 567" d="M355.251,207.749c.009-.052.023-.1.034-.155-.012.051-.025.1-.034.155" fill="#0183c8"/>
    <path id="Path_568" data-name="Path 568" d="M355.7,206.367c.03-.065.062-.13.094-.195-.033.064-.064.129-.094.195" fill="#0183c8"/>
    <path id="Path_569" data-name="Path 569" d="M352.5,214.111a7.628,7.628,0,0,1-1.4-5.753,10.3,10.3,0,0,1,.769-2.842l-2.18-1.71-8.648,9.367,7.8-.266,2.77,2.173Z" fill="#00466b"/>
    <path id="Path_570" data-name="Path 570" d="M344.561,204.105l-3.144,3.406-1.193,1.292-4.311,4.672-.19,1.564-.256,2.117,12.9-.441.46-3.809-7.8.266,8.648-9.366.445-3.681-12.277.419-.262,2.159-.2,1.647Z" fill="#fff"/>
    <path id="Path_571" data-name="Path 571" d="M355.52,222.324l.46-3.809L351.6,215.08l-2.771-2.173-.461,3.809Z" fill="#0183c8"/>
    <path id="Path_572" data-name="Path 572" d="M348.37,216.716l-12.9.441,5.09,3.992,2.059,1.614,3.379-.115a6.941,6.941,0,0,1,2.733-.677,5.278,5.278,0,0,1,2.435.5l4.357-.149Z" fill="#00466b"/>
    <path id="Path_573" data-name="Path 573" d="M368.289,208.577c.011-.053.026-.105.035-.159.014-.07.022-.141.033-.211l0,0c-.021.125-.037.251-.063.374" fill="#00466b"/>
    <path id="Path_574" data-name="Path 574" d="M368.224,208.874l.009-.039-.01.039Z" fill="#00466b"/>
    <path id="Path_575" data-name="Path 575" d="M356.573,205.013c-.023.025-.046.05-.067.075-.092.108-.18.219-.262.336-.02.026-.037.054-.056.081-.063.092-.125.186-.183.282-.029.047-.057.1-.084.143q-.067.12-.13.243c-.033.064-.064.129-.094.194s-.063.145-.093.216c-.039.1-.077.2-.112.3-.029.08-.056.16-.081.241-.017.056-.033.11-.049.167-.029.1-.053.205-.077.309-.011.052-.025.1-.034.155-.03.155-.057.311-.076.47a4.863,4.863,0,0,0,.341,2.619l0,0c0,.008.007.017.012.026.016.037.031.075.049.112.009.015.019.03.026.045a3.651,3.651,0,0,0,.2.336c.029.042.06.082.091.123.061.082.125.161.193.237.037.041.076.082.115.12a2.9,2.9,0,0,0,.221.2,3.965,3.965,0,0,0,2.75.848,5.412,5.412,0,0,0,5.166-4.979,4.089,4.089,0,0,0-1.389-3.933c-.033-.025-.068-.048-.1-.073-.071-.049-.146-.1-.221-.141l-.107-.061c-.1-.05-.194-.1-.3-.14-.019-.008-.036-.017-.055-.024a3.583,3.583,0,0,0-.376-.128c-.036-.011-.075-.018-.111-.028-.1-.025-.2-.046-.3-.064-.046-.009-.1-.016-.142-.023-.1-.015-.2-.026-.306-.034-.045,0-.091-.008-.137-.01-.149-.008-.3-.011-.459-.007-.175.007-.348.021-.516.042-.058.007-.115.02-.172.03-.109.017-.219.034-.326.058-.067.014-.13.036-.2.054-.094.024-.19.048-.283.079-.067.021-.131.049-.2.074-.087.033-.176.064-.26.1-.047.02-.091.045-.138.067-.109.051-.218.1-.323.163-.079.044-.155.092-.231.14-.05.032-.1.061-.149.095-.118.082-.234.167-.345.257a.4.4,0,0,0-.033.029c-.1.082-.194.167-.287.256l-.087.086c-.078.079-.155.16-.228.244" fill="#00466b"/>
    <path id="Path_576" data-name="Path 576" d="M351.091,208.358a7.637,7.637,0,0,0,1.4,5.753,6.277,6.277,0,0,0,1.287,1.231c.065.047.129.095.2.139.158.105.324.2.492.294.042.023.08.048.122.07a7.117,7.117,0,0,0,.665.3c.063.024.129.044.192.067.171.061.345.12.524.17.087.024.177.045.266.067q.247.06.505.106c.1.017.19.033.287.047.183.026.371.045.56.06.087.007.174.017.263.021.279.014.565.02.858.009s.6-.035.893-.07l.068-.007c.279-.036.553-.083.825-.141l.1-.02c.263-.058.522-.128.776-.205.039-.012.077-.023.116-.036.056-.018.108-.041.164-.06.269-.091.533-.191.79-.3.207-.09.412-.182.611-.285.037-.019.074-.04.111-.061.17-.091.336-.189.5-.289.115-.07.228-.142.34-.216q.211-.141.415-.293c.077-.057.156-.114.231-.173.184-.146.365-.3.538-.456l.064-.055c.192-.178.375-.366.552-.558.049-.052.1-.107.142-.16q.2-.226.385-.464c.046-.057.091-.114.134-.172.159-.213.312-.43.454-.655l.029-.051c.132-.211.254-.428.37-.649.051-.1.1-.2.145-.3.073-.151.143-.3.209-.456s.131-.333.192-.5c.049-.133.1-.265.143-.4.025-.079.048-.16.07-.241.052-.178.1-.358.14-.54l.01-.039c.019-.086.039-.172.057-.259.026-.123.043-.249.063-.374.024-.146.054-.289.072-.437.035-.288.054-.569.064-.846a.127.127,0,0,0,0-.017c0-.035,0-.07,0-.1.006-.258,0-.512-.013-.761l-.012-.145c-.019-.252-.046-.5-.087-.74,0-.023-.009-.044-.012-.065-.041-.232-.093-.458-.152-.679l0-.009c-.006-.024-.011-.05-.019-.075-.065-.229-.142-.45-.228-.667-.017-.042-.034-.083-.05-.125-.087-.208-.183-.412-.289-.607-.015-.029-.032-.056-.047-.084-.106-.189-.221-.373-.344-.549-.012-.017-.022-.034-.034-.051a6.468,6.468,0,0,0-.416-.518c-.029-.032-.056-.064-.084-.095a6.51,6.51,0,0,0-.493-.481l-.017-.014a7.676,7.676,0,0,0-5.392-1.7,10.027,10.027,0,0,0-8.941,6.083,10.328,10.328,0,0,0-.769,2.842m5.8-3.675c.093-.089.188-.174.287-.256.011-.01.022-.02.033-.03.111-.091.227-.175.345-.256.049-.033.1-.064.149-.095.076-.048.152-.1.231-.141.1-.059.212-.112.322-.164.046-.021.091-.046.137-.067.085-.037.173-.067.261-.1.065-.024.129-.051.2-.073.092-.03.188-.054.283-.079.065-.017.129-.038.2-.053.107-.024.217-.041.326-.058.057-.01.114-.023.172-.03q.253-.033.516-.042c.158-.005.31,0,.46.006.046,0,.091.007.137.011.1.008.206.02.306.034l.143.023c.1.018.2.04.295.065.037.01.076.017.112.028a3.905,3.905,0,0,1,.376.127l.055.025c.1.043.2.089.295.14.037.02.072.041.108.062.076.044.149.09.221.139.034.024.069.048.1.073a4.085,4.085,0,0,1,1.389,3.933,5.412,5.412,0,0,1-5.166,4.979,3.972,3.972,0,0,1-2.75-.848c-.076-.064-.15-.131-.221-.2-.039-.04-.077-.079-.115-.121-.068-.076-.132-.156-.193-.237-.031-.042-.063-.081-.091-.123a3.475,3.475,0,0,1-.2-.335c-.009-.015-.018-.03-.026-.045-.022-.045-.042-.091-.063-.136a4.857,4.857,0,0,1-.341-2.62c.019-.159.046-.315.076-.468.01-.053.022-.1.034-.155.023-.1.048-.208.076-.31.015-.056.033-.111.049-.166.026-.083.053-.163.081-.243.036-.1.074-.2.113-.294.03-.073.06-.145.093-.216s.062-.13.094-.194c.043-.083.085-.164.131-.244.027-.048.055-.1.083-.143q.088-.144.183-.282l.055-.081q.125-.174.262-.336c.022-.026.045-.05.067-.075.074-.084.149-.165.228-.244.029-.029.057-.058.087-.086" fill="#fff"/>
    <path id="Path_577" data-name="Path 577" d="M374.218,207.694c0,.131,0,.259.013.384l0-.019c-.009-.12-.012-.242-.012-.366" fill="#0183c8"/>
    <path id="Path_578" data-name="Path 578" d="M374.3,208.595c-.02-.11-.036-.221-.049-.335.012.114.029.225.049.335" fill="#0183c8"/>
    <path id="Path_579" data-name="Path 579" d="M374.47,209.255l-.011-.032a3.847,3.847,0,0,0,.2.479c-.019-.036-.033-.076-.05-.111-.051-.11-.1-.219-.142-.336" fill="#0183c8"/>
    <path id="Path_580" data-name="Path 580" d="M374.426,209.113c-.035-.11-.067-.223-.094-.34.026.117.059.23.094.34" fill="#0183c8"/>
    <path id="Path_581" data-name="Path 581" d="M374.687,209.748a3.632,3.632,0,0,0,.2.335,3.632,3.632,0,0,1-.2-.335" fill="#0183c8"/>
    <path id="Path_582" data-name="Path 582" d="M374.978,210.207c.061.081.125.16.193.237-.068-.076-.132-.156-.193-.237" fill="#0183c8"/>
    <path id="Path_583" data-name="Path 583" d="M375.507,210.766c-.077-.064-.152-.132-.221-.2.07.07.145.137.221.2" fill="#0183c8"/>
    <path id="Path_584" data-name="Path 584" d="M372.864,214.072a7.166,7.166,0,0,1-2.691-6.986,10.364,10.364,0,0,1,.587-2.38l-4.8-3.761c.078.061.154.125.228.189l.018.014.012.01c.012.011.022.022.033.033.126.11.248.225.362.345l0,0c.028.03.053.061.082.091l.084.095c.059.066.116.132.173.2.01.013.023.025.033.039s.037.054.058.079c.051.066.1.131.152.2.012.017.022.034.034.051s.036.053.053.079.039.05.057.078.019.033.03.05q.106.167.2.342l.049.083c.014.027.029.054.043.08a.086.086,0,0,0,.011.018c.007.014.012.03.019.045.077.151.148.307.214.465.016.042.034.083.05.125.005.014.012.027.018.041s.015.033.022.049l.008.026c.062.165.117.333.168.506,0,.015.008.03.012.045s.012.05.019.075l0,.008c.036.132.069.266.1.4,0,.024.012.047.017.071s.009.066.015.1.015.071.021.107.009.043.012.065c.018.1.03.207.044.312.005.048.013.094.019.142.009.095.018.191.025.286,0,.048.008.1.01.145,0,.065.009.13.012.2,0,.045,0,.092,0,.139,0,.141,0,.282,0,.426,0,.035,0,.069,0,.1v.018c0,.055,0,.11-.008.167-.011.223-.029.45-.056.679-.018.149-.043.3-.068.441-.011.07-.019.142-.033.211-.009.054-.023.105-.035.159-.017.087-.037.173-.057.259l-.009.039c-.041.182-.088.363-.14.54-.023.08-.045.162-.07.241-.014.04-.022.082-.036.123-.032.095-.074.184-.108.278-.061.169-.122.338-.193.5-.016.042-.03.085-.047.126-.05.113-.108.22-.161.331s-.093.2-.145.3c-.015.029-.027.06-.043.089-.1.191-.214.377-.327.56l-.029.051,0,.008c-.119.188-.245.373-.375.552-.024.033-.05.063-.074.1-.043.058-.09.114-.135.171-.062.08-.122.163-.187.241s-.132.148-.2.223c-.048.054-.094.108-.143.16-.027.03-.053.062-.081.092-.149.156-.3.308-.458.455l-.013.011c-.02.019-.042.036-.063.055-.141.129-.286.257-.434.377-.033.028-.07.051-.1.078-.077.061-.154.117-.232.174s-.164.128-.249.188c-.053.037-.112.069-.166.105q-.168.111-.34.216c-.07.042-.136.09-.207.131-.1.055-.2.107-.293.159l-.111.061c-.183.095-.368.185-.557.269l5.121,4.016c.1-.005.194-.013.292-.017q.7-.024,1.45.025l-2.63-2.064c.024.019.052.032.076.049a1.941,1.941,0,0,1-.249-.2,1.883,1.883,0,0,1-.435-1.635,2.485,2.485,0,0,1,.835-1.668,2.553,2.553,0,0,1,1.614-.627,1.911,1.911,0,0,1,1.475.521c-.025-.026-.052-.048-.078-.073s-.048-.041-.073-.061l4.274,3.352c.105-.174.207-.349.3-.53.05-.1.1-.2.144-.3.073-.151.144-.3.209-.456.057-.135.106-.274.158-.412l-2.353-1.846c.074.058.155.109.231.164" fill="#0183c8"/>
    <path id="Path_585" data-name="Path 585" d="M373.06,214.211q.239.157.493.294-.254-.137-.493-.294" fill="#0183c8"/>
    <path id="Path_586" data-name="Path 586" d="M374.532,214.94c.171.061.344.119.524.169-.18-.05-.353-.107-.524-.169" fill="#0183c8"/>
    <path id="Path_587" data-name="Path 587" d="M373.675,214.574c.2.1.4.2.615.282.016.005.034.01.05.017a6.988,6.988,0,0,1-.664-.3" fill="#0183c8"/>
    <path id="Path_588" data-name="Path 588" d="M370.243,214.464a1.32,1.32,0,0,0-.078-.107,1.242,1.242,0,0,0-.084-.1l-.032-.032a1.377,1.377,0,0,1,.231.3c-.012-.021-.023-.043-.037-.064" fill="#0183c8"/>
    <path id="Path_589" data-name="Path 589" d="M370.423,214.867c-.011-.038-.019-.078-.033-.114a1.564,1.564,0,0,0-.072-.163c-.008-.014-.017-.026-.025-.04a1.479,1.479,0,0,1,.129.317" fill="#0183c8"/>
    <path id="Path_590" data-name="Path 590" d="M370.467,215.019c-.005-.023-.015-.044-.019-.066a1.994,1.994,0,0,1,.043.29c-.007-.075-.009-.154-.023-.224" fill="#0183c8"/>
    <path id="Path_591" data-name="Path 591" d="M370.485,215.854a3.025,3.025,0,0,0,.02-.473,3.025,3.025,0,0,1-.02.473" fill="#0183c8"/>
    <path id="Path_592" data-name="Path 592" d="M370.451,216.074c.014-.072.026-.145.033-.221a3.039,3.039,0,0,1-.079.4c.014-.061.034-.118.046-.181" fill="#0183c8"/>
    <path id="Path_593" data-name="Path 593" d="M370.262,216.7c.033-.075.061-.152.088-.232.007-.02.01-.043.017-.064a2.552,2.552,0,0,1-.148.383c.014-.028.029-.056.043-.086" fill="#0183c8"/>
    <path id="Path_594" data-name="Path 594" d="M369.974,217.189l.035-.045c.029-.042.058-.083.085-.126s.057-.095.084-.144c.009-.017.015-.035.026-.053a2.353,2.353,0,0,1-.23.368" fill="#0183c8"/>
    <path id="Path_595" data-name="Path 595" d="M369.65,217.533c.022-.018.043-.037.063-.057.036-.035.073-.07.108-.107s.066-.072.1-.11c.014-.017.028-.035.041-.053a2.3,2.3,0,0,1-.309.326" fill="#0183c8"/>
    <path id="Path_596" data-name="Path 596" d="M369.407,217.722c.057-.039.113-.082.168-.126.026-.02.05-.041.075-.063a2.835,2.835,0,0,1-.341.252c.033-.021.066-.04.1-.063" fill="#0183c8"/>
    <path id="Path_597" data-name="Path 597" d="M368.645,218.076c-.047.014-.1.032-.144.042.049-.011.1-.029.144-.042" fill="#0183c8"/>
    <path id="Path_598" data-name="Path 598" d="M368.937,217.979c.014-.006.028-.008.041-.014.082-.037.162-.078.241-.123l.045-.03a2.4,2.4,0,0,1-.327.166" fill="#0183c8"/>
    <path id="Path_599" data-name="Path 599" d="M368.034,218.178a2.516,2.516,0,0,1-.4-.021,2.516,2.516,0,0,0,.4.021" fill="#0183c8"/>
    <path id="Path_600" data-name="Path 600" d="M367.509,218.132a1.747,1.747,0,0,1-.249-.062,1.747,1.747,0,0,0,.249.062" fill="#0183c8"/>
    <path id="Path_601" data-name="Path 601" d="M367.133,218.02a1.815,1.815,0,0,1-.2-.1,1.815,1.815,0,0,0,.2.1" fill="#0183c8"/>
    <path id="Path_602" data-name="Path 602" d="M362.449,215.853v-.005c-.258.112-.521.212-.79.3l.005,0c-.056.019-.114.036-.17.054l-.115.036q-.382.117-.776.205l-.1.02c-.272.058-.547.105-.826.141l-.068.008c-.293.035-.591.06-.893.07s-.578.005-.858-.009c-.089,0-.176-.014-.262-.021-.19-.015-.378-.033-.561-.06-.1-.014-.193-.03-.287-.047-.079-.014-.162-.023-.239-.039s-.177-.045-.266-.067-.178-.042-.266-.067c-.179-.05-.353-.107-.524-.169-.064-.023-.129-.042-.193-.067a6.992,6.992,0,0,1-.664-.3c-.043-.022-.08-.047-.121-.07-.17-.092-.335-.188-.493-.294-.068-.044-.132-.092-.2-.138s-.156-.106-.231-.164l7.151,5.608a6.631,6.631,0,0,0,1.489.871,8.729,8.729,0,0,1,1.475-.868,10.851,10.851,0,0,1,3.959-.942l-5.122-4.016-.053.022" fill="#00466b"/>
    <path id="Path_603" data-name="Path 603" d="M387.306,207.6l.009-.039c0,.013-.007.026-.009.039Z" fill="#00466b"/>
    <path id="Path_604" data-name="Path 604" d="M387.372,207.306c.01-.053.025-.105.035-.159.013-.07.021-.141.033-.211l-.005,0c-.021.125-.037.251-.062.375" fill="#00466b"/>
    <path id="Path_605" data-name="Path 605" d="M374.217,207.59c0,.035,0,.07,0,.1,0,.123,0,.246.012.365a.092.092,0,0,1,0,.02c0,.062.011.122.018.181.012.114.029.226.049.335.012.06.021.12.035.179.027.117.058.229.094.34.011.038.02.074.033.11,0,.01.007.022.011.031.041.117.091.227.141.337.018.036.031.075.05.111.008.016.017.03.026.046.062.115.128.227.2.334.029.044.061.082.091.124.061.081.125.16.193.237.037.041.076.081.115.12.07.07.145.138.221.2a3.96,3.96,0,0,0,2.75.848,5.413,5.413,0,0,0,5.167-4.979,4.085,4.085,0,0,0-1.39-3.932c-.034-.026-.069-.05-.1-.074-.07-.049-.145-.1-.221-.139l-.107-.061c-.1-.051-.194-.1-.295-.14l-.055-.025a3.707,3.707,0,0,0-.376-.127c-.038-.011-.076-.019-.112-.029-.1-.024-.194-.046-.3-.064-.048-.008-.094-.017-.144-.023-.1-.014-.2-.025-.3-.033-.046,0-.091-.008-.137-.011-.15-.008-.3-.012-.46-.006-.175.007-.348.02-.516.042-.056.008-.11.02-.166.03-.111.017-.224.034-.332.059-.065.014-.128.036-.191.052-.1.025-.194.048-.288.079-.066.022-.129.049-.194.073-.087.033-.176.064-.262.1-.046.02-.091.046-.136.067-.111.051-.218.1-.324.165-.079.043-.154.091-.23.139-.05.032-.1.062-.15.1-.119.082-.234.166-.346.257l-.033.028c-.1.083-.194.167-.286.257-.029.028-.058.057-.086.086-.08.079-.154.16-.228.244-.022.024-.046.049-.067.075-.092.108-.18.219-.263.336-.019.026-.036.054-.055.08-.063.093-.125.187-.183.282-.029.047-.057.095-.084.142-.044.079-.087.161-.13.244-.033.064-.063.129-.093.195s-.063.143-.094.215c-.04.1-.078.2-.112.294-.029.08-.057.161-.081.243-.017.055-.033.11-.049.166-.029.1-.053.205-.077.31-.012.053-.023.1-.034.155-.03.154-.057.31-.077.469-.022.189-.034.375-.039.555,0,.029,0,.058,0,.087" fill="#00466b"/>
    <path id="Path_606" data-name="Path 606" d="M370.173,207.086a7.167,7.167,0,0,0,2.691,6.986c.065.047.129.095.2.139.158.1.324.2.493.294.041.022.079.048.121.069a6.8,6.8,0,0,0,.664.3c.063.025.129.045.193.067.171.061.345.119.524.169.087.024.177.045.266.067q.249.06.506.106c.094.017.19.033.286.047.183.026.371.044.561.059.087.008.173.017.262.021.28.014.565.02.858.01s.6-.036.892-.07l.067-.008c.279-.035.555-.083.826-.14l.1-.021c.264-.058.522-.127.776-.205l.116-.035c.056-.018.109-.042.164-.06q.4-.136.79-.3c.206-.09.411-.182.61-.285l.111-.061c.17-.091.335-.189.5-.29.115-.07.228-.142.34-.216.141-.094.279-.192.415-.293.077-.058.156-.114.231-.174q.276-.218.537-.454l.065-.056c.192-.179.375-.366.553-.558.048-.053.094-.107.142-.161.132-.15.261-.305.385-.463.045-.058.091-.114.135-.173.158-.212.311-.429.453-.655.011-.017.019-.034.03-.051.131-.21.254-.428.37-.649.05-.1.1-.2.144-.3.073-.15.143-.3.209-.456s.131-.332.192-.5c.049-.134.1-.266.143-.4.025-.079.047-.16.07-.24.051-.178.1-.359.139-.54l.01-.039c.02-.086.039-.172.057-.259.025-.123.042-.25.062-.375.024-.145.055-.288.073-.437.035-.288.054-.568.064-.846a.133.133,0,0,1,0-.017c0-.035,0-.07,0-.1q.009-.388-.013-.761c0-.048-.008-.1-.011-.145-.019-.251-.046-.5-.087-.74,0-.022-.009-.043-.013-.065q-.062-.347-.152-.679l0-.008c-.007-.025-.011-.051-.018-.075-.066-.229-.143-.451-.228-.667q-.024-.064-.051-.125a6.469,6.469,0,0,0-.288-.608c-.015-.028-.032-.055-.047-.083a6.48,6.48,0,0,0-.344-.55l-.033-.05a6.332,6.332,0,0,0-.418-.518c-.027-.032-.055-.063-.084-.094a6.1,6.1,0,0,0-.493-.481l-.017-.014a7.673,7.673,0,0,0-5.391-1.7,10.027,10.027,0,0,0-9.124,6.544,10.323,10.323,0,0,0-.587,2.38m4.084-.139c.019-.159.046-.315.076-.469.01-.052.022-.1.034-.155.023-.1.049-.207.077-.31.016-.056.032-.11.049-.166.025-.082.053-.162.081-.242.035-.1.072-.2.112-.294.03-.073.06-.145.093-.216s.062-.129.094-.194c.042-.083.084-.163.13-.243.028-.048.055-.1.084-.143.058-.1.119-.19.183-.282.019-.027.036-.055.055-.082.084-.116.171-.227.262-.335l.067-.076q.11-.126.228-.244c.029-.029.057-.058.086-.086.093-.089.188-.175.287-.257l.033-.029c.111-.091.227-.176.345-.257.049-.033.1-.064.15-.1.076-.048.151-.1.23-.139.1-.059.214-.113.323-.164.046-.022.091-.047.137-.067.086-.038.174-.069.262-.1.065-.024.128-.051.194-.073.094-.03.191-.055.287-.08.063-.017.126-.037.19-.051.109-.025.221-.042.334-.06.055-.009.109-.021.164-.029.17-.021.341-.036.517-.042.157-.005.31,0,.46.005l.136.011c.1.008.206.019.306.033l.143.023c.1.018.2.04.295.065.038.009.076.017.112.027a3.926,3.926,0,0,1,.377.128c.019.008.036.017.054.025.1.042.2.089.295.14.037.02.072.041.108.061.076.045.149.091.221.139.034.024.069.048.1.073a4.086,4.086,0,0,1,1.389,3.933,5.413,5.413,0,0,1-5.165,4.98,3.966,3.966,0,0,1-2.75-.848c-.077-.064-.151-.13-.221-.2-.039-.039-.078-.079-.115-.121-.068-.076-.132-.155-.193-.237-.03-.041-.062-.08-.091-.123a3.736,3.736,0,0,1-.2-.335c-.009-.016-.018-.03-.026-.045a3.847,3.847,0,0,1-.2-.479c-.012-.036-.022-.073-.033-.11-.035-.111-.067-.223-.094-.34-.013-.059-.024-.119-.035-.179-.02-.11-.036-.221-.05-.335-.006-.059-.012-.12-.017-.18-.009-.126-.013-.254-.014-.385,0-.035,0-.07,0-.105a5.937,5.937,0,0,1,.04-.642" fill="#fff"/>
    <path id="Path_607" data-name="Path 607" d="M394.721,211.238c.006-.179.008-.356,0-.53,0-.046,0-.093,0-.139-.009-.213-.023-.421-.047-.626,0-.048-.012-.095-.018-.142-.021-.164-.047-.325-.077-.484-.01-.057-.02-.114-.033-.17-.03-.139-.064-.276-.1-.411-.01-.04-.02-.081-.032-.12-.049-.173-.105-.341-.166-.506-.01-.026-.022-.05-.031-.076a6.858,6.858,0,0,0-.282-.63c-.01-.02-.019-.042-.031-.063-.091-.174-.19-.342-.3-.506-.028-.044-.056-.085-.086-.128q-.114-.169-.238-.329l-.092-.119c-.108-.132-.22-.262-.338-.385l0,0c-.116-.12-.238-.234-.362-.344-.1-.085-.191-.167-.292-.246l-7.15-5.608c.077.061.153.125.228.189l.016.014.012.01c.012.011.022.022.034.032.126.111.247.226.364.347l0,0h0c.029.029.054.061.082.091l.083.094c.06.066.118.132.174.2l.034.039c.019.026.037.054.057.079.053.067.1.132.152.2l.033.05c.019.026.036.054.054.08s.039.05.056.077.019.034.029.051q.108.167.205.342c.015.028.033.055.047.083l.044.08.011.018a.322.322,0,0,0,.02.044c.077.151.146.307.213.465.018.041.034.083.051.125.006.014.011.027.016.041s.016.032.022.049,0,.017.008.027c.062.165.119.333.168.5.005.015.009.03.014.045s.011.05.018.075l0,.008c.036.132.069.266.1.4,0,.024.012.047.017.071s.009.066.016.1.014.071.019.107.009.043.014.065c.016.1.03.207.043.312,0,.048.012.094.019.142.011.094.017.19.024.286,0,.048.009.1.012.145,0,.065.009.13.011.2,0,.045,0,.092,0,.139,0,.142,0,.283,0,.427,0,.035,0,.069,0,.1v.017c0,.056,0,.111-.008.167-.012.223-.029.449-.056.679-.019.149-.043.294-.067.44-.012.07-.02.142-.033.212-.009.054-.025.105-.035.159-.019.087-.037.173-.057.259l-.009.039c-.043.182-.089.362-.142.54-.022.08-.044.161-.07.241-.012.04-.022.083-.036.123-.032.095-.072.184-.106.278-.061.169-.123.337-.193.5-.018.042-.029.085-.049.126-.049.113-.107.22-.161.331s-.093.2-.143.3c-.016.03-.028.061-.044.089-.1.191-.212.377-.327.559-.01.017-.019.035-.029.051l0,.008q-.178.283-.375.552c-.023.033-.05.063-.074.095-.043.058-.088.115-.134.173-.063.08-.122.162-.187.241s-.132.148-.2.223c-.046.054-.094.108-.142.161-.028.03-.054.062-.083.092q-.221.235-.458.455l-.012.011c-.022.019-.044.036-.064.056-.142.129-.285.256-.435.376-.033.027-.07.051-.1.078-.075.061-.154.117-.231.174s-.164.128-.25.187c-.053.038-.111.07-.165.106-.111.074-.226.145-.34.216-.07.042-.136.09-.207.131-.1.055-.2.107-.293.159l-.111.061c-.183.095-.368.185-.557.268l7.144,5.6c.19-.083.38-.168.562-.263l.112-.061c.17-.091.335-.19.5-.29.116-.07.228-.142.341-.216q.21-.142.415-.293c.077-.058.155-.114.231-.174.184-.145.365-.3.538-.455.021-.019.043-.036.063-.056.192-.178.375-.365.553-.558.048-.052.1-.107.142-.16q.2-.226.385-.464c.044-.057.091-.114.133-.172.159-.213.312-.43.453-.655.011-.017.021-.034.03-.051.132-.21.255-.428.371-.649.05-.1.1-.2.144-.3.072-.151.143-.3.209-.456s.132-.332.192-.5c.049-.134.1-.266.143-.4.025-.079.046-.16.07-.24.055-.191.1-.384.15-.58.019-.086.039-.171.056-.258.054-.267.1-.537.135-.811.027-.23.045-.455.056-.679,0-.062.007-.123.008-.185" fill="#0183c8"/>
    <path id="Path_608" data-name="Path 608" d="M381.531,214.583v-.006q-.387.168-.79.3l.006.005c-.057.019-.114.036-.17.054-.039.013-.077.024-.116.036-.254.078-.512.148-.776.206l-.1.02c-.271.057-.546.106-.826.141l-.067.007c-.293.035-.591.061-.892.07s-.578.005-.858-.009c-.089,0-.175-.015-.262-.021-.19-.015-.378-.033-.561-.06-.1-.014-.192-.03-.286-.047q-.258-.045-.506-.107c-.089-.02-.179-.042-.266-.066-.179-.05-.351-.108-.524-.17-.063-.023-.129-.042-.193-.067-.016-.007-.033-.011-.049-.017-.212-.085-.417-.179-.615-.282-.042-.022-.08-.047-.121-.07-.17-.092-.335-.189-.493-.294-.067-.045-.132-.093-.2-.139s-.157-.106-.231-.163l2.353,1.846,4.8,3.761a7.776,7.776,0,0,0,5.165,1.511c.3-.01.6-.034.892-.07.022,0,.045,0,.067-.008.281-.036.555-.083.827-.141l.1-.02c.263-.058.522-.127.777-.205l.115-.035c.25-.079.5-.17.735-.267l.117-.048c.051-.022.1-.048.149-.07l-7.143-5.6-.053.023" fill="#00466b"/>
    <path id="Path_609" data-name="Path 609" d="M283.4,210.668c0,.025,0,.048-.005.075a8.187,8.187,0,0,0,.612,4.369,6.343,6.343,0,0,0,2.713,2.938,6.936,6.936,0,0,0,.685.332,8.546,8.546,0,0,0,3.618.618,10.221,10.221,0,0,0,3.662-.809,10.075,10.075,0,0,0,6.048-8.115,7.538,7.538,0,0,0-1.605-6,7.4,7.4,0,0,0-6.018-2.33,10.048,10.048,0,0,0-8.774,5.719,10.319,10.319,0,0,0-.936,3.205m5.795-3.675q.138-.133.286-.255l.035-.03c.111-.09.226-.174.344-.256.049-.033.1-.064.149-.095.076-.048.152-.1.231-.14.1-.06.213-.112.323-.164.046-.022.091-.046.137-.067.085-.036.173-.067.261-.1.066-.026.129-.053.2-.075.094-.03.19-.054.285-.079.065-.017.128-.038.194-.052.108-.025.22-.042.331-.059.056-.009.111-.022.168-.03.17-.02.341-.036.516-.042.158-.006.31,0,.461.005l.135.011q.157.012.307.034c.048.007.1.015.142.023.1.018.2.04.3.064.037.01.075.017.111.028q.2.056.376.127l.057.026q.151.064.293.139c.036.02.072.041.108.062.076.044.149.09.221.139.035.025.069.048.1.073a4.087,4.087,0,0,1,1.388,3.933,5.409,5.409,0,0,1-5.162,4.979,3.963,3.963,0,0,1-2.752-.848c-.077-.064-.15-.13-.221-.2-.039-.04-.078-.08-.115-.122-.068-.076-.131-.154-.192-.236-.03-.041-.063-.081-.091-.124a3.415,3.415,0,0,1-.2-.332c-.009-.017-.019-.031-.027-.048a3.826,3.826,0,0,1-.2-.481c-.012-.036-.022-.073-.033-.109-.035-.11-.067-.223-.093-.34-.013-.058-.024-.119-.035-.179-.017-.089-.032-.179-.043-.27a5.65,5.65,0,0,1,0-1.377c.022-.179.051-.356.087-.53.007-.032.016-.063.023-.1.023-.1.048-.207.077-.309.015-.056.032-.111.049-.167.025-.082.053-.163.081-.243.035-.1.072-.2.112-.294.03-.073.06-.145.093-.216s.062-.129.094-.194c.043-.083.085-.163.131-.244.027-.048.054-.1.083-.142.058-.1.119-.189.182-.28.019-.027.037-.056.057-.083.083-.115.171-.227.262-.335.022-.026.044-.049.067-.074.074-.084.15-.166.228-.244l.022-.023.065-.063" fill="#fff"/>
    <path id="Path_610" data-name="Path 610" d="M302.429,210.018A7.168,7.168,0,0,0,305.121,217c.065.047.129.095.2.14.159.1.325.2.495.294.041.022.079.048.121.069a7.026,7.026,0,0,0,.665.3c.063.024.128.044.192.066.043.016.089.029.134.044.129.043.257.089.39.126.087.024.176.045.266.066.166.041.334.076.506.107.1.017.19.033.287.047.182.026.371.045.56.059.087.007.173.017.262.021.279.014.565.019.858.01s.6-.036.891-.071l.068-.006c.28-.036.555-.085.827-.141l.1-.02c.262-.058.521-.129.776-.205.039-.012.077-.023.115-.036.056-.017.109-.04.165-.058.269-.092.533-.192.79-.3.206-.089.411-.182.608-.285.039-.019.076-.04.112-.061.171-.09.336-.189.5-.289.115-.07.228-.141.339-.216.142-.095.28-.191.416-.293.077-.058.155-.114.23-.173.187-.148.367-.3.542-.459l.06-.052c.192-.178.375-.366.553-.558.049-.052.1-.107.142-.16.133-.151.262-.306.385-.465.043-.057.089-.113.133-.17.159-.213.31-.431.453-.655.012-.02.022-.039.033-.059.13-.208.252-.424.367-.642.05-.1.1-.2.144-.3.072-.151.143-.3.209-.455s.131-.333.192-.5c.049-.133.1-.266.142-.4.026-.079.047-.161.072-.241q.077-.267.139-.541a.353.353,0,0,0,.01-.039c.02-.086.04-.171.057-.258.025-.124.042-.251.062-.376.025-.145.056-.288.074-.435.034-.288.053-.568.064-.846,0-.041,0-.081,0-.122.007-.258,0-.512-.014-.761,0-.048-.005-.1-.009-.145-.019-.251-.046-.5-.088-.74,0-.021-.008-.043-.012-.064-.04-.232-.092-.459-.152-.68-.007-.027-.013-.057-.02-.085-.065-.228-.142-.45-.228-.666-.017-.041-.033-.083-.051-.125-.087-.208-.183-.412-.287-.607-.015-.028-.033-.056-.048-.083q-.159-.285-.343-.549c-.012-.018-.023-.036-.036-.052a6.27,6.27,0,0,0-.415-.517l-.085-.095a6.1,6.1,0,0,0-.492-.482l-.016-.013a7.675,7.675,0,0,0-5.392-1.7,10.031,10.031,0,0,0-8.97,6.148,10.415,10.415,0,0,0-.74,2.776m4.16-.608c.012-.053.024-.1.035-.156.024-.1.047-.207.076-.309.015-.055.032-.111.049-.166.026-.083.053-.163.081-.244.035-.1.074-.2.113-.294.029-.073.06-.145.093-.216s.062-.129.094-.193c.041-.083.084-.165.13-.244.027-.048.054-.1.084-.142.057-.1.118-.189.18-.281.02-.026.038-.055.057-.082.084-.116.17-.228.262-.336.021-.026.045-.049.067-.074.074-.085.15-.166.228-.244l.087-.086c.091-.089.187-.175.286-.257l.033-.029c.111-.092.227-.176.346-.257.048-.033.1-.063.148-.095.077-.048.153-.1.231-.14.106-.06.214-.112.322-.163.046-.022.091-.047.139-.068.084-.036.173-.067.259-.1.066-.025.13-.051.2-.074.094-.031.191-.055.287-.079.064-.017.127-.038.192-.052.111-.026.224-.042.337-.06.053-.01.105-.021.161-.029.168-.021.341-.036.517-.042.157-.006.309,0,.458.005l.139.011c.1.008.205.019.3.033l.143.023c.1.018.2.041.295.065.036.01.076.017.112.028a3.893,3.893,0,0,1,.375.127l.057.026a3.032,3.032,0,0,1,.293.139c.036.019.07.04.107.061.076.043.15.09.221.139.036.024.07.048.1.073a4.09,4.09,0,0,1,1.388,3.934,5.409,5.409,0,0,1-5.162,4.978,3.966,3.966,0,0,1-2.752-.847c-.077-.064-.15-.132-.221-.2-.039-.04-.078-.08-.115-.122-.067-.076-.13-.155-.191-.236-.031-.041-.063-.081-.091-.124a3.521,3.521,0,0,1-.2-.334c-.008-.015-.018-.03-.026-.046a3.873,3.873,0,0,1-.2-.481c-.013-.036-.022-.073-.033-.109-.034-.11-.067-.223-.094-.34-.012-.058-.023-.119-.035-.179q-.029-.163-.049-.334c-.006-.06-.013-.12-.017-.182-.01-.126-.014-.253-.014-.383,0-.036,0-.072,0-.107,0-.073,0-.145.007-.219.008-.139.017-.279.034-.423.019-.159.045-.315.075-.468" fill="#fff"/>
    <path id="Path_611" data-name="Path 611" d="M303.767,217.488a2.563,2.563,0,0,0-1.614.627,2.506,2.506,0,0,0-.834,1.668,1.885,1.885,0,0,0,.435,1.636,1.858,1.858,0,0,0,.25.2c.038.027.078.052.118.076a1.707,1.707,0,0,0,.205.1,1.284,1.284,0,0,0,.129.051,1.851,1.851,0,0,0,.246.061c.041.009.079.02.122.026a2.509,2.509,0,0,0,.4.02,2.742,2.742,0,0,0,.48-.06c.052-.011.1-.03.149-.043a2.524,2.524,0,0,0,.3-.1,2.377,2.377,0,0,0,.326-.164l.042-.026c.057-.037.112-.084.168-.126a1.936,1.936,0,0,0,.17-.127,2.378,2.378,0,0,0,.3-.324l.012-.016a2.184,2.184,0,0,0,.158-.258c.022-.037.048-.07.067-.11a.325.325,0,0,0,.019-.036,2.577,2.577,0,0,0,.143-.379c.015-.05.027-.1.04-.157a2.841,2.841,0,0,0,.1-.873c0-.05-.011-.093-.016-.14a1.971,1.971,0,0,0-.041-.289c-.008-.028-.015-.056-.024-.084a1.558,1.558,0,0,0-.126-.317l-.011-.02a1.441,1.441,0,0,0-.224-.3,1.909,1.909,0,0,0-1.493-.521" fill="#fff"/>
    <path id="Path_612" data-name="Path 612" d="M309.743,227.5a2.246,2.246,0,0,0,.635.067,2.752,2.752,0,0,0,.481-.06c.051-.011.1-.03.148-.043a2.633,2.633,0,0,0,.3-.1,2.422,2.422,0,0,0,.326-.164l.041-.026a2.591,2.591,0,0,0,.34-.254,2.32,2.32,0,0,0,.3-.324l.013-.017a2.451,2.451,0,0,0,.226-.366l.017-.037a2.524,2.524,0,0,0,.143-.379c.015-.05.028-.1.041-.157a3.414,3.414,0,0,0,.078-.4,3.075,3.075,0,0,0,.021-.476c0-.049-.01-.092-.015-.138a2.221,2.221,0,0,0-.042-.29c-.007-.029-.016-.056-.024-.084a1.62,1.62,0,0,0-.126-.317.167.167,0,0,0-.012-.02,1.413,1.413,0,0,0-.225-.3,1.705,1.705,0,0,0-.158-.141l-5.777-4.531-1.373-1.077c.023.018.046.037.068.057s.06.054.09.084l.012.012c.03.032.059.064.086.1s.055.072.08.109.032.054.048.082l.012.02c0,.009.011.018.016.028a1.337,1.337,0,0,1,.074.165c.015.039.024.083.036.125s.017.054.024.083.012.038.016.058a2.149,2.149,0,0,1,.026.231c0,.047.013.091.015.139a3.151,3.151,0,0,1-.02.475c-.01.077-.022.152-.036.225s-.029.116-.044.174-.024.107-.039.157c-.007.023-.011.048-.018.07-.027.081-.056.159-.091.235-.011.025-.024.048-.036.073s-.012.024-.018.036-.021.044-.032.065l0,0c-.026.048-.053.095-.081.139s-.056.086-.085.126l-.024.031-.013.016c-.017.023-.034.045-.053.068s-.063.073-.1.107-.07.071-.106.105l-.05.044c-.03.027-.06.053-.091.078s-.077.059-.117.088l-.04.03c-.03.021-.061.039-.091.059l-.041.025-.048.031a2.5,2.5,0,0,1-.234.119c-.015.006-.03.008-.045.014a2.358,2.358,0,0,1-.3.1c-.05.014-.1.033-.148.044a2.672,2.672,0,0,1-.481.06,2.332,2.332,0,0,1-.4-.02c-.043-.005-.081-.017-.122-.024a2.1,2.1,0,0,1-.247-.061c-.044-.015-.086-.034-.129-.051a1.831,1.831,0,0,1-.2-.1c-.04-.023-.081-.049-.119-.076s-.053-.031-.078-.051l1.357,1.064,2.284,1.791.25-.008Z" fill="#8f0041"/>
    <path id="Path_613" data-name="Path 613" d="M314.619,219.33a1.878,1.878,0,0,0,.434,1.635,1.759,1.759,0,0,0,.251.2,1.136,1.136,0,0,0,.118.076,1.507,1.507,0,0,0,.2.1c.041.017.084.036.128.051a1.949,1.949,0,0,0,.248.062c.039.007.078.018.119.023a2.524,2.524,0,0,0,.406.021,2.878,2.878,0,0,0,.478-.06c.05-.011.1-.03.146-.044a2.594,2.594,0,0,0,.3-.1,2.342,2.342,0,0,0,.326-.165l.041-.025a2.782,2.782,0,0,0,.325-.244l.014-.01a2.282,2.282,0,0,0,.3-.325l.013-.017a2.354,2.354,0,0,0,.225-.366l.018-.036a2.61,2.61,0,0,0,.144-.379c.016-.051.028-.1.04-.158a3.239,3.239,0,0,0,.079-.4,3.153,3.153,0,0,0,.021-.475c0-.049-.012-.093-.015-.14a1.988,1.988,0,0,0-.043-.288c-.005-.029-.015-.057-.022-.083a1.665,1.665,0,0,0-.126-.319l-.012-.02a1.4,1.4,0,0,0-.225-.3,1.9,1.9,0,0,0-1.488-.521,2.547,2.547,0,0,0-1.613.627,2.234,2.234,0,0,0-.537.679,2.832,2.832,0,0,0-.3.99" fill="#fff"/>
    <path id="Path_614" data-name="Path 614" d="M325.183,225.129a10.131,10.131,0,0,1,.966-.828c0-.045-.01-.085-.014-.127a2.11,2.11,0,0,0-.042-.29c-.007-.029-.015-.055-.024-.084a1.556,1.556,0,0,0-.125-.317c0-.007-.007-.013-.012-.02a1.436,1.436,0,0,0-.225-.3,1.705,1.705,0,0,0-.158-.141l-2-1.567-5.152-4.041c.023.02.046.038.069.058s.06.054.089.083l.012.012c.03.032.058.064.085.1a1.24,1.24,0,0,1,.08.109c.017.026.032.054.047.08l.012.021c0,.009.011.017.016.026a1.772,1.772,0,0,1,.074.166c.015.039.024.084.036.125s.017.055.024.084.012.036.016.058c.015.072.018.154.026.231,0,.047.013.091.015.14a2.954,2.954,0,0,1-.021.475c-.009.077-.021.152-.034.226s-.03.115-.044.173-.025.106-.04.158c-.007.022-.011.048-.018.07-.027.081-.057.16-.091.235-.011.026-.024.049-.036.073s-.012.024-.018.036-.02.045-.032.066c-.026.049-.054.1-.084.144s-.056.086-.086.126l-.024.03a.14.14,0,0,1-.013.017c-.017.023-.034.045-.052.067-.031.037-.063.073-.1.107s-.069.071-.106.105l-.049.045-.013.011-.079.066c-.051.042-.1.081-.156.118-.03.021-.061.039-.091.058l-.04.026-.048.031c-.077.043-.155.083-.235.119-.014.006-.029.008-.043.014a2.487,2.487,0,0,1-.3.1c-.05.014-.1.033-.147.044a2.887,2.887,0,0,1-.479.06,2.521,2.521,0,0,1-.4-.02c-.041-.006-.08-.017-.12-.024a2.017,2.017,0,0,1-.249-.062c-.043-.014-.085-.033-.127-.051a1.663,1.663,0,0,1-.205-.1c-.04-.023-.079-.048-.117-.075s-.052-.03-.076-.049l3.416,2.679.221.173.248-.008,3.926,3.079a2.23,2.23,0,0,0,.577.065,10.222,10.222,0,0,1,1.567-1.98" fill="#8f0041"/>
    <path id="Path_615" data-name="Path 615" d="M266.891,228.17l.543.425a6.247,6.247,0,0,0-.543-.425" fill="#536b6d"/>
    <path id="Path_616" data-name="Path 616" d="M264.632,234.232l0,0a2.731,2.731,0,0,0,.621.459,3.875,3.875,0,0,0,1.991.366,10.119,10.119,0,0,0,1.239-.125,7.722,7.722,0,0,0,1.034-.249,11.352,11.352,0,0,0-.016-1.705,7.426,7.426,0,0,0-.528-2.208,6.189,6.189,0,0,0-1.169-1.824,4.873,4.873,0,0,0-.369-.352l-.544-.426c-.107.058-.207.123-.309.187-.065.042-.132.081-.2.123-.122.084-.241.171-.355.263l-.026.018c-.121.1-.236.2-.348.309l-.082.082c-.106.106-.21.216-.307.33-.043.052-.082.1-.123.155-.053.067-.108.135-.158.2-.039.052-.075.107-.112.161s-.082.117-.12.176-.065.108-.1.161-.074.122-.107.182-.05.1-.075.148c-.036.07-.071.141-.1.213-.02.043-.037.088-.056.133-.038.09-.073.181-.105.271-.014.042-.028.083-.041.124a4.838,4.838,0,0,0-.137.532c-.02.105-.038.21-.051.315a2.675,2.675,0,0,0-.015.376c0,.04.008.082.011.121a2.469,2.469,0,0,0,.031.251c.009.046.021.093.033.139.019.078.04.154.067.231s.057.165.1.247a2.1,2.1,0,0,0,.16.28l.052.073a2.409,2.409,0,0,0,.172.207l.044.048" fill="#8f0041"/>
    <path id="Path_617" data-name="Path 617" d="M271.715,226.337c.063.06.128.118.19.18.032.033.065.062.1.1s.059.069.089.1c.062.067.122.137.182.207.04.048.084.092.123.142.1.117.19.237.28.363a7.848,7.848,0,0,1,.513.833c.094.174.183.353.269.538.025.055.052.108.076.164h0c.06.138.112.288.166.434s.113.3.163.453c.085.265.164.536.232.82l3.394,2.661a7.744,7.744,0,0,1,.056-.974,8.977,8.977,0,0,1,.259-1.28l-6.5-5.1c.094.074.186.154.276.234.047.042.093.086.139.13" fill="#d31b61"/>
    <path id="Path_618" data-name="Path 618" d="M267.682,241.786a7.254,7.254,0,0,0,.434-.766,10.527,10.527,0,0,0,.753-2.176,9.269,9.269,0,0,1-.98.2,12.214,12.214,0,0,1-1.417.134,9.541,9.541,0,0,1-3.952-.609,6.218,6.218,0,0,1-.691-.331c-.02-.012-.043-.023-.063-.033a5.185,5.185,0,0,1-.576-.387c-.016-.012-.036-.02-.051-.033l5.543,4.347c.04-.008.083-.016.122-.026a4.566,4.566,0,0,0,.876-.316" fill="#8f0041"/>
    <path id="Path_619" data-name="Path 619" d="M272.01,241.816l.011-.018c-.03.048-.063.094-.094.142.027-.042.057-.081.084-.123" fill="#8f0041"/>
    <path id="Path_620" data-name="Path 620" d="M271.117,243.048c.018-.021.035-.045.053-.067-.071.086-.145.17-.217.254.055-.063.111-.122.165-.186" fill="#8f0041"/>
    <path id="Path_621" data-name="Path 621" d="M270.673,243.548c.019-.02.039-.043.058-.064-.077.083-.156.161-.236.241.06-.06.121-.116.178-.177" fill="#8f0041"/>
    <path id="Path_622" data-name="Path 622" d="M270.214,244c.019-.018.038-.039.057-.056-.079.074-.16.145-.242.216.061-.054.124-.1.184-.16" fill="#8f0041"/>
    <path id="Path_623" data-name="Path 623" d="M271.558,242.481c.013-.017.025-.037.037-.055-.06.085-.123.164-.185.245.049-.064.1-.124.148-.19" fill="#8f0041"/>
    <path id="Path_624" data-name="Path 624" d="M268.807,245.087h0l0,0c.15-.093.3-.194.441-.3.1-.073.2-.15.3-.228.077-.06.154-.117.229-.18s.166-.142.248-.214.163-.142.242-.217.15-.148.224-.222.159-.158.235-.241.149-.167.222-.251.146-.167.217-.254.162-.2.241-.31c.063-.081.125-.161.186-.245.114-.157.223-.321.331-.487.031-.048.064-.093.094-.142q.2-.31.379-.641c.052-.093.1-.191.149-.287q.166-.32.319-.657c.043-.1.087-.19.129-.287s.08-.191.118-.287c.053-.133.105-.269.155-.406.037-.1.073-.2.108-.3s.068-.209.1-.314c.094-.3.183-.6.265-.909.012-.047.026-.092.038-.14.089-.352.167-.716.239-1.087.016-.088.032-.176.047-.265.075-.419.143-.845.2-1.287.041-.339.068-.669.087-.994,0-.033,0-.065.006-.1.015-.307.019-.607.012-.9,0-.045,0-.09,0-.134-.008-.286-.027-.565-.055-.839l-.016-.14q-.048-.408-.124-.8c-.025-.123-.05-.244-.078-.364-.068-.285-.147-.556-.232-.82-.05-.156-.108-.3-.163-.453s-.106-.294-.166-.434c-.024-.056-.051-.11-.076-.165q-.127-.277-.269-.537a7.848,7.848,0,0,0-.513-.833c-.129-.179-.266-.342-.4-.5-.06-.07-.12-.14-.182-.207-.122-.132-.246-.257-.375-.377-.046-.044-.092-.089-.139-.13a6.166,6.166,0,0,0-1.17-.817,5.31,5.31,0,0,0-2.738-.651,6.986,6.986,0,0,0-2.849.727,9.769,9.769,0,0,0-2.541,1.81,10.271,10.271,0,0,0-1.921,2.6,8.946,8.946,0,0,0-.966,3.1,5.38,5.38,0,0,0,.594,3.494,4.722,4.722,0,0,0,1.206,1.347,5.281,5.281,0,0,0,.576.385l.063.033a6.093,6.093,0,0,0,.691.332,9.555,9.555,0,0,0,3.953.609,12.383,12.383,0,0,0,1.416-.135,9.668,9.668,0,0,0,.98-.2,10.551,10.551,0,0,1-.753,2.175,7.331,7.331,0,0,1-.434.766,4.622,4.622,0,0,1-.876.316c-.039.01-.082.017-.122.026a10.5,10.5,0,0,1-2,.242,12.551,12.551,0,0,1-2.139-.151,7.483,7.483,0,0,1-2.342-.733l-.3.011-1.9,3.9a14.58,14.58,0,0,0,2.705.913,12.283,12.283,0,0,0,3.089.232c.314-.011.618-.037.92-.07l.228-.028c.289-.039.574-.085.852-.145l.029-.005c.286-.063.563-.142.836-.227l.206-.067c.255-.087.508-.182.753-.289l.047-.019c.264-.117.52-.251.772-.393.124-.07.248-.138.37-.214m-4.219-10.9a2.081,2.081,0,0,1-.172-.207c-.018-.024-.036-.048-.052-.073a2.106,2.106,0,0,1-.16-.281,2.6,2.6,0,0,1-.1-.247c-.026-.076-.048-.153-.067-.23-.011-.046-.023-.092-.033-.139a2.473,2.473,0,0,1-.03-.251c0-.039-.009-.079-.011-.12a2.449,2.449,0,0,1,.015-.375c.012-.106.031-.211.051-.315a4.764,4.764,0,0,1,.137-.533c.013-.041.027-.082.041-.123.032-.092.067-.182.1-.272.019-.044.036-.089.056-.133.032-.072.068-.142.1-.213.025-.048.048-.1.075-.147s.07-.122.106-.182.063-.108.1-.161.08-.118.12-.177.073-.107.112-.161.1-.135.158-.2c.041-.052.08-.1.123-.155.1-.116.2-.225.307-.331.027-.028.054-.056.082-.082.111-.107.226-.211.348-.31l.026-.019c.114-.092.233-.178.355-.261.063-.043.13-.083.2-.124.1-.064.2-.129.309-.187a5.87,5.87,0,0,1,.543.426,4.744,4.744,0,0,1,.37.352,6.215,6.215,0,0,1,1.169,1.824,7.45,7.45,0,0,1,.527,2.208,11.254,11.254,0,0,1,.017,1.705,7.841,7.841,0,0,1-1.034.249,10.119,10.119,0,0,1-1.239.125,3.879,3.879,0,0,1-1.991-.366,2.655,2.655,0,0,1-.621-.459c-.016-.016-.03-.033-.046-.049" fill="#fff"/>
    <path id="Path_625" data-name="Path 625" d="M278.052,240.878l.306-.011a7.432,7.432,0,0,0,2.342.733c.188.026.368.048.543.069.063-.369.125-.742.172-1.128.041-.34.069-.669.087-.994,0-.033,0-.065.006-.1.009-.186.006-.365.009-.546l-2.222-1.742c.016.011.036.022.051.034a4.735,4.735,0,0,1-1.205-1.348,4.882,4.882,0,0,1-.652-2.52l-3.393-2.66c.024.1.048.206.069.31,0,.017.005.036.009.054q.078.388.125.8c.005.046.011.094.015.14q.043.411.056.839c0,.044,0,.09,0,.134.005.294,0,.595-.012.9l-.007.1c-.018.324-.046.655-.087.992-.053.442-.121.869-.2,1.287-.009.05-.015.1-.023.151s-.018.074-.025.114c-.071.37-.149.735-.238,1.087-.012.047-.026.093-.039.139-.081.311-.17.614-.265.909-.015.048-.026.1-.042.146s-.041.111-.06.169c-.035.1-.07.2-.107.3q-.075.2-.156.4c-.039.1-.077.192-.118.287-.022.05-.04.1-.062.149s-.046.091-.067.138q-.153.336-.32.656c-.024.046-.044.1-.069.141s-.053.1-.08.147c-.122.22-.249.433-.379.64l-.011.018c-.026.042-.056.081-.084.123-.108.167-.217.329-.33.487-.013.017-.025.038-.039.055-.047.066-.1.126-.147.191-.08.1-.159.208-.241.309-.018.022-.035.046-.053.068-.053.064-.11.123-.165.185-.074.085-.146.17-.221.25l-.057.065c-.058.061-.119.117-.178.176-.074.075-.149.151-.224.223-.019.018-.038.037-.057.056-.06.056-.124.105-.184.16-.082.071-.164.145-.248.214-.02.017-.039.036-.06.053-.055.045-.114.084-.17.128-.1.077-.2.154-.3.227-.026.017-.05.039-.077.058-.12.082-.241.164-.364.241h0c-.092.058-.185.114-.279.169-.029.017-.061.029-.091.046-.252.142-.508.275-.772.393l-.009,0,7.151,5.607.009,0c.265-.117.52-.251.772-.392.125-.07.249-.138.37-.214h0c.151-.095.3-.2.442-.3.1-.074.2-.151.3-.229.077-.059.155-.117.23-.179s.166-.143.249-.216.161-.142.24-.216.15-.148.225-.223.158-.157.233-.241.15-.166.224-.252.146-.164.217-.252.162-.2.242-.31c.062-.081.124-.161.184-.244.114-.157.224-.322.331-.489.031-.047.063-.092.093-.14s.07-.118.105-.177l-3.122-2.448Z" fill="#d31b61"/>
    <path id="Path_626" data-name="Path 626" d="M279.922,237.58c.02.013.043.023.063.033-.02-.011-.043-.02-.063-.033" fill="#d31b61"/>
    <path id="Path_627" data-name="Path 627" d="M266.658,246.07c-.273.086-.55.164-.836.227l-.029.005c-.278.061-.562.107-.852.145l-.228.028c-.3.033-.607.06-.92.07a12.27,12.27,0,0,1-3.089-.232A14.549,14.549,0,0,1,258,245.4l7.151,5.607a14.482,14.482,0,0,0,2.7.913,12.312,12.312,0,0,0,3.089.233c.313-.011.618-.038.92-.072.077-.008.152-.018.228-.028.289-.039.574-.085.852-.145l.029-.006c.285-.063.563-.141.836-.226l.205-.068c.255-.086.509-.181.752-.288l.039-.016-7.15-5.607-.039.015c-.245.107-.5.2-.752.289l-.207.067" fill="#8f0041"/>
    <path id="Path_628" data-name="Path 628" d="M285.047,227.551l.543.425a6.212,6.212,0,0,0-.543-.425" fill="#536b6d"/>
    <path id="Path_629" data-name="Path 629" d="M282.133,232.136a2.269,2.269,0,0,0,.031.251c.008.047.021.093.033.139.019.077.04.154.067.229a2.546,2.546,0,0,0,.1.247h0a2.057,2.057,0,0,0,.172.3c.008.013.018.025.026.037a2.2,2.2,0,0,0,.211.255l.019.017,0,0a2.711,2.711,0,0,0,.62.459,3.878,3.878,0,0,0,1.992.366,9.985,9.985,0,0,0,1.239-.125,7.721,7.721,0,0,0,1.034-.249,11.771,11.771,0,0,0-.017-1.705,7.329,7.329,0,0,0-.531-2.208,6.126,6.126,0,0,0-1.165-1.824c-.115-.124-.242-.239-.37-.352l-.542-.425h0c-.106.058-.206.123-.307.185-.067.042-.136.083-.2.127-.116.079-.228.161-.338.247l-.045.034c-.121.1-.236.2-.348.308-.027.026-.053.053-.08.079-.108.107-.211.216-.308.331-.037.043-.069.088-.1.131-.059.073-.118.147-.173.222-.038.051-.073.1-.108.155h0c-.043.061-.085.122-.125.183s-.064.106-.1.16-.074.123-.108.185-.049.1-.073.145c-.036.073-.074.145-.106.217-.02.044-.037.088-.055.132-.038.091-.074.182-.106.275-.014.041-.027.082-.04.123a4.6,4.6,0,0,0-.138.533c-.02.1-.039.21-.052.316a2.549,2.549,0,0,0-.015.375c0,.041.008.081.011.121" fill="#8f0041"/>
    <path id="Path_630" data-name="Path 630" d="M288.828,242.929c.019-.02.038-.045.057-.064-.077.082-.156.162-.235.241.059-.059.12-.115.178-.176" fill="#8f0041"/>
    <path id="Path_631" data-name="Path 631" d="M289.271,242.429c.018-.023.034-.047.053-.067-.071.086-.144.169-.217.253.054-.062.111-.122.164-.185" fill="#8f0041"/>
    <path id="Path_632" data-name="Path 632" d="M290.164,241.2l.011-.018c-.031.049-.064.095-.1.143.027-.043.057-.082.084-.125" fill="#8f0041"/>
    <path id="Path_633" data-name="Path 633" d="M289.713,241.861c.013-.017.025-.037.036-.055-.06.084-.122.164-.185.246.05-.064.1-.125.149-.191" fill="#8f0041"/>
    <path id="Path_634" data-name="Path 634" d="M288.368,243.385l.058-.057q-.12.111-.242.216c.061-.054.124-.1.183-.16" fill="#8f0041"/>
    <path id="Path_635" data-name="Path 635" d="M284.838,241.509c.039-.01.083-.017.122-.026a4.728,4.728,0,0,0,.876-.316,8.012,8.012,0,0,0,.434-.766,10.8,10.8,0,0,0,.753-2.176,9.883,9.883,0,0,1-.98.2,12.4,12.4,0,0,1-1.416.135,9.58,9.58,0,0,1-3.953-.609,5.968,5.968,0,0,1-.691-.332c-.02-.011-.043-.021-.063-.034a5.284,5.284,0,0,1-.577-.384c-.015-.012-.035-.023-.051-.034l2.222,1.742Z" fill="#8f0041"/>
    <path id="Path_636" data-name="Path 636" d="M277.489,233.327h0a4.874,4.874,0,0,0,.65,2.52,4.741,4.741,0,0,0,1.207,1.348,5.2,5.2,0,0,0,.576.384c.021.013.043.023.063.034a5.906,5.906,0,0,0,.691.332,9.565,9.565,0,0,0,3.953.609,12.37,12.37,0,0,0,1.415-.135,9.811,9.811,0,0,0,.981-.2,10.779,10.779,0,0,1-.753,2.176,7.69,7.69,0,0,1-.434.766,4.734,4.734,0,0,1-.877.316l-.122.026a10.445,10.445,0,0,1-2,.241,10.88,10.88,0,0,1-1.6-.081c-.176-.02-.355-.042-.543-.069a7.42,7.42,0,0,1-2.342-.734l-.306.011-1.9,3.9a14.482,14.482,0,0,0,2.705.913,12.248,12.248,0,0,0,3.088.233c.315-.011.62-.037.922-.071l.228-.028c.289-.039.573-.085.851-.145l.029-.006c.286-.063.564-.142.837-.227.068-.021.138-.045.206-.067.256-.087.507-.182.752-.289l.048-.019c.264-.117.52-.251.77-.394.126-.07.251-.138.372-.214.152-.095.3-.2.444-.3.1-.073.2-.151.3-.227.076-.06.156-.118.231-.18s.165-.142.247-.216.162-.142.242-.217.149-.146.224-.222.159-.159.236-.241.148-.167.221-.251.147-.167.217-.253.162-.206.241-.31c.063-.082.125-.162.185-.246q.17-.236.331-.485c.031-.049.064-.094.1-.144q.2-.309.379-.64c.051-.094.1-.192.148-.288.111-.213.218-.431.32-.655.043-.1.087-.19.129-.288s.079-.191.116-.287c.055-.133.107-.269.157-.406.035-.1.072-.2.106-.3s.07-.208.1-.313c.1-.3.183-.6.265-.908.012-.048.026-.093.039-.142.087-.351.166-.715.238-1.086.017-.087.033-.177.048-.266.074-.418.142-.844.2-1.286.04-.338.068-.67.087-.993,0-.033,0-.066.006-.1.015-.308.019-.607.012-.9,0-.044,0-.089,0-.132-.009-.287-.029-.567-.057-.84-.005-.047-.009-.093-.015-.14-.032-.272-.074-.537-.125-.8-.025-.122-.049-.244-.078-.365-.067-.284-.147-.555-.232-.82L291.94,229c-.078-.227-.161-.449-.254-.661-.009-.024-.018-.048-.029-.071-.1-.219-.2-.428-.314-.631-.063-.117-.131-.227-.2-.338-.1-.168-.2-.338-.316-.495-.144-.2-.294-.381-.449-.559-.035-.041-.07-.082-.105-.12-.155-.17-.314-.332-.478-.481-.015-.014-.032-.026-.046-.04a6.115,6.115,0,0,0-1.19-.833,5.309,5.309,0,0,0-2.737-.651,6.969,6.969,0,0,0-2.85.728,9.766,9.766,0,0,0-2.542,1.81,10.337,10.337,0,0,0-1.921,2.6,9.083,9.083,0,0,0-.707,1.82,8.9,8.9,0,0,0-.259,1.279,7.474,7.474,0,0,0-.057.974m4.648-1.688h0c.014-.107.032-.21.051-.316a4.566,4.566,0,0,1,.139-.533l.039-.123c.033-.092.069-.184.107-.275.019-.043.035-.088.054-.13.033-.073.07-.145.107-.218.024-.048.047-.1.073-.144s.072-.123.108-.185.063-.107.1-.16.082-.123.125-.184.069-.1.108-.155c.054-.074.114-.148.172-.222.036-.043.067-.088.1-.131.1-.116.2-.225.308-.332l.08-.078q.167-.162.347-.309c.015-.012.03-.023.046-.034.108-.086.221-.168.337-.247.065-.045.133-.087.2-.128.1-.063.2-.127.307-.185h0a5.838,5.838,0,0,1,.541.425,4.892,4.892,0,0,1,.371.352,6.115,6.115,0,0,1,1.165,1.825,7.278,7.278,0,0,1,.53,2.208,11.777,11.777,0,0,1,.018,1.705,7.848,7.848,0,0,1-1.035.248,9.974,9.974,0,0,1-1.238.125,3.874,3.874,0,0,1-1.991-.366,2.679,2.679,0,0,1-.621-.46l-.021-.018a2.273,2.273,0,0,1-.211-.255c-.009-.013-.018-.024-.026-.036a2.147,2.147,0,0,1-.172-.3h0a2.624,2.624,0,0,1-.1-.247,2.213,2.213,0,0,1-.067-.229c-.012-.047-.026-.092-.033-.14a2.433,2.433,0,0,1-.027-.746" fill="#fff"/>
    <path id="Path_637" data-name="Path 637" d="M291.411,244.9l1.74-3.924c.464.1.931.178,1.4.245a7.722,7.722,0,0,0,1.42.078,6.864,6.864,0,0,0,2-.347c.226-.079.426-.156.61-.234a9.654,9.654,0,0,0,.472-1,15.318,15.318,0,0,0,.614-1.861c0-.023,0-.047,0-.071-.008-.286-.027-.566-.055-.84-.005-.046-.011-.093-.015-.138-.032-.272-.074-.537-.125-.8-.024-.123-.05-.244-.078-.364-.068-.285-.147-.556-.231-.82-.026-.076-.05-.151-.077-.226-.079-.226-.162-.448-.252-.661l-.029-.071c-.1-.219-.2-.428-.316-.631-.063-.116-.13-.228-.2-.338-.1-.168-.2-.338-.317-.495-.09-.126-.183-.245-.279-.362-.128-.157-.258-.308-.394-.451-.031-.033-.064-.062-.1-.094-.1-.1-.2-.194-.3-.285s-.2-.177-.307-.26l-7.149-5.607c.087.069.175.141.26.214.012.012.023.025.036.037s.031.025.046.039c.088.08.177.167.262.254.028.027.056.051.081.078a.132.132,0,0,1,.015.017c.042.043.08.089.121.133s.07.079.105.12c.057.065.113.129.17.2.008.011.019.021.028.033.086.106.17.217.252.329.06.084.117.169.175.254s.093.162.141.241c.067.111.135.222.2.339.022.042.05.081.073.126.086.163.166.331.241.5.012.023.02.048.029.071.056.129.111.258.162.392.033.087.061.18.092.269.026.074.052.149.077.225.085.266.165.537.232.82.025.1.048.207.069.312,0,.017.005.036.009.054q.077.387.125.795c.005.046.009.093.015.139.028.274.048.554.057.841,0,.043,0,.089,0,.133.006.3,0,.594-.012.9,0,.033,0,.066-.005.1-.019.324-.046.655-.087.992-.054.443-.122.869-.2,1.287-.008.049-.013.1-.022.151s-.018.074-.026.114c-.07.37-.149.735-.237,1.086-.012.048-.027.094-.039.142-.081.31-.169.613-.264.907-.015.048-.028.1-.043.147s-.039.112-.06.167c-.034.1-.07.2-.105.3-.05.137-.1.272-.157.406q-.056.144-.116.286c-.021.048-.041.1-.063.15s-.046.09-.066.138q-.153.336-.32.656c-.023.045-.044.1-.068.141l-.08.147c-.123.22-.249.434-.38.64l-.01.02c-.028.042-.058.081-.084.124-.108.166-.217.328-.33.485-.013.018-.024.037-.037.055-.048.066-.1.126-.149.191-.079.1-.159.208-.241.31-.018.02-.034.045-.053.067-.053.064-.109.123-.165.185-.073.083-.146.169-.221.251-.02.02-.038.044-.057.064-.06.061-.12.117-.179.176-.075.076-.148.151-.224.222-.019.02-.038.04-.058.058-.059.056-.122.107-.183.16-.082.073-.163.146-.247.216-.021.017-.041.035-.06.052-.056.044-.114.084-.171.128-.1.076-.2.154-.3.227-.026.018-.05.039-.077.058-.121.082-.242.164-.367.241-.091.058-.184.114-.279.17-.03.016-.062.03-.093.046a8.627,8.627,0,0,1-.771.393l-.008,0,7.149,5.607.01,0c.264-.118.52-.251.771-.394.124-.07.25-.138.372-.215.151-.095.3-.2.443-.3.1-.073.2-.15.3-.227.077-.06.154-.118.23-.181s.165-.143.247-.215.163-.142.242-.216.151-.148.224-.223l.033-.033-4.455-3.5Z" fill="#d31b61"/>
    <path id="Path_638" data-name="Path 638" d="M285.771,245.093c-.245.108-.5.2-.752.288-.068.023-.137.047-.206.068-.273.086-.55.164-.836.228l-.029.005c-.278.06-.563.105-.852.145l-.227.027c-.3.035-.608.061-.921.072a12.258,12.258,0,0,1-3.089-.233,14.415,14.415,0,0,1-2.705-.913l3.122,2.448,4.028,3.16a14.58,14.58,0,0,0,2.705.913,12.29,12.29,0,0,0,3.089.233c.314-.011.619-.039.92-.072.077-.008.153-.017.228-.028.289-.039.574-.084.852-.144l.03-.006c.286-.063.563-.142.836-.228.069-.02.138-.045.206-.067.256-.086.508-.181.752-.288l.039-.015-7.149-5.607-.039.014" fill="#8f0041"/>
    <path id="Path_639" data-name="Path 639" d="M298.587,240.721c-.184.078-.384.154-.61.234a6.864,6.864,0,0,1-2,.347,7.722,7.722,0,0,1-1.42-.078c-.469-.067-.936-.148-1.4-.245l-1.74,3.924-.033.28c.7.108,1.314.183,1.828.232a11.8,11.8,0,0,0,1.492.048,11.626,11.626,0,0,0,3.9-.777c.117-.046.23-.1.344-.149.245-.11.482-.232.715-.364.038-.02.074-.042.113-.064.181-.106.36-.219.534-.34.033-.021.063-.045.1-.069q.189-.136.375-.282c.047-.037.094-.075.141-.114.105-.088.211-.179.314-.272.039-.036.08-.071.118-.107.134-.125.266-.254.393-.389.017-.017.034-.038.051-.057.1-.114.21-.23.31-.351.036-.042.071-.087.107-.132.084-.1.168-.211.249-.322.04-.053.078-.107.115-.16.09-.125.176-.254.262-.385l.1-.156c.128-.206.251-.417.372-.638.048-.089.1-.181.142-.273.035-.068.07-.135.1-.207.053-.106.1-.217.155-.327.029-.064.058-.126.087-.19.078-.176.153-.353.225-.535.1-.246.19-.5.277-.764.029-.086.059-.175.087-.263.036-.109.07-.222.1-.334s.061-.208.091-.313.064-.234.1-.351.056-.216.083-.328.057-.243.086-.366.05-.227.075-.342.053-.254.077-.383c.022-.111.042-.222.063-.335.034-.191.067-.386.1-.582.014-.091.029-.181.043-.273q.066-.434.122-.885.286-2.36.4-4.661c.075-1.532.108-2.936.1-4.2l-.249.009-.056,0-4.749.666q.039,1.931,0,4.1t-.335,4.591a31.463,31.463,0,0,1-.574,3.366c-.056.244-.116.483-.176.711a15.492,15.492,0,0,1-.615,1.861,9.894,9.894,0,0,1-.472,1" fill="#fff"/>
    <path id="Path_640" data-name="Path 640" d="M304.712,244.45l1.739-3.926c.464.1.928.179,1.4.245a7.866,7.866,0,0,0,1.42.079,6.883,6.883,0,0,0,2.006-.347c.229-.081.428-.156.61-.235a8.882,8.882,0,0,0,.475-.994c.033-.08.063-.168.1-.25.005-.045.013-.088.018-.132q.286-2.36.4-4.661c.074-1.533.108-2.936.1-4.2l-3.224-2.529-3.926-3.08c.012,1.268-.022,2.671-.1,4.2s-.208,3.088-.4,4.662c-.037.3-.078.6-.121.885-.014.092-.029.182-.044.272q-.046.3-.1.583c-.008.044-.015.092-.023.135-.012.068-.027.132-.039.2-.026.129-.051.257-.077.383s-.05.229-.075.341-.057.247-.087.368-.054.219-.082.327-.063.235-.1.351-.06.21-.091.313-.069.225-.1.335c-.018.056-.034.114-.052.168-.011.033-.024.061-.035.095-.088.263-.18.518-.277.764-.069.173-.14.344-.214.511,0,.008-.008.015-.012.024-.028.065-.058.127-.087.191-.05.109-.1.221-.153.327-.035.07-.07.137-.105.206s-.08.16-.122.237a.4.4,0,0,1-.021.036c-.119.22-.243.432-.371.638-.012.017-.022.039-.033.055-.022.035-.046.066-.068.1-.085.133-.173.261-.261.386-.023.032-.044.067-.067.1s-.033.04-.049.063c-.082.11-.166.217-.251.321-.028.034-.053.071-.081.1a.287.287,0,0,1-.024.027q-.152.182-.311.351l-.043.048-.009.008c-.128.135-.259.263-.392.388l-.033.033c-.029.026-.058.049-.087.076q-.154.141-.313.272c-.024.02-.047.043-.071.061s-.047.036-.07.054q-.185.146-.375.282l-.074.056-.022.014c-.174.12-.353.233-.535.339-.018.011-.035.025-.053.034s-.039.02-.059.03q-.348.2-.715.365l-.038.019,7.148,5.606a.376.376,0,0,0,.041-.018c.244-.109.482-.232.714-.363l.112-.064c.182-.107.36-.219.534-.341.033-.022.063-.045.1-.068.128-.092.252-.185.375-.283.047-.037.094-.075.142-.114.106-.087.21-.179.313-.272.04-.036.081-.072.119-.108.133-.125.265-.254.392-.388.017-.017.033-.036.049-.054l.009-.009-4.271-3.349Z" fill="#d31b61"/>
    <path id="Path_641" data-name="Path 641" d="M298.6,244.686a11.987,11.987,0,0,1-5.392.728q-.772-.072-1.828-.23l4.456,3.494,2.695,2.114q1.055.16,1.828.23a11.793,11.793,0,0,0,1.492.049,11.66,11.66,0,0,0,3.9-.777c.1-.042.2-.087.3-.132l-7.148-5.605c-.1.045-.2.087-.307.129" fill="#8f0041"/>
    <path id="Path_642" data-name="Path 642" d="M318.811,223.975l-4.753.665q.041,1.931,0,4.1t-.335,4.589a32.672,32.672,0,0,1-.573,3.365,18.006,18.006,0,0,1-.7,2.324c-.032.082-.063.17-.1.249a8.832,8.832,0,0,1-.475.994c-.182.079-.38.154-.61.235a6.833,6.833,0,0,1-2.006.347,7.73,7.73,0,0,1-1.42-.079c-.468-.067-.932-.147-1.4-.245l-1.739,3.926-.034.281q1.051.159,1.828.229a11.775,11.775,0,0,0,1.492.049,11.6,11.6,0,0,0,3.9-.777c.118-.048.232-.1.347-.15a7.987,7.987,0,0,0,.719-.366c.037-.02.074-.042.111-.064q.274-.16.536-.339l.1-.073c.125-.089.25-.182.372-.279.047-.038.1-.076.142-.115q.159-.132.314-.272c.039-.036.079-.07.118-.107q.192-.179.375-.371l.015-.015c.122-.129.24-.264.357-.4.033-.038.063-.08.1-.12q.132-.162.26-.334c.038-.051.075-.105.113-.158.089-.126.177-.255.263-.388.034-.052.067-.1.1-.156.128-.205.253-.419.372-.639.049-.09.1-.183.143-.275.035-.068.07-.135.105-.2.051-.106.1-.215.151-.323.03-.066.061-.13.091-.2q.116-.261.225-.535c.1-.248.191-.509.281-.773.029-.087.058-.173.086-.261q.052-.162.1-.329c.031-.1.061-.209.091-.316s.063-.228.093-.345.056-.218.083-.328.058-.241.085-.363.051-.228.075-.344.052-.249.077-.376c.021-.11.043-.222.063-.334q.052-.291.1-.59c.014-.089.029-.178.043-.269.043-.291.084-.587.121-.89q.287-2.361.4-4.661c.077-1.532.108-2.936.1-4.2l-.248.009Z" fill="#fff"/>
    <path id="Path_643" data-name="Path 643" d="M324.672,236.052c.02.013.042.022.063.033-.021-.011-.043-.021-.063-.033" fill="#d31b61"/>
    <path id="Path_644" data-name="Path 644" d="M321.6,243.543c-.23-.09-.464-.187-.7-.29l1.9-3.9.3-.01a7.52,7.52,0,0,0,2.345.733l.071.009c.028-.159.057-.319.082-.482.014-.092.029-.181.043-.273q.067-.436.122-.889c.055-.45.094-.9.139-1.343l-1.862-1.461c.016.012.035.023.051.034a4.745,4.745,0,0,1-1.206-1.347,5.388,5.388,0,0,1-.6-3.494,8.946,8.946,0,0,1,.967-3.1c.063-.12.134-.234.2-.35l-.425-.331-3.925-3.08c.012,1.268-.019,2.672-.1,4.2s-.208,3.087-.4,4.661c-.036.3-.077.6-.12.891-.014.091-.029.179-.043.269-.033.2-.065.4-.1.59-.008.045-.015.095-.024.14-.012.066-.026.129-.039.194-.025.127-.05.253-.077.376s-.05.231-.074.344-.057.243-.085.362-.055.221-.084.329-.06.232-.092.345-.06.213-.091.316-.067.221-.1.329l-.051.164c-.01.034-.023.063-.035.1-.089.265-.182.525-.281.773-.07.175-.14.344-.214.512a.159.159,0,0,0-.011.023c-.029.067-.061.131-.091.2-.05.108-.1.217-.151.322-.034.07-.07.137-.106.205s-.081.162-.122.241a.372.372,0,0,0-.02.035c-.12.221-.245.434-.374.639-.011.019-.021.039-.033.058-.021.034-.044.064-.066.1q-.13.2-.264.389c-.024.032-.043.067-.067.1l-.046.059c-.084.114-.172.225-.26.334-.026.032-.05.067-.076.1l-.02.022c-.116.139-.235.274-.357.4l0,0-.012.012c-.122.128-.248.251-.376.371a.4.4,0,0,1-.032.032c-.027.026-.057.049-.085.075q-.154.14-.313.272c-.024.02-.046.042-.071.062s-.048.035-.071.053c-.122.1-.245.19-.371.279-.026.019-.05.039-.076.057-.008.006-.016.01-.024.017-.175.12-.354.232-.536.34l-.051.033c-.019.011-.04.02-.06.03q-.351.2-.718.366c-.013.005-.026.013-.038.019l7.147,5.607.039-.017c.247-.111.485-.234.721-.366l.111-.063c.182-.107.362-.22.536-.341.033-.022.066-.048.1-.072q.189-.134.372-.279l.142-.114q.159-.133.311-.272l.12-.106c.127-.12.252-.244.375-.372l.016-.016c.122-.129.24-.263.356-.4.033-.039.064-.082.1-.122.087-.109.174-.219.259-.334.038-.051.075-.1.113-.157q.135-.19.264-.39c.033-.051.067-.1.1-.155.128-.206.252-.418.373-.639l-2.854-2.238c.235.1.468.2.7.29" fill="#d31b61"/>
    <path id="Path_645" data-name="Path 645" d="M311.895,244.232a11.907,11.907,0,0,1-5.388.727q-.777-.07-1.828-.229l4.271,3.35,2.879,2.258q1.051.16,1.828.23a11.783,11.783,0,0,0,1.492.049,11.607,11.607,0,0,0,3.9-.777c.1-.042.2-.088.306-.132L312.2,244.1c-.1.045-.2.088-.309.129" fill="#8f0041"/>
    <path id="Path_646" data-name="Path 646" d="M337.248,231.854h0l0,0v0" fill="#536b6d"/>
    <path id="Path_647" data-name="Path 647" d="M330.376,226.482a5.62,5.62,0,0,0-.581-.456h0Z" fill="#536b6d"/>
    <path id="Path_648" data-name="Path 648" d="M327.534,232.083l0,0a2.751,2.751,0,0,0,.621.459,3.865,3.865,0,0,0,1.987.366,10.219,10.219,0,0,0,1.239-.126,7.611,7.611,0,0,0,1.034-.249,11.572,11.572,0,0,0-.014-1.705,7.41,7.41,0,0,0-.531-2.208,6.138,6.138,0,0,0-1.164-1.824c-.105-.112-.221-.215-.335-.317l-.582-.457h0c-.108.059-.21.123-.311.188-.065.041-.132.081-.194.123-.117.079-.228.161-.336.246-.015.012-.03.022-.046.034-.121.1-.235.2-.348.307l-.079.08c-.107.105-.211.216-.309.33-.043.053-.083.106-.125.158s-.105.132-.154.2-.076.108-.113.162-.081.115-.118.174-.066.109-.1.163-.074.12-.106.181-.05.1-.074.146c-.036.071-.073.142-.1.214-.019.043-.036.086-.054.13-.039.092-.074.182-.106.274-.015.042-.027.083-.041.123a4.9,4.9,0,0,0-.139.535c-.019.106-.037.211-.05.317a2.46,2.46,0,0,0-.016.376c0,.041.007.082.01.122.008.084.016.167.031.25.009.046.022.094.033.139.02.078.041.154.067.23s.057.166.094.247a2.239,2.239,0,0,0,.159.281l.052.073a2.108,2.108,0,0,0,.173.208c.015.016.026.03.042.046" fill="#8f0041"/>
    <path id="Path_649" data-name="Path 649" d="M333.119,241.856c.019-.018.038-.039.057-.057-.08.076-.162.147-.244.219.062-.054.125-.105.187-.162" fill="#8f0041"/>
    <path id="Path_650" data-name="Path 650" d="M334.021,240.9c.018-.021.034-.045.052-.067-.07.087-.144.17-.217.254.054-.063.112-.122.165-.186" fill="#8f0041"/>
    <path id="Path_651" data-name="Path 651" d="M329.708,239.955a4.513,4.513,0,0,0,.875-.316,6.938,6.938,0,0,0,.438-.766,11.033,11.033,0,0,0,.754-2.176,9.785,9.785,0,0,1-.982.2,12.49,12.49,0,0,1-1.419.135,9.555,9.555,0,0,1-3.949-.609,5.957,5.957,0,0,1-.69-.332c-.021-.011-.043-.021-.063-.033a5.191,5.191,0,0,1-.577-.385c-.016-.012-.035-.022-.05-.034l1.862,1.461,3.68,2.886c.039-.009.081-.016.12-.026" fill="#8f0041"/>
    <path id="Path_652" data-name="Path 652" d="M334.465,240.33c.012-.016.022-.036.036-.052-.06.082-.122.161-.183.241.049-.064.1-.124.147-.189" fill="#8f0041"/>
    <path id="Path_653" data-name="Path 653" d="M334.92,239.659l.009-.014c-.025.04-.053.077-.078.117.022-.036.047-.068.07-.1" fill="#8f0041"/>
    <path id="Path_654" data-name="Path 654" d="M333.578,241.4c.019-.02.037-.044.056-.065-.077.083-.157.163-.237.243.06-.059.122-.116.18-.178" fill="#8f0041"/>
    <path id="Path_655" data-name="Path 655" d="M333.311,223.242c-.1-.054-.2-.1-.3-.15a5.276,5.276,0,0,0-2.436-.5,6.935,6.935,0,0,0-2.733.677c-.039.018-.078.032-.117.05a9.443,9.443,0,0,0-1.575.982,9.885,9.885,0,0,0-2.533,2.809c-.053.086-.1.177-.153.266-.067.117-.137.23-.2.35a8.931,8.931,0,0,0-.967,3.1,5.375,5.375,0,0,0,.6,3.494,4.717,4.717,0,0,0,1.2,1.347,5.263,5.263,0,0,0,.577.385l.063.033a5.969,5.969,0,0,0,.691.332,9.547,9.547,0,0,0,3.949.609,12.518,12.518,0,0,0,1.42-.135,9.8,9.8,0,0,0,.98-.2,10.94,10.94,0,0,1-.753,2.176,6.982,6.982,0,0,1-.438.765,4.472,4.472,0,0,1-.876.316c-.038.01-.08.017-.118.026a10.408,10.408,0,0,1-2,.243,12.3,12.3,0,0,1-2.066-.142l-.073-.009a7.516,7.516,0,0,1-2.345-.733l-.3.011-1.9,3.9q.353.156.7.291a13.966,13.966,0,0,0,2.007.623,12.336,12.336,0,0,0,3.092.232c.313-.011.618-.037.918-.071.077-.008.153-.018.228-.028.288-.039.572-.085.848-.145l.033-.006c.285-.063.562-.141.834-.226l.207-.067c.253-.086.5-.179.744-.285.019-.009.037-.015.056-.023.262-.117.516-.25.766-.391.126-.07.252-.141.376-.217.152-.1.3-.2.447-.3.1-.072.2-.148.3-.224.078-.061.156-.119.232-.182s.164-.141.245-.213.164-.143.244-.219.148-.146.221-.22.159-.16.238-.243.148-.166.221-.25.146-.167.217-.254.164-.207.245-.313c.061-.08.123-.159.183-.242.121-.167.236-.339.35-.515.025-.039.053-.076.077-.117q.2-.308.378-.636c.051-.093.1-.191.148-.288q.166-.317.316-.649c.044-.1.088-.192.13-.291s.081-.195.12-.292q.079-.2.153-.4c.037-.1.074-.2.109-.3s.069-.208.1-.313c.1-.3.186-.6.266-.917.012-.045.026-.087.037-.134.089-.353.168-.717.239-1.088.017-.089.033-.179.049-.268.074-.415.142-.839.2-1.278.039-.319.059-.626.078-.932v0c0-.059.012-.12.014-.178.006-.12,0-.234.005-.352,0-.238.01-.476,0-.705,0-.137-.019-.267-.027-.4-.015-.2-.028-.407-.052-.6-.017-.137-.042-.27-.063-.4-.039-.232-.074-.465-.128-.688-.068-.284-.148-.555-.233-.82-.025-.076-.052-.151-.077-.226-.079-.228-.162-.45-.253-.663-.011-.023-.019-.047-.029-.07-.1-.219-.2-.427-.315-.631-.061-.112-.127-.221-.193-.328-.1-.172-.207-.344-.322-.5-.143-.2-.294-.382-.448-.559l-.107-.122c-.155-.17-.314-.331-.479-.481l-.046-.039a6.134,6.134,0,0,0-1.186-.833m-5.818,8.8a2.1,2.1,0,0,1-.173-.209l-.052-.073a2.016,2.016,0,0,1-.159-.282,2.415,2.415,0,0,1-.1-.247c-.026-.076-.048-.152-.067-.229-.012-.047-.024-.093-.033-.14a2.46,2.46,0,0,1-.03-.251c0-.04-.01-.08-.011-.12a2.455,2.455,0,0,1,.015-.376c.013-.107.031-.212.05-.317a4.66,4.66,0,0,1,.139-.536c.012-.041.026-.081.04-.122.032-.092.067-.184.105-.275.019-.044.035-.088.055-.131.032-.071.068-.143.1-.213.025-.049.048-.1.074-.146s.07-.12.105-.181.063-.109.1-.163.079-.117.118-.174.074-.108.113-.163.1-.132.155-.2.081-.106.125-.158c.1-.116.2-.225.309-.331l.08-.079c.111-.107.226-.211.347-.309.015-.011.03-.021.045-.033q.163-.128.336-.246c.063-.042.129-.083.194-.123.1-.064.2-.129.312-.188h0a5.713,5.713,0,0,1,.582.456c.115.1.23.206.334.319a6.106,6.106,0,0,1,1.165,1.824,7.393,7.393,0,0,1,.531,2.208,11.56,11.56,0,0,1,.014,1.7,7.613,7.613,0,0,1-1.034.249,10.074,10.074,0,0,1-1.239.126,3.866,3.866,0,0,1-1.987-.367,2.689,2.689,0,0,1-.621-.458c-.017-.016-.03-.033-.046-.049" fill="#fff"/>
    <path id="Path_656" data-name="Path 656" d="M342.826,235.433c.02.011.043.021.063.033-.021-.012-.043-.022-.063-.033" fill="#d31b61"/>
    <path id="Path_657" data-name="Path 657" d="M340.958,238.73l.3-.011a7.5,7.5,0,0,0,2.346.733c.188.027.368.049.543.069.063-.369.125-.742.173-1.128s.074-.75.092-1.11c.005-.12,0-.234,0-.351,0-.06,0-.118,0-.177l-2.22-1.741c.017.011.036.022.052.034a4.772,4.772,0,0,1-1.209-1.348,5.4,5.4,0,0,1-.591-3.494,8.863,8.863,0,0,1,.258-1.279l-6.511-5.106q.132.1.26.216c.015.012.027.026.039.038l.046.039c.09.081.176.168.263.254.026.027.055.051.081.078l.015.017.12.133c.036.039.072.08.108.121.056.064.111.129.166.2.009.011.02.021.029.033.086.107.169.216.252.331.063.086.123.174.182.264s.092.16.141.239c.066.108.131.216.192.329.024.044.052.083.075.129.085.162.164.33.241.5.01.022.018.047.028.07.056.13.112.26.163.4.033.087.06.179.091.268s.053.149.077.226c.084.264.165.536.234.82.023.1.044.2.064.294.027.127.04.264.063.394s.046.268.063.4c.025.2.038.4.051.6.01.134.022.265.027.4.008.229,0,.467,0,.705,0,.118,0,.232,0,.352,0,.059-.009.12-.012.18v0c-.019.3-.043.612-.081.929-.052.44-.12.863-.2,1.278-.008.049-.013.1-.023.152s-.016.076-.025.116c-.072.372-.15.736-.239,1.088-.011.046-.025.089-.036.135-.081.313-.171.618-.266.916-.016.047-.028.1-.043.145s-.04.112-.06.169c-.035.1-.072.2-.109.306-.049.135-.1.269-.153.4-.04.1-.08.2-.12.292-.022.05-.04.1-.063.153s-.046.09-.067.138c-.1.221-.206.437-.316.649-.024.046-.043.1-.068.142l-.081.147c-.121.219-.247.431-.376.636a.074.074,0,0,1-.009.014c-.022.034-.046.067-.069.1-.113.176-.23.349-.35.515-.012.017-.023.036-.036.054-.046.065-.1.125-.146.188-.081.106-.161.212-.245.313l-.051.067c-.054.064-.111.123-.166.186-.074.084-.146.169-.221.25-.02.021-.039.045-.057.065-.059.062-.121.119-.18.179s-.146.148-.222.22c-.019.018-.038.037-.056.056-.061.057-.125.107-.187.162-.082.071-.162.145-.245.213-.019.016-.039.035-.06.051-.055.045-.115.086-.173.13-.1.076-.2.151-.3.225-.026.018-.05.039-.075.056-.122.086-.246.167-.372.247-.094.059-.19.116-.286.172-.03.017-.062.03-.091.046-.248.141-.5.273-.766.39l-.01.005,7.15,5.607.01-.005c.262-.116.516-.249.767-.389.126-.071.253-.142.376-.219.152-.1.3-.2.447-.3.1-.072.2-.148.3-.226.077-.059.156-.117.232-.18s.163-.142.245-.213.164-.143.242-.217.149-.148.223-.222.159-.159.236-.241.149-.167.222-.252.146-.165.217-.252.164-.207.245-.315c.061-.079.123-.158.183-.241.121-.168.237-.341.351-.517.026-.039.053-.075.077-.114.035-.055.067-.114.1-.17l-3.124-2.451Z" fill="#d31b61"/>
    <path id="Path_658" data-name="Path 658" d="M330.511,243.57c-.242.106-.491.2-.744.285q-.1.035-.207.068c-.272.086-.549.164-.834.227l-.033.005c-.276.061-.56.106-.848.144-.075.011-.151.02-.228.029-.3.033-.605.061-.918.071a12.411,12.411,0,0,1-3.092-.232,13.886,13.886,0,0,1-2.007-.624q-.346-.133-.7-.29l2.853,2.238,4.3,3.37a14.754,14.754,0,0,0,2.705.913,12.3,12.3,0,0,0,3.092.232c.313-.01.618-.036.919-.07l.228-.028c.288-.039.571-.085.847-.144l.033-.007c.285-.063.562-.141.834-.226l.207-.067c.253-.087.5-.179.744-.285l.044-.018-7.149-5.607c-.015.007-.031.011-.046.017" fill="#8f0041"/>
    <path id="Path_659" data-name="Path 659" d="M367.133,218.02c.043.017.084.036.129.051a1.844,1.844,0,0,0,.248.062c.039.008.078.019.12.024a2.35,2.35,0,0,0,.4.02,2.6,2.6,0,0,0,.466-.059c.05-.011.1-.03.145-.043a2.5,2.5,0,0,0,.293-.1,2.442,2.442,0,0,0,.327-.165l.045-.028a2.828,2.828,0,0,0,.341-.252,2.269,2.269,0,0,0,.31-.326l.013-.018a2.268,2.268,0,0,0,.23-.367l.018-.033a2.742,2.742,0,0,0,.146-.384c.016-.048.026-.1.039-.149a3.447,3.447,0,0,0,.079-.4,3.028,3.028,0,0,0,.02-.473c0-.048-.011-.092-.016-.138a1.989,1.989,0,0,0-.043-.291c-.007-.029-.016-.057-.025-.085a1.479,1.479,0,0,0-.129-.317l-.012-.023a1.455,1.455,0,0,0-.231-.3,1.917,1.917,0,0,0-1.475-.522,2.561,2.561,0,0,0-1.614.627,2.479,2.479,0,0,0-.834,1.668,1.88,1.88,0,0,0,.434,1.636,1.826,1.826,0,0,0,.249.2c.039.027.079.052.119.076a1.815,1.815,0,0,0,.2.1" fill="#fff"/>
    <path id="Path_660" data-name="Path 660" d="M369.972,214.157l.077.071.032.032c.029.031.057.063.084.1s.053.07.077.107c.013.02.025.042.037.064l.014.023c.008.013.016.026.023.039a1.531,1.531,0,0,1,.073.163c.014.036.022.076.033.114s.017.055.024.086.014.042.019.065c.013.071.016.15.024.226,0,.045.013.089.015.137a3.014,3.014,0,0,1-.02.473c-.009.076-.02.15-.034.221s-.032.121-.046.181-.023.1-.038.149c-.007.022-.01.045-.017.064-.027.08-.056.157-.088.232-.013.03-.029.058-.043.087l-.016.034c-.01.017-.017.036-.026.052-.027.049-.054.1-.084.144s-.056.086-.085.126l-.035.045-.015.018-.041.052c-.031.038-.063.074-.1.11s-.071.073-.108.107c-.021.019-.042.039-.063.057s-.05.043-.075.064c-.055.045-.111.086-.168.126-.033.022-.066.041-.1.062l-.044.029-.046.029c-.078.045-.158.086-.239.123l-.042.014a2.588,2.588,0,0,1-.293.1c-.048.014-.094.032-.145.043a2.673,2.673,0,0,1-.467.059,2.511,2.511,0,0,1-.4-.021c-.042-.005-.081-.017-.12-.024a1.843,1.843,0,0,1-.248-.061c-.044-.015-.086-.033-.128-.051a1.6,1.6,0,0,1-.2-.1,1.243,1.243,0,0,1-.118-.076c-.025-.017-.053-.03-.077-.049l2.631,2.064q.764.048,1.58.169a19.169,19.169,0,0,1,3.178.745l2.825,2.216c.055-.058.113-.11.163-.171l.014-.018a2.367,2.367,0,0,0,.229-.368c.006-.011.012-.023.017-.034a2.583,2.583,0,0,0,.148-.383c.015-.048.026-.1.038-.149a3.322,3.322,0,0,0,.08-.4,3.032,3.032,0,0,0,.02-.473c0-.048-.01-.092-.016-.139a1.909,1.909,0,0,0-.043-.29c-.007-.029-.016-.057-.024-.085a1.568,1.568,0,0,0-.129-.318l-.013-.022a1.452,1.452,0,0,0-.231-.3q-.073-.072-.151-.134l-2.877-2.255L369.9,214.1c.025.02.05.039.074.061" fill="#8f0041"/>
    <path id="Path_661" data-name="Path 661" d="M374.124,221.259c-.01.033-.019.07-.029.1.009-.034.019-.071.029-.1" fill="#8f0041"/>
    <path id="Path_662" data-name="Path 662" d="M374.01,221.706c.011-.046.02-.095.032-.139-.012.045-.021.093-.032.139" fill="#8f0041"/>
    <path id="Path_663" data-name="Path 663" d="M373.963,221.916c-.011.052-.022.109-.033.164.01-.055.022-.112.033-.164" fill="#8f0041"/>
    <path id="Path_664" data-name="Path 664" d="M348.524,225.858a5.414,5.414,0,0,0-.575-.451h0Z" fill="#536b6d"/>
    <path id="Path_665" data-name="Path 665" d="M355.4,231.231l0,0v0h0Z" fill="#536b6d"/>
    <path id="Path_666" data-name="Path 666" d="M345.687,231.462l.007.006a2.767,2.767,0,0,0,.621.458,3.872,3.872,0,0,0,1.986.366l2.251-.076a11.794,11.794,0,0,0,.009-2,7.423,7.423,0,0,0-.529-2.207,6.11,6.11,0,0,0-1.169-1.825,4.654,4.654,0,0,0-.338-.323l-.576-.45h0c-.108.058-.208.124-.31.188-.066.04-.132.08-.2.123-.116.079-.228.161-.336.246-.015.011-.031.022-.045.033-.121.1-.236.2-.348.31-.027.025-.053.051-.079.079-.108.106-.211.216-.309.331-.043.051-.083.105-.124.157s-.106.133-.156.2-.076.108-.112.163-.081.114-.118.173-.066.11-.1.163-.071.12-.1.179-.05.1-.074.147c-.037.07-.074.142-.105.214-.019.042-.036.086-.053.13q-.059.137-.107.275c-.015.042-.027.081-.04.122a4.5,4.5,0,0,0-.138.536c-.021.106-.038.21-.052.316a2.7,2.7,0,0,0-.015.378c0,.041.007.08.01.121.007.084.016.17.031.252.009.047.022.092.032.138.02.079.042.158.069.236s.055.16.091.238a1.9,1.9,0,0,0,.161.28c.016.025.034.049.052.073a2.207,2.207,0,0,0,.173.208c.014.014.026.03.04.045" fill="#8f0041"/>
    <path id="Path_667" data-name="Path 667" d="M352.227,240.213c-.07.086-.142.169-.216.252.055-.063.111-.121.165-.185.017-.021.034-.045.051-.067" fill="#8f0041"/>
    <path id="Path_668" data-name="Path 668" d="M351.33,241.179c-.08.076-.161.147-.242.218.061-.054.125-.1.186-.16l.057-.058" fill="#8f0041"/>
    <path id="Path_669" data-name="Path 669" d="M351.789,240.717c-.078.082-.156.162-.237.241.06-.058.122-.114.18-.176.019-.02.038-.044.057-.064" fill="#8f0041"/>
    <path id="Path_670" data-name="Path 670" d="M344.419,236.755l3.3,2.585c.064-.017.131-.03.193-.048a6.087,6.087,0,0,0,.857-.312,7.329,7.329,0,0,0,.413-.727,10.368,10.368,0,0,0,.687-1.932l-2.333.088a9.6,9.6,0,0,1-3.952-.611,5.913,5.913,0,0,1-.688-.331l-.063-.033a5.407,5.407,0,0,1-.575-.384c-.016-.014-.035-.023-.052-.035Z" fill="#8f0041"/>
    <path id="Path_671" data-name="Path 671" d="M353.082,239.026c-.025.039-.052.076-.077.115.023-.035.047-.067.069-.1,0,0,.005-.01.009-.014" fill="#8f0041"/>
    <path id="Path_672" data-name="Path 672" d="M352.655,239.657c-.06.082-.122.161-.183.242.047-.064.1-.123.146-.189.013-.017.024-.036.036-.053" fill="#8f0041"/>
    <path id="Path_673" data-name="Path 673" d="M352.612,223.418c.014.012.026.025.04.036l.046.041c.089.08.176.167.262.254.026.026.055.049.081.077l.014.017c.041.043.081.089.121.132l.107.122c.057.064.113.128.168.2.009.011.019.022.029.033q.128.16.251.331c.06.084.118.168.175.255s.092.16.14.239c.068.112.136.223.2.34.023.044.051.084.075.127.084.164.163.331.24.5l.027.067c.057.132.115.266.167.406.032.084.059.174.089.262s.052.148.076.223c.086.264.166.535.235.819.022.1.045.2.065.294.025.12.038.246.059.368s.044.253.06.383c.024.188.039.381.053.575.009.125.022.248.027.375.009.219.007.444,0,.669,0,.11,0,.218,0,.331s-.015.225-.022.338v0c-.014.232-.026.466-.052.707l1.629-.056.553-.018,3.065-.1a6.726,6.726,0,0,1-1.081-1.659,5.244,5.244,0,0,1-.437-1.626l-6.726-5.276c.087.069.175.141.26.216" fill="#8f0041"/>
    <path id="Path_674" data-name="Path 674" d="M353.984,237.323a.217.217,0,0,0-.011.024c-.138.316-.286.62-.444.914l-.07.128q-.181.328-.377.637l-.009.014c-.022.035-.046.067-.069.1-.113.176-.231.35-.351.516a.584.584,0,0,1-.036.053c-.047.066-.1.126-.146.189-.081.106-.162.213-.245.314-.017.022-.034.045-.052.067-.053.064-.11.123-.164.185-.074.085-.146.17-.223.252-.019.02-.037.044-.056.064-.058.061-.12.118-.18.177-.073.075-.146.15-.223.222l-.056.056c-.06.057-.125.107-.186.162-.082.072-.162.145-.246.213-.019.017-.038.035-.059.051-.056.045-.115.086-.172.13-.1.076-.2.152-.3.225l-.076.056c-.122.086-.246.167-.372.246q-.142.089-.286.173c-.03.017-.062.03-.091.046-.25.141-.5.272-.766.39l-.011.005,7.15,5.607.01,0c.263-.117.517-.25.768-.391.126-.07.253-.14.376-.217.151-.1.3-.2.446-.3.1-.073.2-.149.3-.226.077-.06.155-.118.231-.181s.165-.142.245-.214.163-.142.242-.217.149-.147.224-.222.158-.158.234-.241.15-.168.223-.252.146-.166.217-.251c.083-.1.164-.208.244-.314.061-.08.123-.159.183-.242.121-.167.236-.34.351-.516.025-.039.052-.076.076-.115.13-.206.255-.419.379-.637.188-.34.362-.7.523-1.066l.019-.044q.237-.546.438-1.132l-7.15-5.608q-.2.587-.44,1.131c-.005.015-.011.03-.017.045" fill="#d31b61"/>
    <path id="Path_675" data-name="Path 675" d="M348.666,242.95c-.243.106-.492.2-.744.285l-.207.068c-.272.086-.549.164-.834.226a.34.34,0,0,1-.034.007c-.275.06-.558.105-.846.144-.075.01-.152.02-.228.028-.3.033-.607.061-.92.071a12.326,12.326,0,0,1-3.092-.232,14.659,14.659,0,0,1-2.705-.913l3.124,2.45,4.025,3.158a14.7,14.7,0,0,0,2.705.913,12.335,12.335,0,0,0,3.092.232c.314-.011.618-.037.92-.071l.228-.028c.287-.039.57-.084.846-.144l.034-.007c.285-.063.561-.141.834-.226l.206-.067c.253-.086.5-.18.745-.286l.044-.017-7.149-5.607c-.014.006-.031.011-.045.017" fill="#8f0041"/>
    <path id="Path_676" data-name="Path 676" d="M367.211,223.835c-.125,0-.247.014-.366.028-.039,0-.076.012-.115.017-.079.011-.157.023-.232.039-.045.009-.087.021-.131.032-.067.017-.134.033-.2.053l-.132.045c-.06.022-.121.044-.179.069s-.087.039-.131.06-.105.051-.156.079-.1.055-.147.086c-.029.018-.057.036-.085.055-.075.05-.149.1-.219.159h0c-.08.065-.157.134-.231.207a3.83,3.83,0,0,0-.4.459l0,0a3.483,3.483,0,0,0-.29.475c-.009.017-.017.034-.025.051a3.281,3.281,0,0,0-.183.465c-.015.05-.026.1-.039.151a3.363,3.363,0,0,0-.1.462c-.014.112-.023.224-.029.336,0,.036,0,.073,0,.11,0,.073,0,.148,0,.219,0,.044.005.087.008.129,0,.066.008.132.015.2.005.045.012.09.019.135.009.062.019.124.03.186.009.047.02.1.031.142s.026.108.04.162.028.1.043.144.034.106.053.158c.013.037.028.074.043.112.054.136.112.271.18.4a4.233,4.233,0,0,0,.3.487c.03.042.063.086.1.129.092.119.19.234.294.345.029.03.056.062.084.091l.018.016a4.8,4.8,0,0,0,2.695,1.339l.6-5a15.151,15.151,0,0,1,.347-1.945c.057-.226.121-.442.187-.654-.219-.065-.461-.126-.732-.182a4.2,4.2,0,0,0-.969-.064" fill="#8f0041"/>
    <path id="Path_677" data-name="Path 677" d="M374.2,220.992c-.027.081-.054.172-.081.267-.01.033-.019.07-.029.1-.017.066-.035.132-.053.2-.012.044-.021.093-.032.139-.015.068-.032.137-.047.209-.011.053-.022.109-.033.165-.018.087-.035.173-.053.267-.105.561-.208,1.136-.306,1.72s-.169,1.059-.214,1.433l-1.1,9.14-.14.228,7.15,5.609.139-.229,1.106-9.14q.066-.561.214-1.434c.094-.556.192-1.108.293-1.646,0-.024.009-.049.012-.073s.008-.042.012-.062l0-.026c.012-.063.023-.12.036-.18s.021-.11.033-.163c.015-.073.032-.143.047-.213.011-.045.022-.093.031-.136.019-.071.036-.136.054-.2.009-.034.018-.072.027-.1.028-.1.054-.185.081-.266l-.081-.223-4.326-3.392-2.824-2.214Z" fill="#d31b61"/>
    <path id="Path_678" data-name="Path 678" d="M370.012,235.443a22.889,22.889,0,0,1-2.975.27l-10.566.361-2.03.073,7.15,5.608,2.03-.073,10.568-.361a22.847,22.847,0,0,0,2.973-.27,9.615,9.615,0,0,0,2.1-.575l-7.15-5.607a9.664,9.664,0,0,1-2.1.574" fill="#8f0041"/>
    <path id="Path_679" data-name="Path 679" d="M367.038,235.714a22.735,22.735,0,0,0,2.975-.272,9.579,9.579,0,0,0,2.1-.574l.14-.228,1.1-9.14q.068-.561.214-1.434c.1-.582.2-1.157.306-1.719.018-.094.034-.18.053-.267.01-.055.022-.112.033-.164.015-.073.032-.141.046-.21.012-.046.021-.095.032-.138.019-.072.036-.138.053-.2.009-.034.019-.071.029-.1.027-.1.054-.185.081-.267l-.081-.222a19.243,19.243,0,0,0-3.18-.745q-.815-.121-1.58-.169-.749-.048-1.448-.024c-.1,0-.2.011-.293.016a10.851,10.851,0,0,0-3.958.942,8.759,8.759,0,0,0-1.475.868,7.978,7.978,0,0,0-1.635,1.55,7.225,7.225,0,0,0-1.458,3.646,7.1,7.1,0,0,0-.018,1.623,5.2,5.2,0,0,0,.437,1.626,6.712,6.712,0,0,0,1.081,1.659l-3.065.1-.554.019-1.629.054c.025-.241.036-.475.049-.708v0c.007-.111.02-.226.023-.335s0-.22,0-.33c0-.226.005-.452,0-.669,0-.129-.017-.251-.028-.376-.013-.195-.028-.388-.051-.576-.017-.129-.04-.255-.061-.382-.036-.223-.072-.447-.124-.662-.068-.284-.149-.554-.234-.819-.024-.076-.051-.149-.077-.223-.079-.229-.164-.453-.256-.668-.009-.021-.017-.045-.027-.067-.1-.219-.205-.427-.315-.63-.063-.117-.132-.229-.2-.341-.1-.168-.2-.338-.316-.494-.143-.2-.293-.382-.447-.559-.036-.041-.071-.082-.107-.121-.155-.17-.314-.332-.479-.482l-.046-.039a6.137,6.137,0,0,0-1.185-.832q-.151-.079-.3-.15a5.268,5.268,0,0,0-2.435-.5,6.931,6.931,0,0,0-2.733.677c-.039.017-.078.031-.118.05a9.66,9.66,0,0,0-2.541,1.81,10.308,10.308,0,0,0-1.923,2.6,9,9,0,0,0-.705,1.82,8.874,8.874,0,0,0-.258,1.278,5.405,5.405,0,0,0,.591,3.494,4.772,4.772,0,0,0,1.209,1.348,5.41,5.41,0,0,0,.575.385l.063.033a5.915,5.915,0,0,0,.688.331,9.587,9.587,0,0,0,3.952.609l2.334-.087a10.363,10.363,0,0,1-.687,1.933,7.673,7.673,0,0,1-.413.727,6.242,6.242,0,0,1-.857.312c-.062.017-.129.031-.193.047a9.19,9.19,0,0,1-1.971.263,10.861,10.861,0,0,1-1.595-.081c-.176-.02-.355-.042-.543-.069a7.479,7.479,0,0,1-2.346-.734l-.3.011-1.9,3.9a14.493,14.493,0,0,0,2.705.913,12.288,12.288,0,0,0,3.092.233c.313-.011.618-.037.92-.071l.228-.028c.288-.039.571-.084.846-.144a.34.34,0,0,0,.034-.007c.285-.062.563-.14.834-.226l.207-.068c.252-.086.5-.179.744-.285.017-.008.037-.014.055-.023.263-.117.516-.249.766-.39.126-.071.253-.142.377-.219.152-.1.3-.2.447-.3.1-.072.2-.149.3-.225.077-.06.156-.119.231-.182s.164-.141.246-.213.163-.142.242-.218.15-.146.223-.222.159-.159.237-.241.149-.168.222-.251.146-.166.216-.252c.084-.1.164-.208.245-.314.061-.081.124-.159.182-.242.12-.167.238-.341.351-.516.026-.039.053-.076.077-.115q.2-.309.377-.637.282-.511.525-1.066c.006-.014.012-.03.017-.044q.238-.546.44-1.131l2.03-.073Zm1.688-10.98a15.175,15.175,0,0,0-.347,1.945l-.605,5a4.957,4.957,0,0,1-1.661-.563,4.9,4.9,0,0,1-1.033-.777l-.1-.107a4.043,4.043,0,0,1-.294-.346c-.033-.042-.065-.086-.1-.129a4.208,4.208,0,0,1-.3-.486,4.147,4.147,0,0,1-.18-.4l-.044-.112c-.018-.052-.036-.105-.053-.159s-.029-.1-.043-.142-.027-.108-.039-.162-.023-.095-.031-.142-.022-.124-.031-.186c-.006-.045-.013-.091-.019-.135-.008-.065-.012-.13-.015-.2,0-.044-.007-.086-.008-.129,0-.073,0-.146,0-.219,0-.038,0-.074,0-.111.005-.11.013-.223.028-.335a3.217,3.217,0,0,1,.1-.462c.012-.051.022-.1.039-.151a3.045,3.045,0,0,1,.183-.465l.025-.052a3.552,3.552,0,0,1,.289-.475l0,0a3.93,3.93,0,0,1,.4-.459,2.825,2.825,0,0,1,.231-.207h0c.07-.058.142-.109.218-.16.028-.019.057-.037.085-.054.049-.03.1-.059.148-.086s.1-.054.156-.079.086-.041.131-.06.118-.047.179-.068c.044-.016.087-.032.132-.045.064-.02.132-.037.2-.053.043-.011.085-.023.131-.033.076-.015.153-.027.232-.038.039-.006.075-.014.115-.018.119-.014.242-.023.366-.028a4.249,4.249,0,0,1,.969.064c.27.057.513.117.731.182-.067.213-.129.428-.187.654m-23.079,6.684a2.013,2.013,0,0,1-.173-.209c-.019-.025-.036-.048-.053-.073a2.245,2.245,0,0,1-.161-.281c-.035-.079-.062-.158-.09-.238s-.049-.158-.069-.237c-.01-.047-.023-.092-.032-.138-.015-.084-.024-.169-.031-.253,0-.041-.009-.08-.01-.121a2.583,2.583,0,0,1,.015-.378c.014-.107.031-.212.052-.317a4.605,4.605,0,0,1,.138-.535c.013-.042.026-.082.041-.123.032-.092.067-.184.105-.275.018-.044.035-.088.055-.13.031-.072.068-.145.1-.215.024-.048.046-.1.074-.145s.069-.12.1-.18.063-.11.1-.163.079-.116.119-.173.073-.109.112-.163.1-.133.156-.2.081-.106.124-.157c.1-.116.2-.225.31-.331l.078-.079c.112-.107.227-.21.348-.308.014-.012.03-.022.044-.034.109-.086.221-.167.337-.246.063-.042.129-.083.194-.123.1-.064.2-.129.311-.188h0a5.1,5.1,0,0,1,.575.451,4.093,4.093,0,0,1,.338.323,6.1,6.1,0,0,1,1.17,1.824,7.422,7.422,0,0,1,.529,2.208,11.7,11.7,0,0,1-.009,2l-2.25.077a3.872,3.872,0,0,1-1.986-.366,2.7,2.7,0,0,1-.62-.458c-.017-.016-.031-.034-.048-.05" fill="#fff"/>
  </g>
</svg>
