<?xml version="1.0" standalone="no"?>
<!DOCTYPE svg PUBLIC "-//W3C//DTD SVG 1.1//EN" "http://www.w3.org/Graphics/SVG/1.1/DTD/svg11.dtd" >
<svg xmlns="http://www.w3.org/2000/svg" xmlns:xlink="http://www.w3.org/1999/xlink" version="1.1">
<metadata>
Created by FontForge 20170731 at Wed Sep 15 10:16:26 2021
 By Aleksey,,,
Latinotype
</metadata>
<defs>
<font id="Corporative-Light" horiz-adv-x="1224" >
  <font-face 
    font-family="Corporative Light"
    font-weight="300"
    font-stretch="normal"
    units-per-em="2048"
    panose-1="0 0 4 0 0 0 0 0 0 0"
    ascent="1659"
    descent="-389"
    x-height="983"
    cap-height="1454"
    bbox="-387 -399 2767 1790"
    underline-thickness="102"
    underline-position="-307"
    unicode-range="U+0020-FB02"
  />
<missing-glyph horiz-adv-x="1290" 
d="M205 1454h880v-1454h-880v1454zM338 1382l307 -569l307 569h-614zM600 727l-313 582v-1164zM692 727l312 -582v1164zM645 641l-307 -569h614z" />
    <glyph glyph-name="fi" unicode="fi" horiz-adv-x="1062" 
d="M836 61q52 -8 151 -8l-4 -61q-75 -6 -115 -6q-62 0 -86 21t-24 77v834h-447v-918h-78v918h-198v65h198v219q0 140 80.5 206.5t225.5 66.5q144 0 231 -37l-6 -72q-88 37 -215 37q-238 0 -238 -203v-217h525v-922z" />
    <glyph glyph-name="fl" unicode="fl" horiz-adv-x="1073" 
d="M836 68q39 -15 182 -15l-4 -59q-70 -8 -123 -8q-78 0 -105.5 22.5t-27.5 79.5v830h-447v-918h-78v918h-198v65h198v221q0 138 61.5 204.5t172.5 66.5q95 0 174 -35l-6 -70q-71 33 -158 33q-79 0 -122.5 -49t-43.5 -148v-223h447v471h78v-1386z" />
    <glyph glyph-name=".notdef" horiz-adv-x="1290" 
d="M205 1454h880v-1454h-880v1454zM338 1382l307 -569l307 569h-614zM600 727l-313 582v-1164zM692 727l312 -582v1164zM645 641l-307 -569h614z" />
    <glyph glyph-name=".null" horiz-adv-x="0" 
 />
    <glyph glyph-name="nonmarkingreturn" horiz-adv-x="682" 
 />
    <glyph glyph-name="space" unicode=" " horiz-adv-x="602" 
 />
    <glyph glyph-name="exclam" unicode="!" horiz-adv-x="395" 
d="M154 1454l8 -1069h71l11 1069h-90zM199 -25q35 0 57.5 24t22.5 58t-22.5 57t-57.5 23t-58.5 -23t-23.5 -57t23.5 -58t58.5 -24z" />
    <glyph glyph-name="quotedbl" unicode="&#x22;" horiz-adv-x="690" 
d="M446 1473l-28 -455h63l58 438zM180 1473l-28 -455h63l57 438z" />
    <glyph glyph-name="numbersign" unicode="#" horiz-adv-x="1468" 
d="M1262 840h-258l-78 -348h260l-15 -62h-260l-69 -307h-76l70 307h-314l-69 -307h-76l69 307h-253l14 62h254l80 348h-258l14 61h258l68 307h75l-69 -307h315l68 307h75l-69 -307h258zM850 492l80 348h-316l-77 -348h313z" />
    <glyph glyph-name="dollar" unicode="$" horiz-adv-x="1234" 
d="M1098 358q0 -167 -120 -260.5t-337 -101.5l-6 -205h-72l6 205q-239 9 -424 121l13 78q22 -16 55.5 -33t86 -38t123.5 -36t146 -18l15 622q-47 14 -74.5 23t-70.5 25t-69.5 28.5t-62 32.5t-57.5 39t-46 46t-37 56t-21.5 65.5t-8.5 77.5q0 167 118 266.5t345 102.5l4 205
h72l-4 -207q329 -19 389 -287l-76 -18q-8 40 -27.5 76t-54.5 71.5t-95 58.5t-138 29l-13 -637q52 -16 82.5 -26.5t78 -28t76 -33.5t65 -38.5t58.5 -48t42.5 -57.5t29.5 -71t9 -84zM217 1081q0 -46 13 -84.5t40 -68t57.5 -53t77 -44t86 -34.5t95.5 -31l12 618
q-187 -3 -284 -81.5t-97 -221.5zM641 70q377 14 377 286q0 55 -20.5 99.5t-50.5 75t-82 58t-97 44t-113 37.5z" />
    <glyph glyph-name="percent" unicode="%" horiz-adv-x="1755" 
d="M498 668q169 0 250 106t81 295q0 191 -81 298.5t-250 107.5q-171 0 -252.5 -107t-81.5 -297t81.5 -296.5t252.5 -106.5zM1384 1475l-1052 -1493l78 -7l1052 1493zM498 725q-132 0 -198.5 92.5t-66.5 253.5q0 163 66.5 254.5t198.5 91.5t197 -92t65 -256
q0 -161 -65 -252.5t-197 -91.5zM1300 -25q169 0 250.5 106.5t81.5 295.5q0 191 -81.5 298t-250.5 107q-171 0 -252 -106.5t-81 -296.5t81.5 -297t251.5 -107zM1300 33q-132 0 -198 92.5t-66 253.5q0 163 66 254.5t198 91.5t197.5 -92t65.5 -256q0 -161 -65.5 -252.5
t-197.5 -91.5z" />
    <glyph glyph-name="ampersand" unicode="&#x26;" horiz-adv-x="1593" 
d="M1477 846q-81 -449 -326 -680l203 -191l-86 -12l-170 158q-213 -166 -512 -166q-230 0 -346.5 84t-116.5 244q0 62 19 114.5t48 91t80.5 76.5t98 64.5t120.5 62.5q-57 55 -91.5 94t-67.5 90t-47.5 108t-14.5 126q0 73 22.5 137.5t67 116t118.5 81.5t169 30
q78 0 139.5 -18.5t101 -49t65.5 -74t37 -89.5t11 -99q0 -75 -26.5 -140.5t-58.5 -107.5t-93 -87t-95.5 -64.5t-100.5 -53.5q-15 -8 -23 -12l494 -461q228 214 303 635zM348 1108q0 -114 42 -191t165 -192q149 78 207 121q157 118 158 282q0 136 -74 205.5t-203 69.5
q-142 0 -218.5 -83.5t-76.5 -211.5zM594 27q256 0 448 147l-503 473q-75 -39 -121 -66.5t-91 -61.5t-68.5 -66t-37.5 -74t-14 -92q0 -122 92.5 -191t294.5 -69z" />
    <glyph glyph-name="quotesingle" unicode="'" horiz-adv-x="423" 
d="M180 1473l-28 -455h63l57 438z" />
    <glyph glyph-name="parenleft" unicode="(" horiz-adv-x="897" 
d="M315 645q0 -158 31.5 -302t80 -248t112.5 -190.5t123.5 -139t117.5 -84.5l-18 -70q-58 28 -117.5 75.5t-119.5 114t-112 155.5t-92.5 191.5t-64 231.5t-23.5 266t23.5 266t64 231.5t92.5 191.5t112 155.5t119.5 114t117.5 75.5l18 -69q-58 -32 -117.5 -84.5
t-123.5 -139.5t-112.5 -191t-80 -248t-31.5 -302z" />
    <glyph glyph-name="parenright" unicode=")" horiz-adv-x="897" 
d="M582 645q0 158 -31.5 302t-80 248t-112.5 191t-123.5 139.5t-117.5 84.5l18 69q58 -28 117.5 -75.5t119.5 -114t112 -155.5t92.5 -191.5t64 -231.5t23.5 -266t-23.5 -266t-64 -231.5t-92.5 -191.5t-112 -155.5t-119.5 -114t-117.5 -75.5l-18 70q58 32 117.5 84.5
t123.5 139t112.5 190.5t80 248t31.5 302z" />
    <glyph glyph-name="asterisk" unicode="*" horiz-adv-x="901" 
d="M494 1212l215 -118l-33 -58l-199 131l6 -223h-65l6 223l-199 -131l-32 58l215 118l-215 117l32 57l199 -131l-6 224h65l-6 -224l199 131l33 -57z" />
    <glyph glyph-name="plus" unicode="+" horiz-adv-x="1130" 
d="M938 684v-70h-334v-352h-78v352h-333v70h333v352h78v-352h334z" />
    <glyph glyph-name="comma" unicode="," horiz-adv-x="393" 
d="M276 4q0 59 -25 92t-63 33q-36 0 -53.5 -22t-17.5 -54q37 0 59.5 -19.5t22.5 -53.5q0 -39 -14 -68.5t-26.5 -41t-31.5 -24.5l31 -49q118 81 118 207z" />
    <glyph glyph-name="hyphen" unicode="-" horiz-adv-x="819" 
d="M682 623h-545v-70h545v70z" />
    <glyph glyph-name="period" unicode="." horiz-adv-x="395" 
d="M199 -25q35 0 57.5 24t22.5 58t-22.5 57t-57.5 23t-58.5 -23t-23.5 -57t23.5 -58t58.5 -24z" />
    <glyph glyph-name="slash" unicode="/" horiz-adv-x="733" 
d="M655 1659l-655 -2028h78l655 2028h-78z" />
    <glyph glyph-name="zero" unicode="0" horiz-adv-x="1288" 
d="M645 -27q127 0 222 53.5t153.5 153t87.5 235.5t29 308t-29 308t-87.5 236.5t-153.5 154t-222 53.5t-222 -53.5t-154 -153t-88 -235.5t-29 -308t29 -308t88 -236.5t154 -154t222 -53.5zM645 47q-105 0 -184.5 49t-128 140t-72.5 213.5t-24 275.5q0 206 42 354.5t135 235
t232 86.5q140 0 233 -87.5t134 -236t41 -354.5q0 -154 -24 -276t-72.5 -212.5t-127.5 -139t-184 -48.5z" />
    <glyph glyph-name="one" unicode="1" horiz-adv-x="755" 
d="M479 70h226v-70h-596v70h284v1296q-52 -41 -182.5 -108.5t-216.5 -98.5l-14 74q106 41 224 102.5t189 118.5h86v-1384z" />
    <glyph glyph-name="two" unicode="2" horiz-adv-x="1099" 
d="M201 70h788v-70h-870v35q0 82 26 154.5t70 128.5t101.5 107t120.5 96t126 89.5t120.5 92t101.5 98.5t70 115.5t26 136.5q0 156 -90 254t-271 98q-147 0 -227.5 -57t-116.5 -183l-76 15q73 295 422 295q109 0 194.5 -32t138.5 -88.5t80.5 -131t27.5 -162.5q0 -80 -25 -151
t-68 -126t-99 -105.5t-118 -94.5t-124 -87t-119.5 -89.5t-102.5 -95.5t-73.5 -111t-32.5 -131z" />
    <glyph glyph-name="three" unicode="3" horiz-adv-x="1107" 
d="M670 758q133 -34 220 -128t87 -247q0 -180 -122.5 -294t-342.5 -114q-337 0 -422 256l74 25q28 -94 112 -152.5t238 -58.5q171 0 276 87.5t105 248.5q0 157 -109 248.5t-274 91.5h-123v70h123q65 0 124 19t106.5 56t75.5 97.5t28 136.5q0 138 -82.5 221.5t-249.5 83.5
q-147 0 -224.5 -56t-111.5 -169l-76 16q41 148 145.5 213.5t266.5 65.5q206 0 309 -102.5t103 -272.5q0 -130 -70 -216.5t-186 -125.5z" />
    <glyph glyph-name="four" unicode="4" horiz-adv-x="1067" 
d="M801 539h246v-70h-246v-469h-84v469h-701l-16 61l725 924h76v-915zM92 539h625v796z" />
    <glyph glyph-name="five" unicode="5" horiz-adv-x="1081" 
d="M502 844q217 0 343 -109.5t126 -304.5q0 -201 -115 -328t-332 -127q-325 0 -413 256l73 27q12 -41 36 -77t63.5 -67.5t101 -50t137.5 -18.5q171 0 270 100t99 281q0 159 -103 254.5t-303 95.5q-127 0 -284 -45l22 723h686v-72h-608l-20 -565q102 27 221 27z" />
    <glyph glyph-name="six" unicode="6" horiz-adv-x="1173" 
d="M635 872q206 0 317 -123t111 -319q0 -202 -113.5 -328.5t-318.5 -126.5q-227 0 -353 170t-126 521q0 387 123.5 598t373.5 211q78 0 143 -22.5t109 -61t72.5 -84.5t42.5 -99l-76 -14q-27 98 -104.5 154.5t-194.5 56.5q-195 0 -300.5 -179t-109.5 -524q63 69 169.5 119.5
t234.5 50.5zM631 45q97 0 176 40.5t129.5 129.5t50.5 215q0 171 -96 273t-260 102q-127 0 -231 -55t-167 -129q16 -576 398 -576z" />
    <glyph glyph-name="seven" unicode="7" horiz-adv-x="804" 
d="M-49 1454h874v-76q-208 -317 -368.5 -670t-257.5 -708h-86q187 677 632 1382h-794v72z" />
    <glyph glyph-name="eight" unicode="8" horiz-adv-x="1198" 
d="M750 748q164 -59 240.5 -148.5t76.5 -224.5q0 -180 -122 -290t-347 -110q-221 0 -344 98.5t-123 286.5q0 252 318 408q-122 47 -186 126t-64 206q0 170 100 272.5t299 102.5q101 0 178 -29t123.5 -80t70 -116.5t23.5 -143.5q0 -70 -21.5 -129.5t-59 -103t-77 -73
t-85.5 -52.5zM274 1110q0 -141 81.5 -209.5t267.5 -114.5q8 -2 16.5 -4.5t18.5 -5.5t14 -4q36 18 64 35t64 47t60 62.5t41 81t17 102.5q0 142 -84 222.5t-234 80.5q-157 0 -241.5 -77.5t-84.5 -215.5zM600 49q175 0 281 84.5t106 239.5q0 138 -98.5 221t-308.5 135
q-11 2 -32.5 7.5t-27.5 6.5q-309 -149 -309 -378q0 -154 105 -235t284 -81z" />
    <glyph glyph-name="nine" unicode="9" horiz-adv-x="1181" 
d="M532 1475q108 0 196 -40.5t157 -125t107 -227t38 -334.5q0 -238 -55 -409t-170.5 -267.5t-284.5 -96.5q-161 0 -257.5 74.5t-123.5 212.5l72 17q57 -232 309 -232q204 0 316 180t112 506v27q-69 -69 -178.5 -118.5t-239.5 -49.5q-199 0 -309 111.5t-110 314.5
q0 200 110 328.5t311 128.5zM530 659q132 0 239 50.5t177 128.5q-8 129 -35 229t-66 162.5t-91.5 102.5t-106 55.5t-115.5 15.5q-162 0 -253 -103t-91 -284t90 -269t252 -88z" />
    <glyph glyph-name="colon" unicode=":" horiz-adv-x="395" 
d="M199 829q35 0 57.5 24t22.5 58q0 35 -22.5 58.5t-57.5 23.5t-58.5 -23.5t-23.5 -58.5q0 -34 23.5 -58t58.5 -24zM199 -25q35 0 57.5 24t22.5 58t-22.5 57t-57.5 23t-58.5 -23t-23.5 -57t23.5 -58t58.5 -24z" />
    <glyph glyph-name="semicolon" unicode=";" horiz-adv-x="399" 
d="M199 829q35 0 57.5 24t22.5 58q0 35 -22.5 58.5t-57.5 23.5t-58.5 -23.5t-23.5 -58.5q0 -34 23.5 -58t58.5 -24zM276 4q0 59 -25 92t-63 33q-36 0 -53.5 -22t-17.5 -54q37 0 59.5 -19.5t22.5 -53.5q0 -39 -14 -68.5t-26.5 -41t-31.5 -24.5l31 -49q118 81 118 207z" />
    <glyph glyph-name="less" unicode="&#x3c;" horiz-adv-x="1177" 
d="M944 1028l-678 -379l678 -379l-4 -73l-747 419v66l747 420z" />
    <glyph glyph-name="equal" unicode="=" horiz-adv-x="1245" 
d="M1053 866h-860v-67h860v67zM1053 498h-860v-68h860v68z" />
    <glyph glyph-name="greater" unicode="&#x3e;" horiz-adv-x="1177" 
d="M238 1102l747 -420v-66l-747 -419l-5 73l680 379l-680 379z" />
    <glyph glyph-name="question" unicode="?" horiz-adv-x="1003" 
d="M111 1247l69 -18q49 176 248 176q156 0 230.5 -81t74.5 -220q0 -45 -7 -85t-22 -74.5t-30.5 -62.5t-42.5 -56t-47 -47.5t-54.5 -43.5t-55 -38t-58 -37.5t-54.5 -34.5l11 -224h67l9 201q14 10 49.5 33t58.5 38.5t59 44t60 54t51.5 63.5t44.5 77.5t28 91t11 108.5
q0 170 -96.5 266.5t-282.5 96.5q-128 0 -205 -53t-116 -175zM408 -25q35 0 58 24t23 58t-23 57t-58 23t-58.5 -23t-23.5 -57t23.5 -58t58.5 -24z" />
    <glyph glyph-name="at" unicode="@" horiz-adv-x="2213" 
d="M1133 1460q411 0 649.5 -235t238.5 -652q0 -573 -348 -573q-105 0 -168 49.5t-86 161.5q-45 -96 -140 -153.5t-230 -57.5q-178 0 -287 126t-109 349q0 234 122.5 371t322.5 137q193 0 313 -106l10 86h64v-648q0 -133 51 -190t145 -57q63 0 110.5 25.5t84 83t55.5 157
t19 239.5q0 378 -219.5 599t-597.5 221q-189 0 -348 -59.5t-274.5 -170t-180 -277t-64.5 -370.5q0 -134 22 -248t61.5 -199.5t95.5 -153.5t121 -113.5t142 -75.5t155 -43t163 -13q161 0 272.5 35t169.5 74l9 -72q-161 -102 -449 -102q-139 0 -260.5 30.5t-228 100
t-182.5 173.5t-120 259t-44 348q0 224 72 404.5t199 297.5t297.5 179.5t371.5 62.5zM1061 70q152 0 249 84t97 241v408q-118 110 -299 110q-171 0 -273 -113.5t-102 -324.5q0 -197 88.5 -301t239.5 -104z" />
    <glyph glyph-name="A" unicode="A" horiz-adv-x="1435" 
d="M1251 68q44 -13 146 -13l-4 -61q-33 -10 -97 -10q-53 0 -80 15.5t-45 61.5l-153 388h-735l-179 -449h-84l582 1448l92 18zM309 520h682l-342 862z" />
    <glyph glyph-name="B" unicode="B" horiz-adv-x="1286" 
d="M893 768q144 -37 234 -129.5t90 -241.5q0 -397 -498 -397h-492v1382h-172v62q92 16 148 16q60 0 86 -26q164 41 303 41q276 0 409.5 -101.5t133.5 -286.5q0 -245 -242 -319zM1053 1079q0 155 -108 239.5t-353 84.5q-125 0 -283 -25v-587h348q396 0 396 288zM713 74
q221 0 321.5 79t100.5 244q0 152 -111 237t-299 85h-416v-645h404z" />
    <glyph glyph-name="C" unicode="C" horiz-adv-x="1417" 
d="M834 49q-282 0 -447.5 177.5t-165.5 492.5q0 167 41.5 297.5t116.5 215t177.5 128t227.5 43.5q221 0 335.5 -99t119.5 -270l82 8q0 91 -34 169t-100 137.5t-170.5 93t-236.5 33.5q-143 0 -261 -50t-203 -145t-132 -239t-47 -324q0 -351 187 -546.5t503 -195.5
q99 0 185.5 14t145 37.5t94 42.5t61.5 40l-21 73q-173 -133 -458 -133z" />
    <glyph glyph-name="D" unicode="D" horiz-adv-x="1519" 
d="M627 1475q186 0 332 -58t237.5 -160.5t138.5 -237.5t47 -294q0 -158 -47.5 -290t-138.5 -229t-233.5 -151.5t-323.5 -54.5h-412v1382h-172v62q92 16 148 16q60 0 86 -26q139 41 338 41zM637 74q169 0 298 50.5t207 140t117 205.5t39 255q0 111 -24 209.5t-76.5 184.5
t-129.5 148.5t-190 98t-251 35.5q-176 0 -318 -25v-1302h328z" />
    <glyph glyph-name="E" unicode="E" horiz-adv-x="1153" 
d="M283 696v-622h794v-74h-878v1454h878l-10 -72h-784v-614h733v-72h-733z" />
    <glyph glyph-name="F" unicode="F" horiz-adv-x="1060" 
d="M1026 1384l-743 -2v-614h690v-72h-690v-696h-84v1454h835z" />
    <glyph glyph-name="G" unicode="G" horiz-adv-x="1572" 
d="M1368 741q47 0 47 -45v-696h-61l-8 281q-66 -154 -205 -230t-328 -76q-315 0 -495.5 199t-180.5 551q0 363 187.5 556.5t506.5 193.5q227 0 366.5 -104t162.5 -290l-82 -16q-17 156 -136 247t-311 91q-286 0 -448 -179.5t-162 -498.5q0 -318 159 -497t439 -179
q111 0 203.5 29t164.5 88t112 158t40 229v121h-487v67h516z" />
    <glyph glyph-name="H" unicode="H" horiz-adv-x="1527" 
d="M1292 63q66 -8 160 -8l-4 -61q-48 -10 -127 -10q-57 0 -84 19.5t-27 68.5v600h-927v-672h-84v1454h84v-706h927v706h82v-1391z" />
    <glyph glyph-name="I" unicode="I" horiz-adv-x="481" 
d="M199 1454v-1454h84v1454h-84z" />
    <glyph glyph-name="J" unicode="J" horiz-adv-x="905" 
d="M707 1454h-82v-1108q0 -158 -69 -227.5t-214 -69.5q-165 0 -285 57l-8 -73q43 -18 71.5 -27.5t90.5 -20t133 -10.5q181 0 272 87t91 276v1116z" />
    <glyph glyph-name="K" unicode="K" horiz-adv-x="1249" 
d="M1022 131q34 -53 68 -64.5t141 -11.5l-4 -61q-33 -8 -90 -8q-64 0 -101 18t-71 70l-392 598h-290v-672h-84v1454h84v-706h290l555 716l84 -16l-577 -737z" />
    <glyph glyph-name="L" unicode="L" horiz-adv-x="1067" 
d="M283 76h766v-76h-850v1454h84v-1378z" />
    <glyph glyph-name="M" unicode="M" horiz-adv-x="1845" 
d="M1626 63q66 -8 143 -8l-4 -61q-48 -10 -116 -10q-57 0 -80.5 18.5t-24.5 69.5l-33 1257l-553 -1139h-84l-555 1139l-36 -1329h-84l39 1448l104 18l573 -1187l568 1175h110z" />
    <glyph glyph-name="N" unicode="N" horiz-adv-x="1497" 
d="M1217 1454h81v-1454h-73l-944 1319v-1319h-82v1448l75 18l943 -1323v1311z" />
    <glyph glyph-name="O" unicode="O" horiz-adv-x="1630" 
d="M815 -25q156 0 284.5 57t214 157t132.5 237.5t47 298.5t-47 298.5t-132.5 237.5t-214 157t-284.5 57t-284.5 -57t-214 -157t-132.5 -237.5t-47 -298.5t47 -298.5t132.5 -237.5t214 -157t284.5 -57zM815 49q-273 0 -433.5 186.5t-160.5 489.5t161 489.5t433 186.5
q273 0 433.5 -186.5t160.5 -489.5t-160.5 -489.5t-433.5 -186.5z" />
    <glyph glyph-name="P" unicode="P" horiz-adv-x="1155" 
d="M598 1475q252 0 385 -122.5t133 -340.5q0 -215 -135.5 -327t-398.5 -112h-273v-573h-82v1382h-172v62q92 16 148 16q60 0 86 -26q144 41 309 41zM586 645q237 0 343.5 92t106.5 275q0 186 -106.5 288.5t-331.5 102.5q-131 0 -289 -25v-733h277z" />
    <glyph glyph-name="Q" unicode="Q" horiz-adv-x="1630" 
d="M1055 -70q84 -129 141.5 -179t142.5 -50q69 0 123 14l-4 -69q-73 -15 -133 -15q-100 0 -169 50.5t-148 179.5l-78 123q-56 -9 -115 -9q-156 0 -284.5 57t-214 157t-132.5 237.5t-47 298.5t47 298.5t132.5 237.5t214 157t284.5 57t284.5 -57t214 -157t132.5 -237.5
t47 -298.5q0 -271 -128.5 -467t-354.5 -258zM221 725q0 -303 160.5 -489.5t433.5 -186.5t433.5 186.5t160.5 489.5t-160.5 489.5t-433.5 186.5q-272 0 -433 -186.5t-161 -489.5z" />
    <glyph glyph-name="R" unicode="R" horiz-adv-x="1323" 
d="M1073 133q33 -53 69 -65.5t144 -12.5l-8 -61q-36 -8 -92 -8q-62 0 -104 22.5t-81 85.5l-337 537h-355v-631h-82v1382h-172v62q92 16 148 16q60 0 86 -26q134 41 329 41q276 0 413.5 -114t137.5 -325q0 -191 -108.5 -292.5t-304.5 -112.5zM309 1376v-674h404
q372 0 372 338q0 363 -471 363q-152 0 -305 -27z" />
    <glyph glyph-name="S" unicode="S" 
d="M203 1094q0 152 91.5 231.5t276.5 79.5q187 0 285 -64.5t123 -201.5l78 16q-26 158 -141.5 239t-344.5 81q-215 0 -331.5 -98.5t-116.5 -284.5q0 -90 31 -157t83 -107t120 -67.5t142.5 -45t149.5 -33.5t143 -39.5t120 -56.5t83 -90t31 -136q0 -83 -31 -144t-88.5 -97
t-132 -53t-168.5 -17q-141 0 -269.5 43t-203.5 94l-12 -82q216 -129 485 -129q254 0 378 101t124 289q0 90 -31 157t-83.5 106.5t-120 67.5t-142.5 45.5t-150.5 34t-143 39.5t-120 56t-83.5 89.5t-31 133.5z" />
    <glyph glyph-name="T" unicode="T" horiz-adv-x="1120" 
d="M1104 1454v-76h-502v-1378h-84v1378h-500v66q110 10 295 10h791z" />
    <glyph glyph-name="U" unicode="U" horiz-adv-x="1490" 
d="M1305 1454h-84v-905q0 -253 -117 -377.5t-352 -124.5q-231 0 -343 124.5t-112 381.5v807q0 53 -23 75.5t-77 22.5q-89 0 -154 -14v-60h172v-831q0 -293 130.5 -435.5t406.5 -142.5q553 0 553 574v905z" />
    <glyph glyph-name="V" unicode="V" horiz-adv-x="1363" 
d="M1268 1466l82 -18l-584 -1448h-98l-525 1384h-149v60q70 16 127 16q49 0 72.5 -16t37.5 -55l486 -1299z" />
    <glyph glyph-name="W" unicode="W" horiz-adv-x="1974" 
d="M1868 1466l82 -18l-453 -1448h-94l-365 1333l-364 -1333h-94l-426 1384h-150v60q67 16 129 16q49 0 74.5 -18.5t40.5 -69.5l379 -1257l364 1339h94l365 -1341z" />
    <glyph glyph-name="X" unicode="X" horiz-adv-x="1382" 
d="M1194 68q40 -13 143 -13l-4 -61q-30 -10 -94 -10q-52 0 -79.5 18t-65.5 78l-394 606l-479 -686h-96l526 739l-442 645h-164v60q61 16 117 16q91 0 131 -61l409 -611l461 682l84 -18l-493 -713z" />
    <glyph glyph-name="Y" unicode="Y" horiz-adv-x="1241" 
d="M1149 1466l78 -18l-539 -842v-606h-82v606l-463 778h-149v60q48 16 108 16q55 0 79 -14.5t55 -67.5l411 -702z" />
    <glyph glyph-name="Z" unicode="Z" horiz-adv-x="1247" 
d="M1171 1393l-966 -1319h958v-74h-1052l-11 59l967 1323h-938v62q118 10 258 10h774z" />
    <glyph glyph-name="bracketleft" unicode="[" horiz-adv-x="729" 
d="M612 1589h-301v-1888h301v-70h-379v2028h379v-70z" />
    <glyph glyph-name="backslash" unicode="\" horiz-adv-x="733" 
d="M78 1659h-78l655 -2028h78z" />
    <glyph glyph-name="bracketright" unicode="]" horiz-adv-x="729" 
d="M496 1659v-2028h-379v70h301v1888h-301v70h379z" />
    <glyph glyph-name="underscore" unicode="_" horiz-adv-x="942" 
d="M825 0h-708v-70h708v70z" />
    <glyph glyph-name="grave" unicode="`" horiz-adv-x="761" 
d="M326 1460l-93 -8l224 -326h71z" />
    <glyph glyph-name="a" unicode="a" horiz-adv-x="1157" 
d="M928 63q68 -10 153 -10l-4 -61q-49 -6 -112 -6q-60 0 -86.5 27.5t-26.5 90.5v117q-58 -115 -164.5 -180.5t-243.5 -65.5q-145 0 -228 77.5t-83 209.5q0 140 101.5 221.5t304.5 81.5q169 0 313 -39v99q0 148 -77 229.5t-228 81.5q-140 0 -214 -58t-93 -176l-78 15
q14 66 40 115.5t70.5 89.5t113.5 61t161 21q186 0 283.5 -97.5t97.5 -277.5v-566zM459 43q109 0 200.5 53.5t142 137t50.5 174.5v57q-146 37 -309 37q-332 0 -332 -242q0 -105 65 -161t183 -56z" />
    <glyph glyph-name="b" unicode="b" horiz-adv-x="1173" 
d="M584 1004q212 0 325 -134t113 -385q0 -235 -127 -372.5t-373 -137.5q-221 0 -350 107v1372h78v-639q45 87 129.5 138t204.5 51zM528 45q199 0 306.5 114.5t107.5 329.5q0 211 -90 328t-270 117q-65 0 -120 -18t-93.5 -49t-65.5 -71t-40 -83.5t-13 -87.5v-500
q99 -80 278 -80z" />
    <glyph glyph-name="c" unicode="c" horiz-adv-x="1122" 
d="M963 180q-23 -20 -37.5 -32t-50 -34t-69.5 -35t-86.5 -23.5t-109.5 -10.5q-176 0 -277.5 113t-101.5 331q0 203 98.5 324t270.5 121q266 0 291 -258l76 10q-11 146 -101.5 232t-261.5 86q-214 0 -333 -144t-119 -375q0 -253 123 -381.5t333 -128.5q75 0 138 12.5
t109.5 36.5t72 41.5t55.5 43.5z" />
    <glyph glyph-name="d" unicode="d" horiz-adv-x="1198" 
d="M987 63q62 -10 156 -10l-4 -61q-43 -6 -117 -6q-59 0 -86 30t-27 111v49q-49 -88 -138.5 -144.5t-215.5 -56.5q-182 0 -292.5 131.5t-110.5 372.5q0 244 122 384.5t328 140.5q189 0 307 -89v539h78v-1391zM565 45q147 0 245.5 93.5t98.5 213.5v486q-124 96 -305 96
q-172 0 -272.5 -125.5t-100.5 -329.5q0 -113 27 -198.5t74.5 -136t106 -75t126.5 -24.5z" />
    <glyph glyph-name="e" unicode="e" horiz-adv-x="1128" 
d="M231 473q6 -428 387 -428q114 0 200 36t122 69l21 -68q-46 -40 -139 -73.5t-212 -33.5q-223 0 -340.5 132t-117.5 387q0 237 115.5 373.5t312.5 136.5q129 0 220.5 -64t134 -167.5t42.5 -235.5v-64h-746zM580 934q-147 0 -242 -100.5t-107 -296.5h670q-1 189 -89.5 293
t-231.5 104z" />
    <glyph glyph-name="f" unicode="f" horiz-adv-x="671" 
d="M492 1403q-181 0 -181 -201v-219h340v-65h-340v-918h-78v918h-198v65h198v221q0 271 250 271q107 0 189 -35l-8 -70q-68 33 -172 33z" />
    <glyph glyph-name="g" unicode="g" horiz-adv-x="1071" 
d="M768 154q133 -1 200.5 -68t67.5 -168q0 -136 -117 -221.5t-341 -85.5q-236 0 -341.5 68t-105.5 206q0 140 152 228q-99 45 -99 145q0 120 148 207q-121 80 -121 235q0 133 94 218.5t262 85.5q132 0 217 -54q29 89 90 133t164 50l13 -72q-90 -5 -142.5 -39t-77.5 -104
q93 -87 93 -216q0 -133 -94 -217t-263 -84q-113 0 -188 37q-69 -42 -97 -79.5t-28 -84.5q0 -64 43.5 -91t138.5 -27zM285 700q0 -114 75 -176.5t207 -62.5q131 0 207 62.5t76 176.5q0 116 -76 180t-207 64q-132 0 -207 -64t-75 -180zM582 -322q184 0 280 65.5t96 162.5
q0 85 -54.5 133.5t-158.5 48.5h-335q-40 0 -58 4q-143 -72 -143 -203q0 -104 84 -157.5t289 -53.5z" />
    <glyph glyph-name="h" unicode="h" horiz-adv-x="1216" 
d="M987 61q52 -8 154 -8l-4 -61q-93 -6 -115 -6q-65 0 -89 20t-24 78v512q0 336 -301 336q-151 0 -254.5 -104t-103.5 -234v-594h-78v1454h78v-676q49 101 145.5 163.5t229.5 62.5q185 0 273.5 -105.5t88.5 -298.5v-539z" />
    <glyph glyph-name="i" unicode="i" horiz-adv-x="421" 
d="M156 1241q28 0 46.5 19.5t18.5 48.5q0 28 -18.5 46.5t-46.5 18.5t-47 -18.5t-19 -46.5q0 -29 19 -48.5t47 -19.5zM195 61v922h-78v-899q0 -56 24 -77t86 -21q40 0 115 6l4 61q-99 0 -151 8z" />
    <glyph glyph-name="j" unicode="j" horiz-adv-x="446" 
d="M250 1241q28 0 46.5 19.5t18.5 48.5q0 28 -18.5 46.5t-46.5 18.5t-47 -18.5t-19 -46.5q0 -29 19 -48.5t47 -19.5zM289 983h-78v-1194q0 -57 -27 -82.5t-86 -25.5q-50 0 -98 20l-6 -68q38 -22 115 -22q94 0 137 44t43 136v1192z" />
    <glyph glyph-name="k" unicode="k" horiz-adv-x="995" 
d="M819 74q43 -21 152 -21l-4 -61q-75 -6 -99 -6q-48 0 -76 14.5t-51 52.5l-292 459l-199 -199v-313h-78v1454h78v-1046l584 585l84 -10l-416 -418z" />
    <glyph glyph-name="l" unicode="l" horiz-adv-x="487" 
d="M172 1454v-1366q0 -57 27.5 -79.5t105.5 -22.5q53 0 123 8l4 59q-143 0 -182 15v1386h-78z" />
    <glyph glyph-name="m" unicode="m" horiz-adv-x="1839" 
d="M1612 61q49 -8 151 -8l-4 -61q-87 -6 -114 -6q-65 0 -88 19.5t-23 76.5v526q0 150 -68.5 237t-212.5 87q-90 0 -162.5 -49.5t-109.5 -122.5t-37 -150v-610h-78l4 604q-7 328 -280 328q-68 0 -127 -29t-98 -75t-61.5 -103.5t-22.5 -114.5v-610h-78v903q-22 16 -48 20.5
t-79 4.5l2 59q30 10 67 10q65 0 100.5 -33t35.5 -112v-53q44 92 126.5 148.5t194.5 56.5q131 0 213.5 -65t112.5 -179q39 107 126.5 175.5t209.5 68.5q171 0 259.5 -106.5t88.5 -295.5v-541z" />
    <glyph glyph-name="n" unicode="n" horiz-adv-x="1247" 
d="M1020 61q49 -8 151 -8l-4 -61q-93 -6 -114 -6q-65 0 -88 19.5t-23 74.5v516q0 336 -303 336q-151 0 -254.5 -104t-103.5 -234v-594h-78v903q-22 16 -48.5 20.5t-78.5 4.5l2 59q35 10 67 10q136 0 136 -139v-80q49 101 145.5 163.5t230.5 62.5q185 0 274 -105.5t89 -298.5
v-539z" />
    <glyph glyph-name="o" unicode="o" horiz-adv-x="1230" 
d="M152 487q0 -241 127.5 -376.5t336.5 -135.5t336 135.5t127 376.5q0 242 -127.5 379.5t-335.5 137.5q-209 0 -336.5 -136.5t-127.5 -380.5zM231 487q0 210 104 328.5t281 118.5q176 0 280.5 -118.5t104.5 -328.5q0 -209 -104.5 -325.5t-280.5 -116.5q-177 0 -281 116.5
t-104 325.5z" />
    <glyph glyph-name="p" unicode="p" horiz-adv-x="1206" 
d="M621 1004q209 0 321.5 -133t112.5 -375q0 -247 -124.5 -384t-363.5 -137q-170 0 -284 64v-408h-78v1272q-34 25 -129 25l2 59q30 10 69 10q61 0 98.5 -36.5t37.5 -110.5v-39q44 88 130 140.5t208 52.5zM567 45q194 0 301 113.5t107 335.5q0 213 -91 326.5t-270 113.5
q-76 0 -140 -27t-105 -71.5t-63.5 -99t-22.5 -111.5v-508q120 -72 284 -72z" />
    <glyph glyph-name="q" unicode="q" horiz-adv-x="1171" 
d="M629 1004q235 0 370 -97v-1276h-77v535q-49 -85 -143 -138t-222 -53q-184 0 -294.5 127.5t-110.5 370.5q0 245 128 388t349 143zM575 45q80 0 148 27.5t110 70t65.5 91.5t23.5 96v540q-118 64 -293 64q-185 0 -291.5 -121t-106.5 -338q0 -214 93.5 -322t250.5 -108z" />
    <glyph glyph-name="r" unicode="r" horiz-adv-x="647" 
d="M549 1004q35 0 74 -11l-7 -78q-27 9 -69 9q-61 0 -113 -38.5t-84 -97.5t-49.5 -122.5t-17.5 -118.5v-547h-78v903q-36 25 -129 25l2 59q35 10 72 10q57 0 95 -36.5t38 -114.5v-84q41 111 111 176.5t155 65.5z" />
    <glyph glyph-name="s" unicode="s" horiz-adv-x="1069" 
d="M506 1004q-178 0 -266 -77.5t-88 -197.5q0 -81 38 -135t98.5 -79t134 -40t147 -27.5t134 -32t98.5 -62t38 -109.5q0 -96 -71.5 -147.5t-236.5 -51.5q-213 0 -360 107l-14 -74q147 -103 377 -103q383 0 383 275q0 80 -38 132.5t-98.5 77.5t-134 40t-146.5 27.5
t-133.5 31.5t-98.5 61.5t-38 108.5q0 93 65.5 149t215.5 56q147 0 218 -54t81 -137l76 15q-2 31 -13 62t-38.5 65t-68.5 59.5t-108.5 42.5t-152.5 17z" />
    <glyph glyph-name="t" unicode="t" horiz-adv-x="632" 
d="M633 918h-336v-713q0 -92 35.5 -126t103.5 -34q84 0 160 33l6 -70q-85 -33 -174 -33q-104 0 -156.5 49.5t-52.5 182.5v711h-184v65h184v287h78v-287h336v-65z" />
    <glyph glyph-name="u" unicode="u" 
d="M997 63q58 -10 152 -10l-4 -61q-54 -6 -103 -6q-63 0 -92.5 27t-29.5 98v112q-56 -118 -160.5 -183t-245.5 -65q-165 0 -238 87.5t-73 295.5v545q-40 25 -127 25l2 59q32 8 72 8q69 0 100 -30.5t31 -98.5v-495q0 -176 57 -250t197 -74q92 0 167.5 36t121.5 92.5t71 121.5
t25 129v557h77v-920z" />
    <glyph glyph-name="v" unicode="v" horiz-adv-x="980" 
d="M883 993l78 -12l-408 -981h-78l-352 909q-36 15 -133 15l2 59q35 10 76 10q57 0 88 -20.5t51 -73.5l307 -811z" />
    <glyph glyph-name="w" unicode="w" horiz-adv-x="1460" 
d="M1352 993l78 -12l-320 -981h-72l-274 881l-272 -881h-72l-299 909q-41 15 -131 15l2 61q48 8 84 8q55 0 84.5 -22.5t46.5 -77.5l250 -795l266 885h82l268 -891z" />
    <glyph glyph-name="x" unicode="x" horiz-adv-x="1060" 
d="M881 70q38 -17 125 -17l-5 -61q-24 -8 -77 -8q-70 0 -109 53l-280 416l-328 -453h-84l358 494l-297 419q-56 11 -129 11l2 61q46 8 84 8q40 0 65 -11.5t54 -51.5l275 -395l335 458l78 -10l-360 -491z" />
    <glyph glyph-name="y" unicode="y" horiz-adv-x="1005" 
d="M903 993l82 -12l-489 -1196q-36 -89 -96 -131.5t-160 -42.5q-50 0 -123 22l-8 74q81 -26 131 -26q73 0 117 27t71 97l78 193l-400 911q-34 15 -96 15l2 61q32 8 62 8q44 0 71 -20t48 -70l352 -811z" />
    <glyph glyph-name="z" unicode="z" horiz-adv-x="958" 
d="M883 913l-717 -845h717v-68h-797l-10 70l717 845h-678v68h757z" />
    <glyph glyph-name="braceleft" unicode="{" horiz-adv-x="847" 
d="M551 1593q-162 0 -162 -157q0 -59 21.5 -139t48 -146.5t48 -147t21.5 -139.5q0 -82 -34 -134t-107 -85q73 -33 107 -85t34 -134q0 -59 -21.5 -139.5t-48 -147t-48 -146t-21.5 -138.5q0 -158 162 -158h180v-66h-188q-230 0 -230 217q0 64 22 146t49 147.5t49 145.5t22 141
q0 83 -46.5 132.5t-129.5 49.5h-46v70h46q83 0 129.5 49.5t46.5 132.5q0 61 -22 141t-49 145.5t-49 147.5t-22 146q0 217 230 217h188v-66h-180z" />
    <glyph glyph-name="bar" unicode="|" horiz-adv-x="544" 
d="M233 1659v-2028h78v2028h-78z" />
    <glyph glyph-name="braceright" unicode="}" horiz-adv-x="847" 
d="M569 680h45v-70h-45q-83 0 -129.5 -49.5t-46.5 -132.5q0 -61 22.5 -141t49.5 -145.5t49.5 -147.5t22.5 -146q0 -217 -230 -217h-190v66h180q162 0 162 158q0 59 -21.5 138.5t-47 146t-47 147t-21.5 139.5q0 83 33.5 135t105.5 84q-72 32 -105.5 84t-33.5 135
q0 59 21.5 139.5t47 147t47 146.5t21.5 139q0 157 -162 157h-180v66h190q230 0 230 -217q0 -64 -22.5 -146t-49.5 -147.5t-49.5 -145.5t-22.5 -141q0 -83 46.5 -132.5t129.5 -49.5z" />
    <glyph glyph-name="asciitilde" unicode="~" horiz-adv-x="1130" 
d="M938 768q-9 -92 -51 -139t-125 -47q-66 0 -200.5 34.5t-196.5 34.5q-101 0 -113 -129l-59 10q9 90 51 137.5t125 47.5q66 0 200.5 -35t196.5 -35q53 0 80 29.5t33 99.5z" />
    <glyph glyph-name="exclamdown" unicode="&#xa1;" horiz-adv-x="395" 
d="M199 868q35 0 57.5 23t22.5 57q0 35 -22.5 58.5t-57.5 23.5t-58.5 -23.5t-23.5 -58.5q0 -34 23.5 -57t58.5 -23zM154 -369h90l-11 1004h-71z" />
    <glyph glyph-name="cent" unicode="&#xa2;" horiz-adv-x="1107" 
d="M971 346q-146 -131 -367 -133l-4 -213h-68l5 215q-187 18 -293.5 148.5t-106.5 371.5q0 230 111.5 375.5t312.5 155.5l4 209h68l-4 -211q152 -9 234 -94t91 -222l-75 -10q-22 238 -252 256l-21 -911q68 1 126 15t101.5 38.5t66 41t50.5 40.5zM217 739q0 -206 85.5 -320
t236.5 -132l20 907q-161 -9 -251.5 -131.5t-90.5 -323.5z" />
    <glyph glyph-name="sterling" unicode="&#xa3;" horiz-adv-x="1159" 
d="M379 596v-522h635v-74h-877v74h158v522h-158v74h158v389q0 188 102.5 302t302.5 114q179 0 322 -93l-25 -73q-148 92 -297 92q-151 0 -236 -88t-85 -266v-377h463v-74h-463z" />
    <glyph glyph-name="currency" unicode="&#xa4;" horiz-adv-x="1392" 
d="M1163 733q0 -208 -129 -340l221 -233l-43 -43l-223 235q-129 -96 -293 -96q-167 0 -293 96l-223 -235l-43 43l219 233q-127 134 -127 340q0 210 127 344l-219 234l43 43l223 -236q126 96 293 96t291 -98l225 238l43 -43l-221 -236q129 -132 129 -342zM307 733
q0 -186 110 -295.5t279 -109.5q168 0 278.5 109.5t110.5 295.5q0 190 -110.5 300t-278.5 110q-169 0 -279 -110t-110 -300z" />
    <glyph glyph-name="yen" unicode="&#xa5;" horiz-adv-x="1384" 
d="M1192 1454l-459 -772h379v-64h-379v-202h379v-64h-379v-352h-82v352h-379v64h379v202h-379v64h379l-458 772h83l416 -706l416 706h84z" />
    <glyph glyph-name="brokenbar" unicode="&#xa6;" horiz-adv-x="544" 
d="M233 1659v-819h78v819h-78zM233 451v-820h78v820h-78z" />
    <glyph glyph-name="section" unicode="&#xa7;" horiz-adv-x="1255" 
d="M760 256q66 -20 113.5 -42t91 -56t66 -84t22.5 -115q0 -151 -104.5 -231t-311.5 -80q-244 0 -416 127l8 80q177 -136 410 -136q336 0 336 242q0 57 -26.5 101t-71.5 71.5t-103 48.5t-122.5 37.5t-129 33.5t-122.5 41.5t-103 57t-71.5 84t-26.5 117.5q0 61 23.5 112
t66 86.5t93.5 60t114 40.5q-65 20 -112 44t-90 61t-65 92t-22 127q0 152 108.5 246t315.5 94q357 0 413 -304l-77 -16q-24 129 -102.5 189.5t-233.5 60.5q-160 0 -253 -68.5t-93 -199.5q0 -65 26 -114.5t70.5 -80.5t101.5 -54t120.5 -40.5t127 -34.5t120.5 -41t101.5 -55.5
t70.5 -82.5t26 -118q0 -222 -289 -301zM276 555q0 -36 11.5 -67t28 -53t47 -42.5t56.5 -33.5t70 -27t73.5 -22t80.5 -21q11 -3 16 -4q71 17 122.5 37t97 50.5t69 76t23.5 104.5q0 50 -19.5 89.5t-48.5 64.5t-77.5 46t-90.5 33.5t-103 28.5q-21 5 -32 8q-324 -58 -324 -268z
" />
    <glyph glyph-name="dieresis" unicode="&#xa8;" horiz-adv-x="862" 
d="M295 1245q26 0 42.5 17.5t16.5 44.5q0 26 -16.5 43.5t-42.5 17.5t-44 -17.5t-18 -43.5t18 -44t44 -18zM567 1245q27 0 44.5 17.5t17.5 44.5t-17.5 44t-44.5 17q-26 0 -42.5 -17.5t-16.5 -43.5q0 -27 16.5 -44.5t42.5 -17.5z" />
    <glyph glyph-name="copyright" unicode="&#xa9;" horiz-adv-x="2148" 
d="M137 672q0 -223 71 -405.5t196.5 -303t297.5 -185.5t373 -65t372 65t296.5 185.5t196.5 303t71 405.5t-70.5 405t-196 302.5t-297 185.5t-372.5 65q-203 0 -374 -64t-297 -183.5t-196.5 -302t-70.5 -408.5zM213 672q0 209 65 378.5t180 281t273 171.5t344 60t344 -60
t273 -171.5t180 -281t65 -378.5t-65 -378.5t-180 -281t-273 -171.5t-344 -60t-344 60t-273 171.5t-180 281t-65 378.5zM1436 362q-28 -25 -51 -41.5t-68 -41.5t-104.5 -38.5t-129.5 -13.5q-176 0 -278.5 113.5t-102.5 331.5q0 203 99 323.5t272 120.5q266 0 291 -258l76 10
q-11 146 -101.5 232t-261.5 86q-214 0 -333 -143.5t-119 -374.5q0 -253 123 -381.5t333 -128.5q75 0 138 12.5t108.5 35.5t72 41.5t54.5 43.5z" />
    <glyph glyph-name="ordfeminine" unicode="&#xaa;" horiz-adv-x="843" 
d="M680 825q43 -6 106 -6l-2 -53q-23 -2 -79 -2q-50 0 -69.5 21t-19.5 75v58q-41 -76 -113 -119t-167 -43q-101 0 -160 54t-59 146q0 100 71 156.5t213 56.5q122 0 215 -26v67q0 99 -52.5 154t-153.5 55q-95 0 -145 -39.5t-62 -117.5l-66 12q20 96 83.5 148.5t189.5 52.5
q133 0 201.5 -68.5t68.5 -196.5v-385zM350 809q111 0 188.5 75.5t77.5 172.5v39q-117 26 -204 26q-230 0 -230 -166q0 -71 44 -109t124 -38z" />
    <glyph glyph-name="guillemotleft" unicode="&#xab;" horiz-adv-x="901" 
d="M473 881l-315 -299l315 -269l-47 -47l-346 305v17l348 342zM743 881l-313 -299l313 -269l-47 -47l-346 305v17l348 342z" />
    <glyph glyph-name="registered" unicode="&#xae;" horiz-adv-x="1134" 
d="M567 1491q188 0 306 -112.5t118 -305.5t-118 -305.5t-306 -112.5t-306 112.5t-118 305.5t118 305.5t306 112.5zM567 696q165 0 271 97t106 280t-106 280t-271 97t-271 -97t-106 -280t106 -280t271 -97zM700 903q10 -17 26 -24t54 -7v-34q-21 -7 -37 -7q-28 0 -45.5 9
t-35.5 37l-84 147h-105v-186h-53v432h-49v41h209q83 0 126.5 -37.5t43.5 -106.5q0 -57 -31 -92.5t-90 -46.5zM473 1270v-205h102q119 0 119 102q0 103 -119 103h-102z" />
    <glyph glyph-name="macron" unicode="&#xaf;" horiz-adv-x="1052" 
d="M233 1319v-66h586v66h-586z" />
    <glyph glyph-name="degree" unicode="&#xb0;" horiz-adv-x="800" 
d="M399 987q108 0 176 67t68 171q0 103 -68 170t-176 67t-174.5 -66.5t-66.5 -170.5t66.5 -171t174.5 -67zM399 1047q-82 0 -130 48t-48 130t48 131t130 49q83 0 131 -49t48 -131t-48 -130t-131 -48z" />
    <glyph glyph-name="plusminus" unicode="&#xb1;" horiz-adv-x="1175" 
d="M526 250v354h-333v68h333v354h78v-354h334v-68h-334v-354h-78zM193 72h790v-72h-790v72z" />
    <glyph glyph-name="acute" unicode="&#xb4;" horiz-adv-x="761" 
d="M436 1460l-203 -334h72l223 326z" />
    <glyph glyph-name="paragraph" unicode="&#xb6;" horiz-adv-x="1177" 
d="M676 707v632q0 75 -28 105.5t-107 30.5q-163 0 -263 -100.5t-100 -282.5q0 -186 110 -285.5t312 -99.5h76zM885 1475q-54 0 -77.5 -23t-23.5 -76v-1581h84v1606h172v59q-66 15 -155 15z" />
    <glyph glyph-name="periodcentered" unicode="&#xb7;" horiz-adv-x="395" 
d="M199 530q35 0 57.5 24t22.5 58t-22.5 57t-57.5 23t-58.5 -23t-23.5 -57t23.5 -58t58.5 -24z" />
    <glyph glyph-name="cedilla" unicode="&#xb8;" horiz-adv-x="741" 
d="M334 -74l16 86h-49l-29 -129q94 0 132 -20t38 -70q0 -125 -198 -125l-11 -59q137 0 206 44.5t69 143.5q0 66 -46.5 97.5t-127.5 31.5z" />
    <glyph glyph-name="ordmasculine" unicode="&#xba;" horiz-adv-x="888" 
d="M117 1114q0 -169 89.5 -263.5t237.5 -94.5t238 94.5t90 263.5t-90 265t-238 96t-237.5 -95.5t-89.5 -265.5zM186 1114q0 141 69.5 221t188.5 80t188.5 -80t69.5 -221q0 -143 -69 -221t-189 -78t-189 78t-69 221z" />
    <glyph glyph-name="guillemotright" unicode="&#xbb;" horiz-adv-x="901" 
d="M551 588v-17l-346 -305l-47 47l313 269l-313 299l45 49zM473 930l348 -342v-17l-346 -305l-47 47l313 269l-313 299z" />
    <glyph glyph-name="onequarter" unicode="&#xbc;" horiz-adv-x="1691" 
d="M1382 1475l80 -7l-1052 -1493l-80 7zM250 739h190v660q-31 -21 -114.5 -54t-149.5 -53l-12 58q184 58 276 116h70v-727h149v-55h-409v55zM1427 299h142v-55h-142v-244h-65v244h-395l-15 49l414 489h61v-483zM1026 299h336v395z" />
    <glyph glyph-name="onehalf" unicode="&#xbd;" horiz-adv-x="1753" 
d="M1382 1475l80 -7l-1052 -1493l-80 7zM250 739h190v660q-31 -21 -114.5 -54t-149.5 -53l-12 58q184 58 276 116h70v-727h149v-55h-409v55zM1163 55h467v-55h-534v35q0 57 25 104t65 79.5t88 61.5t96 56t88 56.5t65 69.5t25 89q0 94 -51 139t-158 45q-77 0 -121.5 -28
t-66.5 -91l-66 13q56 166 258 166q136 0 204.5 -65t68.5 -177q0 -55 -24 -101t-63 -78.5t-85.5 -61.5t-94.5 -56t-88 -55t-67 -65.5t-31 -80.5z" />
    <glyph glyph-name="threequarters" unicode="&#xbe;" horiz-adv-x="1656" 
d="M686 891q0 -99 -71.5 -161t-200.5 -62q-197 0 -250 143l57 18q37 -106 195 -106q94 0 150.5 44t56.5 126q0 79 -59 124.5t-150 45.5h-72v51h70q77 0 130.5 40.5t53.5 113.5q0 69 -45 110t-137 41q-157 0 -183 -112l-59 12q18 77 81.5 116.5t160.5 39.5q120 0 181.5 -55
t61.5 -148q0 -68 -37.5 -113.5t-103.5 -66.5q170 -50 170 -201zM1374 1475l78 -7l-1053 -1493l-77 7zM1393 299h141v-55h-141v-244h-66v244h-395l-14 49l413 489h62v-483zM991 299h336v395z" />
    <glyph glyph-name="questiondown" unicode="&#xbf;" horiz-adv-x="1003" 
d="M563 868q35 0 58.5 23t23.5 57q0 35 -23.5 58.5t-58.5 23.5t-57.5 -23.5t-22.5 -58.5q0 -34 22.5 -57t57.5 -23zM893 -162l-62 23q-36 -93 -94.5 -136.5t-181.5 -43.5q-135 0 -210 76t-75 208q0 64 20 121.5t49 99.5t77.5 85t90 71t101.5 64l-10 241h-68l-8 -219
q-5 -3 -16 -10q-32 -20 -51.5 -32.5t-56.5 -40.5t-60.5 -52t-54 -62t-48 -76t-30 -88t-12.5 -104q0 -168 97.5 -260t260.5 -92q101 0 169.5 28t106.5 75t66 124z" />
    <glyph glyph-name="Agrave" unicode="&#xc0;" horiz-adv-x="1435" 
d="M684 1520l-72 -7l-168 209l91 15zM1251 68q44 -13 146 -13l-4 -61q-33 -10 -97 -10q-53 0 -80 15.5t-45 61.5l-153 388h-735l-179 -449h-84l582 1448l92 18zM309 520h682l-342 862z" />
    <glyph glyph-name="Aacute" unicode="&#xc1;" horiz-adv-x="1435" 
d="M848 1722l-168 -209l-72 7l150 217zM1251 68q44 -13 146 -13l-4 -61q-33 -10 -97 -10q-53 0 -80 15.5t-45 61.5l-153 388h-735l-179 -449h-84l582 1448l92 18zM309 520h682l-342 862z" />
    <glyph glyph-name="Acircumflex" unicode="&#xc2;" horiz-adv-x="1435" 
d="M651 1696l-176 -178l-72 12l213 213h70l213 -213l-72 -12zM1251 68q44 -13 146 -13l-4 -61q-33 -10 -97 -10q-53 0 -80 15.5t-45 61.5l-153 388h-735l-179 -449h-84l582 1448l92 18zM309 520h682l-342 862z" />
    <glyph glyph-name="Atilde" unicode="&#xc3;" horiz-adv-x="1435" 
d="M537 1620q-35 0 -53.5 -22.5t-24.5 -77.5l-53 8q6 78 36.5 115.5t89.5 37.5q46 0 123.5 -23.5t112.5 -23.5q36 0 55 23t23 78l53 -6q-6 -81 -35 -118.5t-92 -37.5q-44 0 -121 23.5t-114 23.5zM1251 68q44 -13 146 -13l-4 -61q-33 -10 -97 -10q-53 0 -80 15.5t-45 61.5
l-153 388h-735l-179 -449h-84l582 1448l92 18zM309 520h682l-342 862z" />
    <glyph glyph-name="Adieresis" unicode="&#xc4;" horiz-adv-x="1435" 
d="M514 1563q-24 0 -39.5 14.5t-15.5 40.5t15.5 40.5t39.5 14.5q25 0 41 -14.5t16 -40.5t-16 -40.5t-41 -14.5zM786 1563q-24 0 -39.5 14.5t-15.5 40.5t15.5 40.5t39.5 14.5q25 0 41.5 -14.5t16.5 -40.5t-16.5 -40.5t-41.5 -14.5zM1251 68q44 -13 146 -13l-4 -61
q-33 -10 -97 -10q-53 0 -80 15.5t-45 61.5l-153 388h-735l-179 -449h-84l582 1448l92 18zM309 520h682l-342 862z" />
    <glyph glyph-name="Aring" unicode="&#xc5;" horiz-adv-x="1435" 
d="M651 1497q-69 0 -110 40t-41 108q0 66 41 105.5t110 39.5q70 0 112 -39.5t42 -105.5q0 -68 -42 -108t-112 -40zM651 1749q-47 0 -75.5 -28.5t-28.5 -75.5q0 -49 28.5 -78t75.5 -29q48 0 77.5 29t29.5 78q0 47 -29.5 75.5t-77.5 28.5zM1251 68q44 -13 146 -13l-4 -61
q-33 -10 -97 -10q-53 0 -80 15.5t-45 61.5l-153 388h-735l-179 -449h-84l582 1448l92 18zM309 520h682l-342 862z" />
    <glyph glyph-name="AE" unicode="&#xc6;" horiz-adv-x="1873" 
d="M1083 696v-622h715v-74h-797v696h-550l-326 -696h-86l690 1454h1069l-10 -72h-705v-614h654v-72h-654zM485 768h516v614h-227z" />
    <glyph glyph-name="Ccedilla" unicode="&#xc7;" horiz-adv-x="1417" 
d="M827 -25h-24l-10 -49q81 0 127.5 -31.5t46.5 -97.5q0 -99 -69 -143.5t-206 -44.5l10 59q199 0 199 125q0 50 -38 70t-132 20l21 94q-283 24 -449 218t-166 522q0 180 47 324t132 239t203 145t261 50q132 0 236.5 -33.5t170.5 -93t100 -137.5t34 -169l-82 -8
q-5 171 -119.5 270t-335.5 99q-125 0 -227.5 -43.5t-177.5 -128t-116.5 -215t-41.5 -297.5q0 -315 165.5 -492.5t447.5 -177.5q285 0 458 133l21 -73q-26 -21 -61.5 -40t-94 -42.5t-145 -37.5t-185.5 -14z" />
    <glyph glyph-name="Egrave" unicode="&#xc8;" horiz-adv-x="1153" 
d="M674 1520l-72 -7l-168 209l90 15zM283 696v-622h794v-74h-878v1454h878l-10 -72h-784v-614h733v-72h-733z" />
    <glyph glyph-name="Eacute" unicode="&#xc9;" horiz-adv-x="1153" 
d="M838 1722l-168 -209l-72 7l150 217zM283 696v-622h794v-74h-878v1454h878l-10 -72h-784v-614h733v-72h-733z" />
    <glyph glyph-name="Ecircumflex" unicode="&#xca;" horiz-adv-x="1153" 
d="M641 1696l-176 -178l-72 12l213 213h70l213 -213l-72 -12zM283 696v-622h794v-74h-878v1454h878l-10 -72h-784v-614h733v-72h-733z" />
    <glyph glyph-name="Edieresis" unicode="&#xcb;" horiz-adv-x="1153" 
d="M504 1563q-24 0 -39.5 14.5t-15.5 40.5t15.5 40.5t39.5 14.5q25 0 41 -14.5t16 -40.5t-16 -40.5t-41 -14.5zM776 1563q-24 0 -39.5 14.5t-15.5 40.5t15.5 40.5t39.5 14.5q25 0 41.5 -14.5t16.5 -40.5t-16.5 -40.5t-41.5 -14.5zM283 696v-622h794v-74h-878v1454h878
l-10 -72h-784v-614h733v-72h-733z" />
    <glyph glyph-name="Igrave" unicode="&#xcc;" horiz-adv-x="481" 
d="M123 1737l-90 -15l168 -209l71 7zM199 1454v-1454h84v1454h-84z" />
    <glyph glyph-name="Iacute" unicode="&#xcd;" horiz-adv-x="481" 
d="M346 1737l-149 -217l71 -7l168 209zM199 1454v-1454h84v1454h-84z" />
    <glyph glyph-name="Icircumflex" unicode="&#xce;" horiz-adv-x="481" 
d="M274 1743l213 -213l-71 -12l-176 178l-177 -178l-71 12l213 213h69zM199 0v1454h84v-1454h-84z" />
    <glyph glyph-name="Idieresis" unicode="&#xcf;" horiz-adv-x="481" 
d="M102 1563q25 0 41.5 14.5t16.5 40.5t-16.5 40.5t-41.5 14.5q-24 0 -39.5 -14.5t-15.5 -40.5t15.5 -40.5t39.5 -14.5zM375 1563q25 0 41 14.5t16 40.5t-16 40.5t-41 14.5q-24 0 -40 -15t-16 -40t16 -40t40 -15zM199 1454v-1454h84v1454h-84z" />
    <glyph glyph-name="Eth" unicode="&#xd0;" horiz-adv-x="1519" 
d="M627 1475q186 0 332 -58t237.5 -160.5t138.5 -237.5t47 -294q0 -158 -47.5 -290t-138.5 -229t-233.5 -151.5t-323.5 -54.5h-412v682h-172v70h172v630h-172v62q92 16 148 16q60 0 86 -26q139 41 338 41zM637 74q169 0 298 50.5t207 140t117 205.5t39 255q0 111 -24 209.5
t-76.5 184.5t-129.5 148.5t-190 98t-251 35.5q-176 0 -318 -25v-624h299v-70h-299v-608h328z" />
    <glyph glyph-name="Ntilde" unicode="&#xd1;" horiz-adv-x="1497" 
d="M653 1620q-35 0 -53.5 -22.5t-24.5 -77.5l-53 8q12 153 127 153q46 0 123.5 -23.5t112.5 -23.5q36 0 55 23t23 78l53 -6q-6 -81 -35 -118.5t-92 -37.5q-44 0 -121.5 23.5t-114.5 23.5zM1217 1454h81v-1454h-73l-944 1319v-1319h-82v1448l75 18l943 -1323v1311z" />
    <glyph glyph-name="Ograve" unicode="&#xd2;" horiz-adv-x="1630" 
d="M698 1737l-90 -15l168 -209l72 7zM815 -25q156 0 284.5 57t214 157t132.5 237.5t47 298.5t-47 298.5t-132.5 237.5t-214 157t-284.5 57t-284.5 -57t-214 -157t-132.5 -237.5t-47 -298.5t47 -298.5t132.5 -237.5t214 -157t284.5 -57zM815 49q-273 0 -433.5 186.5
t-160.5 489.5t161 489.5t433 186.5q273 0 433.5 -186.5t160.5 -489.5t-160.5 -489.5t-433.5 -186.5z" />
    <glyph glyph-name="Oacute" unicode="&#xd3;" horiz-adv-x="1630" 
d="M922 1737l-150 -217l72 -7l168 209zM815 -25q156 0 284.5 57t214 157t132.5 237.5t47 298.5t-47 298.5t-132.5 237.5t-214 157t-284.5 57t-284.5 -57t-214 -157t-132.5 -237.5t-47 -298.5t47 -298.5t132.5 -237.5t214 -157t284.5 -57zM815 49q-273 0 -433.5 186.5
t-160.5 489.5t161 489.5t433 186.5q273 0 433.5 -186.5t160.5 -489.5t-160.5 -489.5t-433.5 -186.5z" />
    <glyph glyph-name="Ocircumflex" unicode="&#xd4;" horiz-adv-x="1630" 
d="M815 1696l-176 -178l-72 12l213 213h70l213 -213l-72 -12zM815 1475q156 0 284.5 -57t214 -157t132.5 -237.5t47 -298.5t-47 -298.5t-132.5 -237.5t-214 -157t-284.5 -57t-284.5 57t-214 157t-132.5 237.5t-47 298.5t47 298.5t132.5 237.5t214 157t284.5 57zM815 49
q273 0 433.5 186.5t160.5 489.5t-160.5 489.5t-433.5 186.5q-272 0 -433 -186.5t-161 -489.5t160.5 -489.5t433.5 -186.5z" />
    <glyph glyph-name="Otilde" unicode="&#xd5;" horiz-adv-x="1630" 
d="M1061 1729q-6 -81 -35 -118.5t-92 -37.5q-44 0 -121.5 23.5t-114.5 23.5q-35 0 -53 -22.5t-24 -77.5l-54 8q12 153 127 153q46 0 123.5 -23.5t112.5 -23.5q36 0 55 23t23 78zM815 -25q156 0 284.5 57t214 157t132.5 237.5t47 298.5t-47 298.5t-132.5 237.5t-214 157
t-284.5 57t-284.5 -57t-214 -157t-132.5 -237.5t-47 -298.5t47 -298.5t132.5 -237.5t214 -157t284.5 -57zM815 49q-273 0 -433.5 186.5t-160.5 489.5t161 489.5t433 186.5q273 0 433.5 -186.5t160.5 -489.5t-160.5 -489.5t-433.5 -186.5z" />
    <glyph glyph-name="Odieresis" unicode="&#xd6;" horiz-adv-x="1630" 
d="M678 1563q25 0 41 14.5t16 40.5t-16 40.5t-41 14.5q-24 0 -39.5 -14.5t-15.5 -40.5t15.5 -40.5t39.5 -14.5zM950 1563q25 0 41.5 14.5t16.5 40.5t-16.5 40.5t-41.5 14.5q-24 0 -39.5 -14.5t-15.5 -40.5t15.5 -40.5t39.5 -14.5zM815 -25q156 0 284.5 57t214 157
t132.5 237.5t47 298.5t-47 298.5t-132.5 237.5t-214 157t-284.5 57t-284.5 -57t-214 -157t-132.5 -237.5t-47 -298.5t47 -298.5t132.5 -237.5t214 -157t284.5 -57zM815 49q-273 0 -433.5 186.5t-160.5 489.5t161 489.5t433 186.5q273 0 433.5 -186.5t160.5 -489.5
t-160.5 -489.5t-433.5 -186.5z" />
    <glyph glyph-name="multiply" unicode="&#xd7;" horiz-adv-x="1073" 
d="M881 946l-297 -297l297 -297l-47 -47l-297 297l-297 -297l-47 47l296 297l-296 297l47 47l297 -297l297 297z" />
    <glyph glyph-name="Oslash" unicode="&#xd8;" horiz-adv-x="1630" 
d="M1268 1309q109 -101 167 -252t58 -332q0 -161 -47 -298.5t-132.5 -237.5t-214 -157t-284.5 -57q-233 0 -403 125l-117 -166l-76 11l141 200q-107 100 -165 250t-58 330q0 161 47 298.5t132.5 237.5t214 157t284.5 57q232 0 399 -123l134 188l75 -10zM221 725
q0 -160 47.5 -292.5t137.5 -223.5l763 1079q-148 113 -354 113q-272 0 -433 -186.5t-161 -489.5zM815 49q273 0 433.5 186.5t160.5 489.5q0 162 -48.5 295t-139.5 223l-764 -1079q149 -115 358 -115z" />
    <glyph glyph-name="Ugrave" unicode="&#xd9;" horiz-adv-x="1490" 
d="M629 1737l-90 -15l168 -209l71 7zM1305 1454h-84v-905q0 -253 -117 -377.5t-352 -124.5q-231 0 -343 124.5t-112 381.5v807q0 53 -23 75.5t-77 22.5q-89 0 -154 -14v-60h172v-831q0 -293 130.5 -435.5t406.5 -142.5q553 0 553 574v905z" />
    <glyph glyph-name="Uacute" unicode="&#xda;" horiz-adv-x="1490" 
d="M852 1737l-150 -217l72 -7l168 209zM1305 1454h-84v-905q0 -253 -117 -377.5t-352 -124.5q-231 0 -343 124.5t-112 381.5v807q0 53 -23 75.5t-77 22.5q-89 0 -154 -14v-60h172v-831q0 -293 130.5 -435.5t406.5 -142.5q553 0 553 574v905z" />
    <glyph glyph-name="Ucircumflex" unicode="&#xdb;" horiz-adv-x="1490" 
d="M745 1696l-176 -178l-71 12l213 213h69l213 -213l-71 -12zM1221 1454h84v-905q0 -574 -553 -574q-276 0 -406.5 142.5t-130.5 435.5v831h-172v60q65 14 154 14q54 0 77 -22.5t23 -75.5v-807q0 -257 112 -381.5t343 -124.5q235 0 352 124.5t117 377.5v905z" />
    <glyph glyph-name="Udieresis" unicode="&#xdc;" horiz-adv-x="1490" 
d="M608 1563q25 0 41.5 14.5t16.5 40.5t-16.5 40.5t-41.5 14.5q-24 0 -39.5 -14.5t-15.5 -40.5t15.5 -40.5t39.5 -14.5zM881 1563q25 0 41 14.5t16 40.5t-16 40.5t-41 14.5q-24 0 -40 -15t-16 -40t16 -40t40 -15zM1305 1454h-84v-905q0 -253 -117 -377.5t-352 -124.5
q-231 0 -343 124.5t-112 381.5v807q0 53 -23 75.5t-77 22.5q-89 0 -154 -14v-60h172v-831q0 -293 130.5 -435.5t406.5 -142.5q553 0 553 574v905z" />
    <glyph glyph-name="Yacute" unicode="&#xdd;" horiz-adv-x="1241" 
d="M844 1722l-168 -209l-72 7l150 217zM1149 1466l78 -18l-539 -842v-606h-82v606l-463 778h-149v60q48 16 108 16q55 0 79 -14.5t55 -67.5l411 -702z" />
    <glyph glyph-name="Thorn" unicode="&#xde;" horiz-adv-x="1173" 
d="M528 1178q243 0 375.5 -107t132.5 -323t-132.5 -321t-375.5 -105h-245v-322h-84v1454h84v-276h245zM528 393q214 0 321 83t107 272q0 190 -107 274t-321 84h-245v-713h245z" />
    <glyph glyph-name="germandbls" unicode="&#xdf;" horiz-adv-x="1124" 
d="M616 680q0 -25 24 -48.5t62 -43.5t84 -42t92.5 -50.5t84.5 -62.5t62 -84.5t24 -110.5q0 -263 -306 -263q-182 0 -282 74l4 74q119 -82 274 -82q120 0 180 47t60 152q0 52 -23.5 95.5t-61.5 73t-83.5 55.5t-91 48t-83.5 44.5t-61.5 51.5t-23.5 62q0 40 28.5 102
t63.5 119.5t63.5 134.5t28.5 143q0 108 -57 172t-180 64q-248 0 -248 -287v-1118h-78v1122q0 175 85.5 264t242.5 89q86 0 149 -24t97.5 -66t50.5 -90.5t16 -104.5q0 -81 -31 -163.5t-67.5 -137.5t-67.5 -113t-31 -96z" />
    <glyph glyph-name="agrave" unicode="&#xe0;" horiz-adv-x="1157" 
d="M588 1126h-72l-223 326l92 8zM928 63q68 -10 153 -10l-4 -61q-49 -6 -112 -6q-60 0 -86.5 27.5t-26.5 90.5v117q-58 -115 -164.5 -180.5t-243.5 -65.5q-145 0 -228 77.5t-83 209.5q0 140 101.5 221.5t304.5 81.5q169 0 313 -39v99q0 148 -77 229.5t-228 81.5
q-140 0 -214 -58t-93 -176l-78 15q14 66 40 115.5t70.5 89.5t113.5 61t161 21q186 0 283.5 -97.5t97.5 -277.5v-566zM459 43q109 0 200.5 53.5t142 137t50.5 174.5v57q-146 37 -309 37q-332 0 -332 -242q0 -105 65 -161t183 -56z" />
    <glyph glyph-name="aacute" unicode="&#xe1;" horiz-adv-x="1157" 
d="M791 1452l-224 -326h-71l202 334zM928 63q68 -10 153 -10l-4 -61q-49 -6 -112 -6q-60 0 -86.5 27.5t-26.5 90.5v117q-58 -115 -164.5 -180.5t-243.5 -65.5q-145 0 -228 77.5t-83 209.5q0 140 101.5 221.5t304.5 81.5q169 0 313 -39v99q0 148 -77 229.5t-228 81.5
q-140 0 -214 -58t-93 -176l-78 15q14 66 40 115.5t70.5 89.5t113.5 61t161 21q186 0 283.5 -97.5t97.5 -277.5v-566zM459 43q109 0 200.5 53.5t142 137t50.5 174.5v57q-146 37 -309 37q-332 0 -332 -242q0 -105 65 -161t183 -56z" />
    <glyph glyph-name="acircumflex" unicode="&#xe2;" horiz-adv-x="1157" 
d="M545 1417l-211 -266l-74 4l250 313h70l249 -313l-73 -4zM928 63q68 -10 153 -10l-4 -61q-49 -6 -112 -6q-60 0 -86.5 27.5t-26.5 90.5v117q-58 -115 -164.5 -180.5t-243.5 -65.5q-145 0 -228 77.5t-83 209.5q0 140 101.5 221.5t304.5 81.5q169 0 313 -39v99
q0 148 -77 229.5t-228 81.5q-140 0 -214 -58t-93 -176l-78 15q14 66 40 115.5t70.5 89.5t113.5 61t161 21q186 0 283.5 -97.5t97.5 -277.5v-566zM459 43q109 0 200.5 53.5t142 137t50.5 174.5v57q-146 37 -309 37q-332 0 -332 -242q0 -105 65 -161t183 -56z" />
    <glyph glyph-name="atilde" unicode="&#xe3;" horiz-adv-x="1157" 
d="M371 1339q-97 0 -109 -143l-55 8q15 195 164 195q51 0 106.5 -23.5t109 -47t101.5 -23.5t74 32t33 111l55 -6q-14 -199 -162 -199q-63 0 -165 48t-152 48zM928 63q68 -10 153 -10l-4 -61q-49 -6 -112 -6q-60 0 -86.5 27.5t-26.5 90.5v117q-58 -115 -164.5 -180.5
t-243.5 -65.5q-145 0 -228 77.5t-83 209.5q0 140 101.5 221.5t304.5 81.5q169 0 313 -39v99q0 148 -77 229.5t-228 81.5q-140 0 -214 -58t-93 -176l-78 15q14 66 40 115.5t70.5 89.5t113.5 61t161 21q186 0 283.5 -97.5t97.5 -277.5v-566zM459 43q109 0 200.5 53.5t142 137
t50.5 174.5v57q-146 37 -309 37q-332 0 -332 -242q0 -105 65 -161t183 -56z" />
    <glyph glyph-name="adieresis" unicode="&#xe4;" horiz-adv-x="1157" 
d="M410 1245q-26 0 -44 18t-18 44t18 43.5t44 17.5t42.5 -17.5t16.5 -43.5q0 -27 -16.5 -44.5t-42.5 -17.5zM682 1245q-26 0 -42.5 17.5t-16.5 44.5q0 26 16.5 43.5t42.5 17.5q27 0 44 -17t17 -44t-17 -44.5t-44 -17.5zM928 63q68 -10 153 -10l-4 -61q-49 -6 -112 -6
q-60 0 -86.5 27.5t-26.5 90.5v117q-58 -115 -164.5 -180.5t-243.5 -65.5q-145 0 -228 77.5t-83 209.5q0 140 101.5 221.5t304.5 81.5q169 0 313 -39v99q0 148 -77 229.5t-228 81.5q-140 0 -214 -58t-93 -176l-78 15q14 66 40 115.5t70.5 89.5t113.5 61t161 21
q186 0 283.5 -97.5t97.5 -277.5v-566zM459 43q109 0 200.5 53.5t142 137t50.5 174.5v57q-146 37 -309 37q-332 0 -332 -242q0 -105 65 -161t183 -56z" />
    <glyph glyph-name="aring" unicode="&#xe5;" horiz-adv-x="1157" 
d="M545 1126q-87 0 -137 49.5t-50 127.5t50 127t137 49t136.5 -49t49.5 -127q0 -79 -49.5 -128t-136.5 -49zM545 1436q-65 0 -100 -37.5t-35 -95.5t35 -96t100 -38t100 38t35 96t-35 95.5t-100 37.5zM928 63q68 -10 153 -10l-4 -61q-49 -6 -112 -6q-60 0 -86.5 27.5
t-26.5 90.5v117q-58 -115 -164.5 -180.5t-243.5 -65.5q-145 0 -228 77.5t-83 209.5q0 140 101.5 221.5t304.5 81.5q169 0 313 -39v99q0 148 -77 229.5t-228 81.5q-140 0 -214 -58t-93 -176l-78 15q14 66 40 115.5t70.5 89.5t113.5 61t161 21q186 0 283.5 -97.5t97.5 -277.5
v-566zM459 43q109 0 200.5 53.5t142 137t50.5 174.5v57q-146 37 -309 37q-332 0 -332 -242q0 -105 65 -161t183 -56z" />
    <glyph glyph-name="ae" unicode="&#xe6;" horiz-adv-x="1847" 
d="M950 473q6 -428 389 -428q113 0 198.5 36t121.5 69l20 -68q-46 -40 -138.5 -73.5t-211.5 -33.5q-334 0 -426 287q-53 -134 -173.5 -210.5t-262.5 -76.5q-146 0 -230.5 78t-84.5 209q0 140 102 221.5t303 81.5q169 0 313 -39v99q0 148 -77 229.5t-228 81.5
q-139 0 -212.5 -58t-92.5 -176l-78 15q14 66 40 115.5t70 89.5t112.5 61t160.5 21q143 0 235 -59.5t128 -170.5q53 111 147.5 170.5t222.5 59.5q130 0 221.5 -64t134 -167.5t42.5 -235.5v-64h-746zM1298 934q-148 0 -242 -100.5t-104 -296.5h668q-1 189 -90 293t-232 104z
M477 43q84 0 158 30.5t125 81.5t80.5 118t29.5 139v53q-141 37 -307 37q-334 0 -334 -242q0 -104 66 -160.5t182 -56.5z" />
    <glyph glyph-name="ccedilla" unicode="&#xe7;" horiz-adv-x="1122" 
d="M608 -74q81 0 127.5 -31.5t46.5 -97.5q0 -99 -68.5 -143.5t-205.5 -44.5l10 59q199 0 199 125q0 50 -38 70t-132 20l20 94q-193 11 -304 139t-111 369q0 231 119 375t333 144q171 0 261.5 -86t101.5 -232l-76 -10q-25 258 -291 258q-172 0 -270.5 -121t-98.5 -324
q0 -218 101.5 -331t277.5 -113q57 0 109.5 10.5t86.5 23.5t69.5 35t50 34t37.5 32l20 -71q-30 -26 -55 -43.5t-70 -41t-106 -36t-134 -13.5z" />
    <glyph glyph-name="egrave" unicode="&#xe8;" horiz-adv-x="1128" 
d="M621 1126h-72l-223 326l92 8zM231 473q6 -428 387 -428q114 0 200 36t122 69l21 -68q-46 -40 -139 -73.5t-212 -33.5q-223 0 -340.5 132t-117.5 387q0 237 115.5 373.5t312.5 136.5q129 0 220.5 -64t134 -167.5t42.5 -235.5v-64h-746zM580 934q-147 0 -242 -100.5
t-107 -296.5h670q-1 189 -89.5 293t-231.5 104z" />
    <glyph glyph-name="eacute" unicode="&#xe9;" horiz-adv-x="1128" 
d="M823 1452l-223 -326h-72l203 334zM231 473q6 -428 387 -428q114 0 200 36t122 69l21 -68q-46 -40 -139 -73.5t-212 -33.5q-223 0 -340.5 132t-117.5 387q0 237 115.5 373.5t312.5 136.5q129 0 220.5 -64t134 -167.5t42.5 -235.5v-64h-746zM580 934q-147 0 -242 -100.5
t-107 -296.5h670q-1 189 -89.5 293t-231.5 104z" />
    <glyph glyph-name="ecircumflex" unicode="&#xea;" horiz-adv-x="1128" 
d="M578 1417l-211 -266l-74 4l250 313h69l250 -313l-74 -4zM231 473q6 -428 387 -428q114 0 200 36t122 69l21 -68q-46 -40 -139 -73.5t-212 -33.5q-223 0 -340.5 132t-117.5 387q0 237 115.5 373.5t312.5 136.5q129 0 220.5 -64t134 -167.5t42.5 -235.5v-64h-746zM580 934
q-147 0 -242 -100.5t-107 -296.5h670q-1 189 -89.5 293t-231.5 104z" />
    <glyph glyph-name="edieresis" unicode="&#xeb;" horiz-adv-x="1128" 
d="M442 1245q-26 0 -43.5 18t-17.5 44t17.5 43.5t43.5 17.5t43 -17.5t17 -43.5t-17 -44t-43 -18zM715 1245q-26 0 -43 18t-17 44t17 43.5t43 17.5q27 0 44 -17t17 -44t-17 -44.5t-44 -17.5zM231 473q6 -428 387 -428q114 0 200 36t122 69l21 -68q-46 -40 -139 -73.5
t-212 -33.5q-223 0 -340.5 132t-117.5 387q0 237 115.5 373.5t312.5 136.5q129 0 220.5 -64t134 -167.5t42.5 -235.5v-64h-746zM580 934q-147 0 -242 -100.5t-107 -296.5h670q-1 189 -89.5 293t-231.5 104z" />
    <glyph glyph-name="igrave" unicode="&#xec;" horiz-adv-x="421" 
d="M-4 1460l-92 -8l223 -326h72zM195 61v922h-78v-899q0 -56 24 -77t86 -21q40 0 115 6l4 61q-99 0 -151 8z" />
    <glyph glyph-name="iacute" unicode="&#xed;" horiz-adv-x="421" 
d="M309 1460l-203 -334h72l223 326zM195 61v922h-78v-899q0 -56 24 -77t86 -21q40 0 115 6l4 61q-99 0 -151 8z" />
    <glyph glyph-name="icircumflex" unicode="&#xee;" horiz-adv-x="421" 
d="M190 1468l250 -313l-73 -4l-211 266l-211 -266l-74 4l250 313h69zM195 983v-922q52 -8 151 -8l-4 -61q-75 -6 -115 -6q-62 0 -86 21t-24 77v899h78z" />
    <glyph glyph-name="idieresis" unicode="&#xef;" horiz-adv-x="421" 
d="M18 1245q26 0 43 18t17 44t-17 43.5t-43 17.5q-27 0 -44 -17t-17 -44t17 -44.5t44 -17.5zM291 1245q27 0 44 17.5t17 44.5t-17 44t-44 17q-26 0 -43 -17.5t-17 -43.5t17 -44t43 -18zM195 61v922h-78v-899q0 -56 24 -77t86 -21q40 0 115 6l4 61q-99 0 -151 8z" />
    <glyph glyph-name="eth" unicode="&#xf0;" horiz-adv-x="1230" 
d="M817 1282q262 -256 262 -805q0 -241 -127 -371.5t-336 -130.5q-208 0 -336 131t-128 361q0 233 127.5 364.5t336.5 131.5q113 0 204.5 -46t154.5 -126q-57 295 -232 458l-387 -172l-12 64l344 151q-160 117 -399 117l10 66q284 0 467 -148l254 113l12 -64zM616 45
q176 0 280.5 112t104.5 310q0 199 -105 312.5t-280 113.5q-176 0 -280.5 -113.5t-104.5 -312.5t104 -310.5t281 -111.5z" />
    <glyph glyph-name="ntilde" unicode="&#xf1;" horiz-adv-x="1247" 
d="M459 1339q-97 0 -109 -143l-55 8q15 195 164 195q51 0 106.5 -23.5t109 -47t101.5 -23.5t74 32t33 111l55 -6q-14 -199 -162 -199q-63 0 -165 48t-152 48zM1020 61q49 -8 151 -8l-4 -61q-93 -6 -114 -6q-65 0 -88 19.5t-23 74.5v516q0 336 -303 336q-151 0 -254.5 -104
t-103.5 -234v-594h-78v903q-22 16 -48.5 20.5t-78.5 4.5l2 59q35 10 67 10q136 0 136 -139v-80q49 101 145.5 163.5t230.5 62.5q185 0 274 -105.5t89 -298.5v-539z" />
    <glyph glyph-name="ograve" unicode="&#xf2;" horiz-adv-x="1230" 
d="M457 1460l-92 -8l223 -326h71zM152 487q0 -241 127.5 -376.5t336.5 -135.5t336 135.5t127 376.5q0 242 -127.5 379.5t-335.5 137.5q-209 0 -336.5 -136.5t-127.5 -380.5zM231 487q0 210 104 328.5t281 118.5q176 0 280.5 -118.5t104.5 -328.5q0 -209 -104.5 -325.5
t-280.5 -116.5q-177 0 -281 116.5t-104 325.5z" />
    <glyph glyph-name="oacute" unicode="&#xf3;" horiz-adv-x="1230" 
d="M770 1460l-203 -334h72l223 326zM152 487q0 -241 127.5 -376.5t336.5 -135.5t336 135.5t127 376.5q0 242 -127.5 379.5t-335.5 137.5q-209 0 -336.5 -136.5t-127.5 -380.5zM231 487q0 210 104 328.5t281 118.5q176 0 280.5 -118.5t104.5 -328.5q0 -209 -104.5 -325.5
t-280.5 -116.5q-177 0 -281 116.5t-104 325.5z" />
    <glyph glyph-name="ocircumflex" unicode="&#xf4;" horiz-adv-x="1230" 
d="M616 1417l-210 -266l-74 4l250 313h69l250 -313l-74 -4zM616 1004q208 0 335.5 -137.5t127.5 -379.5q0 -241 -127 -376.5t-336 -135.5t-336.5 135.5t-127.5 376.5q0 244 127.5 380.5t336.5 136.5zM616 45q176 0 280.5 116.5t104.5 325.5q0 210 -104.5 328.5t-280.5 118.5
q-177 0 -281 -118.5t-104 -328.5q0 -209 104 -325.5t281 -116.5z" />
    <glyph glyph-name="otilde" unicode="&#xf5;" horiz-adv-x="1230" 
d="M922 1442q-14 -199 -162 -199q-63 0 -165.5 48t-152.5 48q-96 0 -108 -143l-55 8q15 195 163 195q51 0 106.5 -23.5t109.5 -47t102 -23.5t73.5 32t32.5 111zM152 487q0 -241 127.5 -376.5t336.5 -135.5t336 135.5t127 376.5q0 242 -127.5 379.5t-335.5 137.5
q-209 0 -336.5 -136.5t-127.5 -380.5zM231 487q0 210 104 328.5t281 118.5q176 0 280.5 -118.5t104.5 -328.5q0 -209 -104.5 -325.5t-280.5 -116.5q-177 0 -281 116.5t-104 325.5z" />
    <glyph glyph-name="odieresis" unicode="&#xf6;" horiz-adv-x="1230" 
d="M479 1245q26 0 43 18t17 44t-17 43.5t-43 17.5t-43.5 -17.5t-17.5 -43.5t17.5 -44t43.5 -18zM752 1245q27 0 44 17.5t17 44.5t-17 44t-44 17q-26 0 -43 -17.5t-17 -43.5t17 -44t43 -18zM152 487q0 -241 127.5 -376.5t336.5 -135.5t336 135.5t127 376.5
q0 242 -127.5 379.5t-335.5 137.5q-209 0 -336.5 -136.5t-127.5 -380.5zM231 487q0 210 104 328.5t281 118.5q176 0 280.5 -118.5t104.5 -328.5q0 -209 -104.5 -325.5t-280.5 -116.5q-177 0 -281 116.5t-104 325.5z" />
    <glyph glyph-name="divide" unicode="&#xf7;" horiz-adv-x="1200" 
d="M600 895q31 0 52.5 21.5t21.5 52.5t-21.5 52t-52.5 21t-52.5 -21t-21.5 -52t21.5 -52.5t52.5 -21.5zM1008 684h-815v-70h815v70zM600 256q31 0 52.5 21.5t21.5 52.5t-21.5 52t-52.5 21t-52.5 -21t-21.5 -52t21.5 -52.5t52.5 -21.5z" />
    <glyph glyph-name="oslash" unicode="&#xf8;" horiz-adv-x="1230" 
d="M911 905q168 -142 168 -418q0 -241 -127 -376.5t-336 -135.5q-139 0 -245 62l-74 -117l-66 12l88 142q-167 138 -167 413q0 244 127.5 380.5t336.5 136.5q137 0 246 -64l72 117l65 -10zM231 487q0 -229 127 -350l465 742q-93 55 -207 55q-177 0 -281 -118.5t-104 -328.5z
M616 45q176 0 280.5 116.5t104.5 325.5q0 233 -129 353l-462 -740q85 -55 206 -55z" />
    <glyph glyph-name="ugrave" unicode="&#xf9;" 
d="M643 1126h-72l-223 326l92 8zM997 63q58 -10 152 -10l-4 -61q-54 -6 -103 -6q-63 0 -92.5 27t-29.5 98v112q-56 -118 -160.5 -183t-245.5 -65q-165 0 -238 87.5t-73 295.5v545q-40 25 -127 25l2 59q32 8 72 8q69 0 100 -30.5t31 -98.5v-495q0 -176 57 -250t197 -74
q92 0 167.5 36t121.5 92.5t71 121.5t25 129v557h77v-920z" />
    <glyph glyph-name="uacute" unicode="&#xfa;" 
d="M846 1452l-223 -326h-72l203 334zM997 63q58 -10 152 -10l-4 -61q-54 -6 -103 -6q-63 0 -92.5 27t-29.5 98v112q-56 -118 -160.5 -183t-245.5 -65q-165 0 -238 87.5t-73 295.5v545q-40 25 -127 25l2 59q32 8 72 8q69 0 100 -30.5t31 -98.5v-495q0 -176 57 -250t197 -74
q92 0 167.5 36t121.5 92.5t71 121.5t25 129v557h77v-920z" />
    <glyph glyph-name="ucircumflex" unicode="&#xfb;" 
d="M600 1417l-211 -266l-74 4l250 313h70l250 -313l-74 -4zM997 63q58 -10 152 -10l-4 -61q-54 -6 -103 -6q-63 0 -92.5 27t-29.5 98v112q-56 -118 -160.5 -183t-245.5 -65q-165 0 -238 87.5t-73 295.5v545q-40 25 -127 25l2 59q32 8 72 8q69 0 100 -30.5t31 -98.5v-495
q0 -176 57 -250t197 -74q92 0 167.5 36t121.5 92.5t71 121.5t25 129v557h77v-920z" />
    <glyph glyph-name="udieresis" unicode="&#xfc;" 
d="M465 1245q-26 0 -44 18t-18 44t18 43.5t44 17.5t42.5 -17.5t16.5 -43.5q0 -27 -16.5 -44.5t-42.5 -17.5zM737 1245q-26 0 -42.5 17.5t-16.5 44.5q0 26 16.5 43.5t42.5 17.5q27 0 44.5 -17t17.5 -44t-17.5 -44.5t-44.5 -17.5zM997 63q58 -10 152 -10l-4 -61
q-54 -6 -103 -6q-63 0 -92.5 27t-29.5 98v112q-56 -118 -160.5 -183t-245.5 -65q-165 0 -238 87.5t-73 295.5v545q-40 25 -127 25l2 59q32 8 72 8q69 0 100 -30.5t31 -98.5v-495q0 -176 57 -250t197 -74q92 0 167.5 36t121.5 92.5t71 121.5t25 129v557h77v-920z" />
    <glyph glyph-name="yacute" unicode="&#xfd;" horiz-adv-x="1005" 
d="M760 1452l-223 -326h-72l203 334zM903 993l82 -12l-489 -1196q-36 -89 -96 -131.5t-160 -42.5q-50 0 -123 22l-8 74q81 -26 131 -26q73 0 117 27t71 97l78 193l-400 911q-34 15 -96 15l2 61q32 8 62 8q44 0 71 -20t48 -70l352 -811z" />
    <glyph glyph-name="thorn" unicode="&#xfe;" horiz-adv-x="1173" 
d="M588 1004q207 0 320.5 -132.5t113.5 -375.5q0 -248 -124 -384.5t-366 -136.5q-168 0 -282 64v-408h-78v1823h78v-641q44 88 128.5 139.5t209.5 51.5zM535 45q193 0 300 113t107 336q0 214 -90.5 327t-269.5 113q-99 0 -176.5 -45t-116.5 -115t-39 -149v-508
q121 -72 285 -72z" />
    <glyph glyph-name="ydieresis" unicode="&#xff;" horiz-adv-x="1005" 
d="M379 1245q-26 0 -44 18t-18 44t18 43.5t44 17.5t42.5 -17.5t16.5 -43.5q0 -27 -16.5 -44.5t-42.5 -17.5zM651 1245q-26 0 -42.5 17.5t-16.5 44.5q0 26 16.5 43.5t42.5 17.5q27 0 44.5 -17t17.5 -44t-17.5 -44.5t-44.5 -17.5zM903 993l82 -12l-489 -1196
q-36 -89 -96 -131.5t-160 -42.5q-50 0 -123 22l-8 74q81 -26 131 -26q73 0 117 27t71 97l78 193l-400 911q-34 15 -96 15l2 61q32 8 62 8q44 0 71 -20t48 -70l352 -811z" />
    <glyph glyph-name="Amacron" unicode="&#x100;" horiz-adv-x="1435" 
d="M924 1647v-66h-545v66h545zM1251 68q44 -13 146 -13l-4 -61q-33 -10 -97 -10q-53 0 -80 15.5t-45 61.5l-153 388h-735l-179 -449h-84l582 1448l92 18zM309 520h682l-342 862z" />
    <glyph glyph-name="amacron" unicode="&#x101;" horiz-adv-x="1157" 
d="M838 1319v-66h-586v66h586zM928 63q68 -10 153 -10l-4 -61q-49 -6 -112 -6q-60 0 -86.5 27.5t-26.5 90.5v117q-58 -115 -164.5 -180.5t-243.5 -65.5q-145 0 -228 77.5t-83 209.5q0 140 101.5 221.5t304.5 81.5q169 0 313 -39v99q0 148 -77 229.5t-228 81.5
q-140 0 -214 -58t-93 -176l-78 15q14 66 40 115.5t70.5 89.5t113.5 61t161 21q186 0 283.5 -97.5t97.5 -277.5v-566zM459 43q109 0 200.5 53.5t142 137t50.5 174.5v57q-146 37 -309 37q-332 0 -332 -242q0 -105 65 -161t183 -56z" />
    <glyph glyph-name="Abreve" unicode="&#x102;" horiz-adv-x="1435" 
d="M651 1513q-207 0 -223 224l57 6q9 -92 50 -131t116 -39q77 0 118 39t50 131l58 -6q-16 -224 -226 -224zM1251 68q44 -13 146 -13l-4 -61q-33 -10 -97 -10q-53 0 -80 15.5t-45 61.5l-153 388h-735l-179 -449h-84l582 1448l92 18zM309 520h682l-342 862z" />
    <glyph glyph-name="abreve" unicode="&#x103;" horiz-adv-x="1157" 
d="M545 1149q-128 0 -195.5 70.5t-77.5 218.5l64 4q10 -130 62.5 -180t146.5 -50t146.5 50t62.5 180l63 -4q-10 -149 -77 -219t-195 -70zM928 63q68 -10 153 -10l-4 -61q-49 -6 -112 -6q-60 0 -86.5 27.5t-26.5 90.5v117q-58 -115 -164.5 -180.5t-243.5 -65.5
q-145 0 -228 77.5t-83 209.5q0 140 101.5 221.5t304.5 81.5q169 0 313 -39v99q0 148 -77 229.5t-228 81.5q-140 0 -214 -58t-93 -176l-78 15q14 66 40 115.5t70.5 89.5t113.5 61t161 21q186 0 283.5 -97.5t97.5 -277.5v-566zM459 43q109 0 200.5 53.5t142 137t50.5 174.5v57
q-146 37 -309 37q-332 0 -332 -242q0 -105 65 -161t183 -56z" />
    <glyph glyph-name="Aogonek" unicode="&#x104;" horiz-adv-x="1435" 
d="M1395 -6q-211 -106 -211 -232q0 -50 26.5 -74t71.5 -24q53 0 109 25l4 -62q-40 -24 -125 -24q-162 0 -162 143q0 145 186 238q-52 0 -78.5 15.5t-44.5 61.5l-153 388h-735l-179 -449h-84l582 1448l92 18l557 -1398q44 -13 146 -13l-4 -61h2zM309 520h682l-342 862z" />
    <glyph glyph-name="aogonek" unicode="&#x105;" horiz-adv-x="1157" 
d="M1077 -8q-211 -106 -211 -232q0 -50 27 -74t72 -24q52 0 108 25l4 -62q-40 -24 -125 -24q-161 0 -161 143q0 151 196 242h-22q-60 0 -86.5 27.5t-26.5 90.5v117q-58 -115 -164.5 -180.5t-243.5 -65.5q-145 0 -228 77.5t-83 209.5q0 140 101.5 221.5t304.5 81.5
q169 0 313 -39v99q0 148 -77 229.5t-228 81.5q-140 0 -214 -58t-93 -176l-78 15q14 66 40 115.5t70.5 89.5t113.5 61t161 21q186 0 283.5 -97.5t97.5 -277.5v-566q68 -10 153 -10l-4 -61h-2h2zM459 43q109 0 200.5 53.5t142 137t50.5 174.5v57q-146 37 -309 37
q-332 0 -332 -242q0 -105 65 -161t183 -56z" />
    <glyph glyph-name="Cacute" unicode="&#x106;" horiz-adv-x="1417" 
d="M887 1737l-150 -217l72 -7l168 209zM834 49q-282 0 -447.5 177.5t-165.5 492.5q0 167 41.5 297.5t116.5 215t177.5 128t227.5 43.5q221 0 335.5 -99t119.5 -270l82 8q0 91 -34 169t-100 137.5t-170.5 93t-236.5 33.5q-143 0 -261 -50t-203 -145t-132 -239t-47 -324
q0 -351 187 -546.5t503 -195.5q99 0 185.5 14t145 37.5t94 42.5t61.5 40l-21 73q-173 -133 -458 -133z" />
    <glyph glyph-name="cacute" unicode="&#x107;" horiz-adv-x="1122" 
d="M756 1460l-203 -334h72l223 326zM963 180q-23 -20 -37.5 -32t-50 -34t-69.5 -35t-86.5 -23.5t-109.5 -10.5q-176 0 -277.5 113t-101.5 331q0 203 98.5 324t270.5 121q266 0 291 -258l76 10q-11 146 -101.5 232t-261.5 86q-214 0 -333 -144t-119 -375q0 -253 123 -381.5
t333 -128.5q75 0 138 12.5t109.5 36.5t72 41.5t55.5 43.5z" />
    <glyph glyph-name="Cdotaccent" unicode="&#x10a;" horiz-adv-x="1417" 
d="M782 1569q28 0 45 17.5t17 45.5q0 27 -17.5 44.5t-44.5 17.5q-28 0 -45.5 -18t-17.5 -44q0 -28 17.5 -45.5t45.5 -17.5zM834 49q-282 0 -447.5 177.5t-165.5 492.5q0 167 41.5 297.5t116.5 215t177.5 128t227.5 43.5q221 0 335.5 -99t119.5 -270l82 8q0 91 -34 169
t-100 137.5t-170.5 93t-236.5 33.5q-143 0 -261 -50t-203 -145t-132 -239t-47 -324q0 -351 187 -546.5t503 -195.5q99 0 185.5 14t145 37.5t94 42.5t61.5 40l-21 73q-173 -133 -458 -133z" />
    <glyph glyph-name="cdotaccent" unicode="&#x10b;" horiz-adv-x="1122" 
d="M602 1241q28 0 47 19.5t19 48.5q0 28 -19 46.5t-47 18.5t-46.5 -18.5t-18.5 -46.5q0 -29 18.5 -48.5t46.5 -19.5zM963 180q-23 -20 -37.5 -32t-50 -34t-69.5 -35t-86.5 -23.5t-109.5 -10.5q-176 0 -277.5 113t-101.5 331q0 203 98.5 324t270.5 121q266 0 291 -258l76 10
q-11 146 -101.5 232t-261.5 86q-214 0 -333 -144t-119 -375q0 -253 123 -381.5t333 -128.5q75 0 138 12.5t109.5 36.5t72 41.5t55.5 43.5z" />
    <glyph glyph-name="Ccaron" unicode="&#x10c;" horiz-adv-x="1417" 
d="M815 1518h-70l-213 213l72 12l176 -178l176 178l72 -12zM834 49q285 0 458 133l21 -73q-26 -21 -61.5 -40t-94 -42.5t-145 -37.5t-185.5 -14q-316 0 -503 195.5t-187 546.5q0 180 47 324t132 239t203 145t261 50q132 0 236.5 -33.5t170.5 -93t100 -137.5t34 -169l-82 -8
q-5 171 -119.5 270t-335.5 99q-125 0 -227.5 -43.5t-177.5 -128t-116.5 -215t-41.5 -297.5q0 -315 165.5 -492.5t447.5 -177.5z" />
    <glyph glyph-name="ccaron" unicode="&#x10d;" horiz-adv-x="1122" 
d="M637 1141h-70l-250 313l74 4l211 -266l211 266l74 -4zM963 180l20 -71q-30 -26 -55.5 -43.5t-72 -41.5t-109.5 -36.5t-138 -12.5q-210 0 -333 128.5t-123 381.5q0 231 119 375t333 144q171 0 261.5 -86t101.5 -232l-76 -10q-25 258 -291 258q-172 0 -270.5 -121
t-98.5 -324q0 -218 101.5 -331t277.5 -113q57 0 109.5 10.5t86.5 23.5t69.5 35t50 34t37.5 32z" />
    <glyph glyph-name="Dcaron" unicode="&#x10e;" horiz-adv-x="1519" 
d="M659 1518h-69l-213 213l72 12l176 -178l176 178l71 -12zM627 1475q186 0 332 -58t237.5 -160.5t138.5 -237.5t47 -294q0 -158 -47.5 -290t-138.5 -229t-233.5 -151.5t-323.5 -54.5h-412v1382h-172v62q92 16 148 16q60 0 86 -26q139 41 338 41zM637 74q169 0 298 50.5
t207 140t117 205.5t39 255q0 111 -24 209.5t-76.5 184.5t-129.5 148.5t-190 98t-251 35.5q-176 0 -318 -25v-1302h328z" />
    <glyph glyph-name="dcaron" unicode="&#x10f;" horiz-adv-x="1150" 
d="M1167 1460l78 -6l-65 -375l-70 6zM987 1454v-1391q62 -10 156 -10l-4 -61q-43 -6 -117 -6q-59 0 -86 30t-27 111v49q-49 -88 -138.5 -144.5t-215.5 -56.5q-182 0 -292.5 131.5t-110.5 372.5q0 244 122 384.5t328 140.5q189 0 307 -89v539h78zM565 45q147 0 245.5 93.5
t98.5 213.5v486q-124 96 -305 96q-172 0 -272.5 -125.5t-100.5 -329.5q0 -113 27 -198.5t74.5 -136t106 -75t126.5 -24.5z" />
    <glyph glyph-name="Dcroat" unicode="&#x110;" horiz-adv-x="1519" 
d="M627 1475q186 0 332 -58t237.5 -160.5t138.5 -237.5t47 -294q0 -158 -47.5 -290t-138.5 -229t-233.5 -151.5t-323.5 -54.5h-412v682h-172v70h172v630h-172v62q92 16 148 16q60 0 86 -26q139 41 338 41zM637 74q169 0 298 50.5t207 140t117 205.5t39 255q0 111 -24 209.5
t-76.5 184.5t-129.5 148.5t-190 98t-251 35.5q-176 0 -318 -25v-624h299v-70h-299v-608h328z" />
    <glyph glyph-name="dcroat" unicode="&#x111;" horiz-adv-x="1198" 
d="M1143 1171h-156v-1108q62 -10 156 -10l-4 -61q-43 -6 -117 -6q-59 0 -86 30t-27 111v49q-49 -88 -138.5 -144.5t-215.5 -56.5q-182 0 -292.5 131.5t-110.5 372.5q0 244 122 384.5t328 140.5q189 0 307 -89v256h-393v64h393v219h78v-219h156v-64zM565 45q147 0 245.5 93.5
t98.5 213.5v486q-124 96 -305 96q-172 0 -272.5 -125.5t-100.5 -329.5q0 -113 27 -198.5t74.5 -136t106 -75t126.5 -24.5z" />
    <glyph glyph-name="Emacron" unicode="&#x112;" horiz-adv-x="1153" 
d="M913 1647v-66h-544v66h544zM283 696v-622h794v-74h-878v1454h878l-10 -72h-784v-614h733v-72h-733z" />
    <glyph glyph-name="emacron" unicode="&#x113;" horiz-adv-x="1128" 
d="M870 1319v-66h-585v66h585zM231 473q6 -428 387 -428q114 0 200 36t122 69l21 -68q-46 -40 -139 -73.5t-212 -33.5q-223 0 -340.5 132t-117.5 387q0 237 115.5 373.5t312.5 136.5q129 0 220.5 -64t134 -167.5t42.5 -235.5v-64h-746zM580 934q-147 0 -242 -100.5
t-107 -296.5h670q-1 189 -89.5 293t-231.5 104z" />
    <glyph glyph-name="Edotaccent" unicode="&#x116;" horiz-adv-x="1153" 
d="M643 1569q-28 0 -45.5 17.5t-17.5 45.5q0 26 18 44t45 18t44.5 -17.5t17.5 -44.5q0 -28 -17 -45.5t-45 -17.5zM283 696v-622h794v-74h-878v1454h878l-10 -72h-784v-614h733v-72h-733z" />
    <glyph glyph-name="edotaccent" unicode="&#x117;" horiz-adv-x="1128" 
d="M578 1241q-28 0 -47 19.5t-19 48.5q0 28 19 46.5t47 18.5t46.5 -18.5t18.5 -46.5q0 -29 -18.5 -48.5t-46.5 -19.5zM231 473q6 -428 387 -428q114 0 200 36t122 69l21 -68q-46 -40 -139 -73.5t-212 -33.5q-223 0 -340.5 132t-117.5 387q0 237 115.5 373.5t312.5 136.5
q129 0 220.5 -64t134 -167.5t42.5 -235.5v-64h-746zM580 934q-147 0 -242 -100.5t-107 -296.5h670q-1 189 -89.5 293t-231.5 104z" />
    <glyph glyph-name="Eogonek" unicode="&#x118;" horiz-adv-x="1153" 
d="M283 696v-622h794v-74q-211 -106 -211 -231q0 -50 27 -74.5t72 -24.5q52 0 108 25l4 -62q-40 -24 -125 -24q-161 0 -161 143q0 155 208 248h-800v1454h878l-10 -72h-784v-614h733v-72h-733z" />
    <glyph glyph-name="eogonek" unicode="&#x119;" horiz-adv-x="1128" 
d="M231 473q6 -428 387 -428q114 0 200 36t122 69l21 -68q-30 -30 -95 -57q-211 -105 -211 -232q0 -50 27 -74t72 -24q54 0 108 24l4 -61q-42 -25 -125 -25q-161 0 -161 144q0 121 131 205q-58 -7 -101 -7q-223 0 -340.5 132t-117.5 387q0 237 115.5 373.5t312.5 136.5
q129 0 220.5 -64t134 -167.5t42.5 -235.5v-64h-746zM580 934q-147 0 -242 -100.5t-107 -296.5h670q-1 189 -89.5 293t-231.5 104z" />
    <glyph glyph-name="Ecaron" unicode="&#x11a;" horiz-adv-x="1153" 
d="M676 1518h-70l-213 213l72 12l176 -178l176 178l72 -12zM283 696v-622h794v-74h-878v1454h878l-10 -72h-784v-614h733v-72h-733z" />
    <glyph glyph-name="ecaron" unicode="&#x11b;" horiz-adv-x="1128" 
d="M612 1141h-69l-250 313l74 4l211 -266l210 266l74 -4zM231 473q6 -428 387 -428q114 0 200 36t122 69l21 -68q-46 -40 -139 -73.5t-212 -33.5q-223 0 -340.5 132t-117.5 387q0 237 115.5 373.5t312.5 136.5q129 0 220.5 -64t134 -167.5t42.5 -235.5v-64h-746zM580 934
q-147 0 -242 -100.5t-107 -296.5h670q-1 189 -89.5 293t-231.5 104z" />
    <glyph glyph-name="Gbreve" unicode="&#x11e;" horiz-adv-x="1572" 
d="M799 1513q-208 0 -224 224l58 6q9 -92 50 -131t116 -39q77 0 118 39t50 131l57 -6q-16 -224 -225 -224zM1368 741q47 0 47 -45v-696h-61l-8 281q-66 -154 -205 -230t-328 -76q-315 0 -495.5 199t-180.5 551q0 363 187.5 556.5t506.5 193.5q227 0 366.5 -104t162.5 -290
l-82 -16q-17 156 -136 247t-311 91q-286 0 -448 -179.5t-162 -498.5q0 -318 159 -497t439 -179q111 0 203.5 29t164.5 88t112 158t40 229v121h-487v67h516z" />
    <glyph glyph-name="gbreve" unicode="&#x11f;" horiz-adv-x="1071" 
d="M569 1149q-128 0 -195 70t-77 219l63 4q10 -130 62.5 -180t146.5 -50t146.5 50t62.5 180l64 -4q-10 -148 -77.5 -218.5t-195.5 -70.5zM768 154q133 -1 200.5 -68t67.5 -168q0 -136 -117 -221.5t-341 -85.5q-236 0 -341.5 68t-105.5 206q0 140 152 228q-99 45 -99 145
q0 120 148 207q-121 80 -121 235q0 133 94 218.5t262 85.5q132 0 217 -54q29 89 90 133t164 50l13 -72q-90 -5 -142.5 -39t-77.5 -104q93 -87 93 -216q0 -133 -94 -217t-263 -84q-113 0 -188 37q-69 -42 -97 -79.5t-28 -84.5q0 -64 43.5 -91t138.5 -27zM285 700
q0 -114 75 -176.5t207 -62.5q131 0 207 62.5t76 176.5q0 116 -76 180t-207 64q-132 0 -207 -64t-75 -180zM582 -322q184 0 280 65.5t96 162.5q0 85 -54.5 133.5t-158.5 48.5h-335q-40 0 -58 4q-143 -72 -143 -203q0 -104 84 -157.5t289 -53.5z" />
    <glyph glyph-name="Gdotaccent" unicode="&#x120;" horiz-adv-x="1572" 
d="M801 1569q-28 0 -46 17.5t-18 45.5q0 26 18 44t46 18q27 0 44 -17.5t17 -44.5q0 -28 -16.5 -45.5t-44.5 -17.5zM1368 741q47 0 47 -45v-696h-61l-8 281q-66 -154 -205 -230t-328 -76q-315 0 -495.5 199t-180.5 551q0 363 187.5 556.5t506.5 193.5q227 0 366.5 -104
t162.5 -290l-82 -16q-17 156 -136 247t-311 91q-286 0 -448 -179.5t-162 -498.5q0 -318 159 -497t439 -179q111 0 203.5 29t164.5 88t112 158t40 229v121h-487v67h516z" />
    <glyph glyph-name="gdotaccent" unicode="&#x121;" horiz-adv-x="1071" 
d="M569 1241q-28 0 -46.5 19.5t-18.5 48.5q0 28 18.5 46.5t46.5 18.5t47 -18.5t19 -46.5q0 -29 -19 -48.5t-47 -19.5zM768 154q133 -1 200.5 -68t67.5 -168q0 -136 -117 -221.5t-341 -85.5q-236 0 -341.5 68t-105.5 206q0 140 152 228q-99 45 -99 145q0 120 148 207
q-121 80 -121 235q0 133 94 218.5t262 85.5q132 0 217 -54q29 89 90 133t164 50l13 -72q-90 -5 -142.5 -39t-77.5 -104q93 -87 93 -216q0 -133 -94 -217t-263 -84q-113 0 -188 37q-69 -42 -97 -79.5t-28 -84.5q0 -64 43.5 -91t138.5 -27zM285 700q0 -114 75 -176.5
t207 -62.5q131 0 207 62.5t76 176.5q0 116 -76 180t-207 64q-132 0 -207 -64t-75 -180zM582 -322q184 0 280 65.5t96 162.5q0 85 -54.5 133.5t-158.5 48.5h-335q-40 0 -58 4q-143 -72 -143 -203q0 -104 84 -157.5t289 -53.5z" />
    <glyph glyph-name="Gcommaaccent" unicode="&#x122;" horiz-adv-x="1572" 
d="M1368 741q47 0 47 -45v-696h-61l-8 281q-66 -154 -205 -230t-328 -76q-315 0 -495.5 199t-180.5 551q0 363 187.5 556.5t506.5 193.5q227 0 366.5 -104t162.5 -290l-82 -16q-17 156 -136 247t-311 91q-286 0 -448 -179.5t-162 -498.5q0 -318 159 -497t439 -179
q111 0 203.5 29t164.5 88t112 158t40 229v121h-487v67h516zM819 -100q43 0 64.5 -27t21.5 -74q0 -132 -137 -170l-12 43q43 16 62.5 39.5t19.5 65.5q-86 0 -86 61q0 29 18 45.5t49 16.5z" />
    <glyph glyph-name="gcommaaccent" unicode="&#x123;" horiz-adv-x="1077" 
d="M590 1210q-43 0 -64.5 27t-21.5 74q0 132 137 170l10 -43q-42 -15 -61 -39t-19 -66q86 0 86 -61q0 -29 -18 -45.5t-49 -16.5zM768 154q133 -1 200.5 -68t67.5 -168q0 -136 -117 -221.5t-341 -85.5q-236 0 -341.5 68t-105.5 206q0 140 152 228q-99 45 -99 145
q0 120 148 207q-121 80 -121 235q0 133 94 218.5t262 85.5q132 0 217 -54q29 89 90 133t164 50l13 -72q-90 -5 -142.5 -39t-77.5 -104q93 -87 93 -216q0 -133 -94 -217t-263 -84q-113 0 -188 37q-69 -42 -97 -79.5t-28 -84.5q0 -64 43.5 -91t138.5 -27zM285 700
q0 -114 75 -176.5t207 -62.5q131 0 207 62.5t76 176.5q0 116 -76 180t-207 64q-132 0 -207 -64t-75 -180zM582 -322q184 0 280 65.5t96 162.5q0 85 -54.5 133.5t-158.5 48.5h-335q-40 0 -58 4q-143 -72 -143 -203q0 -104 84 -157.5t289 -53.5z" />
    <glyph glyph-name="Hbar" unicode="&#x126;" horiz-adv-x="1525" 
d="M1456 1171h-164v-1108q66 -8 160 -8l-4 -61q-48 -10 -127 -10q-57 0 -84 19.5t-27 68.5v600h-927v-672h-84v1171h-164v64h164v219h84v-219h927v219h82v-219h164v-64zM1210 748v423h-927v-423h927z" />
    <glyph glyph-name="hbar" unicode="&#x127;" horiz-adv-x="1216" 
d="M987 61q52 -8 154 -8l-4 -61q-93 -6 -115 -6q-65 0 -89 20t-24 78v512q0 336 -301 336q-151 0 -254.5 -104t-103.5 -234v-594h-78v1171h-172v64h172v219h78v-219h377v-64h-377v-393q49 101 145.5 163.5t229.5 62.5q185 0 273.5 -105.5t88.5 -298.5v-539z" />
    <glyph glyph-name="Itilde" unicode="&#x128;" horiz-adv-x="481" 
d="M487 1729q-6 -81 -35 -118.5t-92 -37.5q-44 0 -121 23.5t-114 23.5q-35 0 -53.5 -22.5t-24.5 -77.5l-53 8q12 153 127 153q46 0 123 -23.5t112 -23.5q36 0 55 23t23 78zM199 1454v-1454h84v1454h-84z" />
    <glyph glyph-name="itilde" unicode="&#x129;" horiz-adv-x="421" 
d="M461 1442q-14 -199 -162 -199q-63 0 -165 48t-152 48q-97 0 -109 -143l-55 8q15 195 164 195q63 0 161.5 -47t155.5 -47q48 0 74 32t33 111zM195 61v922h-78v-899q0 -56 24 -77t86 -21q40 0 115 6l4 61q-99 0 -151 8z" />
    <glyph glyph-name="Imacron" unicode="&#x12a;" horiz-adv-x="481" 
d="M70 1647v-66h342v66h-342zM199 1454v-1454h84v1454h-84z" />
    <glyph glyph-name="imacron" unicode="&#x12b;" horiz-adv-x="421" 
d="M-59 1319v-66h428v66h-428zM195 61v922h-78v-899q0 -56 24 -77t86 -21q40 0 115 6l4 61q-99 0 -151 8z" />
    <glyph glyph-name="Iogonek" unicode="&#x12e;" horiz-adv-x="481" 
d="M170 -330q53 0 109 25l4 -62q-40 -24 -125 -24q-162 0 -162 143q0 155 209 248h-6v1454h84v-1454q-211 -106 -211 -231q0 -50 26.5 -74.5t71.5 -24.5z" />
    <glyph glyph-name="iogonek" unicode="&#x12f;" horiz-adv-x="421" 
d="M156 1241q-28 0 -47 19.5t-19 48.5q0 28 19 46.5t47 18.5t46.5 -18.5t18.5 -46.5q0 -29 -18.5 -48.5t-46.5 -19.5zM344 -8q-211 -106 -211 -232q0 -50 26.5 -74t71.5 -24q53 0 109 25l4 -62q-40 -24 -125 -24q-162 0 -162 143q0 148 197 244q-8 -2 -27 -2q-62 0 -86 21
t-24 77v899h78v-922q52 -8 151 -8l-4 -61h2z" />
    <glyph glyph-name="Idotaccent" unicode="&#x130;" horiz-adv-x="481" 
d="M242 1569q28 0 44.5 17.5t16.5 45.5q0 27 -17 44.5t-44 17.5q-28 0 -46 -18t-18 -44q0 -28 18 -45.5t46 -17.5zM199 1454v-1454h84v1454h-84z" />
    <glyph glyph-name="dotlessi" unicode="&#x131;" horiz-adv-x="421" 
d="M195 61v922h-78v-899q0 -56 24 -77t86 -21q40 0 115 6l4 61q-99 0 -151 8z" />
    <glyph glyph-name="IJ" unicode="&#x132;" horiz-adv-x="1234" 
d="M199 1454v-1454h84v1454h-84zM1036 1454h-82v-1108q0 -158 -68.5 -227.5t-213.5 -69.5q-165 0 -285 57l-8 -73q43 -18 71.5 -27.5t90.5 -20t133 -10.5q181 0 271.5 86.5t90.5 276.5v1116z" />
    <glyph glyph-name="ij" unicode="&#x133;" horiz-adv-x="813" 
d="M156 1241q28 0 46.5 19.5t18.5 48.5q0 28 -18.5 46.5t-46.5 18.5t-47 -18.5t-19 -46.5q0 -29 19 -48.5t47 -19.5zM616 1241q28 0 47 19.5t19 48.5q0 28 -19 46.5t-47 18.5t-46.5 -18.5t-18.5 -46.5q0 -29 18.5 -48.5t46.5 -19.5zM195 61v922h-78v-899q0 -56 24 -77
t86 -21q40 0 115 6l4 61q-99 0 -151 8zM655 983h-77v-1194q0 -57 -27 -82.5t-86 -25.5q-50 0 -98 20l-7 -68q38 -22 115 -22q94 0 137 44t43 136v1192z" />
    <glyph glyph-name="Kcommaaccent" unicode="&#x136;" horiz-adv-x="1249" 
d="M1022 131q34 -53 68 -64.5t141 -11.5l-4 -61q-33 -8 -90 -8q-64 0 -101 18t-71 70l-392 598h-290v-672h-84v1454h84v-706h290l555 716l84 -16l-577 -737zM592 -100q43 0 64.5 -27t21.5 -74q0 -132 -137 -170l-13 43q43 16 62.5 39.5t19.5 65.5q-86 0 -86 61
q0 29 18.5 45.5t49.5 16.5z" />
    <glyph glyph-name="kcommaaccent" unicode="&#x137;" horiz-adv-x="995" 
d="M819 74q43 -21 152 -21l-4 -61q-75 -6 -99 -6q-48 0 -76 14.5t-51 52.5l-292 459l-199 -199v-313h-78v1454h78v-1046l584 585l84 -10l-416 -418zM498 -100q43 0 64.5 -27t21.5 -74q0 -132 -138 -170l-12 43q43 16 62.5 39.5t19.5 65.5q-86 0 -86 61q0 29 18.5 45.5
t49.5 16.5z" />
    <glyph glyph-name="kgreenlandic" unicode="&#x138;" horiz-adv-x="1007" 
d="M819 74q43 -21 152 -21l-4 -61q-75 -6 -99 -6q-48 0 -76 14.5t-51 52.5l-295 463l-196 -203v-313h-78v989h78v-579l563 583l84 -10l-397 -412z" />
    <glyph glyph-name="Lacute" unicode="&#x139;" horiz-adv-x="1067" 
d="M457 1722l-168 -209l-72 7l150 217zM283 76h766v-76h-850v1454h84v-1378z" />
    <glyph glyph-name="lacute" unicode="&#x13a;" horiz-adv-x="487" 
d="M317 1737l-149 -217l72 -7l168 209zM172 1454v-1366q0 -57 27.5 -79.5t105.5 -22.5q53 0 123 8l4 59q-143 0 -182 15v1386h-78z" />
    <glyph glyph-name="Lcommaaccent" unicode="&#x13b;" horiz-adv-x="1067" 
d="M283 76h766v-76h-850v1454h84v-1378zM621 -100q43 0 64.5 -27t21.5 -74q0 -132 -138 -170l-12 43q43 16 62.5 39.5t19.5 65.5q-86 0 -86 61q0 29 18.5 45.5t49.5 16.5z" />
    <glyph glyph-name="lcommaaccent" unicode="&#x13c;" horiz-adv-x="487" 
d="M172 1454v-1366q0 -57 27.5 -79.5t105.5 -22.5q53 0 123 8l4 59q-143 0 -182 15v1386h-78zM344 -201q0 -132 -137 -170l-12 43q42 15 61.5 39t19.5 66q-86 0 -86 61q0 29 18.5 45.5t49.5 16.5q43 0 64.5 -27t21.5 -74z" />
    <glyph glyph-name="Lcaron" unicode="&#x13d;" horiz-adv-x="1067" 
d="M762 1454l-64 -375l-69 6l57 375zM283 76h766v-76h-850v1454h84v-1378z" />
    <glyph glyph-name="lcaron" unicode="&#x13e;" horiz-adv-x="450" 
d="M545 1454l-76 6l-57 -375l69 -6zM172 1454v-1366q0 -57 27.5 -79.5t105.5 -22.5q53 0 123 8l4 59q-143 0 -182 15v1386h-78z" />
    <glyph glyph-name="Ldot" unicode="&#x13f;" horiz-adv-x="1067" 
d="M283 76h766v-76h-850v1454h84v-1378zM819 530q-35 0 -58.5 24t-23.5 58t23.5 57t58.5 23t57.5 -23t22.5 -57t-22.5 -58t-57.5 -24z" />
    <glyph glyph-name="ldot" unicode="&#x140;" horiz-adv-x="708" 
d="M172 1454v-1366q0 -57 27.5 -79.5t105.5 -22.5q53 0 123 8l4 59q-143 0 -182 15v1386h-78zM549 530q35 0 57.5 24t22.5 58t-22.5 57t-57.5 23t-58.5 -23t-23.5 -57t23.5 -58t58.5 -24z" />
    <glyph glyph-name="Lslash" unicode="&#x141;" horiz-adv-x="1067" 
d="M283 76h766v-76h-850v670l-179 -60v70l179 57v717h84v-688l364 119v-70l-364 -119v-620z" />
    <glyph glyph-name="lslash" unicode="&#x142;" horiz-adv-x="497" 
d="M442 821l-186 -71v-682q39 -15 182 -15l-4 -59q-70 -8 -123 -8q-78 0 -105.5 22.5t-27.5 79.5v631l-158 -62v70l158 61v666h78v-637l186 72v-68z" />
    <glyph glyph-name="Nacute" unicode="&#x143;" horiz-adv-x="1497" 
d="M965 1722l-168 -209l-72 7l149 217zM1217 1454h81v-1454h-73l-944 1319v-1319h-82v1448l75 18l943 -1323v1311z" />
    <glyph glyph-name="nacute" unicode="&#x144;" horiz-adv-x="1247" 
d="M877 1452l-224 -326h-71l202 334zM1020 61q49 -8 151 -8l-4 -61q-93 -6 -114 -6q-65 0 -88 19.5t-23 74.5v516q0 336 -303 336q-151 0 -254.5 -104t-103.5 -234v-594h-78v903q-22 16 -48.5 20.5t-78.5 4.5l2 59q35 10 67 10q136 0 136 -139v-80q49 101 145.5 163.5
t230.5 62.5q185 0 274 -105.5t89 -298.5v-539z" />
    <glyph glyph-name="Ncommaaccent" unicode="&#x145;" horiz-adv-x="1497" 
d="M1217 1454h81v-1454h-73l-944 1319v-1319h-82v1448l75 18l943 -1323v1311zM756 -100q43 0 64.5 -27t21.5 -74q0 -132 -137 -170l-13 43q43 16 62.5 39.5t19.5 65.5q-86 0 -86 61q0 29 18.5 45.5t49.5 16.5z" />
    <glyph glyph-name="ncommaaccent" unicode="&#x146;" horiz-adv-x="1247" 
d="M1020 61q49 -8 151 -8l-4 -61q-93 -6 -114 -6q-65 0 -88 19.5t-23 74.5v516q0 336 -303 336q-151 0 -254.5 -104t-103.5 -234v-594h-78v903q-22 16 -48.5 20.5t-78.5 4.5l2 59q35 10 67 10q136 0 136 -139v-80q49 101 145.5 163.5t230.5 62.5q185 0 274 -105.5t89 -298.5
v-539zM633 -100q43 0 64.5 -27t21.5 -74q0 -132 -137 -170l-13 43q43 16 62.5 39.5t19.5 65.5q-86 0 -86 61q0 29 18.5 45.5t49.5 16.5z" />
    <glyph glyph-name="Ncaron" unicode="&#x147;" horiz-adv-x="1497" 
d="M803 1518h-70l-213 213l72 12l176 -178l176 178l72 -12zM1217 1454h81v-1454h-73l-944 1319v-1319h-82v1448l75 18l943 -1323v1311z" />
    <glyph glyph-name="ncaron" unicode="&#x148;" horiz-adv-x="1247" 
d="M666 1141h-70l-250 313l74 4l211 -266l211 266l73 -4zM1020 61q49 -8 151 -8l-4 -61q-93 -6 -114 -6q-65 0 -88 19.5t-23 74.5v516q0 336 -303 336q-151 0 -254.5 -104t-103.5 -234v-594h-78v903q-22 16 -48.5 20.5t-78.5 4.5l2 59q35 10 67 10q136 0 136 -139v-80
q49 101 145.5 163.5t230.5 62.5q185 0 274 -105.5t89 -298.5v-539z" />
    <glyph glyph-name="Eng" unicode="&#x14a;" horiz-adv-x="1497" 
d="M1217 1454h81v-1642q0 -106 -42.5 -153.5t-137.5 -47.5q-70 0 -114 22l6 66q51 -21 100 -21q59 0 85 28.5t26 100.5v197l-940 1315v-1319h-82v1448l75 18l943 -1323v1311z" />
    <glyph glyph-name="eng" unicode="&#x14b;" horiz-adv-x="1150" 
d="M657 1004q185 0 274 -105.5t89 -298.5v-788q0 -106 -42.5 -153.5t-137.5 -47.5q-76 0 -115 22l4 66q51 -21 100 -21q59 0 86 29t27 100v789q0 336 -303 336q-151 0 -254.5 -104t-103.5 -234v-594h-78v903q-22 16 -48.5 20.5t-78.5 4.5l2 59q35 10 67 10q136 0 136 -139
v-80q49 101 145.5 163.5t230.5 62.5z" />
    <glyph glyph-name="Omacron" unicode="&#x14c;" horiz-adv-x="1630" 
d="M543 1647v-66h544v66h-544zM815 -25q156 0 284.5 57t214 157t132.5 237.5t47 298.5t-47 298.5t-132.5 237.5t-214 157t-284.5 57t-284.5 -57t-214 -157t-132.5 -237.5t-47 -298.5t47 -298.5t132.5 -237.5t214 -157t284.5 -57zM815 49q-273 0 -433.5 186.5t-160.5 489.5
t161 489.5t433 186.5q273 0 433.5 -186.5t160.5 -489.5t-160.5 -489.5t-433.5 -186.5z" />
    <glyph glyph-name="omacron" unicode="&#x14d;" horiz-adv-x="1230" 
d="M324 1319v-66h585v66h-585zM152 487q0 -241 127.5 -376.5t336.5 -135.5t336 135.5t127 376.5q0 242 -127.5 379.5t-335.5 137.5q-209 0 -336.5 -136.5t-127.5 -380.5zM231 487q0 210 104 328.5t281 118.5q176 0 280.5 -118.5t104.5 -328.5q0 -209 -104.5 -325.5
t-280.5 -116.5q-177 0 -281 116.5t-104 325.5z" />
    <glyph glyph-name="Ohungarumlaut" unicode="&#x150;" horiz-adv-x="1630" 
d="M797 1737l-150 -217l72 -7l168 209zM1006 1737l-150 -217l72 -7l168 209zM815 -25q156 0 284.5 57t214 157t132.5 237.5t47 298.5t-47 298.5t-132.5 237.5t-214 157t-284.5 57t-284.5 -57t-214 -157t-132.5 -237.5t-47 -298.5t47 -298.5t132.5 -237.5t214 -157t284.5 -57
zM815 49q-273 0 -433.5 186.5t-160.5 489.5t161 489.5t433 186.5q273 0 433.5 -186.5t160.5 -489.5t-160.5 -489.5t-433.5 -186.5z" />
    <glyph glyph-name="ohungarumlaut" unicode="&#x151;" horiz-adv-x="1230" 
d="M596 1460l-203 -334h72l223 326zM840 1460l-203 -334h72l223 326zM152 487q0 -241 127.5 -376.5t336.5 -135.5t336 135.5t127 376.5q0 242 -127.5 379.5t-335.5 137.5q-209 0 -336.5 -136.5t-127.5 -380.5zM231 487q0 210 104 328.5t281 118.5q176 0 280.5 -118.5
t104.5 -328.5q0 -209 -104.5 -325.5t-280.5 -116.5q-177 0 -281 116.5t-104 325.5z" />
    <glyph glyph-name="OE" unicode="&#x152;" horiz-adv-x="2375" 
d="M1505 696v-622h795v-74h-879v360q-80 -179 -236.5 -282t-369.5 -103q-156 0 -284.5 57t-214 157t-132.5 237.5t-47 298.5t47 298.5t132.5 237.5t214 157t284.5 57q213 0 369.5 -103t236.5 -282v364h879l-8 -72h-787v-614h733v-72h-733zM815 49q273 0 433.5 186.5
t160.5 489.5t-160.5 489.5t-433.5 186.5q-272 0 -433 -186.5t-161 -489.5t160.5 -489.5t433.5 -186.5z" />
    <glyph glyph-name="oe" unicode="&#x153;" horiz-adv-x="1978" 
d="M1079 473v-4q4 -214 104 -319t285 -105q114 0 200 36t122 69l20 -68q-46 -40 -139 -73.5t-213 -33.5q-160 0 -267 69t-153 204q-54 -132 -164 -202.5t-258 -70.5q-209 0 -336.5 135.5t-127.5 376.5q0 244 127.5 380.5t336.5 136.5q148 0 258 -72t164 -205
q46 132 147 204.5t242 72.5q130 0 222 -64t135 -167.5t43 -235.5v-64h-748zM1430 934q-148 0 -243.5 -100.5t-105.5 -296.5h670q-1 189 -90 293t-231 104zM616 45q176 0 280.5 116.5t104.5 325.5q0 210 -104.5 328.5t-280.5 118.5q-177 0 -281 -118.5t-104 -328.5
q0 -209 104 -325.5t281 -116.5z" />
    <glyph glyph-name="Racute" unicode="&#x154;" horiz-adv-x="1323" 
d="M803 1722l-168 -209l-72 7l150 217zM1073 133q33 -53 69 -65.5t144 -12.5l-8 -61q-36 -8 -92 -8q-62 0 -104 22.5t-81 85.5l-337 537h-355v-631h-82v1382h-172v62q92 16 148 16q60 0 86 -26q134 41 329 41q276 0 413.5 -114t137.5 -325q0 -191 -108.5 -292.5
t-304.5 -112.5zM309 1376v-674h404q372 0 372 338q0 363 -471 363q-152 0 -305 -27z" />
    <glyph glyph-name="racute" unicode="&#x155;" horiz-adv-x="647" 
d="M600 1452l-223 -326h-72l203 334zM549 1004q35 0 74 -11l-7 -78q-27 9 -69 9q-61 0 -113 -38.5t-84 -97.5t-49.5 -122.5t-17.5 -118.5v-547h-78v903q-36 25 -129 25l2 59q35 10 72 10q57 0 95 -36.5t38 -114.5v-84q41 111 111 176.5t155 65.5z" />
    <glyph glyph-name="Rcommaaccent" unicode="&#x156;" horiz-adv-x="1323" 
d="M1073 133q33 -53 69 -65.5t144 -12.5l-8 -61q-36 -8 -92 -8q-62 0 -104 22.5t-81 85.5l-337 537h-355v-631h-82v1382h-172v62q92 16 148 16q60 0 86 -26q134 41 329 41q276 0 413.5 -114t137.5 -325q0 -191 -108.5 -292.5t-304.5 -112.5zM309 1376v-674h404
q372 0 372 338q0 363 -471 363q-152 0 -305 -27zM662 -100q43 0 64.5 -27t21.5 -74q0 -132 -138 -170l-12 43q43 16 62.5 39.5t19.5 65.5q-86 0 -86 61q0 29 18.5 45.5t49.5 16.5z" />
    <glyph glyph-name="rcommaaccent" unicode="&#x157;" horiz-adv-x="647" 
d="M549 1004q35 0 74 -11l-7 -78q-27 9 -69 9q-61 0 -113 -38.5t-84 -97.5t-49.5 -122.5t-17.5 -118.5v-547h-78v903q-36 25 -129 25l2 59q35 10 72 10q57 0 95 -36.5t38 -114.5v-84q41 111 111 176.5t155 65.5zM254 -100q43 0 64.5 -27t21.5 -74q0 -132 -137 -170l-13 43
q43 16 62.5 39.5t19.5 65.5q-86 0 -86 61q0 29 18.5 45.5t49.5 16.5z" />
    <glyph glyph-name="Rcaron" unicode="&#x158;" horiz-adv-x="1323" 
d="M641 1518h-70l-213 213l72 12l176 -178l176 178l72 -12zM1073 133q33 -53 69 -65.5t144 -12.5l-8 -61q-36 -8 -92 -8q-62 0 -104 22.5t-81 85.5l-337 537h-355v-631h-82v1382h-172v62q92 16 148 16q60 0 86 -26q134 41 329 41q276 0 413.5 -114t137.5 -325
q0 -191 -108.5 -292.5t-304.5 -112.5zM309 1376v-674h404q372 0 372 338q0 363 -471 363q-152 0 -305 -27z" />
    <glyph glyph-name="rcaron" unicode="&#x159;" horiz-adv-x="647" 
d="M389 1141h-70l-249 313l73 4l211 -266l211 266l74 -4zM283 762q41 111 111 176.5t155 65.5q35 0 74 -11l-7 -78q-27 9 -69 9q-61 0 -113 -38.5t-84 -97.5t-49.5 -122.5t-17.5 -118.5v-547h-78v903q-36 25 -129 25l2 59q35 10 72 10q57 0 95 -36.5t38 -114.5v-84z" />
    <glyph glyph-name="Sacute" unicode="&#x15a;" 
d="M674 1737l-150 -217l72 -7l168 209zM203 1094q0 152 91.5 231.5t276.5 79.5q187 0 285 -64.5t123 -201.5l78 16q-26 158 -141.5 239t-344.5 81q-215 0 -331.5 -98.5t-116.5 -284.5q0 -90 31 -157t83 -107t120 -67.5t142.5 -45t149.5 -33.5t143 -39.5t120 -56.5t83 -90
t31 -136q0 -83 -31 -144t-88.5 -97t-132 -53t-168.5 -17q-141 0 -269.5 43t-203.5 94l-12 -82q216 -129 485 -129q254 0 378 101t124 289q0 90 -31 157t-83.5 106.5t-120 67.5t-142.5 45.5t-150.5 34t-143 39.5t-120 56t-83.5 89.5t-31 133.5z" />
    <glyph glyph-name="sacute" unicode="&#x15b;" horiz-adv-x="1069" 
d="M668 1460l-203 -334h72l223 326zM506 1004q-178 0 -266 -77.5t-88 -197.5q0 -81 38 -135t98.5 -79t134 -40t147 -27.5t134 -32t98.5 -62t38 -109.5q0 -96 -71.5 -147.5t-236.5 -51.5q-213 0 -360 107l-14 -74q147 -103 377 -103q383 0 383 275q0 80 -38 132.5t-98.5 77.5
t-134 40t-146.5 27.5t-133.5 31.5t-98.5 61.5t-38 108.5q0 93 65.5 149t215.5 56q147 0 218 -54t81 -137l76 15q-2 31 -13 62t-38.5 65t-68.5 59.5t-108.5 42.5t-152.5 17z" />
    <glyph glyph-name="Scedilla" unicode="&#x15e;" 
d="M1108 365q0 -186 -123.5 -288t-374.5 -102l-10 -49q81 0 127.5 -31.5t46.5 -97.5q0 -99 -68.5 -143.5t-205.5 -44.5l10 59q199 0 199 125q0 50 -38 70t-132 20l20 94q-242 9 -438 127l12 82q75 -51 203.5 -94t269.5 -43q94 0 168.5 17t132 53t88.5 97t31 144
q0 79 -31 136t-83 90t-120 56.5t-143 39.5t-149.5 33.5t-142.5 45t-120 67.5t-83 107t-31 157q0 186 116.5 284.5t331.5 98.5q229 0 344.5 -81t141.5 -239l-78 -16q-25 137 -123 201.5t-285 64.5q-185 0 -276.5 -79.5t-91.5 -231.5q0 -77 31 -133.5t83.5 -89.5t120 -56
t142.5 -39.5t150.5 -34t143 -45.5t120 -67.5t83.5 -106.5t31 -157z" />
    <glyph glyph-name="scedilla" unicode="&#x15f;" horiz-adv-x="1069" 
d="M918 250q0 -47 -10.5 -86t-36 -74t-65.5 -59t-102.5 -39t-144.5 -17l-10 -49q81 0 127.5 -31.5t46.5 -97.5q0 -99 -68.5 -143.5t-205.5 -44.5l10 59q198 0 198 125q0 50 -38 70t-132 20l21 92q-208 5 -350 103l14 74q147 -107 360 -107q165 0 236.5 51.5t71.5 147.5
q0 67 -38 109.5t-98.5 62t-134 32t-147 27.5t-134 40t-98.5 79t-38 135q0 120 88 197.5t266 77.5q85 0 152.5 -17t108.5 -42.5t68.5 -59.5t38.5 -65t13 -62l-76 -15q-10 83 -81 137t-218 54q-150 0 -215.5 -56t-65.5 -149q0 -66 38 -108.5t98.5 -61.5t133.5 -31.5
t146.5 -27.5t134 -40t98.5 -77.5t38 -132.5z" />
    <glyph glyph-name="Scaron" unicode="&#x160;" 
d="M602 1518h-70l-213 213l72 12l176 -178l176 178l72 -12zM203 1094q0 -77 31 -133.5t83.5 -89.5t120 -56t142.5 -39.5t150.5 -34t143 -45.5t120 -67.5t83.5 -106.5t31 -157q0 -188 -124 -289t-378 -101q-269 0 -485 129l12 82q75 -51 203.5 -94t269.5 -43q94 0 168.5 17
t132 53t88.5 97t31 144q0 79 -31 136t-83 90t-120 56.5t-143 39.5t-149.5 33.5t-142.5 45t-120 67.5t-83 107t-31 157q0 186 116.5 284.5t331.5 98.5q229 0 344.5 -81t141.5 -239l-78 -16q-25 137 -123 201.5t-285 64.5q-185 0 -276.5 -79.5t-91.5 -231.5z" />
    <glyph glyph-name="scaron" unicode="&#x161;" horiz-adv-x="1069" 
d="M549 1141h-70l-250 313l74 4l211 -266l211 266l74 -4zM231 729q0 -66 38 -108.5t98.5 -61.5t133.5 -31.5t146.5 -27.5t134 -40t98.5 -77.5t38 -132.5q0 -275 -383 -275q-230 0 -377 103l14 74q147 -107 360 -107q165 0 236.5 51.5t71.5 147.5q0 67 -38 109.5t-98.5 62
t-134 32t-147 27.5t-134 40t-98.5 79t-38 135q0 120 88 197.5t266 77.5q85 0 152.5 -17t108.5 -42.5t68.5 -59.5t38.5 -65t13 -62l-76 -15q-10 83 -81 137t-218 54q-150 0 -215.5 -56t-65.5 -149z" />
    <glyph glyph-name="uni0162" unicode="&#x162;" horiz-adv-x="1120" 
d="M602 0h-16l-15 -74q81 0 127.5 -31.5t46.5 -97.5q0 -99 -68.5 -143.5t-205.5 -44.5l10 59q199 0 199 125q0 50 -38 70t-132 20l27 117h-19v1378h-500v66q110 10 295 10h791v-76h-502v-1378z" />
    <glyph glyph-name="uni0163" unicode="&#x163;" horiz-adv-x="632" 
d="M633 918h-336v-713q0 -92 35.5 -126t103.5 -34q84 0 160 33l6 -70q-85 -33 -174 -33l-10 -49q81 0 127.5 -31.5t46.5 -97.5q0 -99 -69 -143.5t-206 -44.5l11 59q198 0 198 125q0 50 -38 70t-132 20l21 94q-78 10 -118 62t-40 168v711h-184v65h184v287h78v-287h336v-65z
" />
    <glyph glyph-name="Tcaron" unicode="&#x164;" horiz-adv-x="1120" 
d="M596 1518h-70l-213 213l72 12l176 -178l176 178l72 -12zM1104 1454v-76h-502v-1378h-84v1378h-500v66q110 10 295 10h791z" />
    <glyph glyph-name="tcaron" unicode="&#x165;" horiz-adv-x="661" 
d="M678 1460l78 -6l-66 -375l-69 6zM297 1270v-287h336v-65h-336v-713q0 -92 35.5 -126t103.5 -34q84 0 160 33l6 -70q-85 -33 -174 -33q-104 0 -156.5 49.5t-52.5 182.5v711h-184v65h184v287h78z" />
    <glyph glyph-name="Tbar" unicode="&#x166;" horiz-adv-x="1120" 
d="M1104 1378h-502v-626h260v-70h-260v-682h-84v682h-262v70h262v626h-500v66q110 10 295 10h791v-76z" />
    <glyph glyph-name="tbar" unicode="&#x167;" horiz-adv-x="708" 
d="M633 918h-336v-318h313v-65h-313v-330q0 -92 35.5 -126t103.5 -34q84 0 160 33l6 -70q-85 -33 -174 -33q-104 0 -156.5 49.5t-52.5 182.5v328h-184v65h184v318h-184v65h184v287h78v-287h336v-65z" />
    <glyph glyph-name="Utilde" unicode="&#x168;" horiz-adv-x="1490" 
d="M991 1729q-6 -81 -35 -118.5t-92 -37.5q-44 0 -121 23.5t-114 23.5q-35 0 -53.5 -22.5t-24.5 -77.5l-53 8q12 153 127 153q46 0 123 -23.5t112 -23.5q36 0 55 23t23 78zM1305 1454h-84v-905q0 -253 -117 -377.5t-352 -124.5q-231 0 -343 124.5t-112 381.5v807
q0 53 -23 75.5t-77 22.5q-89 0 -154 -14v-60h172v-831q0 -293 130.5 -435.5t406.5 -142.5q553 0 553 574v905z" />
    <glyph glyph-name="utilde" unicode="&#x169;" 
d="M426 1339q-97 0 -109 -143l-55 8q15 195 164 195q62 0 161 -47t156 -47q48 0 74 32t33 111l55 -6q-14 -199 -162 -199q-63 0 -165 48t-152 48zM997 63q58 -10 152 -10l-4 -61q-54 -6 -103 -6q-63 0 -92.5 27t-29.5 98v112q-56 -118 -160.5 -183t-245.5 -65
q-165 0 -238 87.5t-73 295.5v545q-40 25 -127 25l2 59q32 8 72 8q69 0 100 -30.5t31 -98.5v-495q0 -176 57 -250t197 -74q92 0 167.5 36t121.5 92.5t71 121.5t25 129v557h77v-920z" />
    <glyph glyph-name="Umacron" unicode="&#x16a;" horiz-adv-x="1490" 
d="M473 1647v-66h545v66h-545zM1305 1454h-84v-905q0 -253 -117 -377.5t-352 -124.5q-231 0 -343 124.5t-112 381.5v807q0 53 -23 75.5t-77 22.5q-89 0 -154 -14v-60h172v-831q0 -293 130.5 -435.5t406.5 -142.5q553 0 553 574v905z" />
    <glyph glyph-name="umacron" unicode="&#x16b;" 
d="M893 1319v-66h-586v66h586zM997 63q58 -10 152 -10l-4 -61q-54 -6 -103 -6q-63 0 -92.5 27t-29.5 98v112q-56 -118 -160.5 -183t-245.5 -65q-165 0 -238 87.5t-73 295.5v545q-40 25 -127 25l2 59q32 8 72 8q69 0 100 -30.5t31 -98.5v-495q0 -176 57 -250t197 -74
q92 0 167.5 36t121.5 92.5t71 121.5t25 129v557h77v-920z" />
    <glyph glyph-name="Uring" unicode="&#x16e;" horiz-adv-x="1490" 
d="M745 1497q70 0 112 40t42 108q0 66 -42 105.5t-112 39.5q-69 0 -110 -39.5t-41 -105.5q0 -68 41 -108t110 -40zM745 1538q-47 0 -75.5 29t-28.5 78q0 47 28.5 75.5t75.5 28.5q48 0 77.5 -28.5t29.5 -75.5q0 -49 -29.5 -78t-77.5 -29zM1305 1454h-84v-905
q0 -253 -117 -377.5t-352 -124.5q-231 0 -343 124.5t-112 381.5v807q0 53 -23 75.5t-77 22.5q-89 0 -154 -14v-60h172v-831q0 -293 130.5 -435.5t406.5 -142.5q553 0 553 574v905z" />
    <glyph glyph-name="uring" unicode="&#x16f;" 
d="M600 1126q-87 0 -136.5 49t-49.5 128q0 78 49.5 127t136.5 49t136.5 -49t49.5 -127q0 -79 -49.5 -128t-136.5 -49zM600 1436q-65 0 -100 -37.5t-35 -95.5t35 -96t100 -38t100 38t35 96t-35 95.5t-100 37.5zM997 63q58 -10 152 -10l-4 -61q-54 -6 -103 -6q-63 0 -92.5 27
t-29.5 98v112q-56 -118 -160.5 -183t-245.5 -65q-165 0 -238 87.5t-73 295.5v545q-40 25 -127 25l2 59q32 8 72 8q69 0 100 -30.5t31 -98.5v-495q0 -176 57 -250t197 -74q92 0 167.5 36t121.5 92.5t71 121.5t25 129v557h77v-920z" />
    <glyph glyph-name="Uhungarumlaut" unicode="&#x170;" horiz-adv-x="1490" 
d="M727 1737l-149 -217l71 -7l168 209zM936 1737l-150 -217l72 -7l168 209zM1305 1454h-84v-905q0 -253 -117 -377.5t-352 -124.5q-231 0 -343 124.5t-112 381.5v807q0 53 -23 75.5t-77 22.5q-89 0 -154 -14v-60h172v-831q0 -293 130.5 -435.5t406.5 -142.5q553 0 553 574
v905z" />
    <glyph glyph-name="uhungarumlaut" unicode="&#x171;" 
d="M674 1452l-223 -326h-72l203 334zM694 1126h-71l202 334l93 -8zM997 63q58 -10 152 -10l-4 -61q-54 -6 -103 -6q-63 0 -92.5 27t-29.5 98v112q-56 -118 -160.5 -183t-245.5 -65q-165 0 -238 87.5t-73 295.5v545q-40 25 -127 25l2 59q32 8 72 8q69 0 100 -30.5t31 -98.5
v-495q0 -176 57 -250t197 -74q92 0 167.5 36t121.5 92.5t71 121.5t25 129v557h77v-920z" />
    <glyph glyph-name="Uogonek" unicode="&#x172;" horiz-adv-x="1490" 
d="M1221 1454h84v-905q0 -418 -291 -531q-211 -106 -211 -231q0 -50 26.5 -74t71.5 -24q55 0 109 24l4 -61q-42 -25 -125 -25q-162 0 -162 144q0 124 139 211q-61 -7 -114 -7q-276 0 -406.5 142.5t-130.5 435.5v831h-172v60q65 14 154 14q54 0 77 -22.5t23 -75.5v-807
q0 -257 112 -381.5t343 -124.5q235 0 352 124.5t117 377.5v905z" />
    <glyph glyph-name="uogonek" unicode="&#x173;" 
d="M1149 53l-4 -61h-2h2q-211 -106 -211 -232q0 -50 26.5 -74t71.5 -24q53 0 109 25l4 -62q-40 -24 -125 -24q-162 0 -162 143q0 150 197 242h-13q-63 0 -92.5 27t-29.5 98v112q-56 -118 -160.5 -183t-245.5 -65q-165 0 -238 87.5t-73 295.5v545q-40 25 -127 25l2 59
q32 8 72 8q69 0 100 -30.5t31 -98.5v-495q0 -176 57 -250t197 -74q92 0 167.5 36t121.5 92.5t71 121.5t25 129v557h77v-920q58 -10 152 -10z" />
    <glyph glyph-name="Wcircumflex" unicode="&#x174;" horiz-adv-x="1974" 
d="M1038 1696l-176 -178l-71 12l213 213h69l213 -213l-72 -12zM1868 1466l82 -18l-453 -1448h-94l-365 1333l-364 -1333h-94l-426 1384h-150v60q67 16 129 16q49 0 74.5 -18.5t40.5 -69.5l379 -1257l364 1339h94l365 -1341z" />
    <glyph glyph-name="wcircumflex" unicode="&#x175;" horiz-adv-x="1460" 
d="M764 1417l-211 -266l-74 4l250 313h70l250 -313l-74 -4zM1352 993l78 -12l-320 -981h-72l-274 881l-272 -881h-72l-299 909q-41 15 -131 15l2 61q48 8 84 8q55 0 84.5 -22.5t46.5 -77.5l250 -795l266 885h82l268 -891z" />
    <glyph glyph-name="Ycircumflex" unicode="&#x176;" horiz-adv-x="1241" 
d="M647 1696l-176 -178l-72 12l213 213h70l213 -213l-72 -12zM1149 1466l78 -18l-539 -842v-606h-82v606l-463 778h-149v60q48 16 108 16q55 0 79 -14.5t55 -67.5l411 -702z" />
    <glyph glyph-name="ycircumflex" unicode="&#x177;" horiz-adv-x="1005" 
d="M514 1417l-211 -266l-74 4l250 313h70l250 -313l-74 -4zM903 993l82 -12l-489 -1196q-36 -89 -96 -131.5t-160 -42.5q-50 0 -123 22l-8 74q81 -26 131 -26q73 0 117 27t71 97l78 193l-400 911q-34 15 -96 15l2 61q32 8 62 8q44 0 71 -20t48 -70l352 -811z" />
    <glyph glyph-name="Ydieresis" unicode="&#x178;" horiz-adv-x="1241" 
d="M510 1563q-24 0 -39.5 14.5t-15.5 40.5t15.5 40.5t39.5 14.5q25 0 41 -14.5t16 -40.5t-16 -40.5t-41 -14.5zM782 1563q-24 0 -39.5 14.5t-15.5 40.5t15.5 40.5t39.5 14.5q25 0 41.5 -14.5t16.5 -40.5t-16.5 -40.5t-41.5 -14.5zM1149 1466l78 -18l-539 -842v-606h-82v606
l-463 778h-149v60q48 16 108 16q55 0 79 -14.5t55 -67.5l411 -702z" />
    <glyph glyph-name="Zacute" unicode="&#x179;" horiz-adv-x="1247" 
d="M852 1722l-168 -209l-72 7l150 217zM1171 1393l-966 -1319h958v-74h-1052l-11 59l967 1323h-938v62q118 10 258 10h774z" />
    <glyph glyph-name="zacute" unicode="&#x17a;" horiz-adv-x="958" 
d="M735 1452l-223 -326h-72l203 334zM883 913l-717 -845h717v-68h-797l-10 70l717 845h-678v68h757z" />
    <glyph glyph-name="Zdotaccent" unicode="&#x17b;" horiz-adv-x="1247" 
d="M657 1569q-28 0 -45.5 17.5t-17.5 45.5q0 26 18 44t45 18t44.5 -17.5t17.5 -44.5q0 -28 -17 -45.5t-45 -17.5zM1171 1393l-966 -1319h958v-74h-1052l-11 59l967 1323h-938v62q118 10 258 10h774z" />
    <glyph glyph-name="zdotaccent" unicode="&#x17c;" horiz-adv-x="958" 
d="M489 1241q-28 0 -46.5 19.5t-18.5 48.5q0 28 18.5 46.5t46.5 18.5t47 -18.5t19 -46.5q0 -29 -19 -48.5t-47 -19.5zM883 913l-717 -845h717v-68h-797l-10 70l717 845h-678v68h757z" />
    <glyph glyph-name="Zcaron" unicode="&#x17d;" horiz-adv-x="1247" 
d="M690 1518h-69l-213 213l71 12l176 -178l176 178l72 -12zM1171 1393l-966 -1319h958v-74h-1052l-11 59l967 1323h-938v62q118 10 258 10h774z" />
    <glyph glyph-name="zcaron" unicode="&#x17e;" horiz-adv-x="958" 
d="M524 1141h-69l-250 313l74 4l210 -266l211 266l74 -4zM883 913l-717 -845h717v-68h-797l-10 70l717 845h-678v68h757z" />
    <glyph glyph-name="uni01EA" unicode="&#x1ea;" horiz-adv-x="1630" 
d="M1493 725q0 -252 -111 -439.5t-309 -265.5h2q-211 -106 -211 -231q0 -50 27 -74t72 -24q54 0 108 24l4 -61q-42 -25 -125 -25q-162 0 -162 144q0 125 138 211q-52 -9 -111 -9q-156 0 -284.5 57t-214 157t-132.5 237.5t-47 298.5t47 298.5t132.5 237.5t214 157t284.5 57
t284.5 -57t214 -157t132.5 -237.5t47 -298.5zM815 49q273 0 433.5 186.5t160.5 489.5t-160.5 489.5t-433.5 186.5q-272 0 -433 -186.5t-161 -489.5t160.5 -489.5t433.5 -186.5z" />
    <glyph glyph-name="uni01EB" unicode="&#x1eb;" horiz-adv-x="1230" 
d="M1079 487q0 -169 -63 -286.5t-178 -175.5q-211 -105 -211 -232q0 -50 26.5 -74t71.5 -24q55 0 109 24l4 -61q-42 -25 -125 -25q-162 0 -162 144q0 120 125 203q-50 -5 -60 -5q-209 0 -336.5 135.5t-127.5 376.5q0 244 127.5 380.5t336.5 136.5q208 0 335.5 -137.5
t127.5 -379.5zM616 45q176 0 280.5 116.5t104.5 325.5q0 210 -104.5 328.5t-280.5 118.5q-177 0 -281 -118.5t-104 -328.5q0 -209 104 -325.5t281 -116.5z" />
    <glyph glyph-name="AEacute" unicode="&#x1fc;" horiz-adv-x="1873" 
d="M1280 1722l-168 -209l-72 7l150 217zM1083 696v-622h715v-74h-797v696h-550l-326 -696h-86l690 1454h1069l-10 -72h-705v-614h654v-72h-654zM485 768h516v614h-227z" />
    <glyph glyph-name="aeacute" unicode="&#x1fd;" horiz-adv-x="1847" 
d="M1182 1452l-224 -326h-71l203 334zM950 473q6 -428 389 -428q113 0 198.5 36t121.5 69l20 -68q-46 -40 -138.5 -73.5t-211.5 -33.5q-334 0 -426 287q-53 -134 -173.5 -210.5t-262.5 -76.5q-146 0 -230.5 78t-84.5 209q0 140 102 221.5t303 81.5q169 0 313 -39v99
q0 148 -77 229.5t-228 81.5q-139 0 -212.5 -58t-92.5 -176l-78 15q14 66 40 115.5t70 89.5t112.5 61t160.5 21q143 0 235 -59.5t128 -170.5q53 111 147.5 170.5t222.5 59.5q130 0 221.5 -64t134 -167.5t42.5 -235.5v-64h-746zM1298 934q-148 0 -242 -100.5t-104 -296.5h668
q-1 189 -90 293t-232 104zM477 43q84 0 158 30.5t125 81.5t80.5 118t29.5 139v53q-141 37 -307 37q-334 0 -334 -242q0 -104 66 -160.5t182 -56.5z" />
    <glyph glyph-name="Oslashacute" unicode="&#x1fe;" horiz-adv-x="1630" 
d="M1012 1722l-168 -209l-72 7l150 217zM1268 1309q109 -101 167 -252t58 -332q0 -161 -47 -298.5t-132.5 -237.5t-214 -157t-284.5 -57q-233 0 -403 125l-117 -166l-76 11l141 200q-107 100 -165 250t-58 330q0 161 47 298.5t132.5 237.5t214 157t284.5 57q232 0 399 -123
l134 188l75 -10zM221 725q0 -160 47.5 -292.5t137.5 -223.5l763 1079q-148 113 -354 113q-272 0 -433 -186.5t-161 -489.5zM815 49q273 0 433.5 186.5t160.5 489.5q0 162 -48.5 295t-139.5 223l-764 -1079q149 -115 358 -115z" />
    <glyph glyph-name="oslashacute" unicode="&#x1ff;" horiz-adv-x="1230" 
d="M862 1452l-223 -326h-72l203 334zM911 905q168 -142 168 -418q0 -241 -127 -376.5t-336 -135.5q-139 0 -245 62l-74 -117l-66 12l88 142q-167 138 -167 413q0 244 127.5 380.5t336.5 136.5q137 0 246 -64l72 117l65 -10zM231 487q0 -229 127 -350l465 742q-93 55 -207 55
q-177 0 -281 -118.5t-104 -328.5zM616 45q176 0 280.5 116.5t104.5 325.5q0 233 -129 353l-462 -740q85 -55 206 -55z" />
    <glyph glyph-name="Scommaaccent" unicode="&#x218;" 
d="M203 1094q0 152 91.5 231.5t276.5 79.5q187 0 285 -64.5t123 -201.5l78 16q-26 158 -141.5 239t-344.5 81q-215 0 -331.5 -98.5t-116.5 -284.5q0 -90 31 -157t83 -107t120 -67.5t142.5 -45t149.5 -33.5t143 -39.5t120 -56.5t83 -90t31 -136q0 -83 -31 -144t-88.5 -97
t-132 -53t-168.5 -17q-141 0 -269.5 43t-203.5 94l-12 -82q216 -129 485 -129q254 0 378 101t124 289q0 90 -31 157t-83.5 106.5t-120 67.5t-142.5 45.5t-150.5 34t-143 39.5t-120 56t-83.5 89.5t-31 133.5zM678 -201q0 -132 -137 -170l-13 43q43 16 62.5 39.5t19.5 65.5
q-86 0 -86 61q0 29 18.5 45.5t49.5 16.5q43 0 64.5 -27t21.5 -74z" />
    <glyph glyph-name="scommaaccent" unicode="&#x219;" horiz-adv-x="1069" 
d="M506 1004q-178 0 -266 -77.5t-88 -197.5q0 -81 38 -135t98.5 -79t134 -40t147 -27.5t134 -32t98.5 -62t38 -109.5q0 -96 -71.5 -147.5t-236.5 -51.5q-213 0 -360 107l-14 -74q147 -103 377 -103q383 0 383 275q0 80 -38 132.5t-98.5 77.5t-134 40t-146.5 27.5
t-133.5 31.5t-98.5 61.5t-38 108.5q0 93 65.5 149t215.5 56q147 0 218 -54t81 -137l76 15q-2 31 -13 62t-38.5 65t-68.5 59.5t-108.5 42.5t-152.5 17zM627 -201q0 -132 -138 -170l-12 43q43 16 62.5 39.5t19.5 65.5q-86 0 -86 61q0 29 18.5 45.5t49.5 16.5q43 0 64.5 -27
t21.5 -74z" />
    <glyph glyph-name="uni021A" unicode="&#x21a;" horiz-adv-x="1120" 
d="M1104 1454v-76h-502v-1378h-84v1378h-500v66q110 10 295 10h791zM563 -100q43 0 64.5 -27t21.5 -74q0 -132 -137 -170l-12 43q43 16 62.5 39.5t19.5 65.5q-86 0 -86 61q0 29 18 45.5t49 16.5z" />
    <glyph glyph-name="uni021B" unicode="&#x21b;" horiz-adv-x="632" 
d="M633 918h-336v-713q0 -92 35.5 -126t103.5 -34q84 0 160 33l6 -70q-85 -33 -174 -33q-104 0 -156.5 49.5t-52.5 182.5v711h-184v65h184v287h78v-287h336v-65zM410 -100q43 0 64.5 -27t21.5 -74q0 -132 -138 -170l-12 43q43 16 62.5 39.5t19.5 65.5q-86 0 -86 61
q0 29 18.5 45.5t49.5 16.5z" />
    <glyph glyph-name="uni0237" unicode="&#x237;" horiz-adv-x="446" 
d="M289 983h-78v-1194q0 -57 -27 -82.5t-86 -25.5q-50 0 -98 20l-6 -68q38 -22 115 -22q94 0 137 44t43 136v1192z" />
    <glyph glyph-name="circumflex" unicode="&#x2c6;" horiz-adv-x="1036" 
d="M803 1155l-74 -4l-211 266l-211 -266l-74 4l250 313h70z" />
    <glyph glyph-name="caron" unicode="&#x2c7;" horiz-adv-x="1036" 
d="M729 1458l74 -4l-250 -313h-70l-250 313l74 4l211 -266z" />
    <glyph glyph-name="breve" unicode="&#x2d8;" horiz-adv-x="1011" 
d="M715 1442q-10 -130 -62.5 -180t-146.5 -50t-146.5 50t-62.5 180l-64 -4q10 -148 77.5 -218.5t195.5 -70.5t195 70t77 219z" />
    <glyph glyph-name="dotaccent" unicode="&#x2d9;" horiz-adv-x="598" 
d="M299 1241q28 0 47 19.5t19 48.5q0 28 -19 46.5t-47 18.5t-47 -18.5t-19 -46.5q0 -29 19 -48.5t47 -19.5z" />
    <glyph glyph-name="ring" unicode="&#x2da;" horiz-adv-x="839" 
d="M420 1126q87 0 136.5 49t49.5 128q0 78 -49.5 127t-136.5 49t-137 -49t-50 -127t50 -127.5t137 -49.5zM420 1169q-65 0 -100 38t-35 96t35 95.5t100 37.5t100 -37.5t35 -95.5t-35 -96t-100 -38z" />
    <glyph glyph-name="ogonek" unicode="&#x2db;" horiz-adv-x="759" 
d="M233 -248q0 -143 162 -143q85 0 125 24l-4 62q-56 -25 -108 -25q-45 0 -72 24.5t-27 74.5q0 125 211 231l-45 14q-242 -97 -242 -262z" />
    <glyph glyph-name="tilde" unicode="&#x2dc;" horiz-adv-x="1110" 
d="M877 1442q-14 -199 -162 -199q-63 0 -165.5 48t-152.5 48q-96 0 -108 -143l-56 8q15 195 164 195q63 0 162 -47t156 -47q48 0 73.5 32t32.5 111z" />
    <glyph glyph-name="hungarumlaut" unicode="&#x2dd;" horiz-adv-x="1005" 
d="M680 1460l-203 -334h72l223 326zM436 1460l-203 -334h72l223 326z" />
    <glyph glyph-name="uni0326" unicode="&#x326;" horiz-adv-x="0" 
d="M-233 -201q0 -132 -138 -170l-12 43q43 16 62.5 39.5t19.5 65.5q-86 0 -86 61q0 29 18.5 45.5t49.5 16.5q43 0 64.5 -27t21.5 -74z" />
    <glyph glyph-name="Wgrave" unicode="&#x1e80;" horiz-adv-x="1974" 
d="M1071 1520l-72 -7l-168 209l91 15zM1868 1466l82 -18l-453 -1448h-94l-365 1333l-364 -1333h-94l-426 1384h-150v60q67 16 129 16q49 0 74.5 -18.5t40.5 -69.5l379 -1257l364 1339h94l365 -1341z" />
    <glyph glyph-name="wgrave" unicode="&#x1e81;" horiz-adv-x="1460" 
d="M807 1126h-72l-223 326l92 8zM1352 993l78 -12l-320 -981h-72l-274 881l-272 -881h-72l-299 909q-41 15 -131 15l2 61q48 8 84 8q55 0 84.5 -22.5t46.5 -77.5l250 -795l266 885h82l268 -891z" />
    <glyph glyph-name="Wacute" unicode="&#x1e82;" horiz-adv-x="1974" 
d="M1235 1722l-168 -209l-72 7l150 217zM1868 1466l82 -18l-453 -1448h-94l-365 1333l-364 -1333h-94l-426 1384h-150v60q67 16 129 16q49 0 74.5 -18.5t40.5 -69.5l379 -1257l364 1339h94l365 -1341z" />
    <glyph glyph-name="wacute" unicode="&#x1e83;" horiz-adv-x="1460" 
d="M1010 1452l-224 -326h-71l203 334zM1352 993l78 -12l-320 -981h-72l-274 881l-272 -881h-72l-299 909q-41 15 -131 15l2 61q48 8 84 8q55 0 84.5 -22.5t46.5 -77.5l250 -795l266 885h82l268 -891z" />
    <glyph glyph-name="Wdieresis" unicode="&#x1e84;" horiz-adv-x="1974" 
d="M901 1563q-24 0 -39.5 14.5t-15.5 40.5t15.5 40.5t39.5 14.5q25 0 41 -14.5t16 -40.5t-16 -40.5t-41 -14.5zM1174 1563q-24 0 -40 15t-16 40t16 40t40 15q25 0 41 -14.5t16 -40.5t-16 -40.5t-41 -14.5zM1868 1466l82 -18l-453 -1448h-94l-365 1333l-364 -1333h-94
l-426 1384h-150v60q67 16 129 16q49 0 74.5 -18.5t40.5 -69.5l379 -1257l364 1339h94l365 -1341z" />
    <glyph glyph-name="wdieresis" unicode="&#x1e85;" horiz-adv-x="1460" 
d="M629 1245q-26 0 -44 18t-18 44t18 43.5t44 17.5t42.5 -17.5t16.5 -43.5q0 -27 -16.5 -44.5t-42.5 -17.5zM901 1245q-26 0 -42.5 17.5t-16.5 44.5q0 26 16.5 43.5t42.5 17.5q27 0 44.5 -17t17.5 -44t-17.5 -44.5t-44.5 -17.5zM1352 993l78 -12l-320 -981h-72l-274 881
l-272 -881h-72l-299 909q-41 15 -131 15l2 61q48 8 84 8q55 0 84.5 -22.5t46.5 -77.5l250 -795l266 885h82l268 -891z" />
    <glyph glyph-name="Ygrave" unicode="&#x1ef2;" horiz-adv-x="1241" 
d="M680 1520l-72 -7l-168 209l90 15zM1149 1466l78 -18l-539 -842v-606h-82v606l-463 778h-149v60q48 16 108 16q55 0 79 -14.5t55 -67.5l411 -702z" />
    <glyph glyph-name="ygrave" unicode="&#x1ef3;" horiz-adv-x="1005" 
d="M557 1126h-72l-223 326l92 8zM903 993l82 -12l-489 -1196q-36 -89 -96 -131.5t-160 -42.5q-50 0 -123 22l-8 74q81 -26 131 -26q73 0 117 27t71 97l78 193l-400 911q-34 15 -96 15l2 61q32 8 62 8q44 0 71 -20t48 -70l352 -811z" />
    <glyph glyph-name="uni1EF8" unicode="&#x1ef8;" horiz-adv-x="1241" 
d="M530 1620q-35 0 -53 -22.5t-24 -77.5l-54 8q12 153 127 153q46 0 123.5 -23.5t112.5 -23.5q36 0 55 23t23 78l53 -6q-6 -81 -35 -118.5t-92 -37.5q-44 0 -121.5 23.5t-114.5 23.5zM1149 1466l78 -18l-539 -842v-606h-82v606l-463 778h-149v60q48 16 108 16q55 0 79 -14.5
t55 -67.5l411 -702z" />
    <glyph glyph-name="uni1EF9" unicode="&#x1ef9;" horiz-adv-x="1005" 
d="M340 1339q-97 0 -109 -143l-55 8q15 195 164 195q62 0 161 -47t156 -47q48 0 74 32t33 111l55 -6q-14 -199 -162 -199q-63 0 -165 48t-152 48zM903 993l82 -12l-489 -1196q-36 -89 -96 -131.5t-160 -42.5q-50 0 -123 22l-8 74q81 -26 131 -26q73 0 117 27t71 97l78 193
l-400 911q-34 15 -96 15l2 61q32 8 62 8q44 0 71 -20t48 -70l352 -811z" />
    <glyph glyph-name="endash" unicode="&#x2013;" horiz-adv-x="1200" 
d="M1063 623h-926v-70h926v70z" />
    <glyph glyph-name="emdash" unicode="&#x2014;" horiz-adv-x="1794" 
d="M1657 623h-1520v-70h1520v70z" />
    <glyph glyph-name="quoteleft" unicode="&#x2018;" horiz-adv-x="436" 
d="M158 1251q0 -60 25 -92.5t65 -32.5q35 0 53 22t18 54q-37 0 -59 20t-22 54q0 39 13.5 68.5t26 40.5t31.5 24l-30 49q-121 -79 -121 -207z" />
    <glyph glyph-name="quoteright" unicode="&#x2019;" horiz-adv-x="436" 
d="M319 1313q0 60 -25 92.5t-65 32.5q-36 0 -53.5 -22t-17.5 -54q37 0 59.5 -20t22.5 -54q0 -39 -14 -68.5t-26 -40.5t-32 -24l31 -49q120 82 120 207z" />
    <glyph glyph-name="quotesinglbase" unicode="&#x201a;" horiz-adv-x="393" 
d="M276 4q0 59 -25 92t-63 33q-36 0 -53.5 -22t-17.5 -54q37 0 59.5 -19.5t22.5 -53.5q0 -39 -14 -68.5t-26.5 -41t-31.5 -24.5l31 -49q118 81 118 207z" />
    <glyph glyph-name="quotedblleft" unicode="&#x201c;" horiz-adv-x="692" 
d="M160 1251q0 -59 25 -92t63 -33q36 0 53.5 22t17.5 54q-37 0 -59 20t-22 54q0 39 13.5 68.5t26 40.5t31.5 24l-30 49q-119 -81 -119 -207zM414 1251q0 -60 25 -92.5t65 -32.5q35 0 53 22t18 54q-37 0 -59 20t-22 54q0 39 13.5 68.5t26 40.5t31.5 24l-30 49
q-121 -79 -121 -207z" />
    <glyph glyph-name="quotedblright" unicode="&#x201d;" horiz-adv-x="692" 
d="M319 1313q0 60 -25 92.5t-65 32.5q-36 0 -53.5 -22t-17.5 -54q37 0 59.5 -20t22.5 -54q0 -39 -14 -68.5t-26 -40.5t-32 -24l31 -49q120 82 120 207zM573 1313q0 59 -25 92t-63 33q-36 0 -53.5 -22t-17.5 -54q37 0 59.5 -20t22.5 -54q0 -39 -14 -68.5t-26 -40.5t-32 -24
l31 -49q118 81 118 207z" />
    <glyph glyph-name="quotedblbase" unicode="&#x201e;" horiz-adv-x="649" 
d="M276 4q0 59 -25 92t-63 33q-36 0 -53.5 -22t-17.5 -54q37 0 59.5 -19.5t22.5 -53.5q0 -39 -14 -68.5t-26.5 -41t-31.5 -24.5l31 -49q118 81 118 207zM532 4q0 59 -25 92t-63 33q-36 0 -53.5 -22t-17.5 -54q37 0 59.5 -19.5t22.5 -53.5q0 -39 -14 -68.5t-26.5 -41
t-31.5 -24.5l31 -49q118 81 118 207z" />
    <glyph glyph-name="dagger" unicode="&#x2020;" horiz-adv-x="1200" 
d="M1001 1020l-10 -86l-358 16l8 -950h-82l8 950l-358 -16l-10 86l368 -16l-14 450h94l-14 -450z" />
    <glyph glyph-name="daggerdbl" unicode="&#x2021;" horiz-adv-x="1159" 
d="M950 553l11 -82l-349 16l11 -487h-86l10 487l-348 -16l10 82l338 -16v462l-338 -16l-10 82l348 -16l-15 405h95l-15 -405l349 16l-11 -82l-338 16v-462z" />
    <glyph glyph-name="bullet" unicode="&#x2022;" horiz-adv-x="651" 
d="M326 465q68 0 110.5 42.5t42.5 110.5t-43 111t-110 43q-68 0 -111 -43t-43 -111q0 -67 43 -110t111 -43z" />
    <glyph glyph-name="ellipsis" unicode="&#x2026;" horiz-adv-x="1271" 
d="M199 -25q35 0 57.5 24t22.5 58t-22.5 57t-57.5 23t-58.5 -23t-23.5 -57t23.5 -58t58.5 -24zM637 -25q35 0 57.5 24t22.5 58t-22.5 57t-57.5 23t-58.5 -23t-23.5 -57t23.5 -58t58.5 -24zM1075 -25q35 0 57.5 24t22.5 58t-22.5 57t-57.5 23t-58.5 -23t-23.5 -57t23.5 -58
t58.5 -24z" />
    <glyph glyph-name="perthousand" unicode="&#x2030;" horiz-adv-x="2555" 
d="M498 668q169 0 250 106t81 295q0 191 -81 298.5t-250 107.5q-171 0 -252.5 -107t-81.5 -297t81.5 -296.5t252.5 -106.5zM1384 1475l-1052 -1493l78 -7l1052 1493zM498 725q-132 0 -198.5 92.5t-66.5 253.5q0 163 66.5 254.5t198.5 91.5t197 -92t65 -256
q0 -161 -65 -252.5t-197 -91.5zM1300 -25q169 0 250.5 106.5t81.5 295.5q0 191 -81.5 298t-250.5 107q-171 0 -252 -106.5t-81 -296.5t81.5 -297t251.5 -107zM2101 -25q171 0 251.5 106t80.5 296q0 192 -80.5 298.5t-251.5 106.5q-169 0 -250.5 -107t-81.5 -296t81.5 -296.5
t250.5 -107.5zM1300 33q-132 0 -198 92.5t-66 253.5q0 163 66 254.5t198 91.5t197.5 -92t65.5 -256q0 -161 -65.5 -252.5t-197.5 -91.5zM2101 33q-131 0 -196.5 92.5t-65.5 253.5q0 163 65.5 254.5t196.5 91.5q133 0 197.5 -91.5t64.5 -256.5q0 -162 -64.5 -253t-197.5 -91z
" />
    <glyph glyph-name="guilsinglleft" unicode="&#x2039;" horiz-adv-x="630" 
d="M473 881l-315 -299l315 -269l-47 -47l-346 305v17l348 342z" />
    <glyph glyph-name="guilsinglright" unicode="&#x203a;" horiz-adv-x="630" 
d="M203 930l348 -342v-17l-346 -305l-47 47l313 269l-313 299z" />
    <glyph glyph-name="fraction" unicode="&#x2044;" horiz-adv-x="720" 
d="M848 1475l-1053 -1493l78 -7l1053 1493z" />
    <glyph glyph-name="Euro" unicode="&#x20ac;" horiz-adv-x="1433" 
d="M1094 860l-11 -63h-989l10 63h183q11 129 47 232.5t89.5 174.5t124 118t150.5 68.5t170 21.5q228 0 400 -129l-19 -76q-50 37 -94.5 62t-122 48t-162.5 23q-207 0 -339.5 -134t-159.5 -409h723zM1280 178l16 -76q-23 -17 -56 -35t-86.5 -41t-127 -37t-152.5 -14
q-114 0 -209 32.5t-173.5 100t-130 179.5t-70.5 262h-221l10 63h985l-10 -63h-680q24 -171 95.5 -285t174.5 -164.5t238 -50.5q130 0 236 41t161 88z" />
    <glyph glyph-name="trademark" unicode="&#x2122;" horiz-adv-x="1310" 
d="M1130 913q24 -4 64 -4v-39q-48 -6 -66 -6q-26 0 -36.5 11t-12.5 36l-14 465l-191 -432h-40l-197 432l-12 -504h-52l15 517h-228v-517h-53v517h-190v45h545l192 -430l186 430h74z" />
    <glyph glyph-name="minus" unicode="&#x2212;" horiz-adv-x="1175" 
d="M983 686h-790v-72h790v72z" />
    <glyph glyph-name="approxequal" unicode="&#x2248;" horiz-adv-x="1130" 
d="M938 932q-9 -92 -51 -139.5t-125 -47.5q-66 0 -200.5 35t-196.5 35q-101 0 -113 -129l-59 10q9 90 51 137.5t125 47.5q66 0 200.5 -35t196.5 -35q53 0 80 29.5t33 99.5zM938 604q-9 -92 -51 -139t-125 -47q-66 0 -200.5 34.5t-196.5 34.5q-101 0 -113 -129l-59 11
q9 90 51 137t125 47q66 0 200.5 -35t196.5 -35q53 0 80 29.5t33 99.5z" />
    <glyph glyph-name="notequal" unicode="&#x2260;" horiz-adv-x="1245" 
d="M1053 799h-371l-98 -301h469v-68h-492l-76 -233h-77l75 233h-290v68h313l98 301h-411v67h434l78 234h75l-75 -234h348v-67z" />
    <glyph glyph-name="uniF8FF" unicode="&#xf8ff;" horiz-adv-x="2971" 
d="M1415 1194q0 54 36 90.5t89 36.5q54 0 90.5 -36.5t36.5 -90.5q0 -53 -36.5 -89t-90.5 -36q-52 0 -88.5 36.5t-36.5 88.5zM449 553h-244q0 274 18 643h205q1 -10 4 -65t5.5 -108t5.5 -128t4.5 -164t1.5 -178zM1421 553q0 187 6 301h-124l6 -133q8 -8 30 -8q27 0 37 10
v-152q-26 -30 -139 -30q-168 0 -168 135q0 25 4 100.5t4 77.5h-45v162l244 61l2 -35h364q21 -138 21 -489h-242zM672 543q-90 0 -139.5 58t-49.5 175q0 133 68.5 205t206.5 72q128 0 191 -62t63 -178v-260h-170l-17 125q-13 -67 -48 -101t-105 -34zM2232 553h-233
q0 54 2 115t2 75q0 33 -6 46.5t-25 13.5q-23 0 -30 -15t-7 -45q0 -14 3.5 -75t3.5 -115h-234q0 351 21 489h163q13 -97 13 -155q2 20 9 42t23 53t50 51t81 20q87 0 121 -51t37 -166zM2767 801q0 -125 -62 -191.5t-190 -66.5q-127 0 -188.5 66.5t-61.5 187.5q0 53 12 96
t39 80.5t79 58.5t124 21q248 0 248 -252zM799 768q0 53 -49 53q-24 0 -34.5 -12t-10.5 -41q0 -61 45 -61q49 0 49 61zM2562 768q0 53 -47 53q-22 0 -32.5 -12t-10.5 -41q0 -61 43 -61q22 0 34.5 16t12.5 45zM877 487h213q20 -107 20 -282q0 -166 -68.5 -236.5t-242.5 -70.5
q-127 0 -181 34v170q48 -32 144 -32q43 0 69.5 12.5t33.5 24t7 20.5q-35 -23 -100 -23q-184 0 -184 170v27h-113l6 -133q12 -8 31 -8q27 0 37 10v-150q-37 -30 -139 -30q-91 0 -128.5 34.5t-37.5 110.5q0 79 6 166h-37v164l240 59l-2 -37h362v-243q0 -33 6 -44.5t25 -11.5
t26 12.5t7 43.5v243zM1501 498q76 0 120 -60t44 -172q0 -276 -281 -276q2 -31 2 -80h-243q0 292 20 577h160q14 -87 14 -155q3 16 7 29.5t16.5 41t28.5 46.5t46 34t66 15zM2191 260q0 -45 -6 -72h-254q23 -36 103 -36q68 0 112 24v-153q-47 -33 -159 -33q-289 0 -289 250
q0 121 67 189.5t189 68.5q113 0 175 -61.5t62 -176.5zM2003 223q6 56 -35 56q-47 0 -47 -56h82zM1372 147q11 0 26.5 5t32.5 24t17 47q0 47 -41 47q-45 0 -45 -63q0 -30 10 -60zM2200 27q0 -22 13.5 -34.5t35.5 -12.5t35.5 12.5t13.5 34.5t-13.5 34.5t-35.5 12.5
t-35.5 -12.5t-13.5 -34.5zM2212 27q0 36 37 36t37 -36q0 -37 -37 -37t-37 37zM2269 4l-12 19q14 0 14 14t-20 14h-23v-47h10v19h11l8 -19h12zM2253 31h-15v12h15q8 0 8 -6t-8 -6z" />
    <glyph glyph-name="i.loclTRK" horiz-adv-x="421" 
d="M156 1241q28 0 46.5 19.5t18.5 48.5q0 28 -18.5 46.5t-46.5 18.5t-47 -18.5t-19 -46.5q0 -29 19 -48.5t47 -19.5zM195 61v922h-78v-899q0 -56 24 -77t86 -21q40 0 115 6l4 61q-99 0 -151 8z" />
    <glyph glyph-name="f_t" horiz-adv-x="1155" 
d="M1155 918h-336v-713q0 -92 35.5 -126t103.5 -34q82 0 158 33l8 -70q-91 -33 -176 -33q-103 0 -155 49t-52 183v711h-430v-918h-78v918h-198v65h198v221q0 135 57 203t161 68q79 0 157 -29l-8 -70q-77 29 -141 29q-148 0 -148 -201v-221h430v287h78v-287h336v-65z" />
    <glyph glyph-name="caron.alt" horiz-adv-x="600" 
d="M367 1454l-76 6l-58 -375l70 -6z" />
    <glyph glyph-name="acute.case" horiz-adv-x="706" 
d="M383 1737l-150 -217l72 -7l168 209z" />
    <glyph glyph-name="breve.case" horiz-adv-x="915" 
d="M625 1743q-9 -92 -50 -131t-118 -39q-75 0 -116 39t-50 131l-58 -6q16 -224 224 -224q209 0 225 224z" />
    <glyph glyph-name="caron.case" horiz-adv-x="962" 
d="M657 1743l72 -12l-213 -213h-70l-213 213l72 12l176 -178z" />
    <glyph glyph-name="circumflex.case" horiz-adv-x="962" 
d="M729 1530l-72 -12l-176 178l-176 -178l-72 12l213 213h70z" />
    <glyph glyph-name="dieresis.case" horiz-adv-x="851" 
d="M289 1563q25 0 41 14.5t16 40.5t-16 40.5t-41 14.5q-24 0 -40 -15t-16 -40t16 -40t40 -15zM561 1563q25 0 41 14.5t16 40.5t-16 40.5t-41 14.5q-24 0 -39.5 -14.5t-15.5 -40.5t15.5 -40.5t39.5 -14.5z" />
    <glyph glyph-name="dotaccent.case" horiz-adv-x="591" 
d="M297 1569q28 0 44.5 17.5t16.5 45.5q0 27 -17 44.5t-44 17.5q-28 0 -46 -18t-18 -44q0 -28 18 -45.5t46 -17.5z" />
    <glyph glyph-name="grave.case" horiz-adv-x="712" 
d="M330 1737l-90 -15l168 -209l71 7z" />
    <glyph glyph-name="hungarumlaut.case" horiz-adv-x="921" 
d="M383 1737l-150 -217l72 -7l168 209zM592 1737l-150 -217l72 -7l168 209z" />
    <glyph glyph-name="macron.case" horiz-adv-x="1011" 
d="M233 1647v-66h545v66h-545z" />
    <glyph glyph-name="ring.case" horiz-adv-x="772" 
d="M385 1497q70 0 112 40t42 108q0 66 -42 105.5t-112 39.5q-69 0 -110.5 -39.5t-41.5 -105.5q0 -67 41.5 -107.5t110.5 -40.5zM385 1538q-47 0 -75.5 29t-28.5 78q0 47 28.5 75.5t75.5 28.5q48 0 77.5 -28.5t29.5 -75.5q0 -49 -29.5 -78t-77.5 -29z" />
    <glyph glyph-name="tilde.case" horiz-adv-x="960" 
d="M727 1729q-6 -81 -35 -118.5t-92 -37.5q-44 0 -121 23.5t-114 23.5q-35 0 -53.5 -22.5t-24.5 -77.5l-54 8q12 153 127 153q46 0 123.5 -23.5t112.5 -23.5q36 0 55 23t23 78z" />
    <glyph glyph-name="IJacute" horiz-adv-x="1234" 
d="M346 1737l-149 -217l71 -7l168 209zM1100 1737l-150 -217l72 -7l168 209zM199 1454v-1454h84v1454h-84zM1036 1454h-82v-1108q0 -158 -68.5 -227.5t-213.5 -69.5q-165 0 -285 57l-8 -73q43 -18 71.5 -27.5t90.5 -20t133 -10.5q181 0 271.5 86.5t90.5 276.5v1116z" />
    <glyph glyph-name="ijacute" horiz-adv-x="813" 
d="M309 1460l-203 -334h72l223 326zM770 1460l-203 -334h72l223 326zM195 61v922h-78v-899q0 -56 24 -77t86 -21q40 0 115 6l4 61q-99 0 -151 8zM655 983h-77v-1194q0 -57 -27 -82.5t-86 -25.5q-50 0 -98 20l-7 -68q38 -22 115 -22q94 0 137 44t43 136v1192z" />
    </font>
</defs>
</svg>
