<?xml version="1.0" standalone="no"?>
<!DOCTYPE svg PUBLIC "-//W3C//DTD SVG 1.1//EN" "http://www.w3.org/Graphics/SVG/1.1/DTD/svg11.dtd" >
<svg xmlns="http://www.w3.org/2000/svg" xmlns:xlink="http://www.w3.org/1999/xlink" version="1.1">
<metadata>
Created by FontForge 20170731 at Wed Sep 15 10:16:27 2021
 By Aleksey,,,
Latinotype
</metadata>
<defs>
<font id="Corporative-LightItalic" horiz-adv-x="1130" >
  <font-face 
    font-family="Corporative Light"
    font-weight="300"
    font-style="italic"
    font-stretch="normal"
    units-per-em="2048"
    panose-1="0 0 4 0 0 0 0 0 0 0"
    ascent="1659"
    descent="-389"
    x-height="983"
    cap-height="1454"
    bbox="-354 -399 2769 1790"
    underline-thickness="102"
    underline-position="-307"
    slope="-6.5"
    unicode-range="U+0020-FB02"
  />
<missing-glyph horiz-adv-x="1290" 
d="M205 1454h880v-1454h-880v1454zM338 1382l307 -569l307 569h-614zM600 727l-313 582v-1164zM692 727l312 -582v1164zM645 641l-307 -569h614z" />
    <glyph glyph-name="fi" unicode="fi" horiz-adv-x="1056" 
d="M788 61q49 -8 146 -8l-10 -61q-81 -6 -115 -6q-61 0 -81 21t-13 77l94 834h-430l-105 -918h-75l104 918h-192l8 65h190l25 219q33 273 325 273q139 0 222 -37l-17 -72q-80 37 -202 37q-229 0 -250 -203l-25 -217h506z" />
    <glyph glyph-name="fl" unicode="fl" horiz-adv-x="1058" 
d="M791 68q39 -15 174 -15l-11 -59q-66 -8 -120 -8q-75 0 -99.5 22.5t-19.5 79.5l94 830h-430l-103 -918h-77l102 918h-190l8 65h190l25 221q33 271 260 271q94 0 162 -35l-15 -70q-61 33 -145 33q-77 0 -124.5 -49t-59.5 -148l-25 -223h428l53 471h80z" />
    <glyph glyph-name=".notdef" horiz-adv-x="1290" 
d="M205 1454h880v-1454h-880v1454zM338 1382l307 -569l307 569h-614zM600 727l-313 582v-1164zM692 727l312 -582v1164zM645 641l-307 -569h614z" />
    <glyph glyph-name=".null" horiz-adv-x="0" 
 />
    <glyph glyph-name="nonmarkingreturn" horiz-adv-x="682" 
 />
    <glyph glyph-name="space" unicode=" " horiz-adv-x="573" 
 />
    <glyph glyph-name="exclam" unicode="!" horiz-adv-x="477" 
d="M354 1454l-116 -1069h71l133 1069h-88zM223 -25q39 0 64.5 26t25.5 67q0 32 -17 50.5t-48 18.5q-40 0 -65 -27.5t-25 -66.5q0 -32 17 -50t48 -18z" />
    <glyph glyph-name="quotedbl" unicode="&#x22;" horiz-adv-x="589" 
d="M518 1473l-76 -455h62l98 438zM274 1473l-75 -455h61l98 438z" />
    <glyph glyph-name="numbersign" unicode="#" horiz-adv-x="1380" 
d="M1264 840h-250l-115 -348h250l-21 -62h-249l-103 -307h-76l103 307h-303l-103 -307h-73l102 307h-248l23 62h245l115 348h-248l21 61h248l102 307h74l-103 -307h306l102 307h74l-103 -307h250zM823 492l117 348h-305l-115 -348h303z" />
    <glyph glyph-name="dollar" unicode="$" horiz-adv-x="1280" 
d="M725 745q50 -16 83 -28t77 -31t73 -37.5t60.5 -45t49.5 -56t30 -68.5t12 -84q0 -181 -128.5 -285.5t-356.5 -113.5l-29 -205h-72l29 205q-232 9 -395 121l22 78q46 -39 147 -79.5t236 -45.5l82 622q-59 19 -97 33.5t-88.5 37.5t-82.5 48.5t-62 60t-44.5 79t-14.5 98.5
q0 179 127 290t365 115l28 205h72l-29 -207q317 -22 344 -287l-80 -18q-2 40 -16.5 76t-43.5 71t-83.5 58.5t-128.5 29.5zM336 1055q0 -48 18 -88.5t45 -68t72.5 -53t85 -41.5t98.5 -36l84 616q-196 -3 -299.5 -90t-103.5 -239zM635 70q184 6 288.5 82t104.5 231
q0 48 -17.5 88.5t-44 68.5t-70.5 53.5t-84 41.5t-97 35z" />
    <glyph glyph-name="percent" unicode="%" horiz-adv-x="1683" 
d="M561 668q189 0 282 129.5t93 345.5q0 157 -69.5 244.5t-215.5 87.5q-190 0 -283.5 -130.5t-93.5 -345.5q0 -156 70.5 -243.5t216.5 -87.5zM1520 1475l-1198 -1493l75 -7l1200 1493zM567 725q-113 0 -168 75t-55 206q0 188 76 299.5t225 111.5q112 0 166.5 -74t54.5 -206
q0 -187 -74.5 -299.5t-224.5 -112.5zM1268 -25q129 0 214.5 63.5t122.5 167.5t37 245q0 157 -69 244t-213 87q-190 0 -283.5 -130t-93.5 -345q0 -156 70 -244t215 -88zM1274 33q-112 0 -166.5 74.5t-54.5 205.5q0 187 76.5 299.5t224.5 112.5q112 0 165.5 -74t53.5 -207
q0 -187 -74.5 -299t-224.5 -112z" />
    <glyph glyph-name="ampersand" unicode="&#x26;" horiz-adv-x="1603" 
d="M1548 846q-132 -450 -395 -680l178 -191l-90 -12l-145 158q-225 -166 -521 -166q-208 0 -312.5 74.5t-104.5 214.5q0 51 11 95.5t27.5 79t47.5 68t60.5 57.5t76.5 52t85.5 48t98.5 48q-89 99 -131.5 178.5t-42.5 188.5q0 82 26 156t75.5 132.5t130.5 93t184 34.5
q85 0 147.5 -23.5t97 -64.5t50.5 -90t16 -107q0 -70 -18.5 -131.5t-52.5 -109t-72.5 -85.5t-89.5 -70t-92 -54.5t-90 -46.5q-9 -4 -15 -7l-12 -6l428 -461q245 214 366 635zM797 1403q-153 0 -239.5 -98.5t-86.5 -249.5q0 -88 36 -160t126 -170q160 79 224 125
q171 121 180 295q1 11 1 22q0 117 -64 176.5t-177 59.5zM592 27q250 0 455 147l-439 471q-85 -42 -136.5 -71.5t-100 -65.5t-73.5 -70.5t-39.5 -79t-14.5 -100.5q0 -108 84 -169.5t264 -61.5z" />
    <glyph glyph-name="quotesingle" unicode="'" horiz-adv-x="346" 
d="M274 1473l-75 -455h61l98 438z" />
    <glyph glyph-name="parenleft" unicode="(" horiz-adv-x="731" 
d="M287 494q0 133 20.5 257.5t54.5 224.5t80.5 191t96.5 159.5t105 126t103.5 95t94.5 62.5l-11 69q-79 -38 -161.5 -105.5t-167 -175.5t-149.5 -237.5t-106.5 -304t-41.5 -362.5q0 -172 35 -324t93 -260.5t123.5 -183.5t135.5 -115l26 70q-56 35 -111 100t-106 163
t-82.5 241.5t-31.5 308.5z" />
    <glyph glyph-name="parenright" unicode=")" horiz-adv-x="825" 
d="M541 797q0 -183 -39 -350.5t-98.5 -288t-137 -221t-147 -160t-135.5 -96.5l10 -70q79 38 161.5 105.5t167 175.5t150 238t107 304.5t41.5 362.5q0 171 -35.5 323.5t-93.5 260.5t-123.5 183t-135.5 115l-26 -69q45 -27 89 -72.5t89 -118t79 -160.5t55.5 -208.5
t21.5 -253.5z" />
    <glyph glyph-name="asterisk" unicode="*" horiz-adv-x="864" 
d="M573 1212l187 -118l-39 -58l-168 131l-21 -223h-63l31 223l-199 -131l-27 58l215 118l-188 117l39 57l170 -131l20 224h64l-31 -224l199 131l26 -57z" />
    <glyph glyph-name="plus" unicode="+" horiz-adv-x="976" 
d="M881 684l-9 -70h-319l-39 -352h-78l39 352h-317l8 70h317l41 352h76l-39 -352h320z" />
    <glyph glyph-name="comma" unicode="," horiz-adv-x="315" 
d="M240 18q0 54 -22.5 83.5t-57.5 29.5q-33 0 -51.5 -21t-18.5 -57q31 0 53.5 -19t22.5 -50q0 -84 -90 -140l24 -47q63 34 101.5 91t38.5 130z" />
    <glyph glyph-name="hyphen" unicode="-" horiz-adv-x="755" 
d="M680 623h-514l-8 -70h514z" />
    <glyph glyph-name="period" unicode="." horiz-adv-x="307" 
d="M141 -25q39 0 64.5 26t25.5 67q0 32 -17 50.5t-48 18.5q-40 0 -65 -27.5t-25 -66.5q0 -32 17 -50t48 -18z" />
    <glyph glyph-name="slash" unicode="/" horiz-adv-x="794" 
d="M786 1659l-856 -2028h78l856 2028h-78z" />
    <glyph glyph-name="zero" unicode="0" horiz-adv-x="1214" 
d="M610 -25q146 0 256.5 69.5t177.5 194t100.5 286.5t33.5 358q0 135 -24 242t-72.5 186t-128 121.5t-185.5 42.5q-144 0 -254.5 -70.5t-178.5 -197t-102 -292t-34 -366.5q0 -269 102.5 -421.5t308.5 -152.5zM621 49q-170 0 -254 133.5t-84 362.5q0 257 56.5 450t165 300.5
t255.5 107.5q88 0 153.5 -39t104.5 -111.5t57.5 -167t18.5 -213.5q0 -173 -28.5 -320t-85 -260.5t-148.5 -178t-211 -64.5z" />
    <glyph glyph-name="one" unicode="1" horiz-adv-x="729" 
d="M479 70h215l-8 -70h-569l10 70h268l148 1296q-53 -40 -185 -108t-217 -99l-6 74q104 40 223.5 101.5t196.5 119.5h82z" />
    <glyph glyph-name="two" unicode="2" horiz-adv-x="1050" 
d="M1053 1112q0 -88 -26.5 -165.5t-72.5 -137t-105.5 -113.5t-126.5 -100.5t-135 -91t-131.5 -92.5t-115 -97.5t-87 -112.5t-46.5 -132h758l-9 -70h-839l4 35q7 82 41 155t84.5 129.5t114.5 108t133 97.5t137.5 92t129.5 97.5t108 108t74.5 129t27.5 154.5
q0 132 -76.5 215.5t-230.5 83.5q-272 0 -357 -240l-74 15q41 134 151.5 214.5t289.5 80.5q187 0 283 -100.5t96 -262.5z" />
    <glyph glyph-name="three" unicode="3" horiz-adv-x="1021" 
d="M719 758q111 -32 181.5 -115t70.5 -215q0 -97 -32 -179t-93 -143.5t-156.5 -96t-214.5 -34.5q-163 0 -257.5 62t-121.5 194l76 25q17 -94 90.5 -152.5t220.5 -58.5q85 0 158 24t129.5 69.5t88.5 118.5t32 165q0 137 -94 218t-238 81h-119l9 70h118q68 0 130.5 21.5
t114.5 63t83 110t31 155.5q0 121 -70.5 192.5t-216.5 71.5q-142 0 -222.5 -56t-125.5 -169l-74 16q58 148 165.5 213.5t262.5 65.5q181 0 271 -88.5t90 -237.5q0 -151 -79 -249.5t-208 -141.5z" />
    <glyph glyph-name="four" unicode="4" horiz-adv-x="1030" 
d="M836 539h239l-10 -70h-238l-51 -469h-84l53 469h-679l-7 61l805 924h76zM754 539l90 796l-694 -796h604z" />
    <glyph glyph-name="five" unicode="5" horiz-adv-x="1021" 
d="M1016 1382h-584l-84 -565q102 27 217 27q191 0 299.5 -96t108.5 -267q0 -103 -31.5 -193.5t-90.5 -160.5t-153 -111t-211 -41q-314 0 -370 256l76 27q14 -89 87 -151t214 -62q180 0 288.5 114.5t108.5 309.5q0 141 -87.5 224t-262.5 83q-121 0 -283 -45l104 723h664z" />
    <glyph glyph-name="six" unicode="6" horiz-adv-x="1083" 
d="M682 872q179 0 273 -106.5t94 -278.5q0 -143 -55.5 -258.5t-163.5 -184.5t-252 -69q-190 0 -295 134.5t-105 408.5q0 203 35 374t104 302.5t183 206t262 74.5q146 0 227 -77t96 -190l-77 -14q-12 98 -80 154.5t-180 56.5q-140 0 -243.5 -87.5t-162.5 -245t-76 -376.5
q66 69 177.5 122.5t238.5 53.5zM592 45q74 0 141 27.5t120.5 80t85.5 137.5t32 191q0 151 -76.5 237.5t-224.5 86.5q-123 0 -229.5 -56.5t-180.5 -132.5q0 -15 -1 -46t-1 -48q0 -132 24.5 -226.5t70.5 -148.5t104.5 -78t134.5 -24z" />
    <glyph glyph-name="seven" unicode="7" horiz-adv-x="747" 
d="M70 1454h841l-8 -76q-237 -319 -432 -672t-328 -706h-86q261 680 768 1382h-764z" />
    <glyph glyph-name="eight" unicode="8" horiz-adv-x="1091" 
d="M793 748q137 -56 202.5 -137.5t65.5 -196.5q0 -194 -130 -316.5t-370 -122.5q-202 0 -308 86.5t-106 253.5q0 290 357 455q-103 42 -158 111.5t-55 179.5q0 87 27 161t79.5 131t137.5 89.5t194 32.5q173 0 259.5 -90.5t86.5 -235.5q0 -79 -25.5 -146.5t-69.5 -116
t-89.5 -81t-97.5 -57.5zM371 1071q0 -121 72 -182.5t231 -102.5q18 -7 47 -14q40 18 72 36.5t72.5 51t67 69.5t45.5 92t19 118q0 124 -72 194t-202 70q-165 0 -258.5 -90t-93.5 -242zM573 49q181 0 293.5 94.5t112.5 268.5q0 127 -85.5 200t-266.5 117q-9 3 -28 8t-28 8
q-50 -24 -90.5 -48t-90 -63.5t-82.5 -82.5t-56 -103.5t-23 -128.5q0 -137 91.5 -203.5t252.5 -66.5z" />
    <glyph glyph-name="nine" unicode="9" horiz-adv-x="1099" 
d="M672 1475q189 0 300 -139.5t111 -430.5q0 -160 -23 -299.5t-71 -256t-118 -199.5t-168 -129t-216 -46q-153 0 -236.5 73t-92.5 214l73 17q10 -120 77 -176t190 -56q213 0 345 192t154 525q-73 -71 -184 -121.5t-246 -50.5q-168 0 -263 95t-95 267q0 145 52 261.5
t158.5 188t252.5 71.5zM575 659q127 0 237 51.5t189 131.5v49q0 512 -342 512q-166 0 -269 -123t-103 -322q0 -151 76.5 -225t211.5 -74z" />
    <glyph glyph-name="colon" unicode=":" horiz-adv-x="413" 
d="M250 829q39 0 64.5 26.5t25.5 68.5q0 31 -17 50t-49 19q-40 0 -65 -27.5t-25 -68.5q0 -31 17.5 -49.5t48.5 -18.5zM141 -25q39 0 64.5 26t25.5 67q0 32 -17 50.5t-48 18.5q-40 0 -65 -27.5t-25 -66.5q0 -32 17 -50t48 -18z" />
    <glyph glyph-name="semicolon" unicode=";" horiz-adv-x="425" 
d="M262 829q39 0 64.5 26.5t25.5 68.5q0 32 -17 50.5t-48 18.5q-40 0 -65 -27.5t-25 -68.5q0 -31 17.5 -49.5t47.5 -18.5zM240 18q0 54 -22.5 83.5t-57.5 29.5q-33 0 -51.5 -21t-18.5 -57q31 0 53.5 -19t22.5 -50q0 -84 -90 -140l24 -47q63 34 101.5 91t38.5 130z" />
    <glyph glyph-name="less" unicode="&#x3c;" horiz-adv-x="1026" 
d="M930 1102l-6 -78l-686 -377l602 -377l-13 -73l-669 419l8 66z" />
    <glyph glyph-name="equal" unicode="=" horiz-adv-x="1132" 
d="M1036 866h-827l-8 -67h829zM995 498h-829l-8 -68h829z" />
    <glyph glyph-name="greater" unicode="&#x3e;" horiz-adv-x="1026" 
d="M199 1102l669 -420l-8 -66l-764 -419l6 77l689 377l-605 377z" />
    <glyph glyph-name="question" unicode="?" horiz-adv-x="894" 
d="M199 1247l67 -18q72 176 252 176q262 0 262 -256q0 -41 -7 -80t-18 -70.5t-31 -64t-38 -56.5t-46.5 -51.5t-50 -45.5t-55.5 -42.5t-55.5 -39t-57 -38t-54.5 -36.5l-23 -224h66l39 201q16 11 55.5 36.5t65.5 43t66.5 49.5t68.5 60.5t59.5 70.5t50.5 84.5t32 98.5t13 116
q0 148 -84 231t-248 83q-123 0 -201.5 -54t-127.5 -174zM326 -25q38 0 63 26t25 67q0 31 -17 50t-49 19q-39 0 -64.5 -27.5t-25.5 -66.5q0 -32 18.5 -50t49.5 -18z" />
    <glyph glyph-name="at" unicode="@" horiz-adv-x="2207" 
d="M1282 1460q363 0 568.5 -203t205.5 -567q0 -690 -416 -690q-102 0 -159.5 49.5t-67.5 159.5q-55 -95 -154.5 -152t-232.5 -57q-157 0 -248.5 106t-91.5 295q0 264 141 423t361 159q184 0 295 -106l20 86h64l-74 -648q-27 -247 162 -247q330 0 330 610q0 336 -184 525.5
t-527 189.5q-205 0 -381.5 -69t-307 -195.5t-204.5 -319t-74 -426.5q0 -155 36.5 -278t97.5 -203.5t147 -133.5t179.5 -75.5t199.5 -22.5q158 0 272.5 35.5t173.5 73.5l2 -72q-171 -102 -452 -102q-124 0 -231 26.5t-200 86t-158.5 148t-103 219t-37.5 292.5q0 207 53.5 383
t149.5 303.5t227 217.5t288 134.5t331 44.5zM1047 70q140 0 242 74.5t130 215.5l49 443q-98 110 -278 110q-190 0 -307 -133.5t-117 -373.5q0 -163 75 -249.5t206 -86.5z" />
    <glyph glyph-name="A" unicode="A" horiz-adv-x="1335" 
d="M1165 68q44 -13 144 -13l-13 -61q-38 -10 -96 -10q-52 0 -77.5 16t-37.5 61l-104 388h-717l-223 -449h-86l733 1448l94 18zM299 520h662l-234 860z" />
    <glyph glyph-name="B" unicode="B" horiz-adv-x="1218" 
d="M885 766q123 -33 198.5 -116t75.5 -212q0 -206 -128.5 -322t-403.5 -116h-482l158 1382h-166l6 62q100 16 148 16q59 0 82 -26q164 41 299 41q246 0 366.5 -90t120.5 -252q0 -286 -274 -367zM1073 1120q0 283 -411 283q-117 0 -275 -25l-68 -587h338q197 0 306.5 79.5
t109.5 249.5zM631 74q235 0 339.5 89.5t104.5 268.5q0 136 -97 211.5t-265 75.5h-402l-73 -645h393z" />
    <glyph glyph-name="C" unicode="C" horiz-adv-x="1353" 
d="M727 49q-245 0 -384.5 151.5t-139.5 420.5q0 185 48 334t132.5 246.5t199.5 149.5t251 52q213 0 313 -99t84 -270l84 8q4 32 4 58q0 165 -123.5 270t-357.5 105q-156 0 -288 -59t-228.5 -168t-150.5 -272.5t-54 -363.5q0 -302 160 -469.5t436 -167.5q179 0 300.5 42.5
t186.5 91.5l-12 73q-178 -133 -461 -133z" />
    <glyph glyph-name="D" unicode="D" horiz-adv-x="1484" 
d="M707 1475q132 0 241.5 -33t186.5 -91.5t130 -141t78 -180.5t25 -210q0 -174 -53.5 -322.5t-154.5 -259.5t-257.5 -174t-351.5 -63h-404l158 1382h-168l8 62q100 16 148 16q57 0 80 -26q144 41 334 41zM559 74q182 0 323 59t227 161.5t129.5 234t43.5 284.5q0 123 -34 227
t-102 186t-183 128.5t-265 46.5q-157 0 -309 -23l-149 -1304h319z" />
    <glyph glyph-name="E" unicode="E" horiz-adv-x="1091" 
d="M1130 1382h-753l-70 -614h705l-8 -72h-705l-70 -622h764l-10 -74h-846l164 1454h848z" />
    <glyph glyph-name="F" unicode="F" horiz-adv-x="1030" 
d="M1090 1384l-713 -2l-70 -614h664l-8 -72h-664l-78 -696h-84l164 1454h807z" />
    <glyph glyph-name="G" unicode="G" horiz-adv-x="1503" 
d="M1323 741q43 0 43 -36q0 -13 -2.5 -44.5t-3.5 -42.5l-70 -618h-63l28 291q-81 -157 -226.5 -236.5t-330.5 -79.5q-275 0 -428 169t-153 470q0 206 57 370.5t159.5 271t243.5 163t310 56.5q222 0 347 -104t128 -290l-86 -16q2 156 -103.5 247t-293.5 91q-312 0 -495 -210
t-183 -570q0 -269 135 -421.5t377 -152.5q109 0 202.5 29t170 88t126.5 157t64 226l14 125h-473l6 67h500z" />
    <glyph glyph-name="H" unicode="H" horiz-adv-x="1445" 
d="M1370 1454l-160 -1391q66 -8 156 -8l-12 -61q-48 -10 -125 -10q-55 0 -80 19.5t-21 68.5l70 600h-901l-76 -672h-84l166 1454h82l-80 -706h901l80 706h84z" />
    <glyph glyph-name="I" unicode="I" horiz-adv-x="464" 
d="M307 1454l-170 -1454h84l168 1454h-82z" />
    <glyph glyph-name="J" unicode="J" horiz-adv-x="892" 
d="M823 1454h-82l-127 -1108q-17 -155 -91 -226t-222 -71q-150 0 -248 57l-18 -73q118 -58 262 -58q185 0 282 88t117 275z" />
    <glyph glyph-name="K" unicode="K" horiz-adv-x="1214" 
d="M948 131q29 -53 60 -64.5t135 -11.5l-10 -61q-31 -8 -91 -8q-62 0 -95.5 17.5t-61.5 70.5l-310 598h-278l-76 -672h-84l164 1454h84l-80 -706h279l612 716l86 -16l-639 -741z" />
    <glyph glyph-name="L" unicode="L" horiz-adv-x="1026" 
d="M244 76h733l-8 -76h-817l163 1454h84z" />
    <glyph glyph-name="M" unicode="M" horiz-adv-x="1740" 
d="M1544 63q62 -8 139 -8l-10 -61q-48 -10 -117 -10q-57 0 -77.5 18.5t-16.5 69.5l111 1257l-670 -1139h-82l-413 1139l-187 -1329h-84l203 1448l106 18l426 -1185l689 1173h108z" />
    <glyph glyph-name="N" unicode="N" horiz-adv-x="1447" 
d="M1290 1454h82l-164 -1454h-75l-764 1317l-150 -1317h-82l164 1448l80 18l760 -1321z" />
    <glyph glyph-name="O" unicode="O" horiz-adv-x="1572" 
d="M702 -25q222 0 395.5 113t266 305t92.5 428q0 191 -67 337.5t-200.5 231.5t-316.5 85q-223 0 -396.5 -112.5t-266 -304.5t-92.5 -429q0 -191 67 -337.5t201 -231.5t317 -85zM711 49q-241 0 -375.5 159t-134.5 425q0 220 83 395t235 274t345 99q241 0 374.5 -158
t133.5 -424q0 -166 -48 -308.5t-134 -244t-209.5 -159.5t-269.5 -58z" />
    <glyph glyph-name="P" unicode="P" horiz-adv-x="1124" 
d="M676 1475q223 0 338.5 -107.5t115.5 -302.5q0 -238 -145.5 -365t-425.5 -127h-264l-66 -573h-82l158 1382h-168l8 62q100 16 148 16q57 0 80 -26q148 41 303 41zM569 645q252 0 367 108t115 310q0 162 -93.5 251t-289.5 89q-123 0 -281 -25l-84 -733h266z" />
    <glyph glyph-name="Q" unicode="Q" horiz-adv-x="1572" 
d="M1024 -70q68 -129 119 -179t133 -50q71 0 125 14l-15 -69q-73 -15 -131 -15q-99 0 -160.5 50.5t-125.5 179.5l-72 139q-95 -25 -195 -25q-183 0 -317 85t-201 231.5t-67 337.5q0 237 92.5 429t266 304.5t396.5 112.5q183 0 316.5 -85t200.5 -231.5t67 -337.5
q0 -279 -130 -494.5t-353 -301.5h4zM201 633q0 -266 134.5 -425t375.5 -159q146 0 269.5 58t209.5 159.5t134 244t48 308.5q0 266 -133.5 424t-374.5 158q-193 0 -345 -99t-235 -274t-83 -395z" />
    <glyph glyph-name="R" unicode="R" horiz-adv-x="1228" 
d="M989 133q27 -53 60.5 -65.5t138.5 -12.5l-14 -61q-39 -8 -91 -8q-62 0 -100 22.5t-70 85.5l-266 537h-344l-72 -631h-84l158 1382h-168l8 62q100 16 148 16q56 0 80 -24q149 39 325 39q246 0 369 -99t123 -284q0 -214 -121.5 -331.5t-329.5 -129.5zM387 1376l-76 -674
h394q184 0 292.5 96.5t108.5 291.5q0 151 -102.5 232t-313.5 81q-154 0 -303 -27z" />
    <glyph glyph-name="S" unicode="S" horiz-adv-x="1146" 
d="M258 1061q0 163 97 253.5t292 90.5q186 0 275.5 -63.5t89.5 -202.5l80 16q0 320 -435 320q-228 0 -354.5 -110.5t-126.5 -309.5q0 -79 27.5 -138.5t73.5 -95.5t105.5 -62t126 -42.5t132.5 -32.5t125.5 -37t105.5 -51t73.5 -79.5t27.5 -117.5q0 -90 -34 -158.5t-95 -110
t-140 -61.5t-174 -20q-137 0 -255.5 42.5t-186.5 94.5l-22 -82q189 -129 456 -129q269 0 401 114.5t132 322.5q0 78 -27.5 136.5t-73.5 93.5t-105.5 60.5t-126 42t-132.5 32t-125.5 37t-105.5 51t-73.5 79.5t-27.5 117z" />
    <glyph glyph-name="T" unicode="T" horiz-adv-x="1015" 
d="M1122 1454l-8 -70h-485l-158 -1384h-82l156 1384h-486l7 60q113 10 290 10h766z" />
    <glyph glyph-name="U" unicode="U" horiz-adv-x="1411" 
d="M1356 1454h-82l-105 -905q-57 -502 -510 -502q-233 0 -324 122.5t-63 379.5l93 811q6 53 -14.5 75.5t-74.5 22.5q-86 0 -151 -14l-8 -60h168l-95 -823q-34 -299 77.5 -442.5t381.5 -143.5q272 0 420.5 139.5t183.5 434.5z" />
    <glyph glyph-name="V" unicode="V" horiz-adv-x="1247" 
d="M1243 1466l78 -18l-678 -1448h-98l-352 1384h-148l6 60q74 16 127 16q48 0 71 -16.5t32 -54.5l323 -1293z" />
    <glyph glyph-name="W" unicode="W" horiz-adv-x="1892" 
d="M1886 1466l80 -18l-610 -1448h-94l-205 1331l-508 -1331h-94l-265 1384h-145l6 60q67 16 129 16q49 0 72.5 -18.5t32.5 -69.5l227 -1257l512 1339h92l209 -1339z" />
    <glyph glyph-name="X" unicode="X" horiz-adv-x="1220" 
d="M682 739l350 -671q38 -13 139 -13l-10 -61q-30 -10 -94 -10q-51 0 -75.5 18t-55.5 78l-313 604l-535 -684h-94l584 739l-357 645h-160l9 60q61 16 116 16q87 0 121 -61l328 -608l514 679l84 -18z" />
    <glyph glyph-name="Y" unicode="Y" horiz-adv-x="1124" 
d="M1120 1466l78 -18l-563 -842l-68 -606h-84l70 606l-363 778h-145l6 60q48 16 111 16q54 0 75 -14.5t46 -67.5l317 -700z" />
    <glyph glyph-name="Z" unicode="Z" horiz-adv-x="1204" 
d="M1235 1393l-1090 -1319h932l-10 -74h-1020l-6 59l1087 1323h-909l6 62q117 10 254 10h752z" />
    <glyph glyph-name="bracketleft" unicode="[" horiz-adv-x="704" 
d="M750 1589h-269l-221 -1888h270l-8 -70h-346l8 70l228 1958h346z" />
    <glyph glyph-name="backslash" unicode="\" horiz-adv-x="794" 
d="M8 1659h-78l856 -2028h78z" />
    <glyph glyph-name="bracketright" unicode="]" horiz-adv-x="798" 
d="M623 1659l-228 -1958l-8 -70h-346l8 70h270l220 1888h-269l6 70h347z" />
    <glyph glyph-name="underscore" unicode="_" horiz-adv-x="837" 
d="M762 0h-678l-8 -70h678z" />
    <glyph glyph-name="grave" unicode="`" horiz-adv-x="638" 
d="M295 1460l-90 -8l160 -326h69z" />
    <glyph glyph-name="a" unicode="a" 
d="M883 63q62 -10 143 -10l-8 -61q-50 -6 -111 -6q-59 0 -82 27.5t-16 90.5l14 113q-67 -113 -176.5 -177.5t-243.5 -64.5q-128 0 -200 68t-72 186q0 155 106.5 245.5t313.5 90.5q173 0 307 -39l12 99q15 148 -49 229.5t-209 81.5q-260 0 -321 -234l-78 15
q44 138 136.5 212.5t266.5 74.5q184 0 267 -97t63 -278zM426 43q156 0 276.5 108.5t141.5 247.5l8 66q-136 37 -301 37q-174 0 -258 -71t-84 -198q0 -93 56.5 -141.5t160.5 -48.5z" />
    <glyph glyph-name="b" unicode="b" horiz-adv-x="1058" 
d="M618 1004q179 0 274 -111.5t95 -317.5q0 -179 -58.5 -312t-183 -210.5t-303.5 -77.5q-116 0 -197.5 31.5t-127.5 75.5l155 1372h78l-71 -633q54 84 140 133.5t199 49.5zM457 45q215 0 333.5 136.5t118.5 387.5q0 173 -75.5 269t-225.5 96q-75 0 -139.5 -27.5t-108 -72.5
t-70 -98.5t-34.5 -110.5l-55 -500q85 -80 256 -80z" />
    <glyph glyph-name="c" unicode="c" horiz-adv-x="1040" 
d="M905 180q-36 -29 -55.5 -42.5t-68.5 -40t-107.5 -39.5t-126.5 -13q-146 0 -230 93.5t-84 269.5q0 237 113 381.5t297 144.5q127 0 191 -64t55 -194l76 10q4 24 4 41q-2 127 -81.5 202t-236.5 75t-271.5 -79.5t-171 -214t-56.5 -307.5q0 -212 104 -320t283 -108
q73 0 135 12.5t109.5 36.5t73 41t58.5 44z" />
    <glyph glyph-name="d" unicode="d" horiz-adv-x="1161" 
d="M1077 1454l-155 -1391q62 -10 147 -10l-10 -61q-44 -6 -115 -6q-56 0 -79 30t-13 111l4 47q-58 -88 -151.5 -143.5t-217.5 -55.5q-152 0 -243.5 111t-91.5 311q0 277 138.5 442t362.5 165q180 0 287 -86l61 536h76zM506 45q142 0 245 87.5t123 205.5l58 500
q-110 96 -285 96q-186 0 -301 -149.5t-115 -383.5q0 -178 78 -267t197 -89z" />
    <glyph glyph-name="e" unicode="e" horiz-adv-x="1034" 
d="M625 1004q168 0 253 -104.5t85 -274.5q0 -63 -13 -152h-719q-2 -20 -2 -65q0 -363 328 -363q109 0 195.5 35.5t124.5 69.5l14 -68q-50 -41 -142.5 -74t-207.5 -33q-190 0 -289.5 109.5t-99.5 321.5q0 273 130.5 435.5t342.5 162.5zM238 537h643q23 188 -51 292.5
t-212 104.5q-145 0 -248.5 -101.5t-131.5 -295.5z" />
    <glyph glyph-name="f" unicode="f" horiz-adv-x="634" 
d="M600 1403q-86 0 -133 -49.5t-59 -151.5l-25 -219h322l-9 -65h-321l-105 -918h-75l104 918h-188l8 65h186l27 221q29 271 266 271q108 0 176 -35l-14 -70q-60 33 -160 33z" />
    <glyph glyph-name="g" unicode="g" horiz-adv-x="1071" 
d="M721 154q119 -1 177 -59.5t58 -149.5q0 -144 -125 -239t-356 -95q-211 0 -306 60.5t-95 181.5q0 166 172 260q-80 43 -80 129q0 136 170 223q-96 75 -96 205q0 143 103 238.5t280 95.5q122 0 202 -54q37 89 101.5 133t167.5 50l2 -72q-86 -4 -141 -39.5t-87 -106.5
q68 -71 68 -182q0 -143 -102 -237.5t-281 -94.5q-98 0 -174 37q-81 -48 -111 -87.5t-30 -92.5q0 -55 39.5 -78.5t125.5 -23.5zM614 944q-138 0 -219.5 -72t-81.5 -200q0 -101 66 -156t182 -55q138 0 218.5 71t80.5 199q0 101 -65 157t-181 56zM487 -322q187 0 288.5 72
t101.5 178q0 74 -47.5 117t-137.5 43h-327q-36 0 -54 4q-159 -76 -159 -227q0 -91 77 -139t258 -48z" />
    <glyph glyph-name="h" unicode="h" horiz-adv-x="1163" 
d="M913 61q47 -8 146 -8l-12 -61q-87 -6 -111 -6q-64 0 -84.5 20t-13.5 78l57 512q39 336 -252 336q-143 0 -252.5 -100t-128.5 -232l-67 -600h-78l164 1454h77l-75 -672q59 100 158.5 161t228.5 61q178 0 252.5 -106t52.5 -298z" />
    <glyph glyph-name="i" unicode="i" horiz-adv-x="397" 
d="M250 1241q29 0 49 21.5t20 52.5q0 26 -14.5 42.5t-40.5 16.5q-28 0 -48.5 -21t-20.5 -50q0 -27 15.5 -44.5t39.5 -17.5zM154 61l106 922h-78l-100 -868q-6 -42 -6 -64q0 -34 20.5 -49.5t69.5 -15.5q25 0 100 6l8 61q-79 0 -120 8z" />
    <glyph glyph-name="j" unicode="j" horiz-adv-x="399" 
d="M336 1241q29 0 49.5 21.5t20.5 52.5q0 25 -15 42t-41 17q-28 0 -48.5 -21t-20.5 -50q0 -27 15.5 -44.5t39.5 -17.5zM344 983h-78l-137 -1194q-6 -58 -34 -83t-77 -25q-39 0 -81 20l-11 -68q33 -22 97 -22q85 0 129 43.5t55 136.5z" />
    <glyph glyph-name="k" unicode="k" horiz-adv-x="927" 
d="M500 565l245 -491q43 -21 144 -21l-10 -61q-69 -6 -95 -6q-46 0 -71.5 14.5t-44.5 52.5l-226 459l-213 -199l-34 -313h-78l164 1454h77l-116 -1044l620 583l86 -10z" />
    <glyph glyph-name="l" unicode="l" horiz-adv-x="438" 
d="M276 1454l-151 -1309q-8 -70 -8 -88q0 -37 25 -54t83 -17q49 0 111 8l10 59q-118 0 -149 15l159 1386h-80z" />
    <glyph glyph-name="m" unicode="m" horiz-adv-x="1812" 
d="M1559 61q52 -8 149 -8l-10 -61q-87 -6 -113 -6q-65 0 -85.5 19.5t-14.5 76.5l59 526q16 150 -40 237t-197 87q-85 0 -160.5 -50.5t-120.5 -123t-57 -148.5l-70 -610h-78l70 604q18 153 -38 240.5t-198 87.5q-65 0 -126 -30.5t-104.5 -78.5t-72 -104t-35.5 -109l-69 -610
h-78l102 903q-19 16 -44 20.5t-76 4.5l10 59q27 10 65 10q135 0 117 -145l-6 -57q56 94 143 151.5t195 57.5q129 0 203 -66t90 -180q53 109 145.5 177.5t212.5 68.5q168 0 241.5 -106.5t51.5 -295.5z" />
    <glyph glyph-name="n" unicode="n" horiz-adv-x="1220" 
d="M971 61q49 -8 147 -8l-12 -61q-87 -6 -113 -6q-63 0 -83.5 19.5t-14.5 74.5l59 516q34 336 -256 336q-142 0 -252.5 -103.5t-130.5 -234.5l-67 -594h-78l102 903q-19 16 -44.5 20.5t-75.5 4.5l10 59q35 10 65 10q132 0 119 -139l-10 -76q61 100 161.5 161t227.5 61
q179 0 254 -106t53 -298z" />
    <glyph glyph-name="o" unicode="o" 
d="M152 414q0 -207 107 -323t290 -116q223 0 366.5 158t143.5 428q0 209 -106.5 326t-288.5 117q-147 0 -262.5 -68.5t-182.5 -203.5t-67 -318zM231 420q0 236 118 375t308 139q150 0 236 -100t86 -279q0 -235 -117 -372.5t-307 -137.5q-152 0 -238 98.5t-86 276.5z" />
    <glyph glyph-name="p" unicode="p" horiz-adv-x="1120" 
d="M678 1004q180 0 275.5 -110.5t95.5 -311.5q0 -282 -138.5 -444.5t-400.5 -162.5q-156 0 -266 62l-45 -406h-78l143 1272q-29 25 -121 25l9 59q30 10 69 10q59 0 91.5 -36.5t23.5 -110.5l-4 -39q54 88 142 140.5t204 52.5zM520 45q203 0 326 133.5t123 394.5
q0 176 -78 268.5t-225 92.5q-142 0 -240.5 -93.5t-114.5 -215.5l-57 -510q108 -70 266 -70z" />
    <glyph glyph-name="q" unicode="q" horiz-adv-x="1093" 
d="M676 1004q228 0 346 -97l-143 -1276h-78l59 531q-58 -84 -152 -135.5t-216 -51.5q-156 0 -248 107t-92 309q0 277 144.5 445t379.5 168zM516 45q73 0 138.5 25t110 64.5t73.5 86t39 92.5l63 557q-101 64 -270 64q-199 0 -319 -143.5t-120 -391.5q0 -176 77 -265t208 -89z
" />
    <glyph glyph-name="r" unicode="r" horiz-adv-x="630" 
d="M606 1004q37 0 70 -11l-14 -78q-27 9 -66 9q-58 0 -111 -39t-89 -98t-60 -122.5t-31 -119.5l-61 -545h-78l102 903q-29 25 -116 25l10 59q30 10 69 10q53 0 85 -37t24 -114l-8 -70q51 104 123.5 166t150.5 62z" />
    <glyph glyph-name="s" unicode="s" horiz-adv-x="952" 
d="M514 1004q-185 0 -279 -84.5t-94 -208.5q0 -73 33.5 -122.5t87 -73.5t118 -39.5t129.5 -29t118.5 -32.5t87 -59t33.5 -101q0 -100 -73 -154.5t-245 -54.5q-204 0 -332 107l-22 -74q131 -103 350 -103q399 0 399 295q0 70 -33.5 117.5t-86.5 70.5t-117.5 37.5t-129 27.5
t-117.5 32t-86.5 58.5t-33.5 99.5q0 96 69 158.5t226 62.5q260 0 260 -191l78 15q0 31 -8 61.5t-31 65t-59 60t-98.5 42.5t-143.5 17z" />
    <glyph glyph-name="t" unicode="t" horiz-adv-x="655" 
d="M362 918l-81 -713q-10 -92 19.5 -126t94.5 -34q78 0 154 33l-2 -70q-85 -33 -170 -33q-100 0 -144 49t-30 183l82 711h-174l8 65h174l33 287h77l-32 -287h317l-8 -65h-318z" />
    <glyph glyph-name="u" unicode="u" horiz-adv-x="1193" 
d="M934 63q55 -10 145 -10l-10 -61q-54 -6 -102 -6q-62 0 -88 27.5t-19 97.5l12 110q-67 -118 -173.5 -182t-243.5 -64q-160 0 -221 87.5t-37 295.5l59 545q-35 25 -119 25l10 59q28 8 70 8q66 0 94 -31t21 -98l-56 -495q-22 -176 24.5 -250t180.5 -74q89 0 165.5 35
t127.5 91.5t82.5 122t40.5 130.5l61 557h80z" />
    <glyph glyph-name="v" unicode="v" horiz-adv-x="911" 
d="M868 993l76 -12l-455 -981h-75l-240 909q-31 15 -125 15l6 59q40 10 78 10q55 0 83.5 -20.5t41.5 -73.5l205 -803z" />
    <glyph glyph-name="w" unicode="w" horiz-adv-x="1429" 
d="M1389 993l75 -12l-422 -981h-77l-164 877l-361 -877h-75l-189 909q-38 15 -127 15l6 61q56 8 86 8q54 0 81 -23t38 -77l154 -797l358 887h82l160 -889z" />
    <glyph glyph-name="x" unicode="x" horiz-adv-x="917" 
d="M539 492l235 -422q35 -17 121 -17l-12 -61q-24 -8 -76 -8q-71 0 -100 53l-224 412l-356 -449h-84l393 494l-239 419q-54 11 -123 11l8 61q40 8 84 8q38 0 60.5 -11.5t45.5 -51.5l220 -393l358 456l80 -10z" />
    <glyph glyph-name="y" unicode="y" horiz-adv-x="995" 
d="M948 993l82 -12l-608 -1196q-48 -92 -110 -133t-167 -41q-72 0 -116 22l6 74q58 -26 112 -26q78 0 124 24t83 100l97 193l-283 911q-31 15 -92 15l8 61q40 8 63 8q42 0 66 -20t39 -70l248 -809z" />
    <glyph glyph-name="z" unicode="z" horiz-adv-x="917" 
d="M911 915l-782 -847h686l-8 -68h-766l-2 70l780 845h-647l6 68h729z" />
    <glyph glyph-name="braceleft" unicode="{" horiz-adv-x="768" 
d="M602 1659h178l-8 -66h-168q-168 0 -168 -196q0 -75 33 -245.5t33 -246.5q0 -102 -37.5 -163t-124.5 -97q59 -29 86 -73t27 -111q0 -68 -31.5 -157.5t-69 -163t-69 -160.5t-31.5 -150q0 -133 133 -133h168l-8 -66h-178q-191 0 -191 181q0 73 31.5 164t70 163.5t70 160.5
t31.5 155q0 70 -37.5 112.5t-105.5 42.5h-43l2 23l6 47h43q86 0 136 60t50 163q0 76 -35 244.5t-35 249.5q0 129 57.5 195.5t184.5 66.5z" />
    <glyph glyph-name="bar" unicode="|" horiz-adv-x="628" 
d="M434 1659l-235 -2028h77l236 2028h-78z" />
    <glyph glyph-name="braceright" unicode="}" horiz-adv-x="849" 
d="M614 680h43l-2 -21l-4 -49h-43q-87 0 -137.5 -60t-50.5 -163q0 -75 34.5 -243.5t34.5 -249.5q0 -129 -57 -196t-184 -67h-178l8 66h168q168 0 168 197q0 75 -33 245t-33 246q0 102 37.5 163t124.5 97q-59 29 -86 73t-27 111q0 68 31.5 157.5t69 163t69 160.5t31.5 150
q0 133 -133 133h-168l8 66h178q191 0 191 -180q0 -60 -21 -130t-51 -134t-59.5 -127t-50.5 -129.5t-21 -122.5q0 -71 37.5 -113.5t105.5 -42.5z" />
    <glyph glyph-name="asciitilde" unicode="~" horiz-adv-x="995" 
d="M899 768q-20 -92 -65 -139t-125 -47q-65 0 -189 34.5t-182 34.5q-93 0 -121 -129l-59 10q40 185 190 185q65 0 189.5 -35t183.5 -35q48 0 77 29t46 100z" />
    <glyph glyph-name="exclamdown" unicode="&#xa1;" horiz-adv-x="423" 
d="M260 868q39 0 64.5 25.5t25.5 67.5q0 31 -17.5 50t-49.5 19q-39 0 -64.5 -27.5t-25.5 -66.5q0 -32 18 -50t49 -18zM76 -369h88l108 1004h-73z" />
    <glyph glyph-name="cent" unicode="&#xa2;" horiz-adv-x="1091" 
d="M971 948l-76 -10q18 237 -207 256l-121 -911q65 2 122 16t101.5 38.5t67.5 40t53 40.5l13 -72q-31 -25 -57.5 -42t-72.5 -40t-106.5 -36.5t-130.5 -14.5l-29 -213h-67l28 215q-156 18 -243.5 127.5t-87.5 312.5q0 172 54 306.5t161.5 216t255.5 88.5l28 209h68l-27 -211
q136 -9 205.5 -82.5t71.5 -188.5q0 -21 -4 -45zM240 662q0 -173 67.5 -266.5t192.5 -108.5l121 907q-172 -11 -276.5 -155.5t-104.5 -376.5z" />
    <glyph glyph-name="sterling" unicode="&#xa3;" horiz-adv-x="1284" 
d="M862 1401q-145 0 -237.5 -88.5t-112.5 -265.5l-43 -377h446l-8 -74h-446l-60 -522h613l-8 -74h-848l10 74h151l60 522h-152l6 74h154l43 389q23 189 134 302.5t306 113.5q174 0 297 -93l-30 -73q-128 92 -275 92z" />
    <glyph glyph-name="currency" unicode="&#xa4;" horiz-adv-x="1490" 
d="M1223 788q0 -246 -164 -397l184 -231l-49 -43l-186 233q-133 -94 -295 -94q-161 0 -273 98l-245 -237l-37 43l241 235q-92 116 -92 283q0 248 166 401l-184 232l47 43l188 -234q133 94 295 94q159 0 271 -98l245 238l39 -43l-244 -238q93 -117 93 -285zM385 682
q0 -163 93 -258.5t241 -95.5q179 0 302.5 126t123.5 332q0 166 -92.5 261.5t-241.5 95.5q-86 0 -163 -32t-135.5 -90.5t-93 -146t-34.5 -192.5z" />
    <glyph glyph-name="yen" unicode="&#xa5;" horiz-adv-x="1232" 
d="M1221 1454l-529 -772h363l-6 -64h-365l-22 -202h364l-8 -64h-365l-39 -352h-84l41 352h-366l8 64h365l22 202h-364l8 64h364l-356 772h84l321 -706l480 706h84z" />
    <glyph glyph-name="brokenbar" unicode="&#xa6;" horiz-adv-x="600" 
d="M434 1659l-94 -819h78l94 819h-78zM295 451l-96 -820h77l97 820h-78z" />
    <glyph glyph-name="section" unicode="&#xa7;" horiz-adv-x="1232" 
d="M1090 588q0 -248 -314 -332q56 -19 97 -39.5t78.5 -51.5t57 -75t19.5 -100q0 -161 -112 -251.5t-328 -90.5q-234 0 -389 127l18 80q157 -136 381 -136q175 0 263.5 70t88.5 197q0 64 -38 110t-98.5 72t-133.5 47.5t-146 44.5t-133.5 53.5t-98.5 84.5t-38 128
q0 69 26.5 125t73.5 95t102 65t122 43q-56 19 -96.5 41.5t-77 56.5t-55.5 82.5t-19 110.5q0 161 117.5 266t330.5 105q349 0 369 -304l-78 -16q-12 129 -82 190.5t-219 61.5q-162 0 -261 -77t-99 -222q0 -72 37 -123.5t96.5 -80t131 -50t143 -44t131 -52t96.5 -83t37 -128.5
zM684 285q76 20 129 41.5t101 55t72 83t24 115.5q0 44 -18 79.5t-43 57.5t-70 42.5t-81 32t-94 27.5q-15 4 -22 6q-67 -14 -118.5 -32t-105.5 -50.5t-84 -85.5t-30 -122q0 -44 20.5 -80t41 -57t77 -45.5t80 -32t98.5 -28.5q5 -2 8 -2.5t7 -2t8 -2.5z" />
    <glyph glyph-name="dieresis" unicode="&#xa8;" horiz-adv-x="778" 
d="M256 1245q29 0 48.5 19.5t19.5 48.5q0 25 -14.5 40t-37.5 15q-29 0 -48 -20t-19 -48q0 -25 14 -40t37 -15zM510 1245q28 0 45.5 19.5t17.5 48.5q0 25 -13 40t-36 15q-29 0 -48 -20t-19 -48q0 -25 14 -40t39 -15z" />
    <glyph glyph-name="copyright" unicode="&#xa9;" horiz-adv-x="2095" 
d="M117 551q0 -260 105 -451t289.5 -289t426.5 -98q216 0 405 74.5t330.5 210.5t223 341.5t81.5 453.5q0 260 -105 451t-290 288.5t-428 97.5q-217 0 -406 -73t-329.5 -208t-221.5 -341t-81 -457zM193 557q0 233 74 424.5t203.5 317.5t303.5 195t375 69q166 0 305 -52
t238.5 -150t155 -245t55.5 -330q0 -233 -74.5 -424t-204.5 -317.5t-304 -195t-374 -68.5q-223 0 -392 89.5t-265 266.5t-96 420zM1372 362q-33 -27 -54.5 -42t-68.5 -41t-106 -39t-127 -13q-146 0 -230 93.5t-84 269.5q0 237 113 381.5t297 144.5q127 0 191 -64t55 -194
l76 10q4 24 4 41q-2 127 -81.5 202t-236.5 75q-118 0 -213.5 -45.5t-157.5 -126.5t-95 -190t-33 -238q0 -212 103.5 -320t283.5 -108q73 0 135 12.5t109.5 36t73.5 41t58 43.5z" />
    <glyph glyph-name="ordfeminine" unicode="&#xaa;" horiz-adv-x="815" 
d="M748 825q40 -6 98 -6l-6 -53q-20 -2 -78 -2q-46 0 -63 21.5t-11 74.5l6 55q-47 -75 -120 -117t-162 -42q-90 0 -139.5 47t-49.5 129q0 110 74.5 173.5t222.5 63.5q116 0 201 -26l8 67q11 99 -32.5 154t-141.5 55q-168 0 -213 -157l-61 12q29 96 95 148.5t187 52.5
q127 0 185 -68.5t43 -196.5zM711 1057l4 39q-107 26 -191 26q-235 0 -235 -186q0 -61 37 -94t106 -33q103 0 185.5 76t93.5 172z" />
    <glyph glyph-name="guillemotleft" unicode="&#xab;" horiz-adv-x="860" 
d="M541 883l-305 -305l247 -273l-47 -47l-278 313l2 17l342 344zM784 883l-307 -305l250 -273l-49 -47l-277 313l2 17l340 344z" />
    <glyph glyph-name="registered" unicode="&#xae;" horiz-adv-x="976" 
d="M659 1491q166 0 265.5 -98.5t99.5 -268.5q0 -142 -61 -249.5t-165.5 -163.5t-234.5 -56q-165 0 -264.5 98.5t-99.5 268.5q0 214 130 341.5t330 127.5zM569 696q84 0 157 27t129.5 79t89 134.5t32.5 187.5q0 158 -89.5 242t-234.5 84q-84 0 -157 -27t-129 -79
t-88.5 -134.5t-32.5 -187.5q0 -158 89 -242t234 -84zM799 1186q0 -65 -34 -106.5t-99 -51.5l55 -125q8 -17 22.5 -24t51.5 -7l-4 -34q-21 -7 -37 -7q-28 0 -44.5 9t-29.5 37l-64 147h-100l-20 -186h-54l50 432h-48l5 41h202q72 0 110 -32.5t38 -92.5zM616 1065
q129 0 129 117q0 88 -104 88h-96l-25 -205h96z" />
    <glyph glyph-name="macron" unicode="&#xaf;" horiz-adv-x="972" 
d="M213 1319l-8 -66h555l8 66h-555z" />
    <glyph glyph-name="degree" unicode="&#xb0;" horiz-adv-x="610" 
d="M397 987q115 0 187.5 74.5t72.5 191.5q0 92 -55 150.5t-147 58.5q-110 0 -183 -76t-73 -190q0 -92 53.5 -150.5t144.5 -58.5zM403 1047q-66 0 -103.5 41t-37.5 114q0 89 51 146t133 57q70 0 109 -42.5t39 -113.5q0 -94 -53 -148t-138 -54z" />
    <glyph glyph-name="plusminus" unicode="&#xb1;" horiz-adv-x="1042" 
d="M627 672h319l-8 -68h-320l-38 -354h-78l41 354h-320l8 68h318l41 354h76zM158 0l10 72h760l-10 -72h-760z" />
    <glyph glyph-name="acute" unicode="&#xb4;" horiz-adv-x="714" 
d="M422 1460l-217 -334h71l234 326z" />
    <glyph glyph-name="paragraph" unicode="&#xb6;" horiz-adv-x="1208" 
d="M678 707l72 632q8 75 -15.5 105.5t-99.5 30.5q-173 0 -284 -116.5t-111 -320.5q0 -160 94.5 -245.5t271.5 -85.5h72zM983 1475q-51 0 -76.5 -23.5t-29.5 -75.5l-179 -1581h82l183 1606h163l7 59q-58 15 -150 15z" />
    <glyph glyph-name="periodcentered" unicode="&#xb7;" horiz-adv-x="389" 
d="M223 530q39 0 64.5 26t25.5 67q0 32 -17 50.5t-48 18.5q-40 0 -65 -27.5t-25 -66.5q0 -32 17 -50t48 -18z" />
    <glyph glyph-name="cedilla" unicode="&#xb8;" horiz-adv-x="681" 
d="M336 -74l24 86h-51l-39 -129q75 0 107.5 -17.5t32.5 -60.5q0 -137 -189 -137l-16 -59q272 0 272 201q0 60 -38.5 88t-102.5 28z" />
    <glyph glyph-name="ordmasculine" unicode="&#xba;" horiz-adv-x="860" 
d="M242 1063q0 -146 74 -226.5t200 -80.5q156 0 256 110t100 299q0 146 -74 228t-200 82q-156 0 -256 -110.5t-100 -301.5zM311 1067q0 160 76.5 254t202.5 94q100 0 156.5 -67t56.5 -185q0 -162 -76.5 -255t-204.5 -93q-99 0 -155 66.5t-56 185.5z" />
    <glyph glyph-name="guillemotright" unicode="&#xbb;" horiz-adv-x="935" 
d="M522 940l277 -313l-2 -19l-340 -344l-41 49l307 305l-250 275zM555 625l-2 -17l-340 -344l-41 49l307 305l-250 273l50 47z" />
    <glyph glyph-name="onequarter" unicode="&#xbc;" horiz-adv-x="1662" 
d="M1513 1475l76 -7l-1192 -1493l-78 7zM594 1399q-34 -22 -120 -55t-152 -52l-5 58q191 60 285 116h68l-82 -727h147l-8 -55h-401l8 55h184zM1489 782l-55 -483h137l-6 -55h-138l-28 -244h-64l27 244h-385l-6 49l456 489h62zM1368 299l45 395l-371 -395h326z" />
    <glyph glyph-name="onehalf" unicode="&#xbd;" horiz-adv-x="1724" 
d="M1516 1475l75 -7l-1192 -1493l-77 7zM594 1399q-34 -22 -120 -55t-152 -52l-5 58q191 60 285 116h70l-84 -727h147l-8 -55h-401l8 55h184zM1653 586q0 -62 -25.5 -113t-66.5 -86.5t-91 -66.5t-102.5 -59t-97 -56.5t-77.5 -67t-42 -82.5h455l-7 -55h-522l4 35
q7 58 38 106.5t76 81.5t97.5 63t103.5 59t93 60.5t68 76.5t26 100q0 153 -184 153q-75 0 -122 -28t-75 -91l-63 13q69 166 272 166q121 0 181.5 -56t60.5 -153z" />
    <glyph glyph-name="threequarters" unicode="&#xbe;" horiz-adv-x="1628" 
d="M778 913q0 -106 -78.5 -175.5t-214.5 -69.5q-98 0 -154 34.5t-75 108.5l59 18q22 -106 177 -106q99 0 161 49t62 137q0 72 -52.5 113t-134.5 41h-69l6 51h70q79 0 136.5 45t57.5 127q0 62 -39.5 97.5t-120.5 35.5q-152 0 -190 -112l-57 12q56 156 253 156
q109 0 163.5 -49t54.5 -132q0 -78 -43 -128.5t-117 -73.5q145 -45 145 -179zM1505 1475l76 -7l-1192 -1493l-78 7zM1454 782l-55 -483h137l-6 -55h-137l-27 -244h-66l27 244h-383l-8 49l457 489h61zM1333 299l45 395l-370 -395h325z" />
    <glyph glyph-name="questiondown" unicode="&#xbf;" horiz-adv-x="851" 
d="M492 868q38 0 63 25.5t25 67.5q0 31 -17 50t-49 19q-39 0 -64.5 -27.5t-25.5 -66.5q0 -32 18.5 -50t49.5 -18zM694 -162l-61 23q-42 -92 -103 -136t-180 -44q-114 0 -175.5 65.5t-61.5 177.5q0 71 22 134.5t54 109t86.5 92.5t99 76.5t112.5 69.5l19 241h-66l-37 -219
q-110 -67 -153 -101q-215 -169 -215 -413q0 -146 81.5 -224.5t223.5 -78.5q143 0 222 55.5t132 171.5z" />
    <glyph glyph-name="Agrave" unicode="&#xc0;" horiz-adv-x="1335" 
d="M778 1520l-71 -7l-125 209l92 15zM1165 68q44 -13 144 -13l-13 -61q-38 -10 -96 -10q-52 0 -77.5 16t-37.5 61l-104 388h-717l-223 -449h-86l733 1448l94 18zM299 520h662l-234 860z" />
    <glyph glyph-name="Aacute" unicode="&#xc1;" horiz-adv-x="1335" 
d="M948 1722l-174 -209l-69 7l153 217zM1165 68q44 -13 144 -13l-13 -61q-38 -10 -96 -10q-52 0 -77.5 16t-37.5 61l-104 388h-717l-223 -449h-86l733 1448l94 18zM299 520h662l-234 860z" />
    <glyph glyph-name="Acircumflex" unicode="&#xc2;" horiz-adv-x="1335" 
d="M768 1694l-184 -176l-68 12l221 213h70l174 -213l-72 -12zM1165 68q44 -13 144 -13l-13 -61q-38 -10 -96 -10q-52 0 -77.5 16t-37.5 61l-104 388h-717l-223 -449h-86l733 1448l94 18zM299 520h662l-234 860z" />
    <glyph glyph-name="Atilde" unicode="&#xc3;" horiz-adv-x="1335" 
d="M651 1620q-34 0 -54 -22.5t-30 -77.5l-51 8q15 78 48 115.5t89 37.5q43 0 112 -23.5t101 -23.5q33 0 53.5 23t30.5 78l51 -6q-15 -81 -47 -118.5t-90 -37.5q-42 0 -111 23.5t-102 23.5zM1165 68q44 -13 144 -13l-13 -61q-38 -10 -96 -10q-52 0 -77.5 16t-37.5 61
l-104 388h-717l-223 -449h-86l733 1448l94 18zM299 520h662l-234 860z" />
    <glyph glyph-name="Adieresis" unicode="&#xc4;" horiz-adv-x="1335" 
d="M625 1563q-21 0 -34 13t-13 36q0 27 17 44t42 17q22 0 35.5 -13t13.5 -36q0 -27 -18 -44t-43 -17zM874 1563q-21 0 -34 13t-13 36q0 27 18 44t42 17q22 0 35.5 -13t13.5 -36q0 -27 -17.5 -44t-44.5 -17zM1165 68q44 -13 144 -13l-13 -61q-38 -10 -96 -10q-52 0 -77.5 16
t-37.5 61l-104 388h-717l-223 -449h-86l733 1448l94 18zM299 520h662l-234 860z" />
    <glyph glyph-name="Aring" unicode="&#xc5;" horiz-adv-x="1335" 
d="M741 1497q-57 0 -88.5 34t-31.5 93q0 75 43 120.5t112 45.5q58 0 90.5 -34t32.5 -93q0 -74 -43 -120t-115 -46zM772 1749q-46 0 -75 -33t-29 -88q0 -41 21.5 -65.5t58.5 -24.5q46 0 75 33.5t29 87.5q0 41 -21.5 65.5t-58.5 24.5zM1165 68q44 -13 144 -13l-13 -61
q-38 -10 -96 -10q-52 0 -77.5 16t-37.5 61l-104 388h-717l-223 -449h-86l733 1448l94 18zM299 520h662l-234 860z" />
    <glyph glyph-name="AE" unicode="&#xc6;" horiz-adv-x="1996" 
d="M1901 1382h-691l-69 -614h639l-6 -72h-641l-72 -622h702l-8 -74h-784l78 696h-539l-397 -696h-86l841 1454h1053zM553 768h504l71 614h-223z" />
    <glyph glyph-name="Ccedilla" unicode="&#xc7;" horiz-adv-x="1353" 
d="M838 1475q234 0 357.5 -105t123.5 -270q0 -26 -4 -58l-84 -8q16 171 -84 270t-313 99q-136 0 -251 -52t-199.5 -149.5t-132.5 -246.5t-48 -334q0 -269 139.5 -420.5t384.5 -151.5q283 0 461 133l12 -73q-28 -20 -63 -38.5t-94 -42t-142 -38t-176 -15.5l-14 -49
q64 0 102.5 -28t38.5 -88q0 -201 -272 -201l16 59q188 0 188 137q0 43 -32 60.5t-107 17.5l29 92q-259 12 -408 179.5t-149 457.5q0 200 54 363.5t150.5 272.5t228.5 168t288 59z" />
    <glyph glyph-name="Egrave" unicode="&#xc8;" horiz-adv-x="1091" 
d="M768 1520l-72 -7l-125 209l93 15zM1130 1382h-753l-70 -614h705l-8 -72h-705l-70 -622h764l-10 -74h-846l164 1454h848z" />
    <glyph glyph-name="Eacute" unicode="&#xc9;" horiz-adv-x="1091" 
d="M938 1722l-174 -209l-70 7l154 217zM1130 1382h-753l-70 -614h705l-8 -72h-705l-70 -622h764l-10 -74h-846l164 1454h848z" />
    <glyph glyph-name="Ecircumflex" unicode="&#xca;" horiz-adv-x="1091" 
d="M758 1694l-185 -176l-67 12l221 213h70l174 -213l-72 -12zM1130 1382h-753l-70 -614h705l-8 -72h-705l-70 -622h764l-10 -74h-846l164 1454h848z" />
    <glyph glyph-name="Edieresis" unicode="&#xcb;" horiz-adv-x="1091" 
d="M614 1563q-21 0 -34 13t-13 36q0 27 17.5 44t42.5 17q22 0 35.5 -13t13.5 -36q0 -27 -18 -44t-44 -17zM864 1563q-21 0 -34 13t-13 36q0 27 18 44t42 17q22 0 35.5 -13t13.5 -36q0 -27 -17.5 -44t-44.5 -17zM1130 1382h-753l-70 -614h705l-8 -72h-705l-70 -622h764
l-10 -74h-846l164 1454h848z" />
    <glyph glyph-name="Igrave" unicode="&#xcc;" horiz-adv-x="464" 
d="M283 1737l104 -217l-72 -7l-125 209zM307 1454l-170 -1454h84l168 1454h-82z" />
    <glyph glyph-name="Iacute" unicode="&#xcd;" horiz-adv-x="464" 
d="M467 1737l-154 -217l70 -7l174 209zM307 1454l-170 -1454h84l168 1454h-82z" />
    <glyph glyph-name="Icircumflex" unicode="&#xce;" horiz-adv-x="464" 
d="M416 1743l174 -213l-72 -12l-141 176l-184 -176l-68 12l221 213h70zM137 0l170 1454h82l-168 -1454h-84z" />
    <glyph glyph-name="Idieresis" unicode="&#xcf;" horiz-adv-x="464" 
d="M233 1563q26 0 44 17t18 44q0 23 -13.5 36t-35.5 13q-25 0 -42.5 -17t-17.5 -44q0 -23 13 -36t34 -13zM483 1563q27 0 44.5 17t17.5 44q0 23 -13.5 36t-35.5 13q-24 0 -42 -17t-18 -44q0 -23 13 -36t34 -13zM307 1454l-170 -1454h84l168 1454h-82z" />
    <glyph glyph-name="Eth" unicode="&#xd0;" horiz-adv-x="1484" 
d="M707 1475q132 0 241.5 -33t186.5 -91.5t130 -141t78 -180.5t25 -210q0 -174 -53.5 -322.5t-154.5 -259.5t-257.5 -174t-351.5 -63h-404l78 682h-157l8 70h157l72 630h-168l8 62q100 16 148 16q57 0 80 -26q144 41 334 41zM559 74q182 0 323 59t227 161.5t129.5 234
t43.5 284.5q0 123 -34 227t-102 186t-183 128.5t-265 46.5q-157 0 -309 -23l-72 -626h281l-8 -70h-281l-69 -608h319z" />
    <glyph glyph-name="Ntilde" unicode="&#xd1;" horiz-adv-x="1447" 
d="M770 1620q-34 0 -54 -22.5t-30 -77.5l-51 8q15 78 48 115.5t89 37.5q43 0 112 -23.5t101 -23.5q33 0 53.5 23t30.5 78l51 -6q-15 -81 -47 -118.5t-90 -37.5q-42 0 -111.5 23.5t-101.5 23.5zM1290 1454h82l-164 -1454h-75l-764 1317l-150 -1317h-82l164 1448l80 18
l760 -1321z" />
    <glyph glyph-name="Ograve" unicode="&#xd2;" horiz-adv-x="1572" 
d="M805 1737l104 -217l-71 -7l-125 209zM702 -25q222 0 395.5 113t266 305t92.5 428q0 191 -67 337.5t-200.5 231.5t-316.5 85q-223 0 -396.5 -112.5t-266 -304.5t-92.5 -429q0 -191 67 -337.5t201 -231.5t317 -85zM711 49q-241 0 -375.5 159t-134.5 425q0 220 83 395
t235 274t345 99q241 0 374.5 -158t133.5 -424q0 -166 -48 -308.5t-134 -244t-209.5 -159.5t-269.5 -58z" />
    <glyph glyph-name="Oacute" unicode="&#xd3;" horiz-adv-x="1572" 
d="M989 1737l-153 -217l69 -7l174 209zM702 -25q222 0 395.5 113t266 305t92.5 428q0 191 -67 337.5t-200.5 231.5t-316.5 85q-223 0 -396.5 -112.5t-266 -304.5t-92.5 -429q0 -191 67 -337.5t201 -231.5t317 -85zM711 49q-241 0 -375.5 159t-134.5 425q0 220 83 395
t235 274t345 99q241 0 374.5 -158t133.5 -424q0 -166 -48 -308.5t-134 -244t-209.5 -159.5t-269.5 -58z" />
    <glyph glyph-name="Ocircumflex" unicode="&#xd4;" horiz-adv-x="1572" 
d="M899 1694l-184 -176l-68 12l221 213h70l174 -213l-72 -12zM872 1475q183 0 316.5 -85t200.5 -231.5t67 -337.5q0 -236 -92.5 -428t-266 -305t-395.5 -113q-183 0 -317 85t-201 231.5t-67 337.5q0 237 92.5 429t266 304.5t396.5 112.5zM711 49q146 0 269.5 58t209.5 159.5
t134 244t48 308.5q0 266 -133.5 424t-374.5 158q-193 0 -345 -99t-235 -274t-83 -395q0 -266 134.5 -425t375.5 -159z" />
    <glyph glyph-name="Otilde" unicode="&#xd5;" horiz-adv-x="1572" 
d="M1133 1729q-15 -80 -47 -118t-91 -38q-41 0 -111 23.5t-102 23.5q-34 0 -54 -22.5t-30 -77.5l-51 8q15 78 48 115.5t89 37.5q43 0 112 -23.5t101 -23.5q33 0 53.5 23t30.5 78zM702 -25q222 0 395.5 113t266 305t92.5 428q0 191 -67 337.5t-200.5 231.5t-316.5 85
q-223 0 -396.5 -112.5t-266 -304.5t-92.5 -429q0 -191 67 -337.5t201 -231.5t317 -85zM711 49q-241 0 -375.5 159t-134.5 425q0 220 83 395t235 274t345 99q241 0 374.5 -158t133.5 -424q0 -166 -48 -308.5t-134 -244t-209.5 -159.5t-269.5 -58z" />
    <glyph glyph-name="Odieresis" unicode="&#xd6;" horiz-adv-x="1572" 
d="M756 1563q25 0 43 17t18 44q0 23 -13.5 36t-35.5 13q-25 0 -42 -17t-17 -44q0 -23 13 -36t34 -13zM1006 1563q27 0 44 17t17 44q0 23 -13.5 36t-35.5 13q-24 0 -42 -17t-18 -44q0 -23 13.5 -36t34.5 -13zM702 -25q222 0 395.5 113t266 305t92.5 428q0 191 -67 337.5
t-200.5 231.5t-316.5 85q-223 0 -396.5 -112.5t-266 -304.5t-92.5 -429q0 -191 67 -337.5t201 -231.5t317 -85zM711 49q-241 0 -375.5 159t-134.5 425q0 220 83 395t235 274t345 99q241 0 374.5 -158t133.5 -424q0 -166 -48 -308.5t-134 -244t-209.5 -159.5t-269.5 -58z" />
    <glyph glyph-name="multiply" unicode="&#xd7;" horiz-adv-x="978" 
d="M883 946l-316 -299l248 -295l-53 -47l-246 295l-313 -295l-45 47l315 297l-248 297l51 47l248 -295l314 295z" />
    <glyph glyph-name="Oslash" unicode="&#xd8;" horiz-adv-x="1572" 
d="M1282 1315q174 -180 174 -494q0 -236 -92.5 -428t-266 -305t-395.5 -113q-213 0 -362 117l-129 -168l-74 10l154 201q-85 88 -129.5 215t-44.5 279q0 237 92.5 429t266 304.5t396.5 112.5q212 0 361 -117l129 168l74 -10zM201 633q0 -276 141 -432l842 1093
q-129 107 -320 107q-193 0 -345 -99t-235 -274t-83 -395zM711 49q146 0 269.5 58t209.5 159.5t134 244t48 308.5q0 274 -141 430l-842 -1093q129 -107 322 -107z" />
    <glyph glyph-name="Ugrave" unicode="&#xd9;" horiz-adv-x="1411" 
d="M745 1737l105 -217l-72 -7l-125 209zM1356 1454h-82l-105 -905q-57 -502 -510 -502q-233 0 -324 122.5t-63 379.5l93 811q6 53 -14.5 75.5t-74.5 22.5q-86 0 -151 -14l-8 -60h168l-95 -823q-34 -299 77.5 -442.5t381.5 -143.5q272 0 420.5 139.5t183.5 434.5z" />
    <glyph glyph-name="Uacute" unicode="&#xda;" horiz-adv-x="1411" 
d="M930 1737l-154 -217l70 -7l174 209zM1356 1454h-82l-105 -905q-57 -502 -510 -502q-233 0 -324 122.5t-63 379.5l93 811q6 53 -14.5 75.5t-74.5 22.5q-86 0 -151 -14l-8 -60h168l-95 -823q-34 -299 77.5 -442.5t381.5 -143.5q272 0 420.5 139.5t183.5 434.5z" />
    <glyph glyph-name="Ucircumflex" unicode="&#xdb;" horiz-adv-x="1411" 
d="M840 1694l-185 -176l-67 12l221 213h70l174 -213l-72 -12zM1274 1454h82l-103 -905q-35 -295 -183.5 -434.5t-420.5 -139.5q-270 0 -381.5 143.5t-77.5 442.5l95 823h-168l8 60q65 14 151 14q54 0 74.5 -22.5t14.5 -75.5l-93 -811q-28 -257 63 -379.5t324 -122.5
q453 0 510 502z" />
    <glyph glyph-name="Udieresis" unicode="&#xdc;" horiz-adv-x="1411" 
d="M696 1563q26 0 44 17t18 44q0 23 -13.5 36t-35.5 13q-25 0 -42.5 -17t-17.5 -44q0 -23 13 -36t34 -13zM946 1563q27 0 44.5 17t17.5 44q0 23 -14 36t-36 13q-24 0 -41.5 -17t-17.5 -44q0 -23 13 -36t34 -13zM1356 1454h-82l-105 -905q-57 -502 -510 -502
q-233 0 -324 122.5t-63 379.5l93 811q6 53 -14.5 75.5t-74.5 22.5q-86 0 -151 -14l-8 -60h168l-95 -823q-34 -299 77.5 -442.5t381.5 -143.5q272 0 420.5 139.5t183.5 434.5z" />
    <glyph glyph-name="Yacute" unicode="&#xdd;" horiz-adv-x="1124" 
d="M899 1722l-174 -209l-70 7l154 217zM1120 1466l78 -18l-563 -842l-68 -606h-84l70 606l-363 778h-145l6 60q48 16 111 16q54 0 75 -14.5t46 -67.5l317 -700z" />
    <glyph glyph-name="Thorn" unicode="&#xde;" horiz-adv-x="1148" 
d="M588 1178q214 0 329 -92.5t115 -278.5q0 -244 -141 -364.5t-399 -120.5h-236l-35 -322h-84l164 1454h84l-31 -276h234zM500 393q228 0 340 96.5t112 313.5q0 159 -93 231t-277 72h-236l-82 -713h236z" />
    <glyph glyph-name="germandbls" unicode="&#xdf;" horiz-adv-x="1062" 
d="M625 672q0 -23 20 -44.5t52.5 -41t71.5 -40.5t78 -47.5t71.5 -58.5t52.5 -78t20 -100q0 -138 -82.5 -212.5t-244.5 -74.5q-96 0 -162.5 22.5t-100.5 51.5l15 74q105 -82 254 -82q252 0 252 217q0 64 -38 115.5t-92 84.5t-107.5 63t-91.5 66t-38 77q0 33 24.5 81t60 100.5
t71 109t60 124t24.5 129.5q0 90 -50 143.5t-155 53.5q-233 0 -266 -287l-127 -1118h-80l127 1122q20 175 112.5 264t243.5 89q144 0 209 -71t65 -181q0 -73 -25.5 -145t-62 -128t-73.5 -106t-62.5 -94.5t-25.5 -77.5z" />
    <glyph glyph-name="agrave" unicode="&#xe0;" 
d="M672 1126h-70l-160 326l90 8zM883 63q62 -10 143 -10l-8 -61q-50 -6 -111 -6q-59 0 -82 27.5t-16 90.5l14 113q-67 -113 -176.5 -177.5t-243.5 -64.5q-128 0 -200 68t-72 186q0 155 106.5 245.5t313.5 90.5q173 0 307 -39l12 99q15 148 -49 229.5t-209 81.5
q-260 0 -321 -234l-78 15q44 138 136.5 212.5t266.5 74.5q184 0 267 -97t63 -278zM426 43q156 0 276.5 108.5t141.5 247.5l8 66q-136 37 -301 37q-174 0 -258 -71t-84 -198q0 -93 56.5 -141.5t160.5 -48.5z" />
    <glyph glyph-name="aacute" unicode="&#xe1;" 
d="M887 1452l-234 -326h-71l217 334zM883 63q62 -10 143 -10l-8 -61q-50 -6 -111 -6q-59 0 -82 27.5t-16 90.5l14 113q-67 -113 -176.5 -177.5t-243.5 -64.5q-128 0 -200 68t-72 186q0 155 106.5 245.5t313.5 90.5q173 0 307 -39l12 99q15 148 -49 229.5t-209 81.5
q-260 0 -321 -234l-78 15q44 138 136.5 212.5t266.5 74.5q184 0 267 -97t63 -278zM426 43q156 0 276.5 108.5t141.5 247.5l8 66q-136 37 -301 37q-174 0 -258 -71t-84 -198q0 -93 56.5 -141.5t160.5 -48.5z" />
    <glyph glyph-name="acircumflex" unicode="&#xe2;" 
d="M664 1415l-228 -264l-71 4l270 313h70l198 -313l-72 -4zM883 63q62 -10 143 -10l-8 -61q-50 -6 -111 -6q-59 0 -82 27.5t-16 90.5l14 113q-67 -113 -176.5 -177.5t-243.5 -64.5q-128 0 -200 68t-72 186q0 155 106.5 245.5t313.5 90.5q173 0 307 -39l12 99
q15 148 -49 229.5t-209 81.5q-260 0 -321 -234l-78 15q44 138 136.5 212.5t266.5 74.5q184 0 267 -97t63 -278zM426 43q156 0 276.5 108.5t141.5 247.5l8 66q-136 37 -301 37q-174 0 -258 -71t-84 -198q0 -93 56.5 -141.5t160.5 -48.5z" />
    <glyph glyph-name="atilde" unicode="&#xe3;" 
d="M492 1339q-92 0 -119 -143l-54 8q37 195 179 195q60 0 147 -47t141 -47q46 0 74 32t45 111l53 -6q-35 -199 -176 -199q-48 0 -99.5 24t-100.5 48t-90 24zM883 63q62 -10 143 -10l-8 -61q-50 -6 -111 -6q-59 0 -82 27.5t-16 90.5l14 113q-67 -113 -176.5 -177.5
t-243.5 -64.5q-128 0 -200 68t-72 186q0 155 106.5 245.5t313.5 90.5q173 0 307 -39l12 99q15 148 -49 229.5t-209 81.5q-260 0 -321 -234l-78 15q44 138 136.5 212.5t266.5 74.5q184 0 267 -97t63 -278zM426 43q156 0 276.5 108.5t141.5 247.5l8 66q-136 37 -301 37
q-174 0 -258 -71t-84 -198q0 -93 56.5 -141.5t160.5 -48.5z" />
    <glyph glyph-name="adieresis" unicode="&#xe4;" 
d="M518 1245q-23 0 -37 15t-14 40q0 28 19.5 48t48.5 20q23 0 37 -15t14 -40q0 -29 -19.5 -48.5t-48.5 -19.5zM772 1245q-25 0 -39 15t-14 40q0 28 19 48t48 20q23 0 36.5 -15t13.5 -40q0 -29 -18 -48.5t-46 -19.5zM883 63q62 -10 143 -10l-8 -61q-50 -6 -111 -6
q-59 0 -82 27.5t-16 90.5l14 113q-67 -113 -176.5 -177.5t-243.5 -64.5q-128 0 -200 68t-72 186q0 155 106.5 245.5t313.5 90.5q173 0 307 -39l12 99q15 148 -49 229.5t-209 81.5q-260 0 -321 -234l-78 15q44 138 136.5 212.5t266.5 74.5q184 0 267 -97t63 -278zM426 43
q156 0 276.5 108.5t141.5 247.5l8 66q-136 37 -301 37q-174 0 -258 -71t-84 -198q0 -93 56.5 -141.5t160.5 -48.5z" />
    <glyph glyph-name="aring" unicode="&#xe5;" 
d="M631 1126q-73 0 -113.5 42.5t-40.5 113.5q0 86 53 141.5t142 55.5q72 0 112.5 -42.5t40.5 -111.5q0 -88 -53 -143.5t-141 -55.5zM666 1436q-67 0 -103.5 -42t-36.5 -108q0 -53 28 -85t83 -32q66 0 101.5 43t35.5 107q0 54 -26.5 85.5t-81.5 31.5zM883 63q62 -10 143 -10
l-8 -61q-50 -6 -111 -6q-59 0 -82 27.5t-16 90.5l14 113q-67 -113 -176.5 -177.5t-243.5 -64.5q-128 0 -200 68t-72 186q0 155 106.5 245.5t313.5 90.5q173 0 307 -39l12 99q15 148 -49 229.5t-209 81.5q-260 0 -321 -234l-78 15q44 138 136.5 212.5t266.5 74.5
q184 0 267 -97t63 -278zM426 43q156 0 276.5 108.5t141.5 247.5l8 66q-136 37 -301 37q-174 0 -258 -71t-84 -198q0 -93 56.5 -141.5t160.5 -48.5z" />
    <glyph glyph-name="ae" unicode="&#xe6;" horiz-adv-x="1751" 
d="M1341 1004q166 0 252 -104.5t86 -274.5q0 -56 -14 -152h-719q-2 -20 -2 -65q0 -363 328 -363q109 0 194.5 35.5t124.5 69.5l15 -68q-50 -40 -143 -73.5t-208 -33.5q-154 0 -248.5 73t-125.5 214q-61 -135 -183.5 -211t-269.5 -76q-131 0 -203.5 68t-72.5 186
q0 154 107.5 245t318.5 91q160 0 294 -39l13 99q18 147 -47 229t-209 82q-134 0 -211.5 -58t-108.5 -176l-76 15q21 66 52 115.5t78 89.5t115.5 61t156.5 21q137 0 218 -58t103 -166q64 107 163 165.5t222 58.5zM952 537h643q23 188 -50.5 292.5t-211.5 104.5
q-146 0 -249.5 -101.5t-131.5 -295.5zM438 43q163 0 282.5 110t139.5 257v-2l6 57q-132 37 -291 37q-181 0 -263.5 -73t-82.5 -198q0 -91 56 -139.5t153 -48.5z" />
    <glyph glyph-name="ccedilla" unicode="&#xe7;" horiz-adv-x="1040" 
d="M965 686l-76 -10q9 130 -55 194t-191 64q-184 0 -297 -144.5t-113 -381.5q0 -176 84 -269.5t230 -93.5q68 0 126.5 13t107.5 39.5t68.5 40t55.5 42.5l10 -71q-30 -25 -57 -43t-73 -41.5t-107 -36t-133 -13.5l-15 -49q64 0 103 -28t39 -88q0 -201 -273 -201l17 59
q188 0 188 137q0 43 -32 60.5t-107 17.5l29 94q-160 12 -251 119.5t-91 306.5q0 173 56.5 307.5t171 214t271.5 79.5t236.5 -75t81.5 -202q0 -17 -4 -41z" />
    <glyph glyph-name="egrave" unicode="&#xe8;" horiz-adv-x="1034" 
d="M678 1126h-70l-159 326l90 8zM625 1004q168 0 253 -104.5t85 -274.5q0 -63 -13 -152h-719q-2 -20 -2 -65q0 -363 328 -363q109 0 195.5 35.5t124.5 69.5l14 -68q-50 -41 -142.5 -74t-207.5 -33q-190 0 -289.5 109.5t-99.5 321.5q0 273 130.5 435.5t342.5 162.5zM238 537
h643q23 188 -51 292.5t-212 104.5q-145 0 -248.5 -101.5t-131.5 -295.5z" />
    <glyph glyph-name="eacute" unicode="&#xe9;" horiz-adv-x="1034" 
d="M895 1452l-233 -326h-72l217 334zM625 1004q168 0 253 -104.5t85 -274.5q0 -63 -13 -152h-719q-2 -20 -2 -65q0 -363 328 -363q109 0 195.5 35.5t124.5 69.5l14 -68q-50 -41 -142.5 -74t-207.5 -33q-190 0 -289.5 109.5t-99.5 321.5q0 273 130.5 435.5t342.5 162.5z
M238 537h643q23 188 -51 292.5t-212 104.5q-145 0 -248.5 -101.5t-131.5 -295.5z" />
    <glyph glyph-name="ecircumflex" unicode="&#xea;" horiz-adv-x="1034" 
d="M670 1415l-228 -264l-71 4l270 313h70l198 -313l-71 -4zM625 1004q168 0 253 -104.5t85 -274.5q0 -63 -13 -152h-719q-2 -20 -2 -65q0 -363 328 -363q109 0 195.5 35.5t124.5 69.5l14 -68q-50 -41 -142.5 -74t-207.5 -33q-190 0 -289.5 109.5t-99.5 321.5
q0 273 130.5 435.5t342.5 162.5zM238 537h643q23 188 -51 292.5t-212 104.5q-145 0 -248.5 -101.5t-131.5 -295.5z" />
    <glyph glyph-name="edieresis" unicode="&#xeb;" horiz-adv-x="1034" 
d="M524 1245q-23 0 -37 15t-14 40q0 28 19.5 48t48.5 20q23 0 37 -15t14 -40q0 -29 -19.5 -48.5t-48.5 -19.5zM778 1245q-25 0 -39 15t-14 40q0 28 19.5 48t48.5 20q23 0 36 -15t13 -40q0 -29 -18 -48.5t-46 -19.5zM625 1004q168 0 253 -104.5t85 -274.5q0 -63 -13 -152
h-719q-2 -20 -2 -65q0 -363 328 -363q109 0 195.5 35.5t124.5 69.5l14 -68q-50 -41 -142.5 -74t-207.5 -33q-190 0 -289.5 109.5t-99.5 321.5q0 273 130.5 435.5t342.5 162.5zM238 537h643q23 188 -51 292.5t-212 104.5q-145 0 -248.5 -101.5t-131.5 -295.5z" />
    <glyph glyph-name="igrave" unicode="&#xec;" horiz-adv-x="397" 
d="M137 1460l-90 -8l160 -326h69zM154 61l106 922h-78l-100 -868q-6 -42 -6 -64q0 -34 20.5 -49.5t69.5 -15.5q25 0 100 6l8 61q-79 0 -120 8z" />
    <glyph glyph-name="iacute" unicode="&#xed;" horiz-adv-x="397" 
d="M406 1460l-218 -334h72l234 326zM154 61l106 922h-78l-100 -868q-6 -42 -6 -64q0 -34 20.5 -49.5t69.5 -15.5q25 0 100 6l8 61q-79 0 -120 8z" />
    <glyph glyph-name="icircumflex" unicode="&#xee;" horiz-adv-x="397" 
d="M311 1468l199 -313l-72 -4l-168 264l-227 -264l-72 4l271 313h69zM260 983l-106 -922q41 -8 120 -8l-8 -61q-75 -6 -100 -6q-49 0 -69.5 15.5t-20.5 49.5q0 22 6 64l100 868h78z" />
    <glyph glyph-name="idieresis" unicode="&#xef;" horiz-adv-x="397" 
d="M123 1245q29 0 48 19.5t19 48.5q0 25 -14 40t-37 15q-29 0 -48 -20t-19 -48q0 -25 14 -40t37 -15zM377 1245q28 0 45.5 19.5t17.5 48.5q0 25 -13 40t-36 15q-29 0 -48 -20t-19 -48q0 -25 14 -40t39 -15zM154 61l106 922h-78l-100 -868q-6 -42 -6 -64q0 -34 20.5 -49.5
t69.5 -15.5q25 0 100 6l8 61q-79 0 -120 8z" />
    <glyph glyph-name="eth" unicode="&#xf0;" horiz-adv-x="1181" 
d="M1110 1376l-217 -94q174 -201 174 -592q0 -171 -30 -300.5t-77.5 -207t-117.5 -125.5t-140.5 -65t-154.5 -17q-182 0 -288.5 113t-106.5 315q0 258 142 409t361 151q226 0 330 -191q-22 314 -170 475l-391 -170l-6 64l350 151q-142 117 -375 117l21 66q273 0 434 -148
l258 113zM557 45q72 0 135 19t116.5 60.5t91.5 103t59.5 149.5t21.5 196q0 56 -22 111.5t-62.5 102.5t-104.5 76.5t-141 29.5q-187 0 -303.5 -131.5t-116.5 -353.5q0 -171 86.5 -267t239.5 -96z" />
    <glyph glyph-name="ntilde" unicode="&#xf1;" horiz-adv-x="1220" 
d="M561 1339q-92 0 -119 -143l-53 8q37 195 178 195q59 0 147 -47t142 -47q46 0 74 32t45 111l53 -6q-35 -199 -176 -199q-48 0 -100 24t-101 48t-90 24zM971 61q49 -8 147 -8l-12 -61q-87 -6 -113 -6q-63 0 -83.5 19.5t-14.5 74.5l59 516q34 336 -256 336
q-142 0 -252.5 -103.5t-130.5 -234.5l-67 -594h-78l102 903q-19 16 -44.5 20.5t-75.5 4.5l10 59q35 10 65 10q132 0 119 -139l-10 -76q61 100 161.5 161t227.5 61q179 0 254 -106t53 -298z" />
    <glyph glyph-name="ograve" unicode="&#xf2;" 
d="M580 1460l-91 -8l160 -326h70zM152 414q0 -207 107 -323t290 -116q223 0 366.5 158t143.5 428q0 209 -106.5 326t-288.5 117q-147 0 -262.5 -68.5t-182.5 -203.5t-67 -318zM231 420q0 236 118 375t308 139q150 0 236 -100t86 -279q0 -235 -117 -372.5t-307 -137.5
q-152 0 -238 98.5t-86 276.5z" />
    <glyph glyph-name="oacute" unicode="&#xf3;" 
d="M846 1460l-217 -334h71l234 326zM152 414q0 -207 107 -323t290 -116q223 0 366.5 158t143.5 428q0 209 -106.5 326t-288.5 117q-147 0 -262.5 -68.5t-182.5 -203.5t-67 -318zM231 420q0 236 118 375t308 139q150 0 236 -100t86 -279q0 -235 -117 -372.5t-307 -137.5
q-152 0 -238 98.5t-86 276.5z" />
    <glyph glyph-name="ocircumflex" unicode="&#xf4;" 
d="M711 1415l-228 -264l-71 4l270 313h70l198 -313l-71 -4zM664 1004q182 0 288.5 -117t106.5 -326q0 -270 -143.5 -428t-366.5 -158q-183 0 -290 116t-107 323q0 183 67 318t182.5 203.5t262.5 68.5zM555 45q190 0 307 137.5t117 372.5q0 179 -86 279t-236 100
q-190 0 -308 -139t-118 -375q0 -178 86 -276.5t238 -98.5z" />
    <glyph glyph-name="otilde" unicode="&#xf5;" 
d="M1006 1442q-35 -199 -177 -199q-48 0 -99.5 24t-100.5 48t-90 24q-92 0 -119 -143l-53 8q37 195 178 195q59 0 147 -47t142 -47q46 0 73.5 32t44.5 111zM152 414q0 -207 107 -323t290 -116q223 0 366.5 158t143.5 428q0 209 -106.5 326t-288.5 117q-147 0 -262.5 -68.5
t-182.5 -203.5t-67 -318zM231 420q0 236 118 375t308 139q150 0 236 -100t86 -279q0 -235 -117 -372.5t-307 -137.5q-152 0 -238 98.5t-86 276.5z" />
    <glyph glyph-name="odieresis" unicode="&#xf6;" 
d="M565 1245q29 0 48.5 19.5t19.5 48.5q0 25 -14 40t-37 15q-29 0 -48.5 -20t-19.5 -48q0 -25 14 -40t37 -15zM819 1245q28 0 46 19.5t18 48.5q0 25 -13 40t-36 15q-29 0 -48.5 -20t-19.5 -48q0 -25 14 -40t39 -15zM152 414q0 -207 107 -323t290 -116q223 0 366.5 158
t143.5 428q0 209 -106.5 326t-288.5 117q-147 0 -262.5 -68.5t-182.5 -203.5t-67 -318zM231 420q0 236 118 375t308 139q150 0 236 -100t86 -279q0 -235 -117 -372.5t-307 -137.5q-152 0 -238 98.5t-86 276.5z" />
    <glyph glyph-name="divide" unicode="&#xf7;" horiz-adv-x="1046" 
d="M582 895q32 0 57 24t25 56q0 29 -19 48t-47 19q-31 0 -55.5 -23.5t-24.5 -55.5q0 -28 18.5 -48t45.5 -20zM950 684h-784l-8 -70h784zM510 256q32 0 57 24t25 56q0 29 -19 48t-47 19q-32 0 -56 -23.5t-24 -55.5q0 -28 18.5 -48t45.5 -20z" />
    <glyph glyph-name="oslash" unicode="&#xf8;" 
d="M936 903q123 -120 123 -342q0 -270 -143.5 -428t-366.5 -158q-135 0 -230 64l-83 -115l-64 10l100 142q-120 120 -120 338q0 183 67 318t182.5 203.5t262.5 68.5q132 0 227 -64l82 115l65 -11zM231 420q0 -182 88 -279l527 736q-79 57 -189 57q-190 0 -308 -139
t-118 -375zM555 45q190 0 307 137.5t117 372.5q0 182 -90 283l-524 -736q79 -57 190 -57z" />
    <glyph glyph-name="ugrave" unicode="&#xf9;" horiz-adv-x="1193" 
d="M709 1126h-70l-160 326l90 8zM934 63q55 -10 145 -10l-10 -61q-54 -6 -102 -6q-62 0 -88 27.5t-19 97.5l12 110q-67 -118 -173.5 -182t-243.5 -64q-160 0 -221 87.5t-37 295.5l59 545q-35 25 -119 25l10 59q28 8 70 8q66 0 94 -31t21 -98l-56 -495q-22 -176 24.5 -250
t180.5 -74q89 0 165.5 35t127.5 91.5t82.5 122t40.5 130.5l61 557h80z" />
    <glyph glyph-name="uacute" unicode="&#xfa;" horiz-adv-x="1193" 
d="M926 1452l-234 -326h-71l217 334zM934 63q55 -10 145 -10l-10 -61q-54 -6 -102 -6q-62 0 -88 27.5t-19 97.5l12 110q-67 -118 -173.5 -182t-243.5 -64q-160 0 -221 87.5t-37 295.5l59 545q-35 25 -119 25l10 59q28 8 70 8q66 0 94 -31t21 -98l-56 -495
q-22 -176 24.5 -250t180.5 -74q89 0 165.5 35t127.5 91.5t82.5 122t40.5 130.5l61 557h80z" />
    <glyph glyph-name="ucircumflex" unicode="&#xfb;" horiz-adv-x="1193" 
d="M700 1415l-227 -264l-72 4l271 313h69l199 -313l-72 -4zM934 63q55 -10 145 -10l-10 -61q-54 -6 -102 -6q-62 0 -88 27.5t-19 97.5l12 110q-67 -118 -173.5 -182t-243.5 -64q-160 0 -221 87.5t-37 295.5l59 545q-35 25 -119 25l10 59q28 8 70 8q66 0 94 -31t21 -98
l-56 -495q-22 -176 24.5 -250t180.5 -74q89 0 165.5 35t127.5 91.5t82.5 122t40.5 130.5l61 557h80z" />
    <glyph glyph-name="udieresis" unicode="&#xfc;" horiz-adv-x="1193" 
d="M555 1245q-23 0 -37 15t-14 40q0 28 19 48t48 20q23 0 37.5 -15t14.5 -40q0 -29 -19.5 -48.5t-48.5 -19.5zM809 1245q-25 0 -39 15t-14 40q0 28 19 48t48 20q23 0 36 -15t13 -40q0 -29 -17.5 -48.5t-45.5 -19.5zM934 63q55 -10 145 -10l-10 -61q-54 -6 -102 -6
q-62 0 -88 27.5t-19 97.5l12 110q-67 -118 -173.5 -182t-243.5 -64q-160 0 -221 87.5t-37 295.5l59 545q-35 25 -119 25l10 59q28 8 70 8q66 0 94 -31t21 -98l-56 -495q-22 -176 24.5 -250t180.5 -74q89 0 165.5 35t127.5 91.5t82.5 122t40.5 130.5l61 557h80z" />
    <glyph glyph-name="yacute" unicode="&#xfd;" horiz-adv-x="995" 
d="M846 1452l-234 -326h-71l217 334zM948 993l82 -12l-608 -1196q-48 -92 -110 -133t-167 -41q-72 0 -116 22l6 74q58 -26 112 -26q78 0 124 24t83 100l97 193l-283 911q-31 15 -92 15l8 61q40 8 63 8q42 0 66 -20t39 -70l248 -809z" />
    <glyph glyph-name="thorn" unicode="&#xfe;" horiz-adv-x="1110" 
d="M674 1004q174 0 269 -110.5t95 -311.5q0 -283 -137 -445t-399 -162q-152 0 -262 62l-45 -406h-78l205 1823h77l-71 -637q53 86 140 136.5t206 50.5zM514 45q207 0 327 135.5t120 394.5q0 172 -77 265.5t-225 93.5q-143 0 -240.5 -92.5t-111.5 -216.5l-57 -510
q102 -70 264 -70z" />
    <glyph glyph-name="ydieresis" unicode="&#xff;" horiz-adv-x="995" 
d="M475 1245q-23 0 -37 15t-14 40q0 28 19.5 48t48.5 20q23 0 37 -15t14 -40q0 -29 -19.5 -48.5t-48.5 -19.5zM729 1245q-25 0 -39 15t-14 40q0 28 19 48t48 20q23 0 36.5 -15t13.5 -40q0 -29 -18 -48.5t-46 -19.5zM948 993l82 -12l-608 -1196q-48 -92 -110 -133t-167 -41
q-72 0 -116 22l6 74q58 -26 112 -26q78 0 124 24t83 100l97 193l-283 911q-31 15 -92 15l8 61q40 8 63 8q42 0 66 -20t39 -70l248 -809z" />
    <glyph glyph-name="Amacron" unicode="&#x100;" horiz-adv-x="1335" 
d="M1018 1647l-8 -66h-514l8 66h514zM1165 68q44 -13 144 -13l-13 -61q-38 -10 -96 -10q-52 0 -77.5 16t-37.5 61l-104 388h-717l-223 -449h-86l733 1448l94 18zM299 520h662l-234 860z" />
    <glyph glyph-name="amacron" unicode="&#x101;" 
d="M930 1319l-8 -66h-555l8 66h555zM883 63q62 -10 143 -10l-8 -61q-50 -6 -111 -6q-59 0 -82 27.5t-16 90.5l14 113q-67 -113 -176.5 -177.5t-243.5 -64.5q-128 0 -200 68t-72 186q0 155 106.5 245.5t313.5 90.5q173 0 307 -39l12 99q15 148 -49 229.5t-209 81.5
q-260 0 -321 -234l-78 15q44 138 136.5 212.5t266.5 74.5q184 0 267 -97t63 -278zM426 43q156 0 276.5 108.5t141.5 247.5l8 66q-136 37 -301 37q-174 0 -258 -71t-84 -198q0 -93 56.5 -141.5t160.5 -48.5z" />
    <glyph glyph-name="Abreve" unicode="&#x102;" horiz-adv-x="1335" 
d="M745 1513q-180 0 -180 224l58 6q0 -92 32 -131t99 -39q73 0 114.5 38.5t61.5 131.5l55 -6q-22 -120 -82.5 -172t-157.5 -52zM1165 68q44 -13 144 -13l-13 -61q-38 -10 -96 -10q-52 0 -77.5 16t-37.5 61l-104 388h-717l-223 -449h-86l733 1448l94 18zM299 520h662
l-234 860z" />
    <glyph glyph-name="abreve" unicode="&#x103;" 
d="M633 1149q-121 0 -173 67.5t-52 221.5l63 4q-1 -130 41 -180t129 -50q86 0 140 51t79 179l62 -4q-26 -151 -96 -220t-193 -69zM883 63q62 -10 143 -10l-8 -61q-50 -6 -111 -6q-59 0 -82 27.5t-16 90.5l14 113q-67 -113 -176.5 -177.5t-243.5 -64.5q-128 0 -200 68
t-72 186q0 155 106.5 245.5t313.5 90.5q173 0 307 -39l12 99q15 148 -49 229.5t-209 81.5q-260 0 -321 -234l-78 15q44 138 136.5 212.5t266.5 74.5q184 0 267 -97t63 -278zM426 43q156 0 276.5 108.5t141.5 247.5l8 66q-136 37 -301 37q-174 0 -258 -71t-84 -198
q0 -93 56.5 -141.5t160.5 -48.5z" />
    <glyph glyph-name="Aogonek" unicode="&#x104;" horiz-adv-x="1335" 
d="M1296 -6q-215 -113 -215 -248q0 -41 21 -61.5t55 -20.5q44 0 100 25l-2 -62q-46 -24 -116 -24q-131 0 -131 121q0 162 192 260q-53 0 -78 15.5t-37 61.5l-104 388h-717l-223 -449h-86l733 1448l94 18l383 -1398q44 -13 144 -13zM299 520h662l-234 860z" />
    <glyph glyph-name="aogonek" unicode="&#x105;" 
d="M1026 53l-8 -61h-2q-215 -113 -215 -248q0 -41 21 -61.5t55 -20.5q44 0 100 25l-2 -62q-46 -24 -117 -24q-131 0 -131 120q0 50 18.5 93.5t50 76t64 55t70.5 40.5h-23q-59 0 -82 27.5t-16 90.5l14 113q-67 -113 -176.5 -177.5t-243.5 -64.5q-128 0 -200 68t-72 186
q0 155 106.5 245.5t313.5 90.5q173 0 307 -39l12 99q15 148 -49 229.5t-209 81.5q-260 0 -321 -234l-78 15q44 138 136.5 212.5t266.5 74.5q184 0 267 -97t63 -278l-63 -566q62 -10 143 -10zM426 43q156 0 276.5 108.5t141.5 247.5l8 66q-136 37 -301 37q-174 0 -258 -71
t-84 -198q0 -93 56.5 -141.5t160.5 -48.5z" />
    <glyph glyph-name="Cacute" unicode="&#x106;" horiz-adv-x="1353" 
d="M954 1737l-153 -217l69 -7l174 209zM727 49q-245 0 -384.5 151.5t-139.5 420.5q0 185 48 334t132.5 246.5t199.5 149.5t251 52q213 0 313 -99t84 -270l84 8q4 32 4 58q0 165 -123.5 270t-357.5 105q-156 0 -288 -59t-228.5 -168t-150.5 -272.5t-54 -363.5
q0 -302 160 -469.5t436 -167.5q179 0 300.5 42.5t186.5 91.5l-12 73q-178 -133 -461 -133z" />
    <glyph glyph-name="cacute" unicode="&#x107;" horiz-adv-x="1040" 
d="M834 1460l-218 -334h72l234 326zM905 180q-36 -29 -55.5 -42.5t-68.5 -40t-107.5 -39.5t-126.5 -13q-146 0 -230 93.5t-84 269.5q0 237 113 381.5t297 144.5q127 0 191 -64t55 -194l76 10q4 24 4 41q-2 127 -81.5 202t-236.5 75t-271.5 -79.5t-171 -214t-56.5 -307.5
q0 -212 104 -320t283 -108q73 0 135 12.5t109.5 36.5t73 41t58.5 44z" />
    <glyph glyph-name="Cdotaccent" unicode="&#x10a;" horiz-adv-x="1353" 
d="M848 1569q29 0 47 20t18 51q0 24 -14 39t-37 15q-28 0 -46.5 -20.5t-18.5 -49.5q0 -24 14 -39.5t37 -15.5zM727 49q-245 0 -384.5 151.5t-139.5 420.5q0 185 48 334t132.5 246.5t199.5 149.5t251 52q213 0 313 -99t84 -270l84 8q4 32 4 58q0 165 -123.5 270t-357.5 105
q-156 0 -288 -59t-228.5 -168t-150.5 -272.5t-54 -363.5q0 -302 160 -469.5t436 -167.5q179 0 300.5 42.5t186.5 91.5l-12 73q-178 -133 -461 -133z" />
    <glyph glyph-name="cdotaccent" unicode="&#x10b;" horiz-adv-x="1040" 
d="M678 1241q29 0 49.5 21.5t20.5 52.5q0 25 -15 42t-41 17q-28 0 -48.5 -21t-20.5 -50q0 -27 15.5 -44.5t39.5 -17.5zM905 180q-36 -29 -55.5 -42.5t-68.5 -40t-107.5 -39.5t-126.5 -13q-146 0 -230 93.5t-84 269.5q0 237 113 381.5t297 144.5q127 0 191 -64t55 -194l76 10
q4 24 4 41q-2 127 -81.5 202t-236.5 75t-271.5 -79.5t-171 -214t-56.5 -307.5q0 -212 104 -320t283 -108q73 0 135 12.5t109.5 36.5t73 41t58.5 44z" />
    <glyph glyph-name="Ccaron" unicode="&#x10c;" horiz-adv-x="1353" 
d="M879 1518h-72l-172 213l72 12l143 -178l182 178l68 -12zM838 1475q234 0 357.5 -105t123.5 -270q0 -26 -4 -58l-84 -8q16 171 -84 270t-313 99q-136 0 -251 -52t-199.5 -149.5t-132.5 -246.5t-48 -334q0 -269 139.5 -420.5t384.5 -151.5q283 0 461 133l12 -73
q-27 -20 -63.5 -39.5t-96.5 -43t-145.5 -37.5t-181.5 -14q-276 0 -436 167.5t-160 469.5q0 200 54 363.5t150.5 272.5t228.5 168t288 59z" />
    <glyph glyph-name="ccaron" unicode="&#x10d;" horiz-adv-x="1040" 
d="M702 1141h-69l-201 313l72 4l168 -266l229 266l70 -4zM651 1004q157 0 236.5 -75t81.5 -202q0 -17 -4 -41l-76 -10q9 130 -55 194t-191 64q-184 0 -297 -144.5t-113 -381.5q0 -176 84 -269.5t230 -93.5q68 0 126.5 13t107.5 39.5t68.5 40t55.5 42.5l10 -71
q-33 -27 -58.5 -44t-73 -41t-109.5 -36.5t-135 -12.5q-179 0 -283 108t-104 320q0 173 56.5 307.5t171 214t271.5 79.5z" />
    <glyph glyph-name="Dcaron" unicode="&#x10e;" horiz-adv-x="1484" 
d="M745 1518h-71l-172 213l71 12l144 -178l182 178l68 -12zM707 1475q132 0 241.5 -33t186.5 -91.5t130 -141t78 -180.5t25 -210q0 -174 -53.5 -322.5t-154.5 -259.5t-257.5 -174t-351.5 -63h-404l158 1382h-168l8 62q100 16 148 16q57 0 80 -26q144 41 334 41zM559 74
q182 0 323 59t227 161.5t129.5 234t43.5 284.5q0 123 -34 227t-102 186t-183 128.5t-265 46.5q-157 0 -309 -23l-149 -1304h319z" />
    <glyph glyph-name="dcaron" unicode="&#x10f;" horiz-adv-x="1216" 
d="M1321 1460l72 -6l-99 -375l-65 6zM1001 1454h76l-155 -1391q62 -10 147 -10l-10 -61q-44 -6 -115 -6q-56 0 -79 30t-13 111l4 47q-58 -88 -151.5 -143.5t-217.5 -55.5q-152 0 -243.5 111t-91.5 311q0 277 138.5 442t362.5 165q180 0 287 -86zM874 338l58 500
q-110 96 -285 96q-186 0 -301 -149.5t-115 -383.5q0 -178 78 -267t197 -89q142 0 245 87.5t123 205.5z" />
    <glyph glyph-name="Dcroat" unicode="&#x110;" horiz-adv-x="1484" 
d="M707 1475q132 0 241.5 -33t186.5 -91.5t130 -141t78 -180.5t25 -210q0 -174 -53.5 -322.5t-154.5 -259.5t-257.5 -174t-351.5 -63h-404l78 682h-157l8 70h157l72 630h-168l8 62q100 16 148 16q57 0 80 -26q144 41 334 41zM559 74q182 0 323 59t227 161.5t129.5 234
t43.5 284.5q0 123 -34 227t-102 186t-183 128.5t-265 46.5q-157 0 -309 -23l-72 -626h281l-8 -70h-281l-69 -608h319z" />
    <glyph glyph-name="dcroat" unicode="&#x111;" horiz-adv-x="1286" 
d="M1196 1171h-149l-125 -1108q62 -10 147 -10l-10 -61q-44 -6 -115 -6q-56 0 -79 30t-13 111l4 47q-58 -88 -150 -143.5t-214 -55.5q-155 0 -247.5 111t-92.5 311q0 277 138.5 442t362.5 165q180 0 287 -86l29 253h-381l8 64h381l24 219h76l-24 -219h151zM874 344l58 494
q-110 96 -285 96q-186 0 -301 -149.5t-115 -383.5q0 -179 78 -267.5t201 -88.5q140 0 244 91t120 208z" />
    <glyph glyph-name="Emacron" unicode="&#x112;" horiz-adv-x="1091" 
d="M1008 1647l-9 -66h-514l9 66h514zM1130 1382h-753l-70 -614h705l-8 -72h-705l-70 -622h764l-10 -74h-846l164 1454h848z" />
    <glyph glyph-name="emacron" unicode="&#x113;" horiz-adv-x="1034" 
d="M938 1319l-8 -66h-555l8 66h555zM625 1004q168 0 253 -104.5t85 -274.5q0 -63 -13 -152h-719q-2 -20 -2 -65q0 -363 328 -363q109 0 195.5 35.5t124.5 69.5l14 -68q-50 -41 -142.5 -74t-207.5 -33q-190 0 -289.5 109.5t-99.5 321.5q0 273 130.5 435.5t342.5 162.5z
M238 537h643q23 188 -51 292.5t-212 104.5q-145 0 -248.5 -101.5t-131.5 -295.5z" />
    <glyph glyph-name="Edotaccent" unicode="&#x116;" horiz-adv-x="1091" 
d="M741 1569q-23 0 -37 15.5t-14 39.5q0 29 19 49.5t47 20.5q23 0 37 -15t14 -39q0 -31 -18.5 -51t-47.5 -20zM1130 1382h-753l-70 -614h705l-8 -72h-705l-70 -622h764l-10 -74h-846l164 1454h848z" />
    <glyph glyph-name="edotaccent" unicode="&#x117;" horiz-adv-x="1034" 
d="M651 1241q-24 0 -39.5 17.5t-15.5 44.5q0 29 21 50t49 21q26 0 40.5 -16.5t14.5 -42.5q0 -31 -20.5 -52.5t-49.5 -21.5zM625 1004q168 0 253 -104.5t85 -274.5q0 -63 -13 -152h-719q-2 -20 -2 -65q0 -363 328 -363q109 0 195.5 35.5t124.5 69.5l14 -68
q-50 -41 -142.5 -74t-207.5 -33q-190 0 -289.5 109.5t-99.5 321.5q0 273 130.5 435.5t342.5 162.5zM238 537h643q23 188 -51 292.5t-212 104.5q-145 0 -248.5 -101.5t-131.5 -295.5z" />
    <glyph glyph-name="Eogonek" unicode="&#x118;" horiz-adv-x="1091" 
d="M1130 1382h-753l-70 -614h705l-8 -72h-705l-70 -622h764l-10 -74q-215 -113 -215 -248q0 -41 21 -61.5t55 -20.5q44 0 100 25l-2 -62q-46 -24 -117 -24q-131 0 -131 121q0 168 213 270h-770l164 1454h848z" />
    <glyph glyph-name="eogonek" unicode="&#x119;" horiz-adv-x="1034" 
d="M625 1004q168 0 253 -104.5t85 -274.5q0 -63 -13 -152h-719q-2 -20 -2 -65q0 -363 328 -363q109 0 195.5 35.5t124.5 69.5l14 -68q-47 -36 -103 -59q-213 -109 -213 -246q0 -41 21 -61.5t55 -20.5q47 0 101 24l-2 -61q-48 -25 -117 -25q-131 0 -131 121q0 135 139 230
q-47 -9 -100 -9q-190 0 -289.5 109.5t-99.5 321.5q0 273 130.5 435.5t342.5 162.5zM238 537h643q23 188 -51 292.5t-212 104.5q-145 0 -248.5 -101.5t-131.5 -295.5z" />
    <glyph glyph-name="Ecaron" unicode="&#x11a;" horiz-adv-x="1091" 
d="M772 1518h-72l-172 213l72 12l143 -178l183 178l67 -12zM1130 1382h-753l-70 -614h705l-8 -72h-705l-70 -622h764l-10 -74h-846l164 1454h848z" />
    <glyph glyph-name="ecaron" unicode="&#x11b;" horiz-adv-x="1034" 
d="M674 1141h-70l-201 313l72 4l168 -266l229 266l70 -4zM625 1004q168 0 253 -104.5t85 -274.5q0 -63 -13 -152h-719q-2 -20 -2 -65q0 -363 328 -363q109 0 195.5 35.5t124.5 69.5l14 -68q-50 -41 -142.5 -74t-207.5 -33q-190 0 -289.5 109.5t-99.5 321.5
q0 273 130.5 435.5t342.5 162.5zM238 537h643q23 188 -51 292.5t-212 104.5q-145 0 -248.5 -101.5t-131.5 -295.5z" />
    <glyph glyph-name="Gbreve" unicode="&#x11e;" horiz-adv-x="1503" 
d="M860 1513q-180 0 -180 224l57 6q0 -92 32 -131t99 -39q73 0 114.5 38.5t61.5 131.5l56 -6q-22 -120 -82.5 -172t-157.5 -52zM1323 741q43 0 43 -36q0 -13 -2.5 -44.5t-3.5 -42.5l-70 -618h-63l28 291q-81 -157 -226.5 -236.5t-330.5 -79.5q-275 0 -428 169t-153 470
q0 206 57 370.5t159.5 271t243.5 163t310 56.5q222 0 347 -104t128 -290l-86 -16q2 156 -103.5 247t-293.5 91q-312 0 -495 -210t-183 -570q0 -269 135 -421.5t377 -152.5q109 0 202.5 29t170 88t126.5 157t64 226l14 125h-473l6 67h500z" />
    <glyph glyph-name="gbreve" unicode="&#x11f;" horiz-adv-x="1071" 
d="M627 1149q-121 0 -173.5 67.5t-52.5 221.5l64 4q-1 -130 41 -180t129 -50q86 0 140 51t79 179l61 -4q-26 -151 -95.5 -220t-192.5 -69zM721 154q119 -1 177 -59.5t58 -149.5q0 -144 -125 -239t-356 -95q-211 0 -306 60.5t-95 181.5q0 166 172 260q-80 43 -80 129
q0 136 170 223q-96 75 -96 205q0 143 103 238.5t280 95.5q122 0 202 -54q37 89 101.5 133t167.5 50l2 -72q-86 -4 -141 -39.5t-87 -106.5q68 -71 68 -182q0 -143 -102 -237.5t-281 -94.5q-98 0 -174 37q-81 -48 -111 -87.5t-30 -92.5q0 -55 39.5 -78.5t125.5 -23.5zM614 944
q-138 0 -219.5 -72t-81.5 -200q0 -101 66 -156t182 -55q138 0 218.5 71t80.5 199q0 101 -65 157t-181 56zM487 -322q187 0 288.5 72t101.5 178q0 74 -47.5 117t-137.5 43h-327q-36 0 -54 4q-159 -76 -159 -227q0 -91 77 -139t258 -48z" />
    <glyph glyph-name="Gdotaccent" unicode="&#x120;" horiz-adv-x="1503" 
d="M866 1569q-23 0 -37 15.5t-14 39.5q0 29 19 49.5t47 20.5q23 0 37 -15t14 -39q0 -31 -18.5 -51t-47.5 -20zM1323 741q43 0 43 -36q0 -13 -2.5 -44.5t-3.5 -42.5l-70 -618h-63l28 291q-81 -157 -226.5 -236.5t-330.5 -79.5q-275 0 -428 169t-153 470q0 206 57 370.5
t159.5 271t243.5 163t310 56.5q222 0 347 -104t128 -290l-86 -16q2 156 -103.5 247t-293.5 91q-312 0 -495 -210t-183 -570q0 -269 135 -421.5t377 -152.5q109 0 202.5 29t170 88t126.5 157t64 226l14 125h-473l6 67h500z" />
    <glyph glyph-name="gdotaccent" unicode="&#x121;" horiz-adv-x="1071" 
d="M639 1241q-24 0 -39.5 17.5t-15.5 44.5q0 29 20.5 50t48.5 21q26 0 41 -17t15 -42q0 -31 -20.5 -52.5t-49.5 -21.5zM721 154q119 -1 177 -59.5t58 -149.5q0 -144 -125 -239t-356 -95q-211 0 -306 60.5t-95 181.5q0 166 172 260q-80 43 -80 129q0 136 170 223
q-96 75 -96 205q0 143 103 238.5t280 95.5q122 0 202 -54q37 89 101.5 133t167.5 50l2 -72q-86 -4 -141 -39.5t-87 -106.5q68 -71 68 -182q0 -143 -102 -237.5t-281 -94.5q-98 0 -174 37q-81 -48 -111 -87.5t-30 -92.5q0 -55 39.5 -78.5t125.5 -23.5zM614 944
q-138 0 -219.5 -72t-81.5 -200q0 -101 66 -156t182 -55q138 0 218.5 71t80.5 199q0 101 -65 157t-181 56zM487 -322q187 0 288.5 72t101.5 178q0 74 -47.5 117t-137.5 43h-327q-36 0 -54 4q-159 -76 -159 -227q0 -91 77 -139t258 -48z" />
    <glyph glyph-name="Gcommaaccent" unicode="&#x122;" horiz-adv-x="1503" 
d="M1323 741q43 0 43 -36q0 -13 -2.5 -44.5t-3.5 -42.5l-70 -618h-63l28 291q-81 -157 -226.5 -236.5t-330.5 -79.5q-275 0 -428 169t-153 470q0 206 57 370.5t159.5 271t243.5 163t310 56.5q222 0 347 -104t128 -290l-86 -16q2 156 -103.5 247t-293.5 91q-312 0 -495 -210
t-183 -570q0 -269 135 -421.5t377 -152.5q109 0 202.5 29t170 88t126.5 157t64 226l14 125h-473l6 67h500zM698 -100q66 0 66 -82q0 -142 -143 -189l-7 43q40 16 60 39.5t24 65.5q-69 0 -69 53q0 33 19 51.5t50 18.5z" />
    <glyph glyph-name="gcommaaccent" unicode="&#x123;" horiz-adv-x="1071" 
d="M602 1210q-65 0 -65 82q0 142 143 189l6 -43q-40 -16 -60 -39.5t-24 -65.5q70 0 70 -53q0 -33 -19.5 -51.5t-50.5 -18.5zM721 154q119 -1 177 -59.5t58 -149.5q0 -144 -125 -239t-356 -95q-211 0 -306 60.5t-95 181.5q0 166 172 260q-80 43 -80 129q0 136 170 223
q-96 75 -96 205q0 143 103 238.5t280 95.5q122 0 202 -54q37 89 101.5 133t167.5 50l2 -72q-86 -4 -141 -39.5t-87 -106.5q68 -71 68 -182q0 -143 -102 -237.5t-281 -94.5q-98 0 -174 37q-81 -48 -111 -87.5t-30 -92.5q0 -55 39.5 -78.5t125.5 -23.5zM614 944
q-138 0 -219.5 -72t-81.5 -200q0 -101 66 -156t182 -55q138 0 218.5 71t80.5 199q0 101 -65 157t-181 56zM487 -322q187 0 288.5 72t101.5 178q0 74 -47.5 117t-137.5 43h-327q-36 0 -54 4q-159 -76 -159 -227q0 -91 77 -139t258 -48z" />
    <glyph glyph-name="Hbar" unicode="&#x126;" horiz-adv-x="1462" 
d="M1466 1171h-129l-127 -1108q66 -8 156 -8l-12 -61q-48 -10 -125 -10q-55 0 -80 19.5t-21 68.5l70 600h-901l-76 -672h-84l133 1171h-133l8 64h134l24 219h82l-25 -219h902l24 219h84l-24 -219h129zM1206 748l47 423h-899l-49 -423h901z" />
    <glyph glyph-name="hbar" unicode="&#x127;" horiz-adv-x="1177" 
d="M928 61q49 -8 147 -8l-12 -61q-87 -6 -111 -6q-65 0 -85.5 20t-14.5 78l59 512q34 336 -252 336q-140 0 -247 -96t-131 -224l-70 -612h-78l131 1171h-114l6 64h116l25 219h78l-25 -219h402l-7 -64h-403l-43 -389q59 100 158.5 161t228.5 61q178 0 252 -106t51 -298z" />
    <glyph glyph-name="Itilde" unicode="&#x128;" horiz-adv-x="464" 
d="M610 1729q-15 -81 -47 -118.5t-90 -37.5q-41 0 -111 23.5t-102 23.5q-34 0 -54 -22.5t-30 -77.5l-51 8q15 78 48 115.5t89 37.5q43 0 112 -23.5t101 -23.5q33 0 53.5 23t30.5 78zM307 1454l-170 -1454h84l168 1454h-82z" />
    <glyph glyph-name="itilde" unicode="&#x129;" horiz-adv-x="397" 
d="M565 1442q-35 -199 -176 -199q-48 0 -100 24t-101 48t-90 24q-91 0 -118 -143l-54 8q37 195 178 195q49 0 98.5 -23.5t97.5 -47t93 -23.5q46 0 74 32t45 111zM154 61l106 922h-78l-100 -868q-6 -42 -6 -64q0 -34 20.5 -49.5t69.5 -15.5q25 0 100 6l8 61q-79 0 -120 8z
" />
    <glyph glyph-name="Imacron" unicode="&#x12a;" horiz-adv-x="464" 
d="M199 1647l-4 -66h323l4 66h-323zM307 1454l-170 -1454h84l168 1454h-82z" />
    <glyph glyph-name="imacron" unicode="&#x12b;" horiz-adv-x="397" 
d="M47 1319l-6 -66h405l5 66h-404zM154 61l106 922h-78l-100 -868q-6 -42 -6 -64q0 -34 20.5 -49.5t69.5 -15.5q25 0 100 6l8 61q-79 0 -120 8z" />
    <glyph glyph-name="Iogonek" unicode="&#x12e;" horiz-adv-x="464" 
d="M307 1454h82l-168 -1454h-2q-215 -113 -215 -248q0 -41 21 -61.5t55 -20.5q44 0 100 25l-2 -62q-46 -24 -117 -24q-131 0 -131 121q0 168 213 270h-6z" />
    <glyph glyph-name="iogonek" unicode="&#x12f;" horiz-adv-x="397" 
d="M264 1374q26 0 40.5 -16.5t14.5 -42.5q0 -31 -20 -52.5t-49 -21.5q-24 0 -39.5 17.5t-15.5 44.5q0 29 20.5 50t48.5 21zM260 983l-106 -922q41 -8 120 -8l-8 -61h-4h2q-215 -113 -215 -248q0 -41 21 -61.5t55 -20.5q44 0 100 25l-2 -62q-46 -24 -117 -24q-131 0 -131 120
q0 162 201 265h-10q-49 0 -69.5 15.5t-20.5 49.5q0 22 6 64l100 868h78z" />
    <glyph glyph-name="Idotaccent" unicode="&#x130;" horiz-adv-x="464" 
d="M360 1569q29 0 47.5 20t18.5 51q0 24 -14 39t-37 15q-28 0 -47 -20.5t-19 -49.5q0 -24 14 -39.5t37 -15.5zM307 1454l-170 -1454h84l168 1454h-82z" />
    <glyph glyph-name="dotlessi" unicode="&#x131;" horiz-adv-x="397" 
d="M154 61l106 922h-78l-100 -868q-6 -42 -6 -64q0 -34 20.5 -49.5t69.5 -15.5q25 0 100 6l8 61q-79 0 -120 8z" />
    <glyph glyph-name="IJ" unicode="&#x132;" horiz-adv-x="1165" 
d="M307 1454l-170 -1454h84l168 1454h-82zM1096 1454h-82l-127 -1108q-17 -155 -91.5 -226t-222.5 -71q-149 0 -247 57l-19 -73q118 -58 262 -58q185 0 282.5 88t117.5 275z" />
    <glyph glyph-name="ij" unicode="&#x133;" horiz-adv-x="741" 
d="M250 1241q29 0 49 21.5t20 52.5q0 26 -14.5 42.5t-40.5 16.5q-28 0 -48.5 -21t-20.5 -50q0 -27 15.5 -44.5t39.5 -17.5zM678 1241q29 0 49.5 21.5t20.5 52.5q0 25 -15 42t-41 17q-28 0 -48.5 -21t-20.5 -50q0 -27 15.5 -44.5t39.5 -17.5zM154 61l106 922h-78l-100 -868
q-6 -42 -6 -64q0 -34 20.5 -49.5t69.5 -15.5q25 0 100 6l8 61q-79 0 -120 8zM686 983h-78l-137 -1194q-6 -58 -34 -83t-77 -25q-39 0 -81 20l-11 -68q33 -22 97 -22q85 0 129 43.5t55 136.5z" />
    <glyph glyph-name="Kcommaaccent" unicode="&#x136;" horiz-adv-x="1214" 
d="M948 131q29 -53 60 -64.5t135 -11.5l-10 -61q-31 -8 -91 -8q-62 0 -95.5 17.5t-61.5 70.5l-310 598h-278l-76 -672h-84l164 1454h84l-80 -706h279l612 716l86 -16l-639 -741zM520 -100q66 0 66 -82q0 -142 -144 -189l-6 43q40 16 60 39.5t24 65.5q-69 0 -69 53
q0 33 19 51.5t50 18.5z" />
    <glyph glyph-name="kcommaaccent" unicode="&#x137;" horiz-adv-x="927" 
d="M500 565l245 -491q43 -21 144 -21l-10 -61q-69 -6 -95 -6q-46 0 -71.5 14.5t-44.5 52.5l-226 459l-213 -199l-34 -313h-78l164 1454h77l-116 -1044l620 583l86 -10zM418 -100q65 0 65 -82q0 -142 -143 -189l-6 43q40 16 60 39.5t24 65.5q-70 0 -70 53q0 33 19.5 51.5
t50.5 18.5z" />
    <glyph glyph-name="kgreenlandic" unicode="&#x138;" horiz-adv-x="976" 
d="M498 571l247 -497q41 -21 144 -21l-10 -61q-69 -6 -97 -6q-46 0 -70.5 14.5t-43.5 52.5l-230 463l-209 -203l-34 -313h-78l110 989h78l-63 -577l602 581l82 -10z" />
    <glyph glyph-name="Lacute" unicode="&#x139;" horiz-adv-x="1026" 
d="M569 1722l-174 -209l-69 7l153 217zM244 76h733l-8 -76h-817l163 1454h84z" />
    <glyph glyph-name="lacute" unicode="&#x13a;" horiz-adv-x="438" 
d="M440 1737l-153 -217l69 -7l174 209zM276 1454l-151 -1309q-8 -70 -8 -88q0 -37 25 -54t83 -17q49 0 111 8l10 59q-118 0 -149 15l159 1386h-80z" />
    <glyph glyph-name="Lcommaaccent" unicode="&#x13b;" horiz-adv-x="1026" 
d="M244 76h733l-8 -76h-817l163 1454h84zM545 -100q65 0 65 -82q0 -142 -143 -189l-6 43q40 16 60 39.5t24 65.5q-70 0 -70 53q0 33 19.5 51.5t50.5 18.5z" />
    <glyph glyph-name="lcommaaccent" unicode="&#x13c;" horiz-adv-x="438" 
d="M276 1454l-151 -1309q-8 -70 -8 -88q0 -37 25 -54t83 -17q49 0 111 8l10 59q-118 0 -149 15l159 1386h-80zM268 -182q0 -142 -143 -189l-6 43q40 16 60 39.5t24 65.5q-70 0 -70 53q0 33 19.5 51.5t50.5 18.5q65 0 65 -82z" />
    <glyph glyph-name="Lcaron" unicode="&#x13d;" horiz-adv-x="1026" 
d="M858 1454l-98 -375l-66 6l90 375zM244 76h733l-8 -76h-817l163 1454h84z" />
    <glyph glyph-name="lcaron" unicode="&#x13e;" horiz-adv-x="518" 
d="M694 1454l-73 6l-91 -375l66 -6zM276 1454l-151 -1309q-8 -70 -8 -88q0 -37 25 -54t83 -17q49 0 111 8l10 59q-118 0 -149 15l159 1386h-80z" />
    <glyph glyph-name="Ldot" unicode="&#x13f;" horiz-adv-x="1026" 
d="M244 76h733l-8 -76h-817l163 1454h84zM844 530q-31 0 -48.5 18t-17.5 50q0 39 25 66.5t65 27.5q32 0 49 -19t17 -50q0 -41 -25.5 -67t-64.5 -26z" />
    <glyph glyph-name="ldot" unicode="&#x140;" horiz-adv-x="649" 
d="M276 1454l-151 -1309q-8 -70 -8 -88q0 -37 25 -54t83 -17q49 0 111 8l10 59q-118 0 -149 15l159 1386h-80zM573 530q39 0 65 26t26 67q0 31 -17 50t-49 19q-40 0 -65 -27.5t-25 -66.5q0 -32 17 -50t48 -18z" />
    <glyph glyph-name="Lslash" unicode="&#x141;" horiz-adv-x="921" 
d="M285 76h743l-10 -76h-825l75 670l-178 -60l10 70l176 57l82 717h82l-78 -688l367 119l-6 -70l-369 -119z" />
    <glyph glyph-name="lslash" unicode="&#x142;" horiz-adv-x="600" 
d="M508 821l-176 -71l-80 -682q36 -15 166 -15l-12 -59q-66 -8 -115 -8q-72 0 -96.5 23t-16.5 79l72 629l-150 -60l9 70l149 59l78 668h78l-74 -635l176 70z" />
    <glyph glyph-name="Nacute" unicode="&#x143;" horiz-adv-x="1447" 
d="M1067 1722l-174 -209l-70 7l154 217zM1290 1454h82l-164 -1454h-75l-764 1317l-150 -1317h-82l164 1448l80 18l760 -1321z" />
    <glyph glyph-name="nacute" unicode="&#x144;" horiz-adv-x="1220" 
d="M956 1452l-233 -326h-72l217 334zM971 61q49 -8 147 -8l-12 -61q-87 -6 -113 -6q-63 0 -83.5 19.5t-14.5 74.5l59 516q34 336 -256 336q-142 0 -252.5 -103.5t-130.5 -234.5l-67 -594h-78l102 903q-19 16 -44.5 20.5t-75.5 4.5l10 59q35 10 65 10q132 0 119 -139l-10 -76
q61 100 161.5 161t227.5 61q179 0 254 -106t53 -298z" />
    <glyph glyph-name="Ncommaaccent" unicode="&#x145;" horiz-adv-x="1447" 
d="M1290 1454h82l-164 -1454h-75l-764 1317l-150 -1317h-82l164 1448l80 18l760 -1321zM668 -100q65 0 65 -82q0 -142 -143 -189l-6 43q40 16 60 39.5t24 65.5q-70 0 -70 53q0 33 19.5 51.5t50.5 18.5z" />
    <glyph glyph-name="ncommaaccent" unicode="&#x146;" horiz-adv-x="1220" 
d="M971 61q49 -8 147 -8l-12 -61q-87 -6 -113 -6q-63 0 -83.5 19.5t-14.5 74.5l59 516q34 336 -256 336q-142 0 -252.5 -103.5t-130.5 -234.5l-67 -594h-78l102 903q-19 16 -44.5 20.5t-75.5 4.5l10 59q35 10 65 10q132 0 119 -139l-10 -76q61 100 161.5 161t227.5 61
q179 0 254 -106t53 -298zM575 -100q66 0 66 -82q0 -142 -143 -189l-6 43q39 15 59 39t24 66q-69 0 -69 53q0 33 19 51.5t50 18.5z" />
    <glyph glyph-name="Ncaron" unicode="&#x147;" horiz-adv-x="1447" 
d="M901 1518h-72l-172 213l72 12l143 -178l183 178l67 -12zM1290 1454h82l-164 -1454h-75l-764 1317l-150 -1317h-82l164 1448l80 18l760 -1321z" />
    <glyph glyph-name="ncaron" unicode="&#x148;" horiz-adv-x="1220" 
d="M737 1141h-69l-201 313l72 4l168 -266l229 266l70 -4zM971 61q49 -8 147 -8l-12 -61q-87 -6 -113 -6q-63 0 -83.5 19.5t-14.5 74.5l59 516q34 336 -256 336q-142 0 -252.5 -103.5t-130.5 -234.5l-67 -594h-78l102 903q-19 16 -44.5 20.5t-75.5 4.5l10 59q35 10 65 10
q132 0 119 -139l-10 -76q61 100 161.5 161t227.5 61q179 0 254 -106t53 -298z" />
    <glyph glyph-name="Eng" unicode="&#x14a;" horiz-adv-x="1447" 
d="M1372 1454l-186 -1644q-12 -106 -59 -152.5t-144 -46.5q-75 0 -113 22l15 66q53 -21 94 -21q61 0 90.5 31t38.5 105l20 196l-759 1307l-150 -1317h-82l164 1448l80 18l762 -1323l147 1311h82z" />
    <glyph glyph-name="eng" unicode="&#x14b;" horiz-adv-x="1026" 
d="M723 1004q179 0 252.5 -105.5t52.5 -298.5l-27 -231l-63 -557q-12 -106 -59.5 -153.5t-139.5 -47.5q-66 0 -110 22l14 66q47 -21 92 -21q58 0 87 28.5t38 100.5l64 555h-2l26 234q39 336 -252 336q-138 0 -246.5 -95.5t-132.5 -220.5l-69 -616h-78l102 903
q-19 16 -44.5 20.5t-75.5 4.5l10 59q30 10 65 10q132 0 119 -139l-10 -76q61 100 160 161t227 61z" />
    <glyph glyph-name="Omacron" unicode="&#x14c;" horiz-adv-x="1572" 
d="M635 1647l-8 -66h514l8 66h-514zM702 -25q222 0 395.5 113t266 305t92.5 428q0 191 -67 337.5t-200.5 231.5t-316.5 85q-223 0 -396.5 -112.5t-266 -304.5t-92.5 -429q0 -191 67 -337.5t201 -231.5t317 -85zM711 49q-241 0 -375.5 159t-134.5 425q0 220 83 395t235 274
t345 99q241 0 374.5 -158t133.5 -424q0 -166 -48 -308.5t-134 -244t-209.5 -159.5t-269.5 -58z" />
    <glyph glyph-name="omacron" unicode="&#x14d;" 
d="M422 1319l-8 -66h555l8 66h-555zM152 414q0 -207 107 -323t290 -116q223 0 366.5 158t143.5 428q0 209 -106.5 326t-288.5 117q-147 0 -262.5 -68.5t-182.5 -203.5t-67 -318zM231 420q0 236 118 375t308 139q150 0 236 -100t86 -279q0 -235 -117 -372.5t-307 -137.5
q-152 0 -238 98.5t-86 276.5z" />
    <glyph glyph-name="Ohungarumlaut" unicode="&#x150;" horiz-adv-x="1572" 
d="M852 1737l-154 -217l70 -7l174 209zM1073 1737l-153 -217l69 -7l174 209zM702 -25q222 0 395.5 113t266 305t92.5 428q0 191 -67 337.5t-200.5 231.5t-316.5 85q-223 0 -396.5 -112.5t-266 -304.5t-92.5 -429q0 -191 67 -337.5t201 -231.5t317 -85zM711 49
q-241 0 -375.5 159t-134.5 425q0 220 83 395t235 274t345 99q241 0 374.5 -158t133.5 -424q0 -166 -48 -308.5t-134 -244t-209.5 -159.5t-269.5 -58z" />
    <glyph glyph-name="ohungarumlaut" unicode="&#x151;" 
d="M711 1460l-217 -334h71l234 326zM954 1460l-217 -334h72l233 326zM152 414q0 -207 107 -323t290 -116q223 0 366.5 158t143.5 428q0 209 -106.5 326t-288.5 117q-147 0 -262.5 -68.5t-182.5 -203.5t-67 -318zM231 420q0 236 118 375t308 139q150 0 236 -100t86 -279
q0 -235 -117 -372.5t-307 -137.5q-152 0 -238 98.5t-86 276.5z" />
    <glyph glyph-name="OE" unicode="&#x152;" horiz-adv-x="2375" 
d="M2284 1382h-756l-70 -614h705l-9 -72h-704l-70 -622h764l-8 -74h-848l37 326q-99 -164 -260 -257.5t-363 -93.5q-183 0 -317 85t-201 231.5t-67 337.5q0 237 92.5 429t266 304.5t396.5 112.5q202 0 341.5 -101.5t199.5 -277.5l41 358h846zM711 49q146 0 269.5 58
t209.5 159.5t134 244t48 308.5q0 266 -133.5 424t-374.5 158q-193 0 -345 -99t-235 -274t-83 -395q0 -266 134.5 -425t375.5 -159z" />
    <glyph glyph-name="oe" unicode="&#x153;" horiz-adv-x="1859" 
d="M1450 1004q166 0 252 -104.5t86 -274.5q0 -29 -12 -152h-719q-2 -20 -2 -65q0 -363 327 -363q108 0 195 36t125 69l12 -68q-47 -40 -141 -73.5t-209 -33.5q-151 0 -245 70t-126 205q-64 -131 -180.5 -203t-263.5 -72q-183 0 -290 116t-107 323q0 183 67 318t182.5 203.5
t262.5 68.5q141 0 238.5 -72.5t135.5 -206.5q59 133 166 206t246 73zM1063 537h641q23 188 -50.5 292.5t-209.5 104.5q-146 0 -250 -101.5t-131 -295.5zM555 45q190 0 307 137.5t117 372.5q0 179 -86 279t-236 100q-190 0 -308 -139t-118 -375q0 -178 86 -276.5t238 -98.5z
" />
    <glyph glyph-name="Racute" unicode="&#x154;" horiz-adv-x="1228" 
d="M895 1722l-174 -209l-70 7l154 217zM989 133q27 -53 60.5 -65.5t138.5 -12.5l-14 -61q-39 -8 -91 -8q-62 0 -100 22.5t-70 85.5l-266 537h-344l-72 -631h-84l158 1382h-168l8 62q100 16 148 16q56 0 80 -24q149 39 325 39q246 0 369 -99t123 -284q0 -214 -121.5 -331.5
t-329.5 -129.5zM387 1376l-76 -674h394q184 0 292.5 96.5t108.5 291.5q0 151 -102.5 232t-313.5 81q-154 0 -303 -27z" />
    <glyph glyph-name="racute" unicode="&#x155;" horiz-adv-x="630" 
d="M694 1452l-233 -326h-72l217 334zM332 776q51 104 123.5 166t150.5 62q37 0 70 -11l-14 -78q-27 9 -66 9q-58 0 -111 -39t-89 -98t-60 -122.5t-31 -119.5l-61 -545h-78l102 903q-29 25 -116 25l10 59q30 10 69 10q53 0 85 -37t24 -114z" />
    <glyph glyph-name="Rcommaaccent" unicode="&#x156;" horiz-adv-x="1228" 
d="M989 133q27 -53 60.5 -65.5t138.5 -12.5l-14 -61q-39 -8 -91 -8q-62 0 -100 22.5t-70 85.5l-266 537h-344l-72 -631h-84l158 1382h-168l8 62q100 16 148 16q56 0 80 -24q149 39 325 39q246 0 369 -99t123 -284q0 -214 -121.5 -331.5t-329.5 -129.5zM387 1376l-76 -674
h394q184 0 292.5 96.5t108.5 291.5q0 151 -102.5 232t-313.5 81q-154 0 -303 -27zM561 -100q66 0 66 -82q0 -142 -144 -189l-6 43q40 16 60 39.5t24 65.5q-69 0 -69 53q0 33 19 51.5t50 18.5z" />
    <glyph glyph-name="rcommaaccent" unicode="&#x157;" horiz-adv-x="630" 
d="M606 1004q37 0 70 -11l-14 -78q-27 9 -66 9q-58 0 -111 -39t-89 -98t-60 -122.5t-31 -119.5l-61 -545h-78l102 903q-29 25 -116 25l10 59q30 10 69 10q53 0 85 -37t24 -114l-8 -70q51 104 123.5 166t150.5 62zM203 -100q65 0 65 -82q0 -142 -143 -189l-6 43
q40 16 60 39.5t24 65.5q-70 0 -70 53q0 33 19.5 51.5t50.5 18.5z" />
    <glyph glyph-name="Rcaron" unicode="&#x158;" horiz-adv-x="1228" 
d="M727 1518h-72l-172 213l72 12l143 -178l183 178l67 -12zM989 133q27 -53 60.5 -65.5t138.5 -12.5l-14 -61q-39 -8 -91 -8q-62 0 -100 22.5t-70 85.5l-266 537h-344l-72 -631h-84l158 1382h-168l8 62q100 16 148 16q56 0 80 -24q149 39 325 39q246 0 369 -99t123 -284
q0 -214 -121.5 -331.5t-329.5 -129.5zM387 1376l-76 -674h394q184 0 292.5 96.5t108.5 291.5q0 151 -102.5 232t-313.5 81q-154 0 -303 -27z" />
    <glyph glyph-name="rcaron" unicode="&#x159;" horiz-adv-x="630" 
d="M475 1141h-69l-201 313l71 4l168 -266l230 266l69 -4zM332 776q51 104 123.5 166t150.5 62q37 0 70 -11l-14 -78q-27 9 -66 9q-58 0 -111 -39t-89 -98t-60 -122.5t-31 -119.5l-61 -545h-78l102 903q-29 25 -116 25l10 59q30 10 69 10q53 0 85 -37t24 -114z" />
    <glyph glyph-name="Sacute" unicode="&#x15a;" horiz-adv-x="1146" 
d="M772 1737l-154 -217l70 -7l174 209zM258 1061q0 163 97 253.5t292 90.5q186 0 275.5 -63.5t89.5 -202.5l80 16q0 320 -435 320q-228 0 -354.5 -110.5t-126.5 -309.5q0 -79 27.5 -138.5t73.5 -95.5t105.5 -62t126 -42.5t132.5 -32.5t125.5 -37t105.5 -51t73.5 -79.5
t27.5 -117.5q0 -90 -34 -158.5t-95 -110t-140 -61.5t-174 -20q-137 0 -255.5 42.5t-186.5 94.5l-22 -82q189 -129 456 -129q269 0 401 114.5t132 322.5q0 78 -27.5 136.5t-73.5 93.5t-105.5 60.5t-126 42t-132.5 32t-125.5 37t-105.5 51t-73.5 79.5t-27.5 117z" />
    <glyph glyph-name="sacute" unicode="&#x15b;" horiz-adv-x="952" 
d="M702 1460l-217 -334h72l234 326zM514 1004q-185 0 -279 -84.5t-94 -208.5q0 -73 33.5 -122.5t87 -73.5t118 -39.5t129.5 -29t118.5 -32.5t87 -59t33.5 -101q0 -100 -73 -154.5t-245 -54.5q-204 0 -332 107l-22 -74q131 -103 350 -103q399 0 399 295q0 70 -33.5 117.5
t-86.5 70.5t-117.5 37.5t-129 27.5t-117.5 32t-86.5 58.5t-33.5 99.5q0 96 69 158.5t226 62.5q260 0 260 -191l78 15q0 31 -8 61.5t-31 65t-59 60t-98.5 42.5t-143.5 17z" />
    <glyph glyph-name="Scedilla" unicode="&#x15e;" horiz-adv-x="1146" 
d="M258 1061q0 -67 27.5 -117t73.5 -79.5t105.5 -51t125.5 -37t132.5 -32t126 -42t105.5 -60.5t73.5 -93.5t27.5 -136.5q0 -206 -131.5 -321.5t-397.5 -115.5l-14 -49q64 0 102.5 -28t38.5 -88q0 -201 -272 -201l16 59q189 0 189 137q0 43 -32.5 60.5t-107.5 17.5l29 94
q-242 11 -409 127l22 82q68 -52 186.5 -94.5t255.5 -42.5q95 0 174 20t140 61.5t95 110t34 158.5q0 68 -27.5 117.5t-73.5 79.5t-105.5 51t-126 37t-132.5 32.5t-125.5 42.5t-105.5 62t-73.5 95.5t-27.5 138.5q0 199 126.5 309.5t354.5 110.5q435 0 435 -320l-80 -16
q0 139 -89.5 202.5t-275.5 63.5q-195 0 -292 -90.5t-97 -253.5z" />
    <glyph glyph-name="scedilla" unicode="&#x15f;" horiz-adv-x="952" 
d="M221 713q0 -60 33.5 -99.5t86.5 -58.5t117.5 -32t129 -27.5t117.5 -37.5t86.5 -70.5t33.5 -117.5q0 -288 -381 -295l-14 -49q64 0 102.5 -28t38.5 -88q0 -201 -272 -201l16 59q189 0 189 137q0 43 -32 60.5t-107 17.5l28 92q-194 8 -317 103l22 74q128 -107 332 -107
q172 0 245 54.5t73 154.5q0 61 -33.5 101t-87 59t-118.5 32.5t-129.5 29t-118 39.5t-87 73.5t-33.5 122.5q0 124 94 208.5t279 84.5q81 0 143.5 -17t98.5 -42.5t59 -60t31 -65t8 -61.5l-78 -15q0 191 -260 191q-157 0 -226 -62.5t-69 -158.5z" />
    <glyph glyph-name="Scaron" unicode="&#x160;" horiz-adv-x="1146" 
d="M694 1518h-71l-172 213l71 12l144 -178l182 178l67 -12zM258 1061q0 -67 27.5 -117t73.5 -79.5t105.5 -51t125.5 -37t132.5 -32t126 -42t105.5 -60.5t73.5 -93.5t27.5 -136.5q0 -208 -132 -322.5t-401 -114.5q-267 0 -456 129l22 82q68 -52 186.5 -94.5t255.5 -42.5
q95 0 174 20t140 61.5t95 110t34 158.5q0 68 -27.5 117.5t-73.5 79.5t-105.5 51t-126 37t-132.5 32.5t-125.5 42.5t-105.5 62t-73.5 95.5t-27.5 138.5q0 199 126.5 309.5t354.5 110.5q435 0 435 -320l-80 -16q0 139 -89.5 202.5t-275.5 63.5q-195 0 -292 -90.5t-97 -253.5z
" />
    <glyph glyph-name="scaron" unicode="&#x161;" horiz-adv-x="952" 
d="M571 1141h-69l-201 313l72 4l168 -266l229 266l70 -4zM221 713q0 -60 33.5 -99.5t86.5 -58.5t117.5 -32t129 -27.5t117.5 -37.5t86.5 -70.5t33.5 -117.5q0 -295 -399 -295q-219 0 -350 103l22 74q128 -107 332 -107q172 0 245 54.5t73 154.5q0 61 -33.5 101t-87 59
t-118.5 32.5t-129.5 29t-118 39.5t-87 73.5t-33.5 122.5q0 124 94 208.5t279 84.5q81 0 143.5 -17t98.5 -42.5t59 -60t31 -65t8 -61.5l-78 -15q0 191 -260 191q-157 0 -226 -62.5t-69 -158.5z" />
    <glyph glyph-name="uni0162" unicode="&#x162;" horiz-adv-x="1015" 
d="M471 0h-14l-21 -74q64 0 103 -28t39 -88q0 -201 -273 -201l17 59q188 0 188 137q0 43 -32 60.5t-107 17.5l35 117h-17l156 1384h-486l7 60q113 10 290 10h766l-8 -70h-485z" />
    <glyph glyph-name="uni0163" unicode="&#x163;" horiz-adv-x="655" 
d="M362 918l-81 -713q-10 -92 19.5 -126t94.5 -34q78 0 154 33l-2 -70q-85 -33 -168 -33l-14 -49q64 0 102.5 -28t38.5 -88q0 -201 -273 -201l17 59q188 0 188 137q0 43 -32 60.5t-107 17.5l29 94q-73 10 -105.5 62t-19.5 168l82 711h-174l8 65h174l33 287h77l-32 -287h317
l-8 -65h-318z" />
    <glyph glyph-name="Tcaron" unicode="&#x164;" horiz-adv-x="1015" 
d="M637 1518h-72l-172 213l72 12l143 -178l183 178l67 -12zM1122 1454l-8 -70h-485l-158 -1384h-82l156 1384h-486l7 60q113 10 290 10h766z" />
    <glyph glyph-name="tcaron" unicode="&#x165;" horiz-adv-x="727" 
d="M831 1460l72 -6l-98 -375l-66 6zM403 1270l-32 -287h317l-8 -65h-318l-81 -713q-10 -92 19.5 -126t94.5 -34q78 0 154 33l-2 -70q-85 -33 -170 -33q-100 0 -144 49t-30 183l82 711h-174l8 65h174l33 287h77z" />
    <glyph glyph-name="Tbar" unicode="&#x166;" horiz-adv-x="1015" 
d="M1114 1384h-485l-72 -632h244l-8 -70h-244l-78 -682h-82l76 682h-246l8 70h246l72 632h-486l7 60q113 10 290 10h766z" />
    <glyph glyph-name="tbar" unicode="&#x167;" horiz-adv-x="679" 
d="M684 918h-317l-37 -318h323l-8 -65h-321l-39 -330q-10 -92 19.5 -126t94.5 -34q78 0 154 33l-2 -70q-85 -33 -170 -33q-100 0 -144 49t-30 183l39 328h-148l6 65h148l37 318h-174l8 65h174l33 287h78l-33 -287h317z" />
    <glyph glyph-name="Utilde" unicode="&#x168;" horiz-adv-x="1411" 
d="M1073 1729q-15 -81 -47 -118.5t-90 -37.5q-42 0 -111 23.5t-102 23.5q-34 0 -54 -22.5t-30 -77.5l-51 8q15 78 48 115.5t89 37.5q43 0 112 -23.5t101 -23.5q33 0 53.5 23t30.5 78zM1356 1454h-82l-105 -905q-57 -502 -510 -502q-233 0 -324 122.5t-63 379.5l93 811
q6 53 -14.5 75.5t-74.5 22.5q-86 0 -151 -14l-8 -60h168l-95 -823q-34 -299 77.5 -442.5t381.5 -143.5q272 0 420.5 139.5t183.5 434.5z" />
    <glyph glyph-name="utilde" unicode="&#x169;" horiz-adv-x="1193" 
d="M530 1339q-91 0 -118 -143l-54 8q37 195 179 195q49 0 98 -23.5t97 -47t93 -23.5q46 0 74 32t45 111l53 -6q-35 -199 -176 -199q-48 0 -100 24t-101 48t-90 24zM934 63q55 -10 145 -10l-10 -61q-54 -6 -102 -6q-62 0 -88 27.5t-19 97.5l12 110q-67 -118 -173.5 -182
t-243.5 -64q-160 0 -221 87.5t-37 295.5l59 545q-35 25 -119 25l10 59q28 8 70 8q66 0 94 -31t21 -98l-56 -495q-22 -176 24.5 -250t180.5 -74q89 0 165.5 35t127.5 91.5t82.5 122t40.5 130.5l61 557h80z" />
    <glyph glyph-name="Umacron" unicode="&#x16a;" horiz-adv-x="1411" 
d="M575 1647l-8 -66h514l9 66h-515zM1356 1454h-82l-105 -905q-57 -502 -510 -502q-233 0 -324 122.5t-63 379.5l93 811q6 53 -14.5 75.5t-74.5 22.5q-86 0 -151 -14l-8 -60h168l-95 -823q-34 -299 77.5 -442.5t381.5 -143.5q272 0 420.5 139.5t183.5 434.5z" />
    <glyph glyph-name="umacron" unicode="&#x16b;" horiz-adv-x="1193" 
d="M969 1319l-8 -66h-555l8 66h555zM934 63q55 -10 145 -10l-10 -61q-54 -6 -102 -6q-62 0 -88 27.5t-19 97.5l12 110q-67 -118 -173.5 -182t-243.5 -64q-160 0 -221 87.5t-37 295.5l59 545q-35 25 -119 25l10 59q28 8 70 8q66 0 94 -31t21 -98l-56 -495q-22 -176 24.5 -250
t180.5 -74q89 0 165.5 35t127.5 91.5t82.5 122t40.5 130.5l61 557h80z" />
    <glyph glyph-name="Uring" unicode="&#x16e;" horiz-adv-x="1411" 
d="M815 1497q72 0 115 46t43 120q0 59 -32.5 93t-90.5 34q-69 0 -112.5 -45.5t-43.5 -120.5q0 -59 32 -93t89 -34zM821 1538q-37 0 -58.5 24.5t-21.5 65.5q0 55 29.5 88t75.5 33q37 0 58.5 -24.5t21.5 -65.5q0 -54 -29.5 -87.5t-75.5 -33.5zM1356 1454h-82l-105 -905
q-57 -502 -510 -502q-233 0 -324 122.5t-63 379.5l93 811q6 53 -14.5 75.5t-74.5 22.5q-86 0 -151 -14l-8 -60h168l-95 -823q-34 -299 77.5 -442.5t381.5 -143.5q272 0 420.5 139.5t183.5 434.5z" />
    <glyph glyph-name="uring" unicode="&#x16f;" horiz-adv-x="1193" 
d="M670 1126q-73 0 -113.5 42.5t-40.5 113.5q0 86 53 141.5t142 55.5q72 0 112.5 -42.5t40.5 -111.5q0 -88 -53 -143.5t-141 -55.5zM705 1436q-67 0 -103.5 -42t-36.5 -108q0 -53 28 -85t83 -32q66 0 101.5 43t35.5 107q0 54 -26.5 85.5t-81.5 31.5zM934 63q55 -10 145 -10
l-10 -61q-54 -6 -102 -6q-62 0 -88 27.5t-19 97.5l12 110q-67 -118 -173.5 -182t-243.5 -64q-160 0 -221 87.5t-37 295.5l59 545q-35 25 -119 25l10 59q28 8 70 8q66 0 94 -31t21 -98l-56 -495q-22 -176 24.5 -250t180.5 -74q89 0 165.5 35t127.5 91.5t82.5 122t40.5 130.5
l61 557h80z" />
    <glyph glyph-name="Uhungarumlaut" unicode="&#x170;" horiz-adv-x="1411" 
d="M793 1737l-154 -217l70 -7l174 209zM1014 1737l-154 -217l70 -7l174 209zM1356 1454h-82l-105 -905q-57 -502 -510 -502q-233 0 -324 122.5t-63 379.5l93 811q6 53 -14.5 75.5t-74.5 22.5q-86 0 -151 -14l-8 -60h168l-95 -823q-34 -299 77.5 -442.5t381.5 -143.5
q272 0 420.5 139.5t183.5 434.5z" />
    <glyph glyph-name="uhungarumlaut" unicode="&#x171;" horiz-adv-x="1193" 
d="M788 1452l-233 -326h-72l217 334zM799 1126h-72l217 334l88 -8zM934 63q55 -10 145 -10l-10 -61q-54 -6 -102 -6q-62 0 -88 27.5t-19 97.5l12 110q-67 -118 -173.5 -182t-243.5 -64q-160 0 -221 87.5t-37 295.5l59 545q-35 25 -119 25l10 59q28 8 70 8q66 0 94 -31
t21 -98l-56 -495q-22 -176 24.5 -250t180.5 -74q89 0 165.5 35t127.5 91.5t82.5 122t40.5 130.5l61 557h80z" />
    <glyph glyph-name="Uogonek" unicode="&#x172;" horiz-adv-x="1411" 
d="M1274 1454h82l-103 -905q-52 -430 -354 -537q-205 -110 -205 -241q0 -41 21 -61.5t55 -20.5q46 0 100 24l-2 -61q-48 -25 -116 -25q-131 0 -131 121q0 139 147 236q-56 -9 -119 -9q-270 0 -381.5 143.5t-77.5 442.5l95 823h-168l8 60q65 14 151 14q54 0 74.5 -22.5
t14.5 -75.5l-93 -811q-28 -257 63 -379.5t324 -122.5q453 0 510 502z" />
    <glyph glyph-name="uogonek" unicode="&#x173;" horiz-adv-x="1193" 
d="M1069 -8q-215 -113 -215 -248q0 -41 21 -61.5t55 -20.5q44 0 100 25l-2 -62q-46 -24 -117 -24q-131 0 -131 120q0 163 203 265h-16q-62 0 -88 27.5t-19 97.5l12 110q-67 -118 -173.5 -182t-243.5 -64q-160 0 -221 87.5t-37 295.5l59 545q-35 25 -119 25l10 59q28 8 70 8
q66 0 94 -31t21 -98l-56 -495q-22 -176 24.5 -250t180.5 -74q89 0 165.5 35t127.5 91.5t82.5 122t40.5 130.5l61 557h80l-104 -920q55 -10 145 -10l-10 -61h-2h2z" />
    <glyph glyph-name="Wcircumflex" unicode="&#x174;" horiz-adv-x="1892" 
d="M1100 1694l-185 -176l-67 12l221 213h70l174 -213l-72 -12zM1886 1466l80 -18l-610 -1448h-94l-205 1331l-508 -1331h-94l-265 1384h-145l6 60q67 16 129 16q49 0 72.5 -18.5t32.5 -69.5l227 -1257l512 1339h92l209 -1339z" />
    <glyph glyph-name="wcircumflex" unicode="&#x175;" horiz-adv-x="1429" 
d="M862 1415l-227 -264l-72 4l271 313h69l199 -313l-72 -4zM1389 993l75 -12l-422 -981h-77l-164 877l-361 -877h-75l-189 909q-38 15 -127 15l6 61q56 8 86 8q54 0 81 -23t38 -77l154 -797l358 887h82l160 -889z" />
    <glyph glyph-name="Ycircumflex" unicode="&#x176;" horiz-adv-x="1124" 
d="M719 1694l-184 -176l-68 12l221 213h70l174 -213l-72 -12zM1120 1466l78 -18l-563 -842l-68 -606h-84l70 606l-363 778h-145l6 60q48 16 111 16q54 0 75 -14.5t46 -67.5l317 -700z" />
    <glyph glyph-name="ycircumflex" unicode="&#x177;" horiz-adv-x="995" 
d="M621 1415l-228 -264l-71 4l270 313h70l198 -313l-72 -4zM948 993l82 -12l-608 -1196q-48 -92 -110 -133t-167 -41q-72 0 -116 22l6 74q58 -26 112 -26q78 0 124 24t83 100l97 193l-283 911q-31 15 -92 15l8 61q40 8 63 8q42 0 66 -20t39 -70l248 -809z" />
    <glyph glyph-name="Ydieresis" unicode="&#x178;" horiz-adv-x="1124" 
d="M575 1563q-21 0 -34 13t-13 36q0 27 17.5 44t42.5 17q22 0 35.5 -13t13.5 -36q0 -27 -18 -44t-44 -17zM825 1563q-21 0 -34 13t-13 36q0 27 18 44t42 17q22 0 35.5 -13t13.5 -36q0 -27 -17.5 -44t-44.5 -17zM1120 1466l78 -18l-563 -842l-68 -606h-84l70 606l-363 778
h-145l6 60q48 16 111 16q54 0 75 -14.5t46 -67.5l317 -700z" />
    <glyph glyph-name="Zacute" unicode="&#x179;" horiz-adv-x="1204" 
d="M946 1722l-174 -209l-70 7l154 217zM1235 1393l-1090 -1319h932l-10 -74h-1020l-6 59l1087 1323h-909l6 62q117 10 254 10h752z" />
    <glyph glyph-name="zacute" unicode="&#x17a;" horiz-adv-x="917" 
d="M813 1452l-233 -326h-72l217 334zM911 915l-782 -847h686l-8 -68h-766l-2 70l780 845h-647l6 68h729z" />
    <glyph glyph-name="Zdotaccent" unicode="&#x17b;" horiz-adv-x="1204" 
d="M750 1569q-23 0 -37.5 15.5t-14.5 39.5q0 29 19 49.5t47 20.5q23 0 37 -15t14 -39q0 -31 -18 -51t-47 -20zM1235 1393l-1090 -1319h932l-10 -74h-1020l-6 59l1087 1323h-909l6 62q117 10 254 10h752z" />
    <glyph glyph-name="zdotaccent" unicode="&#x17c;" horiz-adv-x="917" 
d="M569 1241q-24 0 -39.5 17.5t-15.5 44.5q0 29 21 50t49 21q26 0 40.5 -16.5t14.5 -42.5q0 -31 -20.5 -52.5t-49.5 -21.5zM911 915l-782 -847h686l-8 -68h-766l-2 70l780 845h-647l6 68h729z" />
    <glyph glyph-name="Zcaron" unicode="&#x17d;" horiz-adv-x="1204" 
d="M780 1518h-71l-172 213l71 12l144 -178l182 178l67 -12zM1235 1393l-1090 -1319h932l-10 -74h-1020l-6 59l1087 1323h-909l6 62q117 10 254 10h752z" />
    <glyph glyph-name="zcaron" unicode="&#x17e;" horiz-adv-x="917" 
d="M592 1141h-70l-200 313l71 4l168 -266l230 266l69 -4zM911 915l-782 -847h686l-8 -68h-766l-2 70l780 845h-647l6 68h729z" />
    <glyph glyph-name="uni01EA" unicode="&#x1ea;" horiz-adv-x="1572" 
d="M1456 821q0 -186 -59.5 -348t-171 -279.5t-262.5 -173.5h2q-215 -113 -215 -247q0 -41 20.5 -61.5t54.5 -20.5q47 0 101 24l-2 -61q-48 -25 -117 -25q-131 0 -131 121q0 139 147 236q-71 -11 -121 -11q-183 0 -317 85t-201 231.5t-67 337.5q0 237 92.5 429t266 304.5
t396.5 112.5q183 0 316.5 -85t200.5 -231.5t67 -337.5zM711 49q146 0 269.5 58t209.5 159.5t134 244t48 308.5q0 266 -133.5 424t-374.5 158q-193 0 -345 -99t-235 -274t-83 -395q0 -266 134.5 -425t375.5 -159z" />
    <glyph glyph-name="uni01EB" unicode="&#x1eb;" 
d="M741 12q-190 -110 -190 -235q0 -41 21 -61.5t55 -20.5q46 0 100 24l-2 -61q-48 -25 -117 -25q-131 0 -131 121q0 133 133 226q-50 -5 -61 -5q-183 0 -290 116t-107 323q0 183 67 318t182.5 203.5t262.5 68.5q182 0 288.5 -117t106.5 -326q0 -206 -85.5 -348t-232.5 -201z
M231 420q0 -178 86 -276.5t238 -98.5q190 0 307 137.5t117 372.5q0 179 -86 279t-236 100q-190 0 -308 -139t-118 -375z" />
    <glyph glyph-name="AEacute" unicode="&#x1fc;" horiz-adv-x="1996" 
d="M1427 1722l-174 -209l-69 7l153 217zM1901 1382h-691l-69 -614h639l-6 -72h-641l-72 -622h702l-8 -74h-784l78 696h-539l-397 -696h-86l841 1454h1053zM553 768h504l71 614h-223z" />
    <glyph glyph-name="aeacute" unicode="&#x1fd;" horiz-adv-x="1751" 
d="M1255 1452l-233 -326h-72l217 334zM1341 1004q166 0 252 -104.5t86 -274.5q0 -56 -14 -152h-719q-2 -20 -2 -65q0 -363 328 -363q109 0 194.5 35.5t124.5 69.5l15 -68q-50 -40 -143 -73.5t-208 -33.5q-154 0 -248.5 73t-125.5 214q-61 -135 -183.5 -211t-269.5 -76
q-131 0 -203.5 68t-72.5 186q0 154 107.5 245t318.5 91q160 0 294 -39l13 99q18 147 -47 229t-209 82q-134 0 -211.5 -58t-108.5 -176l-76 15q21 66 52 115.5t78 89.5t115.5 61t156.5 21q137 0 218 -58t103 -166q64 107 163 165.5t222 58.5zM952 537h643q23 188 -50.5 292.5
t-211.5 104.5q-146 0 -249.5 -101.5t-131.5 -295.5zM438 43q163 0 282.5 110t139.5 257v-2l6 57q-132 37 -291 37q-181 0 -263.5 -73t-82.5 -198q0 -91 56 -139.5t153 -48.5z" />
    <glyph glyph-name="Oslashacute" unicode="&#x1fe;" horiz-adv-x="1572" 
d="M1079 1722l-174 -209l-69 7l153 217zM1282 1315q174 -180 174 -494q0 -236 -92.5 -428t-266 -305t-395.5 -113q-213 0 -362 117l-129 -168l-74 10l154 201q-85 88 -129.5 215t-44.5 279q0 237 92.5 429t266 304.5t396.5 112.5q212 0 361 -117l129 168l74 -10zM201 633
q0 -276 141 -432l842 1093q-129 107 -320 107q-193 0 -345 -99t-235 -274t-83 -395zM711 49q146 0 269.5 58t209.5 159.5t134 244t48 308.5q0 274 -141 430l-842 -1093q129 -107 322 -107z" />
    <glyph glyph-name="oslashacute" unicode="&#x1ff;" 
d="M934 1452l-234 -326h-71l217 334zM936 903q123 -120 123 -342q0 -270 -143.5 -428t-366.5 -158q-135 0 -230 64l-83 -115l-64 10l100 142q-120 120 -120 338q0 183 67 318t182.5 203.5t262.5 68.5q132 0 227 -64l82 115l65 -11zM231 420q0 -182 88 -279l527 736
q-79 57 -189 57q-190 0 -308 -139t-118 -375zM555 45q190 0 307 137.5t117 372.5q0 182 -90 283l-524 -736q79 -57 190 -57z" />
    <glyph glyph-name="Scommaaccent" unicode="&#x218;" horiz-adv-x="1146" 
d="M258 1061q0 163 97 253.5t292 90.5q186 0 275.5 -63.5t89.5 -202.5l80 16q0 320 -435 320q-228 0 -354.5 -110.5t-126.5 -309.5q0 -79 27.5 -138.5t73.5 -95.5t105.5 -62t126 -42.5t132.5 -32.5t125.5 -37t105.5 -51t73.5 -79.5t27.5 -117.5q0 -90 -34 -158.5t-95 -110
t-140 -61.5t-174 -20q-137 0 -255.5 42.5t-186.5 94.5l-22 -82q189 -129 456 -129q269 0 401 114.5t132 322.5q0 78 -27.5 136.5t-73.5 93.5t-105.5 60.5t-126 42t-132.5 32t-125.5 37t-105.5 51t-73.5 79.5t-27.5 117zM565 -182q0 -142 -143 -189l-6 43q40 16 60 39.5
t24 65.5q-70 0 -70 53q0 33 19.5 51.5t50.5 18.5q65 0 65 -82z" />
    <glyph glyph-name="scommaaccent" unicode="&#x219;" horiz-adv-x="952" 
d="M514 1004q-185 0 -279 -84.5t-94 -208.5q0 -73 33.5 -122.5t87 -73.5t118 -39.5t129.5 -29t118.5 -32.5t87 -59t33.5 -101q0 -100 -73 -154.5t-245 -54.5q-204 0 -332 107l-22 -74q131 -103 350 -103q399 0 399 295q0 70 -33.5 117.5t-86.5 70.5t-117.5 37.5t-129 27.5
t-117.5 32t-86.5 58.5t-33.5 99.5q0 96 69 158.5t226 62.5q260 0 260 -191l78 15q0 31 -8 61.5t-31 65t-59 60t-98.5 42.5t-143.5 17zM483 -182q0 -142 -143 -189l-6 43q40 16 60 39.5t24 65.5q-70 0 -70 53q0 33 19.5 51.5t50.5 18.5q65 0 65 -82z" />
    <glyph glyph-name="uni021A" unicode="&#x21a;" horiz-adv-x="1015" 
d="M1122 1454l-8 -70h-485l-158 -1384h-82l156 1384h-486l7 60q113 10 290 10h766zM422 -100q65 0 65 -82q0 -142 -143 -189l-6 43q40 16 60 39.5t24 65.5q-70 0 -70 53q0 33 19.5 51.5t50.5 18.5z" />
    <glyph glyph-name="uni021B" unicode="&#x21b;" horiz-adv-x="655" 
d="M362 918l-81 -713q-10 -92 19.5 -126t94.5 -34q78 0 154 33l-2 -70q-85 -33 -170 -33q-100 0 -144 49t-30 183l82 711h-174l8 65h174l33 287h77l-32 -287h317l-8 -65h-318zM350 -100q66 0 66 -82q0 -142 -144 -189l-6 43q40 16 60 39.5t24 65.5q-69 0 -69 53
q0 33 19 51.5t50 18.5z" />
    <glyph glyph-name="uni0237" unicode="&#x237;" horiz-adv-x="399" 
d="M344 983h-78l-137 -1194q-6 -58 -34 -83t-77 -25q-39 0 -81 20l-11 -68q33 -22 97 -22q85 0 129 43.5t55 136.5z" />
    <glyph glyph-name="circumflex" unicode="&#x2c6;" horiz-adv-x="948" 
d="M743 1155l-71 -4l-168 264l-228 -264l-71 4l270 313h70z" />
    <glyph glyph-name="caron" unicode="&#x2c7;" horiz-adv-x="948" 
d="M674 1458l69 -4l-268 -313h-69l-201 313l71 4l168 -266z" />
    <glyph glyph-name="breve" unicode="&#x2d8;" horiz-adv-x="923" 
d="M657 1442q-25 -128 -79 -179t-140 -51q-87 0 -129 50t-41 180l-63 -4q0 -154 52 -221.5t173 -67.5q123 0 193 69t96 220z" />
    <glyph glyph-name="dotaccent" unicode="&#x2d9;" horiz-adv-x="534" 
d="M260 1241q29 0 49.5 21.5t20.5 52.5q0 25 -15 42t-41 17q-28 0 -48.5 -21t-20.5 -50q0 -27 15.5 -44.5t39.5 -17.5z" />
    <glyph glyph-name="ring" unicode="&#x2da;" horiz-adv-x="757" 
d="M358 1126q88 0 141.5 56t53.5 143q0 69 -41 111.5t-113 42.5q-89 0 -141.5 -55t-52.5 -142q0 -71 40 -113.5t113 -42.5zM365 1169q-55 0 -83 32t-28 85q0 66 36 108t103 42q55 0 82 -31.5t27 -85.5q0 -64 -35.5 -107t-101.5 -43z" />
    <glyph glyph-name="ogonek" unicode="&#x2db;" horiz-adv-x="698" 
d="M205 -270q0 -121 131 -121q71 0 117 24l2 62q-56 -25 -101 -25q-34 0 -54.5 20.5t-20.5 61.5q0 135 215 248l-45 14q-244 -106 -244 -284z" />
    <glyph glyph-name="tilde" unicode="&#x2dc;" horiz-adv-x="1048" 
d="M844 1442q-35 -199 -176 -199q-48 0 -100 24t-101 48t-90 24q-92 0 -119 -143l-53 8q37 195 178 195q59 0 147 -47t142 -47q46 0 74 32t45 111z" />
    <glyph glyph-name="hungarumlaut" unicode="&#x2dd;" horiz-adv-x="960" 
d="M668 1460l-219 -334h71l236 326zM422 1460l-217 -334h71l234 326z" />
    <glyph glyph-name="uni0326" unicode="&#x326;" horiz-adv-x="0" 
d="M-205 -182q0 -142 -143 -189l-6 43q40 16 60 39.5t24 65.5q-70 0 -70 53q0 33 19.5 51.5t50.5 18.5q65 0 65 -82z" />
    <glyph glyph-name="Wgrave" unicode="&#x1e80;" horiz-adv-x="1892" 
d="M1108 1520l-72 -7l-125 209l93 15zM1886 1466l80 -18l-610 -1448h-94l-205 1331l-508 -1331h-94l-265 1384h-145l6 60q67 16 129 16q49 0 72.5 -18.5t32.5 -69.5l227 -1257l512 1339h92l209 -1339z" />
    <glyph glyph-name="wgrave" unicode="&#x1e81;" horiz-adv-x="1429" 
d="M870 1126h-69l-160 326l90 8zM1389 993l75 -12l-422 -981h-77l-164 877l-361 -877h-75l-189 909q-38 15 -127 15l6 61q56 8 86 8q54 0 81 -23t38 -77l154 -797l358 887h82l160 -889z" />
    <glyph glyph-name="Wacute" unicode="&#x1e82;" horiz-adv-x="1892" 
d="M1280 1722l-174 -209l-70 7l154 217zM1886 1466l80 -18l-610 -1448h-94l-205 1331l-508 -1331h-94l-265 1384h-145l6 60q67 16 129 16q49 0 72.5 -18.5t32.5 -69.5l227 -1257l512 1339h92l209 -1339z" />
    <glyph glyph-name="wacute" unicode="&#x1e83;" horiz-adv-x="1429" 
d="M1085 1452l-233 -326h-72l217 334zM1389 993l75 -12l-422 -981h-77l-164 877l-361 -877h-75l-189 909q-38 15 -127 15l6 61q56 8 86 8q54 0 81 -23t38 -77l154 -797l358 887h82l160 -889z" />
    <glyph glyph-name="Wdieresis" unicode="&#x1e84;" horiz-adv-x="1892" 
d="M956 1563q-21 0 -34 13t-13 36q0 27 17.5 44t42.5 17q22 0 35.5 -13t13.5 -36q0 -27 -18 -44t-44 -17zM1206 1563q-21 0 -34 13t-13 36q0 27 18 44t42 17q22 0 35.5 -13t13.5 -36q0 -27 -17.5 -44t-44.5 -17zM1886 1466l80 -18l-610 -1448h-94l-205 1331l-508 -1331h-94
l-265 1384h-145l6 60q67 16 129 16q49 0 72.5 -18.5t32.5 -69.5l227 -1257l512 1339h92l209 -1339z" />
    <glyph glyph-name="wdieresis" unicode="&#x1e85;" horiz-adv-x="1429" 
d="M717 1245q-23 0 -37 15t-14 40q0 28 19 48t48 20q23 0 37 -15t14 -40q0 -29 -19 -48.5t-48 -19.5zM971 1245q-25 0 -39 15t-14 40q0 28 19 48t48 20q23 0 36 -15t13 -40q0 -29 -17.5 -48.5t-45.5 -19.5zM1389 993l75 -12l-422 -981h-77l-164 877l-361 -877h-75l-189 909
q-38 15 -127 15l6 61q56 8 86 8q54 0 81 -23t38 -77l154 -797l358 887h82l160 -889z" />
    <glyph glyph-name="Ygrave" unicode="&#x1ef2;" horiz-adv-x="1124" 
d="M727 1520l-72 -7l-125 209l93 15zM1120 1466l78 -18l-563 -842l-68 -606h-84l70 606l-363 778h-145l6 60q48 16 111 16q54 0 75 -14.5t46 -67.5l317 -700z" />
    <glyph glyph-name="ygrave" unicode="&#x1ef3;" horiz-adv-x="995" 
d="M629 1126h-70l-160 326l90 8zM948 993l82 -12l-608 -1196q-48 -92 -110 -133t-167 -41q-72 0 -116 22l6 74q58 -26 112 -26q78 0 124 24t83 100l97 193l-283 911q-31 15 -92 15l8 61q40 8 63 8q42 0 66 -20t39 -70l248 -809z" />
    <glyph glyph-name="uni1EF8" unicode="&#x1ef8;" horiz-adv-x="1124" 
d="M602 1620q-34 0 -54 -22.5t-30 -77.5l-51 8q15 78 48 115.5t89 37.5q43 0 112 -23.5t101 -23.5q33 0 53.5 23t30.5 78l51 -6q-15 -81 -47 -118.5t-90 -37.5q-41 0 -111 23.5t-102 23.5zM1120 1466l78 -18l-563 -842l-68 -606h-84l70 606l-363 778h-145l6 60q48 16 111 16
q54 0 75 -14.5t46 -67.5l317 -700z" />
    <glyph glyph-name="uni1EF9" unicode="&#x1ef9;" horiz-adv-x="995" 
d="M449 1339q-92 0 -119 -143l-54 8q37 195 179 195q49 0 98 -23.5t97 -47t93 -23.5q46 0 74 32t45 111l53 -6q-35 -199 -176 -199q-48 0 -99.5 24t-100.5 48t-90 24zM948 993l82 -12l-608 -1196q-48 -92 -110 -133t-167 -41q-72 0 -116 22l6 74q58 -26 112 -26q78 0 124 24
t83 100l97 193l-283 911q-31 15 -92 15l8 61q40 8 63 8q42 0 66 -20t39 -70l248 -809z" />
    <glyph glyph-name="endash" unicode="&#x2013;" horiz-adv-x="1136" 
d="M1061 623h-895l-8 -70h895z" />
    <glyph glyph-name="emdash" unicode="&#x2014;" horiz-adv-x="1730" 
d="M1655 623h-1489l-8 -70h1489z" />
    <glyph glyph-name="quoteleft" unicode="&#x2018;" horiz-adv-x="348" 
d="M195 1237q0 -54 22.5 -83.5t58.5 -29.5q32 0 50 21.5t18 56.5q-30 0 -52 19.5t-22 50.5q0 87 90 139l-26 47q-63 -34 -101 -91t-38 -130z" />
    <glyph glyph-name="quoteright" unicode="&#x2019;" horiz-adv-x="348" 
d="M362 1327q0 54 -22 83.5t-57 29.5q-33 0 -51.5 -21t-18.5 -57q31 0 53.5 -19.5t22.5 -50.5q0 -83 -90 -139l24 -47q63 34 101 91t38 130z" />
    <glyph glyph-name="quotesinglbase" unicode="&#x201a;" horiz-adv-x="313" 
d="M240 18q0 54 -22.5 83.5t-57.5 29.5q-33 0 -51.5 -21t-18.5 -57q31 0 53.5 -19t22.5 -50q0 -84 -90 -140l24 -47q63 34 101.5 91t38.5 130z" />
    <glyph glyph-name="quotedblleft" unicode="&#x201c;" horiz-adv-x="600" 
d="M195 1237q0 -54 22.5 -83.5t58.5 -29.5q32 0 50 21t18 57q-31 0 -53.5 19.5t-22.5 50.5q0 83 90 139l-24 47q-63 -34 -101 -91t-38 -130zM449 1237q0 -54 22 -83.5t57 -29.5q33 0 51.5 21.5t18.5 56.5q-31 0 -53.5 19.5t-22.5 50.5q0 83 90 139l-24 47q-63 -34 -101 -91
t-38 -130z" />
    <glyph glyph-name="quotedblright" unicode="&#x201d;" horiz-adv-x="600" 
d="M362 1327q0 54 -22 83.5t-57 29.5q-33 0 -51.5 -21t-18.5 -57q31 0 53.5 -19.5t22.5 -50.5q0 -83 -90 -139l24 -47q63 34 101 91t38 130zM616 1327q0 54 -22.5 83.5t-58.5 29.5q-32 0 -50 -21t-18 -57q31 0 53.5 -19.5t22.5 -50.5q0 -83 -90 -139l24 -47q63 34 101 91
t38 130z" />
    <glyph glyph-name="quotedblbase" unicode="&#x201e;" horiz-adv-x="565" 
d="M494 18q0 54 -23 83.5t-59 29.5q-32 0 -50 -21t-18 -57q31 0 53.5 -19t22.5 -50q0 -84 -90 -140l24 -47q63 34 101.5 91t38.5 130zM240 18q0 54 -22.5 83.5t-57.5 29.5q-33 0 -51.5 -21t-18.5 -57q31 0 53.5 -19t22.5 -50q0 -84 -90 -140l24 -47q63 34 101.5 91t38.5 130
z" />
    <glyph glyph-name="dagger" unicode="&#x2020;" horiz-adv-x="1144" 
d="M1049 1020l-19 -86l-344 16l-98 -950h-82l117 950l-347 -16v86l351 -16l39 450h92l-64 -450z" />
    <glyph glyph-name="daggerdbl" unicode="&#x2021;" horiz-adv-x="1169" 
d="M1053 983l-322 16l-51 -462l326 16v-82l-330 16l-47 -487h-86l65 487l-334 -16l19 82l321 -16l52 462l-324 -16v82l330 -16l33 405h92l-58 -405l334 16z" />
    <glyph glyph-name="bullet" unicode="&#x2022;" horiz-adv-x="514" 
d="M281 465q66 0 111.5 49.5t45.5 122.5q0 60 -34 97.5t-89 37.5q-66 0 -111.5 -49.5t-45.5 -122.5q0 -60 34 -97.5t89 -37.5z" />
    <glyph glyph-name="ellipsis" unicode="&#x2026;" horiz-adv-x="1175" 
d="M141 -25q39 0 64.5 26t25.5 67q0 32 -17 50.5t-48 18.5q-40 0 -65 -27.5t-25 -66.5q0 -32 17 -50t48 -18zM565 -25q39 0 64.5 26t25.5 67q0 32 -17 50.5t-48 18.5q-40 0 -65 -27.5t-25 -66.5q0 -32 17 -50t48 -18zM1012 -25q39 0 64.5 26t25.5 67q0 31 -17 50t-49 19
q-40 0 -65 -27.5t-25 -66.5q0 -32 17.5 -50t48.5 -18z" />
    <glyph glyph-name="perthousand" unicode="&#x2030;" horiz-adv-x="2445" 
d="M561 668q189 0 282 129.5t93 345.5q0 157 -69.5 244.5t-215.5 87.5q-190 0 -283.5 -130.5t-93.5 -345.5q0 -156 70.5 -243.5t216.5 -87.5zM1520 1475l-1198 -1493l75 -7l1200 1493zM567 725q-113 0 -168 75t-55 206q0 188 76 299.5t225 111.5q112 0 166.5 -74t54.5 -206
q0 -187 -74.5 -299.5t-224.5 -112.5zM1268 -25q129 0 214.5 63.5t122.5 167.5t37 245q0 157 -69 244t-213 87q-190 0 -283.5 -130t-93.5 -345q0 -156 70 -244t215 -88zM2025 -25q98 0 172 35.5t118.5 100.5t66.5 150.5t22 189.5q0 157 -70 244t-216 87q-130 0 -217 -63.5
t-125.5 -167.5t-38.5 -244q0 -156 70.5 -244t217.5 -88zM1274 33q-112 0 -166.5 74.5t-54.5 205.5q0 187 76.5 299.5t224.5 112.5q112 0 165.5 -74t53.5 -207q0 -187 -74.5 -299t-224.5 -112zM2032 33q-113 0 -168.5 74.5t-55.5 207.5q0 187 76 298.5t227 111.5
q112 0 167 -75t55 -206q0 -122 -30.5 -212t-99.5 -144.5t-171 -54.5z" />
    <glyph glyph-name="guilsinglleft" unicode="&#x2039;" horiz-adv-x="616" 
d="M541 883l-305 -305l247 -273l-47 -47l-278 313l2 17l342 344z" />
    <glyph glyph-name="guilsinglright" unicode="&#x203a;" horiz-adv-x="694" 
d="M279 940l278 -313l-2 -19l-342 -344l-39 49l305 305l-248 275z" />
    <glyph glyph-name="fraction" unicode="&#x2044;" horiz-adv-x="692" 
d="M987 1475l-1194 -1493l78 -7l1192 1493z" />
    <glyph glyph-name="Euro" unicode="&#x20ac;" horiz-adv-x="1533" 
d="M1042 1475q226 0 375 -129l-26 -76q-46 37 -86 62t-113.5 48t-157.5 23q-201 0 -344 -134t-201 -409h703l-18 -63h-963l16 63h176q33 160 96.5 280.5t149 192.5t184 107t209.5 35zM895 49q126 0 234.5 41.5t166.5 87.5l9 -76q-35 -25 -83.5 -49.5t-145.5 -51t-197 -26.5
q-111 0 -200.5 32.5t-158 100t-107 179.5t-40.5 262h-215l16 63h961l-17 -63h-659q2 -129 34 -226t90.5 -156.5t136 -88.5t175.5 -29z" />
    <glyph glyph-name="trademark" unicode="&#x2122;" horiz-adv-x="1142" 
d="M1128 913q24 -4 62 -4l-4 -39q-42 -6 -66 -6q-25 0 -35 11t-8 36l37 459l-229 -426h-41l-142 424l-69 -496h-51l71 517h-217l-59 -517h-53l59 517h-184l4 45h530l137 -426l228 426h76z" />
    <glyph glyph-name="minus" unicode="&#x2212;" horiz-adv-x="1024" 
d="M928 686h-760l-10 -72h760z" />
    <glyph glyph-name="approxequal" unicode="&#x2248;" horiz-adv-x="1028" 
d="M932 932q-20 -92 -65.5 -139.5t-125.5 -47.5q-65 0 -188 35t-182 35q-93 0 -121 -129l-60 10q40 185 191 185q65 0 190 -35t183 -35q48 0 77 29t46 100zM899 604q-20 -92 -65 -139t-125 -47q-65 0 -189 34.5t-182 34.5q-93 0 -121 -129l-59 11q40 184 190 184
q65 0 189.5 -35t183.5 -35q48 0 77 29t46 100z" />
    <glyph glyph-name="notequal" unicode="&#x2260;" horiz-adv-x="1132" 
d="M1030 799h-330l-129 -301h424l-8 -68h-444l-101 -233h-77l100 233h-307l8 68h328l129 301h-422l8 67h442l101 234h75l-98 -234h307z" />
    <glyph glyph-name="uniF8FF" unicode="&#xf8ff;" horiz-adv-x="2973" 
d="M1415 1194q0 54 37 90.5t90 36.5q54 0 90.5 -36.5t36.5 -90.5q0 -53 -36.5 -89t-90.5 -36q-53 0 -90 36.5t-37 88.5zM451 553h-246q2 268 20 643h205q19 -399 21 -643zM1421 553q0 130 9 301h-125l4 -133q12 -8 32 -8q25 0 37 10l-2 -152q-26 -30 -137 -30
q-83 0 -126.5 34.5t-43.5 100.5q0 27 5 101.5t5 76.5h-45v162l244 61l2 -35h365q20 -131 20 -489h-244zM674 543q-91 0 -141 59t-50 178q0 130 69 201.5t208 71.5q252 0 252 -240v-260h-168l-17 125q-13 -67 -48.5 -101t-104.5 -34zM2234 553h-233q0 56 2 117t2 71
q0 33 -6.5 47.5t-24.5 14.5q-23 0 -31 -15t-8 -45q0 -14 3.5 -75t3.5 -115h-234q4 367 23 489h163q13 -97 13 -155q2 15 5.5 31t15 42t28.5 45t47 33.5t68 14.5q86 0 119 -51t36 -166zM2769 799q0 -122 -62.5 -189t-191.5 -67q-127 0 -189.5 67.5t-62.5 188.5q0 51 12 93
t39.5 80t80 59.5t126.5 21.5q248 0 248 -254zM801 768q0 53 -49 53q-25 0 -35 -11.5t-10 -39.5q0 -63 45 -63q49 0 49 61zM2564 768q0 53 -47 53q-23 0 -33 -11.5t-10 -39.5q0 -63 41 -63q49 0 49 61zM877 487h213q22 -84 22 -256q0 -183 -69 -258t-244 -75q-127 0 -181 34
v170q48 -32 144 -32q43 0 70.5 13t33.5 23.5t8 20.5q-40 -23 -102 -23q-184 0 -184 170v27h-111l4 -133q12 -8 33 -8q30 0 35 10l2 -150q-45 -30 -141 -30q-93 0 -129.5 34.5t-36.5 112.5q0 22 3 87t3 77h-37v164l240 59l-2 -37h364l-2 -243q0 -33 6 -44.5t25 -11.5t26 12.5
t7 43.5v243zM1503 498q76 0 120 -61.5t44 -176.5q0 -270 -283 -270q2 -31 2 -80h-243q0 155 4.5 281t10 209t5.5 87h160q4 -18 9 -72.5t5 -82.5q3 16 7 29.5t16.5 41t29 46.5t46.5 34t67 15zM2193 264q0 -44 -8 -76h-254q23 -36 103 -36q68 0 112 24v-153q-47 -33 -161 -33
q-287 0 -287 252q0 119 66.5 187.5t189.5 68.5q113 0 176 -61t63 -173zM2003 223q6 56 -35 56q-47 0 -47 -56h82zM1372 147q11 0 26.5 5t32.5 24t17 47q0 47 -39 47q-47 0 -47 -63q0 -45 10 -60zM2200 27q0 -21 13 -34t34 -13q23 0 37 12.5t14 34.5q0 21 -14 34t-35 13
q-22 0 -35.5 -12.5t-13.5 -34.5zM2212 27q0 36 37 36t37 -36q0 -37 -37 -37t-37 37zM2269 4l-12 19q14 0 14 14t-20 14h-23v-47h10v19h11l8 -19h12zM2253 31h-15v12h15q8 0 8 -6t-8 -6z" />
    <glyph glyph-name="i.loclTRK" horiz-adv-x="397" 
d="M250 1241q29 0 49 21.5t20 52.5q0 26 -14.5 42.5t-40.5 16.5q-28 0 -48.5 -21t-20.5 -50q0 -27 15.5 -44.5t39.5 -17.5zM154 61l106 922h-78l-100 -868q-6 -42 -6 -64q0 -34 20.5 -49.5t69.5 -15.5q25 0 100 6l8 61q-79 0 -120 8z" />
    <glyph glyph-name="f_t" horiz-adv-x="1173" 
d="M874 918l-79 -713q-11 -92 19 -126t97 -34q80 0 156 33v-70q-85 -33 -174 -33q-102 0 -147 49t-29 183l80 711h-416l-105 -918h-77l104 918h-192l8 65h190l27 221q15 135 78.5 203t165.5 68q76 0 147 -29l-14 -70q-72 29 -133 29q-145 0 -166 -201l-25 -221h416l31 287
h77l-32 -287h325l-6 -65h-326z" />
    <glyph glyph-name="caron.alt" horiz-adv-x="571" 
d="M516 1454l-74 6l-90 -375l66 -6z" />
    <glyph glyph-name="acute.case" horiz-adv-x="653" 
d="M358 1737l-153 -217l69 -7l175 209z" />
    <glyph glyph-name="breve.case" horiz-adv-x="829" 
d="M569 1743q-20 -93 -61.5 -131.5t-114.5 -38.5q-67 0 -99 39t-32 131l-57 -6q0 -224 180 -224q97 0 157.5 52t82.5 172z" />
    <glyph glyph-name="caron.case" horiz-adv-x="874" 
d="M602 1743l68 -12l-221 -213h-72l-172 213l71 12l142 -178z" />
    <glyph glyph-name="circumflex.case" horiz-adv-x="874" 
d="M670 1530l-72 -12l-143 178l-183 -178l-67 12l221 213h70z" />
    <glyph glyph-name="dieresis.case" horiz-adv-x="768" 
d="M252 1563q25 0 43 17t18 44q0 23 -13.5 36t-35.5 13q-25 0 -42 -17t-17 -44q0 -23 13 -36t34 -13zM502 1563q27 0 44 17t17 44q0 23 -13.5 36t-35.5 13q-24 0 -41.5 -17t-17.5 -44q0 -23 13 -36t34 -13z" />
    <glyph glyph-name="dotaccent.case" horiz-adv-x="526" 
d="M256 1569q29 0 47.5 20t18.5 51q0 23 -14.5 38.5t-37.5 15.5q-28 0 -46.5 -20.5t-18.5 -49.5q0 -24 14 -39.5t37 -15.5z" />
    <glyph glyph-name="grave.case" horiz-adv-x="606" 
d="M297 1737l104 -217l-71 -7l-125 209z" />
    <glyph glyph-name="hungarumlaut.case" horiz-adv-x="872" 
d="M358 1737l-153 -217l69 -7l175 209zM580 1737l-154 -217l68 -7l174 209z" />
    <glyph glyph-name="macron.case" horiz-adv-x="931" 
d="M213 1647l-8 -66h514l8 66h-514z" />
    <glyph glyph-name="ring.case" horiz-adv-x="688" 
d="M326 1497q71 0 114 46t43 120q0 59 -32.5 93t-90.5 34q-69 0 -112 -45.5t-43 -120.5q0 -59 32 -93t89 -34zM332 1538q-37 0 -58.5 24.5t-21.5 65.5q0 55 29 88t75 33q37 0 58.5 -24.5t21.5 -65.5q0 -54 -29 -87.5t-75 -33.5z" />
    <glyph glyph-name="tilde.case" horiz-adv-x="894" 
d="M690 1729q-15 -81 -47 -118.5t-90 -37.5q-41 0 -111 23.5t-102 23.5q-34 0 -54 -22.5t-30 -77.5l-51 8q15 78 48 115.5t89 37.5q43 0 112 -23.5t101 -23.5q33 0 53.5 23t30.5 78z" />
    <glyph glyph-name="IJacute" horiz-adv-x="1165" 
d="M467 1737l-154 -217l70 -7l174 209zM1174 1737l-154 -217l70 -7l174 209zM307 1454l-170 -1454h84l168 1454h-82zM1096 1454h-82l-127 -1108q-17 -155 -91.5 -226t-222.5 -71q-149 0 -247 57l-19 -73q118 -58 262 -58q185 0 282.5 88t117.5 275z" />
    <glyph glyph-name="ijacute" horiz-adv-x="741" 
d="M406 1460l-218 -334h72l234 326zM834 1460l-218 -334h72l234 326zM154 61l106 922h-78l-100 -868q-6 -42 -6 -64q0 -34 20.5 -49.5t69.5 -15.5q25 0 100 6l8 61q-79 0 -120 8zM686 983h-78l-137 -1194q-6 -58 -34 -83t-77 -25q-39 0 -81 20l-11 -68q33 -22 97 -22
q85 0 129 43.5t55 136.5z" />
    </font>
</defs>
</svg>
