<?xml version="1.0" standalone="no"?>
<!DOCTYPE svg PUBLIC "-//W3C//DTD SVG 1.1//EN" "http://www.w3.org/Graphics/SVG/1.1/DTD/svg11.dtd" >
<svg xmlns="http://www.w3.org/2000/svg" xmlns:xlink="http://www.w3.org/1999/xlink" version="1.1">
<metadata>
Created by FontForge 20170731 at Wed Sep 15 10:16:26 2021
 By Aleksey,,,
Latinotype
</metadata>
<defs>
<font id="Corporative-ThinItalic" horiz-adv-x="1572" >
  <font-face 
    font-family="Corporative Thin"
    font-weight="250"
    font-style="italic"
    font-stretch="normal"
    units-per-em="2048"
    panose-1="0 0 3 0 0 0 0 0 0 0"
    ascent="1659"
    descent="-389"
    x-height="983"
    cap-height="1454"
    bbox="-340 -399 2771 1788"
    underline-thickness="102"
    underline-position="-307"
    slope="-6.5"
    unicode-range="U+0020-FB02"
  />
<missing-glyph horiz-adv-x="1290" 
d="M205 1454h880v-1454h-880v1454zM338 1382l307 -569l307 569h-614zM600 727l-313 582v-1164zM692 727l312 -582v1164zM645 641l-307 -569h614z" />
    <glyph glyph-name="fi" unicode="fi" horiz-adv-x="1044" 
d="M766 43q58 -6 152 -6l-11 -45q-54 -4 -106 -4q-56 0 -74 17.5t-12 68.5l98 860h-444l-107 -934h-55l106 934h-196l6 49h194l27 231q14 133 95 197t214 64q138 0 213 -35l-14 -56q-76 37 -199 37q-111 0 -176.5 -53t-77.5 -156l-24 -229h497z" />
    <glyph glyph-name="fl" unicode="fl" horiz-adv-x="1042" 
d="M770 51q34 -14 178 -14l-10 -43q-46 -6 -115 -6q-71 0 -92 19t-16 67l98 860h-442l-107 -934h-57l106 934h-196l6 49h194l27 231q28 261 248 261q83 0 158 -33l-11 -53q-62 32 -147 32q-81 0 -130 -51.5t-61 -152.5l-26 -234h442l53 471h60z" />
    <glyph glyph-name=".notdef" horiz-adv-x="1290" 
d="M205 1454h880v-1454h-880v1454zM338 1382l307 -569l307 569h-614zM600 727l-313 582v-1164zM692 727l312 -582v1164zM645 641l-307 -569h614z" />
    <glyph glyph-name=".null" horiz-adv-x="0" 
 />
    <glyph glyph-name="nonmarkingreturn" horiz-adv-x="682" 
 />
    <glyph glyph-name="space" unicode=" " horiz-adv-x="579" 
 />
    <glyph glyph-name="exclam" unicode="!" horiz-adv-x="460" 
d="M354 1454l-116 -1083h53l131 1083h-68zM217 -25q33 0 54.5 21.5t21.5 56.5q0 26 -15.5 42t-41.5 16q-33 0 -53.5 -22.5t-20.5 -55.5q0 -27 15 -42.5t40 -15.5z" />
    <glyph glyph-name="quotedbl" unicode="&#x22;" horiz-adv-x="581" 
d="M279 1470l-76 -448h47l96 436zM518 1470l-74 -448h45l99 436z" />
    <glyph glyph-name="numbersign" unicode="#" horiz-adv-x="1372" 
d="M1255 846h-251l-121 -361h254l-17 -49h-254l-104 -313h-57l104 313h-322l-104 -313h-55l104 313h-250l17 49h247l121 361h-250l17 49h250l104 313h57l-104 -313h322l104 313h57l-104 -313h252zM825 485l121 361h-321l-121 -361h321z" />
    <glyph glyph-name="dollar" unicode="$" horiz-adv-x="1277" 
d="M715 739q52 -18 84 -29.5t78 -31.5t74 -37.5t60.5 -44.5t50.5 -56t30 -68t12 -83q0 -181 -129 -284t-361 -109l-26 -205h-56l29 205q-99 3 -190 28.5t-134 48t-75 46.5l16 55q49 -39 150 -79t239 -44l88 647q-52 18 -84.5 29.5t-79 31.5t-75.5 38.5t-62 46t-51 57
t-30.5 69t-12.5 85.5q0 178 128 287t368 112l28 205h54l-27 -207q318 -16 346 -289l-59 -12q-2 33 -10.5 63t-29.5 63t-52.5 58t-84 43t-118.5 23zM322 1059q0 -52 19.5 -94.5t48 -71.5t78 -56t90.5 -43.5t104 -37.5l88 645q-208 -1 -318 -92t-110 -250zM623 51
q192 5 305.5 86t113.5 244q0 51 -19 93.5t-47 71.5t-76 55.5t-89.5 43t-103.5 37.5z" />
    <glyph glyph-name="percent" unicode="%" horiz-adv-x="1656" 
d="M563 668q96 0 168 35.5t116 100.5t65.5 150.5t21.5 190.5q0 155 -69 242.5t-210 87.5q-96 0 -168.5 -36t-117 -101t-66.5 -150t-22 -189q0 -155 69.5 -243t212.5 -88zM1518 1475l-1196 -1495l57 -5l1198 1495zM567 711q-118 0 -176.5 79t-58.5 216q0 191 81 308.5
t236 117.5q119 0 176.5 -78t57.5 -215q0 -125 -31.5 -219t-104 -151.5t-180.5 -57.5zM1243 -25q97 0 169.5 35.5t116.5 101t65.5 151t21.5 190.5q0 155 -69 242t-212 87q-127 0 -212 -63.5t-122.5 -167.5t-37.5 -244q0 -155 69.5 -243.5t210.5 -88.5zM1249 18
q-118 0 -175.5 79t-57.5 216q0 191 80 308.5t235 117.5q119 0 176.5 -78t57.5 -215q0 -193 -79 -310.5t-237 -117.5z" />
    <glyph glyph-name="ampersand" unicode="&#x26;" horiz-adv-x="1599" 
d="M1540 848q-131 -456 -401 -686l172 -187l-64 -10l-151 162q-229 -172 -525 -172q-203 0 -306 74t-103 211q0 40 7 76.5t17.5 66t31 58.5t39 50t51 45.5t56.5 40.5t66.5 38.5t70 36.5t77.5 38q-63 70 -96 115.5t-59 113.5t-26 144q0 81 25.5 154t74 131t128 92.5
t178.5 34.5q85 0 147 -23.5t95.5 -64.5t49 -89t15.5 -106q0 -60 -16 -115t-35 -94t-61 -81t-66.5 -64t-81.5 -55.5t-75.5 -43t-77.5 -38.5l-38 -19l443 -481q257 217 381 651zM795 1423q-159 0 -248.5 -104.5t-89.5 -261.5q0 -92 37 -165.5t133 -176.5q162 80 224 123
q173 118 196 282q4 27 4 56q0 124 -67.5 185.5t-188.5 61.5zM586 8q266 0 475 158l-443 479l-10 10q-91 -45 -145.5 -76t-106 -68.5t-77.5 -74t-41 -83t-15 -105.5q0 -112 86.5 -176t276.5 -64z" />
    <glyph glyph-name="quotesingle" unicode="'" horiz-adv-x="339" 
d="M279 1470l-76 -448h47l96 436z" />
    <glyph glyph-name="parenleft" unicode="(" horiz-adv-x="716" 
d="M266 492q0 186 40 356t101 292.5t140 225t149.5 164t137.5 98.5l-9 51q-65 -31 -133 -85t-138.5 -130.5t-132.5 -179t-110.5 -220.5t-77 -265.5t-28.5 -304.5q0 -172 34 -324t91 -260t121.5 -183t134.5 -116l22 51q-59 36 -115.5 102.5t-109 167t-85 246.5t-32.5 314z
" />
    <glyph glyph-name="parenright" unicode=")" horiz-adv-x="804" 
d="M539 799q0 -156 -27.5 -301t-75 -258t-105.5 -209.5t-123.5 -168.5t-124.5 -121t-114 -79l11 -51q65 31 133 85t138.5 131t132.5 179t110.5 220t77 266t28.5 305q0 172 -34.5 324t-91.5 259.5t-122 182.5t-135 116l-20 -51q59 -36 115.5 -102.5t109 -166.5t85 -246
t32.5 -314z" />
    <glyph glyph-name="asterisk" unicode="*" horiz-adv-x="862" 
d="M563 1212l193 -120l-31 -48l-176 136l-23 -232h-49l31 232l-207 -136l-20 48l221 120l-193 123l31 45l176 -133l23 232h49l-31 -232l207 133l20 -45z" />
    <glyph glyph-name="plus" unicode="+" horiz-adv-x="974" 
d="M874 674l-6 -49h-323l-41 -361h-60l41 361h-323l4 49h326l40 360h58l-41 -360h325z" />
    <glyph glyph-name="comma" unicode="," horiz-adv-x="299" 
d="M221 10q0 47 -20 73t-51 26q-27 0 -41.5 -18t-14.5 -44q27 0 47.5 -18.5t20.5 -46.5q0 -49 -27 -83.5t-55 -50.5l20 -36q55 29 88 80.5t33 117.5z" />
    <glyph glyph-name="hyphen" unicode="-" horiz-adv-x="753" 
d="M674 612h-508l-4 -49h506z" />
    <glyph glyph-name="period" unicode="." horiz-adv-x="288" 
d="M135 -25q33 0 54.5 21.5t21.5 56.5q0 26 -15.5 42t-41.5 16q-33 0 -53.5 -22.5t-20.5 -55.5q0 -27 15 -42.5t40 -15.5z" />
    <glyph glyph-name="slash" unicode="/" horiz-adv-x="759" 
d="M780 1659l-856 -2028h58l856 2028h-58z" />
    <glyph glyph-name="zero" unicode="0" horiz-adv-x="1212" 
d="M606 -25q144 0 254.5 69.5t178 194t101.5 287t34 357.5q0 181 -42.5 311.5t-136 205.5t-231.5 75q-143 0 -252 -70.5t-175.5 -198t-100 -294t-33.5 -367.5q0 -266 101.5 -418t301.5 -152zM614 29q-117 0 -197.5 67.5t-116.5 180.5t-36 266q0 259 58 456.5t171 309.5
t267 112q178 0 264 -147.5t86 -401.5q0 -177 -31 -328t-90.5 -267t-155.5 -182t-219 -66z" />
    <glyph glyph-name="one" unicode="1" horiz-adv-x="714" 
d="M461 53h217l-6 -53h-551l6 53h272l152 1333q-54 -40 -188 -108t-218 -100l-6 55q104 40 223.5 101.5t196.5 119.5h62z" />
    <glyph glyph-name="two" unicode="2" horiz-adv-x="1042" 
d="M1044 1116q0 -89 -27.5 -167t-74 -138t-107.5 -114.5t-129 -102t-137 -93t-133.5 -94t-116.5 -100t-87.5 -117t-45.5 -137.5h768l-4 -53h-829l2 29q9 104 61.5 193t129 154.5t166.5 126.5t178.5 122.5t161.5 128.5t118 158t45 198q0 137 -78.5 224t-240.5 87
q-144 0 -234.5 -61t-136.5 -186l-55 10q42 131 148.5 211t285.5 80q184 0 278 -100.5t94 -258.5z" />
    <glyph glyph-name="three" unicode="3" horiz-adv-x="1015" 
d="M698 758q112 -31 187.5 -116t75.5 -218q0 -197 -128.5 -323t-359.5 -126q-163 0 -254 60.5t-119 189.5l58 21q38 -217 319 -217q117 0 211 42t152.5 132t58.5 215q0 142 -96 227.5t-244 85.5h-119l4 49h119q69 0 134.5 23t119.5 66.5t86.5 115.5t32.5 162q0 126 -73 200
t-226 74q-146 0 -229.5 -58t-131.5 -177l-55 12q59 147 165.5 212t256.5 65q179 0 265.5 -87t86.5 -235q0 -158 -82.5 -257.5t-214.5 -137.5z" />
    <glyph glyph-name="four" unicode="4" horiz-adv-x="1015" 
d="M819 528h240l-8 -53h-238l-53 -475h-62l54 475h-686l-7 49l811 930h56zM758 528l96 832l-727 -832h631z" />
    <glyph glyph-name="five" unicode="5" horiz-adv-x="1013" 
d="M1008 1401h-590l-88 -596q117 31 225 31q188 0 297 -95t109 -264q0 -101 -30.5 -190.5t-88.5 -160t-151 -111t-210 -40.5q-304 0 -360 250l57 21q7 -40 25.5 -76t53 -69t93 -52.5t133.5 -19.5q186 0 300 117.5t114 318.5q0 147 -90 232t-270 85q-138 0 -275 -45l100 717
h652z" />
    <glyph glyph-name="six" unicode="6" horiz-adv-x="1077" 
d="M674 868q178 0 272 -106.5t94 -276.5q0 -143 -55.5 -258t-163 -183.5t-248.5 -68.5q-186 0 -288.5 132t-102.5 405q0 206 34 378.5t102.5 304.5t180 206t257.5 74q143 0 223.5 -76.5t97.5 -186.5l-57 -10q-15 101 -86 160t-186 59q-147 0 -255 -92t-168 -255t-77 -388
q66 70 182 126t244 56zM586 29q76 0 145.5 28t126 82t90 142t33.5 198q0 158 -80 248t-235 90q-126 0 -235.5 -58.5t-186.5 -135.5q0 -17 -1 -52.5t-1 -54.5q0 -135 25 -231.5t72 -151t107.5 -79.5t139.5 -25z" />
    <glyph glyph-name="seven" unicode="7" horiz-adv-x="739" 
d="M68 1454h835l-8 -59q-502 -692 -768 -1395h-66q254 664 777 1401h-777z" />
    <glyph glyph-name="eight" unicode="8" horiz-adv-x="1083" 
d="M778 745q275 -103 275 -333q0 -193 -129.5 -315t-366.5 -122q-196 0 -300.5 86t-104.5 254q0 293 366 459q-105 41 -162 109.5t-57 177.5q0 69 15.5 129.5t49.5 113t83.5 90.5t120.5 59.5t157 21.5q170 0 255 -90.5t85 -233.5q0 -66 -19 -125t-48 -101t-69.5 -79
t-76 -59.5t-74.5 -41.5zM358 1071q0 -64 19.5 -111t61.5 -80.5t95 -55.5t132 -42l59 -18q40 19 71 37.5t73.5 52.5t70.5 72t48 95t20 122q0 130 -75.5 204t-211.5 74q-173 0 -268 -95.5t-95 -254.5zM567 29q189 0 306.5 100t117.5 281q0 132 -87 208.5t-271 120.5
q-16 3 -62 17q-51 -24 -91.5 -47.5t-93.5 -64.5t-88 -85.5t-60 -109t-25 -136.5q0 -144 94.5 -214t259.5 -70z" />
    <glyph glyph-name="nine" unicode="9" horiz-adv-x="1095" 
d="M670 1475q88 0 160.5 -32.5t128.5 -99.5t87 -178.5t31 -259.5q0 -272 -65.5 -479.5t-200.5 -329t-326 -121.5q-302 0 -323 283l55 12q20 -241 275 -241q223 0 362.5 202.5t159.5 548.5q-71 -72 -189.5 -128t-259.5 -56q-166 0 -258 94.5t-92 267.5q0 143 51 258.5
t156 187t248 71.5zM569 647q133 0 250 55t197 138v49q0 121 -19.5 214.5t-52 152.5t-79.5 97t-97.5 53t-110.5 15q-170 0 -275.5 -129t-105.5 -334q0 -157 77.5 -234t215.5 -77z" />
    <glyph glyph-name="colon" unicode=":" horiz-adv-x="395" 
d="M242 852q32 0 52.5 21.5t20.5 56.5q0 26 -14.5 41.5t-40.5 15.5q-33 0 -54.5 -23t-21.5 -55q0 -27 16 -42t42 -15zM135 -25q33 0 54.5 21.5t21.5 56.5q0 26 -15.5 42t-41.5 16q-33 0 -53.5 -22.5t-20.5 -55.5q0 -27 15 -42.5t40 -15.5z" />
    <glyph glyph-name="semicolon" unicode=";" horiz-adv-x="407" 
d="M254 852q33 0 53.5 21.5t20.5 56.5q0 26 -15 41.5t-41 15.5q-33 0 -54 -23t-21 -55q0 -27 16 -42t41 -15zM221 10q0 47 -20 73t-51 26q-27 0 -41.5 -18t-14.5 -44q27 0 47.5 -18.5t20.5 -46.5q0 -49 -27 -83.5t-55 -50.5l20 -36q55 29 88 80.5t33 117.5z" />
    <glyph glyph-name="less" unicode="&#x3c;" horiz-adv-x="1028" 
d="M930 1096l-4 -62l-703 -387l615 -387l-11 -57l-665 424l6 45z" />
    <glyph glyph-name="equal" unicode="=" horiz-adv-x="1138" 
d="M1038 858h-829l-4 -51h829zM995 489h-829l-4 -51h829z" />
    <glyph glyph-name="greater" unicode="&#x3e;" horiz-adv-x="1028" 
d="M201 1096l667 -424l-6 -45l-762 -424l2 61l705 387l-617 387z" />
    <glyph glyph-name="question" unicode="?" horiz-adv-x="886" 
d="M203 1253l49 -16q76 184 262 184q277 0 277 -266q0 -53 -11.5 -102t-27.5 -86.5t-46.5 -76.5t-54.5 -64.5t-67 -59t-68 -50.5t-73 -49t-68 -46l-25 -226h47l39 209q16 11 54 35.5t65.5 42.5t67 49.5t68.5 60t60.5 70t51 84.5t32.5 98.5t13 116.5q0 148 -82.5 231
t-243.5 83q-117 0 -193.5 -52.5t-125.5 -169.5zM324 -25q32 0 52.5 21.5t20.5 56.5q0 27 -14.5 42.5t-40.5 15.5q-33 0 -53.5 -22.5t-20.5 -55.5q0 -27 15.5 -42.5t40.5 -15.5z" />
    <glyph glyph-name="at" unicode="@" horiz-adv-x="2211" 
d="M1282 1456q360 0 565 -202.5t205 -563.5q0 -690 -407 -690q-106 0 -162 52t-62 171q-54 -102 -154 -162.5t-239 -60.5q-153 0 -242.5 105.5t-89.5 295.5q0 268 139.5 425t358.5 157q183 0 297 -109l18 89h47l-75 -654q-26 -258 172 -258q346 0 346 629q0 343 -188 534
t-537 191q-164 0 -311.5 -43.5t-269 -129.5t-210 -208t-137.5 -286.5t-49 -356.5q0 -157 37 -282t99.5 -206.5t149 -135.5t181 -76.5t201.5 -22.5q264 0 450 109v-56q-171 -102 -450 -102q-122 0 -228 26t-198.5 84.5t-158 146t-103 218t-37.5 293.5q0 206 53.5 381
t148.5 302.5t225.5 217.5t286 134t328.5 44zM1042 53q146 0 253 79t135 226l51 455q-105 117 -287 117q-197 0 -318.5 -139.5t-121.5 -387.5q0 -168 77 -259t211 -91z" />
    <glyph glyph-name="A" unicode="A" horiz-adv-x="1327" 
d="M1155 47q31 -10 143 -10l-10 -43q-33 -10 -92 -10q-48 0 -70 14t-32 57l-113 406h-729l-232 -461h-63l735 1448l70 16zM279 514h688l-244 887z" />
    <glyph glyph-name="B" unicode="B" horiz-adv-x="1204" 
d="M848 764q132 -30 214.5 -113t82.5 -219q0 -432 -535 -432h-463l160 1401h-166l4 43q47 14 142 14q53 0 71 -18q162 35 293 35q251 0 372.5 -89t121.5 -251q0 -300 -297 -371zM369 1397l-70 -617h346q203 0 319.5 85t116.5 261q0 295 -438 295q-122 0 -274 -24zM614 53
q246 0 356.5 92.5t110.5 280.5q0 143 -102.5 222t-278.5 79h-407l-78 -674h399z" />
    <glyph glyph-name="C" unicode="C" horiz-adv-x="1349" 
d="M719 31q-250 0 -393.5 155t-143.5 430q0 189 49.5 342.5t137.5 254t208 154.5t261 54q218 0 320.5 -102.5t86.5 -276.5l64 7q4 28 4 55q0 162 -122.5 266.5t-354.5 104.5q-156 0 -287.5 -59.5t-226 -169t-148 -273t-53.5 -363.5q0 -302 158 -468.5t432 -166.5
q98 0 183.5 14.5t145 38.5t94 43.5t60.5 39.5l-10 51q-178 -131 -465 -131z" />
    <glyph glyph-name="D" unicode="D" horiz-adv-x="1476" 
d="M698 1475q165 0 293 -50.5t206.5 -141t118.5 -207.5t40 -257q0 -137 -32.5 -259.5t-99.5 -225t-162 -177t-227.5 -116t-289.5 -41.5h-395l159 1401h-168l4 43q54 14 144 14q51 0 69 -18q148 35 340 35zM549 55q151 0 275.5 40t210.5 110.5t145 167t86.5 207.5t27.5 235
q0 126 -34.5 232.5t-105 191t-189 132.5t-273.5 48q-176 0 -321 -22l-154 -1342h332z" />
    <glyph glyph-name="E" unicode="E" horiz-adv-x="1089" 
d="M1128 1401h-766l-73 -643h717l-7 -53h-716l-74 -652h776l-8 -53h-836l164 1454h838z" />
    <glyph glyph-name="F" unicode="F" horiz-adv-x="1028" 
d="M1087 1401h-725l-73 -643h676l-7 -53h-675l-80 -705h-62l164 1454h797z" />
    <glyph glyph-name="G" unicode="G" horiz-adv-x="1497" 
d="M1321 735q37 0 37 -28q0 -10 -2.5 -32.5t-3.5 -33.5l-72 -641h-47l33 319q-77 -172 -226.5 -258t-341.5 -86q-273 0 -425 168.5t-152 468.5q0 207 57 371.5t159 271.5t242 163.5t308 56.5q218 0 341 -103.5t126 -288.5l-64 -12q2 162 -107 256t-302 94
q-322 0 -510.5 -216t-188.5 -587q0 -276 138.5 -432.5t386.5 -156.5q111 0 207 30.5t174.5 92t130 164t67.5 237.5l14 131h-483l6 51h498z" />
    <glyph glyph-name="H" unicode="H" horiz-adv-x="1435" 
d="M1358 1454l-162 -1409q44 -8 158 -8l-11 -43q-48 -10 -126 -10q-45 0 -65 16t-17 55l71 627h-925l-78 -682h-62l166 1454h62l-82 -717h927l82 717h62z" />
    <glyph glyph-name="I" unicode="I" horiz-adv-x="448" 
d="M307 1454l-166 -1454h62l166 1454h-62z" />
    <glyph glyph-name="J" unicode="J" horiz-adv-x="882" 
d="M807 1454h-59l-130 -1120q-17 -157 -93 -231t-228 -74q-147 0 -248 59l-12 -55q35 -17 60.5 -27t79.5 -20.5t116 -10.5q180 0 273.5 85.5t113.5 265.5z" />
    <glyph glyph-name="K" unicode="K" horiz-adv-x="1202" 
d="M932 113q27 -54 57.5 -65t134.5 -11l-8 -43q-27 -8 -84 -8q-59 0 -90 17t-55 65l-309 614h-297l-78 -682h-62l164 1454h64l-82 -717h295l620 727l64 -16l-641 -741z" />
    <glyph glyph-name="L" unicode="L" horiz-adv-x="1015" 
d="M227 55h740l-6 -55h-803l166 1454h61z" />
    <glyph glyph-name="M" unicode="M" horiz-adv-x="1724" 
d="M1526 45q41 -8 139 -8l-8 -43q-48 -10 -115 -10q-47 0 -63.5 15t-12.5 56l113 1301l-692 -1168h-62l-430 1168l-192 -1356h-62l203 1448l76 16l444 -1212l711 1202h78z" />
    <glyph glyph-name="N" unicode="N" horiz-adv-x="1435" 
d="M1294 1454h62l-164 -1454h-55l-781 1352l-153 -1352h-62l164 1448l60 16l778 -1353z" />
    <glyph glyph-name="O" unicode="O" 
d="M702 -25q222 0 394.5 113t264 305.5t91.5 429.5q0 190 -66 336t-199 231t-315 85q-167 0 -308.5 -66t-238 -180t-150.5 -269.5t-54 -332.5q0 -190 66 -336t199 -231t316 -85zM709 31q-248 0 -387.5 163.5t-139.5 436.5q0 169 50 315t139 250t217 163.5t278 59.5
q247 0 386 -163.5t139 -434.5q0 -227 -85 -406.5t-241 -281.5t-356 -102z" />
    <glyph glyph-name="P" unicode="P" horiz-adv-x="1110" 
d="M659 1475q223 0 339 -106.5t116 -299.5q0 -236 -144 -360.5t-425 -124.5h-269l-67 -584h-59l159 1401h-168l4 43q54 14 144 14q51 0 69 -18q144 35 301 35zM555 637q263 0 380.5 111.5t117.5 318.5q0 168 -97 261t-303 93q-128 0 -284 -24l-86 -760h272z" />
    <glyph glyph-name="Q" unicode="Q" 
d="M1018 -76q73 -137 123 -189t131 -52q68 0 119 14l-9 -51q-77 -15 -122 -15q-92 0 -150 48.5t-121 170.5l-78 154q-106 -29 -209 -29q-183 0 -316 85t-199 231t-66 336q0 177 54 332.5t150.5 269.5t238 180t308.5 66q182 0 315 -85t199 -231t66 -336q0 -289 -136 -508.5
t-368 -300.5h23zM182 631q0 -273 139.5 -436.5t387.5 -163.5q200 0 356 102t241 281.5t85 406.5q0 271 -139 434.5t-386 163.5q-150 0 -278 -59.5t-217 -163.5t-139 -250t-50 -315z" />
    <glyph glyph-name="R" unicode="R" horiz-adv-x="1216" 
d="M975 117q28 -55 61.5 -67.5t139.5 -12.5l-11 -43q-36 -8 -88 -8q-59 0 -93 21t-64 81l-275 551h-360l-74 -639h-61l159 1401h-168l4 43q54 14 144 14q51 0 69 -18q148 35 326 35q247 0 369.5 -98.5t122.5 -280.5q0 -217 -124.5 -333t-340.5 -124zM371 1397l-82 -705h413
q187 0 299.5 102.5t112.5 303.5q0 153 -106.5 238t-325.5 85q-153 0 -311 -24z" />
    <glyph glyph-name="S" unicode="S" horiz-adv-x="1144" 
d="M246 1061q0 170 99.5 265t299.5 95q196 0 289.5 -64.5t93.5 -211.5l59 12q0 318 -432 318q-222 0 -346.5 -108.5t-124.5 -305.5q0 -79 27.5 -137.5t74 -94t107 -61t127.5 -42.5t133.5 -33t127 -38t107 -53t74 -83t27.5 -122q0 -78 -24 -140.5t-65.5 -104.5t-100.5 -70
t-126 -40.5t-145 -12.5q-136 0 -255.5 43t-186.5 94l-16 -60q186 -131 452 -131q267 0 398 115t131 320q0 77 -27.5 135t-74 93t-107 60t-127.5 41t-133.5 32t-127 38t-107 52t-74 80.5t-27.5 119.5z" />
    <glyph glyph-name="T" unicode="T" horiz-adv-x="1009" 
d="M1114 1454l-6 -53h-492l-159 -1401h-62l158 1401h-494l7 43q92 10 268 10h780z" />
    <glyph glyph-name="U" unicode="U" horiz-adv-x="1402" 
d="M1346 1454h-64l-102 -907q-30 -257 -159.5 -387.5t-367.5 -130.5q-243 0 -337 126t-64 390l94 827q5 46 -13 66t-65 20q-61 0 -143 -12l-4 -43h168l-96 -844q-34 -299 74.5 -441.5t377.5 -142.5q268 0 414.5 138t181.5 434z" />
    <glyph glyph-name="V" unicode="V" horiz-adv-x="1232" 
d="M1243 1464l57 -16l-679 -1448h-74l-361 1403h-143l4 43q53 12 117 12q44 0 63 -13t27 -46l338 -1329z" />
    <glyph glyph-name="W" unicode="W" horiz-adv-x="1886" 
d="M1894 1464l60 -16l-617 -1448h-71l-213 1368l-525 -1368h-69l-273 1403h-143l4 43q60 12 119 12q45 0 65 -16.5t29 -65.5l242 -1292l526 1370h72l213 -1370z" />
    <glyph glyph-name="X" unicode="X" horiz-adv-x="1214" 
d="M662 737l358 -690q36 -10 139 -10l-10 -43q-30 -10 -86 -10q-46 0 -70 16.5t-53 71.5l-324 626l-546 -698h-72l586 737l-363 666h-160l7 41q42 14 108 14q88 0 115 -53l336 -629l530 692l62 -16z" />
    <glyph glyph-name="Y" unicode="Y" horiz-adv-x="1116" 
d="M1124 1464l58 -16l-564 -838l-69 -610h-62l70 610l-371 791h-143l4 45q54 12 103 12q51 0 69 -13t43 -67l330 -714z" />
    <glyph glyph-name="Z" unicode="Z" horiz-adv-x="1200" 
d="M1231 1409l-1110 -1356h946l-6 -53h-1014l-6 41l1110 1360h-928l4 45q98 8 236 8h764z" />
    <glyph glyph-name="bracketleft" unicode="[" horiz-adv-x="686" 
d="M727 1608h-274l-222 -1925h275l-6 -52h-330l4 52h2l227 1976h330z" />
    <glyph glyph-name="backslash" unicode="\" horiz-adv-x="759" 
d="M-18 1659h-58l856 -2028h58z" />
    <glyph glyph-name="bracketright" unicode="]" horiz-adv-x="774" 
d="M604 1659l-227 -1976l-6 -52h-330l6 52h275l219 1925h-273l6 51h330z" />
    <glyph glyph-name="underscore" unicode="_" horiz-adv-x="837" 
d="M758 0h-674l-4 -51h670z" />
    <glyph glyph-name="grave" unicode="`" horiz-adv-x="622" 
d="M272 1458l-67 -6l162 -326h51z" />
    <glyph glyph-name="a" unicode="a" horiz-adv-x="1128" 
d="M872 45q78 -8 148 -8l-6 -45q-33 -4 -107 -4q-53 0 -73.5 22.5t-14.5 77.5l19 150q-68 -121 -181 -192t-251 -71q-127 0 -198 67t-71 185q0 153 105.5 243.5t308.5 90.5q169 0 317 -39l13 105q18 154 -49 239.5t-220 85.5q-271 0 -336 -245l-57 10q22 67 51.5 116.5
t75.5 89.5t114 60.5t158 20.5q179 0 260 -97t60 -278zM420 27q109 0 206 55.5t156 140t74 176.5l8 74q-139 39 -313 39q-183 0 -269.5 -75t-86.5 -208q0 -96 59.5 -149t165.5 -53z" />
    <glyph glyph-name="b" unicode="b" horiz-adv-x="1050" 
d="M608 1004q180 0 273.5 -111.5t93.5 -317.5q0 -274 -139 -437t-400 -163q-114 0 -195 32t-120 75l155 1372h58l-74 -649q52 91 141 145t207 54zM446 29q223 0 347.5 142t124.5 402q0 179 -78.5 278t-237.5 99q-79 0 -145.5 -28t-110.5 -74.5t-71 -102t-35 -114.5l-60 -518
q84 -84 266 -84z" />
    <glyph glyph-name="c" unicode="c" horiz-adv-x="1038" 
d="M903 164q-27 -22 -40 -32.5t-51.5 -33.5t-72 -35.5t-86.5 -23t-110 -10.5q-152 0 -238 96.5t-86 280.5q0 245 117 394.5t309 149.5q134 0 201.5 -65t58.5 -199l56 6q4 20 4 39q-2 126 -80.5 199.5t-231.5 73.5q-155 0 -268.5 -79.5t-170 -214.5t-56.5 -309
q0 -211 102 -318.5t277 -107.5q73 0 134.5 12.5t109.5 37.5t72.5 41t57.5 43z" />
    <glyph glyph-name="d" unicode="d" horiz-adv-x="1153" 
d="M1065 1454l-160 -1409q74 -8 152 -8l-8 -45q-29 -4 -111 -4q-52 0 -71.5 27t-10.5 98l8 71q-57 -91 -151.5 -150t-220.5 -59q-152 0 -243 110.5t-91 309.5q0 278 137 443.5t360 165.5q183 0 291 -91l62 541h57zM502 29q146 0 252 89t127 208l59 526q-107 98 -293 98
q-128 0 -226.5 -72t-151 -197t-52.5 -282q0 -186 80 -278t205 -92z" />
    <glyph glyph-name="e" unicode="e" horiz-adv-x="1030" 
d="M627 1004q162 0 245.5 -104t83.5 -275q0 -35 -12 -146h-727q-2 -25 -2 -76q0 -374 338 -374q111 0 198 35t121 67l11 -51q-45 -40 -136.5 -72.5t-205.5 -32.5q-187 0 -285 107.5t-98 318.5q0 278 128.5 440.5t340.5 162.5zM223 528h670v2q26 195 -51.5 307.5
t-220.5 112.5q-153 0 -262 -108.5t-136 -313.5z" />
    <glyph glyph-name="f" unicode="f" horiz-adv-x="622" 
d="M592 1421q-173 0 -197 -209l-24 -229h325l-6 -49h-325l-107 -934h-55l106 934h-192l6 49h190l27 231q33 261 256 261q91 0 170 -33l-12 -53q-59 32 -162 32z" />
    <glyph glyph-name="g" unicode="g" horiz-adv-x="1067" 
d="M715 145q116 -1 173.5 -59t57.5 -147q0 -140 -122.5 -234t-348.5 -94q-210 0 -303.5 59t-93.5 180q0 170 182 265q-88 38 -88 129q0 137 172 223q-100 74 -100 207q0 140 100.5 235t273.5 95q126 0 207 -58q38 86 100.5 128t161.5 50l3 -51q-88 -6 -144.5 -42.5
t-89.5 -110.5q70 -73 70 -183q0 -142 -99.5 -235.5t-275.5 -93.5q-104 0 -172 38q-90 -54 -122 -95t-32 -97q0 -57 42 -82t134 -25zM297 676q0 -106 69.5 -164.5t190.5 -58.5q142 0 228.5 74.5t86.5 207.5q0 105 -69.5 164t-188.5 59q-143 0 -230 -75t-87 -207zM483 -338
q195 0 299.5 77t104.5 189q0 77 -49.5 122.5t-141.5 45.5h-327q-40 0 -56 4q-80 -34 -129 -96t-49 -145q0 -46 17.5 -81t57 -62t108 -40.5t165.5 -13.5z" />
    <glyph glyph-name="h" unicode="h" horiz-adv-x="1157" 
d="M899 43q55 -6 150 -6l-11 -45q-54 -4 -106 -4q-58 0 -76 17t-12 69l59 528q39 348 -262 348q-147 0 -260.5 -105t-134.5 -241l-68 -604h-57l164 1454h57l-78 -688q57 106 159.5 172t235.5 66q179 0 253 -105.5t51 -298.5z" />
    <glyph glyph-name="i" unicode="i" horiz-adv-x="389" 
d="M244 1255q25 0 41 16.5t16 41.5q0 22 -12 35.5t-33 13.5q-22 0 -38.5 -17.5t-16.5 -41.5q0 -20 12 -34t31 -14zM135 43l109 940h-58l-100 -877q-6 -42 -6 -63q0 -30 18 -42.5t62 -12.5t94 4l6 45q-76 0 -125 6z" />
    <glyph glyph-name="j" unicode="j" horiz-adv-x="389" 
d="M332 1255q25 0 41 16.5t16 41.5q0 22 -12 35.5t-33 13.5q-22 0 -38.5 -17.5t-16.5 -41.5q0 -20 12 -34t31 -14zM330 983h-58l-137 -1212q-11 -109 -112 -109q-38 0 -82 21l-9 -52q40 -20 91 -20q151 0 170 164z" />
    <glyph glyph-name="k" unicode="k" horiz-adv-x="913" 
d="M477 561l252 -506q43 -18 143 -18l-8 -45q-40 -4 -90 -4q-44 0 -67 13t-41 50l-232 471l-221 -207l-35 -315h-57l164 1454h57l-121 -1067l645 604l62 -8z" />
    <glyph glyph-name="l" unicode="l" horiz-adv-x="425" 
d="M281 1454l-152 -1321q-8 -66 -8 -86q0 -31 22 -45t76 -14q59 0 105 6l8 43q-127 0 -154 14l160 1403h-57z" />
    <glyph glyph-name="m" unicode="m" horiz-adv-x="1806" 
d="M1542 43q62 -6 156 -6l-10 -45q-58 -4 -109 -4q-58 0 -76 17t-14 67l61 542q18 152 -40.5 244t-204.5 92q-68 0 -130.5 -31t-107.5 -80t-74.5 -108t-38.5 -117l-69 -614h-58l70 612q18 155 -40 246.5t-204 91.5q-91 0 -171.5 -56.5t-126 -134.5t-52.5 -153l-70 -606h-57
l105 918q-19 19 -44 23.5t-79 4.5l8 43q21 6 57 6q124 0 109 -127l-10 -88q53 99 142.5 161.5t201.5 62.5q132 0 204.5 -68.5t85.5 -187.5q49 111 144 183.5t217 72.5q166 0 238.5 -106t50.5 -294z" />
    <glyph glyph-name="n" unicode="n" horiz-adv-x="1218" 
d="M958 43q58 -6 152 -6l-10 -45q-58 -4 -107 -4q-57 0 -74.5 16.5t-13.5 65.5l60 532q39 348 -267 348q-146 0 -261.5 -109t-133.5 -243l-70 -598h-57l105 918q-19 19 -44 23.5t-79 4.5l8 43q21 6 57 6q123 0 111 -125l-12 -104q57 106 160.5 172t236.5 66
q179 0 252.5 -105.5t50.5 -298.5z" />
    <glyph glyph-name="o" unicode="o" horiz-adv-x="1126" 
d="M158 414q0 -208 105 -323.5t284 -115.5q108 0 200 40t159.5 114t106 185t38.5 247q0 209 -104 326t-283 117q-222 0 -364 -158.5t-142 -431.5zM217 418q0 244 122.5 388t317.5 144q156 0 246 -104t90 -289q0 -244 -121.5 -386t-318.5 -142q-156 0 -246 103t-90 286z" />
    <glyph glyph-name="p" unicode="p" horiz-adv-x="1114" 
d="M672 1004q179 0 272.5 -110t93.5 -312q0 -281 -136.5 -444t-395.5 -163q-170 0 -275 68l-47 -412h-57l147 1287q-18 18 -46 23t-76 5l6 43q18 6 59 6q53 0 84.5 -30.5t24.5 -100.5l-9 -67q50 94 141.5 150.5t213.5 56.5zM516 29q209 0 336 138.5t127 410.5
q0 182 -80.5 277t-234.5 95q-75 0 -141.5 -28.5t-112 -74.5t-75 -102.5t-38.5 -115.5l-59 -527q106 -73 278 -73z" />
    <glyph glyph-name="q" unicode="q" horiz-adv-x="1087" 
d="M678 1004q219 0 336 -93l-148 -1280h-57l61 541q-55 -88 -151 -142.5t-223 -54.5q-155 0 -246.5 107t-91.5 309q0 276 144 444.5t376 168.5zM514 29q147 0 248.5 85t122.5 185l65 584q-94 67 -276 67q-208 0 -332.5 -149.5t-124.5 -403.5q0 -183 80 -275.5t217 -92.5z
" />
    <glyph glyph-name="r" unicode="r" horiz-adv-x="620" 
d="M598 1004q44 0 66 -11l-13 -55q-24 8 -61 8q-61 0 -116.5 -42t-92 -105.5t-60.5 -128.5t-30 -119l-62 -551h-57l104 918q-16 18 -40.5 23t-77.5 5l8 43q18 6 61 6q48 0 78 -30.5t23 -98.5l-13 -106q51 112 125.5 178t157.5 66z" />
    <glyph glyph-name="s" unicode="s" horiz-adv-x="946" 
d="M510 1004q-93 0 -165 -24.5t-114.5 -66t-64 -92.5t-21.5 -108q0 -73 33.5 -122t87.5 -72.5t119 -39t130.5 -28.5t119.5 -33t87.5 -61.5t33.5 -104.5q0 -105 -76 -164t-254 -59q-210 0 -330 104l-16 -55q132 -103 342 -103q93 0 164 16.5t113 43t68.5 65.5t36 78.5
t9.5 87.5q0 70 -33.5 116.5t-87 69.5t-118.5 38t-130 28.5t-118.5 33t-87 60.5t-33.5 103q0 47 14.5 86t47 74t95 55t150.5 20q270 0 270 -200l60 10q0 23 -5.5 47t-18 53t-37.5 53.5t-60 45.5t-89.5 33t-121.5 12z" />
    <glyph glyph-name="t" unicode="t" horiz-adv-x="649" 
d="M348 934l-84 -739q-10 -96 21 -132t98 -36q78 0 156 32l-4 -51q-80 -33 -164 -33q-93 0 -135.5 46.5t-28.5 175.5l84 737h-174l6 49h174l33 287h57l-33 -287h326l-6 -49h-326z" />
    <glyph glyph-name="u" unicode="u" horiz-adv-x="1189" 
d="M920 45q66 -8 151 -8l-10 -45q-32 -4 -100 -4q-55 0 -78 22t-17 82l19 150q-67 -128 -177 -197.5t-253 -69.5q-159 0 -218 87t-36 292l63 564q-18 16 -42 22t-79 6l9 43q18 6 57 6q123 0 108 -121l-57 -509q-22 -182 25.5 -259t185.5 -77q94 0 174.5 37.5t133 97
t85 126.5t41.5 134l64 559h57z" />
    <glyph glyph-name="v" unicode="v" horiz-adv-x="899" 
d="M874 991l58 -8l-455 -983h-59l-240 926q-29 14 -129 14l6 45q42 6 72 6q53 0 79 -18t38 -68l213 -835z" />
    <glyph glyph-name="w" unicode="w" horiz-adv-x="1421" 
d="M1397 991l55 -8l-420 -983h-59l-170 901l-371 -901h-59l-193 926q-32 14 -131 14l6 45q36 6 78 6q53 0 79.5 -22t35.5 -72l162 -829l372 915h60l168 -915z" />
    <glyph glyph-name="x" unicode="x" horiz-adv-x="905" 
d="M520 492l246 -439q33 -16 121 -16l-10 -45q-15 -6 -72 -6q-66 0 -92 47l-234 428l-368 -461h-64l397 494l-254 436q-49 10 -122 10l6 45q30 6 78 6q37 0 59 -11t45 -50l229 -404l367 467l59 -10z" />
    <glyph glyph-name="y" unicode="y" horiz-adv-x="978" 
d="M952 991l60 -8l-609 -1208q-42 -85 -99.5 -124.5t-158.5 -39.5q-68 0 -116 24l6 56q58 -29 110 -29q78 0 124.5 25t86.5 106l103 207l-289 926q-29 14 -90 14l6 45q18 6 53 6q37 0 59.5 -19t37.5 -65l258 -835z" />
    <glyph glyph-name="z" unicode="z" horiz-adv-x="917" 
d="M909 930l-803 -879h703l-6 -51h-760l-4 53l803 879h-664l4 51h723z" />
    <glyph glyph-name="braceleft" unicode="{" horiz-adv-x="755" 
d="M590 1659h172l-6 -49h-172q-172 0 -172 -205q0 -77 32.5 -250t32.5 -250q0 -102 -37 -162.5t-123 -97.5q111 -54 111 -184q0 -68 -31.5 -158.5t-69 -165t-69 -164t-31.5 -155.5t33.5 -101.5t99.5 -35.5h175l-7 -50h-172q-97 0 -141.5 44.5t-44.5 131.5q0 61 21 131.5
t51 135t59.5 128t50.5 132t21 125.5q0 72 -39.5 115.5t-108.5 43.5h-39l4 23l3 31h38q88 0 140.5 62t52.5 167q0 77 -36 247.5t-36 252.5q0 127 56.5 192.5t181.5 65.5z" />
    <glyph glyph-name="bar" unicode="|" horiz-adv-x="612" 
d="M436 1659l-233 -2028h57l234 2028h-58z" />
    <glyph glyph-name="braceright" unicode="}" horiz-adv-x="837" 
d="M612 672h39l-2 -15l-4 -39h-39q-88 0 -140 -62t-52 -167q0 -77 35.5 -247.5t35.5 -252.5q0 -128 -56 -193t-181 -65h-172l6 50h172q172 0 172 204q0 77 -34 250t-34 250q0 101 37.5 162t122.5 98q-56 30 -82 73.5t-26 110.5q0 56 20.5 125t50 134l59 130t50 133t20.5 122
q0 66 -33.5 101.5t-99.5 35.5h-174l6 49h172q187 0 187 -176q0 -61 -21 -131.5t-51 -135t-59.5 -128t-50.5 -132t-21 -125.5q0 -72 39 -115.5t108 -43.5z" />
    <glyph glyph-name="asciitilde" unicode="~" horiz-adv-x="989" 
d="M889 766q-20 -88 -63 -133t-119 -45q-63 0 -186.5 37t-184.5 37q-101 0 -129 -136l-45 6q20 88 63 133.5t119 45.5q63 0 187.5 -37t185.5 -37q51 0 81.5 31.5t45.5 103.5z" />
    <glyph glyph-name="exclamdown" unicode="&#xa1;" horiz-adv-x="405" 
d="M254 891q33 0 53.5 21.5t20.5 56.5q0 26 -16 41.5t-42 15.5q-33 0 -53 -22.5t-20 -55.5q0 -27 15 -42t42 -15zM80 -369h63l111 1018h-51z" />
    <glyph glyph-name="cent" unicode="&#xa2;" horiz-adv-x="1087" 
d="M965 954l-58 -6q17 248 -227 264l-127 -946q56 1 108.5 12t84 22.5t70.5 36t49.5 33t39.5 31.5l10 -55q-32 -26 -57 -42.5t-71.5 -40.5t-107 -36.5t-132.5 -13.5l-29 -213h-53l29 215q-155 14 -243.5 123t-88.5 313q0 268 124 437t349 178l29 209h53l-29 -209
q137 -9 208 -81t71 -190q0 -31 -2 -41zM221 657q0 -181 73.5 -279t207.5 -110l127 944q-185 -8 -296.5 -159.5t-111.5 -395.5z" />
    <glyph glyph-name="sterling" unicode="&#xa3;" horiz-adv-x="1288" 
d="M866 1419q-152 0 -249.5 -91t-118.5 -273l-45 -396h462l-6 -53h-463l-61 -553h629l-6 -53h-846l6 53h156l63 553h-156l7 53h155l45 404q21 186 131.5 299t302.5 113q74 0 137.5 -18t92.5 -34.5t65 -42.5l-22 -53q-128 92 -279 92z" />
    <glyph glyph-name="currency" unicode="&#xa4;" horiz-adv-x="1488" 
d="M1219 788q0 -246 -170 -399l188 -235l-39 -33l-188 235q-135 -96 -299 -96q-159 0 -273 100l-250 -239l-26 33l244 239q-97 118 -97 285q0 251 172 403l-188 236l37 33l190 -236q135 96 299 96q160 0 271 -102l249 242l29 -33l-246 -242q97 -118 97 -287zM367 684
q0 -169 99 -270t251 -101q181 0 312.5 131.5t131.5 339.5q0 171 -97.5 272t-250.5 101q-89 0 -169.5 -33.5t-142 -93.5t-98 -150t-36.5 -196z" />
    <glyph glyph-name="yen" unicode="&#xa5;" horiz-adv-x="1214" 
d="M1208 1454l-532 -776h371l-5 -49h-372l-25 -217h371l-4 -50h-373l-41 -362h-61l41 362h-373l6 50h373l24 217h-372l6 49h372l-360 776h61l334 -727l498 727h61z" />
    <glyph glyph-name="brokenbar" unicode="&#xa6;" horiz-adv-x="577" 
d="M436 1659l-94 -819h57l95 819h-58zM297 451l-94 -820h57l94 820h-57z" />
    <glyph glyph-name="section" unicode="&#xa7;" horiz-adv-x="1224" 
d="M772 1464q-166 0 -269.5 -82t-103.5 -233q0 -75 37.5 -127.5t97.5 -81t132.5 -50.5t145 -43.5t132.5 -50.5t97.5 -82t37.5 -128q0 -250 -329 -330q60 -19 104 -39.5t83.5 -51.5t60 -76t20.5 -103q0 -160 -109 -249t-325 -89q-226 0 -381 127l14 59q152 -133 375 -133
q182 0 275.5 73.5t93.5 207.5q0 68 -38 116.5t-99.5 76.5t-135 50t-147.5 44.5t-135.5 52.5t-99.5 82.5t-38 125.5q0 70 28.5 126.5t79.5 95t108.5 63t127.5 41.5q-61 20 -104 41.5t-83.5 55.5t-61.5 83.5t-21 114.5q0 157 117 261t323 104q340 0 363 -304l-58 -12
q-14 135 -87 199.5t-228 64.5zM1022 584q0 46 -17.5 82t-46.5 59.5t-71 43t-85.5 33t-95.5 27.5q-13 3 -20 5q-55 -12 -97 -24t-94.5 -36.5t-86.5 -54.5t-58 -77.5t-24 -106.5q0 -46 19 -82.5t47.5 -60.5t74.5 -44.5t88 -33.5t100 -29q15 -4 23 -6q64 16 110.5 31.5t93 40.5
t75.5 56t47 76t18 101z" />
    <glyph glyph-name="dieresis" unicode="&#xa8;" horiz-adv-x="741" 
d="M248 1260q23 0 38 15t15 38q0 45 -41 45q-25 0 -40 -15t-15 -38q0 -45 43 -45zM483 1260q23 0 38.5 15t15.5 38q0 45 -41 45q-24 0 -40 -15t-16 -38q0 -21 12 -33t31 -12z" />
    <glyph glyph-name="copyright" unicode="&#xa9;" horiz-adv-x="2095" 
d="M121 549q0 -260 104.5 -450t288 -287t424.5 -97q143 0 275.5 33t247.5 95.5t210 157t162 212t104 266.5t37 316q0 260 -104.5 450t-288.5 286.5t-426 96.5q-173 0 -329 -45.5t-284.5 -136.5t-222.5 -219.5t-146 -302t-52 -375.5zM176 555q0 190 49.5 354t138 285.5
t210 208.5t267.5 130.5t308 43.5q227 0 400 -91.5t271.5 -271.5t98.5 -426q0 -237 -76.5 -431.5t-209 -322.5t-309.5 -197.5t-380 -69.5q-226 0 -398.5 91t-271 271t-98.5 426zM1370 346q-30 -25 -53 -41.5t-69 -41.5t-106.5 -38.5t-131.5 -13.5q-151 0 -237.5 96.5
t-86.5 280.5q0 245 117 395t309 150q134 0 202 -66t58 -199l58 6q2 10 2 39q0 126 -78.5 199.5t-231.5 73.5q-157 0 -270.5 -79.5t-169 -214t-55.5 -308.5q0 -212 101 -319t276 -107q74 0 135.5 12.5t110 37.5t71.5 40t59 43z" />
    <glyph glyph-name="ordfeminine" unicode="&#xaa;" horiz-adv-x="811" 
d="M739 811q41 -6 101 -6l-6 -39q-20 -2 -72 -2q-42 0 -57 18t-9 66l11 84q-47 -81 -124.5 -128.5t-170.5 -47.5q-87 0 -136 47t-49 127q0 110 74 173.5t221 63.5q121 0 207 -28l8 71q12 104 -33 163t-147 59q-180 0 -225 -166l-47 8q60 201 276 201q124 0 181 -68.5
t42 -194.5zM719 1059l2 -2l4 43q-109 28 -201 28q-130 0 -189 -52.5t-59 -143.5q0 -66 39 -100.5t113 -34.5q109 0 195.5 81t95.5 181z" />
    <glyph glyph-name="guillemotleft" unicode="&#xab;" horiz-adv-x="841" 
d="M535 891l-316 -313l258 -279l-37 -37l-278 309l2 17l338 340zM762 891l-313 -313l256 -279l-37 -37l-279 309l2 17l340 340z" />
    <glyph glyph-name="registered" unicode="&#xae;" horiz-adv-x="983" 
d="M664 1491q165 0 264.5 -98.5t99.5 -268.5q0 -142 -61 -249.5t-165.5 -163.5t-234.5 -56q-165 0 -264.5 98.5t-99.5 268.5q0 142 61 249.5t165.5 163.5t234.5 56zM571 692q85 0 159 27.5t131.5 79.5t90.5 136t33 189q0 159 -90.5 244.5t-237.5 85.5q-84 0 -158 -27.5
t-131.5 -79.5t-90.5 -136t-33 -189q0 -159 91 -244.5t236 -85.5zM799 1188q0 -67 -35 -108.5t-102 -51.5l57 -131q8 -19 23.5 -27t52.5 -8l-2 -26q-25 -5 -33 -5q-28 0 -43.5 8.5t-28.5 37.5l-67 149h-107l-22 -188h-41l49 442h-47l4 31h198q70 0 107 -32.5t37 -90.5z
M621 1059q137 0 137 125q0 96 -111 96h-104l-27 -221h105z" />
    <glyph glyph-name="macron" unicode="&#xaf;" horiz-adv-x="962" 
d="M211 1311l-6 -49h549l4 49h-547z" />
    <glyph glyph-name="degree" unicode="&#xb0;" horiz-adv-x="610" 
d="M397 991q113 0 184.5 72.5t71.5 189.5q0 91 -54.5 148t-145.5 57q-108 0 -179 -74.5t-71 -187.5q0 -91 52.5 -148t141.5 -57zM399 1036q-68 0 -107.5 44t-39.5 120q0 93 53.5 153t140.5 60q74 0 116 -44t42 -120q0 -97 -57 -155t-148 -58z" />
    <glyph glyph-name="plusminus" unicode="&#xb1;" horiz-adv-x="1040" 
d="M614 655h326l-6 -51h-324l-41 -360h-59l41 360h-324l4 51h326l41 359h57zM162 0l6 55h754l-9 -55h-751z" />
    <glyph glyph-name="acute" unicode="&#xb4;" horiz-adv-x="698" 
d="M426 1458l-221 -332h51l238 326z" />
    <glyph glyph-name="paragraph" unicode="&#xb6;" horiz-adv-x="1183" 
d="M674 719l69 622q8 75 -15 104.5t-97 29.5q-169 0 -278 -115.5t-109 -315.5q0 -157 93 -241t265 -84h72zM967 1475q-46 0 -69.5 -20.5t-27.5 -65.5l-182 -1594h64l184 1624h164l4 43q-76 13 -137 13z" />
    <glyph glyph-name="periodcentered" unicode="&#xb7;" horiz-adv-x="370" 
d="M217 541q33 0 54.5 21t21.5 56q0 26 -15.5 42t-41.5 16q-33 0 -53.5 -22.5t-20.5 -55.5q0 -27 15 -42t40 -15z" />
    <glyph glyph-name="cedilla" unicode="&#xb8;" horiz-adv-x="669" 
d="M322 -76l24 84h-39l-35 -119q76 0 108 -19t32 -63q0 -149 -193 -149l-14 -47q260 0 260 201q0 112 -143 112z" />
    <glyph glyph-name="ordmasculine" unicode="&#xba;" horiz-adv-x="858" 
d="M246 1061q0 -144 72.5 -224.5t195.5 -80.5q155 0 253.5 110t98.5 301q0 145 -73 226.5t-197 81.5q-153 0 -251.5 -111t-98.5 -303zM297 1065q0 168 81.5 266.5t213.5 98.5q103 0 162 -70.5t59 -196.5q0 -168 -80.5 -265t-212.5 -97q-105 0 -164 69.5t-59 194.5z" />
    <glyph glyph-name="guillemotright" unicode="&#xbb;" horiz-adv-x="921" 
d="M553 629l-2 -17l-340 -340l-31 37l314 314l-256 278l36 37zM504 938l278 -309l-2 -15l-340 -342l-30 37l315 314l-258 278z" />
    <glyph glyph-name="onequarter" unicode="&#xbc;" horiz-adv-x="1624" 
d="M1501 1475l58 -5l-1192 -1495l-60 5zM596 1415q-32 -21 -120.5 -55.5t-153.5 -54.5l-5 43q189 59 287 118h49l-84 -741h152l-6 -41h-389l6 41h186zM1450 782l-57 -489h139l-4 -43h-142l-26 -250h-49l28 250h-393l-4 37l463 495h45zM1343 293l50 420l-396 -420h346z" />
    <glyph glyph-name="onehalf" unicode="&#xbd;" horiz-adv-x="1683" 
d="M1503 1475l58 -5l-1192 -1495l-60 5zM598 1415q-34 -21 -122.5 -55.5t-153.5 -54.5l-5 43q189 59 287 118h51l-84 -741h150l-6 -41h-389l6 41h186zM1610 586q0 -61 -25.5 -112t-67.5 -86.5t-92.5 -66.5t-103.5 -60t-98.5 -59t-78.5 -71.5t-42 -89.5h463l-6 -41h-510l2 25
q7 59 39.5 108t77.5 82.5t98 64t104.5 60t94 63t68.5 80.5t26 105q0 82 -47 122t-148 40q-152 0 -207 -125l-47 10q71 160 264 160q119 0 177.5 -56.5t58.5 -152.5z" />
    <glyph glyph-name="threequarters" unicode="&#xbe;" horiz-adv-x="1585" 
d="M766 909q0 -105 -77 -173t-210 -68q-96 0 -151 33.5t-72 105.5l43 14q27 -112 186 -112q102 0 168 52t66 144q0 75 -55 118.5t-140 43.5h-69l4 41h69q84 0 145.5 48t61.5 136q0 65 -41.5 103.5t-128.5 38.5q-159 0 -200 -119l-41 8q26 75 90 113.5t155 38.5
q108 0 159.5 -48t51.5 -131q0 -80 -44.5 -131.5t-119.5 -74.5q150 -42 150 -181zM1495 1475l59 -5l-1192 -1495l-61 5zM1411 782l-57 -489h141l-6 -43h-139l-29 -250h-47l26 250h-391l-6 37l463 495h45zM1307 293l47 420l-396 -420h349z" />
    <glyph glyph-name="questiondown" unicode="&#xbf;" horiz-adv-x="841" 
d="M489 891q33 0 53.5 21.5t20.5 56.5q0 26 -15.5 41.5t-41.5 15.5q-33 0 -53.5 -22.5t-20.5 -55.5q0 -27 15 -42t42 -15zM680 -168l-45 16q-32 -64 -63 -100.5t-88 -60t-142 -23.5q-118 0 -182 68.5t-64 187.5q0 73 21.5 137.5t54 111.5t85.5 93t100 77t114 69l21 254h-48
l-36 -238q-119 -69 -178 -119q-190 -162 -191 -391q0 -145 80 -224t217 -79q74 0 129.5 14.5t95 46t66 68t53.5 92.5z" />
    <glyph glyph-name="Agrave" unicode="&#xc0;" horiz-adv-x="1327" 
d="M760 1520l-53 -4l-125 204l69 15zM1155 47q31 -10 143 -10l-10 -43q-33 -10 -92 -10q-48 0 -70 14t-32 57l-113 406h-729l-232 -461h-63l735 1448l70 16zM279 514h688l-244 887z" />
    <glyph glyph-name="Aacute" unicode="&#xc1;" horiz-adv-x="1327" 
d="M930 1720l-174 -204l-49 4l155 215zM1155 47q31 -10 143 -10l-10 -43q-33 -10 -92 -10q-48 0 -70 14t-32 57l-113 406h-729l-232 -461h-63l735 1448l70 16zM279 514h688l-244 887z" />
    <glyph glyph-name="Acircumflex" unicode="&#xc2;" horiz-adv-x="1327" 
d="M760 1702l-195 -182l-51 10l223 211h51l177 -211l-56 -10zM1155 47q31 -10 143 -10l-10 -43q-33 -10 -92 -10q-48 0 -70 14t-32 57l-113 406h-729l-232 -461h-63l735 1448l70 16zM279 514h688l-244 887z" />
    <glyph glyph-name="Atilde" unicode="&#xc3;" horiz-adv-x="1327" 
d="M639 1628q-34 0 -54 -23t-32 -81l-39 6q27 145 129 145q41 0 112 -23.5t105 -23.5q33 0 53.5 23t32.5 80l39 -5q-14 -76 -43 -111.5t-86 -35.5q-41 0 -111.5 24.5t-105.5 24.5zM1155 47q31 -10 143 -10l-10 -43q-33 -10 -92 -10q-48 0 -70 14t-32 57l-113 406h-729
l-232 -461h-63l735 1448l70 16zM279 514h688l-244 887z" />
    <glyph glyph-name="Adieresis" unicode="&#xc4;" horiz-adv-x="1327" 
d="M627 1573q-16 0 -26.5 11t-10.5 30q0 22 13.5 35.5t33.5 13.5q41 0 41 -41q0 -23 -14.5 -36t-36.5 -13zM858 1573q-16 0 -26.5 11t-10.5 30q0 22 13.5 35.5t33.5 13.5q39 0 39 -41q0 -23 -13.5 -36t-35.5 -13zM1155 47q31 -10 143 -10l-10 -43q-33 -10 -92 -10
q-48 0 -70 14t-32 57l-113 406h-729l-232 -461h-63l735 1448l70 16zM279 514h688l-244 887z" />
    <glyph glyph-name="Aring" unicode="&#xc5;" horiz-adv-x="1327" 
d="M735 1497q-55 0 -87 34.5t-32 92.5q0 73 42 118.5t110 45.5q57 0 89 -34t32 -93q0 -72 -42.5 -118t-111.5 -46zM766 1753q-49 0 -80 -34.5t-31 -90.5q0 -44 23 -70t61 -26q50 0 80.5 35t30.5 92q0 43 -22.5 68.5t-61.5 25.5zM1155 47q31 -10 143 -10l-10 -43
q-33 -10 -92 -10q-48 0 -70 14t-32 57l-113 406h-729l-232 -461h-63l735 1448l70 16zM279 514h688l-244 887z" />
    <glyph glyph-name="AE" unicode="&#xc6;" horiz-adv-x="1984" 
d="M1888 1401h-702l-72 -643h649l-4 -53h-651l-76 -652h713l-6 -53h-774l79 705h-546l-408 -705h-61l841 1454h1035zM528 758h523l73 643h-225z" />
    <glyph glyph-name="Ccedilla" unicode="&#xc7;" horiz-adv-x="1349" 
d="M836 1475q232 0 354.5 -104.5t122.5 -266.5q0 -27 -4 -55l-64 -7q16 174 -86.5 276.5t-320.5 102.5q-141 0 -261 -54t-208 -154.5t-137.5 -254t-49.5 -342.5q0 -275 143.5 -430t393.5 -155q287 0 465 131l10 -51q-26 -20 -60.5 -39t-93 -43t-143 -38.5t-180.5 -15.5
l-15 -51q144 0 144 -112q0 -201 -260 -201l14 47q193 0 193 149q0 44 -32 63t-108 19l25 86q-259 11 -408 177t-149 458q0 200 53.5 363.5t148 273t226 169t287.5 59.5z" />
    <glyph glyph-name="Egrave" unicode="&#xc8;" horiz-adv-x="1089" 
d="M756 1520l-54 -4l-124 204l69 15zM1128 1401h-766l-73 -643h717l-7 -53h-716l-74 -652h776l-8 -53h-836l164 1454h838z" />
    <glyph glyph-name="Eacute" unicode="&#xc9;" horiz-adv-x="1089" 
d="M926 1720l-174 -204l-50 4l156 215zM1128 1401h-766l-73 -643h717l-7 -53h-716l-74 -652h776l-8 -53h-836l164 1454h838z" />
    <glyph glyph-name="Ecircumflex" unicode="&#xca;" horiz-adv-x="1089" 
d="M756 1702l-195 -182l-51 10l223 211h51l177 -211l-56 -10zM1128 1401h-766l-73 -643h717l-7 -53h-716l-74 -652h776l-8 -53h-836l164 1454h838z" />
    <glyph glyph-name="Edieresis" unicode="&#xcb;" horiz-adv-x="1089" 
d="M623 1573q-16 0 -26.5 11t-10.5 30q0 22 13.5 35.5t33.5 13.5q41 0 41 -41q0 -23 -14.5 -36t-36.5 -13zM854 1573q-16 0 -26.5 11t-10.5 30q0 22 13.5 35.5t33.5 13.5q39 0 39 -41q0 -23 -13.5 -36t-35.5 -13zM1128 1401h-766l-73 -643h717l-7 -53h-716l-74 -652h776
l-8 -53h-836l164 1454h838z" />
    <glyph glyph-name="Igrave" unicode="&#xcc;" horiz-adv-x="448" 
d="M260 1735l109 -215l-54 -4l-125 204zM307 1454l-166 -1454h62l166 1454h-62z" />
    <glyph glyph-name="Iacute" unicode="&#xcd;" horiz-adv-x="448" 
d="M469 1735l-156 -215l49 -4l175 204zM307 1454l-166 -1454h62l166 1454h-62z" />
    <glyph glyph-name="Icircumflex" unicode="&#xce;" horiz-adv-x="448" 
d="M397 1741l176 -211l-55 -10l-149 182l-195 -182l-51 10l223 211h51zM141 0l166 1454h62l-166 -1454h-62z" />
    <glyph glyph-name="Idieresis" unicode="&#xcf;" horiz-adv-x="448" 
d="M236 1573q22 0 36.5 13t14.5 36q0 41 -41 41q-20 0 -33.5 -13.5t-13.5 -35.5q0 -19 10.5 -30t26.5 -11zM467 1573q22 0 35.5 13t13.5 36q0 41 -39 41q-20 0 -33.5 -13.5t-13.5 -35.5q0 -19 10.5 -30t26.5 -11zM307 1454l-166 -1454h62l166 1454h-62z" />
    <glyph glyph-name="Eth" unicode="&#xd0;" horiz-adv-x="1476" 
d="M698 1475q165 0 293 -50.5t206.5 -141t118.5 -207.5t40 -257q0 -137 -32.5 -259.5t-99.5 -225t-162 -177t-227.5 -116t-289.5 -41.5h-395l77 692h-159l6 49h159l76 660h-168l4 43q54 14 144 14q51 0 69 -18q148 35 340 35zM549 55q151 0 275.5 40t210.5 110.5t145 167
t86.5 207.5t27.5 235q0 126 -34.5 232.5t-105 191t-189 132.5t-273.5 48q-176 0 -321 -22l-76 -656h289l-4 -49h-289l-74 -637h332z" />
    <glyph glyph-name="Ntilde" unicode="&#xd1;" horiz-adv-x="1435" 
d="M760 1628q-34 0 -54 -23t-32 -81l-39 6q27 145 129 145q41 0 112 -23.5t105 -23.5q33 0 53.5 23t32.5 80l39 -5q-14 -76 -43 -111.5t-86 -35.5q-41 0 -111.5 24.5t-105.5 24.5zM1294 1454h62l-164 -1454h-55l-781 1352l-153 -1352h-62l164 1448l60 16l778 -1353z" />
    <glyph glyph-name="Ograve" unicode="&#xd2;" 
d="M791 1735l108 -215l-53 -4l-125 204zM702 -25q222 0 394.5 113t264 305.5t91.5 429.5q0 190 -66 336t-199 231t-315 85q-167 0 -308.5 -66t-238 -180t-150.5 -269.5t-54 -332.5q0 -190 66 -336t199 -231t316 -85zM709 31q-248 0 -387.5 163.5t-139.5 436.5q0 169 50 315
t139 250t217 163.5t278 59.5q247 0 386 -163.5t139 -434.5q0 -227 -85 -406.5t-241 -281.5t-356 -102z" />
    <glyph glyph-name="Oacute" unicode="&#xd3;" 
d="M1001 1735l-155 -215l49 -4l174 204zM702 -25q222 0 394.5 113t264 305.5t91.5 429.5q0 190 -66 336t-199 231t-315 85q-167 0 -308.5 -66t-238 -180t-150.5 -269.5t-54 -332.5q0 -190 66 -336t199 -231t316 -85zM709 31q-248 0 -387.5 163.5t-139.5 436.5q0 169 50 315
t139 250t217 163.5t278 59.5q247 0 386 -163.5t139 -434.5q0 -227 -85 -406.5t-241 -281.5t-356 -102z" />
    <glyph glyph-name="Ocircumflex" unicode="&#xd4;" 
d="M899 1702l-194 -182l-52 10l224 211h51l176 -211l-55 -10zM872 1475q182 0 315 -85t199 -231t66 -336q0 -237 -91.5 -429.5t-264 -305.5t-394.5 -113q-183 0 -316 85t-199 231t-66 336q0 177 54 332.5t150.5 269.5t238 180t308.5 66zM709 31q200 0 356 102t241 281.5
t85 406.5q0 271 -139 434.5t-386 163.5q-150 0 -278 -59.5t-217 -163.5t-139 -250t-50 -315q0 -273 139.5 -436.5t387.5 -163.5z" />
    <glyph glyph-name="Otilde" unicode="&#xd5;" 
d="M1124 1726q-14 -76 -43 -111.5t-86 -35.5q-41 0 -111.5 24.5t-105.5 24.5q-34 0 -54 -23t-32 -81l-39 6q27 145 129 145q41 0 112 -23.5t105 -23.5q33 0 53.5 23t32.5 80zM702 -25q222 0 394.5 113t264 305.5t91.5 429.5q0 190 -66 336t-199 231t-315 85
q-167 0 -308.5 -66t-238 -180t-150.5 -269.5t-54 -332.5q0 -190 66 -336t199 -231t316 -85zM709 31q-248 0 -387.5 163.5t-139.5 436.5q0 169 50 315t139 250t217 163.5t278 59.5q247 0 386 -163.5t139 -434.5q0 -227 -85 -406.5t-241 -281.5t-356 -102z" />
    <glyph glyph-name="Odieresis" unicode="&#xd6;" 
d="M766 1573q22 0 36.5 13t14.5 36q0 41 -41 41q-20 0 -33.5 -13.5t-13.5 -35.5q0 -19 10.5 -30t26.5 -11zM997 1573q22 0 36 13t14 36q0 41 -39 41q-20 0 -33.5 -13.5t-13.5 -35.5q0 -20 10 -30.5t26 -10.5zM702 -25q222 0 394.5 113t264 305.5t91.5 429.5q0 190 -66 336
t-199 231t-315 85q-167 0 -308.5 -66t-238 -180t-150.5 -269.5t-54 -332.5q0 -190 66 -336t199 -231t316 -85zM709 31q-248 0 -387.5 163.5t-139.5 436.5q0 169 50 315t139 250t217 163.5t278 59.5q247 0 386 -163.5t139 -434.5q0 -227 -85 -406.5t-241 -281.5t-356 -102z
" />
    <glyph glyph-name="multiply" unicode="&#xd7;" horiz-adv-x="974" 
d="M877 952l-322 -305l252 -301l-41 -35l-250 299l-319 -299l-35 35l321 303l-254 303l39 35l254 -301l318 301z" />
    <glyph glyph-name="Oslash" unicode="&#xd8;" 
d="M1278 1317q174 -177 174 -494q0 -237 -91.5 -429.5t-264 -305.5t-394.5 -113q-223 0 -370 125l-137 -176l-54 10l154 199q-174 177 -174 494q0 177 54 332.5t150.5 269.5t238 180t308.5 66q225 0 369 -125l137 176l54 -10zM182 631q0 -285 150 -451l874 1123
q-131 116 -340 116q-150 0 -278 -59.5t-217 -163.5t-139 -250t-50 -315zM709 31q200 0 356 102t241 281.5t85 406.5q0 283 -150 449l-874 -1123q131 -116 342 -116z" />
    <glyph glyph-name="Ugrave" unicode="&#xd9;" horiz-adv-x="1402" 
d="M729 1735l109 -215l-54 -4l-125 204zM1346 1454h-64l-102 -907q-30 -257 -159.5 -387.5t-367.5 -130.5q-243 0 -337 126t-64 390l94 827q5 46 -13 66t-65 20q-61 0 -143 -12l-4 -43h168l-96 -844q-34 -299 74.5 -441.5t377.5 -142.5q268 0 414.5 138t181.5 434z" />
    <glyph glyph-name="Uacute" unicode="&#xda;" horiz-adv-x="1402" 
d="M938 1735l-156 -215l49 -4l175 204zM1346 1454h-64l-102 -907q-30 -257 -159.5 -387.5t-367.5 -130.5q-243 0 -337 126t-64 390l94 827q5 46 -13 66t-65 20q-61 0 -143 -12l-4 -43h168l-96 -844q-34 -299 74.5 -441.5t377.5 -142.5q268 0 414.5 138t181.5 434z" />
    <glyph glyph-name="Ucircumflex" unicode="&#xdb;" horiz-adv-x="1402" 
d="M838 1702l-195 -182l-51 10l223 211h51l176 -211l-55 -10zM1282 1454h64l-105 -907q-35 -296 -181.5 -434t-414.5 -138q-269 0 -377.5 142.5t-74.5 441.5l96 844h-168l4 43q82 12 143 12q47 0 65 -20t13 -66l-94 -827q-30 -264 64 -390t337 -126q238 0 367.5 130.5
t159.5 387.5z" />
    <glyph glyph-name="Udieresis" unicode="&#xdc;" horiz-adv-x="1402" 
d="M702 1573q22 0 37 13t15 36q0 41 -41 41q-20 0 -33.5 -13.5t-13.5 -35.5q0 -20 10 -30.5t26 -10.5zM934 1573q22 0 35.5 13t13.5 36q0 41 -39 41q-20 0 -33.5 -13.5t-13.5 -35.5q0 -19 10.5 -30t26.5 -11zM1346 1454h-64l-102 -907q-30 -257 -159.5 -387.5t-367.5 -130.5
q-243 0 -337 126t-64 390l94 827q5 46 -13 66t-65 20q-61 0 -143 -12l-4 -43h168l-96 -844q-34 -299 74.5 -441.5t377.5 -142.5q268 0 414.5 138t181.5 434z" />
    <glyph glyph-name="Yacute" unicode="&#xdd;" horiz-adv-x="1116" 
d="M881 1720l-174 -204l-50 4l156 215zM1124 1464l58 -16l-564 -838l-69 -610h-62l70 610l-371 791h-143l4 45q54 12 103 12q51 0 69 -13t43 -67l330 -714z" />
    <glyph glyph-name="Thorn" unicode="&#xde;" horiz-adv-x="1140" 
d="M582 1171q211 0 324.5 -90.5t113.5 -273.5q0 -245 -139.5 -362t-395.5 -117h-245l-37 -328h-62l164 1454h64l-33 -283h246zM492 381q233 0 349.5 99.5t116.5 324.5q0 164 -96.5 238.5t-286.5 74.5h-245l-84 -737h246z" />
    <glyph glyph-name="germandbls" unicode="&#xdf;" horiz-adv-x="1050" 
d="M606 670q0 -27 27.5 -53t68.5 -47t88.5 -51t88.5 -62.5t68.5 -84.5t27.5 -114q0 -136 -80.5 -209.5t-241.5 -73.5q-94 0 -159.5 22.5t-100.5 51.5l10 55q96 -79 254 -79q267 0 267 229q0 49 -20.5 90.5t-53.5 70.5t-72.5 54t-79.5 46.5t-73 43t-53.5 49t-20.5 58.5
q0 39 38 105.5t83 130.5t83 151.5t38 163.5q0 95 -50.5 150.5t-160.5 55.5q-114 0 -185.5 -72t-89.5 -223l-127 -1128h-59l129 1137q18 166 107 252t231 86q74 0 127.5 -20.5t82.5 -57t42.5 -78t13.5 -90.5q0 -73 -25.5 -146t-62 -130t-73 -108t-62 -96.5t-25.5 -78.5z" />
    <glyph glyph-name="agrave" unicode="&#xe0;" horiz-adv-x="1128" 
d="M662 1126h-52l-161 326l67 6zM872 45q78 -8 148 -8l-6 -45q-33 -4 -107 -4q-53 0 -73.5 22.5t-14.5 77.5l19 150q-68 -121 -181 -192t-251 -71q-127 0 -198 67t-71 185q0 153 105.5 243.5t308.5 90.5q169 0 317 -39l13 105q18 154 -49 239.5t-220 85.5q-271 0 -336 -245
l-57 10q22 67 51.5 116.5t75.5 89.5t114 60.5t158 20.5q179 0 260 -97t60 -278zM420 27q109 0 206 55.5t156 140t74 176.5l8 74q-139 39 -313 39q-183 0 -269.5 -75t-86.5 -208q0 -96 59.5 -149t165.5 -53z" />
    <glyph glyph-name="aacute" unicode="&#xe1;" horiz-adv-x="1128" 
d="M881 1452l-238 -326h-51l221 332zM872 45q78 -8 148 -8l-6 -45q-33 -4 -107 -4q-53 0 -73.5 22.5t-14.5 77.5l19 150q-68 -121 -181 -192t-251 -71q-127 0 -198 67t-71 185q0 153 105.5 243.5t308.5 90.5q169 0 317 -39l13 105q18 154 -49 239.5t-220 85.5
q-271 0 -336 -245l-57 10q22 67 51.5 116.5t75.5 89.5t114 60.5t158 20.5q179 0 260 -97t60 -278zM420 27q109 0 206 55.5t156 140t74 176.5l8 74q-139 39 -313 39q-183 0 -269.5 -75t-86.5 -208q0 -96 59.5 -149t165.5 -53z" />
    <glyph glyph-name="acircumflex" unicode="&#xe2;" horiz-adv-x="1128" 
d="M668 1427l-242 -276l-53 4l272 313h51l201 -313l-53 -4zM872 45q78 -8 148 -8l-6 -45q-33 -4 -107 -4q-53 0 -73.5 22.5t-14.5 77.5l19 150q-68 -121 -181 -192t-251 -71q-127 0 -198 67t-71 185q0 153 105.5 243.5t308.5 90.5q169 0 317 -39l13 105q18 154 -49 239.5
t-220 85.5q-271 0 -336 -245l-57 10q22 67 51.5 116.5t75.5 89.5t114 60.5t158 20.5q179 0 260 -97t60 -278zM420 27q109 0 206 55.5t156 140t74 176.5l8 74q-139 39 -313 39q-183 0 -269.5 -75t-86.5 -208q0 -96 59.5 -149t165.5 -53z" />
    <glyph glyph-name="atilde" unicode="&#xe3;" horiz-adv-x="1128" 
d="M492 1348q-49 0 -78 -36.5t-45 -111.5l-41 6q33 187 170 187q38 0 78 -15.5t68.5 -34t67.5 -34t76 -15.5q47 0 76.5 34.5t46.5 115.5l41 -4q-34 -191 -168 -191q-58 0 -150 49.5t-142 49.5zM872 45q78 -8 148 -8l-6 -45q-33 -4 -107 -4q-53 0 -73.5 22.5t-14.5 77.5
l19 150q-68 -121 -181 -192t-251 -71q-127 0 -198 67t-71 185q0 153 105.5 243.5t308.5 90.5q169 0 317 -39l13 105q18 154 -49 239.5t-220 85.5q-271 0 -336 -245l-57 10q22 67 51.5 116.5t75.5 89.5t114 60.5t158 20.5q179 0 260 -97t60 -278zM420 27q109 0 206 55.5
t156 140t74 176.5l8 74q-139 39 -313 39q-183 0 -269.5 -75t-86.5 -208q0 -96 59.5 -149t165.5 -53z" />
    <glyph glyph-name="adieresis" unicode="&#xe4;" horiz-adv-x="1128" 
d="M528 1260q-43 0 -43 45q0 23 15.5 38t40.5 15q41 0 41 -45q0 -23 -15.5 -38t-38.5 -15zM764 1260q-19 0 -31 12t-12 33q0 23 16 38t39 15q41 0 41 -45q0 -23 -15 -38t-38 -15zM872 45q78 -8 148 -8l-6 -45q-33 -4 -107 -4q-53 0 -73.5 22.5t-14.5 77.5l19 150
q-68 -121 -181 -192t-251 -71q-127 0 -198 67t-71 185q0 153 105.5 243.5t308.5 90.5q169 0 317 -39l13 105q18 154 -49 239.5t-220 85.5q-271 0 -336 -245l-57 10q22 67 51.5 116.5t75.5 89.5t114 60.5t158 20.5q179 0 260 -97t60 -278zM420 27q109 0 206 55.5t156 140
t74 176.5l8 74q-139 39 -313 39q-183 0 -269.5 -75t-86.5 -208q0 -96 59.5 -149t165.5 -53z" />
    <glyph glyph-name="aring" unicode="&#xe5;" horiz-adv-x="1128" 
d="M631 1128q-72 0 -111 42.5t-39 111.5q0 84 51.5 139.5t139.5 55.5q71 0 110 -42t39 -110q0 -86 -51.5 -141.5t-138.5 -55.5zM666 1442q-69 0 -106.5 -44.5t-37.5 -111.5q0 -55 28.5 -89t84.5 -34q71 0 108 45.5t37 112.5q0 54 -28.5 87.5t-85.5 33.5zM872 45
q78 -8 148 -8l-6 -45q-33 -4 -107 -4q-53 0 -73.5 22.5t-14.5 77.5l19 150q-68 -121 -181 -192t-251 -71q-127 0 -198 67t-71 185q0 153 105.5 243.5t308.5 90.5q169 0 317 -39l13 105q18 154 -49 239.5t-220 85.5q-271 0 -336 -245l-57 10q22 67 51.5 116.5t75.5 89.5
t114 60.5t158 20.5q179 0 260 -97t60 -278zM420 27q109 0 206 55.5t156 140t74 176.5l8 74q-139 39 -313 39q-183 0 -269.5 -75t-86.5 -208q0 -96 59.5 -149t165.5 -53z" />
    <glyph glyph-name="ae" unicode="&#xe6;" horiz-adv-x="1751" 
d="M1348 1004q162 0 245.5 -104t83.5 -275q0 -35 -12 -146h-727q-2 -25 -2 -76q0 -374 338 -374q111 0 198 35t121 67l11 -51q-45 -40 -136.5 -72.5t-205.5 -32.5q-159 0 -254 78.5t-121 231.5q-56 -144 -183 -227t-276 -83q-127 0 -198.5 68t-71.5 184q0 153 107 243.5
t315 90.5q157 0 305 -39l10 105q19 153 -48 239t-216 86q-140 0 -220.5 -61t-113.5 -184l-57 10q45 138 137 212.5t260 74.5q140 0 220 -64t95 -184q60 119 163 183.5t233 64.5zM944 528h670v2q26 195 -51.5 307.5t-221.5 112.5q-154 0 -262 -108.5t-135 -313.5zM436 27
q112 0 209.5 56t155 143t69.5 184l9 65q-151 37 -301 37q-363 0 -363 -285q0 -95 59 -147.5t162 -52.5z" />
    <glyph glyph-name="ccedilla" unicode="&#xe7;" horiz-adv-x="1038" 
d="M961 692l-56 -6q9 134 -58.5 199t-201.5 65q-192 0 -309 -149.5t-117 -394.5q0 -184 86 -280.5t238 -96.5q57 0 110 10.5t86.5 23t72 35.5t51.5 33.5t40 32.5l8 -55q-34 -27 -57.5 -43t-71.5 -41t-109.5 -37.5t-135.5 -12.5l-15 -51q144 0 144 -112q0 -201 -260 -201
l14 47q192 0 192 149q0 44 -31.5 63t-107.5 19l25 88q-158 11 -249 118t-91 306q0 174 56.5 309t170 214.5t268.5 79.5q153 0 231.5 -73.5t80.5 -199.5q0 -19 -4 -39z" />
    <glyph glyph-name="egrave" unicode="&#xe8;" horiz-adv-x="1030" 
d="M668 1126h-52l-161 326l67 6zM627 1004q162 0 245.5 -104t83.5 -275q0 -35 -12 -146h-727q-2 -25 -2 -76q0 -374 338 -374q111 0 198 35t121 67l11 -51q-45 -40 -136.5 -72.5t-205.5 -32.5q-187 0 -285 107.5t-98 318.5q0 278 128.5 440.5t340.5 162.5zM223 528h670v2
q26 195 -51.5 307.5t-220.5 112.5q-153 0 -262 -108.5t-136 -313.5z" />
    <glyph glyph-name="eacute" unicode="&#xe9;" horiz-adv-x="1030" 
d="M887 1452l-238 -326h-51l221 332zM627 1004q162 0 245.5 -104t83.5 -275q0 -35 -12 -146h-727q-2 -25 -2 -76q0 -374 338 -374q111 0 198 35t121 67l11 -51q-45 -40 -136.5 -72.5t-205.5 -32.5q-187 0 -285 107.5t-98 318.5q0 278 128.5 440.5t340.5 162.5zM223 528h670
v2q26 195 -51.5 307.5t-220.5 112.5q-153 0 -262 -108.5t-136 -313.5z" />
    <glyph glyph-name="ecircumflex" unicode="&#xea;" horiz-adv-x="1030" 
d="M674 1427l-242 -276l-53 4l272 313h51l201 -313l-53 -4zM627 1004q162 0 245.5 -104t83.5 -275q0 -35 -12 -146h-727q-2 -25 -2 -76q0 -374 338 -374q111 0 198 35t121 67l11 -51q-45 -40 -136.5 -72.5t-205.5 -32.5q-187 0 -285 107.5t-98 318.5q0 278 128.5 440.5
t340.5 162.5zM223 528h670v2q26 195 -51.5 307.5t-220.5 112.5q-153 0 -262 -108.5t-136 -313.5z" />
    <glyph glyph-name="edieresis" unicode="&#xeb;" horiz-adv-x="1030" 
d="M535 1260q-43 0 -43 45q0 23 15 38t40 15q41 0 41 -45q0 -23 -15 -38t-38 -15zM770 1260q-19 0 -31 12t-12 33q0 23 16 38t39 15q41 0 41 -45q0 -23 -15 -38t-38 -15zM627 1004q162 0 245.5 -104t83.5 -275q0 -35 -12 -146h-727q-2 -25 -2 -76q0 -374 338 -374
q111 0 198 35t121 67l11 -51q-45 -40 -136.5 -72.5t-205.5 -32.5q-187 0 -285 107.5t-98 318.5q0 278 128.5 440.5t340.5 162.5zM223 528h670v2q26 195 -51.5 307.5t-220.5 112.5q-153 0 -262 -108.5t-136 -313.5z" />
    <glyph glyph-name="igrave" unicode="&#xec;" horiz-adv-x="389" 
d="M115 1458l-68 -6l162 -326h51zM135 43l109 940h-58l-100 -877q-6 -42 -6 -63q0 -30 18 -42.5t62 -12.5t94 4l6 45q-76 0 -125 6z" />
    <glyph glyph-name="iacute" unicode="&#xed;" horiz-adv-x="389" 
d="M412 1458l-222 -332h52l237 326zM135 43l109 940h-58l-100 -877q-6 -42 -6 -63q0 -30 18 -42.5t62 -12.5t94 4l6 45q-76 0 -125 6z" />
    <glyph glyph-name="icircumflex" unicode="&#xee;" horiz-adv-x="389" 
d="M496 1155l-54 -4l-176 276l-241 -276l-54 4l273 313h51zM244 983l-109 -940q49 -6 125 -6l-6 -45q-50 -4 -94 -4t-62 12.5t-18 42.5q0 21 6 63l100 877h58z" />
    <glyph glyph-name="idieresis" unicode="&#xef;" horiz-adv-x="389" 
d="M127 1260q23 0 38 15t15 38q0 45 -41 45q-25 0 -40 -15t-15 -38q0 -45 43 -45zM362 1260q23 0 38.5 15t15.5 38q0 45 -41 45q-24 0 -40 -15t-16 -38q0 -21 12 -33t31 -12zM135 43l109 940h-58l-100 -877q-6 -42 -6 -63q0 -30 18 -42.5t62 -12.5t94 4l6 45q-76 0 -125 6z
" />
    <glyph glyph-name="eth" unicode="&#xf0;" horiz-adv-x="1185" 
d="M1110 1389l-227 -101q176 -201 176 -600q0 -171 -30 -300.5t-77.5 -206.5t-116.5 -125t-137 -64.5t-149 -16.5q-180 0 -285.5 113.5t-105.5 312.5q0 257 141 409.5t360 152.5q235 0 340 -211q-16 343 -174 512l-397 -174l-6 47l369 161q-146 127 -388 127l15 50
q272 0 430 -152l258 113zM555 29q93 0 171 33t138.5 98t94.5 172t34 246q0 57 -22.5 114t-64 106t-108 80t-145.5 31q-192 0 -314 -138t-122 -365q0 -176 90.5 -276.5t247.5 -100.5z" />
    <glyph glyph-name="ntilde" unicode="&#xf1;" horiz-adv-x="1218" 
d="M557 1348q-49 0 -78 -36.5t-45 -111.5l-41 6q33 187 170 187q38 0 78 -15.5t69 -34t68 -34t76 -15.5q47 0 76.5 34.5t46.5 115.5l41 -4q-34 -191 -168 -191q-58 0 -150.5 49.5t-142.5 49.5zM958 43q58 -6 152 -6l-10 -45q-58 -4 -107 -4q-57 0 -74.5 16.5t-13.5 65.5
l60 532q39 348 -267 348q-146 0 -261.5 -109t-133.5 -243l-70 -598h-57l105 918q-19 19 -44 23.5t-79 4.5l8 43q21 6 57 6q123 0 111 -125l-12 -104q57 106 160.5 172t236.5 66q179 0 252.5 -105.5t50.5 -298.5z" />
    <glyph glyph-name="ograve" unicode="&#xf2;" horiz-adv-x="1126" 
d="M561 1458l-67 -6l161 -326h52zM158 414q0 -208 105 -323.5t284 -115.5q108 0 200 40t159.5 114t106 185t38.5 247q0 209 -104 326t-283 117q-222 0 -364 -158.5t-142 -431.5zM217 418q0 244 122.5 388t317.5 144q156 0 246 -104t90 -289q0 -244 -121.5 -386t-318.5 -142
q-156 0 -246 103t-90 286z" />
    <glyph glyph-name="oacute" unicode="&#xf3;" horiz-adv-x="1126" 
d="M858 1458l-221 -332h51l238 326zM158 414q0 -208 105 -323.5t284 -115.5q108 0 200 40t159.5 114t106 185t38.5 247q0 209 -104 326t-283 117q-222 0 -364 -158.5t-142 -431.5zM217 418q0 244 122.5 388t317.5 144q156 0 246 -104t90 -289q0 -244 -121.5 -386
t-318.5 -142q-156 0 -246 103t-90 286z" />
    <glyph glyph-name="ocircumflex" unicode="&#xf4;" horiz-adv-x="1126" 
d="M713 1427l-242 -276l-53 4l272 313h51l201 -313l-53 -4zM664 1004q179 0 283 -117t104 -326q0 -136 -38.5 -247t-106 -185t-159.5 -114t-200 -40q-179 0 -284 115.5t-105 323.5q0 273 142 431.5t364 158.5zM553 29q197 0 318.5 142t121.5 386q0 185 -90 289t-246 104
q-195 0 -317.5 -144t-122.5 -388q0 -183 90 -286t246 -103z" />
    <glyph glyph-name="otilde" unicode="&#xf5;" horiz-adv-x="1126" 
d="M999 1440q-34 -191 -168 -191q-58 0 -150 49.5t-142 49.5q-49 0 -78 -36.5t-45 -111.5l-41 6q33 187 170 187q38 0 78 -15.5t69 -34t68 -34t76 -15.5q47 0 76 34.5t46 115.5zM158 414q0 -208 105 -323.5t284 -115.5q108 0 200 40t159.5 114t106 185t38.5 247
q0 209 -104 326t-283 117q-222 0 -364 -158.5t-142 -431.5zM217 418q0 244 122.5 388t317.5 144q156 0 246 -104t90 -289q0 -244 -121.5 -386t-318.5 -142q-156 0 -246 103t-90 286z" />
    <glyph glyph-name="odieresis" unicode="&#xf6;" horiz-adv-x="1126" 
d="M575 1260q23 0 38.5 15t15.5 38q0 45 -41 45q-25 0 -40.5 -15t-15.5 -38q0 -45 43 -45zM811 1260q23 0 38 15t15 38q0 45 -41 45q-23 0 -39 -15t-16 -38q0 -21 12 -33t31 -12zM158 414q0 -208 105 -323.5t284 -115.5q108 0 200 40t159.5 114t106 185t38.5 247
q0 209 -104 326t-283 117q-222 0 -364 -158.5t-142 -431.5zM217 418q0 244 122.5 388t317.5 144q156 0 246 -104t90 -289q0 -244 -121.5 -386t-318.5 -142q-156 0 -246 103t-90 286z" />
    <glyph glyph-name="divide" unicode="&#xf7;" horiz-adv-x="1032" 
d="M575 905q26 0 46 20t20 46q0 23 -14.5 39t-36.5 16q-26 0 -46 -19.5t-20 -45.5q0 -23 14.5 -39.5t36.5 -16.5zM932 676h-764l-6 -53h764zM504 272q26 0 45.5 20t19.5 46q0 23 -14.5 39t-36.5 16q-26 0 -45.5 -19.5t-19.5 -45.5q0 -24 14 -40t37 -16z" />
    <glyph glyph-name="oslash" unicode="&#xf8;" horiz-adv-x="1126" 
d="M930 903q121 -115 121 -342q0 -136 -38.5 -247t-106 -185t-159.5 -114t-200 -40q-139 0 -234 70l-86 -121l-49 10l101 140q-121 121 -121 340q0 273 142 431.5t364 158.5q136 0 231 -70l86 121l49 -11zM217 418q0 -188 96 -295l547 764q-81 63 -203 63
q-195 0 -317.5 -144t-122.5 -388zM553 29q197 0 318.5 142t121.5 386q0 193 -98 299l-547 -764q81 -63 205 -63z" />
    <glyph glyph-name="ugrave" unicode="&#xf9;" horiz-adv-x="1189" 
d="M694 1126h-51l-162 326l68 6zM920 45q66 -8 151 -8l-10 -45q-32 -4 -100 -4q-55 0 -78 22t-17 82l19 150q-67 -128 -177 -197.5t-253 -69.5q-159 0 -218 87t-36 292l63 564q-18 16 -42 22t-79 6l9 43q18 6 57 6q123 0 108 -121l-57 -509q-22 -182 25.5 -259t185.5 -77
q94 0 174.5 37.5t133 97t85 126.5t41.5 134l64 559h57z" />
    <glyph glyph-name="uacute" unicode="&#xfa;" horiz-adv-x="1189" 
d="M913 1452l-237 -326h-51l221 332zM920 45q66 -8 151 -8l-10 -45q-32 -4 -100 -4q-55 0 -78 22t-17 82l19 150q-67 -128 -177 -197.5t-253 -69.5q-159 0 -218 87t-36 292l63 564q-18 16 -42 22t-79 6l9 43q18 6 57 6q123 0 108 -121l-57 -509q-22 -182 25.5 -259
t185.5 -77q94 0 174.5 37.5t133 97t85 126.5t41.5 134l64 559h57z" />
    <glyph glyph-name="ucircumflex" unicode="&#xfb;" horiz-adv-x="1189" 
d="M700 1427l-241 -276l-53 4l272 313h51l201 -313l-53 -4zM920 45q66 -8 151 -8l-10 -45q-32 -4 -100 -4q-55 0 -78 22t-17 82l19 150q-67 -128 -177 -197.5t-253 -69.5q-159 0 -218 87t-36 292l63 564q-18 16 -42 22t-79 6l9 43q18 6 57 6q123 0 108 -121l-57 -509
q-22 -182 25.5 -259t185.5 -77q94 0 174.5 37.5t133 97t85 126.5t41.5 134l64 559h57z" />
    <glyph glyph-name="udieresis" unicode="&#xfc;" horiz-adv-x="1189" 
d="M563 1260q-43 0 -43 45q0 23 15 38t40 15q41 0 41 -45q0 -23 -15 -38t-38 -15zM799 1260q-19 0 -31 12t-12 33q0 23 16 38t39 15q41 0 41 -45q0 -23 -15 -38t-38 -15zM920 45q66 -8 151 -8l-10 -45q-32 -4 -100 -4q-55 0 -78 22t-17 82l19 150q-67 -128 -177 -197.5
t-253 -69.5q-159 0 -218 87t-36 292l63 564q-18 16 -42 22t-79 6l9 43q18 6 57 6q123 0 108 -121l-57 -509q-22 -182 25.5 -259t185.5 -77q94 0 174.5 37.5t133 97t85 126.5t41.5 134l64 559h57z" />
    <glyph glyph-name="yacute" unicode="&#xfd;" horiz-adv-x="978" 
d="M827 1452l-237 -326h-51l221 332zM952 991l60 -8l-609 -1208q-42 -85 -99.5 -124.5t-158.5 -39.5q-68 0 -116 24l6 56q58 -29 110 -29q78 0 124.5 25t86.5 106l103 207l-289 926q-29 14 -90 14l6 45q18 6 53 6q37 0 59.5 -19t37.5 -65l258 -835z" />
    <glyph glyph-name="thorn" unicode="&#xfe;" horiz-adv-x="1101" 
d="M664 1004q177 0 269.5 -110t92.5 -312q0 -281 -135.5 -444t-394.5 -163q-168 0 -273 68l-45 -412h-57l205 1823h57l-74 -653q50 92 140.5 147.5t214.5 55.5zM508 29q214 0 337.5 141.5t123.5 407.5q0 178 -79 275t-235 97q-149 0 -249.5 -96t-114.5 -223l-60 -529
q101 -73 277 -73z" />
    <glyph glyph-name="ydieresis" unicode="&#xff;" horiz-adv-x="978" 
d="M477 1260q-43 0 -43 45q0 23 15 38t40 15q41 0 41 -45q0 -23 -15 -38t-38 -15zM713 1260q-19 0 -31 12t-12 33q0 23 16 38t39 15q41 0 41 -45q0 -23 -15 -38t-38 -15zM952 991l60 -8l-609 -1208q-42 -85 -99.5 -124.5t-158.5 -39.5q-68 0 -116 24l6 56q58 -29 110 -29
q78 0 124.5 25t86.5 106l103 207l-289 926q-29 14 -90 14l6 45q18 6 53 6q37 0 59.5 -19t37.5 -65l258 -835z" />
    <glyph glyph-name="Amacron" unicode="&#x100;" horiz-adv-x="1327" 
d="M1004 1638l-5 -49h-507l6 49h506zM1155 47q31 -10 143 -10l-10 -43q-33 -10 -92 -10q-48 0 -70 14t-32 57l-113 406h-729l-232 -461h-63l735 1448l70 16zM279 514h688l-244 887z" />
    <glyph glyph-name="amacron" unicode="&#x101;" horiz-adv-x="1128" 
d="M926 1311l-4 -49h-549l6 49h547zM872 45q78 -8 148 -8l-6 -45q-33 -4 -107 -4q-53 0 -73.5 22.5t-14.5 77.5l19 150q-68 -121 -181 -192t-251 -71q-127 0 -198 67t-71 185q0 153 105.5 243.5t308.5 90.5q169 0 317 -39l13 105q18 154 -49 239.5t-220 85.5
q-271 0 -336 -245l-57 10q22 67 51.5 116.5t75.5 89.5t114 60.5t158 20.5q179 0 260 -97t60 -278zM420 27q109 0 206 55.5t156 140t74 176.5l8 74q-139 39 -313 39q-183 0 -269.5 -75t-86.5 -208q0 -96 59.5 -149t165.5 -53z" />
    <glyph glyph-name="Abreve" unicode="&#x102;" horiz-adv-x="1327" 
d="M739 1513q-176 0 -176 222l47 4q0 -95 33 -134.5t102 -39.5q75 0 119 39.5t62 134.5l45 -4q-42 -222 -232 -222zM1155 47q31 -10 143 -10l-10 -43q-33 -10 -92 -10q-48 0 -70 14t-32 57l-113 406h-729l-232 -461h-63l735 1448l70 16zM279 514h688l-244 887z" />
    <glyph glyph-name="abreve" unicode="&#x103;" horiz-adv-x="1128" 
d="M633 1153q-117 0 -169 66.5t-52 218.5l49 2q-1 -137 43.5 -188.5t134.5 -51.5q92 0 148.5 52.5t82.5 187.5l48 -2q-28 -150 -96 -217.5t-189 -67.5zM872 45q78 -8 148 -8l-6 -45q-33 -4 -107 -4q-53 0 -73.5 22.5t-14.5 77.5l19 150q-68 -121 -181 -192t-251 -71
q-127 0 -198 67t-71 185q0 153 105.5 243.5t308.5 90.5q169 0 317 -39l13 105q18 154 -49 239.5t-220 85.5q-271 0 -336 -245l-57 10q22 67 51.5 116.5t75.5 89.5t114 60.5t158 20.5q179 0 260 -97t60 -278zM420 27q109 0 206 55.5t156 140t74 176.5l8 74q-139 39 -313 39
q-183 0 -269.5 -75t-86.5 -208q0 -96 59.5 -149t165.5 -53z" />
    <glyph glyph-name="Aogonek" unicode="&#x104;" horiz-adv-x="1327" 
d="M1069 -260q0 -44 22 -66t58 -22q48 0 102 24l-2 -49q-48 -24 -110 -24q-125 0 -125 121q0 161 190 260h-8q-48 0 -70 14t-32 57l-113 406h-729l-232 -461h-63l735 1448l70 16l393 -1417q31 -10 143 -10l-10 -43zM279 514h688l-244 887z" />
    <glyph glyph-name="aogonek" unicode="&#x105;" horiz-adv-x="1128" 
d="M1014 -8q-31 -17 -52.5 -30t-56 -38.5t-56 -50.5t-38 -61t-16.5 -74q0 -44 21.5 -66t57.5 -22q49 0 103 24l-2 -49q-48 -24 -111 -24q-125 0 -125 120q0 168 203 267h-35q-53 0 -73.5 22.5t-14.5 77.5l19 150q-68 -121 -181 -192t-251 -71q-127 0 -198 67t-71 185
q0 153 105.5 243.5t308.5 90.5q169 0 317 -39l13 105q18 154 -49 239.5t-220 85.5q-271 0 -336 -245l-57 10q22 67 51.5 116.5t75.5 89.5t114 60.5t158 20.5q179 0 260 -97t60 -278l-66 -584q78 -8 148 -8zM420 27q109 0 206 55.5t156 140t74 176.5l8 74q-139 39 -313 39
q-183 0 -269.5 -75t-86.5 -208q0 -96 59.5 -149t165.5 -53z" />
    <glyph glyph-name="Cacute" unicode="&#x106;" horiz-adv-x="1349" 
d="M967 1735l-156 -215l49 -4l174 204zM719 31q-250 0 -393.5 155t-143.5 430q0 189 49.5 342.5t137.5 254t208 154.5t261 54q218 0 320.5 -102.5t86.5 -276.5l64 7q4 28 4 55q0 162 -122.5 266.5t-354.5 104.5q-156 0 -287.5 -59.5t-226 -169t-148 -273t-53.5 -363.5
q0 -302 158 -468.5t432 -166.5q98 0 183.5 14.5t145 38.5t94 43.5t60.5 39.5l-10 51q-178 -131 -465 -131z" />
    <glyph glyph-name="cacute" unicode="&#x107;" horiz-adv-x="1038" 
d="M848 1458l-221 -332h51l237 326zM903 164q-27 -22 -40 -32.5t-51.5 -33.5t-72 -35.5t-86.5 -23t-110 -10.5q-152 0 -238 96.5t-86 280.5q0 245 117 394.5t309 149.5q134 0 201.5 -65t58.5 -199l56 6q4 20 4 39q-2 126 -80.5 199.5t-231.5 73.5q-155 0 -268.5 -79.5
t-170 -214.5t-56.5 -309q0 -211 102 -318.5t277 -107.5q73 0 134.5 12.5t109.5 37.5t72.5 41t57.5 43z" />
    <glyph glyph-name="Cdotaccent" unicode="&#x10a;" horiz-adv-x="1349" 
d="M850 1573q23 0 38 16t15 41q0 20 -12 32.5t-31 12.5q-23 0 -38 -16t-15 -41q0 -20 11.5 -32.5t31.5 -12.5zM719 31q-250 0 -393.5 155t-143.5 430q0 189 49.5 342.5t137.5 254t208 154.5t261 54q218 0 320.5 -102.5t86.5 -276.5l64 7q4 28 4 55q0 162 -122.5 266.5
t-354.5 104.5q-156 0 -287.5 -59.5t-226 -169t-148 -273t-53.5 -363.5q0 -302 158 -468.5t432 -166.5q98 0 183.5 14.5t145 38.5t94 43.5t60.5 39.5l-10 51q-178 -131 -465 -131z" />
    <glyph glyph-name="cdotaccent" unicode="&#x10b;" horiz-adv-x="1038" 
d="M680 1255q25 0 41 16.5t16 41.5q0 22 -12 35.5t-33 13.5q-22 0 -38.5 -17.5t-16.5 -41.5q0 -20 12 -34t31 -14zM903 164q-27 -22 -40 -32.5t-51.5 -33.5t-72 -35.5t-86.5 -23t-110 -10.5q-152 0 -238 96.5t-86 280.5q0 245 117 394.5t309 149.5q134 0 201.5 -65
t58.5 -199l56 6q4 20 4 39q-2 126 -80.5 199.5t-231.5 73.5q-155 0 -268.5 -79.5t-170 -214.5t-56.5 -309q0 -211 102 -318.5t277 -107.5q73 0 134.5 12.5t109.5 37.5t72.5 41t57.5 43z" />
    <glyph glyph-name="Ccaron" unicode="&#x10c;" horiz-adv-x="1349" 
d="M868 1520h-51l-176 211l55 10l152 -185l192 185l52 -10zM836 1475q232 0 354.5 -104.5t122.5 -266.5q0 -27 -4 -55l-64 -7q16 174 -86.5 276.5t-320.5 102.5q-141 0 -261 -54t-208 -154.5t-137.5 -254t-49.5 -342.5q0 -275 143.5 -430t393.5 -155q287 0 465 131l10 -51
q-26 -20 -60.5 -39.5t-94 -43.5t-145 -38.5t-183.5 -14.5q-274 0 -432 166.5t-158 468.5q0 200 53.5 363.5t148 273t226 169t287.5 59.5z" />
    <glyph glyph-name="ccaron" unicode="&#x10d;" horiz-adv-x="1038" 
d="M694 1141h-51l-203 313l56 4l176 -276l241 276l52 -4zM653 1004q153 0 231.5 -73.5t80.5 -199.5q0 -19 -4 -39l-56 -6q9 134 -58.5 199t-201.5 65q-192 0 -309 -149.5t-117 -394.5q0 -184 86 -280.5t238 -96.5q57 0 110 10.5t86.5 23t72 35.5t51.5 33.5t40 32.5l8 -55
q-33 -27 -57.5 -43t-72.5 -41t-109.5 -37.5t-134.5 -12.5q-175 0 -277 107.5t-102 318.5q0 174 56.5 309t170 214.5t268.5 79.5z" />
    <glyph glyph-name="Dcaron" unicode="&#x10e;" horiz-adv-x="1476" 
d="M727 1520h-51l-176 211l55 10l152 -185l192 185l51 -10zM698 1475q165 0 293 -50.5t206.5 -141t118.5 -207.5t40 -257q0 -137 -32.5 -259.5t-99.5 -225t-162 -177t-227.5 -116t-289.5 -41.5h-395l159 1401h-168l4 43q54 14 144 14q51 0 69 -18q148 35 340 35zM549 55
q151 0 275.5 40t210.5 110.5t145 167t86.5 207.5t27.5 235q0 126 -34.5 232.5t-105 191t-189 132.5t-273.5 48q-176 0 -321 -22l-154 -1342h332z" />
    <glyph glyph-name="dcaron" unicode="&#x10f;" horiz-adv-x="1200" 
d="M1315 1460l55 -6l-98 -371l-47 4zM1008 1454h57l-160 -1409q74 -8 152 -8l-8 -45q-29 -4 -111 -4q-52 0 -71.5 27t-10.5 98l8 71q-57 -91 -151.5 -150t-220.5 -59q-152 0 -243 110.5t-91 309.5q0 278 137 443.5t360 165.5q183 0 291 -91zM502 29q146 0 252 89t127 208
l59 526q-107 98 -293 98q-128 0 -226.5 -72t-151 -197t-52.5 -282q0 -186 80 -278t205 -92z" />
    <glyph glyph-name="Dcroat" unicode="&#x110;" horiz-adv-x="1476" 
d="M698 1475q165 0 293 -50.5t206.5 -141t118.5 -207.5t40 -257q0 -137 -32.5 -259.5t-99.5 -225t-162 -177t-227.5 -116t-289.5 -41.5h-395l77 692h-159l6 49h159l76 660h-168l4 43q54 14 144 14q51 0 69 -18q148 35 340 35zM549 55q151 0 275.5 40t210.5 110.5t145 167
t86.5 207.5t27.5 235q0 126 -34.5 232.5t-105 191t-189 132.5t-273.5 48q-176 0 -321 -22l-76 -656h289l-4 -49h-289l-74 -637h332z" />
    <glyph glyph-name="dcroat" unicode="&#x111;" horiz-adv-x="1280" 
d="M1188 1180h-154l-129 -1135q74 -8 152 -8l-8 -45q-29 -4 -111 -4q-52 0 -71.5 27t-10.5 98l8 71q-57 -91 -150.5 -150t-217.5 -59q-155 0 -246.5 110.5t-91.5 309.5q0 278 136.5 443.5t358.5 165.5q185 0 293 -91l31 267h-391l6 49h391l25 225h57l-25 -225h152zM506 29
q143 0 249 90t126 207l59 526q-107 98 -293 98q-128 0 -226.5 -72t-151 -197t-52.5 -282q0 -186 80.5 -278t208.5 -92z" />
    <glyph glyph-name="Emacron" unicode="&#x112;" horiz-adv-x="1089" 
d="M999 1638l-4 -49h-508l7 49h505zM1128 1401h-766l-73 -643h717l-7 -53h-716l-74 -652h776l-8 -53h-836l164 1454h838z" />
    <glyph glyph-name="emacron" unicode="&#x113;" horiz-adv-x="1030" 
d="M932 1311l-4 -49h-549l6 49h547zM627 1004q162 0 245.5 -104t83.5 -275q0 -35 -12 -146h-727q-2 -25 -2 -76q0 -374 338 -374q111 0 198 35t121 67l11 -51q-45 -40 -136.5 -72.5t-205.5 -32.5q-187 0 -285 107.5t-98 318.5q0 278 128.5 440.5t340.5 162.5zM223 528h670v2
q26 195 -51.5 307.5t-220.5 112.5q-153 0 -262 -108.5t-136 -313.5z" />
    <glyph glyph-name="Edotaccent" unicode="&#x116;" horiz-adv-x="1089" 
d="M741 1573q-20 0 -31.5 12.5t-11.5 32.5q0 25 15.5 41t38.5 16q19 0 31 -12.5t12 -32.5q0 -25 -15.5 -41t-38.5 -16zM1128 1401h-766l-73 -643h717l-7 -53h-716l-74 -652h776l-8 -53h-836l164 1454h838z" />
    <glyph glyph-name="edotaccent" unicode="&#x117;" horiz-adv-x="1030" 
d="M651 1255q-19 0 -31 14t-12 34q0 24 17 41.5t39 17.5q21 0 33 -13.5t12 -35.5q0 -25 -16.5 -41.5t-41.5 -16.5zM627 1004q162 0 245.5 -104t83.5 -275q0 -35 -12 -146h-727q-2 -25 -2 -76q0 -374 338 -374q111 0 198 35t121 67l11 -51q-45 -40 -136.5 -72.5t-205.5 -32.5
q-187 0 -285 107.5t-98 318.5q0 278 128.5 440.5t340.5 162.5zM223 528h670v2q26 195 -51.5 307.5t-220.5 112.5q-153 0 -262 -108.5t-136 -313.5z" />
    <glyph glyph-name="Eogonek" unicode="&#x118;" horiz-adv-x="1089" 
d="M1128 1401h-766l-73 -643h717l-7 -53h-716l-74 -652h776l-8 -53h2q-31 -17 -52.5 -30t-56 -38.5t-56 -50.5t-38 -61t-16.5 -74q0 -44 22 -66t58 -22q46 0 102 25l-2 -50q-48 -24 -111 -24q-124 0 -124 121q0 172 210 270h-774l164 1454h838z" />
    <glyph glyph-name="eogonek" unicode="&#x119;" horiz-adv-x="1030" 
d="M627 1004q162 0 245.5 -104t83.5 -275q0 -35 -12 -146h-727q-2 -25 -2 -76q0 -374 338 -374q111 0 198 35t121 67l11 -51q-49 -38 -107 -62q-38 -20 -67.5 -39.5t-66.5 -51t-58 -72.5t-21 -86q0 -44 22 -66t58 -22q48 0 102 24l-2 -49q-50 -25 -110 -25q-125 0 -125 121
q0 141 143 232q-79 -9 -110 -9q-187 0 -285 107.5t-98 318.5q0 278 128.5 440.5t340.5 162.5zM223 528h670v2q26 195 -51.5 307.5t-220.5 112.5q-153 0 -262 -108.5t-136 -313.5z" />
    <glyph glyph-name="Ecaron" unicode="&#x11a;" horiz-adv-x="1089" 
d="M760 1520h-51l-177 211l56 10l151 -185l193 185l51 -10zM1128 1401h-766l-73 -643h717l-7 -53h-716l-74 -652h776l-8 -53h-836l164 1454h838z" />
    <glyph glyph-name="ecaron" unicode="&#x11b;" horiz-adv-x="1030" 
d="M666 1141h-52l-202 313l55 4l176 -276l242 276l51 -4zM627 1004q162 0 245.5 -104t83.5 -275q0 -35 -12 -146h-727q-2 -25 -2 -76q0 -374 338 -374q111 0 198 35t121 67l11 -51q-45 -40 -136.5 -72.5t-205.5 -32.5q-187 0 -285 107.5t-98 318.5q0 278 128.5 440.5
t340.5 162.5zM223 528h670v2q26 195 -51.5 307.5t-220.5 112.5q-153 0 -262 -108.5t-136 -313.5z" />
    <glyph glyph-name="Gbreve" unicode="&#x11e;" horiz-adv-x="1497" 
d="M862 1513q-176 0 -176 222l47 4q0 -95 33 -134.5t102 -39.5q75 0 119 39.5t62 134.5l45 -4q-42 -222 -232 -222zM1321 735q37 0 37 -28q0 -10 -2.5 -32.5t-3.5 -33.5l-72 -641h-47l33 319q-77 -172 -226.5 -258t-341.5 -86q-273 0 -425 168.5t-152 468.5q0 207 57 371.5
t159 271.5t242 163.5t308 56.5q218 0 341 -103.5t126 -288.5l-64 -12q2 162 -107 256t-302 94q-322 0 -510.5 -216t-188.5 -587q0 -276 138.5 -432.5t386.5 -156.5q111 0 207 30.5t174.5 92t130 164t67.5 237.5l14 131h-483l6 51h498z" />
    <glyph glyph-name="gbreve" unicode="&#x11f;" horiz-adv-x="1067" 
d="M623 1153q-117 0 -169.5 66.5t-52.5 218.5l50 2q-1 -137 43.5 -188.5t134.5 -51.5q92 0 148.5 52.5t82.5 187.5l47 -2q-28 -150 -95.5 -217.5t-188.5 -67.5zM715 145q116 -1 173.5 -59t57.5 -147q0 -140 -122.5 -234t-348.5 -94q-210 0 -303.5 59t-93.5 180
q0 170 182 265q-88 38 -88 129q0 137 172 223q-100 74 -100 207q0 140 100.5 235t273.5 95q126 0 207 -58q38 86 100.5 128t161.5 50l3 -51q-88 -6 -144.5 -42.5t-89.5 -110.5q70 -73 70 -183q0 -142 -99.5 -235.5t-275.5 -93.5q-104 0 -172 38q-90 -54 -122 -95t-32 -97
q0 -57 42 -82t134 -25zM297 676q0 -106 69.5 -164.5t190.5 -58.5q142 0 228.5 74.5t86.5 207.5q0 105 -69.5 164t-188.5 59q-143 0 -230 -75t-87 -207zM483 -338q195 0 299.5 77t104.5 189q0 77 -49.5 122.5t-141.5 45.5h-327q-40 0 -56 4q-80 -34 -129 -96t-49 -145
q0 -46 17.5 -81t57 -62t108 -40.5t165.5 -13.5z" />
    <glyph glyph-name="Gdotaccent" unicode="&#x120;" horiz-adv-x="1497" 
d="M870 1573q-20 0 -31.5 12.5t-11.5 32.5q0 25 15.5 41t38.5 16q19 0 31 -12.5t12 -32.5q0 -25 -15.5 -41t-38.5 -16zM1321 735q37 0 37 -28q0 -10 -2.5 -32.5t-3.5 -33.5l-72 -641h-47l33 319q-77 -172 -226.5 -258t-341.5 -86q-273 0 -425 168.5t-152 468.5
q0 207 57 371.5t159 271.5t242 163.5t308 56.5q218 0 341 -103.5t126 -288.5l-64 -12q2 162 -107 256t-302 94q-322 0 -510.5 -216t-188.5 -587q0 -276 138.5 -432.5t386.5 -156.5q111 0 207 30.5t174.5 92t130 164t67.5 237.5l14 131h-483l6 51h498z" />
    <glyph glyph-name="gdotaccent" unicode="&#x121;" horiz-adv-x="1067" 
d="M635 1255q-19 0 -31 14t-12 34q0 24 16.5 41.5t38.5 17.5q21 0 33 -13.5t12 -35.5q0 -25 -16 -41.5t-41 -16.5zM715 145q116 -1 173.5 -59t57.5 -147q0 -140 -122.5 -234t-348.5 -94q-210 0 -303.5 59t-93.5 180q0 170 182 265q-88 38 -88 129q0 137 172 223
q-100 74 -100 207q0 140 100.5 235t273.5 95q126 0 207 -58q38 86 100.5 128t161.5 50l3 -51q-88 -6 -144.5 -42.5t-89.5 -110.5q70 -73 70 -183q0 -142 -99.5 -235.5t-275.5 -93.5q-104 0 -172 38q-90 -54 -122 -95t-32 -97q0 -57 42 -82t134 -25zM297 676
q0 -106 69.5 -164.5t190.5 -58.5q142 0 228.5 74.5t86.5 207.5q0 105 -69.5 164t-188.5 59q-143 0 -230 -75t-87 -207zM483 -338q195 0 299.5 77t104.5 189q0 77 -49.5 122.5t-141.5 45.5h-327q-40 0 -56 4q-80 -34 -129 -96t-49 -145q0 -46 17.5 -81t57 -62t108 -40.5
t165.5 -13.5z" />
    <glyph glyph-name="Gcommaaccent" unicode="&#x122;" horiz-adv-x="1497" 
d="M1321 735q37 0 37 -28q0 -10 -2.5 -32.5t-3.5 -33.5l-72 -641h-47l33 319q-77 -172 -226.5 -258t-341.5 -86q-273 0 -425 168.5t-152 468.5q0 207 57 371.5t159 271.5t242 163.5t308 56.5q218 0 341 -103.5t126 -288.5l-64 -12q2 162 -107 256t-302 94
q-322 0 -510.5 -216t-188.5 -587q0 -276 138.5 -432.5t386.5 -156.5q111 0 207 30.5t174.5 92t130 164t67.5 237.5l14 131h-483l6 51h498zM696 -109q28 0 43 -18.5t15 -52.5q0 -133 -131 -180l-5 34q37 16 56.5 40t23.5 67q-63 0 -63 47q0 63 61 63z" />
    <glyph glyph-name="gcommaaccent" unicode="&#x123;" horiz-adv-x="1067" 
d="M604 1219q-59 0 -59 71q0 132 131 180l4 -34q-36 -16 -55 -40t-25 -67q64 0 64 -47q0 -31 -16.5 -47t-43.5 -16zM715 145q116 -1 173.5 -59t57.5 -147q0 -140 -122.5 -234t-348.5 -94q-210 0 -303.5 59t-93.5 180q0 170 182 265q-88 38 -88 129q0 137 172 223
q-100 74 -100 207q0 140 100.5 235t273.5 95q126 0 207 -58q38 86 100.5 128t161.5 50l3 -51q-88 -6 -144.5 -42.5t-89.5 -110.5q70 -73 70 -183q0 -142 -99.5 -235.5t-275.5 -93.5q-104 0 -172 38q-90 -54 -122 -95t-32 -97q0 -57 42 -82t134 -25zM297 676
q0 -106 69.5 -164.5t190.5 -58.5q142 0 228.5 74.5t86.5 207.5q0 105 -69.5 164t-188.5 59q-143 0 -230 -75t-87 -207zM483 -338q195 0 299.5 77t104.5 189q0 77 -49.5 122.5t-141.5 45.5h-327q-40 0 -56 4q-80 -34 -129 -96t-49 -145q0 -46 17.5 -81t57 -62t108 -40.5
t165.5 -13.5z" />
    <glyph glyph-name="Hbar" unicode="&#x126;" horiz-adv-x="1452" 
d="M1452 1180h-127l-129 -1135q44 -8 158 -8l-11 -43q-48 -10 -126 -10q-45 0 -65 16t-17 55l71 627h-925l-78 -682h-62l133 1180h-133l4 49h136l26 225h62l-27 -225h928l26 225h62l-27 -225h127zM1214 737l50 443h-926l-51 -443h927z" />
    <glyph glyph-name="hbar" unicode="&#x127;" horiz-adv-x="1173" 
d="M913 43q59 -6 152 -6l-10 -45q-54 -4 -107 -4q-58 0 -76 17t-12 69l60 528q39 348 -263 348q-144 0 -255.5 -99t-137.5 -233l-69 -618h-58l133 1180h-120l6 49h120l25 225h57l-24 -225h411l-6 -49h-411l-47 -414q57 106 159.5 172t235.5 66q179 0 252.5 -105.5
t50.5 -298.5z" />
    <glyph glyph-name="Itilde" unicode="&#x128;" horiz-adv-x="448" 
d="M594 1726q-14 -76 -43 -111.5t-86 -35.5q-41 0 -111.5 24.5t-105.5 24.5q-34 0 -54 -23t-32 -81l-39 6q27 145 129 145q41 0 112 -23.5t105 -23.5q33 0 53.5 23t32.5 80zM307 1454l-166 -1454h62l166 1454h-62z" />
    <glyph glyph-name="itilde" unicode="&#x129;" horiz-adv-x="389" 
d="M551 1440q-34 -191 -168 -191q-58 0 -150.5 49.5t-142.5 49.5q-49 0 -78 -36.5t-45 -111.5l-41 6q33 187 170 187q38 0 78 -15.5t69 -34t68 -34t76 -15.5q47 0 76.5 34.5t46.5 115.5zM135 43l109 940h-58l-100 -877q-6 -42 -6 -63q0 -30 18 -42.5t62 -12.5t94 4l6 45
q-76 0 -125 6z" />
    <glyph glyph-name="Imacron" unicode="&#x12a;" horiz-adv-x="448" 
d="M195 1638l-5 -49h312l4 49h-311zM307 1454l-166 -1454h62l166 1454h-62z" />
    <glyph glyph-name="imacron" unicode="&#x12b;" horiz-adv-x="389" 
d="M45 1311l-4 -49h391l4 49h-391zM135 43l109 940h-58l-100 -877q-6 -42 -6 -63q0 -30 18 -42.5t62 -12.5t94 4l6 45q-76 0 -125 6z" />
    <glyph glyph-name="Iogonek" unicode="&#x12e;" horiz-adv-x="448" 
d="M203 0q-31 -17 -52.5 -30t-56 -38.5t-56 -50.5t-38 -61t-16.5 -74q0 -44 21.5 -66t57.5 -22q47 0 103 25l-2 -50q-48 -24 -111 -24q-125 0 -125 121q0 173 213 270l166 1454h62z" />
    <glyph glyph-name="iogonek" unicode="&#x12f;" horiz-adv-x="389" 
d="M256 1362q21 0 33 -13.5t12 -35.5q0 -25 -16 -41.5t-41 -16.5q-19 0 -31 14t-12 34q0 24 16.5 41.5t38.5 17.5zM260 37l-6 -45q-31 -17 -52.5 -30t-56 -38.5t-56 -50.5t-38 -61t-16.5 -74q0 -44 22 -66t58 -22q48 0 102 24l-2 -49q-48 -24 -111 -24q-124 0 -124 120
q0 168 202 267h-22q-44 0 -62 12.5t-18 42.5q0 21 6 63l100 877h58l-109 -940q49 -6 125 -6z" />
    <glyph glyph-name="Idotaccent" unicode="&#x130;" horiz-adv-x="448" 
d="M352 1573q23 0 38.5 16t15.5 41q0 20 -12.5 32.5t-31.5 12.5q-23 0 -38 -16t-15 -41q0 -20 11.5 -32.5t31.5 -12.5zM307 1454l-166 -1454h62l166 1454h-62z" />
    <glyph glyph-name="dotlessi" unicode="&#x131;" horiz-adv-x="389" 
d="M135 43l109 940h-58l-100 -877q-6 -42 -6 -63q0 -30 18 -42.5t62 -12.5t94 4l6 45q-76 0 -125 6z" />
    <glyph glyph-name="IJ" unicode="&#x132;" horiz-adv-x="1130" 
d="M307 1454l-166 -1454h62l166 1454h-62zM1055 1454h-60l-129 -1120q-17 -157 -93 -231t-228 -74q-147 0 -248 59l-12 -55q35 -17 60.5 -27t79.5 -20.5t116 -10.5q180 0 273.5 85.5t113.5 265.5z" />
    <glyph glyph-name="ij" unicode="&#x133;" horiz-adv-x="718" 
d="M244 1255q25 0 41 16.5t16 41.5q0 22 -12 35.5t-33 13.5q-22 0 -38.5 -17.5t-16.5 -41.5q0 -20 12 -34t31 -14zM662 1255q25 0 41 16.5t16 41.5q0 22 -12 35.5t-33 13.5q-22 0 -39 -17.5t-17 -41.5q0 -20 12.5 -34t31.5 -14zM135 43l109 940h-58l-100 -877q-6 -42 -6 -63
q0 -30 18 -42.5t62 -12.5t94 4l6 45q-76 0 -125 6zM659 983h-57l-137 -1212q-11 -109 -113 -109q-38 0 -82 21l-8 -52q40 -20 90 -20q151 0 170 164z" />
    <glyph glyph-name="Kcommaaccent" unicode="&#x136;" horiz-adv-x="1202" 
d="M932 113q27 -54 57.5 -65t134.5 -11l-8 -43q-27 -8 -84 -8q-59 0 -90 17t-55 65l-309 614h-297l-78 -682h-62l164 1454h64l-82 -717h295l620 727l64 -16l-641 -741zM512 -109q57 0 57 -71q0 -133 -131 -180l-4 34q37 16 56.5 40t23.5 67q-63 0 -63 47q0 63 61 63z" />
    <glyph glyph-name="kcommaaccent" unicode="&#x137;" horiz-adv-x="913" 
d="M477 561l252 -506q43 -18 143 -18l-8 -45q-40 -4 -90 -4q-44 0 -67 13t-41 50l-232 471l-221 -207l-35 -315h-57l164 1454h57l-121 -1067l645 604l62 -8zM414 -109q57 0 57 -71q0 -133 -131 -180l-4 34q37 16 56.5 40t23.5 67q-64 0 -64 47q0 63 62 63z" />
    <glyph glyph-name="kgreenlandic" unicode="&#x138;" horiz-adv-x="960" 
d="M475 567l254 -512q41 -18 143 -18l-8 -45q-40 -4 -90 -4q-45 0 -67.5 12.5t-40.5 50.5l-234 475l-219 -211l-35 -315h-57l110 987h58l-68 -598l627 602l57 -8z" />
    <glyph glyph-name="Lacute" unicode="&#x139;" horiz-adv-x="1015" 
d="M557 1720l-174 -204l-49 4l155 215zM227 55h740l-6 -55h-803l166 1454h61z" />
    <glyph glyph-name="lacute" unicode="&#x13a;" horiz-adv-x="425" 
d="M444 1735l-155 -215l49 -4l174 204zM281 1454l-152 -1321q-8 -66 -8 -86q0 -31 22 -45t76 -14q59 0 105 6l8 43q-127 0 -154 14l160 1403h-57z" />
    <glyph glyph-name="Lcommaaccent" unicode="&#x13b;" horiz-adv-x="1015" 
d="M227 55h740l-6 -55h-803l166 1454h61zM547 -109q57 0 57 -71q0 -133 -131 -180l-4 34q37 16 56.5 40t23.5 67q-64 0 -64 47q0 63 62 63z" />
    <glyph glyph-name="lcommaaccent" unicode="&#x13c;" horiz-adv-x="425" 
d="M281 1454l-152 -1321q-8 -66 -8 -86q0 -31 22 -45t76 -14q59 0 105 6l8 43q-127 0 -154 14l160 1403h-57zM258 -180q0 -133 -131 -180l-4 34q37 16 56.5 40t23.5 67q-64 0 -64 47q0 63 62 63q57 0 57 -71z" />
    <glyph glyph-name="Lcaron" unicode="&#x13d;" horiz-adv-x="1015" 
d="M829 1454l-96 -371l-49 4l90 373zM227 55h740l-6 -55h-803l166 1454h61z" />
    <glyph glyph-name="lcaron" unicode="&#x13e;" horiz-adv-x="507" 
d="M678 1454l-55 6l-93 -373l50 -4zM281 1454l-152 -1321q-8 -66 -8 -86q0 -31 22 -45t76 -14q59 0 105 6l8 43q-127 0 -154 14l160 1403h-57z" />
    <glyph glyph-name="Ldot" unicode="&#x13f;" horiz-adv-x="1015" 
d="M227 55h740l-6 -55h-803l166 1454h61zM842 541q-25 0 -40.5 15t-15.5 42q0 33 20.5 55.5t53.5 22.5q26 0 42 -16t16 -42q0 -35 -21.5 -56t-54.5 -21z" />
    <glyph glyph-name="ldot" unicode="&#x140;" horiz-adv-x="626" 
d="M281 1454l-152 -1321q-8 -66 -8 -86q0 -31 22 -45t76 -14q59 0 105 6l8 43q-127 0 -154 14l160 1403h-57zM561 541q33 0 54.5 21t21.5 56q0 26 -15.5 42t-41.5 16q-33 0 -53.5 -22.5t-20.5 -55.5q0 -27 15 -42t40 -15z" />
    <glyph glyph-name="Lslash" unicode="&#x141;" horiz-adv-x="907" 
d="M264 55h748l-8 -55h-807l77 682l-182 -59l6 51l181 57l83 723h62l-80 -702l371 120l-4 -51l-373 -119z" />
    <glyph glyph-name="lslash" unicode="&#x142;" horiz-adv-x="587" 
d="M494 829l-181 -71l-82 -707q34 -14 170 -14l-10 -43q-47 -6 -110 -6q-66 0 -87 19t-16 67l76 659l-152 -61l4 51l154 61l76 670h57l-74 -645l181 72z" />
    <glyph glyph-name="Nacute" unicode="&#x143;" horiz-adv-x="1435" 
d="M1051 1720l-174 -204l-50 4l156 215zM1294 1454h62l-164 -1454h-55l-781 1352l-153 -1352h-62l164 1448l60 16l778 -1353z" />
    <glyph glyph-name="nacute" unicode="&#x144;" horiz-adv-x="1218" 
d="M944 1452l-237 -326h-52l222 332zM958 43q58 -6 152 -6l-10 -45q-58 -4 -107 -4q-57 0 -74.5 16.5t-13.5 65.5l60 532q39 348 -267 348q-146 0 -261.5 -109t-133.5 -243l-70 -598h-57l105 918q-19 19 -44 23.5t-79 4.5l8 43q21 6 57 6q123 0 111 -125l-12 -104
q57 106 160.5 172t236.5 66q179 0 252.5 -105.5t50.5 -298.5z" />
    <glyph glyph-name="Ncommaaccent" unicode="&#x145;" horiz-adv-x="1435" 
d="M1294 1454h62l-164 -1454h-55l-781 1352l-153 -1352h-62l164 1448l60 16l778 -1353zM666 -109q57 0 57 -71q0 -133 -131 -180l-4 34q37 16 56.5 40t23.5 67q-64 0 -64 47q0 63 62 63z" />
    <glyph glyph-name="ncommaaccent" unicode="&#x146;" horiz-adv-x="1218" 
d="M958 43q58 -6 152 -6l-10 -45q-58 -4 -107 -4q-57 0 -74.5 16.5t-13.5 65.5l60 532q39 348 -267 348q-146 0 -261.5 -109t-133.5 -243l-70 -598h-57l105 918q-19 19 -44 23.5t-79 4.5l8 43q21 6 57 6q123 0 111 -125l-12 -104q57 106 160.5 172t236.5 66
q179 0 252.5 -105.5t50.5 -298.5zM573 -109q28 0 43 -18.5t15 -52.5q0 -133 -131 -180l-4 34q37 16 56 40t23 67q-63 0 -63 47q0 63 61 63z" />
    <glyph glyph-name="Ncaron" unicode="&#x147;" horiz-adv-x="1435" 
d="M885 1520h-51l-177 211l56 10l151 -185l193 185l51 -10zM1294 1454h62l-164 -1454h-55l-781 1352l-153 -1352h-62l164 1448l60 16l778 -1353z" />
    <glyph glyph-name="ncaron" unicode="&#x148;" horiz-adv-x="1218" 
d="M723 1141h-51l-203 313l55 4l176 -276l242 276l51 -4zM958 43q58 -6 152 -6l-10 -45q-58 -4 -107 -4q-57 0 -74.5 16.5t-13.5 65.5l60 532q39 348 -267 348q-146 0 -261.5 -109t-133.5 -243l-70 -598h-57l105 918q-19 19 -44 23.5t-79 4.5l8 43q21 6 57 6q123 0 111 -125
l-12 -104q57 106 160.5 172t236.5 66q179 0 252.5 -105.5t50.5 -298.5z" />
    <glyph glyph-name="Eng" unicode="&#x14a;" horiz-adv-x="1435" 
d="M1356 1454l-189 -1661q-11 -96 -53.5 -139t-132.5 -43q-74 0 -104 20l10 50q48 -23 92 -23q61 0 91.5 31t37.5 104l25 215l-777 1344l-153 -1352h-62l164 1448l60 16l780 -1355l149 1345h62z" />
    <glyph glyph-name="eng" unicode="&#x14b;" horiz-adv-x="1021" 
d="M717 1004q179 0 251.5 -105.5t49.5 -298.5l-25 -225l-67 -580q-11 -95 -54 -139.5t-129 -44.5q-62 0 -102 20l10 47q4 -1 13 -4.5t13 -5t12.5 -4t15 -3.5t17 -2t21.5 -1q58 0 88 29t39 100l66 584h-2l27 231q42 348 -263 348q-142 0 -254.5 -99t-138.5 -228l-72 -623h-57
l105 918q-19 19 -44 23.5t-79 4.5l8 43q18 6 57 6q123 0 111 -125l-12 -102q58 105 160 170.5t235 65.5z" />
    <glyph glyph-name="Omacron" unicode="&#x14c;" 
d="M637 1638l-6 -49h508l4 49h-506zM702 -25q222 0 394.5 113t264 305.5t91.5 429.5q0 190 -66 336t-199 231t-315 85q-167 0 -308.5 -66t-238 -180t-150.5 -269.5t-54 -332.5q0 -190 66 -336t199 -231t316 -85zM709 31q-248 0 -387.5 163.5t-139.5 436.5q0 169 50 315
t139 250t217 163.5t278 59.5q247 0 386 -163.5t139 -434.5q0 -227 -85 -406.5t-241 -281.5t-356 -102z" />
    <glyph glyph-name="omacron" unicode="&#x14d;" horiz-adv-x="1126" 
d="M424 1311l-6 -49h549l4 49h-547zM158 414q0 -208 105 -323.5t284 -115.5q108 0 200 40t159.5 114t106 185t38.5 247q0 209 -104 326t-283 117q-222 0 -364 -158.5t-142 -431.5zM217 418q0 244 122.5 388t317.5 144q156 0 246 -104t90 -289q0 -244 -121.5 -386
t-318.5 -142q-156 0 -246 103t-90 286z" />
    <glyph glyph-name="Ohungarumlaut" unicode="&#x150;" 
d="M868 1735l-155 -215l49 -4l174 204zM1075 1735l-155 -215l49 -4l174 204zM702 -25q222 0 394.5 113t264 305.5t91.5 429.5q0 190 -66 336t-199 231t-315 85q-167 0 -308.5 -66t-238 -180t-150.5 -269.5t-54 -332.5q0 -190 66 -336t199 -231t316 -85zM709 31
q-248 0 -387.5 163.5t-139.5 436.5q0 169 50 315t139 250t217 163.5t278 59.5q247 0 386 -163.5t139 -434.5q0 -227 -85 -406.5t-241 -281.5t-356 -102z" />
    <glyph glyph-name="ohungarumlaut" unicode="&#x151;" horiz-adv-x="1126" 
d="M729 1458l-221 -332h51l238 326zM965 1458l-222 -332h52l237 326zM158 414q0 -208 105 -323.5t284 -115.5q108 0 200 40t159.5 114t106 185t38.5 247q0 209 -104 326t-283 117q-222 0 -364 -158.5t-142 -431.5zM217 418q0 244 122.5 388t317.5 144q156 0 246 -104
t90 -289q0 -244 -121.5 -386t-318.5 -142q-156 0 -246 103t-90 286z" />
    <glyph glyph-name="OE" unicode="&#x152;" horiz-adv-x="2387" 
d="M2294 1401h-766l-74 -643h717l-6 -53h-717l-74 -652h776l-6 -53h-837l43 373q-96 -185 -264 -291.5t-384 -106.5q-183 0 -316 85t-199 231t-66 336q0 177 54 332.5t150.5 269.5t238 180t308.5 66q216 0 358 -116t195 -315l48 410h835zM709 31q200 0 356 102t241 281.5
t85 406.5q0 271 -139 434.5t-386 163.5q-150 0 -278 -59.5t-217 -163.5t-139 -250t-50 -315q0 -273 139.5 -436.5t387.5 -163.5z" />
    <glyph glyph-name="oe" unicode="&#x153;" horiz-adv-x="1861" 
d="M1456 1004q164 0 247 -104t83 -275q0 -72 -12 -146h-727q-3 -37 -3 -76q0 -374 338 -374q111 0 200 35.5t120 66.5l12 -51q-48 -40 -138.5 -72.5t-205.5 -32.5q-156 0 -250.5 77t-120.5 227q-61 -146 -179.5 -225t-272.5 -79q-179 0 -284 115.5t-105 323.5
q0 273 142 431.5t364 158.5q146 0 244 -80t130 -228q54 147 163 227.5t255 80.5zM553 29q197 0 318.5 142t121.5 386q0 185 -90 289t-246 104q-195 0 -317.5 -144t-122.5 -388q0 -183 90 -286t246 -103zM1053 528h671v2q26 195 -51.5 307.5t-220.5 112.5q-154 0 -263 -108.5
t-136 -313.5z" />
    <glyph glyph-name="Racute" unicode="&#x154;" horiz-adv-x="1216" 
d="M870 1720l-174 -204l-49 4l156 215zM975 117q28 -55 61.5 -67.5t139.5 -12.5l-11 -43q-36 -8 -88 -8q-59 0 -93 21t-64 81l-275 551h-360l-74 -639h-61l159 1401h-168l4 43q54 14 144 14q51 0 69 -18q148 35 326 35q247 0 369.5 -98.5t122.5 -280.5q0 -217 -124.5 -333
t-340.5 -124zM371 1397l-82 -705h413q187 0 299.5 102.5t112.5 303.5q0 153 -106.5 238t-325.5 85q-153 0 -311 -24z" />
    <glyph glyph-name="racute" unicode="&#x155;" horiz-adv-x="620" 
d="M678 1452l-238 -326h-51l221 332zM315 760q51 112 125.5 178t157.5 66q44 0 66 -11l-13 -55q-24 8 -61 8q-61 0 -116.5 -42t-92 -105.5t-60.5 -128.5t-30 -119l-62 -551h-57l104 918q-16 18 -40.5 23t-77.5 5l8 43q18 6 61 6q48 0 78 -30.5t23 -98.5z" />
    <glyph glyph-name="Rcommaaccent" unicode="&#x156;" horiz-adv-x="1216" 
d="M975 117q28 -55 61.5 -67.5t139.5 -12.5l-11 -43q-36 -8 -88 -8q-59 0 -93 21t-64 81l-275 551h-360l-74 -639h-61l159 1401h-168l4 43q54 14 144 14q51 0 69 -18q148 35 326 35q247 0 369.5 -98.5t122.5 -280.5q0 -217 -124.5 -333t-340.5 -124zM371 1397l-82 -705h413
q187 0 299.5 102.5t112.5 303.5q0 153 -106.5 238t-325.5 85q-153 0 -311 -24zM559 -109q57 0 57 -71q0 -133 -131 -180l-4 34q37 16 56.5 40t23.5 67q-63 0 -63 47q0 63 61 63z" />
    <glyph glyph-name="rcommaaccent" unicode="&#x157;" horiz-adv-x="620" 
d="M598 1004q44 0 66 -11l-13 -55q-24 8 -61 8q-61 0 -116.5 -42t-92 -105.5t-60.5 -128.5t-30 -119l-62 -551h-57l104 918q-16 18 -40.5 23t-77.5 5l8 43q18 6 61 6q48 0 78 -30.5t23 -98.5l-13 -106q51 112 125.5 178t157.5 66zM201 -109q57 0 57 -71q0 -133 -131 -180
l-4 34q37 16 56.5 40t23.5 67q-64 0 -64 47q0 63 62 63z" />
    <glyph glyph-name="Rcaron" unicode="&#x158;" horiz-adv-x="1216" 
d="M705 1520h-52l-176 211l55 10l152 -185l193 185l51 -10zM975 117q28 -55 61.5 -67.5t139.5 -12.5l-11 -43q-36 -8 -88 -8q-59 0 -93 21t-64 81l-275 551h-360l-74 -639h-61l159 1401h-168l4 43q54 14 144 14q51 0 69 -18q148 35 326 35q247 0 369.5 -98.5t122.5 -280.5
q0 -217 -124.5 -333t-340.5 -124zM371 1397l-82 -705h413q187 0 299.5 102.5t112.5 303.5q0 153 -106.5 238t-325.5 85q-153 0 -311 -24z" />
    <glyph glyph-name="rcaron" unicode="&#x159;" horiz-adv-x="620" 
d="M459 1141h-51l-203 313l55 4l176 -276l242 276l51 -4zM315 760q51 112 125.5 178t157.5 66q44 0 66 -11l-13 -55q-24 8 -61 8q-61 0 -116.5 -42t-92 -105.5t-60.5 -128.5t-30 -119l-62 -551h-57l104 918q-16 18 -40.5 23t-77.5 5l8 43q18 6 61 6q48 0 78 -30.5t23 -98.5z
" />
    <glyph glyph-name="Sacute" unicode="&#x15a;" horiz-adv-x="1144" 
d="M782 1735l-155 -215l49 -4l174 204zM246 1061q0 170 99.5 265t299.5 95q196 0 289.5 -64.5t93.5 -211.5l59 12q0 318 -432 318q-222 0 -346.5 -108.5t-124.5 -305.5q0 -79 27.5 -137.5t74 -94t107 -61t127.5 -42.5t133.5 -33t127 -38t107 -53t74 -83t27.5 -122
q0 -78 -24 -140.5t-65.5 -104.5t-100.5 -70t-126 -40.5t-145 -12.5q-136 0 -255.5 43t-186.5 94l-16 -60q186 -131 452 -131q267 0 398 115t131 320q0 77 -27.5 135t-74 93t-107 60t-127.5 41t-133.5 32t-127 38t-107 52t-74 80.5t-27.5 119.5z" />
    <glyph glyph-name="sacute" unicode="&#x15b;" horiz-adv-x="946" 
d="M711 1458l-222 -332h52l237 326zM510 1004q-93 0 -165 -24.5t-114.5 -66t-64 -92.5t-21.5 -108q0 -73 33.5 -122t87.5 -72.5t119 -39t130.5 -28.5t119.5 -33t87.5 -61.5t33.5 -104.5q0 -105 -76 -164t-254 -59q-210 0 -330 104l-16 -55q132 -103 342 -103q93 0 164 16.5
t113 43t68.5 65.5t36 78.5t9.5 87.5q0 70 -33.5 116.5t-87 69.5t-118.5 38t-130 28.5t-118.5 33t-87 60.5t-33.5 103q0 47 14.5 86t47 74t95 55t150.5 20q270 0 270 -200l60 10q0 23 -5.5 47t-18 53t-37.5 53.5t-60 45.5t-89.5 33t-121.5 12z" />
    <glyph glyph-name="Scedilla" unicode="&#x15e;" horiz-adv-x="1144" 
d="M246 1061q0 -69 27.5 -119.5t74 -80.5t107 -52t127.5 -38t133.5 -32t127 -41t107 -60t74 -93t27.5 -135q0 -205 -131 -320t-398 -115h-4l-14 -51q143 0 143 -112q0 -201 -260 -201l14 47q193 0 193 149q0 44 -31.5 63t-107.5 19l24 86q-242 11 -409 131l16 60
q67 -51 186.5 -94t255.5 -43q78 0 145 12.5t126 40.5t100.5 70t65.5 104.5t24 140.5q0 70 -27.5 122t-74 83t-107 53t-127.5 38t-133.5 33t-127 42.5t-107 61t-74 94t-27.5 137.5q0 197 124.5 305.5t346.5 108.5q432 0 432 -318l-59 -12q0 147 -93.5 211.5t-289.5 64.5
q-200 0 -299.5 -95t-99.5 -265z" />
    <glyph glyph-name="scedilla" unicode="&#x15f;" horiz-adv-x="946" 
d="M205 715q0 -62 33.5 -103t87 -60.5t118.5 -33t130 -28.5t118.5 -38t87 -69.5t33.5 -116.5q0 -47 -9.5 -86t-35 -77.5t-66.5 -65.5t-109.5 -44t-158.5 -18l-14 -51q143 0 143 -112q0 -201 -260 -201l14 47q193 0 193 149q0 44 -31.5 63t-107.5 19l24 86q-192 5 -315 103
l16 55q120 -104 330 -104q178 0 254 59t76 164q0 63 -33.5 104.5t-87.5 61.5t-119 33t-130.5 28.5t-119.5 39t-87.5 72.5t-33.5 122q0 57 21.5 108t64 92.5t114.5 66t165 24.5q67 0 121.5 -12t89.5 -33t60 -45.5t37.5 -53.5t18 -53t5.5 -47l-60 -10q0 200 -270 200
q-88 0 -150.5 -20t-95 -55t-47 -74t-14.5 -86z" />
    <glyph glyph-name="Scaron" unicode="&#x160;" horiz-adv-x="1144" 
d="M684 1520h-51l-176 211l55 10l152 -185l192 185l51 -10zM246 1061q0 -69 27.5 -119.5t74 -80.5t107 -52t127.5 -38t133.5 -32t127 -41t107 -60t74 -93t27.5 -135q0 -205 -131 -320t-398 -115q-266 0 -452 131l16 60q67 -51 186.5 -94t255.5 -43q78 0 145 12.5t126 40.5
t100.5 70t65.5 104.5t24 140.5q0 70 -27.5 122t-74 83t-107 53t-127.5 38t-133.5 33t-127 42.5t-107 61t-74 94t-27.5 137.5q0 197 124.5 305.5t346.5 108.5q432 0 432 -318l-59 -12q0 147 -93.5 211.5t-289.5 64.5q-200 0 -299.5 -95t-99.5 -265z" />
    <glyph glyph-name="scaron" unicode="&#x161;" horiz-adv-x="946" 
d="M557 1141h-51l-203 313l55 4l177 -276l241 276l51 -4zM205 715q0 -62 33.5 -103t87 -60.5t118.5 -33t130 -28.5t118.5 -38t87 -69.5t33.5 -116.5q0 -48 -9.5 -87.5t-36 -78.5t-68.5 -65.5t-113 -43t-164 -16.5q-210 0 -342 103l16 55q120 -104 330 -104q178 0 254 59
t76 164q0 63 -33.5 104.5t-87.5 61.5t-119 33t-130.5 28.5t-119.5 39t-87.5 72.5t-33.5 122q0 57 21.5 108t64 92.5t114.5 66t165 24.5q67 0 121.5 -12t89.5 -33t60 -45.5t37.5 -53.5t18 -53t5.5 -47l-60 -10q0 200 -270 200q-88 0 -150.5 -20t-95 -55t-47 -74t-14.5 -86z
" />
    <glyph glyph-name="uni0162" unicode="&#x162;" horiz-adv-x="1009" 
d="M457 0h-11l-22 -76q143 0 143 -112q0 -201 -260 -201l15 47q192 0 192 149q0 44 -31.5 63t-107.5 19l33 111h-13l158 1401h-494l7 43q92 10 268 10h780l-6 -53h-492z" />
    <glyph glyph-name="uni0163" unicode="&#x163;" horiz-adv-x="649" 
d="M348 934l-84 -739q-10 -96 21 -132t98 -36q78 0 156 32l-4 -51q-80 -33 -164 -33h-6l-15 -51q144 0 144 -112q0 -201 -261 -201l15 47q192 0 192 149q0 44 -31.5 63t-107.5 19l27 88q-70 8 -101 57t-20 163l84 737h-174l6 49h174l33 287h57l-33 -287h326l-6 -49h-326z
" />
    <glyph glyph-name="Tcaron" unicode="&#x164;" horiz-adv-x="1009" 
d="M625 1520h-52l-176 211l56 10l151 -185l193 185l51 -10zM1114 1454l-6 -53h-492l-159 -1401h-62l158 1401h-494l7 43q92 10 268 10h780z" />
    <glyph glyph-name="tcaron" unicode="&#x165;" horiz-adv-x="712" 
d="M827 1460l56 -6l-99 -371l-49 4zM387 1270l-33 -287h326l-6 -49h-326l-84 -739q-10 -96 21 -132t98 -36q78 0 156 32l-4 -51q-80 -33 -164 -33q-93 0 -135.5 46.5t-28.5 175.5l84 737h-174l6 49h174l33 287h57z" />
    <glyph glyph-name="Tbar" unicode="&#x166;" horiz-adv-x="1009" 
d="M1108 1401h-492l-75 -660h250l-7 -49h-249l-78 -692h-62l78 692h-250l6 49h250l74 660h-494l7 43q92 10 268 10h780z" />
    <glyph glyph-name="tbar" unicode="&#x167;" horiz-adv-x="673" 
d="M678 934h-326l-39 -340h330l-6 -47h-328l-41 -352q-10 -96 21 -132t98 -36q78 0 156 32l-4 -51q-80 -33 -164 -33q-93 0 -135.5 46.5t-28.5 175.5l41 350h-150l4 47h150l39 340h-174l6 49h174l33 287h57l-33 -287h326z" />
    <glyph glyph-name="Utilde" unicode="&#x168;" horiz-adv-x="1402" 
d="M1063 1726q-14 -76 -43 -111.5t-86 -35.5q-41 0 -111.5 24.5t-105.5 24.5q-34 0 -54 -23t-32 -81l-39 6q27 145 129 145q41 0 112 -23.5t105 -23.5q33 0 53.5 23t32.5 80zM1346 1454h-64l-102 -907q-30 -257 -159.5 -387.5t-367.5 -130.5q-243 0 -337 126t-64 390l94 827
q5 46 -13 66t-65 20q-61 0 -143 -12l-4 -43h168l-96 -844q-34 -299 74.5 -441.5t377.5 -142.5q268 0 414.5 138t181.5 434z" />
    <glyph glyph-name="utilde" unicode="&#x169;" horiz-adv-x="1189" 
d="M526 1348q-49 0 -78 -36.5t-45 -111.5l-41 6q33 187 170 187q38 0 78 -15.5t69 -34t68 -34t76 -15.5q47 0 76.5 34.5t46.5 115.5l41 -4q-34 -191 -168 -191q-58 0 -150.5 49.5t-142.5 49.5zM920 45q66 -8 151 -8l-10 -45q-32 -4 -100 -4q-55 0 -78 22t-17 82l19 150
q-67 -128 -177 -197.5t-253 -69.5q-159 0 -218 87t-36 292l63 564q-18 16 -42 22t-79 6l9 43q18 6 57 6q123 0 108 -121l-57 -509q-22 -182 25.5 -259t185.5 -77q94 0 174.5 37.5t133 97t85 126.5t41.5 134l64 559h57z" />
    <glyph glyph-name="Umacron" unicode="&#x16a;" horiz-adv-x="1402" 
d="M575 1638l-6 -49h508l4 49h-506zM1346 1454h-64l-102 -907q-30 -257 -159.5 -387.5t-367.5 -130.5q-243 0 -337 126t-64 390l94 827q5 46 -13 66t-65 20q-61 0 -143 -12l-4 -43h168l-96 -844q-34 -299 74.5 -441.5t377.5 -142.5q268 0 414.5 138t181.5 434z" />
    <glyph glyph-name="umacron" unicode="&#x16b;" horiz-adv-x="1189" 
d="M958 1311l-4 -49h-548l6 49h546zM920 45q66 -8 151 -8l-10 -45q-32 -4 -100 -4q-55 0 -78 22t-17 82l19 150q-67 -128 -177 -197.5t-253 -69.5q-159 0 -218 87t-36 292l63 564q-18 16 -42 22t-79 6l9 43q18 6 57 6q123 0 108 -121l-57 -509q-22 -182 25.5 -259t185.5 -77
q94 0 174.5 37.5t133 97t85 126.5t41.5 134l64 559h57z" />
    <glyph glyph-name="Uring" unicode="&#x16e;" horiz-adv-x="1402" 
d="M811 1497q69 0 111.5 46t42.5 118q0 59 -32 93t-89 34q-68 0 -110 -45.5t-42 -118.5q0 -58 32 -92.5t87 -34.5zM815 1532q-38 0 -61 26t-23 70q0 56 31 90.5t80 34.5q39 0 61.5 -25.5t22.5 -68.5q0 -57 -30.5 -92t-80.5 -35zM1346 1454h-64l-102 -907
q-30 -257 -159.5 -387.5t-367.5 -130.5q-243 0 -337 126t-64 390l94 827q5 46 -13 66t-65 20q-61 0 -143 -12l-4 -43h168l-96 -844q-34 -299 74.5 -441.5t377.5 -142.5q268 0 414.5 138t181.5 434z" />
    <glyph glyph-name="uring" unicode="&#x16f;" horiz-adv-x="1189" 
d="M666 1128q-72 0 -111 42.5t-39 111.5q0 84 51.5 139.5t139.5 55.5q71 0 110 -42t39 -110q0 -86 -51.5 -141.5t-138.5 -55.5zM700 1442q-69 0 -106 -44.5t-37 -111.5q0 -55 28.5 -89t84.5 -34q71 0 108 45.5t37 112.5q0 54 -29 87.5t-86 33.5zM920 45q66 -8 151 -8
l-10 -45q-32 -4 -100 -4q-55 0 -78 22t-17 82l19 150q-67 -128 -177 -197.5t-253 -69.5q-159 0 -218 87t-36 292l63 564q-18 16 -42 22t-79 6l9 43q18 6 57 6q123 0 108 -121l-57 -509q-22 -182 25.5 -259t185.5 -77q94 0 174.5 37.5t133 97t85 126.5t41.5 134l64 559h57z
" />
    <glyph glyph-name="Uhungarumlaut" unicode="&#x170;" horiz-adv-x="1402" 
d="M805 1735l-156 -215l49 -4l174 204zM1012 1735l-156 -215l49 -4l174 204zM1346 1454h-64l-102 -907q-30 -257 -159.5 -387.5t-367.5 -130.5q-243 0 -337 126t-64 390l94 827q5 46 -13 66t-65 20q-61 0 -143 -12l-4 -43h168l-96 -844q-34 -299 74.5 -441.5t377.5 -142.5
q268 0 414.5 138t181.5 434z" />
    <glyph glyph-name="uhungarumlaut" unicode="&#x171;" horiz-adv-x="1189" 
d="M784 1452l-237 -326h-51l221 332zM782 1126h-51l221 332l68 -6zM920 45q66 -8 151 -8l-10 -45q-32 -4 -100 -4q-55 0 -78 22t-17 82l19 150q-67 -128 -177 -197.5t-253 -69.5q-159 0 -218 87t-36 292l63 564q-18 16 -42 22t-79 6l9 43q18 6 57 6q123 0 108 -121l-57 -509
q-22 -182 25.5 -259t185.5 -77q94 0 174.5 37.5t133 97t85 126.5t41.5 134l64 559h57z" />
    <glyph glyph-name="Uogonek" unicode="&#x172;" horiz-adv-x="1402" 
d="M1282 1454h64l-105 -907q-26 -218 -111 -349t-233 -184q-40 -22 -68 -40.5t-65 -50.5t-57.5 -73t-20.5 -86q0 -44 22 -66t58 -22q46 0 102 25l-2 -49q-50 -25 -110 -25q-125 0 -125 121q0 143 149 238q-75 -11 -135 -11q-269 0 -377.5 142.5t-74.5 441.5l96 844h-168
l4 43q82 12 143 12q47 0 65 -20t13 -66l-94 -827q-30 -264 64 -390t337 -126q238 0 367.5 130.5t159.5 387.5z" />
    <glyph glyph-name="uogonek" unicode="&#x173;" horiz-adv-x="1189" 
d="M1071 37l-10 -45q-31 -17 -52.5 -30t-56 -38.5t-56 -50.5t-38 -61t-16.5 -74q0 -44 22 -66t58 -22q48 0 102 24l-2 -49q-48 -24 -111 -24q-125 0 -125 120q0 168 203 267h-28q-55 0 -78 22t-17 82l19 150q-67 -128 -177 -197.5t-253 -69.5q-159 0 -218 87t-36 292l63 564
q-18 16 -42 22t-79 6l9 43q18 6 57 6q123 0 108 -121l-57 -509q-22 -182 25.5 -259t185.5 -77q94 0 174.5 37.5t133 97t85 126.5t41.5 134l64 559h57l-106 -938q66 -8 151 -8z" />
    <glyph glyph-name="Wcircumflex" unicode="&#x174;" horiz-adv-x="1886" 
d="M1092 1702l-195 -182l-51 10l223 211h51l176 -211l-55 -10zM1894 1464l60 -16l-617 -1448h-71l-213 1368l-525 -1368h-69l-273 1403h-143l4 43q60 12 119 12q45 0 65 -16.5t29 -65.5l242 -1292l526 1370h72l213 -1370z" />
    <glyph glyph-name="wcircumflex" unicode="&#x175;" horiz-adv-x="1421" 
d="M864 1427l-241 -276l-54 4l273 313h51l201 -313l-54 -4zM1397 991l55 -8l-420 -983h-59l-170 901l-371 -901h-59l-193 926q-32 14 -131 14l6 45q36 6 78 6q53 0 79.5 -22t35.5 -72l162 -829l372 915h60l168 -915z" />
    <glyph glyph-name="Ycircumflex" unicode="&#x176;" horiz-adv-x="1116" 
d="M711 1702l-195 -182l-51 10l223 211h51l176 -211l-55 -10zM1124 1464l58 -16l-564 -838l-69 -610h-62l70 610l-371 791h-143l4 45q54 12 103 12q51 0 69 -13t43 -67l330 -714z" />
    <glyph glyph-name="ycircumflex" unicode="&#x177;" horiz-adv-x="978" 
d="M616 1427l-241 -276l-53 4l272 313h51l201 -313l-53 -4zM952 991l60 -8l-609 -1208q-42 -85 -99.5 -124.5t-158.5 -39.5q-68 0 -116 24l6 56q58 -29 110 -29q78 0 124.5 25t86.5 106l103 207l-289 926q-29 14 -90 14l6 45q18 6 53 6q37 0 59.5 -19t37.5 -65l258 -835z
" />
    <glyph glyph-name="Ydieresis" unicode="&#x178;" horiz-adv-x="1116" 
d="M578 1573q-16 0 -26.5 11t-10.5 30q0 22 13.5 35.5t33.5 13.5q41 0 41 -41q0 -23 -14.5 -36t-36.5 -13zM809 1573q-16 0 -26.5 11t-10.5 30q0 22 13.5 35.5t33.5 13.5q39 0 39 -41q0 -23 -13.5 -36t-35.5 -13zM1124 1464l58 -16l-564 -838l-69 -610h-62l70 610l-371 791
h-143l4 45q54 12 103 12q51 0 69 -13t43 -67l330 -714z" />
    <glyph glyph-name="Zacute" unicode="&#x179;" horiz-adv-x="1200" 
d="M936 1720l-174 -204l-49 4l155 215zM1231 1409l-1110 -1356h946l-6 -53h-1014l-6 41l1110 1360h-928l4 45q98 8 236 8h764z" />
    <glyph glyph-name="zacute" unicode="&#x17a;" horiz-adv-x="917" 
d="M805 1452l-238 -326h-51l221 332zM909 930l-803 -879h703l-6 -51h-760l-4 53l803 879h-664l4 51h723z" />
    <glyph glyph-name="Zdotaccent" unicode="&#x17b;" horiz-adv-x="1200" 
d="M752 1573q-20 0 -31.5 12.5t-11.5 32.5q0 25 15 41t38 16q19 0 31 -12.5t12 -32.5q0 -25 -15 -41t-38 -16zM1231 1409l-1110 -1356h946l-6 -53h-1014l-6 41l1110 1360h-928l4 45q98 8 236 8h764z" />
    <glyph glyph-name="zdotaccent" unicode="&#x17c;" horiz-adv-x="917" 
d="M569 1255q-19 0 -31 14t-12 34q0 24 17 41.5t39 17.5q21 0 33 -13.5t12 -35.5q0 -25 -16.5 -41.5t-41.5 -16.5zM909 930l-803 -879h703l-6 -51h-760l-4 53l803 879h-664l4 51h723z" />
    <glyph glyph-name="Zcaron" unicode="&#x17d;" horiz-adv-x="1200" 
d="M770 1520h-51l-176 211l55 10l152 -185l192 185l51 -10zM1231 1409l-1110 -1356h946l-6 -53h-1014l-6 41l1110 1360h-928l4 45q98 8 236 8h764z" />
    <glyph glyph-name="zcaron" unicode="&#x17e;" horiz-adv-x="917" 
d="M584 1141h-52l-202 313l55 4l176 -276l242 276l51 -4zM909 930l-803 -879h703l-6 -51h-760l-4 53l803 879h-664l4 51h723z" />
    <glyph glyph-name="uni01EA" unicode="&#x1ea;" 
d="M965 23q-34 -19 -53 -30.5t-55 -38.5t-56 -51t-36.5 -60t-16.5 -74q0 -44 21.5 -66t57.5 -22q49 0 103 24l-2 -49q-50 -25 -111 -25q-125 0 -125 121q0 142 148 236q-73 -13 -138 -13q-183 0 -316 85t-199 231t-66 336q0 177 54 332.5t150.5 269.5t238 180t308.5 66
q182 0 315 -85t199 -231t66 -336q0 -284 -130.5 -500t-356.5 -300zM182 631q0 -273 139.5 -436.5t387.5 -163.5q200 0 356 102t241 281.5t85 406.5q0 271 -139 434.5t-386 163.5q-150 0 -278 -59.5t-217 -163.5t-139 -250t-50 -315z" />
    <glyph glyph-name="uni01EB" unicode="&#x1eb;" horiz-adv-x="1126" 
d="M743 14q-198 -109 -198 -243q0 -44 22 -66t58 -22q48 0 102 24l-2 -49q-50 -25 -111 -25q-125 0 -125 121q0 131 134 228q-44 -7 -76 -7q-179 0 -284 115.5t-105 323.5q0 273 142 431.5t364 158.5q179 0 283 -117t104 -326q0 -204 -83 -345.5t-225 -201.5zM217 418
q0 -183 90 -286t246 -103q197 0 318.5 142t121.5 386q0 185 -90 289t-246 104q-195 0 -317.5 -144t-122.5 -388z" />
    <glyph glyph-name="AEacute" unicode="&#x1fc;" horiz-adv-x="1984" 
d="M1391 1720l-174 -204l-50 4l156 215zM1888 1401h-702l-72 -643h649l-4 -53h-651l-76 -652h713l-6 -53h-774l79 705h-546l-408 -705h-61l841 1454h1035zM528 758h523l73 643h-225z" />
    <glyph glyph-name="aeacute" unicode="&#x1fd;" horiz-adv-x="1751" 
d="M1249 1452l-237 -326h-51l221 332zM1348 1004q162 0 245.5 -104t83.5 -275q0 -35 -12 -146h-727q-2 -25 -2 -76q0 -374 338 -374q111 0 198 35t121 67l11 -51q-45 -40 -136.5 -72.5t-205.5 -32.5q-159 0 -254 78.5t-121 231.5q-56 -144 -183 -227t-276 -83
q-127 0 -198.5 68t-71.5 184q0 153 107 243.5t315 90.5q157 0 305 -39l10 105q19 153 -48 239t-216 86q-140 0 -220.5 -61t-113.5 -184l-57 10q45 138 137 212.5t260 74.5q140 0 220 -64t95 -184q60 119 163 183.5t233 64.5zM944 528h670v2q26 195 -51.5 307.5t-221.5 112.5
q-154 0 -262 -108.5t-135 -313.5zM436 27q112 0 209.5 56t155 143t69.5 184l9 65q-151 37 -301 37q-363 0 -363 -285q0 -95 59 -147.5t162 -52.5z" />
    <glyph glyph-name="Oslashacute" unicode="&#x1fe;" 
d="M1069 1720l-174 -204l-49 4l155 215zM1278 1317q174 -177 174 -494q0 -237 -91.5 -429.5t-264 -305.5t-394.5 -113q-223 0 -370 125l-137 -176l-54 10l154 199q-174 177 -174 494q0 177 54 332.5t150.5 269.5t238 180t308.5 66q225 0 369 -125l137 176l54 -10zM182 631
q0 -285 150 -451l874 1123q-131 116 -340 116q-150 0 -278 -59.5t-217 -163.5t-139 -250t-50 -315zM709 31q200 0 356 102t241 281.5t85 406.5q0 283 -150 449l-874 -1123q131 -116 342 -116z" />
    <glyph glyph-name="oslashacute" unicode="&#x1ff;" horiz-adv-x="1126" 
d="M926 1452l-238 -326h-51l221 332zM930 903q121 -115 121 -342q0 -136 -38.5 -247t-106 -185t-159.5 -114t-200 -40q-139 0 -234 70l-86 -121l-49 10l101 140q-121 121 -121 340q0 273 142 431.5t364 158.5q136 0 231 -70l86 121l49 -11zM217 418q0 -188 96 -295l547 764
q-81 63 -203 63q-195 0 -317.5 -144t-122.5 -388zM553 29q197 0 318.5 142t121.5 386q0 193 -98 299l-547 -764q81 -63 205 -63z" />
    <glyph glyph-name="Scommaaccent" unicode="&#x218;" horiz-adv-x="1144" 
d="M246 1061q0 170 99.5 265t299.5 95q196 0 289.5 -64.5t93.5 -211.5l59 12q0 318 -432 318q-222 0 -346.5 -108.5t-124.5 -305.5q0 -79 27.5 -137.5t74 -94t107 -61t127.5 -42.5t133.5 -33t127 -38t107 -53t74 -83t27.5 -122q0 -78 -24 -140.5t-65.5 -104.5t-100.5 -70
t-126 -40.5t-145 -12.5q-136 0 -255.5 43t-186.5 94l-16 -60q186 -131 452 -131q267 0 398 115t131 320q0 77 -27.5 135t-74 93t-107 60t-127.5 41t-133.5 32t-127 38t-107 52t-74 80.5t-27.5 119.5zM555 -180q0 -133 -131 -180l-4 34q37 16 56.5 40t23.5 67q-64 0 -64 47
q0 63 62 63q57 0 57 -71z" />
    <glyph glyph-name="scommaaccent" unicode="&#x219;" horiz-adv-x="946" 
d="M510 1004q-93 0 -165 -24.5t-114.5 -66t-64 -92.5t-21.5 -108q0 -73 33.5 -122t87.5 -72.5t119 -39t130.5 -28.5t119.5 -33t87.5 -61.5t33.5 -104.5q0 -105 -76 -164t-254 -59q-210 0 -330 104l-16 -55q132 -103 342 -103q93 0 164 16.5t113 43t68.5 65.5t36 78.5
t9.5 87.5q0 70 -33.5 116.5t-87 69.5t-118.5 38t-130 28.5t-118.5 33t-87 60.5t-33.5 103q0 47 14.5 86t47 74t95 55t150.5 20q270 0 270 -200l60 10q0 23 -5.5 47t-18 53t-37.5 53.5t-60 45.5t-89.5 33t-121.5 12zM471 -180q0 -133 -131 -180l-4 34q37 16 56.5 40t23.5 67
q-64 0 -64 47q0 63 62 63q57 0 57 -71z" />
    <glyph glyph-name="uni021A" unicode="&#x21a;" horiz-adv-x="1009" 
d="M1114 1454l-6 -53h-492l-159 -1401h-62l158 1401h-494l7 43q92 10 268 10h780zM418 -109q57 0 57 -71q0 -133 -131 -180l-4 34q37 16 56.5 40t23.5 67q-64 0 -64 47q0 63 62 63z" />
    <glyph glyph-name="uni021B" unicode="&#x21b;" horiz-adv-x="649" 
d="M348 934l-84 -739q-10 -96 21 -132t98 -36q78 0 156 32l-4 -51q-80 -33 -164 -33q-93 0 -135.5 46.5t-28.5 175.5l84 737h-174l6 49h174l33 287h57l-33 -287h326l-6 -49h-326zM346 -109q57 0 57 -71q0 -133 -131 -180l-4 34q37 16 56.5 40t23.5 67q-63 0 -63 47
q0 63 61 63z" />
    <glyph glyph-name="uni0237" unicode="&#x237;" horiz-adv-x="389" 
d="M330 983h-58l-137 -1212q-11 -109 -112 -109q-38 0 -82 21l-9 -52q40 -20 91 -20q151 0 170 164z" />
    <glyph glyph-name="circumflex" unicode="&#x2c6;" horiz-adv-x="933" 
d="M729 1155l-53 -4l-178 276l-240 -276l-53 4l272 313h51z" />
    <glyph glyph-name="caron" unicode="&#x2c7;" horiz-adv-x="933" 
d="M678 1458l51 -4l-270 -313h-51l-203 313l55 4l176 -276z" />
    <glyph glyph-name="breve" unicode="&#x2d8;" horiz-adv-x="915" 
d="M664 1440q-26 -135 -83 -187.5t-149 -52.5q-90 0 -134.5 51.5t-43.5 188.5l-49 -2q0 -152 52 -218.5t169 -66.5q121 0 189 67.5t96 217.5z" />
    <glyph glyph-name="dotaccent" unicode="&#x2d9;" horiz-adv-x="509" 
d="M248 1255q25 0 41 16.5t16 41.5q0 22 -12 35.5t-33 13.5q-22 0 -38.5 -17.5t-16.5 -41.5q0 -20 12 -34t31 -14z" />
    <glyph glyph-name="ring" unicode="&#x2da;" horiz-adv-x="749" 
d="M354 1128q87 0 139 56t52 141q0 68 -39 110t-111 42q-88 0 -139 -55t-51 -140q0 -70 38.5 -112t110.5 -42zM358 1163q-56 0 -84 33.5t-28 89.5q0 67 37 111.5t106 44.5q57 0 86 -33.5t29 -87.5q0 -66 -37.5 -112t-108.5 -46z" />
    <glyph glyph-name="ogonek" unicode="&#x2db;" horiz-adv-x="684" 
d="M205 -270q0 -121 125 -121q62 0 110 24l2 50q-56 -25 -102 -25q-36 0 -58 22t-22 66q0 38 16.5 74t38 61t56 50.5t56 38.5t52.5 30l-35 12q-239 -100 -239 -282z" />
    <glyph glyph-name="tilde" unicode="&#x2dc;" horiz-adv-x="1034" 
d="M829 1440q-34 -191 -167 -191q-58 0 -150.5 49.5t-142.5 49.5q-49 0 -78 -36.5t-45 -111.5l-41 6q33 187 170 187q38 0 78 -15.5t69 -34t68 -34t76 -15.5q47 0 76 34.5t46 115.5z" />
    <glyph glyph-name="hungarumlaut" unicode="&#x2dd;" horiz-adv-x="933" 
d="M426 1458l-221 -332h51l238 326zM662 1458l-222 -332h52l237 326z" />
    <glyph glyph-name="uni0326" unicode="&#x326;" horiz-adv-x="0" 
d="M-205 -180q0 -133 -131 -180l-4 34q37 16 56.5 40t23.5 67q-64 0 -64 47q0 63 62 63q57 0 57 -71z" />
    <glyph glyph-name="Wgrave" unicode="&#x1e80;" horiz-adv-x="1886" 
d="M1092 1520l-54 -4l-125 204l70 15zM1894 1464l60 -16l-617 -1448h-71l-213 1368l-525 -1368h-69l-273 1403h-143l4 43q60 12 119 12q45 0 65 -16.5t29 -65.5l242 -1292l526 1370h72l213 -1370z" />
    <glyph glyph-name="wgrave" unicode="&#x1e81;" horiz-adv-x="1421" 
d="M858 1126h-51l-162 326l68 6zM1397 991l55 -8l-420 -983h-59l-170 901l-371 -901h-59l-193 926q-32 14 -131 14l6 45q36 6 78 6q53 0 79.5 -22t35.5 -72l162 -829l372 915h60l168 -915z" />
    <glyph glyph-name="Wacute" unicode="&#x1e82;" horiz-adv-x="1886" 
d="M1262 1720l-175 -204l-49 4l156 215zM1894 1464l60 -16l-617 -1448h-71l-213 1368l-525 -1368h-69l-273 1403h-143l4 43q60 12 119 12q45 0 65 -16.5t29 -65.5l242 -1292l526 1370h72l213 -1370z" />
    <glyph glyph-name="wacute" unicode="&#x1e83;" horiz-adv-x="1421" 
d="M1075 1452l-237 -326h-52l222 332zM1397 991l55 -8l-420 -983h-59l-170 901l-371 -901h-59l-193 926q-32 14 -131 14l6 45q36 6 78 6q53 0 79.5 -22t35.5 -72l162 -829l372 915h60l168 -915z" />
    <glyph glyph-name="Wdieresis" unicode="&#x1e84;" horiz-adv-x="1886" 
d="M958 1573q-16 0 -26 10.5t-10 30.5q0 22 13.5 35.5t33.5 13.5q41 0 41 -41q0 -23 -15 -36t-37 -13zM1190 1573q-16 0 -26.5 11t-10.5 30q0 22 13.5 35.5t33.5 13.5q39 0 39 -41q0 -23 -13.5 -36t-35.5 -13zM1894 1464l60 -16l-617 -1448h-71l-213 1368l-525 -1368h-69
l-273 1403h-143l4 43q60 12 119 12q45 0 65 -16.5t29 -65.5l242 -1292l526 1370h72l213 -1370z" />
    <glyph glyph-name="wdieresis" unicode="&#x1e85;" horiz-adv-x="1421" 
d="M725 1260q-43 0 -43 45q0 23 15 38t40 15q41 0 41 -45q0 -23 -15 -38t-38 -15zM961 1260q-19 0 -31 12t-12 33q0 23 16 38t39 15q41 0 41 -45q0 -23 -15 -38t-38 -15zM1397 991l55 -8l-420 -983h-59l-170 901l-371 -901h-59l-193 926q-32 14 -131 14l6 45q36 6 78 6
q53 0 79.5 -22t35.5 -72l162 -829l372 915h60l168 -915z" />
    <glyph glyph-name="Ygrave" unicode="&#x1ef2;" horiz-adv-x="1116" 
d="M711 1520l-54 -4l-125 204l70 15zM1124 1464l58 -16l-564 -838l-69 -610h-62l70 610l-371 791h-143l4 45q54 12 103 12q51 0 69 -13t43 -67l330 -714z" />
    <glyph glyph-name="ygrave" unicode="&#x1ef3;" horiz-adv-x="978" 
d="M608 1126h-51l-162 326l68 6zM952 991l60 -8l-609 -1208q-42 -85 -99.5 -124.5t-158.5 -39.5q-68 0 -116 24l6 56q58 -29 110 -29q78 0 124.5 25t86.5 106l103 207l-289 926q-29 14 -90 14l6 45q18 6 53 6q37 0 59.5 -19t37.5 -65l258 -835z" />
    <glyph glyph-name="uni1EF8" unicode="&#x1ef8;" horiz-adv-x="1116" 
d="M590 1628q-34 0 -54 -23t-32 -81l-39 6q27 145 129 145q41 0 112 -23.5t105 -23.5q33 0 53.5 23t32.5 80l39 -5q-14 -76 -43 -111.5t-86 -35.5q-41 0 -111.5 24.5t-105.5 24.5zM1124 1464l58 -16l-564 -838l-69 -610h-62l70 610l-371 791h-143l4 45q54 12 103 12
q51 0 69 -13t43 -67l330 -714z" />
    <glyph glyph-name="uni1EF9" unicode="&#x1ef9;" horiz-adv-x="978" 
d="M440 1348q-49 0 -78 -36.5t-45 -111.5l-41 6q33 187 170 187q38 0 78 -15.5t69 -34t68 -34t76 -15.5q47 0 76.5 34.5t46.5 115.5l41 -4q-34 -191 -168 -191q-58 0 -150.5 49.5t-142.5 49.5zM952 991l60 -8l-609 -1208q-42 -85 -99.5 -124.5t-158.5 -39.5q-68 0 -116 24
l6 56q58 -29 110 -29q78 0 124.5 25t86.5 106l103 207l-289 926q-29 14 -90 14l6 45q18 6 53 6q37 0 59.5 -19t37.5 -65l258 -835z" />
    <glyph glyph-name="endash" unicode="&#x2013;" horiz-adv-x="1134" 
d="M1055 612h-889l-4 -49h887z" />
    <glyph glyph-name="emdash" unicode="&#x2014;" horiz-adv-x="1728" 
d="M1649 612h-1483l-4 -49h1480z" />
    <glyph glyph-name="quoteleft" unicode="&#x2018;" horiz-adv-x="335" 
d="M199 1247q0 -47 20 -71.5t51 -24.5q27 0 41.5 17t14.5 44q-28 0 -48 18t-20 48q0 47 27 81t55 50l-21 37q-55 -29 -87.5 -80t-32.5 -119z" />
    <glyph glyph-name="quoteright" unicode="&#x2019;" horiz-adv-x="335" 
d="M344 1337q0 47 -20.5 72t-51.5 25q-27 0 -41 -17t-14 -45q28 0 48 -18t20 -47q0 -47 -27 -81t-55 -50l20 -37q55 29 88 79.5t33 118.5z" />
    <glyph glyph-name="quotesinglbase" unicode="&#x201a;" horiz-adv-x="296" 
d="M221 10q0 47 -20 73t-51 26q-27 0 -41.5 -18t-14.5 -44q27 0 47.5 -18.5t20.5 -46.5q0 -49 -27 -83.5t-55 -50.5l20 -36q55 29 88 80.5t33 117.5z" />
    <glyph glyph-name="quotedblleft" unicode="&#x201c;" horiz-adv-x="559" 
d="M199 1249q0 -48 19 -73t50 -25q28 0 42 17t14 44q-26 0 -47 19t-21 47q0 48 27.5 82.5t56.5 50.5l-21 37q-55 -29 -87.5 -80.5t-32.5 -118.5zM424 1247q0 -47 19.5 -71.5t50.5 -24.5q27 0 41 17t14 44q-28 0 -48 18t-20 48q0 47 27.5 81t56.5 50l-20 37q-55 -29 -88 -80
t-33 -119z" />
    <glyph glyph-name="quotedblright" unicode="&#x201d;" horiz-adv-x="559" 
d="M344 1337q0 47 -20.5 72t-51.5 25q-27 0 -41 -17t-14 -45q28 0 48 -18t20 -47q0 -47 -27 -81t-55 -50l20 -37q55 29 88 79.5t33 118.5zM567 1335q0 48 -19 73.5t-50 25.5q-28 0 -42 -17.5t-14 -44.5q26 0 47 -18.5t21 -46.5q0 -48 -27.5 -82.5t-56.5 -50.5l20 -37
q55 29 88 80.5t33 117.5z" />
    <glyph glyph-name="quotedblbase" unicode="&#x201e;" horiz-adv-x="520" 
d="M444 10q0 48 -19 73.5t-50 25.5q-28 0 -42 -17.5t-14 -44.5q26 0 47 -18.5t21 -46.5q0 -48 -27.5 -83t-56.5 -51l21 -36q55 29 87.5 80t32.5 118zM221 10q0 47 -20 73t-51 26q-27 0 -41.5 -18t-14.5 -44q27 0 47.5 -18.5t20.5 -46.5q0 -49 -27 -83.5t-55 -50.5l20 -36
q55 29 88 80.5t33 117.5z" />
    <glyph glyph-name="dagger" unicode="&#x2020;" horiz-adv-x="1140" 
d="M1040 1014l-16 -66l-346 13l-103 -961h-59l115 961l-348 -13v66l352 -15l41 455h69l-61 -455z" />
    <glyph glyph-name="daggerdbl" unicode="&#x2021;" horiz-adv-x="1163" 
d="M1047 993l-324 13l-53 -476l325 13l4 -62l-333 13l-48 -494h-65l63 494l-335 -13l16 62l324 -13l55 476l-328 -13l-2 62l334 -13l35 412h69l-57 -412l336 13z" />
    <glyph glyph-name="bullet" unicode="&#x2022;" horiz-adv-x="495" 
d="M272 477q62 0 103 45.5t41 114.5q0 55 -30.5 89t-80.5 34q-62 0 -102.5 -45.5t-40.5 -114.5q0 -55 30 -89t80 -34z" />
    <glyph glyph-name="ellipsis" unicode="&#x2026;" horiz-adv-x="1144" 
d="M135 -25q33 0 54.5 21.5t21.5 56.5q0 26 -15.5 42t-41.5 16q-33 0 -53.5 -22.5t-20.5 -55.5q0 -27 15 -42.5t40 -15.5zM553 -25q33 0 53.5 21.5t20.5 56.5q0 27 -15.5 42.5t-42.5 15.5q-32 0 -52.5 -22.5t-20.5 -55.5q0 -27 15 -42.5t42 -15.5zM993 -25q33 0 53.5 21.5
t20.5 56.5q0 26 -15.5 42t-41.5 16q-33 0 -53.5 -22.5t-20.5 -55.5q0 -27 15 -42.5t42 -15.5z" />
    <glyph glyph-name="perthousand" unicode="&#x2030;" horiz-adv-x="2408" 
d="M563 668q96 0 168 35.5t116 100.5t65.5 150.5t21.5 190.5q0 155 -69 242.5t-210 87.5q-96 0 -168.5 -36t-117 -101t-66.5 -150t-22 -189q0 -155 69.5 -243t212.5 -88zM1518 1475l-1196 -1495l57 -5l1198 1495zM567 711q-118 0 -176.5 79t-58.5 216q0 191 81 308.5
t236 117.5q119 0 176.5 -78t57.5 -215q0 -125 -31.5 -219t-104 -151.5t-180.5 -57.5zM1243 -25q97 0 169.5 35.5t116.5 101t65.5 151t21.5 190.5q0 155 -69 242t-212 87q-127 0 -212 -63.5t-122.5 -167.5t-37.5 -244q0 -155 69.5 -243.5t210.5 -88.5zM1995 -25
q77 0 139 23.5t105 65.5t72 102t42.5 131t13.5 154q0 157 -69 244t-213 87q-127 0 -213 -63.5t-124 -168t-38 -243.5q0 -156 70 -244t215 -88zM1249 18q-118 0 -175.5 79t-57.5 216q0 191 80 308.5t235 117.5q119 0 176.5 -78t57.5 -215q0 -193 -79 -310.5t-237 -117.5z
M1997 18q-119 0 -177.5 79.5t-58.5 215.5q0 192 81 309t239 117q118 0 175.5 -79t57.5 -216q0 -124 -32 -217.5t-104.5 -151t-180.5 -57.5z" />
    <glyph glyph-name="guilsinglleft" unicode="&#x2039;" horiz-adv-x="612" 
d="M535 891l-316 -313l258 -279l-37 -37l-278 309l2 17l338 340z" />
    <glyph glyph-name="guilsinglright" unicode="&#x203a;" horiz-adv-x="694" 
d="M274 938l279 -309l-2 -15l-340 -342l-31 37l316 314l-258 278z" />
    <glyph glyph-name="fraction" unicode="&#x2044;" horiz-adv-x="673" 
d="M987 1475l-1194 -1495l60 -5l1191 1495z" />
    <glyph glyph-name="Euro" unicode="&#x20ac;" horiz-adv-x="1533" 
d="M1042 1475q72 0 134 -12.5t108.5 -35.5t73.5 -41t57 -43l-20 -57q-46 38 -85.5 63t-114.5 48.5t-159 23.5q-208 0 -357.5 -140.5t-207.5 -426.5h719l-14 -51h-961l14 51h179q32 163 95 284.5t148 194t182.5 107.5t208.5 35zM893 29q124 0 234 43t169 90l7 -58
q-192 -129 -424 -129q-110 0 -199 33t-157 101t-105.5 181.5t-38.5 264.5h-217l14 51h957l-15 -51h-676q3 -267 123 -396.5t328 -129.5z" />
    <glyph glyph-name="trademark" unicode="&#x2122;" horiz-adv-x="1122" 
d="M1104 903q24 -4 61 -4l-2 -29q-42 -6 -61 -6q-40 0 -37 41l37 475l-234 -432h-32l-146 430l-69 -506h-41l73 527h-223l-59 -527h-43l59 527h-184l2 35h510l141 -439l236 439h57z" />
    <glyph glyph-name="minus" unicode="&#x2212;" horiz-adv-x="1021" 
d="M922 676h-754l-6 -53h751z" />
    <glyph glyph-name="approxequal" unicode="&#x2248;" horiz-adv-x="1021" 
d="M922 930q-20 -87 -63.5 -132.5t-119.5 -45.5q-63 0 -186 36.5t-184 36.5q-101 0 -129 -135l-45 6q20 88 63 133t119 45q63 0 187.5 -36.5t185.5 -36.5q51 0 81.5 31.5t45.5 103.5zM889 602q-20 -88 -63 -133t-119 -45q-63 0 -186.5 37t-184.5 37q-101 0 -129 -136l-45 7
q20 88 63 133t119 45q63 0 187.5 -37t185.5 -37q51 0 81.5 31.5t45.5 103.5z" />
    <glyph glyph-name="notequal" unicode="&#x2260;" horiz-adv-x="1138" 
d="M1034 807h-338l-135 -318h434l-4 -51h-452l-103 -239h-59l102 239h-317l4 51h336l135 318h-432l4 51h450l103 242h59l-102 -242h319z" />
    <glyph glyph-name="uniF8FF" unicode="&#xf8ff;" horiz-adv-x="2975" 
d="M1415 1194q0 54 37 90.5t90 36.5q54 0 90.5 -36.5t36.5 -90.5q0 -53 -36.5 -89t-90.5 -36q-53 0 -90 36.5t-37 88.5zM451 553h-246q2 268 20 643h205q19 -399 21 -643zM1421 553q0 130 9 301h-125l4 -133q12 -8 32 -8q25 0 37 10l-2 -152q-26 -30 -137 -30
q-83 0 -126.5 34.5t-43.5 100.5q0 28 5 102t5 76h-45v162l244 61l2 -35h365q20 -131 20 -489h-244zM674 543q-92 0 -141.5 59.5t-49.5 179.5q0 127 69.5 199t207.5 72q252 0 252 -240v-260h-168l-17 125q-13 -67 -48.5 -101t-104.5 -34zM2234 553h-233q0 56 2 117.5t2 70.5
q0 33 -6.5 47.5t-24.5 14.5q-23 0 -31 -15t-8 -45q0 -14 3.5 -75t3.5 -115h-234q4 367 23 489h163q13 -97 13 -155q2 15 5.5 31t15 42t28.5 45t47 33.5t68 14.5q86 0 119 -51t36 -166zM2771 797q0 -121 -63.5 -187.5t-192.5 -66.5q-127 0 -189.5 68t-62.5 190q0 39 7 73
t25 67.5t46.5 57.5t74.5 39t105 15q250 0 250 -256zM801 768q0 53 -49 53q-25 0 -35 -11.5t-10 -37.5q0 -65 45 -65q49 0 49 61zM2564 768q0 53 -47 53q-23 0 -33 -11.5t-10 -37.5q0 -65 41 -65q49 0 49 61zM877 487h213q24 -108 24 -249q0 -186 -70 -263t-245 -77
q-127 0 -181 34v170q48 -32 144 -32q43 0 70.5 13t33.5 23.5t8 20.5q-40 -23 -102 -23q-184 0 -184 170v27h-111l4 -133q12 -8 33 -8q30 0 35 10l2 -150q-45 -30 -141 -30q-93 0 -129.5 35t-36.5 114q0 24 3 88t3 74h-37v164l240 59l-2 -37h364l-2 -243q0 -33 6 -44.5
t25 -11.5t26 12.5t7 43.5v243zM1503 498q76 0 120 -61.5t44 -176.5q0 -132 -71 -201t-212 -69q2 -31 2 -80h-243q0 155 4.5 281t10 209t5.5 87h160q4 -18 9 -72.5t5 -82.5q3 16 7 29.5t16.5 41t29 46.5t46.5 34t67 15zM2193 266q0 -46 -8 -78h-254q23 -36 103 -36
q68 0 112 24v-153q-47 -33 -161 -33q-287 0 -287 254q0 117 66.5 185.5t189.5 68.5q113 0 176 -61t63 -171zM2003 223q6 56 -35 56q-47 0 -47 -56h82zM1372 147q11 0 26.5 5t32.5 24t17 47q0 47 -39 47q-47 0 -47 -63q0 -45 10 -60zM2200 27q0 -21 13 -34t34 -13
q23 0 37 12.5t14 34.5q0 21 -14 34t-35 13q-22 0 -35.5 -12.5t-13.5 -34.5zM2212 27q0 36 37 36t37 -36q0 -37 -37 -37t-37 37zM2269 4l-12 19q14 0 14 14t-20 14h-23v-47h10v19h11l8 -19h12zM2253 31h-15v12h15q8 0 8 -6t-8 -6z" />
    <glyph glyph-name="i.loclTRK" horiz-adv-x="389" 
d="M244 1255q25 0 41 16.5t16 41.5q0 22 -12 35.5t-33 13.5q-22 0 -38.5 -17.5t-16.5 -41.5q0 -20 12 -34t31 -14zM135 43l109 940h-58l-100 -877q-6 -42 -6 -63q0 -30 18 -42.5t62 -12.5t94 4l6 45q-76 0 -125 6z" />
    <glyph glyph-name="f_t" horiz-adv-x="1159" 
d="M852 934l-82 -739q-11 -96 20 -132t99 -36q84 0 158 32v-51q-85 -33 -168 -33q-46 0 -77.5 9t-56 32.5t-32.5 68.5t0 112l82 737h-424l-107 -934h-57l106 934h-196l6 49h194l27 231q15 131 75 196t156 65q75 0 146 -29l-10 -51q-74 28 -138 28q-148 0 -172 -209l-24 -231
h424l33 287h57l-33 -287h332l-4 -49h-334z" />
    <glyph glyph-name="caron.alt" horiz-adv-x="565" 
d="M502 1454l-56 6l-90 -373l50 -4z" />
    <glyph glyph-name="acute.case" horiz-adv-x="632" 
d="M360 1735l-155 -215l49 -4l174 204z" />
    <glyph glyph-name="breve.case" horiz-adv-x="817" 
d="M567 1739q-18 -95 -61.5 -134.5t-118.5 -39.5q-69 0 -102 39.5t-33 134.5l-47 -4q0 -222 176 -222q189 0 231 222z" />
    <glyph glyph-name="caron.case" horiz-adv-x="860" 
d="M604 1741l51 -10l-223 -211h-51l-176 211l55 10l152 -185z" />
    <glyph glyph-name="circumflex.case" horiz-adv-x="860" 
d="M655 1530l-55 -10l-149 184l-195 -184l-51 10l223 211h51z" />
    <glyph glyph-name="dieresis.case" horiz-adv-x="727" 
d="M242 1573q22 0 36.5 13t14.5 36q0 41 -41 41q-20 0 -33.5 -13.5t-13.5 -35.5q0 -19 10.5 -30t26.5 -11zM473 1573q22 0 35.5 13t13.5 36q0 41 -39 41q-20 0 -33.5 -13.5t-13.5 -35.5q0 -19 10.5 -30t26.5 -11z" />
    <glyph glyph-name="dotaccent.case" horiz-adv-x="505" 
d="M248 1573q23 0 38 16t15 41q0 20 -12 32.5t-31 12.5q-23 0 -38 -16t-15 -41q0 -20 11.5 -32.5t31.5 -12.5z" />
    <glyph glyph-name="grave.case" horiz-adv-x="587" 
d="M274 1735l109 -215l-53 -4l-125 204z" />
    <glyph glyph-name="hungarumlaut.case" horiz-adv-x="837" 
d="M360 1735l-155 -215l49 -4l174 204zM565 1735l-153 -215l49 -4l172 204z" />
    <glyph glyph-name="macron.case" horiz-adv-x="921" 
d="M211 1638l-6 -49h508l4 49h-506z" />
    <glyph glyph-name="ring.case" horiz-adv-x="681" 
d="M324 1497q69 0 111 46t42 118q0 59 -32 93t-89 34q-68 0 -109.5 -45.5t-41.5 -118.5q0 -58 32 -92.5t87 -34.5zM328 1532q-38 0 -61 26t-23 70q0 56 30.5 90.5t79.5 34.5q39 0 61.5 -25.5t22.5 -68.5q0 -57 -30.5 -92t-79.5 -35z" />
    <glyph glyph-name="tilde.case" horiz-adv-x="880" 
d="M676 1726q-14 -76 -43 -111.5t-86 -35.5q-41 0 -111.5 24.5t-105.5 24.5q-34 0 -54 -23t-32 -81l-39 6q27 145 129 145q41 0 112 -23.5t105 -23.5q33 0 53.5 23t32.5 80z" />
    <glyph glyph-name="IJacute" horiz-adv-x="1130" 
d="M469 1735l-156 -215l49 -4l175 204zM1157 1735l-156 -215l50 -4l174 204zM307 1454l-166 -1454h62l166 1454h-62zM1055 1454h-60l-129 -1120q-17 -157 -93 -231t-228 -74q-147 0 -248 59l-12 -55q35 -17 60.5 -27t79.5 -20.5t116 -10.5q180 0 273.5 85.5t113.5 265.5z
" />
    <glyph glyph-name="ijacute" horiz-adv-x="718" 
d="M412 1458l-222 -332h52l237 326zM829 1458l-221 -332h51l238 326zM135 43l109 940h-58l-100 -877q-6 -42 -6 -63q0 -30 18 -42.5t62 -12.5t94 4l6 45q-76 0 -125 6zM659 983h-57l-137 -1212q-11 -109 -113 -109q-38 0 -82 21l-8 -52q40 -20 90 -20q151 0 170 164z" />
    </font>
</defs>
</svg>
