<?xml version="1.0" standalone="no"?>
<!DOCTYPE svg PUBLIC "-//W3C//DTD SVG 1.1//EN" "http://www.w3.org/Graphics/SVG/1.1/DTD/svg11.dtd" >
<svg xmlns="http://www.w3.org/2000/svg" xmlns:xlink="http://www.w3.org/1999/xlink" version="1.1">
<metadata>
Created by FontForge 20170731 at Wed Sep 15 10:16:27 2021
 By Aleksey,,,
Latinotype
</metadata>
<defs>
<font id="Corporative-MediumItalic" horiz-adv-x="1572" >
  <font-face 
    font-family="Corporative Medium"
    font-weight="500"
    font-style="italic"
    font-stretch="normal"
    units-per-em="2048"
    panose-1="0 0 6 0 0 0 0 0 0 0"
    ascent="1659"
    descent="-389"
    x-height="983"
    cap-height="1454"
    bbox="-438 -426 2767 1812"
    underline-thickness="102"
    underline-position="-307"
    slope="-6.5"
    unicode-range="U+0020-FB02"
  />
<missing-glyph horiz-adv-x="1290" 
d="M205 1454h880v-1454h-880v1454zM338 1382l307 -569l307 569h-614zM600 727l-313 582v-1164zM692 727l312 -582v1164zM645 641l-307 -569h614z" />
    <glyph glyph-name="fi" unicode="fi" horiz-adv-x="1138" 
d="M922 164q46 -12 122 -12l-22 -158q-62 -10 -152 -10q-93 0 -126.5 33t-24.5 122l76 676h-346l-93 -815h-198l90 815h-174l20 168h174l17 154q20 176 124 257t289 81q154 0 267 -48l-33 -174q-93 43 -219 43q-106 0 -162.5 -38.5t-65.5 -124.5l-16 -150h545z" />
    <glyph glyph-name="fl" unicode="fl" horiz-adv-x="1165" 
d="M926 164q49 -14 155 -14l-22 -156q-65 -10 -154 -10q-108 0 -149.5 37.5t-30.5 146.5l74 647h-353l-90 -815h-200l92 815h-174l20 168h172l19 160q18 169 101.5 250.5t215.5 81.5q91 0 193 -37l-31 -172q-62 30 -137 30q-125 0 -144 -155l-18 -158h352l53 471h199z" />
    <glyph glyph-name=".notdef" horiz-adv-x="1290" 
d="M205 1454h880v-1454h-880v1454zM338 1382l307 -569l307 569h-614zM600 727l-313 582v-1164zM692 727l312 -582v1164zM645 641l-307 -569h614z" />
    <glyph glyph-name=".null" horiz-adv-x="0" 
 />
    <glyph glyph-name="nonmarkingreturn" horiz-adv-x="682" 
 />
    <glyph glyph-name="space" unicode=" " horiz-adv-x="536" 
 />
    <glyph glyph-name="exclam" unicode="!" horiz-adv-x="569" 
d="M338 1454l-109 -1001h187l137 1001h-215zM258 -25q73 0 121.5 45.5t48.5 124.5q0 56 -29.5 90.5t-89.5 34.5q-76 0 -123 -49t-47 -125q0 -55 31 -88t88 -33z" />
    <glyph glyph-name="quotedbl" unicode="&#x22;" horiz-adv-x="684" 
d="M254 1475l-74 -476h152l106 453zM551 1475l-76 -476h154l104 453z" />
    <glyph glyph-name="numbersign" unicode="#" horiz-adv-x="1427" 
d="M1296 799h-223l-88 -267h229l-51 -143h-227l-88 -266h-168l90 266h-215l-88 -266h-166l88 266h-229l51 143h227l88 267h-231l51 143h227l91 266h165l-88 -266h213l90 266h166l-90 -266h228zM817 532l90 267h-215l-88 -267h213z" />
    <glyph glyph-name="dollar" unicode="$" horiz-adv-x="1296" 
d="M788 788q64 -20 108 -37.5t96 -47.5t83 -64.5t52.5 -87.5t21.5 -117q0 -191 -124.5 -303t-340.5 -131l-29 -209h-178l27 209q-131 11 -227 46t-138 69l47 192q26 -19 65.5 -40t117.5 -47.5t159 -35.5l62 465q-62 20 -106.5 38t-95.5 49t-82.5 67t-53 90.5t-21.5 120.5
q0 188 120.5 306.5t344.5 131.5l29 207h178l-29 -213q301 -41 324 -289l-199 -41q-13 118 -147 154zM430 1038q0 -72 48 -116.5t138 -77.5l58 434q-120 -12 -182 -76t-62 -164zM709 184q123 11 180 62.5t57 154.5q0 69 -47.5 112.5t-136.5 78.5z" />
    <glyph glyph-name="percent" unicode="%" horiz-adv-x="1824" 
d="M545 668q105 0 183 36t124 101.5t68 149.5t22 188q0 157 -74.5 244.5t-232.5 87.5q-105 0 -183.5 -36t-124 -101t-67.5 -149t-22 -188q0 -158 74.5 -245.5t232.5 -87.5zM1520 1475l-1198 -1491l182 -9l1196 1491zM559 803q-153 0 -153 209q0 154 52.5 239.5t159.5 85.5
q156 0 156 -204q0 -157 -54 -243.5t-161 -86.5zM1386 -25q105 0 183.5 36t124.5 101t68 149t22 188q0 158 -74 245.5t-231 87.5q-105 0 -183.5 -35.5t-125 -101t-69 -149t-22.5 -187.5q0 -158 74.5 -246t232.5 -88zM1403 113q-154 0 -154 206q0 154 53 241t160 87
q154 0 154 -209q0 -157 -53 -241t-160 -84z" />
    <glyph glyph-name="ampersand" unicode="&#x26;" horiz-adv-x="1638" 
d="M1599 844q-129 -432 -364 -654l205 -215l-228 -26l-125 131q-213 -125 -489 -125q-228 0 -343.5 79.5t-115.5 229.5q0 155 88 255t271 190q-69 78 -103.5 151.5t-34.5 171.5q0 89 28.5 167.5t84 141t146 98.5t204.5 36q177 0 266 -83t89 -216q0 -79 -26 -149.5
t-64 -120.5t-95 -96.5t-106.5 -75.5t-110.5 -58l332 -350q193 181 295 530zM805 1298q-114 0 -180 -69.5t-66 -188.5q0 -67 26 -124.5t85 -127.5q53 25 90 46t80 53t69 64.5t44 78.5t18 98q0 80 -43.5 125t-122.5 45zM635 139q176 0 323 78l-354 377q-128 -65 -183.5 -126
t-55.5 -159q0 -80 67 -125t203 -45z" />
    <glyph glyph-name="quotesingle" unicode="'" horiz-adv-x="389" 
d="M254 1475l-74 -476h152l106 453z" />
    <glyph glyph-name="parenleft" unicode="(" horiz-adv-x="796" 
d="M401 494q0 125 17.5 241t46.5 207t69.5 173t83.5 143t91.5 112.5t91 85t84.5 57.5l-17 166q-57 -25 -117 -65t-125.5 -100.5t-125 -133.5t-114 -169t-94.5 -202.5t-63.5 -238.5t-23.5 -272q0 -142 26 -272.5t68 -227.5t97 -177t111.5 -130.5t113.5 -79.5l57 166
q-48 34 -93.5 91t-88.5 143t-69 211.5t-26 271.5z" />
    <glyph glyph-name="parenright" unicode=")" horiz-adv-x="925" 
d="M524 797q0 -145 -22.5 -277t-62.5 -233t-88 -186t-104.5 -147.5t-106.5 -105t-99 -71.5l16 -166q82 36 167 100.5t176 170.5t161 234.5t115 305.5t45 371q0 142 -26 272t-68 227t-97 177t-111.5 130.5t-113.5 79.5l-57 -166q38 -26 74 -66t73.5 -104t65.5 -140.5
t45.5 -182t17.5 -223.5z" />
    <glyph glyph-name="asterisk" unicode="*" horiz-adv-x="882" 
d="M629 1202l172 -96l-82 -123l-137 115l-13 -183h-143l31 183l-164 -115l-55 123l196 96l-172 96l84 123l135 -114l13 182h145l-33 -182l166 114l53 -123z" />
    <glyph glyph-name="plus" unicode="+" horiz-adv-x="995" 
d="M915 735l-20 -172h-285l-37 -317h-184l37 317h-287l21 172h284l37 318h187l-37 -318h284z" />
    <glyph glyph-name="comma" unicode="," horiz-adv-x="409" 
d="M350 63q0 86 -38.5 134.5t-102.5 48.5q-62 0 -99.5 -40.5t-37.5 -115.5q49 0 80.5 -23.5t31.5 -68.5q0 -35 -11 -63.5t-32.5 -49.5t-39 -33.5t-44.5 -27.5l52 -98q109 51 175 136.5t66 200.5z" />
    <glyph glyph-name="hyphen" unicode="-" horiz-adv-x="765" 
d="M709 672h-547l-23 -168h549z" />
    <glyph glyph-name="period" unicode="." horiz-adv-x="405" 
d="M176 -25q73 0 121.5 45.5t48.5 124.5q0 56 -29.5 90.5t-89.5 34.5q-76 0 -123 -49t-47 -125q0 -55 31 -88t88 -33z" />
    <glyph glyph-name="slash" unicode="/" horiz-adv-x="987" 
d="M823 1659l-856 -2028h197l856 2028h-197z" />
    <glyph glyph-name="zero" unicode="0" horiz-adv-x="1249" 
d="M633 -25q157 0 272.5 69t183.5 195t100 287t32 361q0 136 -22.5 240.5t-71.5 184t-133 121.5t-201 42q-127 0 -229.5 -45.5t-173.5 -126.5t-118.5 -196t-69.5 -250t-22 -292q0 -136 25.5 -242t78.5 -185t141 -121t208 -42zM657 156q-268 0 -268 401q0 359 103.5 548
t279.5 189q70 0 118.5 -31t74.5 -90.5t36.5 -132t10.5 -170.5q0 -123 -11 -226.5t-37.5 -195t-66.5 -155.5t-101 -100.5t-139 -36.5z" />
    <glyph glyph-name="one" unicode="1" horiz-adv-x="808" 
d="M590 170h203l-21 -170h-674l21 170h262l123 1071q-56 -38 -172.5 -95t-202.5 -87l-14 176q106 40 223 100.5t192 118.5h209z" />
    <glyph glyph-name="two" unicode="2" horiz-adv-x="1105" 
d="M1118 1096q0 -105 -38.5 -196t-102 -157t-140.5 -124.5t-158 -110t-151.5 -101t-124 -110t-71.5 -125.5h694l-20 -172h-908l11 84q11 107 61.5 198t122.5 155.5t156 122.5t166 112t149.5 110.5t109 131t41.5 161.5q0 106 -62 165.5t-179 59.5q-109 0 -174.5 -46.5
t-96.5 -141.5l-192 35q46 158 172.5 243t314.5 85q205 0 312.5 -99t107.5 -280z" />
    <glyph glyph-name="three" unicode="3" horiz-adv-x="1071" 
d="M825 764q211 -77 211 -315q0 -209 -141.5 -341.5t-398.5 -132.5q-175 0 -284 70.5t-134 216.5l188 60q11 -80 77.5 -126t178.5 -46q139 0 226.5 77.5t87.5 223.5q0 107 -71.5 165t-193.5 58h-116l18 164h117q121 0 197.5 69.5t76.5 194.5q0 90 -55.5 144t-163.5 54
q-112 0 -175 -41t-93 -126l-184 38q97 304 475 304q190 0 292.5 -95.5t102.5 -253.5q0 -126 -60.5 -218.5t-177.5 -143.5z" />
    <glyph glyph-name="four" unicode="4" horiz-adv-x="1112" 
d="M934 596h231l-20 -172h-232l-47 -424h-207l48 424h-629l-29 147l782 883h201zM274 596h451l68 592z" />
    <glyph glyph-name="five" unicode="5" horiz-adv-x="1079" 
d="M1069 1274h-557l-59 -393q76 12 163 12q212 0 319 -101.5t107 -283.5q0 -235 -144.5 -384t-387.5 -149q-359 0 -412 283l187 61q11 -79 74.5 -124t177.5 -45q142 0 223.5 91t81.5 244q0 113 -70.5 179.5t-218.5 66.5q-36 0 -71.5 -3t-72.5 -9t-61 -10t-62.5 -12.5
t-49.5 -10.5l116 768h740z" />
    <glyph glyph-name="six" unicode="6" horiz-adv-x="1134" 
d="M731 895q183 0 283 -106.5t100 -284.5q0 -149 -58.5 -268t-176 -190t-275.5 -71q-211 0 -325.5 148.5t-114.5 427.5q0 190 37 353t111.5 292.5t198.5 204t286 74.5q170 0 256 -81t94 -216l-191 -35q-9 160 -196 160q-157 0 -256.5 -133.5t-128.5 -399.5q148 125 356 125z
M633 150q128 0 209.5 88t81.5 249q0 117 -60.5 183.5t-167.5 66.5q-180 0 -331 -135v-49q0 -115 20 -196t58 -125t84 -63t106 -19z" />
    <glyph glyph-name="seven" unicode="7" horiz-adv-x="815" 
d="M90 1454h889l-21 -176q-424 -515 -712 -1278h-209q294 729 721 1274h-688z" />
    <glyph glyph-name="eight" unicode="8" horiz-adv-x="1144" 
d="M872 754q126 -61 182 -140t56 -188q0 -96 -30.5 -176t-92.5 -142.5t-166 -97.5t-241 -35q-228 0 -339.5 88.5t-111.5 251.5q0 150 76 253t227 180q-91 51 -133.5 124t-42.5 179q0 190 129.5 307t366.5 117q190 0 287.5 -90t97.5 -238q0 -139 -66 -232.5t-199 -160.5z
M735 1298q-125 0 -203.5 -58t-78.5 -171q0 -95 58 -148t200 -102q55 25 92 49.5t70 59.5t49 82.5t16 109.5q0 88 -53 133t-150 45zM604 152q142 0 224.5 67.5t82.5 196.5q0 95 -74.5 155.5t-246.5 112.5q-116 -56 -186 -138.5t-70 -189.5q0 -103 72 -153.5t198 -50.5z" />
    <glyph glyph-name="nine" unicode="9" horiz-adv-x="1136" 
d="M696 1475q208 0 320 -143t112 -429q0 -125 -14 -237t-43.5 -218t-79 -190.5t-117 -148.5t-162 -99t-208.5 -35q-173 0 -267.5 81.5t-97.5 232.5l185 45q7 -101 61 -141.5t154 -40.5q156 0 253.5 134.5t125.5 395.5q-153 -115 -347 -115q-180 0 -287.5 98.5t-107.5 268.5
q0 154 58.5 275t178 193.5t283.5 72.5zM614 725q175 0 316 125v55q0 112 -18.5 190.5t-53.5 121.5t-79 62t-101 19q-138 0 -223.5 -89.5t-85.5 -250.5q0 -120 66.5 -176.5t178.5 -56.5z" />
    <glyph glyph-name="colon" unicode=":" horiz-adv-x="518" 
d="M293 719q73 0 121.5 45.5t48.5 124.5q0 56 -29.5 90.5t-89.5 34.5q-76 0 -123 -49t-47 -125q0 -55 31 -88t88 -33zM176 -25q73 0 121.5 45.5t48.5 124.5q0 56 -29.5 90.5t-89.5 34.5q-76 0 -123 -49t-47 -125q0 -55 31 -88t88 -33z" />
    <glyph glyph-name="semicolon" unicode=";" horiz-adv-x="532" 
d="M309 719q73 0 121.5 46.5t48.5 123.5q0 56 -30 90.5t-91 34.5q-74 0 -121 -49t-47 -125q0 -54 31 -87.5t88 -33.5zM350 63q0 86 -38.5 134.5t-102.5 48.5q-62 0 -99.5 -40.5t-37.5 -115.5q49 0 80.5 -23.5t31.5 -68.5q0 -35 -11 -63.5t-32.5 -49.5t-39 -33.5t-44.5 -27.5
l52 -98q109 51 175 136.5t66 200.5z" />
    <glyph glyph-name="less" unicode="&#x3c;" horiz-adv-x="1013" 
d="M936 1141l-18 -189l-592 -305l524 -305l-27 -184l-684 401l25 180z" />
    <glyph glyph-name="equal" unicode="=" horiz-adv-x="1105" 
d="M1026 911h-825l-19 -155h828zM985 543h-825l-21 -156h828z" />
    <glyph glyph-name="greater" unicode="&#x3e;" horiz-adv-x="1013" 
d="M190 1141l684 -402l-22 -180l-774 -401l20 188l590 305l-522 305z" />
    <glyph glyph-name="question" unicode="?" horiz-adv-x="942" 
d="M180 1219l164 -45q50 139 193 139q102 0 145 -49.5t43 -143.5q0 -34 -7.5 -67t-17.5 -60t-30 -57t-36 -51t-46 -48t-48 -43t-53.5 -42t-52.5 -38t-55 -37t-51 -34l-17 -209h168l39 152q133 86 184 129q220 190 224 436q0 158 -93 241t-268 83q-153 0 -244 -61.5
t-141 -194.5zM332 -25q73 0 122.5 45.5t49.5 124.5q0 56 -30 90.5t-91 34.5q-75 0 -122.5 -49.5t-47.5 -124.5q0 -55 31.5 -88t87.5 -33z" />
    <glyph glyph-name="at" unicode="@" horiz-adv-x="2205" 
d="M1282 1479q381 0 595 -205.5t214 -587.5q0 -187 -34.5 -322.5t-98.5 -213.5t-145 -114t-183 -36q-194 0 -252 156q-139 -156 -358 -156q-178 0 -276.5 109t-98.5 299q0 250 144 412.5t366 162.5q173 0 287 -88l22 68h166l-69 -605q-10 -103 19.5 -148.5t98.5 -45.5
q240 0 240 500q0 310 -166.5 481.5t-488.5 171.5q-200 0 -364.5 -65.5t-279.5 -185t-178 -293t-63 -384.5q0 -118 21.5 -215.5t61.5 -167.5t94 -121.5t122 -82.5t142.5 -45.5t158.5 -14.5q150 0 262 34t172 70v-157q-165 -103 -463 -103q-167 0 -302.5 46.5t-237.5 140.5
t-157.5 247t-55.5 355q0 209 55 388t154 309.5t234.5 222.5t298 138t343.5 46zM1077 168q109 0 186 53.5t101 161.5l39 350q-82 78 -221 78q-151 0 -241.5 -102.5t-90.5 -286.5q0 -128 60 -191t167 -63z" />
    <glyph glyph-name="A" unicode="A" horiz-adv-x="1390" 
d="M1233 178q54 -16 139 -16l-24 -168q-42 -10 -123 -10q-83 0 -125 24t-60 94l-69 275h-629l-180 -377h-215l710 1442l230 35zM422 549h506l-174 698z" />
    <glyph glyph-name="B" unicode="B" horiz-adv-x="1302" 
d="M1047 782q95 -43 149.5 -122.5t54.5 -192.5q0 -223 -144.5 -345t-401.5 -122h-566l144 1268h-164l20 170q111 24 183 24q96 0 139 -49q152 62 334 62q222 0 337 -93t115 -256q0 -243 -200 -344zM1034 1077q0 213 -274 213q-124 0 -271 -22l-49 -434h289q153 0 229 55.5
t76 187.5zM729 182q161 0 238 72.5t77 202.5q0 96 -67 150.5t-189 54.5h-366l-53 -480h360z" />
    <glyph glyph-name="C" unicode="C" horiz-adv-x="1368" 
d="M770 168q-215 0 -335 124t-120 353q0 310 139.5 478.5t360.5 168.5q173 0 254 -77t70 -230l209 27q4 32 4 67q0 180 -130.5 288t-379.5 108q-159 0 -294.5 -57.5t-235.5 -165t-157 -272t-57 -368.5q0 -300 166 -468.5t455 -168.5q175 0 302.5 38t205.5 91l-25 189
q-201 -125 -432 -125z" />
    <glyph glyph-name="D" unicode="D" horiz-adv-x="1521" 
d="M768 1475q313 0 484 -177.5t171 -474.5q0 -185 -60 -338.5t-170 -260t-270 -165.5t-354 -59h-428l144 1268h-166l20 170q111 24 185 24q99 0 139 -49q154 62 305 62zM596 188q299 0 455.5 166.5t156.5 450.5q0 219 -119.5 350t-353.5 131q-103 0 -243 -20l-121 -1078h225
z" />
    <glyph glyph-name="E" unicode="E" horiz-adv-x="1107" 
d="M1149 1270h-676l-51 -457h627l-21 -176h-627l-53 -453h692l-22 -184h-899l168 1454h897z" />
    <glyph glyph-name="F" unicode="F" horiz-adv-x="1046" 
d="M1108 1278l-633 -2l-53 -463h590l-23 -176h-588l-73 -637h-209l168 1454h856z" />
    <glyph glyph-name="G" unicode="G" horiz-adv-x="1536" 
d="M1325 778q48 0 69 -24t21 -58t-14 -172l-62 -524h-161l12 186q-89 -101 -217.5 -156t-280.5 -55q-277 0 -435.5 170.5t-158.5 472.5q0 205 57.5 368t161.5 270t248.5 163t319.5 56q250 0 384 -108.5t136 -301.5l-213 -41q-2 125 -88 195.5t-240 70.5
q-256 0 -403.5 -172.5t-147.5 -480.5q0 -226 113 -351.5t317 -125.5q189 0 319.5 95.5t147.5 274.5l7 82h-416l20 166h504z" />
    <glyph glyph-name="H" unicode="H" horiz-adv-x="1505" 
d="M1446 1454l-143 -1276q58 -16 139 -16l-23 -168q-62 -10 -137 -10q-103 0 -152 39t-38 145l51 444h-746l-69 -612h-209l166 1454h207l-74 -649h747l72 649h209z" />
    <glyph glyph-name="I" unicode="I" horiz-adv-x="563" 
d="M299 1454l-180 -1454h209l178 1454h-207z" />
    <glyph glyph-name="J" unicode="J" horiz-adv-x="966" 
d="M918 1454h-207l-121 -1038q-17 -139 -81.5 -198.5t-189.5 -59.5q-109 0 -249 57l-39 -182q37 -23 111 -40.5t171 -17.5q106 0 185.5 22t143 71.5t102.5 135.5t53 208z" />
    <glyph glyph-name="K" unicode="K" horiz-adv-x="1302" 
d="M1053 244q25 -39 42.5 -53.5t52.5 -21.5t109 -7l-24 -168q-58 -10 -119 -10q-85 0 -134.5 26t-100.5 111l-287 491h-195l-69 -612h-209l166 1454h209l-74 -641h190l553 657l226 -28l-625 -727z" />
    <glyph glyph-name="L" unicode="L" horiz-adv-x="1081" 
d="M346 193h696l-24 -193h-903l166 1454h208z" />
    <glyph glyph-name="M" unicode="M" horiz-adv-x="1841" 
d="M1655 178q62 -16 139 -16l-22 -168q-48 -10 -142 -10q-111 0 -152.5 36.5t-31.5 153.5l84 975l-539 -956h-182l-324 956l-157 -1149h-209l198 1442l277 35l336 -1022l559 999h276z" />
    <glyph glyph-name="N" unicode="N" horiz-adv-x="1519" 
d="M1257 1454h205l-166 -1454h-192l-653 1110l-127 -1110h-205l168 1442l194 35l652 -1121z" />
    <glyph glyph-name="O" unicode="O" 
d="M702 -25q170 0 315.5 66t245 179.5t156 268.5t56.5 330q0 192 -70 339t-208.5 232t-326.5 85q-227 0 -404 -112t-272.5 -303.5t-95.5 -428.5q0 -191 69.5 -338t208 -232.5t326.5 -85.5zM721 164q-196 0 -303 129t-107 348q0 188 65.5 334t188.5 228.5t285 82.5
q198 0 304 -127.5t106 -345.5q0 -289 -145 -469t-394 -180z" />
    <glyph glyph-name="P" unicode="P" horiz-adv-x="1210" 
d="M768 1475q227 0 347 -113.5t120 -314.5q0 -253 -157 -391t-439 -138h-231l-60 -518h-209l144 1268h-164l20 170q111 24 183 24q95 0 139 -47q137 60 307 60zM653 696q379 0 379 336q0 127 -75 192.5t-220 65.5q-133 0 -243 -20l-66 -574h225z" />
    <glyph glyph-name="Q" unicode="Q" 
d="M1065 -31q45 -97 94.5 -130.5t138.5 -33.5q90 0 148 21l-33 -172q-95 -23 -178 -23q-140 0 -224.5 57.5t-152.5 215.5l-35 80q-58 -9 -121 -9q-188 0 -326.5 85.5t-208 232.5t-69.5 338q0 237 95.5 428.5t272.5 303.5t404 112q188 0 326.5 -85t208.5 -232t70 -339
q0 -261 -119.5 -468t-325.5 -304zM311 641q0 -219 107 -348t303 -129q249 0 394 180t145 469q0 218 -106 345.5t-304 127.5q-162 0 -285 -82.5t-188.5 -228.5t-65.5 -334z" />
    <glyph glyph-name="R" unicode="R" horiz-adv-x="1298" 
d="M1069 236q25 -47 58.5 -60.5t129.5 -13.5l-34 -168q-55 -10 -105 -10q-85 0 -137.5 28.5t-95.5 114.5l-219 438h-254l-66 -565h-205l142 1268h-164l20 170q111 24 183 24q99 0 139 -49q150 62 323 62q239 0 362.5 -106.5t123.5 -299.5q0 -196 -99.5 -319t-273.5 -164z
M489 1270l-59 -525h289q340 0 340 297q0 127 -79 187.5t-247 60.5q-122 0 -244 -20z" />
    <glyph glyph-name="S" unicode="S" horiz-adv-x="1169" 
d="M342 1049q0 124 80 189t231 65q138 0 205.5 -51t67.5 -156l207 37q0 169 -108.5 255.5t-346.5 86.5q-263 0 -402 -120t-139 -335q0 -82 25.5 -144.5t69 -100.5t100 -65.5t118.5 -44t124 -30.5t118.5 -31t100 -39.5t69 -61t25.5 -91.5q0 -121 -87.5 -186.5t-252.5 -65.5
q-137 0 -254.5 40t-196.5 95l-49 -193q185 -127 479 -127q280 0 423 117.5t143 341.5q0 103 -41.5 174.5t-107.5 107.5t-146 60t-160 41.5t-146 41t-107.5 71t-41.5 119.5z" />
    <glyph glyph-name="T" unicode="T" horiz-adv-x="1046" 
d="M1161 1454l-22 -176h-439l-145 -1278h-209l146 1278h-443l21 160q208 16 376 16h715z" />
    <glyph glyph-name="U" unicode="U" horiz-adv-x="1458" 
d="M1421 1454h-209l-100 -885q-23 -206 -127 -306.5t-289 -100.5q-183 0 -255.5 98.5t-49.5 312.5l82 723q9 83 -25 122.5t-122 39.5q-77 0 -209 -16l-19 -164h166l-82 -711q-68 -592 486 -592q291 0 454.5 151.5t196.5 438.5z" />
    <glyph glyph-name="V" unicode="V" horiz-adv-x="1327" 
d="M1223 1477l215 -35l-676 -1442h-230l-319 1278h-160l19 164q107 20 188 20q135 0 166 -123l252 -1071z" />
    <glyph glyph-name="W" unicode="W" horiz-adv-x="1947" 
d="M1845 1477l213 -35l-588 -1442h-219l-170 1122l-422 -1122h-219l-229 1278h-158l19 164q102 20 194 20q74 0 113.5 -28.5t48.5 -90.5l158 -1034l428 1145h211l172 -1149z" />
    <glyph glyph-name="X" unicode="X" horiz-adv-x="1275" 
d="M795 741l319 -563q46 -16 137 -16l-22 -168q-50 -10 -131 -10q-39 0 -64 6t-46.5 26t-37 43.5t-41.5 71.5l-256 469l-444 -600h-234l568 741l-316 533h-159l20 164q82 24 164 24q64 0 100 -24.5t64 -73.5l268 -481l426 598l213 -37z" />
    <glyph glyph-name="Y" unicode="Y" horiz-adv-x="1193" 
d="M1102 1477l201 -35l-568 -862l-65 -580h-209l67 580l-317 698h-158l19 164q19 7 69 13.5t90 6.5q72 0 108 -20.5t58 -71.5l256 -600z" />
    <glyph glyph-name="Z" unicode="Z" horiz-adv-x="1226" 
d="M1257 1294l-956 -1112h819l-22 -182h-1043l-14 166l950 1106h-794l20 170q141 12 340 12h692z" />
    <glyph glyph-name="bracketleft" unicode="[" horiz-adv-x="808" 
d="M874 1491h-247l-211 -1692h250l-21 -168h-440l254 2028h440z" />
    <glyph glyph-name="backslash" unicode="\" horiz-adv-x="987" 
d="M164 1659h-197l856 -2028h197z" />
    <glyph glyph-name="bracketright" unicode="]" horiz-adv-x="940" 
d="M735 1659l-254 -2028h-440l22 168h250l209 1692h-250l23 168h440z" />
    <glyph glyph-name="underscore" unicode="_" horiz-adv-x="847" 
d="M788 0h-710l-21 -168h713z" />
    <glyph glyph-name="grave" unicode="`" horiz-adv-x="737" 
d="M418 1462l-213 -18l147 -318h180z" />
    <glyph glyph-name="a" unicode="a" horiz-adv-x="1140" 
d="M942 164q43 -12 123 -12l-23 -158q-72 -10 -129 -10q-162 0 -168 143q-133 -152 -358 -152q-139 0 -216 70.5t-77 192.5q0 161 115.5 253.5t343.5 92.5q127 0 238 -29l6 66q13 110 -38 165.5t-157 55.5q-195 0 -233 -160l-189 35q19 65 50.5 114.5t81.5 90t127 61.5
t177 21q205 0 301 -96.5t74 -286.5zM461 127q115 0 206.5 79.5t104.5 192.5l2 23q-110 27 -221 27q-125 0 -192.5 -49.5t-67.5 -141.5q0 -131 168 -131z" />
    <glyph glyph-name="b" unicode="b" horiz-adv-x="1118" 
d="M680 1004q182 0 283.5 -109.5t101.5 -314.5q0 -134 -34.5 -243t-104.5 -191t-183 -126.5t-262 -44.5q-232 0 -383 105l158 1374h201l-66 -569q116 119 289 119zM518 147q162 0 252 105.5t90 300.5q0 134 -58.5 206t-166.5 72q-104 0 -182 -66.5t-93 -160.5l-47 -403
q76 -54 205 -54z" />
    <glyph glyph-name="c" unicode="c" horiz-adv-x="1050" 
d="M915 270q-46 -32 -83.5 -54.5t-110 -45.5t-146.5 -23q-119 0 -186 70t-67 209q0 189 87.5 297t219.5 108q94 0 136 -54t34 -152l192 22q4 36 4 55q-2 134 -88 218t-262 84q-164 0 -285.5 -77t-183 -210t-61.5 -305q0 -217 113.5 -327t320.5 -110q236 0 393 125z" />
    <glyph glyph-name="d" unicode="d" horiz-adv-x="1210" 
d="M1153 1454l-143 -1290q53 -12 129 -12l-21 -158q-72 -10 -137 -10q-71 0 -115 32t-51 115q-135 -156 -346 -156q-159 0 -256.5 111t-97.5 315q0 274 149.5 438.5t380.5 164.5q156 0 252 -60l59 510h197zM530 147q121 0 209 79.5t99 193.5l39 332q-87 79 -236 79
q-141 0 -230 -109.5t-89 -303.5q0 -140 57.5 -205.5t150.5 -65.5z" />
    <glyph glyph-name="e" unicode="e" horiz-adv-x="1056" 
d="M319 440v-12q0 -283 265 -283q101 0 186.5 36t130.5 75l31 -166q-56 -43 -162.5 -79t-228.5 -36q-208 0 -317 117.5t-109 327.5q0 257 143 420.5t367 163.5q188 0 283.5 -108t95.5 -284q0 -58 -15 -172h-670zM608 838q-105 0 -177 -64t-99 -194h471q11 258 -195 258z" />
    <glyph glyph-name="f" unicode="f" horiz-adv-x="698" 
d="M645 1296q-146 0 -166 -159l-16 -154h287l-23 -168h-285l-94 -815h-201l97 815h-170l20 168h168l19 160q38 332 335 332q123 0 215 -39l-34 -172q-66 32 -152 32z" />
    <glyph glyph-name="g" unicode="g" horiz-adv-x="1091" 
d="M754 203q131 0 195.5 -60t64.5 -163q0 -166 -137.5 -267.5t-401.5 -101.5q-217 0 -323.5 64.5t-106.5 181.5q0 155 141 245q-49 46 -49 125q0 73 40 128t122 104q-82 73 -82 190q0 154 114.5 254.5t309.5 100.5q102 0 178 -31q35 102 110 151t193 52l2 -175
q-134 -5 -192 -104q59 -71 59 -176q0 -157 -111.5 -252.5t-310.5 -95.5q-104 0 -180 30q-39 -26 -55.5 -53t-16.5 -63q0 -84 105 -84h332zM623 864q-103 0 -158 -56t-55 -151q0 -72 44 -110.5t130 -38.5q106 0 159.5 52t53.5 147q0 74 -44 115.5t-130 41.5zM504 -233
q148 0 229.5 46t81.5 128q0 104 -141 104h-330h-22q-80 -54 -80 -143q0 -135 262 -135z" />
    <glyph glyph-name="h" unicode="h" horiz-adv-x="1198" 
d="M997 164q47 -12 125 -12l-24 -158q-58 -10 -144 -10q-102 0 -136.5 32t-22.5 129l45 418q31 262 -189 262q-107 0 -189 -72t-97 -173l-66 -580h-201l164 1454h201l-68 -600q133 150 336 150q181 0 259 -108t54 -304z" />
    <glyph glyph-name="i" unicode="i" horiz-adv-x="454" 
d="M283 1165q62 0 105.5 44t43.5 108q0 53 -32 87t-85 34q-61 0 -105 -43t-44 -107q0 -54 32.5 -88.5t84.5 -34.5zM262 164l98 819h-198l-101 -829q-6 -42 -6 -58q0 -63 34 -87.5t110 -24.5q77 0 139 10l24 158q-62 0 -100 12z" />
    <glyph glyph-name="j" unicode="j" horiz-adv-x="471" 
d="M356 1165q62 0 106 44t44 108q0 53 -32 87t-85 34q-61 0 -105 -43t-44 -107q0 -54 32 -88.5t84 -34.5zM434 983h-201l-131 -1081q-7 -63 -30 -88t-70 -25q-32 0 -84 21l-29 -175q54 -24 129 -24q121 0 192 63t89 211z" />
    <glyph glyph-name="k" unicode="k" horiz-adv-x="1011" 
d="M637 588l205 -418q40 -23 141 -23l-22 -153q-52 -10 -121 -10q-63 0 -101 19t-61 63l-191 383l-153 -144l-35 -305h-201l168 1454h199l-105 -911l474 454l225 -14z" />
    <glyph glyph-name="l" unicode="l" horiz-adv-x="518" 
d="M260 1454l-154 -1247q-8 -70 -8 -88q0 -76 41.5 -105.5t130.5 -29.5q80 0 142 10l22 156q-88 0 -129 14l158 1290h-203z" />
    <glyph glyph-name="m" unicode="m" horiz-adv-x="1845" 
d="M1640 162q47 -12 127 -12l-20 -156q-62 -12 -139 -12q-105 0 -141.5 32t-26.5 129l47 428q15 128 -27 191t-149 63q-97 0 -173.5 -71.5t-90.5 -165.5l-66 -588h-199l64 565q14 133 -27.5 196.5t-148.5 63.5q-96 0 -172 -70.5t-92 -162.5l-66 -592h-201l92 813
q-49 12 -116 12l22 156q61 18 113 18q85 0 127.5 -36.5t50.5 -114.5q58 72 138 114t173 42q117 0 191 -51t104 -146q59 91 149 144t197 53q173 0 251.5 -109t56.5 -307z" />
    <glyph glyph-name="n" unicode="n" horiz-adv-x="1241" 
d="M1038 164q46 -12 127 -12l-22 -158q-62 -10 -142 -10q-105 0 -140 32t-23 129l45 418q31 262 -193 262q-111 0 -194.5 -76t-98.5 -184l-63 -565h-199l92 813q-43 12 -112 12l24 156q72 18 115 18q165 0 170 -157q135 162 346 162q183 0 260 -107.5t55 -304.5z" />
    <glyph glyph-name="o" unicode="o" horiz-adv-x="1153" 
d="M115 420q0 -208 118 -326.5t316 -118.5q117 0 217.5 40t174.5 113t116.5 183t42.5 244q0 212 -118 330.5t-316 118.5q-118 0 -218.5 -39.5t-174.5 -112.5t-116 -184t-42 -248zM319 430q0 187 88.5 294t239.5 107q119 0 183.5 -74t64.5 -212q0 -187 -87.5 -292.5
t-238.5 -105.5q-119 0 -184.5 73.5t-65.5 209.5z" />
    <glyph glyph-name="p" unicode="p" horiz-adv-x="1163" 
d="M727 1004q178 0 280.5 -111t102.5 -309q0 -291 -149 -450t-426 -159q-119 0 -207 37l-43 -381h-201l135 1182q-40 12 -113 12l23 156q11 5 47.5 11.5t69.5 6.5q72 0 113.5 -37t52.5 -104q119 146 315 146zM551 147q165 0 258.5 100.5t93.5 309.5q0 137 -61 205.5
t-170 68.5q-105 0 -186 -68.5t-93 -170.5l-45 -399q94 -46 203 -46z" />
    <glyph glyph-name="q" unicode="q" horiz-adv-x="1132" 
d="M672 1004q255 0 407 -115l-143 -1258h-199l54 478q-127 -134 -324 -134q-162 0 -257 104.5t-95 309.5q0 289 150 452t407 163zM537 147q106 0 185 69t99 163l47 409q-101 43 -217 43q-147 0 -238 -105t-91 -310q0 -137 58 -203t157 -66z" />
    <glyph glyph-name="r" unicode="r" horiz-adv-x="694" 
d="M655 1004q60 0 90 -17l-32 -192q-23 10 -80 10q-88 0 -157 -90t-87 -221l-59 -494h-201l98 813q-41 12 -112 12l26 156q48 18 117 18q66 0 108.5 -43.5t51.5 -124.5q108 173 237 173z" />
    <glyph glyph-name="s" unicode="s" horiz-adv-x="993" 
d="M539 1004q-205 0 -311.5 -84t-106.5 -222q0 -75 31.5 -128t82 -80t111 -44t121.5 -29t111.5 -26.5t82 -44t31.5 -74.5q0 -65 -54.5 -99t-184.5 -34q-109 0 -199 34t-143 75l-54 -170q134 -103 387 -103q230 0 341.5 87.5t111.5 228.5q0 73 -31.5 124t-82 76.5t-112 41.5
t-122.5 27t-111.5 25.5t-82 44.5t-31.5 77q0 66 53.5 102.5t159.5 36.5q192 0 192 -135l193 28q0 56 -20 102t-62.5 83.5t-119 58.5t-181.5 21z" />
    <glyph glyph-name="t" unicode="t" horiz-adv-x="702" 
d="M449 815l-64 -539q-9 -72 13.5 -99t76.5 -27q69 0 146 30l-7 -172q-107 -33 -211 -33q-90 0 -140.5 24.5t-71.5 88t-9 174.5l68 553h-176l22 168h172l35 287h199l-35 -287h276l-20 -168h-274z" />
    <glyph glyph-name="u" unicode="u" horiz-adv-x="1224" 
d="M1012 164q46 -12 125 -12l-21 -158q-72 -10 -119 -10q-87 0 -132 36.5t-48 126.5q-143 -172 -373 -172q-65 0 -113 12t-85.5 40.5t-56.5 74.5t-26 114.5t5 160.5l47 436q-44 12 -111 12l23 156q54 14 131 14q95 0 132.5 -38t27.5 -140l-47 -409q-15 -139 23 -196.5
t138 -57.5q129 0 214.5 87.5t99.5 215.5l59 526h199z" />
    <glyph glyph-name="v" unicode="v" horiz-adv-x="976" 
d="M825 997l195 -18l-467 -979h-168l-231 813q-45 10 -115 10l20 154q50 20 115 20q72 0 111 -29.5t57 -101.5l156 -616z" />
    <glyph glyph-name="w" unicode="w" horiz-adv-x="1480" 
d="M1327 997l197 -18l-424 -979h-176l-133 719l-295 -719h-177l-167 813q-39 10 -113 10l20 158q61 16 127 16t101.5 -27t46.5 -98l108 -606l287 717h182l125 -721z" />
    <glyph glyph-name="x" unicode="x" horiz-adv-x="991" 
d="M641 489l182 -331q47 -13 123 -13l-22 -151q-40 -12 -117 -12q-54 0 -83 16.5t-52 60.5l-166 318l-281 -377h-211l385 487l-184 324q-53 12 -121 12l21 158q67 16 123 16q50 0 77.5 -14t51.5 -57l168 -322l303 395l200 -18z" />
    <glyph glyph-name="y" unicode="y" horiz-adv-x="1087" 
d="M915 997l213 -18l-606 -1139q-69 -125 -155.5 -177t-212.5 -52q-86 0 -136 20l15 174q59 -22 127 -22q74 0 121.5 24t76.5 84l54 107l-242 815q-52 10 -104 10l20 158q53 16 117 16q67 0 102.5 -27t52.5 -89l179 -635z" />
    <glyph glyph-name="z" unicode="z" horiz-adv-x="913" 
d="M915 827l-651 -665h578l-21 -162h-786l-6 160l647 661h-539l19 162h755z" />
    <glyph glyph-name="braceleft" unicode="{" horiz-adv-x="835" 
d="M662 1659h221l-21 -158h-143q-150 0 -150 -158q0 -60 34 -211.5t34 -230.5q0 -97 -36 -157t-132 -99q115 -57 115 -182q0 -67 -30 -150t-66.5 -147.5t-66.5 -139t-30 -128.5q0 -107 119 -107h145l-22 -160h-221q-102 0 -154.5 54.5t-52.5 152.5q0 69 31 155t68 154
t68 148t31 139t-31.5 94t-92.5 35h-64l8 60h-2l12 104h68q77 0 119.5 49.5t42.5 136.5q0 65 -35 224t-35 237q0 133 69.5 209t199.5 76z" />
    <glyph glyph-name="bar" unicode="|" horiz-adv-x="729" 
d="M432 1659l-252 -2028h201l250 2028h-199z" />
    <glyph glyph-name="braceright" unicode="}" horiz-adv-x="917" 
d="M637 727h65l-8 -59h2l-14 -105h-66q-77 0 -119 -49.5t-42 -136.5q0 -65 33.5 -224t33.5 -237q0 -133 -68 -209t-198 -76h-223l22 158h144q149 0 149 158q0 60 -33.5 211.5t-33.5 230.5q0 99 35 158t133 98q-115 56 -115 182q0 67 30 150t66 147.5t66 139.5t30 129
q0 106 -118 106h-146l21 160h221q103 0 156 -54.5t53 -152.5q0 -69 -31 -155t-68.5 -154t-68.5 -148t-31 -139t31.5 -94t91.5 -35z" />
    <glyph glyph-name="asciitilde" unicode="~" horiz-adv-x="1050" 
d="M973 784q-25 -120 -86 -182.5t-152 -62.5q-74 0 -198.5 30.5t-169.5 30.5q-68 0 -95 -106l-133 20q23 119 84.5 182.5t151.5 63.5q76 0 199.5 -31t168.5 -31q37 0 58.5 23t38.5 84z" />
    <glyph glyph-name="exclamdown" unicode="&#xa1;" horiz-adv-x="522" 
d="M297 754q73 0 122.5 45.5t49.5 122.5q0 58 -30 92.5t-91 34.5q-74 0 -122 -50.5t-48 -126.5q0 -53 31.5 -85.5t87.5 -32.5zM57 -369h217l101 936h-191z" />
    <glyph glyph-name="cent" unicode="&#xa2;" horiz-adv-x="1118" 
d="M1016 909l-195 -22q16 155 -88 194l-94 -694q66 6 130 29t97.5 43t75.5 49l25 -170q-135 -113 -351 -123l-28 -215h-160l31 223q-154 30 -237 142.5t-83 306.5q0 242 123 404t336 186l29 213h159l-28 -215q131 -21 195.5 -99t66.5 -188q0 -28 -4 -64zM346 686
q0 -225 135 -283l92 680q-103 -30 -165 -133t-62 -264z" />
    <glyph glyph-name="sterling" unicode="&#xa3;" horiz-adv-x="1282" 
d="M856 1286q-223 0 -256 -285l-33 -282h363l-21 -178h-362l-41 -363h526l-20 -178h-873l21 178h139l41 363h-139l20 178h139l35 315q24 206 144.5 323.5t334.5 117.5q204 0 310 -91l-78 -182q-53 40 -109 62t-141 22z" />
    <glyph glyph-name="currency" unicode="&#xa4;" horiz-adv-x="1511" 
d="M1253 795q0 -235 -133 -387l170 -215l-119 -107l-178 219q-123 -69 -274 -69q-145 0 -254 73l-232 -223l-94 107l228 221q-68 111 -68 258q0 237 135 391l-172 215l121 106l176 -219q124 70 275 70q146 0 251 -76l234 225l94 -106l-227 -223q67 -109 67 -260zM489 682
q0 -134 65.5 -205t184.5 -71q151 0 237.5 100t86.5 282q0 135 -65 206t-185 71q-150 0 -237 -100t-87 -283z" />
    <glyph glyph-name="yen" unicode="&#xa5;" horiz-adv-x="1331" 
d="M1296 1454l-505 -747h319l-18 -144h-322l-14 -129h323l-16 -143h-324l-32 -291h-209l32 291h-323l16 143h324l14 129h-325l18 144h319l-337 747h213l251 -590l381 590h215z" />
    <glyph glyph-name="brokenbar" unicode="&#xa6;" horiz-adv-x="729" 
d="M432 1659l-104 -819h200l103 819h-199zM283 451l-103 -820h201l102 820h-200z" />
    <glyph glyph-name="section" unicode="&#xa7;" horiz-adv-x="1288" 
d="M1147 592q0 -119 -64.5 -199.5t-169.5 -126.5q82 -39 127 -98t45 -154q0 -182 -125 -274t-350 -92q-151 0 -262 40t-168 87l45 186q65 -52 171 -94.5t235 -42.5q258 0 258 176q0 41 -27.5 72t-72.5 49.5t-102.5 37t-117 34t-117 42.5t-102.5 59.5t-72.5 87t-27.5 124.5
q0 121 65.5 206t178.5 134q-168 88 -168 266q0 85 29 156.5t87 128t156 88t227 31.5q394 0 406 -304l-199 -41q-7 94 -61.5 136.5t-161.5 42.5q-133 0 -207 -52t-74 -161q0 -50 26.5 -89t70 -62t99 -45.5t114 -40t114 -44.5t99 -59t70 -84.5t26.5 -120.5zM723 330
q52 18 87.5 35t69.5 44t51 65.5t17 88.5q0 21 -5.5 40.5t-12 34t-23.5 29.5t-27.5 24.5t-36 21.5t-37.5 18t-45 17t-44.5 15t-48.5 15q-215 -54 -215 -235q0 -39 15.5 -70t37.5 -51t62 -38.5t71.5 -29t83.5 -24.5z" />
    <glyph glyph-name="dieresis" unicode="&#xa8;" horiz-adv-x="1003" 
d="M311 1169q59 0 99.5 40t40.5 98q0 50 -30 81t-79 31q-57 0 -97 -40.5t-40 -98.5q0 -49 29.5 -80t76.5 -31zM662 1169q58 0 97.5 39.5t39.5 98.5q0 49 -30 80.5t-77 31.5q-57 0 -98 -40.5t-41 -98.5q0 -50 30 -80.5t79 -30.5z" />
    <glyph glyph-name="copyright" unicode="&#xa9;" horiz-adv-x="2101" 
d="M98 553q0 -197 62 -358.5t173 -270.5t267 -168t342 -59q220 0 413.5 77t337.5 216t227 347t83 456q0 197 -61.5 357.5t-172.5 269.5t-267 168t-343 59q-222 0 -415.5 -76t-337 -214.5t-226 -346t-82.5 -457.5zM279 559q0 218 64.5 394t179.5 292.5t273.5 179t346.5 62.5
q314 0 497 -184t183 -519q0 -218 -64.5 -394t-179.5 -292t-274 -178.5t-347 -62.5q-314 0 -496.5 183.5t-182.5 518.5zM1391 453q-46 -32 -83.5 -54.5t-110 -45.5t-146.5 -23q-119 0 -186.5 69.5t-67.5 208.5q0 189 87.5 297.5t219.5 108.5q94 0 136 -54.5t34 -152.5l192 22
q4 36 4 56q-2 134 -88 217.5t-262 83.5q-164 0 -285 -77t-182 -210t-61 -305q0 -217 112.5 -326.5t319.5 -109.5q236 0 393 125z" />
    <glyph glyph-name="ordfeminine" unicode="&#xaa;" horiz-adv-x="829" 
d="M791 893q31 -8 88 -8l-15 -117q-60 -6 -94 -6q-62 0 -91 22.5t-34 69.5q-95 -98 -239 -98q-96 0 -147.5 48t-51.5 132q0 113 79 179.5t234 66.5q71 0 154 -17l4 43q8 71 -24 109.5t-99 38.5q-124 0 -152 -111l-139 25q27 98 97.5 151.5t207.5 53.5q288 0 258 -271z
M459 864q71 0 129 48t71 122l5 39q-68 14 -136 14q-170 0 -170 -131q0 -45 26.5 -68.5t74.5 -23.5z" />
    <glyph glyph-name="guillemotleft" unicode="&#xab;" horiz-adv-x="964" 
d="M907 840l-260 -265l203 -237l-111 -109l-274 334l4 33l350 354zM582 840l-260 -262l202 -240l-110 -109l-275 334l4 33l351 354z" />
    <glyph glyph-name="registered" unicode="&#xae;" horiz-adv-x="944" 
d="M641 1491q170 0 268.5 -97.5t98.5 -269.5q0 -214 -130 -341.5t-331 -127.5q-166 0 -266.5 98t-100.5 269q0 215 130 342t331 127zM555 719q167 0 272 104.5t105 300.5q0 150 -80 226.5t-219 76.5q-171 0 -274 -103t-103 -302q0 -149 81 -226t218 -77zM803 1180
q0 -121 -111 -156l35 -86q11 -23 61 -23l-10 -75q-36 -9 -57 -9q-59 0 -78 48l-55 133h-56l-18 -174h-113l43 389h-47l13 84h221q172 0 172 -131zM557 1227l-14 -131h55q90 0 90 75q0 56 -76 56h-55z" />
    <glyph glyph-name="macron" unicode="&#xaf;" horiz-adv-x="1017" 
d="M223 1366l-18 -160h590l18 160h-590z" />
    <glyph glyph-name="degree" unicode="&#xb0;" horiz-adv-x="618" 
d="M399 971q129 0 207 79t78 205q0 100 -60 162t-163 62q-123 0 -202 -80t-79 -205q0 -99 59.5 -161t159.5 -62zM422 1092q-50 0 -79.5 31t-29.5 85q0 66 38.5 108t97.5 42q46 0 73 -31.5t27 -85.5q0 -69 -36 -109t-91 -40z" />
    <glyph glyph-name="plusminus" unicode="&#xb1;" horiz-adv-x="1062" 
d="M698 776h287l-20 -172h-287l-37 -319h-184l37 319h-285l20 172h283l37 318h186zM139 0l21 172h803l-21 -172h-803z" />
    <glyph glyph-name="acute" unicode="&#xb4;" horiz-adv-x="815" 
d="M403 1462l-198 -336h180l225 318z" />
    <glyph glyph-name="paragraph" unicode="&#xb6;" horiz-adv-x="1363" 
d="M707 625l81 700q9 83 -16.5 116.5t-109.5 33.5q-193 0 -317 -129t-124 -355q0 -178 105 -272t301 -94h80zM1100 1475q-85 0 -128 -39.5t-52 -122.5l-172 -1518h208l170 1499h160l21 164q-98 17 -207 17z" />
    <glyph glyph-name="periodcentered" unicode="&#xb7;" horiz-adv-x="483" 
d="M258 479q73 0 121.5 45.5t48.5 124.5q0 56 -29.5 90.5t-89.5 34.5q-75 0 -122.5 -49.5t-47.5 -124.5q0 -55 31 -88t88 -33z" />
    <glyph glyph-name="cedilla" unicode="&#xb8;" horiz-adv-x="751" 
d="M420 -68l29 101h-125l-56 -180q68 0 97.5 -11t29.5 -39q0 -44 -39 -61.5t-118 -17.5l-33 -119q184 0 263 52.5t79 154.5q0 62 -34 91t-93 29z" />
    <glyph glyph-name="ordmasculine" unicode="&#xba;" horiz-adv-x="872" 
d="M225 1065q0 -146 81.5 -227.5t219.5 -81.5q170 0 277.5 109t107.5 298q0 146 -82 229t-221 83q-169 0 -276 -109.5t-107 -300.5zM391 1075q0 122 53.5 194t149.5 72q73 0 111 -49.5t38 -138.5q0 -122 -52 -193t-148 -71q-74 0 -113 48.5t-39 137.5z" />
    <glyph glyph-name="guillemotright" unicode="&#xbb;" horiz-adv-x="1026" 
d="M582 612l-4 -32l-351 -355l-88 111l260 264l-202 238l110 108zM633 946l274 -334l-2 -32l-352 -355l-88 113l262 262l-205 240z" />
    <glyph glyph-name="onequarter" unicode="&#xbc;" horiz-adv-x="1869" 
d="M1575 1475l182 -9l-1192 -1491l-180 9zM344 811h178l58 500q-73 -40 -250 -90l-13 133q178 51 281 112h156l-74 -655h135l-14 -127h-471zM1655 338h129l-15 -127h-129l-24 -211h-154l25 211h-342l-27 113l436 458h150zM1280 338h219l31 264z" />
    <glyph glyph-name="onehalf" unicode="&#xbd;" horiz-adv-x="1939" 
d="M1577 1475l182 -9l-1192 -1491l-180 9zM344 811h178l58 500q-73 -40 -250 -90l-11 133q178 52 279 112h158l-74 -655h133l-14 -127h-471zM1868 575q0 -60 -22 -110t-59 -84.5t-82 -62.5t-93 -50.5t-89.5 -43t-75 -45t-46.5 -50.5h426l-15 -129h-593l10 88q7 63 45 114
t89.5 82.5t110.5 63t108.5 57t82.5 63.5t33 83q0 54 -32 82.5t-89 28.5q-63 0 -94 -22t-47 -71l-154 29q74 197 313 197q273 0 273 -220z" />
    <glyph glyph-name="threequarters" unicode="&#xbe;" horiz-adv-x="1853" 
d="M836 928q0 -113 -86.5 -186.5t-233.5 -73.5q-223 0 -256 163l139 46q13 -84 131 -84q72 0 115 35t43 100q0 106 -137 106h-66l15 109h63q63 0 100 32t37 87q0 41 -26.5 66.5t-83.5 25.5q-107 0 -135 -82l-136 31q53 172 285 172q119 0 182.5 -49.5t63.5 -139.5
q0 -140 -133 -192q119 -43 119 -166zM1552 1475l183 -9l-1192 -1491l-181 9zM1640 338h127l-14 -127h-127l-24 -211h-156l22 211h-340l-24 113l434 458h152zM1266 338h217l30 262z" />
    <glyph glyph-name="questiondown" unicode="&#xbf;" horiz-adv-x="921" 
d="M506 754q73 0 121.5 45.5t48.5 122.5q0 58 -30 92.5t-91 34.5q-74 0 -121 -50.5t-47 -126.5q0 -54 31 -86t88 -32zM780 -123l-151 45q-56 -149 -232 -149q-88 0 -134 48.5t-46 133.5q0 47 12 90t36 79.5t51 66.5t67.5 62t73 54.5t80.5 54.5q25 16 38 25l11 199h-172
l-33 -142q-9 -7 -50 -35t-60 -42t-58.5 -47t-61 -58.5t-51.5 -66.5t-45.5 -80t-27 -91t-11.5 -108q0 -148 91 -226.5t255 -78.5q316 0 418 266z" />
    <glyph glyph-name="Agrave" unicode="&#xc0;" horiz-adv-x="1390" 
d="M881 1520l-187 -11l-131 217l223 29zM1233 178q54 -16 139 -16l-24 -168q-42 -10 -123 -10q-83 0 -125 24t-60 94l-69 275h-629l-180 -377h-215l710 1442l230 35zM422 549h506l-174 698z" />
    <glyph glyph-name="Aacute" unicode="&#xc1;" horiz-adv-x="1390" 
d="M1053 1726l-185 -217l-182 11l150 235zM1233 178q54 -16 139 -16l-24 -168q-42 -10 -123 -10q-83 0 -125 24t-60 94l-69 275h-629l-180 -377h-215l710 1442l230 35zM422 549h506l-174 698z" />
    <glyph glyph-name="Acircumflex" unicode="&#xc2;" horiz-adv-x="1390" 
d="M805 1647l-125 -136l-160 25l205 209h184l156 -209l-166 -25zM1233 178q54 -16 139 -16l-24 -168q-42 -10 -123 -10q-83 0 -125 24t-60 94l-69 275h-629l-180 -377h-215l710 1442l230 35zM422 549h506l-174 698z" />
    <glyph glyph-name="Atilde" unicode="&#xc3;" horiz-adv-x="1390" 
d="M705 1585q-58 0 -72 -84l-115 15q37 204 180 204q48 0 111.5 -24.5t89.5 -24.5q58 0 72 84l114 -14q-20 -104 -64.5 -154.5t-117.5 -50.5q-46 0 -109 24.5t-89 24.5zM1233 178q54 -16 139 -16l-24 -168q-42 -10 -123 -10q-83 0 -125 24t-60 94l-69 275h-629l-180 -377
h-215l710 1442l230 35zM422 549h506l-174 698z" />
    <glyph glyph-name="Adieresis" unicode="&#xc4;" horiz-adv-x="1390" 
d="M606 1513q-43 0 -69.5 28.5t-26.5 72.5q0 54 35 89.5t88 35.5q44 0 71 -29t27 -72q0 -52 -36.5 -88.5t-88.5 -36.5zM965 1513q-44 0 -71.5 29t-27.5 72q0 54 36 89.5t89 35.5q43 0 69.5 -28.5t26.5 -72.5q0 -53 -35 -89t-87 -36zM1233 178q54 -16 139 -16l-24 -168
q-42 -10 -123 -10q-83 0 -125 24t-60 94l-69 275h-629l-180 -377h-215l710 1442l230 35zM422 549h506l-174 698z" />
    <glyph glyph-name="Aring" unicode="&#xc5;" horiz-adv-x="1390" 
d="M786 1489q-70 0 -106.5 36.5t-36.5 102.5q0 84 49 134t133 50q68 0 105 -38t37 -103q0 -83 -48.5 -132.5t-132.5 -49.5zM815 1726q-33 0 -53.5 -23.5t-20.5 -64.5q0 -30 14.5 -46.5t39.5 -16.5q31 0 51 23.5t20 62.5q0 65 -51 65zM1233 178q54 -16 139 -16l-24 -168
q-42 -10 -123 -10q-83 0 -125 24t-60 94l-69 275h-629l-180 -377h-215l710 1442l230 35zM422 549h506l-174 698z" />
    <glyph glyph-name="AE" unicode="&#xc6;" horiz-adv-x="2070" 
d="M1978 1270h-618l-51 -457h567l-18 -176h-570l-51 -453h633l-21 -184h-841l71 637h-485l-354 -637h-215l829 1454h1159zM692 813h408l51 457h-205z" />
    <glyph glyph-name="Ccedilla" unicode="&#xc7;" horiz-adv-x="1368" 
d="M1348 1012l-209 -27q11 153 -70 230t-254 77q-221 0 -360.5 -168.5t-139.5 -478.5q0 -229 120 -353t335 -124q231 0 432 125l25 -189q-180 -119 -469 -129l-13 -43q59 0 93 -29t34 -91q0 -102 -79 -154.5t-263 -52.5l33 119q79 0 118.5 17.5t39.5 61.5q0 28 -29.5 39
t-97.5 11l39 127q-251 25 -393 190t-142 442q0 204 57 368.5t157 272t235.5 165t294.5 57.5q249 0 379.5 -108t130.5 -288q0 -35 -4 -67z" />
    <glyph glyph-name="Egrave" unicode="&#xc8;" horiz-adv-x="1107" 
d="M846 1520l-187 -11l-131 217l224 29zM1149 1270h-676l-51 -457h627l-21 -176h-627l-53 -453h692l-22 -184h-899l168 1454h897z" />
    <glyph glyph-name="Eacute" unicode="&#xc9;" horiz-adv-x="1107" 
d="M1016 1726l-185 -217l-182 11l150 235zM1149 1270h-676l-51 -457h627l-21 -176h-627l-53 -453h692l-22 -184h-899l168 1454h897z" />
    <glyph glyph-name="Ecircumflex" unicode="&#xca;" horiz-adv-x="1107" 
d="M770 1647l-125 -136l-160 25l205 209h184l156 -209l-166 -25zM1149 1270h-676l-51 -457h627l-21 -176h-627l-53 -453h692l-22 -184h-899l168 1454h897z" />
    <glyph glyph-name="Edieresis" unicode="&#xcb;" horiz-adv-x="1107" 
d="M569 1513q-43 0 -69.5 28.5t-26.5 72.5q0 54 35 89.5t88 35.5q44 0 71 -29t27 -72q0 -52 -36 -88.5t-89 -36.5zM928 1513q-44 0 -71.5 29t-27.5 72q0 54 36 89.5t89 35.5q44 0 70.5 -28.5t26.5 -72.5q0 -53 -35.5 -89t-87.5 -36zM1149 1270h-676l-51 -457h627l-21 -176
h-627l-53 -453h692l-22 -184h-899l168 1454h897z" />
    <glyph glyph-name="Igrave" unicode="&#xcc;" horiz-adv-x="563" 
d="M410 1755l94 -235l-187 -11l-131 217zM299 1454l-180 -1454h209l178 1454h-207z" />
    <glyph glyph-name="Iacute" unicode="&#xcd;" horiz-adv-x="563" 
d="M459 1755l-150 -235l183 -11l184 217zM299 1454l-180 -1454h209l178 1454h-207z" />
    <glyph glyph-name="Icircumflex" unicode="&#xce;" horiz-adv-x="563" 
d="M532 1745l156 -209l-166 -25l-94 136l-125 -136l-160 25l205 209h184zM119 0l180 1454h207l-178 -1454h-209z" />
    <glyph glyph-name="Idieresis" unicode="&#xcf;" horiz-adv-x="563" 
d="M229 1513q53 0 89 36.5t36 88.5q0 43 -27 72t-71 29q-53 0 -88 -35.5t-35 -89.5q0 -44 26.5 -72.5t69.5 -28.5zM588 1513q52 0 87.5 36t35.5 89q0 44 -26.5 72.5t-70.5 28.5q-53 0 -89 -35.5t-36 -89.5q0 -43 27.5 -72t71.5 -29zM299 1454l-180 -1454h209l178 1454h-207z
" />
    <glyph glyph-name="Eth" unicode="&#xd0;" horiz-adv-x="1521" 
d="M768 1475q313 0 484 -177.5t171 -474.5q0 -185 -60 -338.5t-170 -260t-270 -165.5t-354 -59h-428l72 633h-154l25 168h147l54 467h-166l20 170q111 24 185 24q99 0 139 -49q154 62 305 62zM596 188q299 0 455.5 166.5t156.5 450.5q0 219 -119.5 350t-353.5 131
q-103 0 -243 -20l-52 -465h234l-23 -168h-231l-49 -445h225z" />
    <glyph glyph-name="Ntilde" unicode="&#xd1;" horiz-adv-x="1519" 
d="M817 1585q-58 0 -72 -84l-114 15q37 204 180 204q48 0 111.5 -24.5t89.5 -24.5q57 0 71 84l115 -14q-20 -104 -64.5 -154.5t-117.5 -50.5q-46 0 -109.5 24.5t-89.5 24.5zM1257 1454h205l-166 -1454h-192l-653 1110l-127 -1110h-205l168 1442l194 35l652 -1121z" />
    <glyph glyph-name="Ograve" unicode="&#xd2;" 
d="M877 1755l94 -235l-187 -11l-131 217zM702 -25q170 0 315.5 66t245 179.5t156 268.5t56.5 330q0 192 -70 339t-208.5 232t-326.5 85q-227 0 -404 -112t-272.5 -303.5t-95.5 -428.5q0 -191 69.5 -338t208 -232.5t326.5 -85.5zM721 164q-196 0 -303 129t-107 348
q0 188 65.5 334t188.5 228.5t285 82.5q198 0 304 -127.5t106 -345.5q0 -289 -145 -469t-394 -180z" />
    <glyph glyph-name="Oacute" unicode="&#xd3;" 
d="M926 1755l-150 -235l182 -11l185 217zM702 -25q170 0 315.5 66t245 179.5t156 268.5t56.5 330q0 192 -70 339t-208.5 232t-326.5 85q-227 0 -404 -112t-272.5 -303.5t-95.5 -428.5q0 -191 69.5 -338t208 -232.5t326.5 -85.5zM721 164q-196 0 -303 129t-107 348
q0 188 65.5 334t188.5 228.5t285 82.5q198 0 304 -127.5t106 -345.5q0 -289 -145 -469t-394 -180z" />
    <glyph glyph-name="Ocircumflex" unicode="&#xd4;" 
d="M895 1647l-125 -136l-160 25l205 209h184l156 -209l-166 -25zM870 1475q188 0 326.5 -85t208.5 -232t70 -339q0 -175 -56.5 -330t-156 -268.5t-245 -179.5t-315.5 -66q-188 0 -326.5 85.5t-208 232.5t-69.5 338q0 237 95.5 428.5t272.5 303.5t404 112zM721 164
q249 0 394 180t145 469q0 218 -106 345.5t-304 127.5q-162 0 -285 -82.5t-188.5 -228.5t-65.5 -334q0 -219 107 -348t303 -129z" />
    <glyph glyph-name="Otilde" unicode="&#xd5;" 
d="M1176 1741q-40 -205 -183 -205q-46 0 -109 24.5t-89 24.5q-58 0 -72 -84l-115 15q37 204 180 204q48 0 111.5 -24.5t89.5 -24.5q58 0 72 84zM702 -25q170 0 315.5 66t245 179.5t156 268.5t56.5 330q0 192 -70 339t-208.5 232t-326.5 85q-227 0 -404 -112t-272.5 -303.5
t-95.5 -428.5q0 -191 69.5 -338t208 -232.5t326.5 -85.5zM721 164q-196 0 -303 129t-107 348q0 188 65.5 334t188.5 228.5t285 82.5q198 0 304 -127.5t106 -345.5q0 -289 -145 -469t-394 -180z" />
    <glyph glyph-name="Odieresis" unicode="&#xd6;" 
d="M696 1513q52 0 88.5 36.5t36.5 88.5q0 43 -27 72t-71 29q-53 0 -88 -35.5t-35 -89.5q0 -44 26.5 -72.5t69.5 -28.5zM1055 1513q52 0 87.5 36t35.5 89q0 44 -26.5 72.5t-70.5 28.5q-53 0 -89 -35.5t-36 -89.5q0 -43 27.5 -72t71.5 -29zM702 -25q170 0 315.5 66t245 179.5
t156 268.5t56.5 330q0 192 -70 339t-208.5 232t-326.5 85q-227 0 -404 -112t-272.5 -303.5t-95.5 -428.5q0 -191 69.5 -338t208 -232.5t326.5 -85.5zM721 164q-196 0 -303 129t-107 348q0 188 65.5 334t188.5 228.5t285 82.5q198 0 304 -127.5t106 -345.5q0 -289 -145 -469
t-394 -180z" />
    <glyph glyph-name="multiply" unicode="&#xd7;" horiz-adv-x="999" 
d="M922 913l-283 -264l221 -264l-125 -113l-219 263l-276 -263l-101 113l283 264l-221 264l125 113l219 -262l278 262z" />
    <glyph glyph-name="Oslash" unicode="&#xd8;" 
d="M1303 1305q172 -181 172 -486q0 -175 -56.5 -330t-156 -268.5t-245 -179.5t-315.5 -66q-172 0 -307 74l-96 -133l-180 18l151 211q-172 181 -172 486q0 237 95.5 428.5t272.5 303.5t404 112q173 0 308 -74l96 133l180 -18zM311 641q0 -194 86 -322l662 918
q-85 49 -209 49q-162 0 -285 -82.5t-188.5 -228.5t-65.5 -334zM721 164q249 0 394 180t145 469q0 192 -84 317l-662 -917q85 -49 207 -49z" />
    <glyph glyph-name="Ugrave" unicode="&#xd9;" horiz-adv-x="1458" 
d="M836 1755l94 -235l-187 -11l-131 217zM1421 1454h-209l-100 -885q-23 -206 -127 -306.5t-289 -100.5q-183 0 -255.5 98.5t-49.5 312.5l82 723q9 83 -25 122.5t-122 39.5q-77 0 -209 -16l-19 -164h166l-82 -711q-68 -592 486 -592q291 0 454.5 151.5t196.5 438.5z" />
    <glyph glyph-name="Uacute" unicode="&#xda;" horiz-adv-x="1458" 
d="M885 1755l-150 -235l183 -11l184 217zM1421 1454h-209l-100 -885q-23 -206 -127 -306.5t-289 -100.5q-183 0 -255.5 98.5t-49.5 312.5l82 723q9 83 -25 122.5t-122 39.5q-77 0 -209 -16l-19 -164h166l-82 -711q-68 -592 486 -592q291 0 454.5 151.5t196.5 438.5z" />
    <glyph glyph-name="Ucircumflex" unicode="&#xdb;" horiz-adv-x="1458" 
d="M854 1647l-125 -136l-160 25l205 209h184l156 -209l-166 -25zM1212 1454h209l-102 -889q-33 -287 -196.5 -438.5t-454.5 -151.5q-554 0 -486 592l82 711h-166l19 164q132 16 209 16q88 0 122 -39.5t25 -122.5l-82 -723q-23 -214 49.5 -312.5t255.5 -98.5q185 0 289 100.5
t127 306.5z" />
    <glyph glyph-name="Udieresis" unicode="&#xdc;" horiz-adv-x="1458" 
d="M655 1513q53 0 89 36.5t36 88.5q0 43 -27 72t-71 29q-53 0 -88 -35.5t-35 -89.5q0 -44 26.5 -72.5t69.5 -28.5zM1014 1513q52 0 87.5 36t35.5 89q0 44 -26.5 72.5t-70.5 28.5q-53 0 -89 -35.5t-36 -89.5q0 -43 27.5 -72t71.5 -29zM1421 1454h-209l-100 -885
q-23 -206 -127 -306.5t-289 -100.5q-183 0 -255.5 98.5t-49.5 312.5l82 723q9 83 -25 122.5t-122 39.5q-77 0 -209 -16l-19 -164h166l-82 -711q-68 -592 486 -592q291 0 454.5 151.5t196.5 438.5z" />
    <glyph glyph-name="Yacute" unicode="&#xdd;" horiz-adv-x="1193" 
d="M1004 1726l-185 -217l-182 11l149 235zM1102 1477l201 -35l-568 -862l-65 -580h-209l67 580l-317 698h-158l19 164q19 7 69 13.5t90 6.5q72 0 108 -20.5t58 -71.5l256 -600z" />
    <glyph glyph-name="Thorn" unicode="&#xde;" horiz-adv-x="1214" 
d="M641 1217q226 0 350.5 -107t124.5 -303q0 -249 -156 -386.5t-428 -137.5h-172l-32 -283h-209l168 1454h207l-27 -237h174zM553 461q183 0 270.5 80.5t87.5 249.5q0 126 -72.5 186.5t-220.5 60.5h-172l-65 -577h172z" />
    <glyph glyph-name="germandbls" unicode="&#xdf;" horiz-adv-x="1155" 
d="M756 684q0 -22 25.5 -43t63.5 -38t83 -44.5t83 -59t63.5 -85t25.5 -119.5q0 -153 -98.5 -236.5t-270.5 -83.5q-181 0 -278 72l30 176q28 -19 41.5 -27t48.5 -25.5t75 -25.5t85 -8q180 0 180 148q0 47 -34 88t-82 71.5t-96.5 60t-82.5 67t-34 79.5q0 37 22.5 83t55 93
t64.5 97t54.5 110.5t22.5 118.5q0 70 -40.5 110t-121.5 40q-197 0 -221 -244l-119 -1059h-203l119 1049q24 218 141 322t308 104q171 0 256.5 -77.5t85.5 -209.5q0 -74 -26 -143.5t-63 -119.5t-74 -92.5t-63 -81t-26 -67.5z" />
    <glyph glyph-name="agrave" unicode="&#xe0;" horiz-adv-x="1140" 
d="M729 1126h-180l-148 318l213 18zM942 164q43 -12 123 -12l-23 -158q-72 -10 -129 -10q-162 0 -168 143q-133 -152 -358 -152q-139 0 -216 70.5t-77 192.5q0 161 115.5 253.5t343.5 92.5q127 0 238 -29l6 66q13 110 -38 165.5t-157 55.5q-195 0 -233 -160l-189 35
q19 65 50.5 114.5t81.5 90t127 61.5t177 21q205 0 301 -96.5t74 -286.5zM461 127q115 0 206.5 79.5t104.5 192.5l2 23q-110 27 -221 27q-125 0 -192.5 -49.5t-67.5 -141.5q0 -131 168 -131z" />
    <glyph glyph-name="aacute" unicode="&#xe1;" horiz-adv-x="1140" 
d="M936 1444l-225 -318h-181l199 336zM942 164q43 -12 123 -12l-23 -158q-72 -10 -129 -10q-162 0 -168 143q-133 -152 -358 -152q-139 0 -216 70.5t-77 192.5q0 161 115.5 253.5t343.5 92.5q127 0 238 -29l6 66q13 110 -38 165.5t-157 55.5q-195 0 -233 -160l-189 35
q19 65 50.5 114.5t81.5 90t127 61.5t177 21q205 0 301 -96.5t74 -286.5zM461 127q115 0 206.5 79.5t104.5 192.5l2 23q-110 27 -221 27q-125 0 -192.5 -49.5t-67.5 -141.5q0 -131 168 -131z" />
    <glyph glyph-name="acircumflex" unicode="&#xe2;" horiz-adv-x="1140" 
d="M655 1343l-161 -192l-172 4l264 322h170l186 -322l-172 -4zM942 164q43 -12 123 -12l-23 -158q-72 -10 -129 -10q-162 0 -168 143q-133 -152 -358 -152q-139 0 -216 70.5t-77 192.5q0 161 115.5 253.5t343.5 92.5q127 0 238 -29l6 66q13 110 -38 165.5t-157 55.5
q-195 0 -233 -160l-189 35q19 65 50.5 114.5t81.5 90t127 61.5t177 21q205 0 301 -96.5t74 -286.5zM461 127q115 0 206.5 79.5t104.5 192.5l2 23q-110 27 -221 27q-125 0 -192.5 -49.5t-67.5 -141.5q0 -131 168 -131z" />
    <glyph glyph-name="atilde" unicode="&#xe3;" horiz-adv-x="1140" 
d="M492 1290q-73 0 -97 -116l-123 14q22 116 80 181t144 65q54 0 105.5 -20.5t96.5 -41t82 -20.5q36 0 57.5 25t36.5 91l123 -14q-21 -116 -78 -182t-145 -66q-54 0 -107 21t-97 42t-78 21zM942 164q43 -12 123 -12l-23 -158q-72 -10 -129 -10q-162 0 -168 143
q-133 -152 -358 -152q-139 0 -216 70.5t-77 192.5q0 161 115.5 253.5t343.5 92.5q127 0 238 -29l6 66q13 110 -38 165.5t-157 55.5q-195 0 -233 -160l-189 35q19 65 50.5 114.5t81.5 90t127 61.5t177 21q205 0 301 -96.5t74 -286.5zM461 127q115 0 206.5 79.5t104.5 192.5
l2 23q-110 27 -221 27q-125 0 -192.5 -49.5t-67.5 -141.5q0 -131 168 -131z" />
    <glyph glyph-name="adieresis" unicode="&#xe4;" horiz-adv-x="1140" 
d="M461 1169q-47 0 -77 31t-30 80q0 58 40.5 98.5t97.5 40.5q49 0 78.5 -31t29.5 -81q0 -58 -40 -98t-99 -40zM811 1169q-49 0 -79 30.5t-30 80.5q0 58 41.5 98.5t98.5 40.5q47 0 76.5 -31t29.5 -81q0 -59 -39.5 -98.5t-97.5 -39.5zM942 164q43 -12 123 -12l-23 -158
q-72 -10 -129 -10q-162 0 -168 143q-133 -152 -358 -152q-139 0 -216 70.5t-77 192.5q0 161 115.5 253.5t343.5 92.5q127 0 238 -29l6 66q13 110 -38 165.5t-157 55.5q-195 0 -233 -160l-189 35q19 65 50.5 114.5t81.5 90t127 61.5t177 21q205 0 301 -96.5t74 -286.5z
M461 127q115 0 206.5 79.5t104.5 192.5l2 23q-110 27 -221 27q-125 0 -192.5 -49.5t-67.5 -141.5q0 -131 168 -131z" />
    <glyph glyph-name="aring" unicode="&#xe5;" horiz-adv-x="1140" 
d="M631 1110q-78 0 -126 47t-48 123q0 96 62 155.5t157 59.5q76 0 123 -46.5t47 -123.5q0 -96 -62 -155.5t-153 -59.5zM666 1403q-47 0 -77 -31t-30 -84q0 -40 22 -63t62 -23q45 0 72.5 31.5t27.5 83.5q0 40 -21 63t-56 23zM942 164q43 -12 123 -12l-23 -158
q-72 -10 -129 -10q-162 0 -168 143q-133 -152 -358 -152q-139 0 -216 70.5t-77 192.5q0 161 115.5 253.5t343.5 92.5q127 0 238 -29l6 66q13 110 -38 165.5t-157 55.5q-195 0 -233 -160l-189 35q19 65 50.5 114.5t81.5 90t127 61.5t177 21q205 0 301 -96.5t74 -286.5z
M461 127q115 0 206.5 79.5t104.5 192.5l2 23q-110 27 -221 27q-125 0 -192.5 -49.5t-67.5 -141.5q0 -131 168 -131z" />
    <glyph glyph-name="ae" unicode="&#xe6;" horiz-adv-x="1734" 
d="M995 440v-12q0 -283 267 -283q99 0 184 36t133 75l29 -166q-56 -43 -162.5 -79t-228.5 -36q-276 0 -375 205q-138 -205 -426 -205q-145 0 -223 70t-78 193q0 159 113.5 252.5t338.5 93.5q125 0 236 -29l8 66q12 111 -39 166t-158 55q-185 0 -227 -160l-188 35
q40 135 141.5 211t294.5 76q241 0 328 -134q140 134 340 134q187 0 282.5 -108t95.5 -284q0 -74 -16 -172h-670zM1286 838q-106 0 -178 -64t-98 -194h471q11 258 -195 258zM461 127q126 0 219 75.5t106 194.5l2 25q-110 27 -217 27q-125 0 -191.5 -49t-66.5 -140
q0 -68 40 -100.5t108 -32.5z" />
    <glyph glyph-name="ccedilla" unicode="&#xe7;" horiz-adv-x="1050" 
d="M991 647l-192 -22q8 98 -34 152t-136 54q-132 0 -219.5 -108t-87.5 -297q0 -139 67 -209t186 -70q74 0 146.5 23t110 45.5t83.5 54.5l27 -170q-147 -116 -356 -125l-13 -43q59 0 93 -29t34 -91q0 -102 -79 -154.5t-263 -52.5l33 119q79 0 118.5 17.5t39.5 61.5
q0 28 -29.5 39t-97.5 11l39 129q-166 22 -256 129.5t-90 300.5q0 172 61.5 305t183 210t285.5 77q176 0 262 -84t88 -218q0 -19 -4 -55z" />
    <glyph glyph-name="egrave" unicode="&#xe8;" horiz-adv-x="1056" 
d="M737 1126h-180l-147 318l213 18zM319 440v-12q0 -283 265 -283q101 0 186.5 36t130.5 75l31 -166q-56 -43 -162.5 -79t-228.5 -36q-208 0 -317 117.5t-109 327.5q0 257 143 420.5t367 163.5q188 0 283.5 -108t95.5 -284q0 -58 -15 -172h-670zM608 838q-105 0 -177 -64
t-99 -194h471q11 258 -195 258z" />
    <glyph glyph-name="eacute" unicode="&#xe9;" horiz-adv-x="1056" 
d="M944 1444l-225 -318h-180l198 336zM319 440v-12q0 -283 265 -283q101 0 186.5 36t130.5 75l31 -166q-56 -43 -162.5 -79t-228.5 -36q-208 0 -317 117.5t-109 327.5q0 257 143 420.5t367 163.5q188 0 283.5 -108t95.5 -284q0 -58 -15 -172h-670zM608 838q-105 0 -177 -64
t-99 -194h471q11 258 -195 258z" />
    <glyph glyph-name="ecircumflex" unicode="&#xea;" horiz-adv-x="1056" 
d="M664 1343l-162 -192l-172 4l264 322h170l186 -322l-172 -4zM319 440v-12q0 -283 265 -283q101 0 186.5 36t130.5 75l31 -166q-56 -43 -162.5 -79t-228.5 -36q-208 0 -317 117.5t-109 327.5q0 257 143 420.5t367 163.5q188 0 283.5 -108t95.5 -284q0 -58 -15 -172h-670z
M608 838q-105 0 -177 -64t-99 -194h471q11 258 -195 258z" />
    <glyph glyph-name="edieresis" unicode="&#xeb;" horiz-adv-x="1056" 
d="M469 1169q-47 0 -77 31t-30 80q0 58 40.5 98.5t97.5 40.5q49 0 78.5 -31t29.5 -81q0 -58 -40 -98t-99 -40zM819 1169q-49 0 -78.5 30.5t-29.5 80.5q0 58 41 98.5t98 40.5q47 0 76.5 -31t29.5 -81q0 -59 -39.5 -98.5t-97.5 -39.5zM319 440v-12q0 -283 265 -283
q101 0 186.5 36t130.5 75l31 -166q-56 -43 -162.5 -79t-228.5 -36q-208 0 -317 117.5t-109 327.5q0 257 143 420.5t367 163.5q188 0 283.5 -108t95.5 -284q0 -58 -15 -172h-670zM608 838q-105 0 -177 -64t-99 -194h471q11 258 -195 258z" />
    <glyph glyph-name="igrave" unicode="&#xec;" horiz-adv-x="454" 
d="M264 1462l-213 -18l148 -318h180zM262 164l98 819h-198l-101 -829q-6 -42 -6 -58q0 -63 34 -87.5t110 -24.5q77 0 139 10l24 158q-62 0 -100 12z" />
    <glyph glyph-name="iacute" unicode="&#xed;" horiz-adv-x="454" 
d="M377 1462l-199 -336h180l226 318zM262 164l98 819h-198l-101 -829q-6 -42 -6 -58q0 -63 34 -87.5t110 -24.5q77 0 139 10l24 158q-62 0 -100 12z" />
    <glyph glyph-name="icircumflex" unicode="&#xee;" horiz-adv-x="454" 
d="M403 1477l187 -322l-172 -4l-115 192l-162 -192l-172 4l264 322h170zM360 983l-98 -819q38 -12 100 -12l-24 -158q-62 -10 -139 -10q-76 0 -110 24.5t-34 87.5q0 16 6 58l101 829h198z" />
    <glyph glyph-name="idieresis" unicode="&#xef;" horiz-adv-x="454" 
d="M109 1169q59 0 99 40t40 98q0 50 -30 81t-79 31q-57 0 -97 -40.5t-40 -98.5q0 -49 30 -80t77 -31zM459 1169q58 0 97.5 39.5t39.5 98.5q0 49 -30 80.5t-77 31.5q-57 0 -98 -40.5t-41 -98.5q0 -50 30 -80.5t79 -30.5zM262 164l98 819h-198l-101 -829q-6 -42 -6 -58
q0 -63 34 -87.5t110 -24.5q77 0 139 10l24 158q-62 0 -100 12z" />
    <glyph glyph-name="eth" unicode="&#xf0;" horiz-adv-x="1171" 
d="M1112 1321l-168 -70q166 -202 166 -559q0 -167 -30 -294t-80 -206.5t-124 -129t-153.5 -68.5t-177.5 -19q-202 0 -316 112.5t-114 328.5q0 132 40.5 237.5t112 172.5t165 102t202.5 35q162 0 260 -91q-38 190 -139 297l-350 -147l-7 135l240 103q-121 65 -291 65l39 150
q284 0 455 -129l262 112zM567 147q154 0 240 100t86 300q0 103 -69.5 173.5t-184.5 70.5q-150 0 -235 -97t-85 -276q0 -136 64.5 -203.5t183.5 -67.5z" />
    <glyph glyph-name="ntilde" unicode="&#xf1;" horiz-adv-x="1241" 
d="M584 1290q-73 0 -97 -116l-122 14q22 116 79.5 181t143.5 65q54 0 105.5 -20.5t96.5 -41t82 -20.5t58.5 25.5t36.5 90.5l123 -14q-21 -116 -78 -182t-146 -66q-54 0 -107 21t-97 42t-78 21zM1038 164q46 -12 127 -12l-22 -158q-62 -10 -142 -10q-105 0 -140 32t-23 129
l45 418q31 262 -193 262q-111 0 -194.5 -76t-98.5 -184l-63 -565h-199l92 813q-43 12 -112 12l24 156q72 18 115 18q165 0 170 -157q135 162 346 162q183 0 260 -107.5t55 -304.5z" />
    <glyph glyph-name="ograve" unicode="&#xf2;" horiz-adv-x="1153" 
d="M666 1462l-213 -18l147 -318h180zM115 420q0 -208 118 -326.5t316 -118.5q117 0 217.5 40t174.5 113t116.5 183t42.5 244q0 212 -118 330.5t-316 118.5q-118 0 -218.5 -39.5t-174.5 -112.5t-116 -184t-42 -248zM319 430q0 187 88.5 294t239.5 107q119 0 183.5 -74
t64.5 -212q0 -187 -87.5 -292.5t-238.5 -105.5q-119 0 -184.5 73.5t-65.5 209.5z" />
    <glyph glyph-name="oacute" unicode="&#xf3;" horiz-adv-x="1153" 
d="M780 1462l-198 -336h180l225 318zM115 420q0 -208 118 -326.5t316 -118.5q117 0 217.5 40t174.5 113t116.5 183t42.5 244q0 212 -118 330.5t-316 118.5q-118 0 -218.5 -39.5t-174.5 -112.5t-116 -184t-42 -248zM319 430q0 187 88.5 294t239.5 107q119 0 183.5 -74
t64.5 -212q0 -187 -87.5 -292.5t-238.5 -105.5q-119 0 -184.5 73.5t-65.5 209.5z" />
    <glyph glyph-name="ocircumflex" unicode="&#xf4;" horiz-adv-x="1153" 
d="M707 1343l-162 -192l-172 4l264 322h170l186 -322l-172 -4zM666 1004q198 0 316 -118.5t118 -330.5q0 -134 -42.5 -244t-116.5 -183t-174.5 -113t-217.5 -40q-198 0 -316 118.5t-118 326.5q0 137 42 248t116 184t174.5 112.5t218.5 39.5zM569 147q151 0 238.5 105.5
t87.5 292.5q0 138 -64.5 212t-183.5 74q-151 0 -239.5 -107t-88.5 -294q0 -136 65.5 -209.5t184.5 -73.5z" />
    <glyph glyph-name="otilde" unicode="&#xf5;" horiz-adv-x="1153" 
d="M1049 1454q-21 -116 -78 -182t-146 -66q-54 0 -107 21t-97 42t-78 21q-73 0 -97 -116l-122 14q22 116 79.5 181t143.5 65q54 0 105.5 -20.5t96.5 -41t82 -20.5t58.5 25.5t36.5 90.5zM115 420q0 -208 118 -326.5t316 -118.5q117 0 217.5 40t174.5 113t116.5 183t42.5 244
q0 212 -118 330.5t-316 118.5q-118 0 -218.5 -39.5t-174.5 -112.5t-116 -184t-42 -248zM319 430q0 187 88.5 294t239.5 107q119 0 183.5 -74t64.5 -212q0 -187 -87.5 -292.5t-238.5 -105.5q-119 0 -184.5 73.5t-65.5 209.5z" />
    <glyph glyph-name="odieresis" unicode="&#xf6;" horiz-adv-x="1153" 
d="M510 1169q59 0 99 40t40 98q0 50 -29.5 81t-78.5 31q-57 0 -97.5 -40.5t-40.5 -98.5q0 -49 30 -80t77 -31zM860 1169q58 0 97.5 39.5t39.5 98.5q0 50 -29.5 81t-76.5 31q-57 0 -98 -40.5t-41 -98.5q0 -50 29.5 -80.5t78.5 -30.5zM115 420q0 -208 118 -326.5t316 -118.5
q117 0 217.5 40t174.5 113t116.5 183t42.5 244q0 212 -118 330.5t-316 118.5q-118 0 -218.5 -39.5t-174.5 -112.5t-116 -184t-42 -248zM319 430q0 187 88.5 294t239.5 107q119 0 183.5 -74t64.5 -212q0 -187 -87.5 -292.5t-238.5 -105.5q-119 0 -184.5 73.5t-65.5 209.5z
" />
    <glyph glyph-name="divide" unicode="&#xf7;" horiz-adv-x="1116" 
d="M610 848q67 0 114.5 44t47.5 109q0 55 -36 91t-91 36q-67 0 -114.5 -44t-47.5 -109q0 -56 35 -91.5t92 -35.5zM1036 729h-878l-19 -160h879zM532 170q67 0 114.5 44.5t47.5 109.5q0 56 -35 91.5t-92 35.5q-67 0 -114 -44.5t-47 -109.5q0 -56 35.5 -91.5t90.5 -35.5z" />
    <glyph glyph-name="oslash" unicode="&#xf8;" horiz-adv-x="1153" 
d="M973 893q127 -121 127 -338q0 -134 -42.5 -244t-116.5 -183t-174.5 -113t-217.5 -40q-113 0 -197 37l-67 -96l-150 18l107 150q-127 124 -127 336q0 137 42 248t116 184t174.5 112.5t218.5 39.5q113 0 198 -39l68 98l147 -19zM319 430q0 -109 43 -176l394 557
q-47 20 -109 20q-151 0 -239.5 -107t-88.5 -294zM569 147q151 0 238.5 105.5t87.5 292.5q0 110 -41 178l-393 -555q50 -21 108 -21z" />
    <glyph glyph-name="ugrave" unicode="&#xf9;" horiz-adv-x="1224" 
d="M786 1126h-180l-147 318l213 18zM1012 164q46 -12 125 -12l-21 -158q-72 -10 -119 -10q-87 0 -132 36.5t-48 126.5q-143 -172 -373 -172q-65 0 -113 12t-85.5 40.5t-56.5 74.5t-26 114.5t5 160.5l47 436q-44 12 -111 12l23 156q54 14 131 14q95 0 132.5 -38t27.5 -140
l-47 -409q-15 -139 23 -196.5t138 -57.5q129 0 214.5 87.5t99.5 215.5l59 526h199z" />
    <glyph glyph-name="uacute" unicode="&#xfa;" horiz-adv-x="1224" 
d="M993 1444l-225 -318h-180l198 336zM1012 164q46 -12 125 -12l-21 -158q-72 -10 -119 -10q-87 0 -132 36.5t-48 126.5q-143 -172 -373 -172q-65 0 -113 12t-85.5 40.5t-56.5 74.5t-26 114.5t5 160.5l47 436q-44 12 -111 12l23 156q54 14 131 14q95 0 132.5 -38t27.5 -140
l-47 -409q-15 -139 23 -196.5t138 -57.5q129 0 214.5 87.5t99.5 215.5l59 526h199z" />
    <glyph glyph-name="ucircumflex" unicode="&#xfb;" horiz-adv-x="1224" 
d="M713 1343l-162 -192l-172 4l264 322h170l186 -322l-172 -4zM1012 164q46 -12 125 -12l-21 -158q-72 -10 -119 -10q-87 0 -132 36.5t-48 126.5q-143 -172 -373 -172q-65 0 -113 12t-85.5 40.5t-56.5 74.5t-26 114.5t5 160.5l47 436q-44 12 -111 12l23 156q54 14 131 14
q95 0 132.5 -38t27.5 -140l-47 -409q-15 -139 23 -196.5t138 -57.5q129 0 214.5 87.5t99.5 215.5l59 526h199z" />
    <glyph glyph-name="udieresis" unicode="&#xfc;" horiz-adv-x="1224" 
d="M518 1169q-47 0 -76.5 31t-29.5 80q0 58 40 98.5t97 40.5q49 0 78.5 -31t29.5 -81q0 -58 -40 -98t-99 -40zM868 1169q-49 0 -78.5 30.5t-29.5 80.5q0 58 41 98.5t98 40.5q47 0 77 -31.5t30 -80.5q0 -59 -40 -98.5t-98 -39.5zM1012 164q46 -12 125 -12l-21 -158
q-72 -10 -119 -10q-87 0 -132 36.5t-48 126.5q-143 -172 -373 -172q-65 0 -113 12t-85.5 40.5t-56.5 74.5t-26 114.5t5 160.5l47 436q-44 12 -111 12l23 156q54 14 131 14q95 0 132.5 -38t27.5 -140l-47 -409q-15 -139 23 -196.5t138 -57.5q129 0 214.5 87.5t99.5 215.5
l59 526h199z" />
    <glyph glyph-name="yacute" unicode="&#xfd;" horiz-adv-x="1087" 
d="M944 1444l-225 -318h-180l198 336zM915 997l213 -18l-606 -1139q-69 -125 -155.5 -177t-212.5 -52q-86 0 -136 20l15 174q59 -22 127 -22q74 0 121.5 24t76.5 84l54 107l-242 815q-52 10 -104 10l20 158q53 16 117 16q67 0 102.5 -27t52.5 -89l179 -635z" />
    <glyph glyph-name="thorn" unicode="&#xfe;" horiz-adv-x="1169" 
d="M741 1004q170 0 272.5 -112.5t102.5 -311.5q0 -286 -150.5 -445.5t-418.5 -159.5q-113 0 -205 37l-43 -381h-201l209 1823h201l-66 -571q114 121 299 121zM555 147q165 0 259.5 100t94.5 312q0 133 -59.5 202.5t-163.5 69.5q-99 0 -176.5 -61t-97.5 -156l-50 -424
q88 -43 193 -43z" />
    <glyph glyph-name="ydieresis" unicode="&#xff;" horiz-adv-x="1087" 
d="M469 1169q-47 0 -77 31t-30 80q0 58 40.5 98.5t97.5 40.5q49 0 78.5 -31t29.5 -81q0 -58 -40 -98t-99 -40zM819 1169q-49 0 -78.5 30.5t-29.5 80.5q0 58 41 98.5t98 40.5q47 0 76.5 -31t29.5 -81q0 -59 -39.5 -98.5t-97.5 -39.5zM915 997l213 -18l-606 -1139
q-69 -125 -155.5 -177t-212.5 -52q-86 0 -136 20l15 174q59 -22 127 -22q74 0 121.5 24t76.5 84l54 107l-242 815q-52 10 -104 10l20 158q53 16 117 16q67 0 102.5 -27t52.5 -89l179 -635z" />
    <glyph glyph-name="Amacron" unicode="&#x100;" horiz-adv-x="1390" 
d="M1083 1694l-18 -150h-549l19 150h548zM1233 178q54 -16 139 -16l-24 -168q-42 -10 -123 -10q-83 0 -125 24t-60 94l-69 275h-629l-180 -377h-215l710 1442l230 35zM422 549h506l-174 698z" />
    <glyph glyph-name="amacron" unicode="&#x101;" horiz-adv-x="1140" 
d="M952 1366l-18 -160h-590l18 160h590zM942 164q43 -12 123 -12l-23 -158q-72 -10 -129 -10q-162 0 -168 143q-133 -152 -358 -152q-139 0 -216 70.5t-77 192.5q0 161 115.5 253.5t343.5 92.5q127 0 238 -29l6 66q13 110 -38 165.5t-157 55.5q-195 0 -233 -160l-189 35
q19 65 50.5 114.5t81.5 90t127 61.5t177 21q205 0 301 -96.5t74 -286.5zM461 127q115 0 206.5 79.5t104.5 192.5l2 23q-110 27 -221 27q-125 0 -192.5 -49.5t-67.5 -141.5q0 -131 168 -131z" />
    <glyph glyph-name="Abreve" unicode="&#x102;" horiz-adv-x="1390" 
d="M782 1505q-104 0 -157.5 55.5t-53.5 184.5l127 12q0 -74 24.5 -103.5t78.5 -29.5q58 0 91 30.5t50 102.5l123 -12q-24 -125 -93.5 -182.5t-189.5 -57.5zM1233 178q54 -16 139 -16l-24 -168q-42 -10 -123 -10q-83 0 -125 24t-60 94l-69 275h-629l-180 -377h-215l710 1442
l230 35zM422 549h506l-174 698z" />
    <glyph glyph-name="abreve" unicode="&#x103;" horiz-adv-x="1140" 
d="M631 1130q-134 0 -190 72t-56 236l143 10q-3 -95 27 -135.5t94 -40.5q63 0 101.5 40.5t56.5 135.5l137 -10q-46 -308 -313 -308zM942 164q43 -12 123 -12l-23 -158q-72 -10 -129 -10q-162 0 -168 143q-133 -152 -358 -152q-139 0 -216 70.5t-77 192.5q0 161 115.5 253.5
t343.5 92.5q127 0 238 -29l6 66q13 110 -38 165.5t-157 55.5q-195 0 -233 -160l-189 35q19 65 50.5 114.5t81.5 90t127 61.5t177 21q205 0 301 -96.5t74 -286.5zM461 127q115 0 206.5 79.5t104.5 192.5l2 23q-110 27 -221 27q-125 0 -192.5 -49.5t-67.5 -141.5
q0 -131 168 -131z" />
    <glyph glyph-name="Aogonek" unicode="&#x104;" horiz-adv-x="1390" 
d="M1372 162l-24 -168h-2h2q-197 -110 -197 -213q0 -51 55 -51q28 0 86 20l-8 -131q-72 -25 -151 -25q-158 0 -158 130q0 89 56 155t140 107q-55 6 -86 32t-45 84l-69 275h-629l-180 -377h-215l710 1442l230 35l346 -1299q54 -16 139 -16zM422 549h506l-174 698z" />
    <glyph glyph-name="aogonek" unicode="&#x105;" horiz-adv-x="1140" 
d="M1042 -6q-196 -109 -196 -213q0 -51 55 -51q29 0 86 20l-8 -131q-72 -25 -152 -25q-157 0 -157 130q0 89 57 156t139 108q-115 17 -121 139q-133 -152 -358 -152q-139 0 -216 70.5t-77 192.5q0 161 115.5 253.5t343.5 92.5q127 0 238 -29l6 66q13 110 -38 165.5
t-157 55.5q-195 0 -233 -160l-189 35q19 65 50.5 114.5t81.5 90t127 61.5t177 21q205 0 301 -96.5t74 -286.5l-49 -457q43 -12 123 -12l-23 -158h-2h2zM461 127q115 0 206.5 79.5t104.5 192.5l2 23q-110 27 -221 27q-125 0 -192.5 -49.5t-67.5 -141.5q0 -131 168 -131z" />
    <glyph glyph-name="Cacute" unicode="&#x106;" horiz-adv-x="1368" 
d="M895 1755l-150 -235l183 -11l184 217zM770 168q-215 0 -335 124t-120 353q0 310 139.5 478.5t360.5 168.5q173 0 254 -77t70 -230l209 27q4 32 4 67q0 180 -130.5 288t-379.5 108q-159 0 -294.5 -57.5t-235.5 -165t-157 -272t-57 -368.5q0 -300 166 -468.5t455 -168.5
q175 0 302.5 38t205.5 91l-25 189q-201 -125 -432 -125z" />
    <glyph glyph-name="cacute" unicode="&#x107;" horiz-adv-x="1050" 
d="M756 1462l-199 -336h180l226 318zM915 270q-46 -32 -83.5 -54.5t-110 -45.5t-146.5 -23q-119 0 -186 70t-67 209q0 189 87.5 297t219.5 108q94 0 136 -54t34 -152l192 22q4 36 4 55q-2 134 -88 218t-262 84q-164 0 -285.5 -77t-183 -210t-61.5 -305q0 -217 113.5 -327
t320.5 -110q236 0 393 125z" />
    <glyph glyph-name="Cdotaccent" unicode="&#x10a;" horiz-adv-x="1368" 
d="M852 1544q58 0 96.5 39t38.5 98q0 47 -29 78t-75 31q-60 0 -99 -39t-39 -98q0 -48 28.5 -78.5t78.5 -30.5zM770 168q-215 0 -335 124t-120 353q0 310 139.5 478.5t360.5 168.5q173 0 254 -77t70 -230l209 27q4 32 4 67q0 180 -130.5 288t-379.5 108q-159 0 -294.5 -57.5
t-235.5 -165t-157 -272t-57 -368.5q0 -300 166 -468.5t455 -168.5q175 0 302.5 38t205.5 91l-25 189q-201 -125 -432 -125z" />
    <glyph glyph-name="cdotaccent" unicode="&#x10b;" horiz-adv-x="1050" 
d="M664 1165q62 0 105.5 44t43.5 108q0 53 -32 87t-85 34q-61 0 -105 -43t-44 -107q0 -54 32.5 -88.5t84.5 -34.5zM915 270q-46 -32 -83.5 -54.5t-110 -45.5t-146.5 -23q-119 0 -186 70t-67 209q0 189 87.5 297t219.5 108q94 0 136 -54t34 -152l192 22q4 36 4 55
q-2 134 -88 218t-262 84q-164 0 -285.5 -77t-183 -210t-61.5 -305q0 -217 113.5 -327t320.5 -110q236 0 393 125z" />
    <glyph glyph-name="Ccaron" unicode="&#x10c;" horiz-adv-x="1368" 
d="M938 1516h-184l-154 208l166 25l92 -135l125 135l162 -25zM1348 1012l-209 -27q11 153 -70 230t-254 77q-221 0 -360.5 -168.5t-139.5 -478.5q0 -229 120 -353t335 -124q231 0 432 125l25 -189q-78 -53 -205.5 -91t-302.5 -38q-289 0 -455 168.5t-166 468.5
q0 204 57 368.5t157 272t235.5 165t294.5 57.5q249 0 379.5 -108t130.5 -288q0 -35 -4 -67z" />
    <glyph glyph-name="ccaron" unicode="&#x10d;" horiz-adv-x="1050" 
d="M741 1133h-168l-188 321l172 4l115 -194l164 194l170 -4zM645 1004q176 0 262 -84t88 -218q0 -19 -4 -55l-192 -22q8 98 -34 152t-136 54q-132 0 -219.5 -108t-87.5 -297q0 -139 67 -209t186 -70q74 0 146.5 23t110 45.5t83.5 54.5l27 -170q-157 -125 -393 -125
q-207 0 -320.5 110t-113.5 327q0 172 61.5 305t183 210t285.5 77z" />
    <glyph glyph-name="Dcaron" unicode="&#x10e;" horiz-adv-x="1521" 
d="M864 1516h-184l-154 208l166 25l92 -135l125 135l162 -25zM768 1475q313 0 484 -177.5t171 -474.5q0 -185 -60 -338.5t-170 -260t-270 -165.5t-354 -59h-428l144 1268h-166l20 170q111 24 185 24q99 0 139 -49q154 62 305 62zM596 188q299 0 455.5 166.5t156.5 450.5
q0 219 -119.5 350t-353.5 131q-103 0 -243 -20l-121 -1078h225z" />
    <glyph glyph-name="dcaron" unicode="&#x10f;" horiz-adv-x="1323" 
d="M1362 1468l174 -14l-111 -393l-159 14zM956 1454h197l-143 -1290q53 -12 129 -12l-21 -158q-72 -10 -137 -10q-71 0 -115 32t-51 115q-135 -156 -346 -156q-159 0 -256.5 111t-97.5 315q0 274 149.5 438.5t380.5 164.5q156 0 252 -60zM530 147q121 0 209 79.5t99 193.5
l39 332q-87 79 -236 79q-141 0 -230 -109.5t-89 -303.5q0 -140 57.5 -205.5t150.5 -65.5z" />
    <glyph glyph-name="Dcroat" unicode="&#x110;" horiz-adv-x="1521" 
d="M768 1475q313 0 484 -177.5t171 -474.5q0 -185 -60 -338.5t-170 -260t-270 -165.5t-354 -59h-428l72 633h-154l25 168h147l54 467h-166l20 170q111 24 185 24q99 0 139 -49q154 62 305 62zM596 188q299 0 455.5 166.5t156.5 450.5q0 219 -119.5 350t-353.5 131
q-103 0 -243 -20l-52 -465h234l-23 -168h-231l-49 -445h225z" />
    <glyph glyph-name="dcroat" unicode="&#x111;" horiz-adv-x="1323" 
d="M1249 1126h-131l-108 -962q53 -12 129 -12l-21 -158q-72 -10 -137 -10q-71 0 -115 32t-51 117q-137 -158 -344 -158q-160 0 -258 111t-98 315q0 274 149.5 438.5t380.5 164.5q156 0 252 -60l23 182h-314l19 146h311l20 182h197l-20 -182h133zM535 147q113 0 202 79
t101 192l39 334q-87 79 -236 79q-141 0 -230 -109.5t-89 -303.5q0 -140 58.5 -205.5t154.5 -65.5z" />
    <glyph glyph-name="Emacron" unicode="&#x112;" horiz-adv-x="1107" 
d="M1047 1694l-19 -150h-549l19 150h549zM1149 1270h-676l-51 -457h627l-21 -176h-627l-53 -453h692l-22 -184h-899l168 1454h897z" />
    <glyph glyph-name="emacron" unicode="&#x113;" horiz-adv-x="1056" 
d="M958 1366l-18 -160h-590l19 160h589zM319 440v-12q0 -283 265 -283q101 0 186.5 36t130.5 75l31 -166q-56 -43 -162.5 -79t-228.5 -36q-208 0 -317 117.5t-109 327.5q0 257 143 420.5t367 163.5q188 0 283.5 -108t95.5 -284q0 -58 -15 -172h-670zM608 838
q-105 0 -177 -64t-99 -194h471q11 258 -195 258z" />
    <glyph glyph-name="Edotaccent" unicode="&#x116;" horiz-adv-x="1107" 
d="M756 1544q-50 0 -78.5 30.5t-28.5 78.5q0 59 38.5 98t98.5 39q47 0 76 -31t29 -78q0 -59 -38.5 -98t-96.5 -39zM1149 1270h-676l-51 -457h627l-21 -176h-627l-53 -453h692l-22 -184h-899l168 1454h897z" />
    <glyph glyph-name="edotaccent" unicode="&#x117;" horiz-adv-x="1056" 
d="M643 1165q-52 0 -84.5 34.5t-32.5 88.5q0 63 44.5 106.5t105.5 43.5q53 0 85 -34t32 -87q0 -64 -44 -108t-106 -44zM319 440v-12q0 -283 265 -283q101 0 186.5 36t130.5 75l31 -166q-56 -43 -162.5 -79t-228.5 -36q-208 0 -317 117.5t-109 327.5q0 257 143 420.5
t367 163.5q188 0 283.5 -108t95.5 -284q0 -58 -15 -172h-670zM608 838q-105 0 -177 -64t-99 -194h471q11 258 -195 258z" />
    <glyph glyph-name="Eogonek" unicode="&#x118;" horiz-adv-x="1107" 
d="M1149 1270h-676l-51 -457h627l-21 -176h-627l-53 -453h692l-22 -184q-197 -110 -197 -213q0 -51 56 -51q29 0 86 20l-9 -131q-69 -24 -151 -24q-158 0 -158 129q0 93 62.5 161.5t150.5 108.5h-739l168 1454h897z" />
    <glyph glyph-name="eogonek" unicode="&#x119;" horiz-adv-x="1056" 
d="M319 440v-12q0 -283 265 -283q101 0 186.5 36t130.5 75l31 -166q-42 -30 -107 -59q-188 -105 -188 -207q0 -51 55 -51q28 0 86 20l-8 -131q-69 -24 -152 -24q-157 0 -157 129q0 121 112 208h-32q-208 0 -317 117.5t-109 327.5q0 257 143 420.5t367 163.5
q188 0 283.5 -108t95.5 -284q0 -58 -15 -172h-670zM608 838q-105 0 -177 -64t-99 -194h471q11 258 -195 258z" />
    <glyph glyph-name="Ecaron" unicode="&#x11a;" horiz-adv-x="1107" 
d="M842 1516h-185l-153 208l166 25l92 -135l125 135l162 -25zM1149 1270h-676l-51 -457h627l-21 -176h-627l-53 -453h692l-22 -184h-899l168 1454h897z" />
    <glyph glyph-name="ecaron" unicode="&#x11b;" horiz-adv-x="1056" 
d="M721 1133h-168l-188 321l172 4l114 -194l164 194l170 -4zM319 440v-12q0 -283 265 -283q101 0 186.5 36t130.5 75l31 -166q-56 -43 -162.5 -79t-228.5 -36q-208 0 -317 117.5t-109 327.5q0 257 143 420.5t367 163.5q188 0 283.5 -108t95.5 -284q0 -58 -15 -172h-670z
M608 838q-105 0 -177 -64t-99 -194h471q11 258 -195 258z" />
    <glyph glyph-name="Gbreve" unicode="&#x11e;" horiz-adv-x="1536" 
d="M854 1505q-104 0 -157.5 55.5t-53.5 184.5l127 12q0 -74 24 -103.5t78 -29.5q58 0 91.5 30.5t50.5 102.5l123 -12q-24 -125 -93.5 -182.5t-189.5 -57.5zM1325 778q48 0 69 -24t21 -58t-14 -172l-62 -524h-161l12 186q-89 -101 -217.5 -156t-280.5 -55
q-277 0 -435.5 170.5t-158.5 472.5q0 205 57.5 368t161.5 270t248.5 163t319.5 56q250 0 384 -108.5t136 -301.5l-213 -41q-2 125 -88 195.5t-240 70.5q-256 0 -403.5 -172.5t-147.5 -480.5q0 -226 113 -351.5t317 -125.5q189 0 319.5 95.5t147.5 274.5l7 82h-416l20 166
h504z" />
    <glyph glyph-name="gbreve" unicode="&#x11f;" horiz-adv-x="1091" 
d="M641 1130q-134 0 -190 72t-56 236l144 10q-3 -95 26.5 -135.5t93.5 -40.5q63 0 101.5 40.5t56.5 135.5l137 -10q-46 -308 -313 -308zM754 203q131 0 195.5 -60t64.5 -163q0 -166 -137.5 -267.5t-401.5 -101.5q-217 0 -323.5 64.5t-106.5 181.5q0 155 141 245
q-49 46 -49 125q0 73 40 128t122 104q-82 73 -82 190q0 154 114.5 254.5t309.5 100.5q102 0 178 -31q35 102 110 151t193 52l2 -175q-134 -5 -192 -104q59 -71 59 -176q0 -157 -111.5 -252.5t-310.5 -95.5q-104 0 -180 30q-39 -26 -55.5 -53t-16.5 -63q0 -84 105 -84h332z
M623 864q-103 0 -158 -56t-55 -151q0 -72 44 -110.5t130 -38.5q106 0 159.5 52t53.5 147q0 74 -44 115.5t-130 41.5zM504 -233q148 0 229.5 46t81.5 128q0 104 -141 104h-330h-22q-80 -54 -80 -143q0 -135 262 -135z" />
    <glyph glyph-name="Gdotaccent" unicode="&#x120;" horiz-adv-x="1536" 
d="M864 1544q-50 0 -78 30t-28 79q0 59 38.5 98t98.5 39q46 0 75 -31t29 -78q0 -59 -38.5 -98t-96.5 -39zM1325 778q48 0 69 -24t21 -58t-14 -172l-62 -524h-161l12 186q-89 -101 -217.5 -156t-280.5 -55q-277 0 -435.5 170.5t-158.5 472.5q0 205 57.5 368t161.5 270
t248.5 163t319.5 56q250 0 384 -108.5t136 -301.5l-213 -41q-2 125 -88 195.5t-240 70.5q-256 0 -403.5 -172.5t-147.5 -480.5q0 -226 113 -351.5t317 -125.5q189 0 319.5 95.5t147.5 274.5l7 82h-416l20 166h504z" />
    <glyph glyph-name="gdotaccent" unicode="&#x121;" horiz-adv-x="1091" 
d="M647 1165q-52 0 -84.5 34.5t-32.5 88.5q0 63 44.5 106.5t105.5 43.5q53 0 85 -34t32 -87q0 -64 -44 -108t-106 -44zM754 203q131 0 195.5 -60t64.5 -163q0 -166 -137.5 -267.5t-401.5 -101.5q-217 0 -323.5 64.5t-106.5 181.5q0 155 141 245q-49 46 -49 125q0 73 40 128
t122 104q-82 73 -82 190q0 154 114.5 254.5t309.5 100.5q102 0 178 -31q35 102 110 151t193 52l2 -175q-134 -5 -192 -104q59 -71 59 -176q0 -157 -111.5 -252.5t-310.5 -95.5q-104 0 -180 30q-39 -26 -55.5 -53t-16.5 -63q0 -84 105 -84h332zM623 864q-103 0 -158 -56
t-55 -151q0 -72 44 -110.5t130 -38.5q106 0 159.5 52t53.5 147q0 74 -44 115.5t-130 41.5zM504 -233q148 0 229.5 46t81.5 128q0 104 -141 104h-330h-22q-80 -54 -80 -143q0 -135 262 -135z" />
    <glyph glyph-name="Gcommaaccent" unicode="&#x122;" horiz-adv-x="1536" 
d="M1325 778q48 0 69 -24t21 -58t-14 -172l-62 -524h-161l12 186q-89 -101 -217.5 -156t-280.5 -55q-277 0 -435.5 170.5t-158.5 472.5q0 205 57.5 368t161.5 270t248.5 163t319.5 56q250 0 384 -108.5t136 -301.5l-213 -41q-2 125 -88 195.5t-240 70.5
q-256 0 -403.5 -172.5t-147.5 -480.5q0 -226 113 -351.5t317 -125.5q189 0 319.5 95.5t147.5 274.5l7 82h-416l20 166h504zM700 -61q113 0 113 -125q0 -106 -64.5 -166.5t-160.5 -73.5l-8 88q98 22 104 96q-102 0 -102 74q0 48 32 77.5t86 29.5z" />
    <glyph glyph-name="gcommaaccent" unicode="&#x123;" horiz-adv-x="1091" 
d="M584 1171q-57 0 -85 34t-28 91q0 106 64.5 166.5t160.5 73.5l11 -88q-98 -22 -107 -96q102 0 102 -74q0 -48 -32 -77.5t-86 -29.5zM754 203q131 0 195.5 -60t64.5 -163q0 -166 -137.5 -267.5t-401.5 -101.5q-217 0 -323.5 64.5t-106.5 181.5q0 155 141 245
q-49 46 -49 125q0 73 40 128t122 104q-82 73 -82 190q0 154 114.5 254.5t309.5 100.5q102 0 178 -31q35 102 110 151t193 52l2 -175q-134 -5 -192 -104q59 -71 59 -176q0 -157 -111.5 -252.5t-310.5 -95.5q-104 0 -180 30q-39 -26 -55.5 -53t-16.5 -63q0 -84 105 -84h332z
M623 864q-103 0 -158 -56t-55 -151q0 -72 44 -110.5t130 -38.5q106 0 159.5 52t53.5 147q0 74 -44 115.5t-130 41.5zM504 -233q148 0 229.5 46t81.5 128q0 104 -141 104h-330h-22q-80 -54 -80 -143q0 -135 262 -135z" />
    <glyph glyph-name="Hbar" unicode="&#x126;" horiz-adv-x="1519" 
d="M1554 1126h-145l-106 -948q58 -16 139 -16l-23 -168q-62 -10 -137 -10q-103 0 -152 39t-38 145l51 444h-746l-69 -612h-209l129 1126h-129l16 146h129l21 182h207l-21 -182h746l20 182h209l-21 -182h144zM1165 805l35 321h-745l-37 -321h747z" />
    <glyph glyph-name="hbar" unicode="&#x127;" horiz-adv-x="1216" 
d="M1014 164q46 -12 125 -12l-23 -158q-62 -10 -143 -10q-102 0 -137 32t-25 129l47 418q31 262 -188 262q-112 0 -195 -76t-94 -182l-64 -567h-200l127 1126h-94l18 146h92l21 182h198l-20 -182h338l-19 -146h-336l-30 -274q132 152 336 152q182 0 259.5 -107.5
t55.5 -304.5z" />
    <glyph glyph-name="Itilde" unicode="&#x128;" horiz-adv-x="563" 
d="M707 1741q-40 -205 -183 -205q-46 0 -109 24.5t-89 24.5q-58 0 -72 -84l-115 15q37 204 180 204q48 0 111.5 -24.5t89.5 -24.5q58 0 72 84zM299 1454l-180 -1454h209l178 1454h-207z" />
    <glyph glyph-name="itilde" unicode="&#x129;" horiz-adv-x="454" 
d="M645 1454q-21 -116 -78 -182t-145 -66q-54 0 -107 21t-97.5 42t-78.5 21q-72 0 -96 -116l-123 14q22 116 79.5 181t143.5 65q54 0 106 -20.5t97 -41t82 -20.5q36 0 57.5 25t36.5 91zM262 164l98 819h-198l-101 -829q-6 -42 -6 -58q0 -63 34 -87.5t110 -24.5q77 0 139 10
l24 158q-62 0 -100 12z" />
    <glyph glyph-name="Imacron" unicode="&#x12a;" horiz-adv-x="563" 
d="M225 1694l-12 -150h393l12 150h-393zM299 1454l-180 -1454h209l178 1454h-207z" />
    <glyph glyph-name="imacron" unicode="&#x12b;" horiz-adv-x="454" 
d="M55 1366l-14 -160h481l17 160h-484zM262 164l98 819h-198l-101 -829q-6 -42 -6 -58q0 -63 34 -87.5t110 -24.5q77 0 139 10l24 158q-62 0 -100 12z" />
    <glyph glyph-name="Iogonek" unicode="&#x12e;" horiz-adv-x="563" 
d="M328 0q-197 -110 -197 -213q0 -51 55 -51q28 0 86 20l-8 -131q-69 -24 -151 -24q-158 0 -158 129q0 93 62.5 161.5t150.5 108.5h-49l180 1454h207z" />
    <glyph glyph-name="iogonek" unicode="&#x12f;" horiz-adv-x="454" 
d="M315 1438q53 0 85 -34t32 -87q0 -64 -43.5 -108t-105.5 -44q-52 0 -84.5 34.5t-32.5 88.5q0 64 44 107t105 43zM362 152l-24 -158h2q-197 -110 -197 -213q0 -51 56 -51q28 0 86 20l-9 -131q-72 -25 -151 -25q-158 0 -158 130q0 87 55.5 153t137.5 107q-55 6 -80 31.5
t-25 80.5q0 16 6 58l101 829h198l-98 -819q38 -12 100 -12z" />
    <glyph glyph-name="Idotaccent" unicode="&#x130;" horiz-adv-x="563" 
d="M414 1544q58 0 96.5 39t38.5 98q0 47 -29 78t-76 31q-60 0 -98.5 -39t-38.5 -98q0 -48 28.5 -78.5t78.5 -30.5zM299 1454l-180 -1454h209l178 1454h-207z" />
    <glyph glyph-name="dotlessi" unicode="&#x131;" horiz-adv-x="454" 
d="M262 164l98 819h-198l-101 -829q-6 -42 -6 -58q0 -63 34 -87.5t110 -24.5q77 0 139 10l24 158q-62 0 -100 12z" />
    <glyph glyph-name="IJ" unicode="&#x132;" horiz-adv-x="1372" 
d="M299 1454l-180 -1454h209l178 1454h-207zM1323 1454h-207l-121 -1038q-17 -139 -81 -198.5t-189 -59.5q-110 0 -250 57l-39 -182q37 -23 111.5 -40.5t171.5 -17.5q106 0 185.5 22t142.5 71.5t102 135.5t53 208z" />
    <glyph glyph-name="ij" unicode="&#x133;" horiz-adv-x="888" 
d="M283 1165q62 0 105.5 44t43.5 108q0 53 -32 87t-85 34q-61 0 -105 -43t-44 -107q0 -54 32.5 -88.5t84.5 -34.5zM774 1165q62 0 106 44t44 108q0 53 -32 87t-85 34q-61 0 -105.5 -43.5t-44.5 -106.5q0 -54 32.5 -88.5t84.5 -34.5zM262 164l98 819h-198l-101 -829
q-6 -42 -6 -58q0 -63 34 -87.5t110 -24.5q77 0 139 10l24 158q-62 0 -100 12zM852 983h-201l-131 -1081q-7 -63 -30 -88t-70 -25q-32 0 -84 21l-29 -175q54 -24 129 -24q121 0 192 63t89 211z" />
    <glyph glyph-name="Kcommaaccent" unicode="&#x136;" horiz-adv-x="1302" 
d="M1053 244q25 -39 42.5 -53.5t52.5 -21.5t109 -7l-24 -168q-58 -10 -119 -10q-85 0 -134.5 26t-100.5 111l-287 491h-195l-69 -612h-209l166 1454h209l-74 -641h190l553 657l226 -28l-625 -727zM586 -61q112 0 112 -125q0 -106 -64.5 -166.5t-160.5 -73.5l-8 88
q98 22 104 96q-102 0 -102 74q0 48 32.5 77.5t86.5 29.5z" />
    <glyph glyph-name="kcommaaccent" unicode="&#x137;" horiz-adv-x="1011" 
d="M637 588l205 -418q40 -23 141 -23l-22 -153q-52 -10 -121 -10q-63 0 -101 19t-61 63l-191 383l-153 -144l-35 -305h-201l168 1454h199l-105 -911l474 454l225 -14zM455 -61q112 0 112 -125q0 -106 -64.5 -166.5t-160.5 -73.5l-8 88q98 22 104 96q-102 0 -102 74
q0 48 32.5 77.5t86.5 29.5z" />
    <glyph glyph-name="kgreenlandic" unicode="&#x138;" horiz-adv-x="1077" 
d="M633 594l211 -424q37 -23 141 -23l-22 -153q-52 -10 -121 -10q-62 0 -100.5 18.5t-61.5 60.5l-195 390l-151 -146l-35 -307h-201l113 991h199l-50 -444l457 450l221 -14z" />
    <glyph glyph-name="Lacute" unicode="&#x139;" horiz-adv-x="1081" 
d="M655 1726l-184 -217l-182 11l149 235zM346 193h696l-24 -193h-903l166 1454h208z" />
    <glyph glyph-name="lacute" unicode="&#x13a;" horiz-adv-x="518" 
d="M420 1755l-150 -235l183 -11l184 217zM260 1454l-154 -1247q-8 -70 -8 -88q0 -76 41.5 -105.5t130.5 -29.5q80 0 142 10l22 156q-88 0 -129 14l158 1290h-203z" />
    <glyph glyph-name="Lcommaaccent" unicode="&#x13b;" horiz-adv-x="1081" 
d="M346 193h696l-24 -193h-903l166 1454h208zM541 -61q112 0 112 -125q0 -106 -64.5 -166.5t-160.5 -73.5l-8 88q98 22 104 96q-102 0 -102 74q0 48 32.5 77.5t86.5 29.5z" />
    <glyph glyph-name="lcommaaccent" unicode="&#x13c;" horiz-adv-x="518" 
d="M260 1454l-154 -1247q-8 -70 -8 -88q0 -76 41.5 -105.5t130.5 -29.5q80 0 142 10l22 156q-88 0 -129 14l158 1290h-203zM342 -186q0 -106 -64.5 -166.5t-160.5 -73.5l-8 88q98 22 104 96q-102 0 -102 74q0 48 32 77.5t86 29.5q113 0 113 -125z" />
    <glyph glyph-name="Lcaron" unicode="&#x13d;" horiz-adv-x="1081" 
d="M1016 1454l-111 -393l-160 14l97 393zM346 193h696l-24 -193h-903l166 1454h208z" />
    <glyph glyph-name="lcaron" unicode="&#x13e;" horiz-adv-x="608" 
d="M821 1454l-174 14l-96 -393l160 -14zM260 1454l-154 -1247q-8 -70 -8 -88q0 -76 41.5 -105.5t130.5 -29.5q80 0 142 10l22 156q-88 0 -129 14l158 1290h-203z" />
    <glyph glyph-name="Ldot" unicode="&#x13f;" horiz-adv-x="1081" 
d="M346 193h696l-24 -193h-903l166 1454h208zM862 479q-57 0 -88 33t-31 88q0 76 47 125t123 49q60 0 89.5 -34.5t29.5 -90.5q0 -79 -48.5 -124.5t-121.5 -45.5z" />
    <glyph glyph-name="ldot" unicode="&#x140;" horiz-adv-x="794" 
d="M260 1454l-154 -1247q-8 -70 -8 -88q0 -76 41.5 -105.5t130.5 -29.5q80 0 142 10l22 156q-88 0 -129 14l158 1290h-203zM662 479q73 0 121 45.5t48 124.5q0 56 -29 90.5t-89 34.5q-76 0 -123 -49t-47 -125q0 -55 31 -88t88 -33z" />
    <glyph glyph-name="Lslash" unicode="&#x141;" horiz-adv-x="997" 
d="M406 193h706l-22 -193h-916l70 604l-160 -51l20 164l158 51l78 686h209l-70 -616l330 106l-18 -164l-330 -106z" />
    <glyph glyph-name="lslash" unicode="&#x142;" horiz-adv-x="677" 
d="M600 776l-162 -63l-69 -549q46 -14 143 -14l-23 -156q-65 -10 -147 -10q-104 0 -144.5 37.5t-27.5 146.5l57 463l-131 -51l21 163l131 52l80 659h202l-71 -577l164 65z" />
    <glyph glyph-name="Nacute" unicode="&#x143;" horiz-adv-x="1519" 
d="M1167 1726l-184 -217l-182 11l149 235zM1257 1454h205l-166 -1454h-192l-653 1110l-127 -1110h-205l168 1442l194 35l652 -1121z" />
    <glyph glyph-name="nacute" unicode="&#x144;" horiz-adv-x="1241" 
d="M1030 1444l-225 -318h-180l198 336zM1038 164q46 -12 127 -12l-22 -158q-62 -10 -142 -10q-105 0 -140 32t-23 129l45 418q31 262 -193 262q-111 0 -194.5 -76t-98.5 -184l-63 -565h-199l92 813q-43 12 -112 12l24 156q72 18 115 18q165 0 170 -157q135 162 346 162
q183 0 260 -107.5t55 -304.5z" />
    <glyph glyph-name="Ncommaaccent" unicode="&#x145;" horiz-adv-x="1519" 
d="M1257 1454h205l-166 -1454h-192l-653 1110l-127 -1110h-205l168 1442l194 35l652 -1121zM686 -61q113 0 113 -125q0 -106 -65 -166.5t-161 -73.5l-8 88q99 22 105 96q-103 0 -103 74q0 48 32.5 77.5t86.5 29.5z" />
    <glyph glyph-name="ncommaaccent" unicode="&#x146;" horiz-adv-x="1241" 
d="M1038 164q46 -12 127 -12l-22 -158q-62 -10 -142 -10q-105 0 -140 32t-23 129l45 418q31 262 -193 262q-111 0 -194.5 -76t-98.5 -184l-63 -565h-199l92 813q-43 12 -112 12l24 156q72 18 115 18q165 0 170 -157q135 162 346 162q183 0 260 -107.5t55 -304.5zM594 -61
q113 0 113 -125q0 -106 -65 -166.5t-161 -73.5l-8 88q99 22 105 96q-103 0 -103 74q0 48 32.5 77.5t86.5 29.5z" />
    <glyph glyph-name="Ncaron" unicode="&#x147;" horiz-adv-x="1519" 
d="M991 1516h-184l-154 208l166 25l92 -135l125 135l162 -25zM1257 1454h205l-166 -1454h-192l-653 1110l-127 -1110h-205l168 1442l194 35l652 -1121z" />
    <glyph glyph-name="ncaron" unicode="&#x148;" horiz-adv-x="1241" 
d="M807 1133h-168l-188 321l172 4l114 -194l164 194l170 -4zM1038 164q46 -12 127 -12l-22 -158q-62 -10 -142 -10q-105 0 -140 32t-23 129l45 418q31 262 -193 262q-111 0 -194.5 -76t-98.5 -184l-63 -565h-199l92 813q-43 12 -112 12l24 156q72 18 115 18q165 0 170 -157
q135 162 346 162q183 0 260 -107.5t55 -304.5z" />
    <glyph glyph-name="Eng" unicode="&#x14a;" horiz-adv-x="1519" 
d="M1462 1454l-178 -1554q-18 -157 -89 -223t-202 -66q-89 0 -157 27l28 176q62 -25 107 -25q54 0 80.5 26.5t35.5 96.5l13 102l-649 1096l-127 -1110h-205l168 1442l194 35l654 -1127l122 1104h205z" />
    <glyph glyph-name="eng" unicode="&#x14b;" horiz-adv-x="1048" 
d="M764 1004q182 0 260.5 -107.5t56.5 -304.5l-22 -193l-58 -499q-18 -158 -90 -223.5t-198 -65.5q-92 0 -152 24l29 175q57 -21 98 -21q55 0 81.5 28t35.5 105l45 391h-2l26 250q14 130 -30.5 196t-157.5 66q-106 0 -187.5 -72.5t-99.5 -172.5l-67 -580h-199l92 813
q-43 12 -110 12l22 156q2 0 17.5 4t27 6.5t31.5 5t39 2.5q167 0 172 -155q133 160 340 160z" />
    <glyph glyph-name="Omacron" unicode="&#x14c;" 
d="M625 1694l-19 -150h549l19 150h-549zM702 -25q170 0 315.5 66t245 179.5t156 268.5t56.5 330q0 192 -70 339t-208.5 232t-326.5 85q-227 0 -404 -112t-272.5 -303.5t-95.5 -428.5q0 -191 69.5 -338t208 -232.5t326.5 -85.5zM721 164q-196 0 -303 129t-107 348
q0 188 65.5 334t188.5 228.5t285 82.5q198 0 304 -127.5t106 -345.5q0 -289 -145 -469t-394 -180z" />
    <glyph glyph-name="omacron" unicode="&#x14d;" horiz-adv-x="1153" 
d="M412 1366l-19 -160h590l18 160h-589zM115 420q0 -208 118 -326.5t316 -118.5q117 0 217.5 40t174.5 113t116.5 183t42.5 244q0 212 -118 330.5t-316 118.5q-118 0 -218.5 -39.5t-174.5 -112.5t-116 -184t-42 -248zM319 430q0 187 88.5 294t239.5 107q119 0 183.5 -74
t64.5 -212q0 -187 -87.5 -292.5t-238.5 -105.5q-119 0 -184.5 73.5t-65.5 209.5z" />
    <glyph glyph-name="Ohungarumlaut" unicode="&#x150;" 
d="M758 1755l-150 -235l183 -11l184 217zM1075 1755l-149 -235l182 -11l184 217zM702 -25q170 0 315.5 66t245 179.5t156 268.5t56.5 330q0 192 -70 339t-208.5 232t-326.5 85q-227 0 -404 -112t-272.5 -303.5t-95.5 -428.5q0 -191 69.5 -338t208 -232.5t326.5 -85.5z
M721 164q-196 0 -303 129t-107 348q0 188 65.5 334t188.5 228.5t285 82.5q198 0 304 -127.5t106 -345.5q0 -289 -145 -469t-394 -180z" />
    <glyph glyph-name="ohungarumlaut" unicode="&#x151;" horiz-adv-x="1153" 
d="M602 1462l-199 -336h181l225 318zM913 1462l-198 -336h180l225 318zM115 420q0 -208 118 -326.5t316 -118.5q117 0 217.5 40t174.5 113t116.5 183t42.5 244q0 212 -118 330.5t-316 118.5q-118 0 -218.5 -39.5t-174.5 -112.5t-116 -184t-42 -248zM319 430q0 187 88.5 294
t239.5 107q119 0 183.5 -74t64.5 -212q0 -187 -87.5 -292.5t-238.5 -105.5q-119 0 -184.5 73.5t-65.5 209.5z" />
    <glyph glyph-name="OE" unicode="&#x152;" horiz-adv-x="2304" 
d="M2210 1270h-674l-53 -457h628l-20 -176h-629l-51 -453h692l-24 -184h-897l18 160q-204 -185 -498 -185q-188 0 -326.5 85.5t-208 232.5t-69.5 338q0 237 95.5 428.5t272.5 303.5t404 112q147 0 263 -51.5t194 -147.5l21 178h899zM721 164q249 0 394 180t145 469
q0 218 -106 345.5t-304 127.5q-162 0 -285 -82.5t-188.5 -228.5t-65.5 -334q0 -219 107 -348t303 -129z" />
    <glyph glyph-name="oe" unicode="&#x153;" horiz-adv-x="1835" 
d="M1098 440v-12q0 -283 264 -283q99 0 184 36t133 75l29 -166q-53 -43 -160.5 -79t-230.5 -36q-251 0 -359 172q-74 -83 -179.5 -127.5t-229.5 -44.5q-198 0 -316 118.5t-118 326.5q0 137 42 248t116 184t174.5 112.5t218.5 39.5q120 0 212 -45t148 -130q69 83 165.5 129
t211.5 46q187 0 283 -108t96 -284q0 -58 -15 -172h-669zM1386 838q-106 0 -177 -64t-97 -194h471q8 258 -197 258zM569 147q151 0 238.5 105.5t87.5 292.5q0 138 -64.5 212t-183.5 74q-151 0 -239.5 -107t-88.5 -294q0 -136 65.5 -209.5t184.5 -73.5z" />
    <glyph glyph-name="Racute" unicode="&#x154;" horiz-adv-x="1298" 
d="M1036 1726l-184 -217l-182 11l149 235zM1069 236q25 -47 58.5 -60.5t129.5 -13.5l-34 -168q-55 -10 -105 -10q-85 0 -137.5 28.5t-95.5 114.5l-219 438h-254l-66 -565h-205l142 1268h-164l20 170q111 24 183 24q99 0 139 -49q150 62 323 62q239 0 362.5 -106.5
t123.5 -299.5q0 -196 -99.5 -319t-273.5 -164zM489 1270l-59 -525h289q340 0 340 297q0 127 -79 187.5t-247 60.5q-122 0 -244 -20z" />
    <glyph glyph-name="racute" unicode="&#x155;" horiz-adv-x="694" 
d="M780 1444l-225 -318h-180l198 336zM418 831q108 173 237 173q60 0 90 -17l-32 -192q-23 10 -80 10q-88 0 -157 -90t-87 -221l-59 -494h-201l98 813q-41 12 -112 12l26 156q48 18 117 18q66 0 108.5 -43.5t51.5 -124.5z" />
    <glyph glyph-name="Rcommaaccent" unicode="&#x156;" horiz-adv-x="1298" 
d="M1069 236q25 -47 58.5 -60.5t129.5 -13.5l-34 -168q-55 -10 -105 -10q-85 0 -137.5 28.5t-95.5 114.5l-219 438h-254l-66 -565h-205l142 1268h-164l20 170q111 24 183 24q99 0 139 -49q150 62 323 62q239 0 362.5 -106.5t123.5 -299.5q0 -196 -99.5 -319t-273.5 -164z
M489 1270l-59 -525h289q340 0 340 297q0 127 -79 187.5t-247 60.5q-122 0 -244 -20zM592 -61q113 0 113 -125q0 -106 -65 -166.5t-161 -73.5l-8 88q98 22 104 96q-102 0 -102 74q0 48 32.5 77.5t86.5 29.5z" />
    <glyph glyph-name="rcommaaccent" unicode="&#x157;" horiz-adv-x="694" 
d="M655 1004q60 0 90 -17l-32 -192q-23 10 -80 10q-88 0 -157 -90t-87 -221l-59 -494h-201l98 813q-41 12 -112 12l26 156q48 18 117 18q66 0 108.5 -43.5t51.5 -124.5q108 173 237 173zM221 -61q113 0 113 -125q0 -106 -64.5 -166.5t-160.5 -73.5l-9 88q99 22 105 96
q-103 0 -103 74q0 48 32.5 77.5t86.5 29.5z" />
    <glyph glyph-name="Rcaron" unicode="&#x158;" horiz-adv-x="1298" 
d="M860 1516h-184l-154 208l166 25l92 -135l125 135l162 -25zM1069 236q25 -47 58.5 -60.5t129.5 -13.5l-34 -168q-55 -10 -105 -10q-85 0 -137.5 28.5t-95.5 114.5l-219 438h-254l-66 -565h-205l142 1268h-164l20 170q111 24 183 24q99 0 139 -49q150 62 323 62
q239 0 362.5 -106.5t123.5 -299.5q0 -196 -99.5 -319t-273.5 -164zM489 1270l-59 -525h289q340 0 340 297q0 127 -79 187.5t-247 60.5q-122 0 -244 -20z" />
    <glyph glyph-name="rcaron" unicode="&#x159;" horiz-adv-x="694" 
d="M557 1133h-168l-188 321l172 4l114 -194l164 194l170 -4zM418 831q108 173 237 173q60 0 90 -17l-32 -192q-23 10 -80 10q-88 0 -157 -90t-87 -221l-59 -494h-201l98 813q-41 12 -112 12l26 156q48 18 117 18q66 0 108.5 -43.5t51.5 -124.5z" />
    <glyph glyph-name="Sacute" unicode="&#x15a;" horiz-adv-x="1169" 
d="M719 1755l-150 -235l183 -11l184 217zM342 1049q0 124 80 189t231 65q138 0 205.5 -51t67.5 -156l207 37q0 169 -108.5 255.5t-346.5 86.5q-263 0 -402 -120t-139 -335q0 -82 25.5 -144.5t69 -100.5t100 -65.5t118.5 -44t124 -30.5t118.5 -31t100 -39.5t69 -61
t25.5 -91.5q0 -121 -87.5 -186.5t-252.5 -65.5q-137 0 -254.5 40t-196.5 95l-49 -193q185 -127 479 -127q280 0 423 117.5t143 341.5q0 103 -41.5 174.5t-107.5 107.5t-146 60t-160 41.5t-146 41t-107.5 71t-41.5 119.5z" />
    <glyph glyph-name="sacute" unicode="&#x15b;" horiz-adv-x="993" 
d="M655 1462l-198 -336h180l225 318zM539 1004q-205 0 -311.5 -84t-106.5 -222q0 -75 31.5 -128t82 -80t111 -44t121.5 -29t111.5 -26.5t82 -44t31.5 -74.5q0 -65 -54.5 -99t-184.5 -34q-109 0 -199 34t-143 75l-54 -170q134 -103 387 -103q230 0 341.5 87.5t111.5 228.5
q0 73 -31.5 124t-82 76.5t-112 41.5t-122.5 27t-111.5 25.5t-82 44.5t-31.5 77q0 66 53.5 102.5t159.5 36.5q192 0 192 -135l193 28q0 56 -20 102t-62.5 83.5t-119 58.5t-181.5 21z" />
    <glyph glyph-name="Scedilla" unicode="&#x15e;" horiz-adv-x="1169" 
d="M342 1049q0 -72 41.5 -119.5t107.5 -71t146 -41t160 -41.5t146 -60t107.5 -107.5t41.5 -174.5q0 -213 -129 -330t-383 -127l-13 -45q59 0 93 -29t34 -91q0 -102 -79 -154.5t-263 -52.5l33 119q79 0 118.5 17.5t39.5 61.5q0 28 -29.5 39t-97.5 11l39 124q-245 14 -408 125
l49 193q79 -55 196.5 -95t254.5 -40q165 0 252.5 65.5t87.5 186.5q0 53 -25.5 91.5t-69 61t-100 39.5t-118.5 31t-124 30.5t-118.5 44t-100 65.5t-69 100.5t-25.5 144.5q0 215 139 335t402 120q238 0 346.5 -86.5t108.5 -255.5l-207 -37q0 105 -67.5 156t-205.5 51
q-151 0 -231 -65t-80 -189z" />
    <glyph glyph-name="scedilla" unicode="&#x15f;" horiz-adv-x="993" 
d="M324 707q0 -47 31.5 -77t82 -44.5t111.5 -25.5t122.5 -27t112 -41.5t82 -76.5t31.5 -124q0 -132 -96.5 -217.5t-296.5 -96.5l-12 -45q126 0 126 -120q0 -102 -79 -154.5t-263 -52.5l33 119q79 0 118.5 17.5t39.5 61.5q0 28 -29.5 39t-97.5 11l39 124q-202 11 -322 101
l54 170q53 -41 143 -75t199 -34q130 0 184.5 34t54.5 99q0 45 -31.5 74.5t-82 44t-111.5 26.5t-121.5 29t-111 44t-82 80t-31.5 128q0 138 106.5 222t311.5 84q105 0 181.5 -21t119 -58.5t62.5 -83.5t20 -102l-193 -28q0 135 -192 135q-106 0 -159.5 -36.5t-53.5 -102.5z
" />
    <glyph glyph-name="Scaron" unicode="&#x160;" horiz-adv-x="1169" 
d="M760 1516h-185l-153 208l166 25l92 -135l125 135l162 -25zM342 1049q0 -72 41.5 -119.5t107.5 -71t146 -41t160 -41.5t146 -60t107.5 -107.5t41.5 -174.5q0 -224 -143 -341.5t-423 -117.5q-294 0 -479 127l49 193q79 -55 196.5 -95t254.5 -40q165 0 252.5 65.5
t87.5 186.5q0 53 -25.5 91.5t-69 61t-100 39.5t-118.5 31t-124 30.5t-118.5 44t-100 65.5t-69 100.5t-25.5 144.5q0 215 139 335t402 120q238 0 346.5 -86.5t108.5 -255.5l-207 -37q0 105 -67.5 156t-205.5 51q-151 0 -231 -65t-80 -189z" />
    <glyph glyph-name="scaron" unicode="&#x161;" horiz-adv-x="993" 
d="M641 1133h-168l-188 321l172 4l114 -194l164 194l170 -4zM324 707q0 -47 31.5 -77t82 -44.5t111.5 -25.5t122.5 -27t112 -41.5t82 -76.5t31.5 -124q0 -141 -111.5 -228.5t-341.5 -87.5q-253 0 -387 103l54 170q53 -41 143 -75t199 -34q130 0 184.5 34t54.5 99
q0 45 -31.5 74.5t-82 44t-111.5 26.5t-121.5 29t-111 44t-82 80t-31.5 128q0 138 106.5 222t311.5 84q105 0 181.5 -21t119 -58.5t62.5 -83.5t20 -102l-193 -28q0 135 -192 135q-106 0 -159.5 -36.5t-53.5 -102.5z" />
    <glyph glyph-name="uni0162" unicode="&#x162;" horiz-adv-x="1046" 
d="M555 0h-39l-18 -68q59 0 93 -29t34 -91q0 -102 -79 -154.5t-263 -52.5l32 119q79 0 118.5 17.5t39.5 61.5q0 28 -29.5 39t-97.5 11l45 147h-45l146 1278h-443l21 160q208 16 376 16h715l-22 -176h-439z" />
    <glyph glyph-name="uni0163" unicode="&#x163;" horiz-adv-x="702" 
d="M449 815l-64 -539q-9 -72 13.5 -99t76.5 -27q69 0 146 30l-7 -172q-90 -27 -165 -31l-13 -45q59 0 93 -29t34 -91q0 -102 -79 -154.5t-263 -52.5l33 119q79 0 118.5 17.5t39.5 61.5q0 28 -29.5 39t-97.5 11l39 129q-88 15 -122.5 79t-19.5 201l68 553h-176l22 168h172
l35 287h199l-35 -287h276l-20 -168h-274z" />
    <glyph glyph-name="Tcaron" unicode="&#x164;" horiz-adv-x="1046" 
d="M715 1516h-185l-153 208l166 25l92 -135l125 135l162 -25zM1161 1454l-22 -176h-439l-145 -1278h-209l146 1278h-443l21 160q208 16 376 16h715z" />
    <glyph glyph-name="tcaron" unicode="&#x165;" horiz-adv-x="831" 
d="M870 1464l172 -12l-108 -395l-160 14zM502 1270l-35 -287h276l-20 -168h-274l-64 -539q-9 -72 13.5 -99t76.5 -27q69 0 146 30l-7 -172q-107 -33 -211 -33q-90 0 -140.5 24.5t-71.5 88t-9 174.5l68 553h-176l22 168h172l35 287h199z" />
    <glyph glyph-name="Tbar" unicode="&#x166;" horiz-adv-x="1046" 
d="M1139 1278h-439l-55 -477h217l-24 -168h-211l-72 -633h-209l72 633h-215l24 168h211l54 477h-443l21 160q208 16 376 16h715z" />
    <glyph glyph-name="tbar" unicode="&#x167;" horiz-adv-x="727" 
d="M729 815h-274l-23 -184h285l-21 -160h-282l-23 -195q-9 -71 14 -98.5t76 -27.5q69 0 146 30l-6 -172q-107 -33 -211 -33q-135 0 -187.5 62t-34.5 225l25 209h-139l20 160h139l21 184h-172l20 168h172l35 287h199l-33 -287h275z" />
    <glyph glyph-name="Utilde" unicode="&#x168;" horiz-adv-x="1458" 
d="M1133 1741q-40 -205 -183 -205q-46 0 -109 24.5t-89 24.5q-58 0 -72 -84l-115 15q37 204 180 204q48 0 111.5 -24.5t89.5 -24.5q58 0 72 84zM1421 1454h-209l-100 -885q-23 -206 -127 -306.5t-289 -100.5q-183 0 -255.5 98.5t-49.5 312.5l82 723q9 83 -25 122.5
t-122 39.5q-77 0 -209 -16l-19 -164h166l-82 -711q-68 -592 486 -592q291 0 454.5 151.5t196.5 438.5z" />
    <glyph glyph-name="utilde" unicode="&#x169;" horiz-adv-x="1224" 
d="M549 1290q-72 0 -96 -116l-123 14q22 116 79.5 181t143.5 65q54 0 106 -20.5t97 -41t82 -20.5q36 0 57.5 25t36.5 91l123 -14q-21 -116 -78 -182t-146 -66q-54 0 -107 21t-97 42t-78 21zM1012 164q46 -12 125 -12l-21 -158q-72 -10 -119 -10q-87 0 -132 36.5t-48 126.5
q-143 -172 -373 -172q-65 0 -113 12t-85.5 40.5t-56.5 74.5t-26 114.5t5 160.5l47 436q-44 12 -111 12l23 156q54 14 131 14q95 0 132.5 -38t27.5 -140l-47 -409q-15 -139 23 -196.5t138 -57.5q129 0 214.5 87.5t99.5 215.5l59 526h199z" />
    <glyph glyph-name="Umacron" unicode="&#x16a;" horiz-adv-x="1458" 
d="M582 1694l-19 -150h549l18 150h-548zM1421 1454h-209l-100 -885q-23 -206 -127 -306.5t-289 -100.5q-183 0 -255.5 98.5t-49.5 312.5l82 723q9 83 -25 122.5t-122 39.5q-77 0 -209 -16l-19 -164h166l-82 -711q-68 -592 486 -592q291 0 454.5 151.5t196.5 438.5z" />
    <glyph glyph-name="umacron" unicode="&#x16b;" horiz-adv-x="1224" 
d="M1008 1366l-19 -160h-590l19 160h590zM1012 164q46 -12 125 -12l-21 -158q-72 -10 -119 -10q-87 0 -132 36.5t-48 126.5q-143 -172 -373 -172q-65 0 -113 12t-85.5 40.5t-56.5 74.5t-26 114.5t5 160.5l47 436q-44 12 -111 12l23 156q54 14 131 14q95 0 132.5 -38
t27.5 -140l-47 -409q-15 -139 23 -196.5t138 -57.5q129 0 214.5 87.5t99.5 215.5l59 526h199z" />
    <glyph glyph-name="Uring" unicode="&#x16e;" horiz-adv-x="1458" 
d="M834 1489q84 0 132 49.5t48 132.5q0 65 -37 103t-105 38q-84 0 -133 -50t-49 -134q0 -65 37 -102t107 -37zM842 1575q-25 0 -39.5 16.5t-14.5 46.5q0 41 20.5 64.5t53.5 23.5q51 0 51 -65q0 -39 -20 -62.5t-51 -23.5zM1421 1454h-209l-100 -885q-23 -206 -127 -306.5
t-289 -100.5q-183 0 -255.5 98.5t-49.5 312.5l82 723q9 83 -25 122.5t-122 39.5q-77 0 -209 -16l-19 -164h166l-82 -711q-68 -592 486 -592q291 0 454.5 151.5t196.5 438.5z" />
    <glyph glyph-name="uring" unicode="&#x16f;" horiz-adv-x="1224" 
d="M688 1110q-78 0 -126 47t-48 123q0 96 62 155.5t157 59.5q77 0 123.5 -46.5t46.5 -123.5q0 -96 -62 -155.5t-153 -59.5zM723 1403q-47 0 -77 -31t-30 -84q0 -40 22 -63t62 -23q45 0 73 31.5t28 83.5q0 40 -21.5 63t-56.5 23zM1012 164q46 -12 125 -12l-21 -158
q-72 -10 -119 -10q-87 0 -132 36.5t-48 126.5q-143 -172 -373 -172q-65 0 -113 12t-85.5 40.5t-56.5 74.5t-26 114.5t5 160.5l47 436q-44 12 -111 12l23 156q54 14 131 14q95 0 132.5 -38t27.5 -140l-47 -409q-15 -139 23 -196.5t138 -57.5q129 0 214.5 87.5t99.5 215.5
l59 526h199z" />
    <glyph glyph-name="Uhungarumlaut" unicode="&#x170;" horiz-adv-x="1458" 
d="M715 1755l-150 -235l183 -11l184 217zM1032 1755l-149 -235l182 -11l184 217zM1421 1454h-209l-100 -885q-23 -206 -127 -306.5t-289 -100.5q-183 0 -255.5 98.5t-49.5 312.5l82 723q9 83 -25 122.5t-122 39.5q-77 0 -209 -16l-19 -164h166l-82 -711q-68 -592 486 -592
q291 0 454.5 151.5t196.5 438.5z" />
    <glyph glyph-name="uhungarumlaut" unicode="&#x171;" horiz-adv-x="1224" 
d="M817 1444l-225 -318h-180l198 336zM903 1126h-180l199 336l206 -18zM1012 164q46 -12 125 -12l-21 -158q-72 -10 -119 -10q-87 0 -132 36.5t-48 126.5q-143 -172 -373 -172q-65 0 -113 12t-85.5 40.5t-56.5 74.5t-26 114.5t5 160.5l47 436q-44 12 -111 12l23 156
q54 14 131 14q95 0 132.5 -38t27.5 -140l-47 -409q-15 -139 23 -196.5t138 -57.5q129 0 214.5 87.5t99.5 215.5l59 526h199z" />
    <glyph glyph-name="Uogonek" unicode="&#x172;" horiz-adv-x="1458" 
d="M1212 1454h209l-102 -889q-48 -428 -377 -547q-197 -110 -197 -213q0 -51 56 -51q26 0 86 21l-8 -131q-72 -25 -152 -25q-158 0 -158 129q0 136 138 227h-39q-554 0 -486 592l82 711h-166l19 164q132 16 209 16q88 0 122 -39.5t25 -122.5l-82 -723q-23 -214 49.5 -312.5
t255.5 -98.5q185 0 289 100.5t127 306.5z" />
    <glyph glyph-name="uogonek" unicode="&#x173;" horiz-adv-x="1224" 
d="M1116 -6q-196 -109 -196 -213q0 -51 55 -51q29 0 86 20l-8 -131q-72 -25 -152 -25q-158 0 -158 130q0 89 57.5 156t141.5 108q-120 19 -125 159q-143 -172 -373 -172q-65 0 -113 12t-85.5 40.5t-56.5 74.5t-26 114.5t5 160.5l47 436q-44 12 -111 12l23 156q54 14 131 14
q95 0 132.5 -38t27.5 -140l-47 -409q-15 -139 23 -196.5t138 -57.5q129 0 214.5 87.5t99.5 215.5l59 526h199l-92 -819q46 -12 125 -12l-21 -158h-2h2z" />
    <glyph glyph-name="Wcircumflex" unicode="&#x174;" horiz-adv-x="1947" 
d="M1147 1647l-125 -136l-160 25l205 209h184l156 -209l-166 -25zM1845 1477l213 -35l-588 -1442h-219l-170 1122l-422 -1122h-219l-229 1278h-158l19 164q102 20 194 20q74 0 113.5 -28.5t48.5 -90.5l158 -1034l428 1145h211l172 -1149z" />
    <glyph glyph-name="wcircumflex" unicode="&#x175;" horiz-adv-x="1480" 
d="M862 1343l-162 -192l-172 4l265 322h170l186 -322l-172 -4zM1327 997l197 -18l-424 -979h-176l-133 719l-295 -719h-177l-167 813q-39 10 -113 10l20 158q61 16 127 16t101.5 -27t46.5 -98l108 -606l287 717h182l125 -721z" />
    <glyph glyph-name="Ycircumflex" unicode="&#x176;" horiz-adv-x="1193" 
d="M756 1647l-125 -136l-160 25l205 209h184l156 -209l-166 -25zM1102 1477l201 -35l-568 -862l-65 -580h-209l67 580l-317 698h-158l19 164q19 7 69 13.5t90 6.5q72 0 108 -20.5t58 -71.5l256 -600z" />
    <glyph glyph-name="ycircumflex" unicode="&#x177;" horiz-adv-x="1087" 
d="M664 1343l-162 -192l-172 4l264 322h170l186 -322l-172 -4zM915 997l213 -18l-606 -1139q-69 -125 -155.5 -177t-212.5 -52q-86 0 -136 20l15 174q59 -22 127 -22q74 0 121.5 24t76.5 84l54 107l-242 815q-52 10 -104 10l20 158q53 16 117 16q67 0 102.5 -27t52.5 -89
l179 -635z" />
    <glyph glyph-name="Ydieresis" unicode="&#x178;" horiz-adv-x="1193" 
d="M557 1513q-43 0 -69.5 28.5t-26.5 72.5q0 54 35 89.5t88 35.5q44 0 71 -29t27 -72q0 -52 -36 -88.5t-89 -36.5zM915 1513q-44 0 -71 29t-27 72q0 54 36 89.5t89 35.5q43 0 69.5 -28.5t26.5 -72.5q0 -53 -35.5 -89t-87.5 -36zM1102 1477l201 -35l-568 -862l-65 -580h-209
l67 580l-317 698h-158l19 164q19 7 69 13.5t90 6.5q72 0 108 -20.5t58 -71.5l256 -600z" />
    <glyph glyph-name="Zacute" unicode="&#x179;" horiz-adv-x="1226" 
d="M1016 1726l-185 -217l-182 11l150 235zM1257 1294l-956 -1112h819l-22 -182h-1043l-14 166l950 1106h-794l20 170q141 12 340 12h692z" />
    <glyph glyph-name="zacute" unicode="&#x17a;" horiz-adv-x="913" 
d="M858 1444l-225 -318h-180l198 336zM915 827l-651 -665h578l-21 -162h-786l-6 160l647 661h-539l19 162h755z" />
    <glyph glyph-name="Zdotaccent" unicode="&#x17b;" horiz-adv-x="1226" 
d="M756 1544q-50 0 -78.5 30.5t-28.5 78.5q0 59 38.5 98t98.5 39q47 0 76 -31t29 -78q0 -59 -38.5 -98t-96.5 -39zM1257 1294l-956 -1112h819l-22 -182h-1043l-14 166l950 1106h-794l20 170q141 12 340 12h692z" />
    <glyph glyph-name="zdotaccent" unicode="&#x17c;" horiz-adv-x="913" 
d="M557 1165q-52 0 -84.5 34.5t-32.5 88.5q0 63 44.5 106.5t105.5 43.5q53 0 85 -34t32 -87q0 -64 -44 -108t-106 -44zM915 827l-651 -665h578l-21 -162h-786l-6 160l647 661h-539l19 162h755z" />
    <glyph glyph-name="Zcaron" unicode="&#x17d;" horiz-adv-x="1226" 
d="M842 1516h-185l-153 208l166 25l92 -135l125 135l162 -25zM1257 1294l-956 -1112h819l-22 -182h-1043l-14 166l950 1106h-794l20 170q141 12 340 12h692z" />
    <glyph glyph-name="zcaron" unicode="&#x17e;" horiz-adv-x="913" 
d="M637 1133h-168l-188 321l172 4l114 -194l164 194l170 -4zM915 827l-651 -665h578l-21 -162h-786l-6 160l647 661h-539l19 162h755z" />
    <glyph glyph-name="uni01EA" unicode="&#x1ea;" 
d="M1475 819q0 -283 -138.5 -500.5t-373.5 -300.5h2q-197 -110 -197 -213q0 -51 55 -51q26 0 86 21l-8 -131q-72 -25 -151 -25q-158 0 -158 129q0 133 137 227h-27q-188 0 -326.5 85.5t-208 232.5t-69.5 338q0 237 95.5 428.5t272.5 303.5t404 112q188 0 326.5 -85
t208.5 -232t70 -339zM721 164q249 0 394 180t145 469q0 218 -106 345.5t-304 127.5q-162 0 -285 -82.5t-188.5 -228.5t-65.5 -334q0 -219 107 -348t303 -129z" />
    <glyph glyph-name="uni01EB" unicode="&#x1eb;" horiz-adv-x="1153" 
d="M776 18q-186 -106 -186 -206q0 -52 55 -52q26 0 86 21l-8 -131q-72 -25 -152 -25q-157 0 -157 129q0 128 127 221q-195 3 -310.5 121t-115.5 324q0 137 42 248t116 184t174.5 112.5t218.5 39.5q198 0 316 -118.5t118 -330.5q0 -197 -87.5 -336t-236.5 -201zM319 430
q0 -136 65.5 -209.5t184.5 -73.5q151 0 238.5 105.5t87.5 292.5q0 138 -64.5 212t-183.5 74q-151 0 -239.5 -107t-88.5 -294z" />
    <glyph glyph-name="AEacute" unicode="&#x1fc;" horiz-adv-x="2070" 
d="M1624 1726l-184 -217l-183 11l150 235zM1978 1270h-618l-51 -457h567l-18 -176h-570l-51 -453h633l-21 -184h-841l71 637h-485l-354 -637h-215l829 1454h1159zM692 813h408l51 457h-205z" />
    <glyph glyph-name="aeacute" unicode="&#x1fd;" horiz-adv-x="1734" 
d="M1294 1444l-225 -318h-180l198 336zM995 440v-12q0 -283 267 -283q99 0 184 36t133 75l29 -166q-56 -43 -162.5 -79t-228.5 -36q-276 0 -375 205q-138 -205 -426 -205q-145 0 -223 70t-78 193q0 159 113.5 252.5t338.5 93.5q125 0 236 -29l8 66q12 111 -39 166t-158 55
q-185 0 -227 -160l-188 35q40 135 141.5 211t294.5 76q241 0 328 -134q140 134 340 134q187 0 282.5 -108t95.5 -284q0 -74 -16 -172h-670zM1286 838q-106 0 -178 -64t-98 -194h471q11 258 -195 258zM461 127q126 0 219 75.5t106 194.5l2 25q-110 27 -217 27
q-125 0 -191.5 -49t-66.5 -140q0 -68 40 -100.5t108 -32.5z" />
    <glyph glyph-name="Oslashacute" unicode="&#x1fe;" 
d="M1143 1726l-185 -217l-182 11l150 235zM1303 1305q172 -181 172 -486q0 -175 -56.5 -330t-156 -268.5t-245 -179.5t-315.5 -66q-172 0 -307 74l-96 -133l-180 18l151 211q-172 181 -172 486q0 237 95.5 428.5t272.5 303.5t404 112q173 0 308 -74l96 133l180 -18zM311 641
q0 -194 86 -322l662 918q-85 49 -209 49q-162 0 -285 -82.5t-188.5 -228.5t-65.5 -334zM721 164q249 0 394 180t145 469q0 192 -84 317l-662 -917q85 -49 207 -49z" />
    <glyph glyph-name="oslashacute" unicode="&#x1ff;" horiz-adv-x="1153" 
d="M987 1444l-225 -318h-180l198 336zM973 893q127 -121 127 -338q0 -134 -42.5 -244t-116.5 -183t-174.5 -113t-217.5 -40q-113 0 -197 37l-67 -96l-150 18l107 150q-127 124 -127 336q0 137 42 248t116 184t174.5 112.5t218.5 39.5q113 0 198 -39l68 98l147 -19zM319 430
q0 -109 43 -176l394 557q-47 20 -109 20q-151 0 -239.5 -107t-88.5 -294zM569 147q151 0 238.5 105.5t87.5 292.5q0 110 -41 178l-393 -555q50 -21 108 -21z" />
    <glyph glyph-name="Scommaaccent" unicode="&#x218;" horiz-adv-x="1169" 
d="M342 1049q0 124 80 189t231 65q138 0 205.5 -51t67.5 -156l207 37q0 169 -108.5 255.5t-346.5 86.5q-263 0 -402 -120t-139 -335q0 -82 25.5 -144.5t69 -100.5t100 -65.5t118.5 -44t124 -30.5t118.5 -31t100 -39.5t69 -61t25.5 -91.5q0 -121 -87.5 -186.5t-252.5 -65.5
q-137 0 -254.5 40t-196.5 95l-49 -193q185 -127 479 -127q280 0 423 117.5t143 341.5q0 103 -41.5 174.5t-107.5 107.5t-146 60t-160 41.5t-146 41t-107.5 71t-41.5 119.5zM625 -186q0 -106 -65 -166.5t-161 -73.5l-8 88q99 22 105 96q-103 0 -103 74q0 48 32.5 77.5
t86.5 29.5q113 0 113 -125z" />
    <glyph glyph-name="scommaaccent" unicode="&#x219;" horiz-adv-x="993" 
d="M539 1004q-205 0 -311.5 -84t-106.5 -222q0 -75 31.5 -128t82 -80t111 -44t121.5 -29t111.5 -26.5t82 -44t31.5 -74.5q0 -65 -54.5 -99t-184.5 -34q-109 0 -199 34t-143 75l-54 -170q134 -103 387 -103q230 0 341.5 87.5t111.5 228.5q0 73 -31.5 124t-82 76.5t-112 41.5
t-122.5 27t-111.5 25.5t-82 44.5t-31.5 77q0 66 53.5 102.5t159.5 36.5q192 0 192 -135l193 28q0 56 -20 102t-62.5 83.5t-119 58.5t-181.5 21zM551 -186q0 -106 -64.5 -166.5t-160.5 -73.5l-9 88q99 22 105 96q-103 0 -103 74q0 48 32.5 77.5t86.5 29.5q113 0 113 -125z
" />
    <glyph glyph-name="uni021A" unicode="&#x21a;" horiz-adv-x="1046" 
d="M1161 1454l-22 -176h-439l-145 -1278h-209l146 1278h-443l21 160q208 16 376 16h715zM442 -61q113 0 113 -125q0 -106 -64.5 -166.5t-160.5 -73.5l-8 88q98 22 104 96q-102 0 -102 74q0 48 32 77.5t86 29.5z" />
    <glyph glyph-name="uni021B" unicode="&#x21b;" horiz-adv-x="702" 
d="M449 815l-64 -539q-9 -72 13.5 -99t76.5 -27q69 0 146 30l-7 -172q-107 -33 -211 -33q-90 0 -140.5 24.5t-71.5 88t-9 174.5l68 553h-176l22 168h172l35 287h199l-35 -287h276l-20 -168h-274zM383 -61q113 0 113 -125q0 -106 -65 -166.5t-161 -73.5l-8 88q99 22 105 96
q-103 0 -103 74q0 48 32.5 77.5t86.5 29.5z" />
    <glyph glyph-name="uni0237" unicode="&#x237;" horiz-adv-x="471" 
d="M434 983h-201l-131 -1081q-7 -63 -30 -88t-70 -25q-32 0 -84 21l-29 -175q54 -24 129 -24q121 0 192 63t89 211z" />
    <glyph glyph-name="circumflex" unicode="&#x2c6;" horiz-adv-x="1030" 
d="M825 1155l-172 -4l-114 195l-162 -195l-172 4l264 322h170z" />
    <glyph glyph-name="caron" unicode="&#x2c7;" horiz-adv-x="1030" 
d="M655 1458l170 -4l-264 -321h-168l-188 321l172 4l117 -196z" />
    <glyph glyph-name="breve" unicode="&#x2d8;" horiz-adv-x="968" 
d="M627 1448q-18 -95 -56.5 -135.5t-101.5 -40.5q-64 0 -94 40.5t-27 135.5l-143 -10q0 -164 56 -236t190 -72q267 0 313 308z" />
    <glyph glyph-name="dotaccent" unicode="&#x2d9;" horiz-adv-x="675" 
d="M322 1165q62 0 105.5 44t43.5 108q0 53 -32 87t-85 34q-61 0 -105 -43t-44 -107q0 -54 32.5 -88.5t84.5 -34.5z" />
    <glyph glyph-name="ring" unicode="&#x2da;" horiz-adv-x="798" 
d="M379 1110q91 0 153 59.5t62 155.5q0 77 -47 123.5t-123 46.5q-95 0 -157 -59.5t-62 -155.5q0 -76 48 -123t126 -47zM391 1202q-40 0 -62 23t-22 63q0 53 30 84t77 31q35 0 56.5 -23t21.5 -63q0 -52 -28 -83.5t-73 -31.5z" />
    <glyph glyph-name="ogonek" unicode="&#x2db;" horiz-adv-x="782" 
d="M205 -270q0 -129 157 -129q83 0 152 24l8 131q-57 -20 -86 -20q-55 0 -55 51q0 103 197 213l-113 18q-44 -14 -86 -38t-83 -59t-66 -85t-25 -106z" />
    <glyph glyph-name="tilde" unicode="&#x2dc;" horiz-adv-x="1134" 
d="M930 1454q-21 -116 -78 -182t-145 -66q-54 0 -107 21t-97.5 42t-78.5 21q-72 0 -96 -116l-123 14q22 116 79.5 181t143.5 65q54 0 106 -20.5t97 -41t82 -20.5q36 0 57.5 25t36.5 91z" />
    <glyph glyph-name="hungarumlaut" unicode="&#x2dd;" horiz-adv-x="1126" 
d="M403 1462l-198 -336h180l225 318zM715 1462l-199 -336h180l226 318z" />
    <glyph glyph-name="uni0326" unicode="&#x326;" horiz-adv-x="0" 
d="M-205 -186q0 -106 -64.5 -166.5t-160.5 -73.5l-8 88q98 22 104 96q-102 0 -102 74q0 48 32.5 77.5t86.5 29.5q112 0 112 -125z" />
    <glyph glyph-name="Wgrave" unicode="&#x1e80;" horiz-adv-x="1947" 
d="M1223 1520l-187 -11l-131 217l223 29zM1845 1477l213 -35l-588 -1442h-219l-170 1122l-422 -1122h-219l-229 1278h-158l19 164q102 20 194 20q74 0 113.5 -28.5t48.5 -90.5l158 -1034l428 1145h211l172 -1149z" />
    <glyph glyph-name="wgrave" unicode="&#x1e81;" horiz-adv-x="1480" 
d="M938 1126h-180l-148 318l213 18zM1327 997l197 -18l-424 -979h-176l-133 719l-295 -719h-177l-167 813q-39 10 -113 10l20 158q61 16 127 16t101.5 -27t46.5 -98l108 -606l287 717h182l125 -721z" />
    <glyph glyph-name="Wacute" unicode="&#x1e82;" horiz-adv-x="1947" 
d="M1393 1726l-185 -217l-182 11l150 235zM1845 1477l213 -35l-588 -1442h-219l-170 1122l-422 -1122h-219l-229 1278h-158l19 164q102 20 194 20q74 0 113.5 -28.5t48.5 -90.5l158 -1034l428 1145h211l172 -1149z" />
    <glyph glyph-name="wacute" unicode="&#x1e83;" horiz-adv-x="1480" 
d="M1145 1444l-225 -318h-181l199 336zM1327 997l197 -18l-424 -979h-176l-133 719l-295 -719h-177l-167 813q-39 10 -113 10l20 158q61 16 127 16t101.5 -27t46.5 -98l108 -606l287 717h182l125 -721z" />
    <glyph glyph-name="Wdieresis" unicode="&#x1e84;" horiz-adv-x="1947" 
d="M948 1513q-43 0 -69.5 28.5t-26.5 72.5q0 54 35 89.5t88 35.5q44 0 71 -29t27 -72q0 -52 -36.5 -88.5t-88.5 -36.5zM1307 1513q-44 0 -71.5 29t-27.5 72q0 54 36 89.5t89 35.5q44 0 70.5 -28.5t26.5 -72.5q0 -53 -35.5 -89t-87.5 -36zM1845 1477l213 -35l-588 -1442h-219
l-170 1122l-422 -1122h-219l-229 1278h-158l19 164q102 20 194 20q74 0 113.5 -28.5t48.5 -90.5l158 -1034l428 1145h211l172 -1149z" />
    <glyph glyph-name="wdieresis" unicode="&#x1e85;" horiz-adv-x="1480" 
d="M668 1169q-47 0 -77 31t-30 80q0 58 40 98.5t97 40.5q49 0 79 -31t30 -81q0 -58 -40 -98t-99 -40zM1018 1169q-49 0 -79 30.5t-30 80.5q0 58 41.5 98.5t98.5 40.5q47 0 76.5 -31t29.5 -81q0 -59 -39.5 -98.5t-97.5 -39.5zM1327 997l197 -18l-424 -979h-176l-133 719
l-295 -719h-177l-167 813q-39 10 -113 10l20 158q61 16 127 16t101.5 -27t46.5 -98l108 -606l287 717h182l125 -721z" />
    <glyph glyph-name="Ygrave" unicode="&#x1ef2;" horiz-adv-x="1193" 
d="M831 1520l-186 -11l-131 217l223 29zM1102 1477l201 -35l-568 -862l-65 -580h-209l67 580l-317 698h-158l19 164q19 7 69 13.5t90 6.5q72 0 108 -20.5t58 -71.5l256 -600z" />
    <glyph glyph-name="ygrave" unicode="&#x1ef3;" horiz-adv-x="1087" 
d="M737 1126h-180l-147 318l213 18zM915 997l213 -18l-606 -1139q-69 -125 -155.5 -177t-212.5 -52q-86 0 -136 20l15 174q59 -22 127 -22q74 0 121.5 24t76.5 84l54 107l-242 815q-52 10 -104 10l20 158q53 16 117 16q67 0 102.5 -27t52.5 -89l179 -635z" />
    <glyph glyph-name="uni1EF8" unicode="&#x1ef8;" horiz-adv-x="1193" 
d="M655 1585q-57 0 -71 -84l-115 15q37 204 180 204q48 0 111.5 -24.5t89.5 -24.5q58 0 72 84l114 -14q-20 -104 -64.5 -154.5t-117.5 -50.5q-46 0 -109.5 24.5t-89.5 24.5zM1102 1477l201 -35l-568 -862l-65 -580h-209l67 580l-317 698h-158l19 164q19 7 69 13.5t90 6.5
q72 0 108 -20.5t58 -71.5l256 -600z" />
    <glyph glyph-name="uni1EF9" unicode="&#x1ef9;" horiz-adv-x="1087" 
d="M500 1290q-73 0 -97 -116l-122 14q22 116 79.5 181t143.5 65q54 0 105.5 -20.5t96.5 -41t82 -20.5t58.5 25.5t36.5 90.5l123 -14q-21 -116 -78 -182t-146 -66q-54 0 -107 21t-97 42t-78 21zM915 997l213 -18l-606 -1139q-69 -125 -155.5 -177t-212.5 -52q-86 0 -136 20
l15 174q59 -22 127 -22q74 0 121.5 24t76.5 84l54 107l-242 815q-52 10 -104 10l20 158q53 16 117 16q67 0 102.5 -27t52.5 -89l179 -635z" />
    <glyph glyph-name="endash" unicode="&#x2013;" horiz-adv-x="1146" 
d="M1087 672h-929l-19 -168h928z" />
    <glyph glyph-name="emdash" unicode="&#x2014;" horiz-adv-x="1740" 
d="M1683 672h-1523l-21 -168h1526z" />
    <glyph glyph-name="quoteleft" unicode="&#x2018;" horiz-adv-x="417" 
d="M172 1178q0 -87 39 -135t104 -48q61 0 99.5 41t38.5 115q-49 0 -82 23.5t-33 68.5q0 35 11 63.5t32.5 49.5t39 33.5t44.5 27.5l-49 99q-109 -51 -176.5 -137t-67.5 -201z" />
    <glyph glyph-name="quoteright" unicode="&#x2019;" horiz-adv-x="417" 
d="M473 1286q0 86 -38.5 134t-102.5 48q-62 0 -99.5 -41t-37.5 -116q49 0 80.5 -22.5t31.5 -67.5q0 -35 -11 -63.5t-32.5 -49.5t-39 -33.5t-44.5 -27.5l51 -99q108 49 175 135.5t67 202.5z" />
    <glyph glyph-name="quotesinglbase" unicode="&#x201a;" horiz-adv-x="399" 
d="M350 63q0 86 -38.5 134.5t-102.5 48.5q-62 0 -99.5 -40.5t-37.5 -115.5q49 0 80.5 -23.5t31.5 -68.5q0 -35 -11 -63.5t-32.5 -49.5t-39 -33.5t-44.5 -27.5l52 -98q109 51 175 136.5t66 200.5z" />
    <glyph glyph-name="quotedblleft" unicode="&#x201c;" horiz-adv-x="821" 
d="M174 1178q0 -86 39.5 -134.5t103.5 -48.5q62 0 100 41t38 115q-49 0 -82 23.5t-33 68.5q0 35 11 63.5t33 49.5t40 33.5t45 27.5l-51 99q-109 -51 -176.5 -137t-67.5 -201zM578 1178q0 -86 38.5 -134.5t102.5 -48.5q62 0 99.5 40.5t37.5 115.5q-49 0 -81 23.5t-32 68.5
q0 35 11 63.5t32.5 49.5t39 33.5t44.5 27.5l-49 99q-110 -51 -176.5 -136.5t-66.5 -201.5z" />
    <glyph glyph-name="quotedblright" unicode="&#x201d;" horiz-adv-x="819" 
d="M473 1286q0 86 -38.5 134t-102.5 48q-62 0 -99.5 -41t-37.5 -116q49 0 80.5 -22.5t31.5 -67.5q0 -35 -11 -63.5t-32.5 -49.5t-39 -33.5t-44.5 -27.5l51 -99q108 49 175 135.5t67 202.5zM877 1286q0 86 -39.5 134t-104.5 48q-62 0 -99.5 -40.5t-37.5 -114.5q49 0 82 -23.5
t33 -68.5q0 -35 -11 -63.5t-33 -49.5t-40 -33.5t-45 -27.5l51 -99q109 51 176.5 137t67.5 201z" />
    <glyph glyph-name="quotedblbase" unicode="&#x201e;" horiz-adv-x="802" 
d="M350 63q0 86 -38.5 134.5t-102.5 48.5q-62 0 -99.5 -40.5t-37.5 -115.5q49 0 80.5 -23.5t31.5 -68.5q0 -35 -11 -63.5t-32.5 -49.5t-39 -33.5t-44.5 -27.5l52 -98q109 51 175 136.5t66 200.5zM754 63q0 86 -40 134.5t-104 48.5q-62 0 -99.5 -40.5t-37.5 -115.5
q49 0 82 -23.5t33 -68.5q0 -35 -11 -63.5t-33 -49.5t-40 -33.5t-45 -27.5l51 -98q110 51 177 136.5t67 200.5z" />
    <glyph glyph-name="dagger" unicode="&#x2020;" horiz-adv-x="1179" 
d="M1102 1057l-37 -199l-324 29l-88 -887h-198l114 887l-331 -29l10 199l334 -27l22 424h234l-76 -424z" />
    <glyph glyph-name="daggerdbl" unicode="&#x2021;" horiz-adv-x="1204" 
d="M1090 926l-299 24l-43 -364l309 24l-13 -196l-311 24l-35 -438h-206l65 438l-319 -24l36 196l301 -24l41 364l-305 -24l11 196l307 -24l16 356h232l-64 -356l313 24z" />
    <glyph glyph-name="bullet" unicode="&#x2022;" horiz-adv-x="616" 
d="M322 397q99 0 167 71.5t68 176.5q0 86 -49 140.5t-131 54.5q-99 0 -168.5 -71.5t-69.5 -176.5q0 -85 51 -140t132 -55z" />
    <glyph glyph-name="ellipsis" unicode="&#x2026;" horiz-adv-x="1349" 
d="M176 -25q73 0 121.5 45.5t48.5 124.5q0 56 -29.5 90.5t-89.5 34.5q-76 0 -123 -49t-47 -125q0 -55 31 -88t88 -33zM639 -25q72 0 121 45.5t49 124.5q0 56 -30 90.5t-91 34.5q-74 0 -121 -49t-47 -125q0 -55 31 -88t88 -33zM1126 -25q72 0 121 45.5t49 124.5
q0 56 -29.5 90.5t-90.5 34.5q-74 0 -121 -49t-47 -125q0 -55 30.5 -88t87.5 -33z" />
    <glyph glyph-name="perthousand" unicode="&#x2030;" horiz-adv-x="2627" 
d="M545 668q105 0 183 36t124 101.5t68 149.5t22 188q0 157 -74.5 244.5t-232.5 87.5q-105 0 -183.5 -36t-124 -101t-67.5 -149t-22 -188q0 -158 74.5 -245.5t232.5 -87.5zM1520 1475l-1198 -1491l182 -9l1196 1491zM559 803q-153 0 -153 209q0 154 52.5 239.5t159.5 85.5
q156 0 156 -204q0 -157 -54 -243.5t-161 -86.5zM1386 -25q105 0 183.5 36t124.5 101t68 149t22 188q0 158 -74 245.5t-231 87.5q-105 0 -183.5 -35.5t-125 -101t-69 -149t-22.5 -187.5q0 -158 74.5 -246t232.5 -88zM2187 -25q105 0 183.5 36t125 101t69 149t22.5 188
q0 157 -75.5 245t-234.5 88q-105 0 -184 -35.5t-125.5 -101t-69 -149t-22.5 -187.5q0 -158 75.5 -246t235.5 -88zM1403 113q-154 0 -154 206q0 154 53 241t160 87q154 0 154 -209q0 -157 -53 -241t-160 -84zM2202 113q-156 0 -156 206q0 328 217 328q156 0 156 -211
q0 -323 -217 -323z" />
    <glyph glyph-name="guilsinglleft" unicode="&#x2039;" horiz-adv-x="638" 
d="M582 840l-260 -262l202 -240l-110 -109l-275 334l4 33l351 354z" />
    <glyph glyph-name="guilsinglright" unicode="&#x203a;" horiz-adv-x="700" 
d="M307 946l275 -334l-2 -32l-353 -355l-88 113l262 262l-204 240z" />
    <glyph glyph-name="fraction" unicode="&#x2044;" horiz-adv-x="796" 
d="M987 1475l-1192 -1491l182 -9l1190 1491z" />
    <glyph glyph-name="Euro" unicode="&#x20ac;" horiz-adv-x="1523" 
d="M1036 1475q148 0 245.5 -35.5t143.5 -81.5l-59 -187q-157 117 -340 117q-154 0 -265 -94t-163 -291h608l-35 -141h-978l32 141h160q36 150 101 262t151.5 178.5t185.5 99t213 32.5zM907 162q219 0 389 119l17 -191q-52 -40 -170 -77.5t-269 -37.5q-113 0 -205 30t-163 93
t-113 166.5t-49 243.5h-205l35 141h975l-35 -141h-553q32 -346 346 -346z" />
    <glyph glyph-name="trademark" unicode="&#x2122;" horiz-adv-x="1267" 
d="M1276 975q18 -6 57 -6l-10 -97q-40 -8 -90 -8q-45 0 -64 19t-16 63l29 346l-203 -366h-78l-123 370l-59 -424h-121l64 461h-183l-53 -461h-125l53 461h-174l13 101h655l110 -355l191 355h166z" />
    <glyph glyph-name="minus" unicode="&#x2212;" horiz-adv-x="1040" 
d="M963 733h-803l-21 -172h803z" />
    <glyph glyph-name="approxequal" unicode="&#x2248;" horiz-adv-x="1085" 
d="M1006 961q-23 -121 -84 -184.5t-152 -63.5q-74 0 -199 30.5t-170 30.5q-36 0 -58 -26t-36 -80l-133 20q23 120 84 183t152 63q76 0 198.5 -31t167.5 -31q38 0 58.5 23t37.5 86zM973 610q-25 -120 -86 -182.5t-152 -62.5q-74 0 -198.5 30.5t-169.5 30.5q-68 0 -95 -109
l-133 21q23 121 84.5 184.5t151.5 63.5q76 0 199.5 -31t168.5 -31q37 0 58.5 23t38.5 84z" />
    <glyph glyph-name="notequal" unicode="&#x2260;" horiz-adv-x="1105" 
d="M1010 756h-295l-90 -213h360l-18 -156h-408l-84 -199h-176l82 199h-242l21 156h289l90 213h-357l19 155h403l84 199h176l-82 -199h244z" />
    <glyph glyph-name="uniF8FF" unicode="&#xf8ff;" horiz-adv-x="2971" 
d="M1415 1194q0 54 36 90.5t89 36.5q54 0 90.5 -36.5t36.5 -90.5q0 -53 -36.5 -89t-90.5 -36q-52 0 -88.5 36.5t-36.5 88.5zM449 553h-244q0 274 18 643h205q1 -10 4 -65t5.5 -108t5.5 -128t4.5 -164t1.5 -178zM1421 553q0 187 6 301h-124l6 -133q8 -8 30 -8q27 0 37 10
v-152q-26 -30 -139 -30q-168 0 -168 135q0 25 4 100.5t4 77.5h-45v162l244 61l2 -35h364q21 -138 21 -489h-242zM672 543q-90 0 -139.5 58t-49.5 175q0 133 68.5 205t206.5 72q128 0 191 -62t63 -178v-260h-170l-17 125q-13 -67 -48 -101t-105 -34zM2232 553h-233
q0 54 2 115t2 75q0 33 -6 46.5t-25 13.5q-23 0 -30 -15t-7 -45q0 -14 3.5 -75t3.5 -115h-234q0 351 21 489h163q13 -97 13 -155q2 20 9 42t23 53t50 51t81 20q87 0 121 -51t37 -166zM2767 801q0 -125 -62 -191.5t-190 -66.5q-127 0 -188.5 66.5t-61.5 187.5q0 53 12 96
t39 80.5t79 58.5t124 21q248 0 248 -252zM799 768q0 53 -49 53q-24 0 -34.5 -12t-10.5 -41q0 -61 45 -61q49 0 49 61zM2562 768q0 53 -47 53q-22 0 -32.5 -12t-10.5 -41q0 -61 43 -61q22 0 34.5 16t12.5 45zM877 487h213q20 -107 20 -282q0 -166 -68.5 -236.5t-242.5 -70.5
q-127 0 -181 34v170q48 -32 144 -32q43 0 69.5 12.5t33.5 24t7 20.5q-35 -23 -100 -23q-184 0 -184 170v27h-113l6 -133q12 -8 31 -8q27 0 37 10v-150q-37 -30 -139 -30q-91 0 -128.5 34.5t-37.5 110.5q0 79 6 166h-37v164l240 59l-2 -37h362v-243q0 -33 6 -44.5t25 -11.5
t26 12.5t7 43.5v243zM1501 498q76 0 120 -60t44 -172q0 -276 -281 -276q2 -31 2 -80h-243q0 292 20 577h160q14 -87 14 -155q3 16 7 29.5t16.5 41t28.5 46.5t46 34t66 15zM2191 260q0 -45 -6 -72h-254q23 -36 103 -36q68 0 112 24v-153q-47 -33 -159 -33q-289 0 -289 250
q0 121 67 189.5t189 68.5q113 0 175 -61.5t62 -176.5zM2003 223q6 56 -35 56q-47 0 -47 -56h82zM1372 147q11 0 26.5 5t32.5 24t17 47q0 47 -41 47q-45 0 -45 -63q0 -30 10 -60zM2200 27q0 -22 13.5 -34.5t35.5 -12.5t35.5 12.5t13.5 34.5t-13.5 34.5t-35.5 12.5
t-35.5 -12.5t-13.5 -34.5zM2212 27q0 36 37 36t37 -36q0 -37 -37 -37t-37 37zM2269 4l-12 19q14 0 14 14t-20 14h-23v-47h10v19h11l8 -19h12zM2253 31h-15v12h15q8 0 8 -6t-8 -6z" />
    <glyph glyph-name="i.loclTRK" horiz-adv-x="454" 
d="M283 1165q62 0 105.5 44t43.5 108q0 53 -32 87t-85 34q-61 0 -105 -43t-44 -107q0 -54 32.5 -88.5t84.5 -34.5zM262 164l98 819h-198l-101 -829q-6 -42 -6 -58q0 -63 34 -87.5t110 -24.5q77 0 139 10l24 158q-62 0 -100 12z" />
    <glyph glyph-name="f_t" horiz-adv-x="1259" 
d="M997 815l-61 -539q-7 -71 17.5 -98.5t80.5 -27.5q70 0 148 30l-6 -172q-107 -33 -215 -33q-137 0 -191.5 62t-34.5 225l64 553h-350l-93 -815h-200l94 815h-176l20 168h174l19 160q18 165 100 248.5t213 83.5q98 0 166 -29l-33 -172q-53 22 -112 22q-117 0 -134 -147
l-18 -166h348l33 287h199l-33 -287h287l-21 -168h-285z" />
    <glyph glyph-name="caron.alt" horiz-adv-x="606" 
d="M594 1454l-174 14l-96 -393l159 -14z" />
    <glyph glyph-name="acute.case" horiz-adv-x="776" 
d="M354 1755l-149 -235l182 -11l184 217z" />
    <glyph glyph-name="breve.case" horiz-adv-x="903" 
d="M575 1757q-17 -72 -50 -102.5t-91 -30.5q-54 0 -78 29.5t-24 103.5l-127 -12q0 -129 53.5 -184.5t157.5 -55.5q120 0 188.5 57.5t93.5 182.5z" />
    <glyph glyph-name="caron.case" horiz-adv-x="954" 
d="M588 1749l162 -25l-207 -208h-185l-153 208l166 25l92 -135z" />
    <glyph glyph-name="circumflex.case" horiz-adv-x="954" 
d="M750 1536l-166 -25l-95 136l-124 -136l-160 25l205 209h184z" />
    <glyph glyph-name="dieresis.case" horiz-adv-x="987" 
d="M301 1513q53 0 89 36.5t36 88.5q0 43 -27 72t-71 29q-53 0 -88 -35.5t-35 -89.5q0 -44 26.5 -72.5t69.5 -28.5zM659 1513q52 0 87.5 36t35.5 89q0 44 -26.5 72.5t-69.5 28.5q-53 0 -89 -35.5t-36 -89.5q0 -43 27 -72t71 -29z" />
    <glyph glyph-name="dotaccent.case" horiz-adv-x="651" 
d="M311 1544q58 0 96.5 39t38.5 98q0 47 -29 78t-75 31q-60 0 -98.5 -39t-38.5 -98q0 -49 28 -79t78 -30z" />
    <glyph glyph-name="grave.case" horiz-adv-x="727" 
d="M428 1755l94 -235l-186 -11l-131 217z" />
    <glyph glyph-name="hungarumlaut.case" horiz-adv-x="1093" 
d="M354 1755l-149 -235l182 -11l184 217zM674 1755l-152 -235l183 -11l184 217z" />
    <glyph glyph-name="macron.case" horiz-adv-x="976" 
d="M223 1694l-18 -150h549l18 150h-549z" />
    <glyph glyph-name="ring.case" horiz-adv-x="733" 
d="M348 1489q84 0 132 49.5t48 132.5q0 66 -36.5 103.5t-104.5 37.5q-84 0 -133 -50t-49 -134q0 -66 36.5 -102.5t106.5 -36.5zM356 1575q-53 0 -53 63q0 41 20.5 64.5t53.5 23.5q51 0 51 -65q0 -39 -20.5 -62.5t-51.5 -23.5z" />
    <glyph glyph-name="tilde.case" horiz-adv-x="976" 
d="M772 1741q-20 -104 -64.5 -154.5t-117.5 -50.5q-46 0 -109.5 24.5t-89.5 24.5q-58 0 -72 -84l-114 15q37 204 180 204q48 0 111.5 -24.5t89.5 -24.5q57 0 71 84z" />
    <glyph glyph-name="IJacute" horiz-adv-x="1372" 
d="M459 1755l-150 -235l183 -11l184 217zM1276 1755l-150 -235l183 -11l184 217zM299 1454l-180 -1454h209l178 1454h-207zM1323 1454h-207l-121 -1038q-17 -139 -81 -198.5t-189 -59.5q-110 0 -250 57l-39 -182q37 -23 111.5 -40.5t171.5 -17.5q106 0 185.5 22t142.5 71.5
t102 135.5t53 208z" />
    <glyph glyph-name="ijacute" horiz-adv-x="888" 
d="M377 1462l-199 -336h180l226 318zM868 1462l-198 -336h180l225 318zM262 164l98 819h-198l-101 -829q-6 -42 -6 -58q0 -63 34 -87.5t110 -24.5q77 0 139 10l24 158q-62 0 -100 12zM852 983h-201l-131 -1081q-7 -63 -30 -88t-70 -25q-32 0 -84 21l-29 -175q54 -24 129 -24
q121 0 192 63t89 211z" />
    </font>
</defs>
</svg>
